<?xml version="1.0" encoding="iso-8859-1"?>
<!-- Generator: Adobe Illustrator 19.0.0, SVG Export Plug-In . SVG Version: 6.00 Build 0)  -->
<svg version="1.1" id="Capa_1" xmlns="http://www.w3.org/2000/svg" xmlns:xlink="http://www.w3.org/1999/xlink" x="0px" y="0px"
	 viewBox="0 0 511.999 511.999" style="enable-background:new 0 0 511.999 511.999;" xml:space="preserve">
<path style="fill:#FFF2D4;" d="M120.776,209.811H60.623c-15.902,0-30.994-6.144-42.497-17.303C6.437,181.171,0,166.141,0,150.188
	V81.76c0-16.518,13.439-29.957,29.958-29.957h83.994c8.279,0,14.991,6.712,14.991,14.991s-6.712,14.991-14.991,14.991H29.958
	l0.025,68.402c0,16.067,14.032,29.64,30.64,29.64h60.153c8.279,0,14.991,6.712,14.991,14.991
	C135.768,203.098,129.056,209.811,120.776,209.811z"/>
<path style="fill:#F9D8B4;" d="M451.377,209.811h-60.153c-8.279,0-14.991-6.712-14.991-14.991c0-8.279,6.712-14.991,14.991-14.991
	h60.153c16.608,0,30.64-13.573,30.64-29.64V81.76l-83.97,0.025c-8.279,0-14.991-6.712-14.991-14.991s6.712-14.991,14.991-14.991
	h83.994c16.518,0,29.958,13.438,29.958,29.958v68.428c0,15.953-6.437,30.983-18.126,42.321
	C482.371,203.666,467.279,209.811,451.377,209.811z"/>
<path style="fill:#FFF2D4;" d="M307.212,281.55v151.403H204.121V280.551c0-8.275,6.716-14.991,14.991-14.991
	c3.838,0,19.879,0.22,35.959,0.44c18.539,0.27,37.149,0.56,37.149,0.56C300.506,266.559,307.212,273.275,307.212,281.55z"/>
<path style="fill:#F9D8B4;" d="M307.212,432.953h-52.14V265.999c18.539,0.27,37.149,0.56,37.149,0.56
	c8.285,0,14.991,6.716,14.991,14.991V432.953z"/>
<path style="fill:#FFD561;" d="M346.06,431.894v67.331H165.274v-67.331c0-15.951,12.983-28.923,28.933-28.923h122.929
	C333.077,402.97,346.06,415.943,346.06,431.894z"/>
<path style="fill:#FFB64C;" d="M346.06,431.894v67.331h-90.988V402.97h62.064C333.077,402.97,346.06,415.943,346.06,431.894z"/>
<path style="fill:#CA6D36;" d="M365.788,484.232c0,8.285-6.706,14.991-14.991,14.991h-190.26c-8.285,0-14.991-6.706-14.991-14.991
	c0-8.275,6.706-14.991,14.991-14.991h190.26C359.082,469.241,365.788,475.958,365.788,484.232z"/>
<path style="fill:#FFD561;" d="M412.371,47.605v103.6c0,80.464-65.452,145.916-145.916,145.916h-21.578
	c-80.464,0-145.916-65.452-145.916-145.916v-103.6c0-19.209,15.621-34.83,34.83-34.83h243.75
	C396.75,12.774,412.371,28.396,412.371,47.605z"/>
<path style="fill:#FFB64C;" d="M412.371,47.605v103.6c0,80.464-65.452,145.916-145.916,145.916h-11.383V12.774h122.469
	C396.75,12.774,412.371,28.396,412.371,47.605z"/>
<path style="fill:#FFF2D4;" d="M318.545,145.539l-17.47,17.03l4.118,24.056c1.279,7.426-1.719,14.801-7.826,19.229
	c-6.096,4.427-14.032,5.007-20.708,1.499l-21.378-11.244l-0.21-0.11l-21.598,11.353c-2.908,1.519-6.047,2.279-9.175,2.279
	c-4.058,0-8.085-1.269-11.533-3.778c-6.106-4.427-9.105-11.803-7.826-19.229l4.128-24.056l-17.48-17.03
	c-5.397-5.257-7.306-12.983-4.967-20.158c2.329-7.166,8.405-12.293,15.871-13.382l24.146-3.508l10.794-21.877
	c3.338-6.756,10.094-10.964,17.64-10.964h0.21c7.456,0.08,14.112,4.258,17.42,10.964l10.794,21.877l24.146,3.508
	c7.466,1.089,13.542,6.216,15.881,13.382C325.851,132.556,323.942,140.282,318.545,145.539z"/>
<path style="fill:#B34F03;" d="M365.788,484.232c0,8.285-6.706,14.991-14.991,14.991h-95.725v-29.983h95.725
	C359.082,469.241,365.788,475.958,365.788,484.232z"/>
<path style="fill:#F9D8B4;" d="M318.545,145.539l-17.47,17.03l4.118,24.056c1.279,7.426-1.719,14.801-7.826,19.229
	c-6.096,4.427-14.032,5.007-20.708,1.499l-21.378-11.244V75.649c7.456,0.08,14.112,4.258,17.42,10.964l10.794,21.877l24.146,3.508
	c7.466,1.089,13.542,6.216,15.881,13.382C325.851,132.556,323.942,140.282,318.545,145.539z"/>
<g>
</g>
<g>
</g>
<g>
</g>
<g>
</g>
<g>
</g>
<g>
</g>
<g>
</g>
<g>
</g>
<g>
</g>
<g>
</g>
<g>
</g>
<g>
</g>
<g>
</g>
<g>
</g>
<g>
</g>
</svg>
