<?xml version="1.0" encoding="iso-8859-1"?>
<!-- Generator: Adobe Illustrator 19.0.0, SVG Export Plug-In . SVG Version: 6.00 Build 0)  -->
<svg version="1.1" id="Capa_1" xmlns="http://www.w3.org/2000/svg" xmlns:xlink="http://www.w3.org/1999/xlink" x="0px" y="0px"
	 viewBox="0 0 512 512" style="enable-background:new 0 0 512 512;" xml:space="preserve">
<path style="fill:#FFD561;" d="M43.165,512c-3.841,0-7.681-1.466-10.611-4.396c-5.86-5.859-5.86-15.362,0-21.222l53.777-53.777
	c5.859-5.859,15.362-5.859,21.222,0c5.861,5.859,5.861,15.362,0,21.222l-53.777,53.777C50.847,510.535,47.006,512,43.165,512z"/>
<path style="fill:#FFB64C;" d="M418.548,512c-3.841,0-7.681-1.466-10.611-4.396l-53.777-53.777c-5.861-5.859-5.861-15.362,0-21.222
	c5.859-5.859,15.362-5.859,21.222,0l53.777,53.777c5.861,5.859,5.861,15.362,0,21.222C426.229,510.535,422.389,512,418.548,512z"/>
<path style="fill:#FFF2D4;" d="M457.506,278.739c0,60.676-23.63,117.72-66.528,160.628c-42.908,42.898-99.953,66.528-160.628,66.528
	h-0.13c-60.626-0.03-117.62-23.66-160.488-66.528C26.822,396.459,3.192,339.414,3.192,278.739s23.63-117.72,66.538-160.628
	c42.868-42.868,99.863-66.498,160.488-66.528h0.13c60.676,0,117.72,23.63,160.628,66.528
	C433.876,161.019,457.506,218.063,457.506,278.739z"/>
<path style="fill:#F9D8B4;" d="M457.506,278.739c0,60.676-23.63,117.72-66.528,160.628c-42.908,42.898-99.953,66.528-160.628,66.528
	h-0.13V51.582h0.13c60.676,0,117.72,23.63,160.628,66.528C433.876,161.019,457.506,218.063,457.506,278.739z"/>
<g>
	<path style="fill:#FF712F;" d="M390.977,117.64c-42.908-42.898-99.953-66.528-160.628-66.528s-117.72,23.63-160.618,66.528
		C26.822,160.548,3.192,217.593,3.192,278.268s23.63,117.72,66.538,160.618c42.898,42.908,99.943,66.538,160.618,66.538
		s117.72-23.63,160.628-66.538c42.898-42.898,66.528-99.943,66.528-160.618S433.876,160.548,390.977,117.64z M230.349,475.412
		c-108.706,0-197.144-88.438-197.144-197.144S121.643,81.125,230.349,81.125s197.144,88.438,197.144,197.144
		S339.055,475.412,230.349,475.412z"/>
	<path style="fill:#FF712F;" d="M230.349,106.805h-0.13c-95.04,0-172.363,77.323-172.363,172.363
		c0,95.05,77.323,172.373,172.363,172.373h0.13c94.98-0.07,172.233-77.363,172.233-172.373
		C402.582,184.168,325.33,106.876,230.349,106.805z M230.349,421.529h-0.13c-78.493,0-142.351-63.867-142.351-142.361
		s63.857-142.351,142.351-142.351h0.13c78.433,0.07,142.221,63.897,142.221,142.351S308.782,421.459,230.349,421.529z"/>
	<path style="fill:#FF712F;" d="M230.349,161.169c-64.828,0-117.56,52.742-117.56,117.57s52.732,117.57,117.56,117.57
		s117.57-52.742,117.57-117.57S295.177,161.169,230.349,161.169z M230.349,366.296c-48.281,0-87.547-39.277-87.547-87.557
		s39.267-87.557,87.547-87.557s87.557,39.277,87.557,87.557S278.63,366.296,230.349,366.296z"/>
	<path style="fill:#FF712F;" d="M230.349,217.533c-33.484,0-60.726,27.252-60.726,60.736s27.242,60.726,60.726,60.726
		c33.494,0,60.736-27.242,60.736-60.726S263.843,217.533,230.349,217.533z M230.349,308.982c-16.937,0-30.713-13.776-30.713-30.713
		s13.776-30.723,30.713-30.723s30.723,13.786,30.723,30.723S247.286,308.982,230.349,308.982z"/>
</g>
<g>
	<path style="fill:#FF3636;" d="M291.085,278.268c0,33.484-27.242,60.726-60.736,60.726v-30.013
		c16.937,0,30.723-13.776,30.723-30.713s-13.786-30.723-30.723-30.723v-30.013C263.843,217.533,291.085,244.784,291.085,278.268z"/>
	<path style="fill:#FF3636;" d="M347.919,278.739c0,64.828-52.742,117.57-117.57,117.57v-30.013
		c48.281,0,87.557-39.277,87.557-87.557s-39.277-87.557-87.557-87.557v-30.013C295.177,161.169,347.919,213.911,347.919,278.739z"/>
	<path style="fill:#FF3636;" d="M402.582,279.169c0,95.01-77.253,172.303-172.233,172.373v-30.013
		c78.433-0.07,142.221-63.907,142.221-142.361s-63.787-142.281-142.221-142.351v-30.013
		C325.33,106.876,402.582,184.168,402.582,279.169z"/>
	<path style="fill:#FF3636;" d="M457.506,278.268c0,60.676-23.63,117.72-66.528,160.618
		c-42.908,42.908-99.953,66.538-160.628,66.538v-30.013c108.706,0,197.144-88.438,197.144-197.144S339.055,81.125,230.349,81.125
		V51.112c60.676,0,117.72,23.63,160.628,66.528C433.876,160.548,457.506,217.593,457.506,278.268z"/>
</g>
<path style="fill:#4E6582;" d="M508.808,55.033c0,8.284-6.713,15.006-15.006,15.006h-34.004L240.964,288.873
	c-2.931,2.931-6.773,4.402-10.615,4.402c-3.541,0-7.083-1.251-9.904-3.752c-0.24-0.21-0.47-0.42-0.7-0.65
	c-5.863-5.853-5.863-15.357,0-21.219L438.778,48.621V15.006C438.778,6.723,445.491,0,453.784,0c8.284,0,15.006,6.723,15.006,15.006
	v25.021h25.011C502.095,40.027,508.808,46.74,508.808,55.033z"/>
<path style="fill:#2D4968;" d="M508.808,55.033c0,8.284-6.713,15.006-15.006,15.006h-34.004L240.964,288.873
	c-2.931,2.931-6.773,4.402-10.615,4.402c-3.541,0-7.083-1.251-9.904-3.752L468.791,40.027h25.011
	C502.095,40.027,508.808,46.74,508.808,55.033z"/>
<g>
</g>
<g>
</g>
<g>
</g>
<g>
</g>
<g>
</g>
<g>
</g>
<g>
</g>
<g>
</g>
<g>
</g>
<g>
</g>
<g>
</g>
<g>
</g>
<g>
</g>
<g>
</g>
<g>
</g>
</svg>
