<?xml version="1.0" encoding="iso-8859-1"?>
<!-- Generator: Adobe Illustrator 19.0.0, SVG Export Plug-In . SVG Version: 6.00 Build 0)  -->
<svg version="1.1" id="Capa_1" xmlns="http://www.w3.org/2000/svg" xmlns:xlink="http://www.w3.org/1999/xlink" x="0px" y="0px"
	 viewBox="0 0 512 512" style="enable-background:new 0 0 512 512;" xml:space="preserve">
<path style="fill:#64A3FF;" d="M374.929,312.53v162.074c0,20.621-16.775,37.396-37.386,37.396H175.459
	c-6.57,0-12.759-1.703-18.127-4.707c-9.014-5.008-15.744-13.651-18.217-23.926c-0.681-2.814-1.042-5.749-1.042-8.763V312.53
	c0-20.621,16.775-37.386,37.386-37.386h162.464C358.364,275.354,374.929,292.029,374.929,312.53z"/>
<path style="fill:#2A81EA;" d="M374.929,312.53v162.074c0,20.621-16.775,37.396-37.386,37.396h-81.022V275.144h81.402
	C358.364,275.354,374.929,292.029,374.929,312.53z"/>
<g>
	<path style="fill:#FFD561;" d="M269.831,429.256l-13.31,9.234l-99.189,68.803c-9.014-5.008-15.744-13.651-18.217-23.926
		l113.591-78.798c1.212-0.841,2.494-1.472,3.816-1.913c6.169-2.053,13.2,0.08,17.086,5.689
		C278.344,415.164,276.651,424.518,269.831,429.256z"/>
	<polygon style="fill:#FFD561;" points="337.913,275.144 256.521,332.54 138.073,416.056 138.073,379.3 256.521,295.785 
		285.795,275.144 	"/>
</g>
<path style="fill:#FFF2D4;" d="M191.768,236.161c-5.399,0-10.616-2.918-13.306-8.028l-1.091-2.071
	c-13.211-25.101-30.507-47.549-51.41-66.718c-6.114-5.608-6.525-15.111-0.917-21.225c5.607-6.114,15.111-6.526,21.226-0.917
	c23.455,21.512,42.863,46.701,57.688,74.867l1.09,2.07c3.865,7.341,1.047,16.426-6.295,20.292
	C196.522,235.604,194.128,236.161,191.768,236.161z"/>
<path style="fill:#F9D8B4;" d="M321.233,236.161c-2.36,0-4.752-0.557-6.986-1.732c-7.342-3.865-10.16-12.95-6.295-20.292
	l1.091-2.071c14.823-28.164,34.231-53.352,57.687-74.866c6.114-5.607,15.616-5.197,21.226,0.917
	c5.608,6.114,5.197,15.617-0.917,21.225c-20.902,19.171-38.198,41.618-51.409,66.717l-1.092,2.072
	C331.849,233.243,326.631,236.161,321.233,236.161z"/>
<path style="fill:#FFF2D4;" d="M271.523,182.174v57.627c0,8.282-6.72,15.013-15.003,15.023c-0.01,0-0.01,0-0.02,0
	c-8.292,0-15.023-6.73-15.023-15.023v-57.627c0-8.302,6.73-15.023,15.023-15.023c0.01,0,0.01,0,0.02,0
	C264.803,167.161,271.523,173.882,271.523,182.174z"/>
<path style="fill:#FFB64C;" d="M409.731,128.603c-0.491,0-0.991-0.02-1.482-0.07c-0.481-0.05-0.971-0.12-1.452-0.22
	c-0.481-0.1-0.961-0.22-1.422-0.361c-0.471-0.14-0.941-0.31-1.392-0.501c-0.451-0.18-0.891-0.391-1.322-0.62
	c-0.441-0.23-0.861-0.491-1.272-0.762c-0.401-0.27-0.801-0.561-1.182-0.871c-0.381-0.31-0.751-0.641-1.102-0.99
	c-0.341-0.352-0.681-0.722-0.991-1.103c-0.31-0.371-0.601-0.771-0.871-1.182c-0.27-0.411-0.521-0.831-0.751-1.262
	c-0.23-0.432-0.441-0.881-0.631-1.332c-0.19-0.451-0.351-0.921-0.501-1.382c-0.14-0.472-0.26-0.951-0.361-1.433
	c-0.09-0.48-0.17-0.971-0.22-1.451c-0.05-0.491-0.07-0.991-0.07-1.482c0-0.491,0.02-0.981,0.07-1.472
	c0.05-0.491,0.13-0.981,0.22-1.462c0.1-0.481,0.22-0.951,0.361-1.422c0.15-0.472,0.31-0.932,0.501-1.383
	c0.19-0.461,0.401-0.9,0.631-1.331c0.23-0.432,0.481-0.861,0.751-1.263c0.27-0.411,0.561-0.811,0.871-1.191
	c0.31-0.38,0.651-0.751,0.991-1.092c0.351-0.352,0.721-0.682,1.102-0.991c0.381-0.311,0.781-0.611,1.182-0.881
	c0.411-0.271,0.831-0.522,1.272-0.751c0.431-0.23,0.871-0.441,1.322-0.631c0.451-0.181,0.921-0.352,1.392-0.491
	c0.461-0.15,0.941-0.271,1.422-0.361c0.481-0.1,0.971-0.17,1.452-0.22c0.981-0.1,1.983-0.1,2.964,0
	c0.481,0.05,0.971,0.12,1.452,0.22c0.481,0.09,0.961,0.21,1.432,0.361c0.461,0.14,0.931,0.31,1.382,0.491
	c0.451,0.189,0.891,0.4,1.322,0.631c0.441,0.229,0.861,0.48,1.272,0.751c0.401,0.27,0.801,0.57,1.182,0.881
	c0.381,0.31,0.751,0.641,1.102,0.991c0.34,0.341,0.681,0.711,0.991,1.092c0.31,0.381,0.601,0.78,0.871,1.191
	c0.27,0.401,0.531,0.831,0.751,1.263c0.23,0.431,0.441,0.87,0.631,1.331c0.19,0.451,0.361,0.911,0.501,1.383
	c0.14,0.471,0.26,0.95,0.361,1.422c0.09,0.48,0.17,0.971,0.22,1.462c0.05,0.49,0.07,0.98,0.07,1.472s-0.02,0.991-0.07,1.482
	c-0.05,0.48-0.13,0.971-0.22,1.451c-0.1,0.481-0.22,0.961-0.361,1.433c-0.14,0.461-0.31,0.931-0.501,1.382
	c-0.19,0.451-0.401,0.9-0.631,1.332c-0.22,0.431-0.481,0.851-0.751,1.262c-0.27,0.411-0.561,0.811-0.871,1.182
	c-0.31,0.381-0.651,0.751-0.991,1.103c-0.351,0.351-0.721,0.681-1.102,0.99c-0.381,0.311-0.781,0.602-1.182,0.871
	c-0.411,0.271-0.831,0.531-1.272,0.762c-0.431,0.229-0.871,0.44-1.322,0.62c-0.451,0.19-0.921,0.361-1.382,0.501
	c-0.471,0.141-0.951,0.261-1.432,0.361c-0.481,0.099-0.971,0.17-1.452,0.22C410.723,128.583,410.222,128.603,409.731,128.603z"/>
<g>
	<path style="fill:#FFD561;" d="M102.269,129.605c-0.491,0-0.991-0.02-1.482-0.07c-0.481-0.05-0.971-0.13-1.452-0.22
		c-0.481-0.1-0.961-0.22-1.432-0.361c-0.461-0.14-0.931-0.31-1.382-0.501c-0.451-0.18-0.891-0.391-1.322-0.62
		c-0.441-0.23-0.861-0.491-1.272-0.762c-0.401-0.27-0.801-0.561-1.182-0.871c-0.381-0.31-0.751-0.641-1.102-0.99
		c-0.341-0.352-0.681-0.722-0.991-1.103c-0.31-0.371-0.601-0.771-0.871-1.182c-0.27-0.411-0.521-0.831-0.751-1.262
		c-0.23-0.432-0.441-0.881-0.631-1.332c-0.19-0.451-0.351-0.921-0.501-1.382c-0.14-0.472-0.26-0.951-0.361-1.433
		c-0.09-0.48-0.17-0.971-0.22-1.451c-0.05-0.491-0.07-0.991-0.07-1.482s0.02-0.981,0.07-1.472c0.05-0.491,0.13-0.981,0.22-1.462
		c0.1-0.481,0.22-0.961,0.361-1.422c0.15-0.472,0.31-0.932,0.501-1.383c0.19-0.461,0.401-0.9,0.631-1.331
		c0.23-0.432,0.481-0.861,0.751-1.263c0.27-0.411,0.561-0.811,0.871-1.191s0.651-0.751,0.991-1.092
		c0.351-0.352,0.721-0.682,1.102-0.991c0.381-0.311,0.781-0.611,1.182-0.881c0.411-0.271,0.831-0.522,1.262-0.751
		c0.431-0.23,0.881-0.441,1.332-0.631c0.451-0.181,0.921-0.352,1.382-0.491c0.471-0.15,0.951-0.271,1.432-0.361
		c0.481-0.1,0.971-0.17,1.452-0.22c0.981-0.1,1.983-0.1,2.964,0c0.481,0.05,0.971,0.12,1.452,0.22
		c0.481,0.09,0.961,0.21,1.432,0.361c0.461,0.14,0.931,0.31,1.382,0.491c0.451,0.189,0.891,0.4,1.322,0.631
		c0.441,0.229,0.861,0.48,1.272,0.751c0.401,0.27,0.801,0.57,1.182,0.881c0.381,0.31,0.751,0.641,1.102,0.991
		c0.341,0.341,0.681,0.711,0.991,1.092s0.601,0.78,0.871,1.191c0.27,0.401,0.521,0.831,0.751,1.263
		c0.23,0.431,0.441,0.87,0.631,1.331c0.19,0.451,0.361,0.911,0.501,1.383c0.14,0.461,0.26,0.94,0.361,1.422
		c0.09,0.48,0.17,0.971,0.22,1.462c0.05,0.49,0.07,0.98,0.07,1.472s-0.02,0.991-0.07,1.482c-0.05,0.48-0.13,0.971-0.22,1.451
		c-0.1,0.481-0.22,0.961-0.361,1.433c-0.14,0.461-0.31,0.931-0.501,1.382c-0.19,0.451-0.401,0.9-0.631,1.332
		c-0.23,0.431-0.481,0.851-0.751,1.262s-0.561,0.811-0.871,1.182c-0.31,0.381-0.651,0.751-0.991,1.103
		c-0.351,0.351-0.721,0.681-1.102,0.99c-0.381,0.311-0.781,0.602-1.182,0.871c-0.411,0.271-0.831,0.531-1.272,0.762
		c-0.431,0.229-0.871,0.44-1.322,0.62c-0.451,0.19-0.921,0.361-1.382,0.501c-0.471,0.141-0.951,0.261-1.432,0.361
		c-0.481,0.09-0.971,0.17-1.452,0.22C103.26,129.585,102.76,129.605,102.269,129.605z"/>
	<path style="fill:#FFD561;" d="M323.972,73.25l-19.199,18.708l4.537,26.42c1.292,7.571-1.763,15.083-7.982,19.599
		c-6.209,4.517-14.302,5.108-21.102,1.532l-23.706-12.469l-0.02-0.01l-23.726,12.479c-2.954,1.552-6.159,2.324-9.344,2.324
		c-4.136,0-8.252-1.302-11.758-3.856c-6.219-4.517-9.274-12.028-7.982-19.599l4.537-26.42L189.029,73.25
		c-5.498-5.358-7.441-13.24-5.068-20.551c2.374-7.301,8.573-12.529,16.184-13.641l26.52-3.856l11.858-24.026
		C241.929,4.286,248.819,0,256.501,0c0.01,0,0.01,0,0.02,0c7.672,0.01,14.552,4.296,17.957,11.177l11.858,24.026l26.52,3.856
		c7.611,1.112,13.811,6.34,16.184,13.641C331.413,60.01,329.471,67.892,323.972,73.25z"/>
</g>
<path style="fill:#F9D8B4;" d="M256.521,254.823v-87.672c8.282,0.01,15.003,6.73,15.003,15.023v57.627
	C271.523,248.083,264.803,254.813,256.521,254.823z"/>
<g>
	<path style="fill:#FFB64C;" d="M280.226,139.51l-23.706-12.469V0c7.672,0.01,14.552,4.296,17.957,11.177l11.858,24.026l26.52,3.856
		c7.611,1.112,13.811,6.34,16.184,13.641c2.374,7.311,0.431,15.193-5.068,20.551l-19.199,18.708l4.537,26.42
		c1.292,7.571-1.763,15.083-7.982,19.599C295.119,142.494,287.027,143.085,280.226,139.51z"/>
	<path style="fill:#FFB64C;" d="M273.607,408.344c4.737,6.82,3.045,16.174-3.776,20.911l-13.31,9.234v-35.834
		C262.69,400.602,269.721,402.736,273.607,408.344z"/>
	<polygon style="fill:#FFB64C;" points="337.913,275.144 256.521,332.54 256.521,295.785 285.795,275.144 	"/>
</g>
<g>
</g>
<g>
</g>
<g>
</g>
<g>
</g>
<g>
</g>
<g>
</g>
<g>
</g>
<g>
</g>
<g>
</g>
<g>
</g>
<g>
</g>
<g>
</g>
<g>
</g>
<g>
</g>
<g>
</g>
</svg>
