<?xml version="1.0" encoding="iso-8859-1"?>
<!-- Generator: Adobe Illustrator 19.0.0, SVG Export Plug-In . SVG Version: 6.00 Build 0)  -->
<svg version="1.1" id="Capa_1" xmlns="http://www.w3.org/2000/svg" xmlns:xlink="http://www.w3.org/1999/xlink" x="0px" y="0px"
	 viewBox="0 0 512 512" style="enable-background:new 0 0 512 512;" xml:space="preserve">
<path style="fill:#54E360;" d="M512,179.19v155.001c0,13.755-8.783,26.13-21.849,30.792c-19.057,6.793-34.203,22.319-40.516,41.536
	c-4.422,13.475-16.837,22.529-30.882,22.529H93.246c-14.055,0-26.47-9.053-30.892-22.529c-6.312-19.217-21.448-34.744-40.506-41.536
	C8.773,360.321,0,347.946,0,334.191V179.15c0-13.755,8.763-26.13,21.799-30.782c19.298-6.883,34.513-22.649,40.706-42.166
	c4.402-13.905,17.227-23.249,31.902-23.249h322.956c14.716,0,27.591,9.364,32.023,23.309c6.212,19.518,21.448,35.274,40.766,42.136
	C503.217,153.04,512,165.415,512,179.19z"/>
<path style="fill:#00CC71;" d="M512,179.19v155.001c0,13.755-8.783,26.13-21.849,30.792c-19.057,6.793-34.203,22.319-40.516,41.536
	c-4.422,13.475-16.837,22.529-30.882,22.529H256.55V82.952h160.813c14.716,0,27.591,9.364,32.023,23.309
	c6.212,19.518,21.448,35.274,40.766,42.136C503.217,153.04,512,165.415,512,179.19z"/>
<rect x="110.493" y="82.952" style="fill:#FFF2D4;" width="292.114" height="346.095"/>
<rect x="256.55" y="82.952" style="fill:#F9D8B4;" width="146.057" height="346.095"/>
<g>
	<path style="fill:#FFD561;" d="M323.947,226.238l-19.177,18.687l4.532,26.39c1.301,7.563-1.761,15.066-7.963,19.578
		c-6.212,4.512-14.296,5.102-21.088,1.531l-23.699-12.465l-23.699,12.465c-2.951,1.551-6.152,2.321-9.334,2.321
		c-4.132,0-8.243-1.3-11.745-3.852c-6.212-4.512-9.264-12.015-7.973-19.578l4.532-26.39l-19.177-18.687
		c-5.492-5.352-7.433-13.225-5.062-20.528c2.371-7.293,8.563-12.515,16.166-13.625l26.49-3.852l11.845-23.999
		c1.701-3.441,4.272-6.232,7.373-8.163c3.111-1.931,6.753-3.001,10.584-3.001c7.683,0,14.556,4.282,17.957,11.164l11.845,23.999
		l26.49,3.852c7.603,1.11,13.795,6.332,16.166,13.635C331.379,213.013,329.439,220.886,323.947,226.238z"/>
	<path style="fill:#FFD561;" d="M329.999,346.515c0,8.283-6.723,15.006-15.006,15.006H198.107c-8.283,0-15.006-6.723-15.006-15.006
		s6.723-15.006,15.006-15.006h116.886C323.276,331.509,329.999,338.232,329.999,346.515z"/>
</g>
<g>
	<path style="fill:#FFB64C;" d="M329.999,346.515c0,8.283-6.723,15.006-15.006,15.006H256.55v-30.012h58.443
		C323.276,331.509,329.999,338.232,329.999,346.515z"/>
	<path style="fill:#FFB64C;" d="M280.249,292.424l-23.699-12.465V153.07c7.683,0,14.556,4.282,17.957,11.164l11.845,23.999
		l26.49,3.852c7.603,1.11,13.795,6.332,16.166,13.635c2.371,7.293,0.43,15.166-5.062,20.518l-19.177,18.687l4.532,26.39
		c1.301,7.563-1.761,15.066-7.963,19.578C295.125,295.405,287.042,295.996,280.249,292.424z"/>
</g>
<g>
</g>
<g>
</g>
<g>
</g>
<g>
</g>
<g>
</g>
<g>
</g>
<g>
</g>
<g>
</g>
<g>
</g>
<g>
</g>
<g>
</g>
<g>
</g>
<g>
</g>
<g>
</g>
<g>
</g>
</svg>
