<?xml version="1.0" encoding="iso-8859-1"?>
<!-- Generator: Adobe Illustrator 19.0.0, SVG Export Plug-In . SVG Version: 6.00 Build 0)  -->
<svg version="1.1" id="Capa_1" xmlns="http://www.w3.org/2000/svg" xmlns:xlink="http://www.w3.org/1999/xlink" x="0px" y="0px"
	 viewBox="0 0 512 512" style="enable-background:new 0 0 512 512;" xml:space="preserve">
<path style="fill:#FF712F;" d="M411.949,39.606v426.518c0,17.048-9.416,32.474-24.581,40.257
	c-15.165,7.783-33.185,6.451-47.038-3.486l-68.143-48.871l-6.23-4.467c-2.955-2.124-6.491-3.055-9.957-2.805
	c-2.694,0.19-5.339,1.102-7.653,2.725l-6.21,4.377l-70.788,49.873c-7.793,5.489-16.888,8.274-26.033,8.274
	c-7.122,0.01-14.264-1.683-20.855-5.098c-15.065-7.813-24.411-23.209-24.411-40.167V39.606H411.949z"/>
<path style="fill:#FF3636;" d="M411.949,39.606v426.518c0,17.048-9.416,32.474-24.581,40.257
	c-15.165,7.783-33.185,6.451-47.038-3.486l-68.143-48.871l-6.23-4.467c-2.955-2.124-6.491-3.055-9.957-2.805V39.606H411.949z"/>
<path style="fill:#BF3110;" d="M272.187,454.024l-6.23-4.467c-5.249-3.766-12.32-3.796-17.609-0.08l-6.21,4.377l-1.122-414.248
	h30.05L272.187,454.024z"/>
<path style="fill:#FFD561;" d="M332.978,256.927l-23.339,22.748l5.509,32.113c1.352,7.893-1.833,15.726-8.304,20.434
	c-3.666,2.654-7.953,4.007-12.26,4.007c-3.316,0-6.651-0.801-9.736-2.414L256,318.649l-28.848,15.165
	c-7.082,3.716-15.516,3.115-21.997-1.593c-6.471-4.708-9.656-12.541-8.304-20.424l5.509-32.123l-23.339-22.748
	c-5.73-5.589-7.763-13.793-5.279-21.416c2.474-7.613,8.935-13.062,16.858-14.214l32.244-4.678l14.424-29.229
	c3.546-7.182,10.718-11.639,18.731-11.639c8.003,0,15.185,4.457,18.731,11.639l14.424,29.229l32.244,4.678
	c7.923,1.152,14.384,6.601,16.858,14.224C340.731,243.134,338.707,251.337,332.978,256.927z"/>
<path style="fill:#4E6582;" d="M455.391,34.828c0,19.212-15.626,34.828-34.838,34.828H91.437c-19.202,0-34.828-15.616-34.828-34.828
	C56.609,15.626,72.235,0,91.437,0h329.116C439.765,0,455.391,15.626,455.391,34.828z"/>
<path style="fill:#FFB64C;" d="M332.978,256.927l-23.339,22.748l5.509,32.113c1.352,7.893-1.833,15.726-8.304,20.434
	c-3.666,2.654-7.953,4.007-12.26,4.007c-3.316,0-6.651-0.801-9.736-2.414L256,318.649V175.752c8.003,0,15.185,4.457,18.731,11.639
	l14.424,29.229l32.244,4.678c7.923,1.152,14.384,6.601,16.858,14.224C340.731,243.134,338.707,251.337,332.978,256.927z"/>
<path style="fill:#2D4968;" d="M455.391,34.828c0,19.212-15.626,34.828-34.838,34.828H256V0h164.553
	C439.765,0,455.391,15.626,455.391,34.828z"/>
<g>
</g>
<g>
</g>
<g>
</g>
<g>
</g>
<g>
</g>
<g>
</g>
<g>
</g>
<g>
</g>
<g>
</g>
<g>
</g>
<g>
</g>
<g>
</g>
<g>
</g>
<g>
</g>
<g>
</g>
</svg>
