<?xml version="1.0" encoding="iso-8859-1"?>
<!-- Generator: Adobe Illustrator 19.0.0, SVG Export Plug-In . SVG Version: 6.00 Build 0)  -->
<svg version="1.1" id="Capa_1" xmlns="http://www.w3.org/2000/svg" xmlns:xlink="http://www.w3.org/1999/xlink" x="0px" y="0px"
	 viewBox="0 0 512 512" style="enable-background:new 0 0 512 512;" xml:space="preserve">
<path style="fill:#FFF2D4;" d="M31.901,283.115c-10.038,0-19.275,4.587-25.343,12.584c-6.066,7.997-7.996,18.128-5.292,27.794
	l30.681,109.71c3.827,13.686,16.424,23.244,30.635,23.244h81.282V283.115H31.901z"/>
<path style="fill:#F9D8B4;" d="M505.44,295.698c-6.067-7.997-15.303-12.584-25.342-12.584H368.136v173.33h81.283
	c14.209,0,26.807-9.557,30.634-23.243l30.683-109.71C513.437,313.825,511.508,303.694,505.44,295.698z"/>
<path style="fill:#FFD561;" d="M398.224,369.776C398.224,448.2,334.425,512,256,512s-142.224-63.8-142.224-142.224
	c0-78.415,63.8-142.224,142.224-142.224S398.224,291.361,398.224,369.776z"/>
<path style="fill:#FFB64C;" d="M398.224,369.776C398.224,448.2,334.425,512,256,512V227.551
	C334.425,227.551,398.224,291.361,398.224,369.776z"/>
<g>
	<path style="fill:#FF712F;" d="M277.106,339.494v60.574c0,8.294-6.732,15.026-15.026,15.026c-2.164,0-4.217-0.461-6.08-1.282
		c-5.269-2.334-8.945-7.613-8.945-13.744v-30.522l-0.14,0.11c-2.705,2.023-5.87,3.005-9.005,3.005c-4.568,0-9.076-2.074-12.031-6.01
		c-4.979-6.641-3.636-16.058,3.005-21.036l24.182-18.141c0.09-0.07,0.19-0.12,0.28-0.19c0.23-0.17,0.461-0.321,0.701-0.471
		c0.19-0.12,0.371-0.24,0.561-0.351c0.24-0.13,0.471-0.25,0.711-0.381c0.21-0.1,0.421-0.2,0.631-0.301
		c0.02-0.01,0.03-0.01,0.05-0.02c0.21-0.09,0.431-0.18,0.641-0.26c0.23-0.09,0.461-0.18,0.701-0.26c0.22-0.07,0.441-0.14,0.671-0.2
		c0.25-0.07,0.511-0.14,0.761-0.2c0.22-0.04,0.431-0.09,0.651-0.12c0.27-0.05,0.551-0.1,0.831-0.13c0.2-0.03,0.411-0.05,0.621-0.06
		c0.29-0.02,0.581-0.04,0.882-0.05c0.11,0,0.21-0.01,0.321-0.01c0.1,0,0.2,0.01,0.311,0.01c0.27,0.01,0.551,0.02,0.831,0.05
		c0.23,0.01,0.461,0.03,0.691,0.06c0.24,0.03,0.481,0.07,0.721,0.11c0.25,0.04,0.511,0.09,0.761,0.15
		c0.21,0.04,0.421,0.1,0.631,0.16c0.26,0.07,0.521,0.14,0.781,0.23c0.2,0.06,0.411,0.14,0.611,0.22
		c0.25,0.09,0.491,0.19,0.731,0.291c0.22,0.1,0.431,0.21,0.641,0.311c0.21,0.11,0.431,0.21,0.641,0.331
		c0.22,0.13,0.451,0.27,0.671,0.411c0.18,0.12,0.361,0.23,0.541,0.351c0.22,0.16,0.441,0.321,0.661,0.491
		c0.17,0.13,0.341,0.27,0.501,0.411c0.2,0.16,0.391,0.341,0.581,0.521c0.17,0.17,0.341,0.331,0.511,0.501
		c0.16,0.17,0.321,0.351,0.471,0.521c0.18,0.21,0.361,0.421,0.531,0.641c0.06,0.08,0.14,0.15,0.2,0.24
		c0.07,0.09,0.12,0.18,0.18,0.27c0.17,0.23,0.331,0.471,0.491,0.721c0.11,0.18,0.22,0.361,0.331,0.551
		c0.14,0.23,0.26,0.471,0.391,0.721c0.1,0.2,0.2,0.401,0.291,0.611c0.11,0.23,0.2,0.471,0.29,0.711c0.09,0.22,0.18,0.451,0.25,0.681
		c0.08,0.22,0.15,0.451,0.21,0.691c0.07,0.24,0.14,0.491,0.19,0.741c0.05,0.22,0.09,0.441,0.13,0.671
		c0.05,0.27,0.09,0.541,0.13,0.811c0.02,0.21,0.04,0.421,0.06,0.641c0.02,0.28,0.04,0.571,0.04,0.861
		C277.096,339.273,277.106,339.383,277.106,339.494z"/>
	<path style="fill:#FF712F;" d="M297.291,216.312c0,22.769-18.522,41.291-41.291,41.291s-41.291-18.522-41.291-41.291
		c0-22.759,18.522-41.291,41.291-41.291S297.291,193.553,297.291,216.312z"/>
</g>
<path style="fill:#FF3636;" d="M297.291,216.312c0,22.769-18.522,41.291-41.291,41.291v-82.582
	C278.769,175.021,297.291,193.553,297.291,216.312z"/>
<rect x="164.903" style="fill:#64A3FF;" width="182.193" height="204.241"/>
<rect x="256" style="fill:#2A81EA;" width="91.097" height="204.241"/>
<g>
	<path style="fill:#FFD561;" d="M377.148,15.026c0,8.304-6.722,15.026-15.026,15.026H149.877c-8.304,0-15.026-6.722-15.026-15.026
		C134.852,6.732,141.573,0,149.877,0h212.245C370.427,0,377.148,6.732,377.148,15.026z"/>
	<path style="fill:#FFD561;" d="M377.148,189.215c0,8.304-6.722,15.026-15.026,15.026H149.877c-8.304,0-15.026-6.722-15.026-15.026
		c0-8.294,6.722-15.026,15.026-15.026h212.245C370.427,174.189,377.148,180.921,377.148,189.215z"/>
</g>
<path style="fill:#FF3636;" d="M277.086,339.163c0.01,0.11,0.02,0.22,0.02,0.331v60.574c0,8.294-6.732,15.026-15.026,15.026
	c-2.164,0-4.217-0.461-6.08-1.282V325.76c0.21-0.09,0.431-0.18,0.641-0.26c0.23-0.09,0.461-0.18,0.701-0.26
	c0.22-0.07,0.441-0.14,0.671-0.2c0.25-0.07,0.511-0.14,0.761-0.2c0.22-0.04,0.431-0.09,0.651-0.12c0.27-0.05,0.551-0.1,0.831-0.13
	c0.2-0.03,0.411-0.05,0.621-0.06c0.29-0.02,0.581-0.04,0.882-0.05c0.11,0,0.21-0.01,0.321-0.01c0.1,0,0.2,0.01,0.311,0.01
	c0.27,0.01,0.551,0.02,0.831,0.05c0.23,0.01,0.461,0.03,0.691,0.06c0.24,0.03,0.481,0.07,0.721,0.11
	c0.25,0.04,0.511,0.09,0.761,0.15c0.21,0.04,0.421,0.1,0.631,0.16c0.26,0.07,0.521,0.14,0.781,0.23c0.2,0.06,0.411,0.14,0.611,0.22
	c0.25,0.09,0.491,0.19,0.731,0.291c0.22,0.1,0.431,0.21,0.641,0.311c0.21,0.11,0.431,0.21,0.641,0.331
	c0.22,0.13,0.451,0.27,0.671,0.411c0.18,0.12,0.361,0.23,0.541,0.351c0.22,0.16,0.441,0.321,0.661,0.491
	c0.17,0.13,0.341,0.27,0.501,0.411c0.2,0.16,0.391,0.341,0.581,0.521c0.17,0.17,0.341,0.331,0.511,0.501
	c0.16,0.17,0.321,0.351,0.471,0.521c0.18,0.21,0.361,0.421,0.531,0.641c0.06,0.08,0.14,0.15,0.2,0.24c0.07,0.09,0.12,0.18,0.18,0.27
	c0.17,0.23,0.331,0.471,0.491,0.721c0.11,0.18,0.22,0.361,0.331,0.551c0.14,0.23,0.26,0.471,0.391,0.721
	c0.1,0.2,0.2,0.401,0.291,0.611c0.11,0.23,0.2,0.471,0.29,0.711c0.09,0.22,0.18,0.451,0.25,0.681c0.08,0.22,0.15,0.451,0.21,0.691
	c0.07,0.24,0.14,0.491,0.19,0.741c0.05,0.22,0.09,0.441,0.13,0.671c0.05,0.27,0.09,0.541,0.13,0.811
	c0.02,0.21,0.04,0.421,0.06,0.641C277.066,338.582,277.086,338.872,277.086,339.163z"/>
<g>
	<path style="fill:#FFB64C;" d="M377.148,189.215c0,8.304-6.722,15.026-15.026,15.026H256v-30.052h106.122
		C370.427,174.189,377.148,180.921,377.148,189.215z"/>
	<path style="fill:#FFB64C;" d="M362.122,30.052H256V0h106.122c8.304,0,15.026,6.732,15.026,15.026
		C377.148,23.33,370.427,30.052,362.122,30.052z"/>
</g>
<g>
</g>
<g>
</g>
<g>
</g>
<g>
</g>
<g>
</g>
<g>
</g>
<g>
</g>
<g>
</g>
<g>
</g>
<g>
</g>
<g>
</g>
<g>
</g>
<g>
</g>
<g>
</g>
<g>
</g>
</svg>
