<?xml version="1.0" encoding="iso-8859-1"?>
<!-- Generator: Adobe Illustrator 19.0.0, SVG Export Plug-In . SVG Version: 6.00 Build 0)  -->
<svg version="1.1" id="Capa_1" xmlns="http://www.w3.org/2000/svg" xmlns:xlink="http://www.w3.org/1999/xlink" x="0px" y="0px"
	 viewBox="0 0 512 512" style="enable-background:new 0 0 512 512;" xml:space="preserve">
<path style="fill:#64A3FF;" d="M512,137.523v71.268c0,13.992-11.385,25.377-25.377,25.377L256,234.358H25.367
	C11.375,234.358,0,222.973,0,208.981v-71.278c0-13.992,11.375-25.377,25.367-25.377H256l230.623-0.18
	C500.615,112.145,512,123.531,512,137.523z"/>
<path style="fill:#2A81EA;" d="M512,137.523v71.268c0,13.992-11.385,25.377-25.377,25.377L256,234.358h-0.02V112.325H256
	l230.623-0.18C500.615,112.145,512,123.531,512,137.523z"/>
<path style="fill:#FFD561;" d="M390.307,173.347c0,16.908-10.287,31.489-26.226,37.162c-3.446,1.228-4.974,3.845-5.583,5.303
	c-0.599,1.448-1.368,4.384,0.2,7.7c7.261,15.27,4.225,32.858-7.73,44.812c-11.955,11.965-29.552,15.001-44.822,7.74
	c-3.316-1.578-6.242-0.799-7.7-0.2c-1.458,0.599-4.075,2.127-5.303,5.583c-5.663,15.919-20.244,26.216-37.142,26.226
	c-0.01,0-0.01,0-0.02,0c-16.908,0-31.499-10.297-37.162-26.226c-1.228-3.456-3.845-4.984-5.303-5.583
	c-1.458-0.599-4.384-1.378-7.7,0.2c-15.27,7.261-32.868,4.225-44.822-7.74c-11.955-11.955-14.991-29.542-7.73-44.812
	c1.568-3.316,0.799-6.252,0.2-7.7c-0.609-1.458-2.137-4.075-5.583-5.303c-15.939-5.673-26.226-20.254-26.226-37.162
	c0-16.918,10.287-31.499,26.226-37.162c3.446-1.228,4.974-3.855,5.583-5.303c0.599-1.458,1.368-4.394-0.2-7.7
	c-7.261-15.27-4.225-32.868,7.73-44.822c11.955-11.965,29.552-15.001,44.822-7.74c3.316,1.578,6.242,0.799,7.7,0.2
	c1.448-0.599,4.075-2.127,5.303-5.583c5.663-15.929,20.254-26.226,37.162-26.226c0.01,0,0.01,0,0.02,0
	c16.898,0.01,31.479,10.307,37.142,26.226c1.228,3.456,3.855,4.984,5.303,5.583c1.458,0.599,4.384,1.378,7.7-0.2
	c15.27-7.251,32.868-4.225,44.822,7.74c11.955,11.955,14.991,29.552,7.73,44.822c-1.568,3.306-0.799,6.242-0.2,7.7
	c0.609,1.448,2.137,4.075,5.583,5.303C380.02,141.847,390.307,156.428,390.307,173.347z"/>
<path style="fill:#FFB64C;" d="M390.307,173.347c0,16.908-10.287,31.489-26.226,37.162c-3.446,1.228-4.974,3.845-5.583,5.303
	c-0.599,1.448-1.368,4.384,0.2,7.7c7.261,15.27,4.225,32.858-7.73,44.812c-11.955,11.965-29.552,15.001-44.822,7.74
	c-3.316-1.578-6.242-0.799-7.7-0.2c-1.458,0.599-4.075,2.127-5.303,5.583c-5.663,15.919-20.244,26.216-37.142,26.226V39.01
	c16.898,0.01,31.479,10.307,37.142,26.226c1.228,3.456,3.855,4.984,5.303,5.583c1.458,0.599,4.384,1.378,7.7-0.2
	c15.27-7.251,32.868-4.225,44.822,7.74c11.955,11.955,14.991,29.552,7.73,44.822c-1.568,3.306-0.799,6.242-0.2,7.7
	c0.609,1.448,2.137,4.075,5.583,5.303C380.02,141.847,390.307,156.428,390.307,173.347z"/>
<path style="fill:#D7E3FF;" d="M133.213,391.867c-12.867-7.061-23.401-17.594-30.461-30.458c-3.011-5.491-8.773-8.903-15.035-8.903
	c-6.263,0-12.025,3.412-15.034,8.899c-7.061,12.867-17.595,23.401-30.456,30.459c-5.493,3.011-8.906,8.772-8.906,15.037
	c0,6.265,3.413,12.026,8.899,15.034c12.867,7.061,23.401,17.594,30.462,30.463c3.012,5.488,8.773,8.898,15.034,8.898
	c6.261,0,12.022-3.41,15.034-8.899c7.061-12.867,17.594-23.401,30.462-30.462c5.489-3.012,8.899-8.772,8.899-15.034
	C142.111,400.637,138.7,394.876,133.213,391.867z"/>
<path style="fill:#B5BFF7;" d="M469.653,391.867c-12.867-7.061-23.401-17.594-30.462-30.461c-3.012-5.489-8.773-8.9-15.034-8.9
	c-6.261,0-12.021,3.411-15.034,8.899c-7.061,12.867-17.595,23.401-30.457,30.46c-5.492,3.011-8.904,8.772-8.904,15.036
	c0,6.264,3.412,12.025,8.898,15.034c12.867,7.061,23.401,17.594,30.464,30.466c3.012,5.486,8.773,8.895,15.032,8.895
	c6.259,0,12.02-3.409,15.034-8.899c7.061-12.867,17.594-23.401,30.461-30.462c5.489-3.012,8.899-8.772,8.899-15.034
	C478.55,400.637,475.139,394.876,469.653,391.867z"/>
<path style="fill:#D7E3FF;" d="M323.263,404.598l-19.145,18.656l4.524,26.346c1.288,7.55-1.758,15.041-7.96,19.545
	c-6.192,4.504-14.262,5.093-21.043,1.528L256,458.239l-0.02-0.01l-23.66,12.444c-2.946,1.548-6.142,2.317-9.318,2.317
	c-4.125,0-8.229-1.298-11.725-3.845c-6.202-4.504-9.248-11.995-7.96-19.545l4.524-26.346l-19.145-18.656
	c-5.483-5.343-7.42-13.203-5.053-20.494c2.367-7.281,8.549-12.494,16.139-13.602l26.446-3.845l11.825-23.959
	c3.396-6.871,10.267-11.146,17.927-11.146c0.01,0,0.01,0,0.02,0c7.65,0.01,14.511,4.284,17.907,11.146l11.825,23.959l26.446,3.845
	c7.59,1.109,13.772,6.322,16.139,13.602C330.684,391.395,328.746,399.255,323.263,404.598z"/>
<path style="fill:#B5BFF7;" d="M328.317,384.105c2.367,7.291,0.429,15.15-5.053,20.494l-19.145,18.656l4.524,26.346
	c1.288,7.55-1.758,15.041-7.96,19.545c-6.192,4.504-14.262,5.093-21.043,1.528L256,458.239V331.553
	c7.65,0.01,14.511,4.284,17.907,11.146l11.825,23.959l26.446,3.845C319.768,371.611,325.95,376.824,328.317,384.105z"/>
<g>
</g>
<g>
</g>
<g>
</g>
<g>
</g>
<g>
</g>
<g>
</g>
<g>
</g>
<g>
</g>
<g>
</g>
<g>
</g>
<g>
</g>
<g>
</g>
<g>
</g>
<g>
</g>
<g>
</g>
</svg>
