<?xml version="1.0" encoding="iso-8859-1"?>
<!-- Generator: Adobe Illustrator 19.0.0, SVG Export Plug-In . SVG Version: 6.00 Build 0)  -->
<svg version="1.1" id="Capa_1" xmlns="http://www.w3.org/2000/svg" xmlns:xlink="http://www.w3.org/1999/xlink" x="0px" y="0px"
	 viewBox="0 0 512 512" style="enable-background:new 0 0 512 512;" xml:space="preserve">
<path style="fill:#FFF2D4;" d="M512,102.015v214.704c0,22.439-18.257,40.686-40.686,40.686H40.686
	C18.257,357.405,0,339.158,0,316.719V102.015c0-22.429,18.257-40.686,40.686-40.686h430.628C493.743,61.329,512,79.586,512,102.015z
	"/>
<path style="fill:#F9D8B4;" d="M512,102.015v214.704c0,22.439-18.257,40.686-40.686,40.686H261.442V61.329h209.872
	C493.743,61.329,512,79.586,512,102.015z"/>
<path style="fill:#FFD561;" d="M433.859,149.643c0,8.293-6.713,15.006-15.006,15.006H207.221c-8.293,0-15.006-6.713-15.006-15.006
	c0-8.283,6.713-15.006,15.006-15.006h211.633C427.147,134.638,433.859,141.36,433.859,149.643z"/>
<path style="fill:#FFB64C;" d="M418.856,225.03H323.04c-8.287,0-15.006-6.719-15.006-15.006s6.719-15.006,15.006-15.006h95.815
	c8.287,0,15.006,6.719,15.006,15.006S427.144,225.03,418.856,225.03z"/>
<path style="fill:#FF712F;" d="M248.897,376.432c-0.26,0.65-0.61,1.961,0.09,3.441c6.302,13.255,3.671,28.531-6.713,38.915
	s-25.65,13.015-38.915,6.713c-1.481-0.7-2.791-0.36-3.431-0.09c-0.65,0.27-1.821,0.95-2.371,2.491
	c-4.862,13.675-17.297,22.569-31.762,22.759c-0.17,0.01-0.33,0.01-0.5,0.01c-14.686,0-27.351-8.933-32.263-22.769
	c-0.55-1.541-1.721-2.221-2.371-2.491c-0.65-0.27-1.961-0.61-3.441,0.09c-13.255,6.302-28.531,3.671-38.915-6.713
	c-10.374-10.384-13.015-25.66-6.713-38.915c0.7-1.481,0.36-2.791,0.09-3.441c-0.27-0.64-0.95-1.821-2.491-2.361
	c-13.835-4.922-22.769-17.587-22.769-32.273c0-14.676,8.933-27.341,22.769-32.263c1.541-0.54,2.221-1.711,2.491-2.361
	c0.27-0.65,0.61-1.961-0.09-3.441c-6.302-13.255-3.661-28.531,6.713-38.915c10.384-10.384,25.66-13.015,38.915-6.713
	c1.481,0.7,2.791,0.36,3.441,0.09c0.65-0.27,1.821-0.95,2.371-2.491c4.912-13.835,17.577-22.769,32.263-22.769
	c0.17,0,0.33,0,0.5,0.01c7.143,0.09,13.805,2.311,19.288,6.182c5.612,3.972,10.014,9.654,12.475,16.576
	c0.55,1.541,1.721,2.221,2.371,2.491c0.65,0.27,1.961,0.61,3.431-0.09c13.265-6.302,28.541-3.671,38.915,6.713
	c10.384,10.384,13.015,25.66,6.713,38.915c-0.7,1.481-0.35,2.791-0.09,3.441c0.27,0.65,0.95,1.821,2.491,2.361
	c13.835,4.922,22.779,17.587,22.779,32.263c0,14.686-8.943,27.351-22.769,32.273C249.848,374.611,249.167,375.792,248.897,376.432z"
	/>
<path style="fill:#FFB64C;" d="M433.859,149.643c0,8.293-6.713,15.006-15.006,15.006H261.442v-30.012h157.411
	C427.147,134.638,433.859,141.36,433.859,149.643z"/>
<path style="fill:#FF3636;" d="M248.897,376.432c-0.26,0.65-0.61,1.961,0.09,3.441c6.302,13.255,3.671,28.531-6.713,38.915
	s-25.65,13.015-38.915,6.713c-1.481-0.7-2.791-0.36-3.431-0.09c-0.65,0.27-1.821,0.95-2.371,2.491
	c-4.862,13.675-17.297,22.569-31.762,22.759V232.946c7.143,0.09,13.805,2.311,19.288,6.182c5.612,3.972,10.014,9.654,12.475,16.576
	c0.55,1.541,1.721,2.221,2.371,2.491c0.65,0.27,1.961,0.61,3.431-0.09c13.265-6.302,28.541-3.671,38.915,6.713
	c10.384,10.384,13.015,25.66,6.713,38.915c-0.7,1.481-0.35,2.791-0.09,3.441c0.27,0.65,0.95,1.821,2.491,2.361
	c13.835,4.922,22.779,17.587,22.779,32.263c0,14.686-8.943,27.351-22.769,32.273C249.848,374.611,249.167,375.792,248.897,376.432z"
	/>
<g>
</g>
<g>
</g>
<g>
</g>
<g>
</g>
<g>
</g>
<g>
</g>
<g>
</g>
<g>
</g>
<g>
</g>
<g>
</g>
<g>
</g>
<g>
</g>
<g>
</g>
<g>
</g>
<g>
</g>
</svg>
