<?xml version="1.0" encoding="iso-8859-1"?>
<!-- Generator: Adobe Illustrator 19.0.0, SVG Export Plug-In . SVG Version: 6.00 Build 0)  -->
<svg version="1.1" id="Capa_1" xmlns="http://www.w3.org/2000/svg" xmlns:xlink="http://www.w3.org/1999/xlink" x="0px" y="0px"
	 viewBox="0 0 512 512" style="enable-background:new 0 0 512 512;" xml:space="preserve">
<path style="fill:#FF712F;" d="M207.709,346.976L96.703,457.982c-3.391,3.391-7.962,5.221-12.633,5.221
	c-1.59,0-3.201-0.21-4.771-0.65c-6.191-1.72-10.993-6.672-12.533-12.913l-6.442-26.096l-4.091-16.564l-17.464-4.311l-25.206-6.221
	c-6.241-1.54-11.183-6.341-12.913-12.533c-1.72-6.191,0.03-12.863,4.581-17.404l110.996-111.006c5.861-5.861,15.364-5.861,21.225,0
	c0,0,10.953,10.953,24.246,24.236c3.381,3.381,6.902,6.912,10.442,10.452c3.631,3.631,7.272,7.272,10.773,10.773
	c12.173,12.173,22.595,22.595,24.796,24.796C213.56,331.623,213.56,341.125,207.709,346.976z"/>
<path style="fill:#FF3636;" d="M207.709,346.976L96.703,457.982c-3.391,3.391-7.962,5.221-12.633,5.221
	c-1.59,0-3.201-0.21-4.771-0.65c-6.191-1.72-10.993-6.672-12.533-12.913l-6.442-26.096l-4.091-16.564L172.14,290.193
	c3.631,3.631,7.272,7.272,10.773,10.773c12.173,12.173,22.595,22.595,24.796,24.796C213.56,331.623,213.56,341.125,207.709,346.976z
	"/>
<path style="fill:#BF3110;" d="M182.913,300.966L60.324,423.544l-4.091-16.564l-17.464-4.311l122.929-122.929
	C168.539,286.592,176.011,294.064,182.913,300.966z"/>
<path style="fill:#FF712F;" d="M511.35,383.915c-1.73,6.191-6.672,10.993-12.913,12.533l-25.196,6.221l-17.464,4.311l-4.091,16.574
	l-6.452,26.086c-1.53,6.241-6.341,11.193-12.523,12.913c-1.58,0.44-3.191,0.65-4.781,0.65c-4.671,0-9.242-1.83-12.623-5.221
	L304.301,346.976c-5.861-5.851-5.861-15.354,0-21.215c2.201-2.201,12.623-12.623,24.796-24.796
	c3.401-3.401,6.942-6.942,10.482-10.482c3.631-3.641,7.262-7.272,10.733-10.742c13.293-13.283,24.246-24.236,24.246-24.236
	c5.861-5.861,15.354-5.861,21.215,0l111.006,111.006C511.32,371.052,513.07,377.724,511.35,383.915z"/>
<path style="fill:#FF3636;" d="M511.35,383.915c-1.73,6.191-6.672,10.993-12.913,12.533l-25.196,6.221l-17.464,4.311L339.58,290.483
	c3.631-3.641,7.262-7.272,10.733-10.742c13.293-13.283,24.246-24.236,24.246-24.236c5.861-5.861,15.354-5.861,21.215,0
	l111.006,111.006C511.32,371.052,513.07,377.724,511.35,383.915z"/>
<path style="fill:#BF3110;" d="M473.241,402.669l-17.464,4.311l-4.091,16.574L329.097,300.966
	c6.902-6.902,14.373-14.373,21.215-21.225L473.241,402.669z"/>
<path style="fill:#FFD561;" d="M412.757,205.523c0,86.43-70.316,156.737-156.737,156.737S99.283,291.953,99.283,205.523
	c0-86.42,70.316-156.727,156.737-156.727S412.757,119.103,412.757,205.523z"/>
<path style="fill:#FFB64C;" d="M412.757,205.523c0,86.43-70.316,156.737-156.737,156.737V48.797
	C342.44,48.797,412.757,119.103,412.757,205.523z"/>
<path style="fill:#FF712F;" d="M275.024,176.286v60.484c0,8.282-6.722,15.004-15.004,15.004c-1.38,0-2.731-0.19-4.001-0.54
	c-6.341-1.75-11.003-7.562-11.003-14.463v-30.477l-0.14,0.11c-2.701,2.02-5.861,3.001-8.992,3.001c-4.561,0-9.062-2.07-12.013-6.001
	c-4.971-6.632-3.631-16.034,3.001-21.005l24.146-18.114c0.09-0.07,0.19-0.12,0.28-0.19c0.23-0.16,0.46-0.32,0.7-0.48
	c0.19-0.11,0.37-0.23,0.56-0.33c0.24-0.14,0.47-0.26,0.72-0.39c0.2-0.1,0.41-0.2,0.61-0.29c0.23-0.11,0.47-0.2,0.71-0.3
	c0.22-0.08,0.45-0.17,0.68-0.25c0.23-0.07,0.46-0.14,0.69-0.2c0.02,0,0.03-0.01,0.05-0.01c0.23-0.07,0.46-0.13,0.69-0.18
	c0.22-0.05,0.45-0.1,0.67-0.14c0.27-0.04,0.54-0.09,0.81-0.12c0.21-0.02,0.43-0.04,0.64-0.06c0.29-0.02,0.57-0.04,0.85-0.04
	c0.12-0.01,0.23-0.02,0.34-0.02c0.11,0,0.21,0.01,0.32,0.01c0.27,0.01,0.53,0.02,0.8,0.04c0.24,0.02,0.49,0.04,0.72,0.07
	c0.23,0.03,0.46,0.07,0.69,0.11c0.26,0.04,0.53,0.09,0.79,0.15c0.2,0.04,0.4,0.1,0.6,0.15c0.27,0.08,0.54,0.15,0.81,0.24
	c0.19,0.07,0.39,0.14,0.58,0.21c0.26,0.1,0.51,0.2,0.76,0.31c0.21,0.09,0.41,0.19,0.62,0.29c0.22,0.12,0.44,0.22,0.65,0.34
	c0.22,0.13,0.44,0.27,0.66,0.4c0.18,0.12,0.37,0.24,0.56,0.37c0.21,0.15,0.43,0.31,0.64,0.48c0.17,0.13,0.34,0.27,0.51,0.41
	c0.2,0.16,0.39,0.34,0.57,0.52c0.18,0.16,0.35,0.33,0.52,0.5c0.16,0.17,0.32,0.35,0.47,0.52c0.18,0.21,0.36,0.42,0.53,0.64
	c0.06,0.08,0.14,0.15,0.2,0.24c0.07,0.09,0.12,0.18,0.18,0.27c0.17,0.24,0.33,0.47,0.49,0.72l0.33,0.54
	c0.14,0.24,0.26,0.48,0.39,0.73c0.1,0.2,0.2,0.4,0.29,0.61c0.11,0.23,0.2,0.47,0.3,0.71c0.08,0.22,0.17,0.45,0.24,0.67
	c0.08,0.23,0.15,0.47,0.21,0.7c0.07,0.25,0.14,0.49,0.19,0.74c0.05,0.22,0.09,0.45,0.13,0.67c0.05,0.27,0.09,0.53,0.13,0.8
	c0.02,0.22,0.04,0.43,0.06,0.65c0.02,0.28,0.04,0.57,0.04,0.85C275.014,176.066,275.024,176.166,275.024,176.286z"/>
<path style="fill:#FF3636;" d="M275.024,176.286v60.484c0,8.282-6.722,15.004-15.004,15.004c-1.38,0-2.731-0.19-4.001-0.54v-89.391
	c0.23-0.07,0.46-0.13,0.69-0.18c0.22-0.05,0.45-0.1,0.67-0.14c0.27-0.04,0.54-0.09,0.81-0.12c0.21-0.02,0.43-0.04,0.64-0.06
	c0.29-0.02,0.57-0.04,0.85-0.04c0.12-0.01,0.23-0.02,0.34-0.02c0.11,0,0.21,0.01,0.32,0.01c0.27,0.01,0.53,0.02,0.8,0.04
	c0.24,0.02,0.49,0.04,0.72,0.07c0.23,0.03,0.46,0.07,0.69,0.11c0.26,0.04,0.53,0.09,0.79,0.15c0.2,0.04,0.4,0.1,0.6,0.15
	c0.27,0.08,0.54,0.15,0.81,0.24c0.19,0.07,0.39,0.14,0.58,0.21c0.26,0.1,0.51,0.2,0.76,0.31c0.21,0.09,0.41,0.19,0.62,0.29
	c0.22,0.12,0.44,0.22,0.65,0.34c0.22,0.13,0.44,0.27,0.66,0.4c0.18,0.12,0.37,0.24,0.56,0.37c0.21,0.15,0.43,0.31,0.64,0.48
	c0.17,0.13,0.34,0.27,0.51,0.41c0.2,0.16,0.39,0.34,0.57,0.52c0.18,0.16,0.35,0.33,0.52,0.5c0.16,0.17,0.32,0.35,0.47,0.52
	c0.18,0.21,0.36,0.42,0.53,0.64c0.06,0.08,0.14,0.15,0.2,0.24c0.07,0.09,0.12,0.18,0.18,0.27c0.17,0.24,0.33,0.47,0.49,0.72
	l0.33,0.54c0.14,0.24,0.26,0.48,0.39,0.73c0.1,0.2,0.2,0.4,0.29,0.61c0.11,0.23,0.2,0.47,0.3,0.71c0.08,0.22,0.17,0.45,0.24,0.67
	c0.08,0.23,0.15,0.47,0.21,0.7c0.07,0.25,0.14,0.49,0.19,0.74c0.05,0.22,0.09,0.45,0.13,0.67c0.05,0.27,0.09,0.53,0.13,0.8
	c0.02,0.22,0.04,0.43,0.06,0.65c0.02,0.28,0.04,0.57,0.04,0.85C275.014,176.066,275.024,176.166,275.024,176.286z"/>
<g>
</g>
<g>
</g>
<g>
</g>
<g>
</g>
<g>
</g>
<g>
</g>
<g>
</g>
<g>
</g>
<g>
</g>
<g>
</g>
<g>
</g>
<g>
</g>
<g>
</g>
<g>
</g>
<g>
</g>
</svg>
