<?xml version="1.0" encoding="iso-8859-1"?>
<!-- Generator: Adobe Illustrator 19.0.0, SVG Export Plug-In . SVG Version: 6.00 Build 0)  -->
<svg version="1.1" id="Capa_1" xmlns="http://www.w3.org/2000/svg" xmlns:xlink="http://www.w3.org/1999/xlink" x="0px" y="0px"
	 viewBox="0 0 512 512" style="enable-background:new 0 0 512 512;" xml:space="preserve">
<path style="fill:#FFD561;" d="M271.014,285.682v131.631c0,8.288-6.726,15.014-15.014,15.014s-15.014-6.726-15.014-15.014V285.682
	c0-8.288,6.726-15.014,15.014-15.014S271.014,277.395,271.014,285.682z"/>
<path style="fill:#FFB64C;" d="M256,432.327V270.668c8.288,0,15.014,6.726,15.014,15.014v131.631
	C271.014,425.601,264.288,432.327,256,432.327z"/>
<path style="fill:#FFF2D4;" d="M370.855,438.473v54.88c0,10.279-8.368,18.647-18.647,18.647H159.792
	c-10.279,0-18.647-8.368-18.647-18.647v-54.88c0-19.948,16.225-36.173,36.173-36.173h157.364
	C354.631,402.299,370.855,418.524,370.855,438.473z"/>
<path style="fill:#F9D8B4;" d="M370.855,438.473v54.88c0,10.279-8.368,18.647-18.647,18.647H256.02V402.299h78.662
	C354.631,402.299,370.855,418.524,370.855,438.473z"/>
<path style="fill:#FFD561;" d="M405.667,496.986c0,8.288-6.726,15.014-15.014,15.014H121.346c-8.288,0-15.014-6.726-15.014-15.014
	c0-8.288,6.726-15.014,15.014-15.014h269.307C398.941,481.972,405.667,488.699,405.667,496.986z"/>
<path style="fill:#D7E3FF;" d="M427.658,160.047l-64.629,62.998l15.254,88.952c1.892,11.04-2.562,21.99-11.621,28.576
	c-5.125,3.723-11.12,5.615-17.146,5.615c-4.644,0-9.319-1.121-13.633-3.383l-79.863-41.989l-0.02-0.01l-79.883,41.999
	c-9.919,5.215-21.71,4.354-30.778-2.232c-9.058-6.586-13.512-17.536-11.621-28.576l15.254-88.952l-64.629-62.998
	c-8.027-7.827-10.86-19.298-7.397-29.957c3.463-10.66,12.501-18.277,23.592-19.888l89.312-12.982l39.947-80.934
	C234.761,6.246,244.8,0,256,0c0.01,0,0.01,0,0.02,0c5.595,0,10.9,1.561,15.424,4.374c4.524,2.823,8.278,6.896,10.76,11.911
	l39.947,80.934l89.312,12.982c11.09,1.611,20.128,9.228,23.592,19.888C438.518,140.749,435.685,152.22,427.658,160.047z"/>
<path style="fill:#B5BFF7;" d="M427.658,160.047l-64.629,62.998l15.254,88.952c1.892,11.04-2.562,21.99-11.621,28.576
	c-5.125,3.723-11.12,5.615-17.146,5.615c-4.644,0-9.319-1.121-13.633-3.383l-79.863-41.989V0c5.595,0,10.9,1.561,15.424,4.374
	c4.524,2.823,8.278,6.896,10.76,11.911l39.947,80.934l89.312,12.982c11.09,1.611,20.128,9.228,23.592,19.888
	C438.518,140.749,435.685,152.22,427.658,160.047z"/>
<path style="fill:#FFB64C;" d="M405.667,496.986c0,8.288-6.726,15.014-15.014,15.014H256v-30.028h134.654
	C398.941,481.972,405.667,488.699,405.667,496.986z"/>
<g>
</g>
<g>
</g>
<g>
</g>
<g>
</g>
<g>
</g>
<g>
</g>
<g>
</g>
<g>
</g>
<g>
</g>
<g>
</g>
<g>
</g>
<g>
</g>
<g>
</g>
<g>
</g>
<g>
</g>
</svg>
