<?xml version="1.0" encoding="iso-8859-1"?>
<!-- Generator: Adobe Illustrator 19.0.0, SVG Export Plug-In . SVG Version: 6.00 Build 0)  -->
<svg version="1.1" id="Capa_1" xmlns="http://www.w3.org/2000/svg" xmlns:xlink="http://www.w3.org/1999/xlink" x="0px" y="0px"
	 viewBox="0 0 512 512" style="enable-background:new 0 0 512 512;" xml:space="preserve">
<path style="fill:#FFD561;" d="M395.433,180.49l-50.55,49.278l11.937,69.566c1.702,9.974-2.313,19.867-10.505,25.806
	c-8.181,5.948-18.826,6.719-27.778,2.013l-62.256-32.735l-0.23-0.12l-62.476,32.855c-3.895,2.043-8.111,3.054-12.297,3.054
	c-5.448,0-10.865-1.702-15.481-5.067c-8.191-5.938-12.207-15.832-10.505-25.796l11.936-69.576l-50.55-49.278
	c-7.24-7.06-9.804-17.424-6.669-27.037c3.124-9.623,11.286-16.503,21.289-17.955l69.857-10.154l31.243-63.298
	c4.476-9.073,13.539-14.71,23.653-14.71c0.01,0,0.01,0,0.01,0h0.22c10.024,0.08,18.986,5.708,23.432,14.71l31.243,63.298
	l69.857,10.154c10.004,1.452,18.165,8.332,21.289,17.955C405.237,163.066,402.673,173.43,395.433,180.49z"/>
<g>
	<path style="fill:#FF712F;" d="M159.587,385.743l-23.192,22.601l5.478,31.924c1.352,7.881-1.833,15.692-8.301,20.388
		c-3.655,2.664-7.931,4.006-12.237,4.006c-3.315,0-6.639-0.791-9.723-2.413l-28.66-15.071l-28.67,15.071
		c-7.08,3.715-15.491,3.114-21.96-1.592c-6.469-4.697-9.643-12.507-8.291-20.388l5.478-31.924L6.315,385.743
		c-5.728-5.588-7.751-13.779-5.277-21.38c2.473-7.6,8.922-13.038,16.833-14.19l32.044-4.656l14.34-29.04
		c3.535-7.17,10.695-11.626,18.696-11.626c7.991,0,15.161,4.456,18.696,11.626l14.33,29.04l32.054,4.656
		c7.911,1.152,14.36,6.589,16.833,14.19C167.338,371.964,165.315,380.156,159.587,385.743z"/>
	<path style="fill:#FF712F;" d="M505.685,385.743l-23.182,22.601l5.468,31.924c1.352,7.881-1.823,15.692-8.291,20.388
		c-3.655,2.664-7.931,4.006-12.237,4.006c-3.315,0-6.649-0.791-9.723-2.413l-28.67-15.071l-28.66,15.071
		c-7.08,3.715-15.491,3.114-21.96-1.592c-6.469-4.697-9.653-12.507-8.301-20.388l5.478-31.924l-23.192-22.601
		c-5.718-5.588-7.741-13.779-5.277-21.38c2.473-7.6,8.922-13.038,16.833-14.19l32.054-4.656l14.33-29.04
		c3.535-7.17,10.705-11.626,18.696-11.626c8.001,0,15.161,4.456,18.706,11.626l14.33,29.04l32.044,4.656
		c7.911,1.152,14.37,6.589,16.833,14.19C513.436,371.964,511.413,380.156,505.685,385.743z"/>
</g>
<path style="fill:#FFB64C;" d="M395.433,180.49l-50.55,49.278l11.937,69.566c1.702,9.974-2.313,19.867-10.505,25.806
	c-8.181,5.948-18.826,6.719-27.778,2.013l-62.256-32.735V47.336c10.024,0.08,18.986,5.708,23.432,14.71l31.243,63.298l69.857,10.154
	c10.004,1.452,18.165,8.332,21.289,17.955C405.237,163.066,402.673,173.43,395.433,180.49z"/>
<g>
	<path style="fill:#FF3636;" d="M505.685,385.743l-23.182,22.601l5.468,31.924c1.352,7.881-1.823,15.692-8.291,20.388
		c-3.655,2.664-7.931,4.006-12.237,4.006c-3.315,0-6.649-0.791-9.723-2.413l-28.67-15.071V304.852
		c8.001,0,15.161,4.456,18.706,11.626l14.33,29.04l32.044,4.656c7.911,1.152,14.37,6.589,16.833,14.19
		C513.436,371.964,511.413,380.156,505.685,385.743z"/>
	<path style="fill:#FF3636;" d="M159.587,385.743l-23.192,22.601l5.478,31.924c1.352,7.881-1.833,15.692-8.301,20.388
		c-3.655,2.664-7.931,4.006-12.237,4.006c-3.315,0-6.639-0.791-9.723-2.413l-28.66-15.071V304.852
		c7.991,0,15.161,4.456,18.696,11.626l14.33,29.04l32.054,4.656c7.911,1.152,14.36,6.589,16.833,14.19
		C167.338,371.964,165.315,380.156,159.587,385.743z"/>
</g>
<g>
</g>
<g>
</g>
<g>
</g>
<g>
</g>
<g>
</g>
<g>
</g>
<g>
</g>
<g>
</g>
<g>
</g>
<g>
</g>
<g>
</g>
<g>
</g>
<g>
</g>
<g>
</g>
<g>
</g>
</svg>
