<?xml version="1.0" encoding="iso-8859-1"?>
<!-- Generator: Adobe Illustrator 19.0.0, SVG Export Plug-In . SVG Version: 6.00 Build 0)  -->
<svg version="1.1" id="Capa_1" xmlns="http://www.w3.org/2000/svg" xmlns:xlink="http://www.w3.org/1999/xlink" x="0px" y="0px"
	 viewBox="0 0 512 512" style="enable-background:new 0 0 512 512;" xml:space="preserve">
<path style="fill:#FF712F;" d="M161.579,383.85l-49.69-227.675H25.194c-8.165,0-15.856,3.98-20.571,10.646
	c-4.716,6.666-5.907,15.242-3.189,22.941l33.462,94.759L1.435,379.278c-2.719,7.699-1.527,16.276,3.189,22.941
	c4.716,6.667,12.405,10.646,20.571,10.646h112.838c7.284,0,14.095-3.244,18.684-8.901
	C161.307,398.308,163.079,390.977,161.579,383.85z"/>
<path style="fill:#FF3636;" d="M476.928,284.52l33.625-94.734c2.73-7.688,1.549-16.259-3.16-22.927
	c-4.724-6.691-12.44-10.684-20.64-10.684h-87.067l-49.919,227.55l-0.024,0.11c-1.506,7.119,0.261,14.446,4.847,20.103
	c4.599,5.673,11.431,8.928,18.742,8.928h113.421c8.2,0,15.917-3.994,20.64-10.684c4.709-6.668,5.89-15.238,3.16-22.926
	L476.928,284.52z"/>
<path style="fill:#FFD561;" d="M426.591,137.205v160.007c0,20.991-17.079,38.071-38.071,38.071H122.867
	c-20.991,0-38.071-17.079-38.071-38.071V137.205c0-20.991,17.079-38.071,38.071-38.071h265.654
	C409.512,99.134,426.591,116.214,426.591,137.205z"/>
<path style="fill:#FFB64C;" d="M426.591,137.205v160.007c0,20.991-17.079,38.071-38.071,38.071H255.769V99.134h132.752
	C409.512,99.134,426.591,116.214,426.591,137.205z"/>
<path style="fill:#FFF2D4;" d="M312.87,219.35l-16.149,15.749l3.812,22.232c1.111,6.464-1.501,12.877-6.804,16.729
	c-5.313,3.852-12.207,4.352-18.01,1.301l-19.951-10.486l-0.02-0.01l-19.971,10.496c-2.521,1.331-5.253,1.981-7.974,1.981
	c-3.532,0-7.034-1.101-10.035-3.282c-5.303-3.852-7.914-10.266-6.804-16.729l3.812-22.232l-16.149-15.749
	c-4.703-4.582-6.353-11.296-4.332-17.529c2.031-6.233,7.324-10.696,13.807-11.636l22.322-3.242l9.985-20.231
	c2.902-5.883,8.785-9.535,15.338-9.535c0.01,0,0.01,0,0.02,0c6.544,0.01,12.417,3.662,15.318,9.535l9.985,20.231l22.322,3.242
	c6.484,0.941,11.776,5.403,13.807,11.636C319.223,208.053,317.572,214.767,312.87,219.35z"/>
<path style="fill:#F9D8B4;" d="M312.87,219.35l-16.149,15.749l3.812,22.232c1.111,6.464-1.501,12.877-6.804,16.729
	c-5.313,3.852-12.207,4.352-18.01,1.301l-19.951-10.486V157.176c6.544,0.01,12.417,3.662,15.318,9.535l9.985,20.231l22.322,3.242
	c6.484,0.941,11.776,5.403,13.807,11.636C319.223,208.053,317.572,214.767,312.87,219.35z"/>
<g>
</g>
<g>
</g>
<g>
</g>
<g>
</g>
<g>
</g>
<g>
</g>
<g>
</g>
<g>
</g>
<g>
</g>
<g>
</g>
<g>
</g>
<g>
</g>
<g>
</g>
<g>
</g>
<g>
</g>
</svg>
