<?xml version="1.0" encoding="iso-8859-1"?>
<!-- Generator: Adobe Illustrator 19.0.0, SVG Export Plug-In . SVG Version: 6.00 Build 0)  -->
<svg version="1.1" id="Capa_1" xmlns="http://www.w3.org/2000/svg" xmlns:xlink="http://www.w3.org/1999/xlink" x="0px" y="0px"
	 viewBox="0 0 512 512" style="enable-background:new 0 0 512 512;" xml:space="preserve">
<path style="fill:#FFD561;" d="M271,183.791v226.625c0,8.293-6.712,15.005-15.005,15.005c-8.283,0-15.005-6.712-15.005-15.005
	V183.791c0-8.293,6.722-15.005,15.005-15.005C264.288,168.786,271,175.498,271,183.791z"/>
<path style="fill:#FFB64C;" d="M271,183.791v226.625c0,8.293-6.712,15.005-15.005,15.005V168.786
	C264.288,168.786,271,175.498,271,183.791z"/>
<path style="fill:#FFD561;" d="M209.4,403.058l-29.559-5.19c11.559-65.819,16.844-163.569-2.984-240.526
	c-2.068-8.025,2.762-16.206,10.787-18.274c8.02-2.071,16.206,2.761,18.274,10.787C232.373,252.536,215.271,369.619,209.4,403.058z"
	/>
<path style="fill:#FFB64C;" d="M303.009,403.058c-5.871-33.439-22.975-150.523,3.483-253.204
	c2.067-8.026,10.247-12.857,18.275-10.787c8.024,2.068,12.854,10.249,10.786,18.274c-19.829,76.957-14.544,174.706-2.985,240.526
	L303.009,403.058z"/>
<path style="fill:#CA6D36;" d="M379.496,431.563v61.801c0,10.273-8.353,18.636-18.636,18.636H151.14
	c-10.283,0-18.636-8.363-18.636-18.636v-61.801c0-19.937,16.215-36.152,36.152-36.152h174.688
	C363.281,395.411,379.496,411.627,379.496,431.563z"/>
<path style="fill:#54E360;" d="M355.398,99.393c0,54.808-44.585,99.403-99.403,99.403c-54.808,0-99.393-44.595-99.393-99.403
	S201.187,0,255.995,0C310.813,0,355.398,44.585,355.398,99.393z"/>
<path style="fill:#00CC71;" d="M255.995,198.796V0c54.818,0,99.403,44.585,99.403,99.393S310.813,198.796,255.995,198.796z"/>
<path style="fill:#B34F03;" d="M379.496,431.563v61.801c0,10.273-8.353,18.636-18.636,18.636H255.995V395.411h87.349
	C363.281,395.411,379.496,411.627,379.496,431.563z"/>
<g>
</g>
<g>
</g>
<g>
</g>
<g>
</g>
<g>
</g>
<g>
</g>
<g>
</g>
<g>
</g>
<g>
</g>
<g>
</g>
<g>
</g>
<g>
</g>
<g>
</g>
<g>
</g>
<g>
</g>
</svg>
