<?xml version="1.0" encoding="iso-8859-1"?>
<!-- Generator: Adobe Illustrator 19.0.0, SVG Export Plug-In . SVG Version: 6.00 Build 0)  -->
<svg version="1.1" id="Capa_1" xmlns="http://www.w3.org/2000/svg" xmlns:xlink="http://www.w3.org/1999/xlink" x="0px" y="0px"
	 viewBox="0 0 512 512" style="enable-background:new 0 0 512 512;" xml:space="preserve">
<path style="fill:#FFD561;" d="M438.591,43.725v394.156H71.177V43.725c0-11.689,4.554-22.678,12.83-30.935
	C92.264,4.534,103.243,0,114.912,0h279.974C418.996,0.02,438.591,19.636,438.591,43.725z"/>
<path style="fill:#FFB64C;" d="M438.591,43.725v394.156H256.796V0h138.091C418.996,0.02,438.591,19.636,438.591,43.725z"/>
<path style="fill:#FFF2D4;" d="M228.727,198.442l-19.178-2.786l-8.576-17.378l-0.001-0.002c-2.866-5.807-8.67-9.413-15.145-9.412
	c-6.475,0.001-12.277,3.609-15.14,9.414l-8.577,17.378l-19.176,2.786c-6.408,0.931-11.632,5.334-13.634,11.493
	c-2.002,6.159-0.363,12.792,4.273,17.311l13.877,13.527l-3.277,19.102c-1.093,6.38,1.481,12.708,6.718,16.513
	c5.237,3.805,12.051,4.299,17.784,1.286l17.153-9.018l17.155,9.019c2.492,1.31,5.189,1.958,7.872,1.957
	c3.487,0,6.952-1.093,9.912-3.245c5.238-3.807,7.811-10.135,6.716-16.515l-3.276-19.099l13.878-13.528
	c4.636-4.521,6.273-11.153,4.271-17.311C240.356,203.776,235.133,199.373,228.727,198.442z"/>
<path style="fill:#F9D8B4;" d="M380.468,209.931c-2.002-6.156-7.225-10.559-13.63-11.489l-19.178-2.786l-8.576-17.378
	c-2.864-5.805-8.664-9.412-15.138-9.414c-0.002,0-0.003,0-0.005,0c-6.474,0-12.276,3.607-15.143,9.414l-8.576,17.378l-19.177,2.786
	c-6.406,0.931-11.629,5.333-13.631,11.489c-2.002,6.157-0.366,12.79,4.272,17.314l13.877,13.528l-3.276,19.097
	c-1.095,6.382,1.479,12.711,6.716,16.517c2.96,2.152,6.423,3.245,9.911,3.245c2.683,0,5.381-0.648,7.874-1.958l17.153-9.018
	l17.159,9.021c5.73,3.008,12.542,2.516,17.778-1.288c5.236-3.804,7.812-10.13,6.719-16.517l-3.276-19.099l13.88-13.531
	C380.834,222.721,382.469,216.088,380.468,209.931z"/>
<path style="fill:#FFF2D4;" d="M308.257,121.998l-13.881,13.531l3.283,19.095c1.091,6.385-1.481,12.71-6.725,16.523
	c-5.234,3.803-12.05,4.293-17.784,1.281l-16.353-8.597l-0.801-0.42l-17.144,9.017c-2.492,1.311-5.194,1.962-7.876,1.962
	c-3.493,0-6.956-1.091-9.908-3.243c-5.244-3.813-7.816-10.138-6.725-16.523l3.283-19.095l-13.881-13.531
	c-4.634-4.514-6.275-11.149-4.273-17.314c2.002-6.155,7.226-10.558,13.631-11.489l19.175-2.782l8.577-17.384
	c2.872-5.805,8.677-9.408,15.142-9.408c0.27,0,0.53,0.01,0.801,0.02c6.145,0.28,11.599,3.823,14.341,9.388h0.01l8.567,17.384
	l19.185,2.782c6.405,0.931,11.629,5.334,13.631,11.489C314.532,110.849,312.891,117.474,308.257,121.998z"/>
<path style="fill:#FF712F;" d="M316.834,330.244c0,8.287-6.725,15.012-15.012,15.012H211.77c-8.287,0-15.012-6.725-15.012-15.012
	c0-8.287,6.725-15.012,15.012-15.012h90.052C310.108,315.232,316.834,321.958,316.834,330.244z"/>
<path style="fill:#CA6D36;" d="M486.74,447.919v45.917c0,10.018-8.147,18.165-18.155,18.165H43.415
	c-10.008,0-18.155-8.147-18.155-18.165v-45.917c0-22.088,17.974-40.062,40.062-40.062h381.355
	C468.765,407.857,486.74,425.831,486.74,447.919z"/>
<path style="fill:#F9D8B4;" d="M308.257,121.998l-13.881,13.531l3.283,19.095c1.091,6.385-1.481,12.71-6.725,16.523
	c-5.234,3.803-12.05,4.293-17.784,1.281l-16.353-8.597V63.641c6.145,0.28,11.599,3.823,14.341,9.388h0.01l8.567,17.384l19.185,2.782
	c6.405,0.931,11.629,5.334,13.631,11.489C314.532,110.849,312.891,117.474,308.257,121.998z"/>
<path style="fill:#FF3636;" d="M316.834,330.244c0,8.287-6.725,15.012-15.012,15.012h-45.026v-30.024h45.026
	C310.108,315.232,316.834,321.958,316.834,330.244z"/>
<path style="fill:#B34F03;" d="M486.74,447.919v45.917c0,10.018-8.147,18.165-18.155,18.165h-211.79V407.857h189.882
	C468.765,407.857,486.74,425.831,486.74,447.919z"/>
<g>
</g>
<g>
</g>
<g>
</g>
<g>
</g>
<g>
</g>
<g>
</g>
<g>
</g>
<g>
</g>
<g>
</g>
<g>
</g>
<g>
</g>
<g>
</g>
<g>
</g>
<g>
</g>
<g>
</g>
</svg>
