<?xml version="1.0" encoding="iso-8859-1"?>
<!-- Generator: Adobe Illustrator 19.0.0, SVG Export Plug-In . SVG Version: 6.00 Build 0)  -->
<svg version="1.1" id="Capa_1" xmlns="http://www.w3.org/2000/svg" xmlns:xlink="http://www.w3.org/1999/xlink" x="0px" y="0px"
	 viewBox="0 0 512 512" style="enable-background:new 0 0 512 512;" xml:space="preserve">
<path style="fill:#FF3636;" d="M470.191,46.036L408.754,5.824c-16.42-10.748-38.501-6.19-49.334,10.141L248.83,175.589
	c-2.666,3.847-2.86,8.89-0.497,12.931l67.332,115.201c2.184,3.737,6.135,6.208,10.463,6.233c0.029,0,0.058,0,0.087,0
	c4.785,0,9.487-2.287,12.388-6.537L480.357,95.734l0.162-0.242C491.306,79.01,486.673,56.824,470.191,46.036z"/>
<path style="fill:#FF712F;" d="M338.563,286.469L152.591,16.703c-5.229-7.892-13.204-13.301-22.479-15.238
	c-9.342-1.95-18.883-0.147-26.867,5.079L41.808,46.757C25.326,57.546,20.694,79.732,31.482,96.214l0.112,0.172l141.293,203.513
	c1.582,2.279,4.139,3.687,6.911,3.805l146.445,6.251c2.932,0,5.894-0.859,8.49-2.649
	C341.544,302.611,343.259,293.281,338.563,286.469z"/>
<path style="fill:#FFD561;" d="M384.883,384.115c0,70.514-57.37,127.885-127.885,127.885s-127.885-57.37-127.885-127.885
	c0-70.524,57.37-127.895,127.885-127.895S384.883,313.59,384.883,384.115z"/>
<path style="fill:#FFB64C;" d="M384.883,384.115c0,70.514-57.37,127.885-127.885,127.885V256.22
	C327.513,256.22,384.883,313.59,384.883,384.115z"/>
<path style="fill:#FFF2D4;" d="M256.998,297.04c-48.012,0-87.064,39.063-87.064,87.074c0,48.002,39.053,87.064,87.064,87.064
	s87.064-39.063,87.064-87.064C344.062,336.103,305.01,297.04,256.998,297.04z M256.998,441.216
	c-31.492,0-57.101-25.619-57.101-57.101c0-31.492,25.609-57.111,57.101-57.111s57.101,25.619,57.101,57.111
	C314.099,415.597,288.49,441.216,256.998,441.216z"/>
<path style="fill:#F9D8B4;" d="M344.062,384.115c0,48.002-39.053,87.064-87.064,87.064v-29.964
	c31.492,0,57.101-25.619,57.101-57.101c0-31.492-25.609-57.111-57.101-57.111V297.04C305.01,297.04,344.062,336.103,344.062,384.115
	z"/>
<g>
</g>
<g>
</g>
<g>
</g>
<g>
</g>
<g>
</g>
<g>
</g>
<g>
</g>
<g>
</g>
<g>
</g>
<g>
</g>
<g>
</g>
<g>
</g>
<g>
</g>
<g>
</g>
<g>
</g>
</svg>
