<?xml version="1.0" encoding="iso-8859-1"?>
<!-- Generator: Adobe Illustrator 19.0.0, SVG Export Plug-In . SVG Version: 6.00 Build 0)  -->
<svg version="1.1" id="Capa_1" xmlns="http://www.w3.org/2000/svg" xmlns:xlink="http://www.w3.org/1999/xlink" x="0px" y="0px"
	 viewBox="0 0 512 512" style="enable-background:new 0 0 512 512;" xml:space="preserve">
<g>
	<path style="fill:#FFD561;" d="M371.911,438.333v56.005c0,9.741-7.921,17.662-17.662,17.662H157.75
		c-9.741,0-17.662-7.921-17.662-17.662v-56.005c0-28.533,23.212-51.755,51.755-51.755h15.952l-33.083-242.694
		c-1.75-12.631,2.06-25.422,10.451-35.053c8.401-9.641,20.542-15.171,33.323-15.171h75.017c12.781,0,24.922,5.531,33.323,15.171
		c8.391,9.631,12.201,22.422,10.451,35.083l-33.083,242.664h15.972C348.699,386.578,371.911,409.8,371.911,438.333z"/>
	<path style="fill:#FFD561;" d="M297.224,41.224c0,22.732-18.492,41.224-41.224,41.224c-22.732,0-41.224-18.492-41.224-41.224
		S233.268,0,256,0S297.224,18.492,297.224,41.224z"/>
</g>
<g>
	<path style="fill:#FFB64C;" d="M256,82.448V0c22.732,0,41.224,18.492,41.224,41.224S278.732,82.448,256,82.448z"/>
	<path style="fill:#FFB64C;" d="M371.911,438.333v56.005c0,9.741-7.921,17.662-17.662,17.662H256V93.659h37.504
		c12.781,0,24.922,5.531,33.323,15.171c8.391,9.631,12.201,22.422,10.451,35.083l-33.083,242.664h15.972
		C348.699,386.578,371.911,409.8,371.911,438.333z"/>
</g>
<path style="fill:#CA6D36;" d="M371.911,438.873v55.465c0,9.741-7.921,17.662-17.662,17.662H157.75
	c-9.741,0-17.662-7.921-17.662-17.662v-55.465H371.911z"/>
<path style="fill:#B34F03;" d="M371.911,438.873v55.465c0,9.741-7.921,17.662-17.662,17.662H256v-73.127H371.911z"/>
<g>
</g>
<g>
</g>
<g>
</g>
<g>
</g>
<g>
</g>
<g>
</g>
<g>
</g>
<g>
</g>
<g>
</g>
<g>
</g>
<g>
</g>
<g>
</g>
<g>
</g>
<g>
</g>
<g>
</g>
</svg>
