<?xml version="1.0" encoding="iso-8859-1"?>
<!-- Generator: Adobe Illustrator 19.0.0, SVG Export Plug-In . SVG Version: 6.00 Build 0)  -->
<svg version="1.1" id="Capa_1" xmlns="http://www.w3.org/2000/svg" xmlns:xlink="http://www.w3.org/1999/xlink" x="0px" y="0px"
	 viewBox="0 0 512 512" style="enable-background:new 0 0 512 512;" xml:space="preserve">
<path style="fill:#64A3FF;" d="M390.848,283.228c0,49.092-11.097,95.588-32.092,134.462c-2.707,5.014-7.871,7.861-13.195,7.861
	c0,0-23.443-0.05-49.622-0.08c-2.637,0-5.304,0-7.971-0.01c-28.646-0.02-58.062-0.02-62.157,0.08c-0.13,0.01-0.26,0.01-0.38,0.01
	c-8.101,0-14.773-6.462-14.972-14.603c-0.589-23.163-3.576-46.935-8.89-70.657c-18.069-80.626-55.075-146.179-92.092-163.109
	c-7.521-3.446-10.827-12.336-7.381-19.867c1.259-2.767,3.266-4.954,5.673-6.452c-0.01,0-0.01,0-0.01-0.01
	c-4.105-2.587,61.598-19.537,116.653-33.121c26.789-6.602,51.07-12.415,63.556-15.392c5.623-1.338,8.86-2.098,8.86-2.098
	l20.656-4.694c23.363,14.703,42.55,41.461,55.495,77.359C384.675,205.33,390.848,243.475,390.848,283.228z"/>
<path style="fill:#2A81EA;" d="M390.848,283.228c0,49.092-11.097,95.588-32.092,134.462c-2.707,5.014-7.871,7.861-13.195,7.861
	c0,0-23.443-0.05-49.622-0.08c-2.637,0-5.304,0-7.971-0.01V102.34c5.623-1.338,8.86-2.098,8.86-2.098l20.656-4.694
	c23.363,14.703,42.55,41.461,55.495,77.359C384.675,205.33,390.848,243.475,390.848,283.228z"/>
<path style="fill:#4E6582;" d="M411.284,431.684v61.698c0,10.268-8.35,18.618-18.618,18.618H183.271
	c-10.268,0-18.618-8.35-18.618-18.618v-61.698c0-19.907,16.191-36.108,36.098-36.108h174.436
	C395.093,395.577,411.284,411.778,411.284,431.684z"/>
<path style="fill:#D7E3FF;" d="M334.734,123.516c-0.659,6.133-4.645,11.267-10.418,13.384l-36.347,13.364l-19.607,7.202
	l-11.107,43.419c-2.537,9.908-10.328,17.37-20.336,19.487c-1.858,0.39-3.736,0.579-5.583,0.579c-8.061,0-15.732-3.656-20.876-10.188
	l-27.708-35.239l-0.23,0.01l-63.326,4.045c-6.652,0.419-12.825-2.897-16.151-8.67c-3.316-5.763-3.076-12.785,0.629-18.309
	l35.448-52.908l-16.531-41.661c-3.776-9.509-1.858-20.126,4.994-27.708c6.852-7.591,17.22-10.578,27.058-7.781l43.119,12.216
	l34.51-28.596c7.831-6.482,18.418-7.971,27.708-3.895c0.06,0.02,0.13,0.05,0.19,0.08c4.675,2.088,8.51,5.364,11.237,9.399
	c2.727,4.035,4.325,8.83,4.525,13.934l1.708,44.778l10.328,6.502l29.515,18.588c4.085,2.587,8.33,7.581,9.968,9.609
	C333.095,112.139,335.343,117.802,334.734,123.516z"/>
<path style="fill:#2D4968;" d="M411.284,431.684v61.698c0,10.268-8.35,18.618-18.618,18.618H287.968V395.577h87.218
	C395.093,395.577,411.284,411.778,411.284,431.684z"/>
<path style="fill:#B5BFF7;" d="M334.734,123.516c-0.659,6.133-4.645,11.267-10.418,13.384l-36.347,13.364V76.96l29.515,18.588
	c4.085,2.587,8.33,7.581,9.968,9.609C333.095,112.139,335.343,117.802,334.734,123.516z"/>
<g>
</g>
<g>
</g>
<g>
</g>
<g>
</g>
<g>
</g>
<g>
</g>
<g>
</g>
<g>
</g>
<g>
</g>
<g>
</g>
<g>
</g>
<g>
</g>
<g>
</g>
<g>
</g>
<g>
</g>
</svg>
