<?xml version="1.0" encoding="iso-8859-1"?>
<!-- Generator: Adobe Illustrator 19.0.0, SVG Export Plug-In . SVG Version: 6.00 Build 0)  -->
<svg version="1.1" id="Capa_1" xmlns="http://www.w3.org/2000/svg" xmlns:xlink="http://www.w3.org/1999/xlink" x="0px" y="0px"
	 viewBox="0 0 512 512" style="enable-background:new 0 0 512 512;" xml:space="preserve">
<path style="fill:#FFD561;" d="M356.298,408.249c-2.282,2.222-3.323,5.425-2.783,8.568l8.358,48.718
	c2.573,15.005-3.483,29.889-15.795,38.838c-12.322,8.949-28.338,10.11-41.821,3.023l-43.753-23.002
	c-1.381-0.721-2.893-1.091-4.404-1.111c-1.582-0.02-3.163,0.35-4.604,1.111l-43.753,23.002c-5.866,3.083-12.212,4.604-18.518,4.604
	c-8.198,0-16.346-2.573-23.303-7.627c-12.312-8.949-18.368-23.833-15.795-38.838l8.358-48.718c0.541-3.143-0.501-6.346-2.783-8.568
	l-35.405-34.504c-10.901-10.63-14.754-26.226-10.05-40.71c4.705-14.484,16.997-24.834,32.061-27.026l48.918-7.107
	c3.153-0.46,5.876-2.432,7.287-5.295l21.881-44.333c6.737-13.653,20.38-22.132,35.605-22.132h0.1
	c15.185,0.04,28.778,8.508,35.505,22.132l21.881,44.333c1.411,2.863,4.134,4.835,7.287,5.295l48.918,7.107
	c15.065,2.192,27.357,12.542,32.061,27.026c4.705,14.484,0.851,30.079-10.05,40.71L356.298,408.249z"/>
<path style="fill:#FFB64C;" d="M356.298,408.249c-2.282,2.222-3.323,5.425-2.783,8.568l8.358,48.718
	c2.573,15.005-3.483,29.889-15.795,38.838c-12.322,8.949-28.338,10.11-41.821,3.023l-43.753-23.002
	c-1.381-0.721-2.893-1.091-4.404-1.111v-256.14c15.185,0.04,28.778,8.508,35.505,22.132l21.881,44.333
	c1.411,2.863,4.134,4.835,7.287,5.295l48.918,7.107c15.065,2.192,27.357,12.542,32.061,27.026
	c4.705,14.484,0.851,30.079-10.05,40.71L356.298,408.249z"/>
<path style="fill:#FF712F;" d="M297.26,216.151c0,22.722-18.458,41.21-41.16,41.26H256c-22.752,0-41.26-18.508-41.26-41.26
	c0-22.742,18.508-41.26,41.26-41.26h0.1C278.802,174.941,297.26,193.439,297.26,216.151z"/>
<path style="fill:#FF3636;" d="M297.26,216.151c0,22.722-18.458,41.21-41.16,41.26v-82.521
	C278.802,174.941,297.26,193.439,297.26,216.151z"/>
<path style="fill:#FFF2D4;" d="M322.365,377.949l-20.47,19.96l4.835,28.178c1.131,6.626-1.531,13.193-6.967,17.137
	c-5.445,3.954-12.512,4.464-18.458,1.331L256.1,431.301l-0.1-0.05l-25.305,13.303c-2.583,1.361-5.385,2.032-8.168,2.032
	c-3.624,0-7.217-1.131-10.29-3.363c-5.435-3.944-8.098-10.51-6.967-17.137l4.835-28.178l-20.47-19.96
	c-4.815-4.685-6.516-11.571-4.434-17.958c2.072-6.386,7.487-10.961,14.144-11.922l28.288-4.114l12.652-25.635
	c2.973-6.026,8.999-9.77,15.715-9.77h0.1c6.677,0.04,12.652,3.774,15.615,9.76v0.01l12.652,25.635l28.288,4.114
	c6.656,0.961,12.072,5.535,14.144,11.922C328.881,366.378,327.179,373.264,322.365,377.949z"/>
<rect x="164.971" style="fill:#64A3FF;" width="182.058" height="204.089"/>
<path style="fill:#FFD561;" d="M377.058,15.015c0,8.298-6.717,15.015-15.015,15.015H149.956c-8.298,0-15.015-6.717-15.015-15.015
	C134.942,6.727,141.658,0,149.956,0h212.087C370.342,0,377.058,6.727,377.058,15.015z"/>
<rect x="256" style="fill:#2A81EA;" width="91.029" height="204.089"/>
<path style="fill:#FFD561;" d="M377.058,189.075c0,8.298-6.717,15.015-15.015,15.015H149.956c-8.298,0-15.015-6.717-15.015-15.015
	c0-8.288,6.717-15.015,15.015-15.015h212.087C370.342,174.06,377.058,180.787,377.058,189.075z"/>
<g>
	<path style="fill:#FFB64C;" d="M362.044,204.089H256.1V174.06h105.943c8.298,0,15.015,6.727,15.015,15.015
		C377.058,197.373,370.342,204.089,362.044,204.089z"/>
	<path style="fill:#FFB64C;" d="M362.044,30.029H256.1V0h105.943c8.298,0,15.015,6.727,15.015,15.015
		C377.058,23.313,370.342,30.029,362.044,30.029z"/>
</g>
<path style="fill:#F9D8B4;" d="M322.365,377.949l-20.47,19.96l4.835,28.178c1.131,6.626-1.531,13.193-6.967,17.137
	c-5.445,3.954-12.512,4.464-18.458,1.331L256.1,431.301v-122.75c6.677,0.04,12.652,3.774,15.615,9.76v0.01l12.652,25.635
	l28.288,4.114c6.656,0.961,12.072,5.535,14.144,11.922C328.881,366.378,327.179,373.264,322.365,377.949z"/>
<g>
</g>
<g>
</g>
<g>
</g>
<g>
</g>
<g>
</g>
<g>
</g>
<g>
</g>
<g>
</g>
<g>
</g>
<g>
</g>
<g>
</g>
<g>
</g>
<g>
</g>
<g>
</g>
<g>
</g>
</svg>
