<?xml version="1.0" encoding="iso-8859-1"?>
<!-- Generator: Adobe Illustrator 19.0.0, SVG Export Plug-In . SVG Version: 6.00 Build 0)  -->
<svg version="1.1" id="Capa_1" xmlns="http://www.w3.org/2000/svg" xmlns:xlink="http://www.w3.org/1999/xlink" x="0px" y="0px"
	 viewBox="0 0 512.001 512.001" style="enable-background:new 0 0 512.001 512.001;" xml:space="preserve">
<path style="fill:#FFD561;" d="M471.668,122.08l-0.04,0.43l-31.425,307.913H71.943L40.459,121.939
	c-0.7-9.584,4.462-18.429,13.156-22.52c8.684-4.102,18.789-2.461,25.742,4.172l81.978,79.217l79.187-76.425l0.22-0.19
	c4.192-3.752,9.414-5.703,14.677-5.853c5.683-0.17,11.415,1.761,15.957,5.783l0.48,0.45l78.846,76.235l81.998-79.007
	c6.933-6.683,17.048-8.354,25.772-4.262C467.196,103.621,472.369,112.475,471.668,122.08z"/>
<path style="fill:#FFB64C;" d="M471.668,122.08l-0.04,0.43l-31.425,307.913H255.418V100.339c5.683-0.17,11.415,1.761,15.957,5.783
	l0.48,0.45l78.846,76.235l81.998-79.007c6.933-6.683,17.048-8.354,25.772-4.262C467.196,103.621,472.369,112.475,471.668,122.08z"/>
<g>
	<path style="fill:#FFF2D4;" d="M483.194,436.565v6.033c0,19.929-16.217,36.157-36.157,36.157H65.1
		c-19.929,0-36.157-16.228-36.157-36.157v-6.033c0-19.929,16.228-36.157,36.157-36.157h381.937
		C466.976,400.408,483.194,416.636,483.194,436.565z"/>
	<path style="fill:#FFF2D4;" d="M48.416,33.246C21.719,33.246,0,54.965,0,81.663c0,26.696,21.719,48.416,48.416,48.416
		c26.696,0,48.416-21.719,48.416-48.416S75.113,33.246,48.416,33.246z"/>
	<path style="fill:#FFF2D4;" d="M304.491,81.661c0,26.702-21.72,48.422-48.422,48.422c-0.22,0-0.43,0-0.65-0.01
		c-26.392-0.34-47.762-21.93-47.762-48.412c0-26.472,21.37-48.062,47.762-48.402c0.22-0.01,0.43-0.01,0.65-0.01
		C282.772,33.248,304.491,54.968,304.491,81.661z"/>
</g>
<path style="fill:#F9D8B4;" d="M463.585,33.246c-26.697,0-48.416,21.719-48.416,48.416c0,26.696,21.719,48.416,48.416,48.416
	c26.696,0,48.416-21.719,48.416-48.416C512,54.965,490.281,33.246,463.585,33.246z"/>
<path style="fill:#D7E3FF;" d="M296.658,307.946c0,22.741-18.499,41.239-41.239,41.239s-41.239-18.499-41.239-41.239
	c0-22.731,18.499-41.239,41.239-41.239S296.658,285.215,296.658,307.946z"/>
<path style="fill:#FF712F;" d="M153.701,322.402c-0.49,0-0.98-0.02-1.471-0.07c-0.49-0.05-0.98-0.12-1.461-0.22
	c-0.47-0.1-0.95-0.22-1.421-0.36s-0.93-0.31-1.381-0.5c-0.45-0.18-0.9-0.39-1.331-0.62c-0.43-0.23-0.86-0.49-1.261-0.76
	c-0.41-0.27-0.81-0.56-1.191-0.87c-0.38-0.31-0.75-0.64-1.09-0.99c-0.35-0.35-0.68-0.71-0.99-1.101c-0.31-0.37-0.61-0.77-0.88-1.181
	c-0.27-0.41-0.52-0.83-0.75-1.261s-0.44-0.88-0.63-1.331c-0.18-0.45-0.35-0.91-0.49-1.381c-0.15-0.47-0.27-0.95-0.36-1.431
	c-0.1-0.48-0.17-0.97-0.22-1.451c-0.05-0.49-0.08-0.99-0.08-1.481s0.03-0.98,0.08-1.471c0.05-0.49,0.12-0.98,0.22-1.461
	c0.09-0.48,0.21-0.95,0.36-1.421c0.14-0.47,0.31-0.93,0.49-1.381c0.19-0.45,0.4-0.9,0.63-1.331c0.23-0.43,0.48-0.86,0.75-1.261
	c0.27-0.41,0.57-0.81,0.88-1.191c0.31-0.38,0.64-0.75,0.99-1.09c0.34-0.35,0.71-0.68,1.09-0.99c0.38-0.31,0.78-0.61,1.191-0.88
	c0.4-0.27,0.83-0.52,1.261-0.75s0.88-0.44,1.331-0.63c0.45-0.18,0.91-0.35,1.381-0.49c0.47-0.15,0.95-0.27,1.421-0.36
	c0.48-0.1,0.97-0.17,1.461-0.22c0.98-0.1,1.971-0.1,2.951,0c0.48,0.05,0.97,0.12,1.451,0.22c0.48,0.09,0.96,0.21,1.431,0.36
	c0.46,0.14,0.93,0.31,1.381,0.49c0.45,0.19,0.9,0.4,1.331,0.63s0.85,0.48,1.261,0.75s0.81,0.57,1.181,0.88
	c0.39,0.31,0.75,0.64,1.101,0.99c2.791,2.791,4.392,6.653,4.392,10.605c0,0.49-0.02,0.99-0.07,1.481
	c-0.05,0.48-0.12,0.97-0.22,1.451s-0.22,0.96-0.36,1.431c-0.14,0.47-0.31,0.93-0.5,1.381c-0.18,0.45-0.39,0.9-0.62,1.331
	c-0.23,0.43-0.49,0.85-0.76,1.261c-0.27,0.41-0.56,0.81-0.87,1.181c-0.31,0.39-0.64,0.75-0.99,1.101
	c-0.35,0.35-0.71,0.68-1.101,0.99c-0.37,0.31-0.77,0.6-1.181,0.87c-0.41,0.27-0.83,0.53-1.261,0.76c-0.43,0.23-0.88,0.44-1.331,0.62
	c-0.45,0.19-0.92,0.36-1.381,0.5c-0.47,0.14-0.95,0.26-1.431,0.36c-0.48,0.1-0.97,0.17-1.451,0.22
	C154.693,322.381,154.192,322.402,153.701,322.402z"/>
<path style="fill:#FF3636;" d="M359.366,323.492c-0.49,0-0.98-0.02-1.471-0.07c-0.49-0.05-0.98-0.12-1.461-0.22
	c-0.48-0.1-0.95-0.22-1.421-0.36c-0.47-0.14-0.93-0.31-1.381-0.5c-0.45-0.18-0.9-0.39-1.331-0.62c-0.43-0.23-0.86-0.49-1.261-0.75
	c-0.41-0.28-0.81-0.57-1.191-0.88s-0.75-0.64-1.091-0.99c-0.35-0.35-0.68-0.71-0.99-1.101c-0.31-0.37-0.61-0.77-0.88-1.181
	c-0.27-0.41-0.52-0.83-0.75-1.261c-0.23-0.43-0.44-0.88-0.63-1.331c-0.18-0.45-0.35-0.91-0.49-1.381
	c-0.14-0.47-0.26-0.95-0.36-1.431c-0.1-0.48-0.17-0.97-0.22-1.451c-0.05-0.49-0.07-0.99-0.07-1.481c0-0.49,0.02-0.98,0.07-1.471
	c0.05-0.49,0.12-0.98,0.22-1.461c0.1-0.48,0.22-0.95,0.36-1.421s0.31-0.93,0.49-1.381c0.19-0.45,0.4-0.9,0.63-1.331
	c0.23-0.43,0.48-0.86,0.75-1.261c0.27-0.41,0.57-0.81,0.88-1.191c0.31-0.38,0.64-0.75,0.99-1.091c0.34-0.35,0.71-0.68,1.091-0.99
	c0.38-0.31,0.78-0.61,1.191-0.88c0.4-0.27,0.83-0.52,1.261-0.75c0.43-0.23,0.88-0.44,1.331-0.63c0.45-0.18,0.91-0.35,1.381-0.49
	c0.47-0.15,0.94-0.27,1.421-0.36c0.48-0.1,0.97-0.17,1.461-0.22c0.98-0.1,1.971-0.1,2.951,0c0.49,0.05,0.97,0.12,1.461,0.22
	c0.47,0.09,0.95,0.21,1.421,0.36c0.47,0.14,0.93,0.31,1.381,0.49c0.45,0.19,0.9,0.4,1.331,0.63c0.43,0.23,0.85,0.48,1.261,0.75
	c0.41,0.27,0.81,0.57,1.181,0.88c0.39,0.31,0.75,0.64,1.101,0.99c0.35,0.34,0.68,0.71,0.99,1.091s0.6,0.78,0.88,1.191
	c0.26,0.4,0.52,0.83,0.75,1.261c0.23,0.43,0.44,0.88,0.62,1.331c0.19,0.45,0.36,0.91,0.5,1.381s0.26,0.94,0.36,1.421
	c0.1,0.48-0.48,0.97-0.43,1.461c0.05,0.49,0.72,0.98,0.72,1.471c0,0.49-0.02,0.99-0.07,1.481c-0.05,0.48-0.12,0.97-0.22,1.451
	c-0.1,0.48-0.22,0.96-0.36,1.431c-0.14,0.47-0.31,0.93-0.5,1.381c-0.18,0.45-0.39,0.9-0.62,1.331c-0.23,0.43-0.49,0.85-0.75,1.261
	c-0.28,0.41-0.57,0.81-0.88,1.181c-0.31,0.39-0.64,0.75-0.99,1.101c-0.35,0.35-0.71,0.68-1.101,0.99c-0.37,0.31-0.77,0.6-1.181,0.88
	c-0.41,0.26-0.83,0.52-1.261,0.75c-0.43,0.23-0.88,0.44-1.331,0.62c-0.45,0.19-0.91,0.36-1.381,0.5s-0.95,0.26-1.421,0.36
	c-0.49,0.1-0.97,0.17-1.461,0.22C360.357,323.472,359.857,323.492,359.366,323.492z"/>
<g>
	<path style="fill:#F9D8B4;" d="M256.07,130.083c-0.22,0-0.43,0-0.65-0.01V33.258c0.22-0.01,0.43-0.01,0.65-0.01
		c26.702,0,48.422,21.72,48.422,48.412C304.491,108.363,282.772,130.083,256.07,130.083z"/>
	<path style="fill:#F9D8B4;" d="M483.194,436.565v6.033c0,19.929-16.217,36.157-36.157,36.157H255.418v-78.346h191.619
		C466.976,400.408,483.194,416.636,483.194,436.565z"/>
</g>
<path style="fill:#B5BFF7;" d="M296.658,307.946c0,22.741-18.499,41.239-41.239,41.239v-82.478
	C278.159,266.706,296.658,285.215,296.658,307.946z"/>
<g>
</g>
<g>
</g>
<g>
</g>
<g>
</g>
<g>
</g>
<g>
</g>
<g>
</g>
<g>
</g>
<g>
</g>
<g>
</g>
<g>
</g>
<g>
</g>
<g>
</g>
<g>
</g>
<g>
</g>
</svg>
