<?xml version="1.0" encoding="iso-8859-1"?>
<!-- Generator: Adobe Illustrator 19.0.0, SVG Export Plug-In . SVG Version: 6.00 Build 0)  -->
<svg version="1.1" id="Capa_1" xmlns="http://www.w3.org/2000/svg" xmlns:xlink="http://www.w3.org/1999/xlink" x="0px" y="0px"
	 viewBox="0 0 512 512" style="enable-background:new 0 0 512 512;" xml:space="preserve">
<path style="fill:#FFD561;" d="M504.924,220.517L397.433,325.293l25.375,147.953c1.513,8.836-2.054,17.601-9.307,22.871
	c-4.097,2.985-8.896,4.498-13.724,4.498c-3.727,0-7.453-0.902-10.909-2.715l-132.866-69.854L123.136,497.9
	c-7.944,4.177-17.381,3.496-24.634-1.783c-7.253-5.269-10.819-14.035-9.307-22.871l25.375-147.953L7.079,220.517
	c-6.421-6.261-8.685-15.447-5.921-23.973c2.775-8.535,10.008-14.636,18.884-15.928l148.554-21.578l66.428-134.609
	c1.984-4.017,4.989-7.283,8.615-9.537c3.626-2.254,7.874-3.506,12.362-3.506c8.966,0,17,4.999,20.977,13.043l66.428,134.609
	l148.554,21.578c8.876,1.292,16.109,7.393,18.874,15.928C513.61,205.069,511.346,214.256,504.924,220.517z"/>
<path style="fill:#FFB64C;" d="M504.924,220.517L397.433,325.293l25.375,147.953c1.513,8.836-2.054,17.601-9.307,22.871
	c-4.097,2.985-8.896,4.498-13.724,4.498c-3.727,0-7.453-0.902-10.909-2.715l-132.866-69.854V11.385c8.966,0,17,4.999,20.977,13.043
	l66.428,134.609l148.554,21.578c8.876,1.292,16.109,7.393,18.874,15.928C513.61,205.069,511.346,214.256,504.924,220.517z"/>
<path style="fill:#FFF2D4;" d="M384.26,255.429l-51.542,50.249l12.162,70.946c1.132,6.582-1.523,13.113-6.922,17.03
	c-3.055,2.224-6.622,3.346-10.218,3.346c-2.765,0-5.55-0.661-8.124-2.014l-63.613-33.449l-0.1-0.05l-63.713,33.5
	c-5.91,3.106-12.943,2.595-18.343-1.332c-5.4-3.917-8.054-10.449-6.922-17.03l12.162-70.946l-51.542-50.249
	c-4.789-4.658-6.471-11.5-4.408-17.852c2.064-6.351,7.443-10.889,14.055-11.851l71.237-10.348l31.857-64.555
	c2.955-5.981,8.936-9.707,15.618-9.707h0.1c6.642,0.04,12.572,3.757,15.518,9.707l31.857,64.555l71.237,10.348
	c6.612,0.962,11.991,5.5,14.055,11.851C390.731,243.929,389.048,250.771,384.26,255.429z"/>
<path style="fill:#F9D8B4;" d="M384.26,255.429l-51.542,50.249l12.162,70.946c1.132,6.582-1.523,13.113-6.922,17.03
	c-3.055,2.224-6.622,3.346-10.218,3.346c-2.765,0-5.55-0.661-8.124-2.014l-63.613-33.449V141.116
	c6.642,0.04,12.572,3.757,15.518,9.707l31.857,64.555l71.237,10.348c6.612,0.962,11.991,5.5,14.055,11.851
	C390.731,243.929,389.048,250.771,384.26,255.429z"/>
<g>
</g>
<g>
</g>
<g>
</g>
<g>
</g>
<g>
</g>
<g>
</g>
<g>
</g>
<g>
</g>
<g>
</g>
<g>
</g>
<g>
</g>
<g>
</g>
<g>
</g>
<g>
</g>
<g>
</g>
</svg>
