<?xml version="1.0" encoding="iso-8859-1"?>
<!-- Generator: Adobe Illustrator 21.0.0, SVG Export Plug-In . SVG Version: 6.00 Build 0)  -->
<svg version="1.1" id="Capa_1" xmlns="http://www.w3.org/2000/svg" xmlns:xlink="http://www.w3.org/1999/xlink" x="0px" y="0px"
	 viewBox="0 0 512 512" style="enable-background:new 0 0 512 512;" xml:space="preserve">
<polygon style="fill:#4D4D4D;" points="327.867,51.586 187.132,110.994 187.13,450.116 328.227,512 469.318,450.116 
	469.318,110.994 "/>
<path style="fill:#3B3B3B;" d="M187.132,51.586l-0.003,59.408h0.002l-0.001,170.349c7.485-4.704,14.615-10.108,21.323-16.179
	c14.79-13.392,27.575-29.915,37.91-48.715c10.236-18.627,18.057-39.494,23.008-61.772c4.01-18.033,6.139-36.982,6.139-56.425V95.27
	V51.586H187.132z"/>
<path style="fill:#CCCCCC;" d="M456.446,63.022c-7.439-7.092-17.501-11.436-28.578-11.436H187.132l-0.003,59.408h240.294h41.895
	V93.036C469.318,81.216,464.38,70.56,456.446,63.022z"/>
<path style="fill:#ADADAD;" d="M275.187,110.994c0.203-4.222,0.324-8.467,0.324-12.742V95.27V51.586h-88.379l-0.003,59.408h0.002
	H275.187z"/>
<path style="fill:#FFA638;" d="M254.186,51.586v2.983c0,19.444-2.129,38.393-6.139,56.425
	c-4.951,22.278-12.773,43.145-23.008,61.772c-10.335,18.8-23.12,35.323-37.91,48.715c-11.721,10.607-24.692,19.258-38.69,25.496
	C85.169,218.758,42.68,141.453,42.68,54.569V0c31.523,29.778,74.236,29.778,105.759,0c15.756,14.889,34.321,22.34,52.873,22.34
	S238.43,14.889,254.186,0V51.586z"/>
<path style="fill:#CCCCCC;" d="M222.255,450.116H187.13v20.434c0,9.146,2.958,17.587,7.971,24.444
	c7.537,10.31,19.728,17.006,33.479,17.006h199.29c22.897,0,41.45-18.553,41.45-41.45v-20.434H222.255z"/>
<path style="fill:#808080;" d="M327.865,463.112c-9.895,0-17.946,8.051-17.946,17.946c0,9.896,8.051,17.946,17.946,17.946
	c9.895,0,17.946-8.051,17.946-17.946C345.812,471.163,337.76,463.112,327.865,463.112z"/>
<path style="fill:#ED8300;" d="M158.19,111.362l20.818-20.818c2.929-2.929,2.929-7.678,0-10.606c-2.93-2.929-7.678-2.929-10.607,0
	l-20.818,20.818l-20.818-20.818c-2.929-2.928-7.677-2.929-10.607,0c-2.929,2.929-2.929,7.677,0,10.606l20.818,20.818l-20.818,20.818
	c-2.929,2.929-2.929,7.678,0,10.606c1.465,1.465,3.385,2.197,5.304,2.197s3.839-0.732,5.304-2.197l20.818-20.818l20.818,20.818
	c1.465,1.465,3.384,2.197,5.304,2.197c1.919,0,3.839-0.732,5.304-2.197c2.929-2.929,2.929-7.677,0-10.606L158.19,111.362z"/>
<g>
</g>
<g>
</g>
<g>
</g>
<g>
</g>
<g>
</g>
<g>
</g>
<g>
</g>
<g>
</g>
<g>
</g>
<g>
</g>
<g>
</g>
<g>
</g>
<g>
</g>
<g>
</g>
<g>
</g>
</svg>
