<?xml version="1.0" encoding="iso-8859-1"?>
<!-- Generator: Adobe Illustrator 21.0.0, SVG Export Plug-In . SVG Version: 6.00 Build 0)  -->
<svg version="1.1" id="Capa_1" xmlns="http://www.w3.org/2000/svg" xmlns:xlink="http://www.w3.org/1999/xlink" x="0px" y="0px"
	 viewBox="0 0 512 512" style="enable-background:new 0 0 512 512;" xml:space="preserve">
<polygon style="fill:#3B3B3B;" points="456.612,0 396.578,0 145.018,0 76.948,0 0,0 0,512 76.948,512 396.578,512 512,512 
	512,55.388 "/>
<path style="fill:#2B2B2B;" d="M456.612,0H355.656c-5.155,184.396-52.684,358.19-133.198,512h174.12h100.624
	c8.172,0,14.798-6.625,14.798-14.798V55.388L456.612,0z"/>
<rect x="96.18" y="256" style="fill:#EBEBEB;" width="319.63" height="256"/>
<path style="fill:#CCCCCC;" d="M320.27,256c-22.718,89.892-55.763,175.673-97.811,256h174.12h19.233V256H320.27z"/>
<polygon style="fill:#4D4D4D;" points="164.25,0 186.026,81.611 164.25,171.653 96.181,171.653 96.181,0 "/>
<rect x="164.25" style="fill:#CCCCCC;" width="251.56" height="171.65"/>
<path style="fill:#ADADAD;" d="M415.811,171.653V0h-60.154c-1.632,58.38-7.517,115.696-17.346,171.653H415.811z"/>
<path style="fill:#2B2B2B;" d="M350.701,130.322c-4.143,0-7.5-3.358-7.5-7.5V48.834c0-4.142,3.357-7.5,7.5-7.5s7.5,3.358,7.5,7.5
	v73.989C358.201,126.964,354.844,130.322,350.701,130.322z"/>
<g>
	<path style="fill:#3B3B3B;" d="M350.701,336.01h-189.41c-4.142,0-7.5-3.358-7.5-7.5s3.358-7.5,7.5-7.5h189.41
		c4.143,0,7.5,3.358,7.5,7.5S354.844,336.01,350.701,336.01z"/>
	<path style="fill:#3B3B3B;" d="M350.701,395.201h-189.41c-4.142,0-7.5-3.358-7.5-7.5s3.358-7.5,7.5-7.5h189.41
		c4.143,0,7.5,3.358,7.5,7.5S354.844,395.201,350.701,395.201z"/>
	<path style="fill:#3B3B3B;" d="M350.701,454.392h-189.41c-4.142,0-7.5-3.358-7.5-7.5s3.358-7.5,7.5-7.5h189.41
		c4.143,0,7.5,3.358,7.5,7.5S354.844,454.392,350.701,454.392z"/>
</g>
<g>
</g>
<g>
</g>
<g>
</g>
<g>
</g>
<g>
</g>
<g>
</g>
<g>
</g>
<g>
</g>
<g>
</g>
<g>
</g>
<g>
</g>
<g>
</g>
<g>
</g>
<g>
</g>
<g>
</g>
</svg>
