<?xml version="1.0" encoding="iso-8859-1"?>
<!-- Generator: Adobe Illustrator 21.0.0, SVG Export Plug-In . SVG Version: 6.00 Build 0)  -->
<svg version="1.1" id="Capa_1" xmlns="http://www.w3.org/2000/svg" xmlns:xlink="http://www.w3.org/1999/xlink" x="0px" y="0px"
	 viewBox="0 0 512.001 512.001" style="enable-background:new 0 0 512.001 512.001;" xml:space="preserve">
<path style="fill:#FFA638;" d="M412.215,25.657H144.961H99.787c-21.87,0-39.604,17.734-39.604,39.604v407.137
	c0,21.87,17.734,39.604,39.604,39.604h312.426c21.882,0,39.604-17.734,39.604-39.604V65.26
	C451.817,43.391,434.095,25.657,412.215,25.657z"/>
<path style="fill:#4D4D4D;" d="M258.921,263.166c-4.183,0-7.574-3.391-7.574-7.574V139.857c0-11.343-9.228-20.572-20.572-20.572
	c-11.392,0-20.62,9.228-20.62,20.572v47.847c0,19.695-16.023,35.72-35.72,35.72s-35.72-16.023-35.72-35.72V7.574
	c0-4.183,3.391-7.574,7.574-7.574s7.574,3.391,7.574,7.574v180.13c0,11.343,9.228,20.572,20.572,20.572s20.572-9.228,20.572-20.572
	v-47.847c0-19.695,16.023-35.72,35.72-35.72c19.745,0,35.768,16.023,35.768,35.72v115.734
	C266.494,259.775,263.103,263.166,258.921,263.166z"/>
<path style="fill:#ED8300;" d="M354.4,365.075v51.274c0,41.701-33.804,75.493-75.493,75.493s-75.493-33.792-75.493-75.493v-51.274
	c0-41.701,33.804-75.493,75.493-75.493c20.845,0,39.724,8.452,53.383,22.11C345.949,325.351,354.4,344.231,354.4,365.075z"/>
<path style="fill:#EBEBEB;" d="M334.454,330.524v51.274c0,41.701-33.804,75.493-75.493,75.493s-75.493-33.792-75.493-75.493v-51.274
	c0-41.701,33.804-75.493,75.493-75.493c20.845,0,39.724,8.452,53.383,22.11C326.003,290.8,334.454,309.679,334.454,330.524z"/>
<path style="fill:#CCCCCC;" d="M312.344,277.14c-6.617-6.617-14.467-11.997-23.164-15.8c5.307,14.103,8.288,29.943,8.288,46.689
	c0,58.92-36.868,106.685-82.348,106.685c-9.296,0-18.231-1.998-26.566-5.676c10.93,28.23,38.324,48.253,70.407,48.253
	c41.689,0,75.493-33.792,75.493-75.493v-51.274C334.454,309.679,326.003,290.8,312.344,277.14z"/>
<path style="fill:#4D4D4D;" d="M258.921,336.005c-4.183,0-7.574-3.391-7.574-7.574v-30.96c0-4.183,3.391-7.574,7.574-7.574
	c4.183,0,7.574,3.391,7.574,7.574v30.96C266.494,332.614,263.103,336.005,258.921,336.005z"/>
<g>
</g>
<g>
</g>
<g>
</g>
<g>
</g>
<g>
</g>
<g>
</g>
<g>
</g>
<g>
</g>
<g>
</g>
<g>
</g>
<g>
</g>
<g>
</g>
<g>
</g>
<g>
</g>
<g>
</g>
</svg>
