<?xml version="1.0" encoding="iso-8859-1"?>
<!-- Generator: Adobe Illustrator 21.0.0, SVG Export Plug-In . SVG Version: 6.00 Build 0)  -->
<svg version="1.1" id="Capa_1" xmlns="http://www.w3.org/2000/svg" xmlns:xlink="http://www.w3.org/1999/xlink" x="0px" y="0px"
	 viewBox="0 0 512 512" style="enable-background:new 0 0 512 512;" xml:space="preserve">
<path style="fill:#FFA638;" d="M402.807,327.384v35.698H95.936C64.018,363.082,0,324.598,0,264.378s39.698-115.46,106.759-115.46
	h296.047v35.698v142.768H402.807z"/>
<path style="fill:#ED8300;" d="M402.806,148.918h-82.573c-5.725,83.074-43.26,158.001-101.3,214.164h183.873v-35.698V184.616
	V148.918z"/>
<rect x="402.81" y="184.62" style="fill:#CCCCCC;" width="109.19" height="142.77"/>
<rect x="402.81" y="184.62" style="fill:#ADADAD;" width="22.06" height="142.77"/>
<path style="fill:#EB7100;" d="M352.56,199.465v113.07H194.492c-31.233,0-56.535-25.314-56.535-56.535
	c0-15.611,6.323-29.744,16.557-39.978c10.222-10.222,24.368-16.557,39.978-16.557H352.56z"/>
<path style="fill:#D65D00;" d="M262.038,312.535h90.522v-113.07h-39.915C303.119,240.406,285.737,278.585,262.038,312.535z"/>
<g>
	<rect x="440.14" y="225.88" style="fill:#4D4D4D;" width="34.525" height="15.463"/>
	<rect x="440.14" y="270.66" style="fill:#4D4D4D;" width="34.525" height="15.463"/>
</g>
<g>
</g>
<g>
</g>
<g>
</g>
<g>
</g>
<g>
</g>
<g>
</g>
<g>
</g>
<g>
</g>
<g>
</g>
<g>
</g>
<g>
</g>
<g>
</g>
<g>
</g>
<g>
</g>
<g>
</g>
</svg>
