<?xml version="1.0" encoding="iso-8859-1"?>
<!-- Generator: Adobe Illustrator 21.0.0, SVG Export Plug-In . SVG Version: 6.00 Build 0)  -->
<svg version="1.1" id="Capa_1" xmlns="http://www.w3.org/2000/svg" xmlns:xlink="http://www.w3.org/1999/xlink" x="0px" y="0px"
	 viewBox="0 0 511.999 511.999" style="enable-background:new 0 0 511.999 511.999;" xml:space="preserve">
<path style="fill:#A6E2E3;" d="M420.79,234.945c50.372,0,91.209,40.824,91.209,91.197s-40.837,91.209-91.209,91.209H117.356
	C52.539,417.351,0,364.799,0,299.982s52.539-117.369,117.356-117.369c12.021,0,23.613,1.812,34.52,5.166
	c-0.379-3.244-0.6-6.537-0.6-9.879c0-45.978,37.274-83.252,83.24-83.252c44.435,0,80.731,34.802,83.118,78.637
	c10.576-9.536,24.556-15.338,39.906-15.338c32.929,0,59.615,26.686,59.615,59.615c0,6.133-0.93,12.045-2.656,17.615
	C416.579,235.043,418.673,234.945,420.79,234.945z"/>
<path style="opacity:0.1;enable-background:new    ;" d="M295.399,197.154c8.173-13.942,22.235-23.867,22.235-23.867
	c-2.387-43.836-38.682-78.638-83.118-78.638c-3.937,0-7.804,0.293-11.596,0.822C262.131,100.63,295.399,130.666,295.399,197.154z"/>
<path style="fill:#7CCBCC;" d="M420.79,234.945c-2.118,0-4.211,0.098-6.292,0.232c1.726-5.569,2.656-11.482,2.656-17.615
	c0-32.929-26.686-59.615-59.615-59.615c-1.501,0-2.983,0.072-4.456,0.18c25.967,1.045,51.447,48.16,32.206,90.219
	c28.375,0,57.955,1.255,79.625,35.73c17.954,28.563,12.313,68.178-13.057,91.401c-9.052,8.286-35.091,23.953-61.817,23.953
	c-0.76-0.008-1.536-0.013-2.33-0.013H84.277c-13.524,0-26.509-2.295-38.598-6.505c19.826,15.318,44.685,24.438,71.678,24.438H420.79
	c50.372,0,91.209-40.836,91.209-91.209C511.999,275.769,471.163,234.945,420.79,234.945z"/>
<g>
	<polygon style="fill:#FFFFFF;" points="330.548,238.066 385.291,309.335 357.344,309.335 357.344,369.267 303.765,369.267 
		303.765,309.335 275.818,309.335 	"/>
	<polygon style="fill:#FFFFFF;" points="236.169,297.999 181.439,369.267 126.708,297.999 154.643,297.999 154.643,238.066 
		208.235,238.066 208.235,297.999 	"/>
</g>
<g>
</g>
<g>
</g>
<g>
</g>
<g>
</g>
<g>
</g>
<g>
</g>
<g>
</g>
<g>
</g>
<g>
</g>
<g>
</g>
<g>
</g>
<g>
</g>
<g>
</g>
<g>
</g>
<g>
</g>
</svg>
