<?xml version="1.0" encoding="iso-8859-1"?>
<!-- Generator: Adobe Illustrator 21.0.0, SVG Export Plug-In . SVG Version: 6.00 Build 0)  -->
<svg version="1.1" id="Capa_1" xmlns="http://www.w3.org/2000/svg" xmlns:xlink="http://www.w3.org/1999/xlink" x="0px" y="0px"
	 viewBox="0 0 512 512" style="enable-background:new 0 0 512 512;" xml:space="preserve">
<g>
	<rect x="7.504" y="333.623" style="fill:#EBEBEB;" width="198.802" height="57.79"/>
	<rect x="355.403" y="333.623" style="fill:#EBEBEB;" width="149.101" height="57.79"/>
</g>
<polygon style="fill:#FFA638;" points="326.22,333.619 290.458,333.619 288.944,333.619 251.67,333.619 206.304,333.619 
	206.304,391.409 235.488,391.409 272.763,391.409 310.038,391.409 355.404,391.409 355.404,333.619 "/>
<path style="fill:#A6E2E3;" d="M429.156,78.855v172.493c0,9.179-7.441,16.621-16.621,16.621h-84.178l-37.899,65.651l-37.91-65.651
	h-84.167c-9.179,0-16.621-7.441-16.621-16.621V78.855c0-9.179,7.441-16.621,16.621-16.621h244.154
	C421.715,62.233,429.156,69.675,429.156,78.855z"/>
<g>
	<path style="fill:#7CCBCC;" d="M246.023,256.204h-89.406c-1.482,0-2.912-0.213-4.28-0.577c1.891,7.101,8.347,12.341,16.044,12.341
		h84.435L246.023,256.204z"/>
	<path style="fill:#7CCBCC;" d="M416.815,62.811c0.364,1.367,0.577,2.798,0.577,4.279v172.493c0,9.179-7.441,16.621-16.621,16.621
		h-84.178l-35.414,61.345l9.279,16.069l37.899-65.651h84.178c9.18,0,16.621-7.442,16.621-16.621V78.854
		C429.156,71.158,423.917,64.701,416.815,62.811z"/>
</g>
<g>
	<polygon style="fill:#4D4D4D;" points="352.48,166.372 263.805,217.564 263.805,115.17 	"/>
	<path style="fill:#4D4D4D;" d="M7.5,449.767c-4.142,0-7.5-3.358-7.5-7.5V333.62c0-4.142,3.358-7.5,7.5-7.5s7.5,3.358,7.5,7.5
		v108.647C15,446.409,11.642,449.767,7.5,449.767z"/>
	<path style="fill:#4D4D4D;" d="M206.3,449.767c-4.142,0-7.5-3.358-7.5-7.5V333.62c0-4.142,3.358-7.5,7.5-7.5
		c4.142,0,7.5,3.358,7.5,7.5v108.647C213.8,446.409,210.442,449.767,206.3,449.767z"/>
	<path style="fill:#4D4D4D;" d="M355.4,449.767c-4.142,0-7.5-3.358-7.5-7.5V333.62c0-4.142,3.358-7.5,7.5-7.5s7.5,3.358,7.5,7.5
		v108.647C362.9,446.409,359.543,449.767,355.4,449.767z"/>
	<path style="fill:#4D4D4D;" d="M504.5,449.767c-4.142,0-7.5-3.358-7.5-7.5V333.62c0-4.142,3.358-7.5,7.5-7.5s7.5,3.358,7.5,7.5
		v108.647C512,446.409,508.642,449.767,504.5,449.767z"/>
</g>
<g>
	<polygon style="fill:#ED8300;" points="280.32,391.409 265.203,391.409 281.381,333.619 296.499,333.619 	"/>
	<polygon style="fill:#ED8300;" points="317.595,391.409 302.495,391.409 318.656,333.619 333.777,333.619 	"/>
	<polygon style="fill:#ED8300;" points="243.045,391.409 227.927,391.409 244.106,333.619 259.217,333.619 	"/>
</g>
<g>
</g>
<g>
</g>
<g>
</g>
<g>
</g>
<g>
</g>
<g>
</g>
<g>
</g>
<g>
</g>
<g>
</g>
<g>
</g>
<g>
</g>
<g>
</g>
<g>
</g>
<g>
</g>
<g>
</g>
</svg>
