<?xml version="1.0" encoding="iso-8859-1"?>
<!-- Generator: Adobe Illustrator 21.0.0, SVG Export Plug-In . SVG Version: 6.00 Build 0)  -->
<svg version="1.1" id="Capa_1" xmlns="http://www.w3.org/2000/svg" xmlns:xlink="http://www.w3.org/1999/xlink" x="0px" y="0px"
	 viewBox="0 0 512 512" style="enable-background:new 0 0 512 512;" xml:space="preserve">
<g>
	<path style="fill:#EBEBEB;" d="M347.092,381.029c36.172,0,65.486,29.314,65.486,65.486c0,18.092-7.322,34.461-19.18,46.306
		C381.553,504.665,365.171,512,347.092,512H164.908V381.029H347.092z"/>
	<path style="fill:#EBEBEB;" d="M347.092,130.984H164.908c-36.158,0-65.486-29.327-65.486-65.499
		c0-18.079,7.335-34.447,19.18-46.306C130.461,7.335,146.829,0,164.908,0h182.184V130.984z"/>
</g>
<path style="fill:#FFA638;" d="M347.092,0c36.172,0,65.486,29.327,65.486,65.486c0,18.092-7.322,34.461-19.18,46.319
	c-11.845,11.845-28.226,19.18-46.306,19.18c-36.172,0-65.486-29.327-65.486-65.499C281.607,29.327,310.921,0,347.092,0z"/>
<path style="fill:#CCCCCC;" d="M164.908,381.029c36.172,0,65.499,29.314,65.499,65.486S201.079,512,164.908,512
	c-36.158,0-65.486-29.314-65.486-65.486c0-18.092,7.335-34.46,19.18-46.306C130.461,388.364,146.829,381.029,164.908,381.029z"/>
<path style="fill:#EBEBEB;" d="M347.092,190.514c36.172,0,65.486,29.314,65.486,65.486c0,18.079-7.322,34.46-19.18,46.305
	c-11.845,11.858-28.226,19.18-46.306,19.18H164.908V190.514H347.092z"/>
<path style="fill:#CCCCCC;" d="M164.908,190.514c36.172,0,65.499,29.314,65.499,65.486s-29.327,65.486-65.499,65.486
	c-36.158,0-65.486-29.314-65.486-65.486c0-18.079,7.335-34.461,19.18-46.306C130.461,197.836,146.829,190.514,164.908,190.514z"/>
<path style="fill:#ED8300;" d="M361.314,1.567c15.042,9.209,25.08,25.791,25.08,44.715c0,14.475-5.858,27.571-15.346,37.058
	c-9.477,9.477-22.583,15.346-37.048,15.346c-25.859,0-47.323-18.74-51.603-43.375c-0.518,3.316-0.791,6.713-0.791,10.175
	c0,36.172,29.314,65.499,65.486,65.499c18.079,0,34.461-7.335,46.306-19.18c11.858-11.858,19.18-28.226,19.18-46.319
	C412.578,34.212,390.642,8.065,361.314,1.567z"/>
<g>
	<path style="fill:#ADADAD;" d="M179.136,191.291c15.042,9.209,25.08,25.791,25.08,44.715c0,14.475-5.858,27.571-15.346,37.058
		c-9.477,9.477-22.583,15.346-37.048,15.346c-25.859,0-47.323-18.74-51.603-43.375c-0.518,3.316-0.791,6.713-0.791,10.175
		c0,36.172,29.314,65.499,65.486,65.499c18.079,0,34.461-7.335,46.306-19.18c11.858-11.858,19.18-28.226,19.18-46.319
		C230.4,223.936,208.465,197.789,179.136,191.291z"/>
	<path style="fill:#ADADAD;" d="M179.136,381.806c15.042,9.209,25.08,25.791,25.08,44.715c0,14.475-5.858,27.571-15.346,37.058
		c-9.477,9.477-22.583,15.346-37.048,15.346c-25.859,0-47.323-18.74-51.603-43.375c-0.518,3.316-0.791,6.713-0.791,10.175
		c0,36.172,29.314,65.499,65.486,65.499c18.079,0,34.461-7.335,46.306-19.18c11.858-11.858,19.18-28.226,19.18-46.319
		C230.4,414.451,208.465,388.304,179.136,381.806z"/>
</g>
<g>
</g>
<g>
</g>
<g>
</g>
<g>
</g>
<g>
</g>
<g>
</g>
<g>
</g>
<g>
</g>
<g>
</g>
<g>
</g>
<g>
</g>
<g>
</g>
<g>
</g>
<g>
</g>
<g>
</g>
</svg>
