<?xml version="1.0" encoding="iso-8859-1"?>
<!-- Generator: Adobe Illustrator 21.0.0, SVG Export Plug-In . SVG Version: 6.00 Build 0)  -->
<svg version="1.1" id="Capa_1" xmlns="http://www.w3.org/2000/svg" xmlns:xlink="http://www.w3.org/1999/xlink" x="0px" y="0px"
	 viewBox="0 0 512 512" style="enable-background:new 0 0 512 512;" xml:space="preserve">
<path style="fill:#C0EAEB;" d="M125.116,35.951l44.03,69.777c-26.275,15.229-48.202,37.144-63.419,63.431l-69.79-44.03
	C57.764,88.488,88.487,57.777,125.116,35.951z"/>
<g>
	<path style="fill:#A6E2E3;" d="M7.828,192.933l80.496,18.22c-3.82,14.3-5.868,29.341-5.868,44.847
		c0,15.519,2.048,30.547,5.868,44.847l-80.496,18.22C2.714,298.887,0,277.764,0,256S2.714,213.114,7.828,192.933z"/>
	<path style="fill:#A6E2E3;" d="M169.146,406.273l-44.03,69.777c-36.629-21.827-67.352-52.537-89.178-89.178l69.79-44.03
		C120.945,369.129,142.872,391.056,169.146,406.273z"/>
</g>
<path style="fill:#7CCBCC;" d="M169.146,406.273l-44.03,69.777c-36.629-21.827-67.352-52.537-89.178-89.178l69.79-44.03
	C120.945,369.129,142.872,391.056,169.146,406.273z"/>
<path style="fill:#FFA638;" d="M504.172,192.946C509.286,213.114,512,234.236,512,256s-2.714,42.887-7.828,63.054l-80.496-18.208
	c3.807-14.3,5.856-29.328,5.856-44.847c0-15.506-2.048-30.547-5.856-44.847L504.172,192.946z"/>
<path style="fill:#ED8300;" d="M504.172,192.946C509.286,213.114,512,234.236,512,256s-2.714,42.887-7.828,63.054l-80.496-18.208
	c3.807-14.3,5.856-29.328,5.856-44.847c0-15.506-2.048-30.547-5.856-44.847L504.172,192.946z"/>
<path style="fill:#FFA638;" d="M476.063,125.129l-69.79,44.03c-15.23-26.287-37.144-48.202-63.431-63.431l44.03-69.79
	C423.501,57.765,454.224,88.488,476.063,125.129z"/>
<path style="fill:#CC7100;" d="M406.273,342.841l69.777,44.043c-21.827,36.629-52.55,67.352-89.179,89.178l-44.03-69.79
	C369.129,391.056,391.043,369.129,406.273,342.841z"/>
<path style="fill:#5FB6B8;" d="M300.847,423.676l18.22,80.496C298.887,509.286,277.764,512,256,512s-42.899-2.714-63.08-7.828
	l18.22-80.496c14.312,3.82,29.341,5.868,44.859,5.868C271.506,429.544,286.535,427.496,300.847,423.676z"/>
<path style="fill:#FFD5A1;" d="M319.067,7.829l-18.22,80.495c-14.312-3.82-29.341-5.868-44.847-5.868
	c-15.519,0-30.547,2.048-44.859,5.868l-18.22-80.495C213.101,2.715,234.237,0,256,0C277.764,0,298.887,2.715,319.067,7.829z"/>
<path style="fill:#4D4D4D;" d="M349.658,155.709c-3.028-2.827-7.774-2.664-10.601,0.362l-83.064,88.939l-83.065-88.939
	c-2.827-3.027-7.573-3.19-10.601-0.362c-3.027,2.827-3.189,7.573-0.362,10.6l86.528,92.647v117.565c0,4.142,3.357,7.5,7.5,7.5
	s7.5-3.358,7.5-7.5V258.957l86.527-92.647C352.847,163.283,352.685,158.537,349.658,155.709z"/>
<g>
</g>
<g>
</g>
<g>
</g>
<g>
</g>
<g>
</g>
<g>
</g>
<g>
</g>
<g>
</g>
<g>
</g>
<g>
</g>
<g>
</g>
<g>
</g>
<g>
</g>
<g>
</g>
<g>
</g>
</svg>
