<?xml version="1.0" encoding="iso-8859-1"?>
<!-- Generator: Adobe Illustrator 21.0.0, SVG Export Plug-In . SVG Version: 6.00 Build 0)  -->
<svg version="1.1" id="Capa_1" xmlns="http://www.w3.org/2000/svg" xmlns:xlink="http://www.w3.org/1999/xlink" x="0px" y="0px"
	 viewBox="0 0 512 512" style="enable-background:new 0 0 512 512;" xml:space="preserve">
<g>
	<path style="fill:#FFA638;" d="M333.508,258.122c-4.142,0-7.5-3.358-7.5-7.5v-12c0-4.142,3.358-7.5,7.5-7.5s7.5,3.358,7.5,7.5v12
		C341.008,254.764,337.65,258.122,333.508,258.122z"/>
	<path style="fill:#FFA638;" d="M333.508,308.683h-12c-4.142,0-7.5-3.358-7.5-7.5s3.358-7.5,7.5-7.5h4.5v-4.5
		c0-4.142,3.358-7.5,7.5-7.5s7.5,3.358,7.5,7.5v12C341.008,305.325,337.65,308.683,333.508,308.683z"/>
	<path style="fill:#FFA638;" d="M195.191,308.683h-12c-4.142,0-7.5-3.358-7.5-7.5s3.358-7.5,7.5-7.5h12c4.142,0,7.5,3.358,7.5,7.5
		S199.333,308.683,195.191,308.683z"/>
	<path style="fill:#FFA638;" d="M292.612,308.683h-19.814c-4.142,0-7.5-3.358-7.5-7.5s3.358-7.5,7.5-7.5h19.814
		c4.142,0,7.5,3.358,7.5,7.5S296.754,308.683,292.612,308.683z M243.902,308.683h-19.814c-4.142,0-7.5-3.358-7.5-7.5
		s3.358-7.5,7.5-7.5h19.814c4.142,0,7.5,3.358,7.5,7.5S248.044,308.683,243.902,308.683z"/>
</g>
<rect x="86.519" y="112.79" style="fill:#808080;" width="343.48" height="35.806"/>
<rect x="132.049" y="341.93" style="fill:#4D4D4D;" width="252.42" height="42.07"/>
<rect x="317.739" y="187.25" style="fill:#808080;" width="31.855" height="50.847"/>
<path style="fill:#EBEBEB;" d="M55.498,0v512H456.5V0H55.498z M418.51,379.53h-34.039h-252.42h-34.04V39.923H418.51V379.53z"/>
<path style="fill:#CCCCCC;" d="M396.171,0c-0.792,13.368-1.802,26.677-3.029,39.923h25.368V379.53h-34.039h-74.187
	c-18.588,45.629-39.907,89.853-63.759,132.47h209.976V0H396.171z"/>
<polygon style="fill:#4D4D4D;" points="302.335,148.594 302.335,112.788 302.335,87.724 364.996,87.724 364.996,112.788 
	364.996,148.594 364.996,189.759 349.599,189.759 317.744,189.759 302.335,189.759 "/>
<g>
	<path style="fill:#FFA638;" d="M116.356,452.92c-2.352,0-4.655-0.955-6.326-2.614c-1.671-1.671-2.625-3.975-2.625-6.338
		c0-2.351,0.955-4.666,2.625-6.326c1.671-1.671,3.975-2.626,6.326-2.626c2.363,0,4.666,0.955,6.338,2.626
		c1.659,1.671,2.614,3.975,2.614,6.326c0,2.363-0.955,4.667-2.614,6.338C121.022,451.966,118.719,452.92,116.356,452.92z"/>
	<path style="fill:#FFA638;" d="M165.589,452.92c-2.352,0-4.667-0.955-6.326-2.614c-1.671-1.671-2.625-3.975-2.625-6.338
		c0-2.351,0.955-4.655,2.625-6.326c1.659-1.671,3.975-2.626,6.326-2.626s4.666,0.955,6.326,2.626
		c1.671,1.671,2.626,3.975,2.626,6.326c0,2.363-0.955,4.667-2.626,6.338C170.255,451.966,167.94,452.92,165.589,452.92z"/>
	<path style="fill:#FFA638;" d="M214.822,452.92c-2.363,0-4.667-0.955-6.326-2.614c-1.671-1.671-2.625-3.975-2.625-6.338
		c0-2.351,0.955-4.655,2.625-6.326c1.659-1.671,3.963-2.626,6.326-2.626c2.351,0,4.666,0.955,6.325,2.626
		c1.671,1.671,2.626,3.975,2.626,6.326c0,2.363-0.955,4.667-2.626,6.338C219.477,451.966,217.173,452.92,214.822,452.92z"/>
</g>
<g>
</g>
<g>
</g>
<g>
</g>
<g>
</g>
<g>
</g>
<g>
</g>
<g>
</g>
<g>
</g>
<g>
</g>
<g>
</g>
<g>
</g>
<g>
</g>
<g>
</g>
<g>
</g>
<g>
</g>
</svg>
