<?xml version="1.0" encoding="iso-8859-1"?>
<!-- Generator: Adobe Illustrator 21.0.0, SVG Export Plug-In . SVG Version: 6.00 Build 0)  -->
<svg version="1.1" id="Capa_1" xmlns="http://www.w3.org/2000/svg" xmlns:xlink="http://www.w3.org/1999/xlink" x="0px" y="0px"
	 viewBox="0 0 512.001 512.001" style="enable-background:new 0 0 512.001 512.001;" xml:space="preserve">
<polygon style="fill:#4D4D4D;" points="492.335,102.83 283.297,311.856 251.106,295.325 237.249,265.821 446.288,56.782 
	478.056,68.887 "/>
<path style="fill:#3B3B3B;" d="M502.454,46.65c-1.114-1.114-2.293-2.125-3.518-3.044c4.645,6.893,3.926,16.325-2.172,22.422
	L267.118,295.682l-44.443,30.756l-0.632-0.69l-0.447,1.762l61.701-15.653l209.039-209.026L502.455,92.7
	c6.368-6.368,9.546-14.69,9.546-23.024C512,61.34,508.822,53.018,502.454,46.65z"/>
<polygon style="fill:#FFA638;" points="283.297,311.856 221.596,327.509 237.249,265.821 "/>
<polygon style="opacity:0.5;fill:#EB7100;enable-background:new    ;" points="222.675,326.437 222.043,325.747 221.596,327.509 
	283.297,311.856 267.118,295.682 267.118,295.682 "/>
<path style="fill:#FFA638;" d="M502.454,46.65C508.822,53.018,512,61.34,512,69.674s-3.178,16.656-9.546,23.024l-10.119,10.132
	l-46.048-46.048l10.132-10.132C469.129,33.94,489.744,33.94,502.454,46.65z"/>
<path style="opacity:0.5;fill:#EB7100;enable-background:new    ;" d="M504.692,49.126c-0.696-0.853-1.442-1.68-2.239-2.476
	c-0.515-0.515-1.047-1.003-1.588-1.475c-0.099-0.087-0.199-0.171-0.299-0.257c-0.534-0.455-1.076-0.896-1.631-1.312l0,0
	c4.645,6.893,3.926,16.325-2.172,22.422l-20.614,20.615l16.186,16.186l0,0l5.059-5.065l5.059-5.066
	c1.194-1.194,2.276-2.457,3.246-3.775c0.323-0.44,0.634-0.885,0.932-1.337c3.58-5.418,5.368-11.661,5.368-17.912
	C512,62.382,509.567,55.099,504.692,49.126z"/>
<g>
	<rect x="185.56" y="326.443" style="fill:#4D4D4D;" width="37.11" height="37.11"/>
	<rect x="148.45" y="363.553" style="fill:#4D4D4D;" width="37.11" height="37.11"/>
	<rect x="111.34" y="400.663" style="fill:#4D4D4D;" width="37.11" height="37.11"/>
	<rect x="74.22" y="437.773" style="fill:#4D4D4D;" width="37.11" height="37.11"/>
	<rect x="37.11" y="400.663" style="fill:#4D4D4D;" width="37.11" height="37.11"/>
	<rect y="363.553" style="fill:#4D4D4D;" width="37.11" height="37.11"/>
</g>
<g>
</g>
<g>
</g>
<g>
</g>
<g>
</g>
<g>
</g>
<g>
</g>
<g>
</g>
<g>
</g>
<g>
</g>
<g>
</g>
<g>
</g>
<g>
</g>
<g>
</g>
<g>
</g>
<g>
</g>
</svg>
