<?xml version="1.0" encoding="iso-8859-1"?>
<!-- Generator: Adobe Illustrator 21.0.0, SVG Export Plug-In . SVG Version: 6.00 Build 0)  -->
<svg version="1.1" id="Capa_1" xmlns="http://www.w3.org/2000/svg" xmlns:xlink="http://www.w3.org/1999/xlink" x="0px" y="0px"
	 viewBox="0 0 512 512" style="enable-background:new 0 0 512 512;" xml:space="preserve">
<g>
	<path style="fill:#808080;" d="M356.956,488.11c0,13.194-10.696,23.89-23.89,23.89H178.934c-13.194,0-23.89-10.696-23.89-23.89
		l0.125-89.881l102.35-12.194l99.312,12.205L356.956,488.11z"/>
	<path style="fill:#808080;" d="M155.05,23.89C155.05,10.696,165.746,0,178.94,0h154.131c13.194,0,23.89,10.696,23.89,23.89
		l-0.125,89.881l-102.35,12.194l-99.312-12.205L155.05,23.89z"/>
</g>
<polygon style="fill:#616161;" points="155.124,439.099 356.876,439.099 356.831,398.24 257.519,386.035 155.169,398.229 "/>
<path style="fill:#CCCCCC;" d="M356.831,113.76c-2.769-0.465-5.628-0.715-8.533-0.715H163.713c-2.916,0-5.764,0.25-8.544,0.726
	c-23.918,4.051-42.13,24.872-42.13,49.936v184.585c0,25.064,18.211,45.885,42.13,49.936c2.78,0.476,5.628,0.726,8.544,0.726h184.585
	c2.905,0,5.764-0.249,8.533-0.715c23.918-4.062,42.13-24.871,42.13-49.947V163.708C398.96,138.632,380.749,117.822,356.831,113.76z"
	/>
<path style="fill:#ADADAD;" d="M356.831,113.76c-2.769-0.465-5.628-0.715-8.533-0.715H333.99c0,0-143.59,285.909-142.619,285.909
	h156.927c2.905,0,5.764-0.249,8.533-0.715c23.918-4.062,42.13-24.871,42.13-49.947V163.708
	C398.96,138.632,380.749,117.822,356.831,113.76z"/>
<path style="fill:#4D4D4D;" d="M361.517,168.223v175.565c0,9.792-7.943,17.723-17.735,17.723H168.218
	c-9.792,0-17.735-7.931-17.735-17.723V168.223c0-9.803,7.943-17.735,17.735-17.735h175.565
	C353.574,150.489,361.517,158.42,361.517,168.223z"/>
<path style="fill:#3B3B3B;" d="M343.782,150.787h-28.586c-27.49,54.791-78.343,156.231-105.543,211.022h134.129
	c9.792,0,17.735-7.931,17.735-17.723V168.522C361.517,158.718,353.574,150.787,343.782,150.787z"/>
<path style="fill:#FFA638;" d="M217.06,295.014c-1.919,0-3.839-0.732-5.303-2.197l-31.514-31.514c-2.929-2.929-2.929-7.678,0-10.606
	l31.514-31.514c2.929-2.929,7.678-2.929,10.606,0c2.929,2.929,2.929,7.678,0,10.606L196.152,256l26.211,26.211
	c2.929,2.929,2.929,7.678,0,10.606C220.899,294.281,218.979,295.014,217.06,295.014z"/>
<path style="fill:#ED8300;" d="M294.94,295.014c-1.919,0-3.839-0.732-5.303-2.197c-2.929-2.929-2.929-7.678,0-10.606L315.848,256
	l-26.211-26.211c-2.929-2.929-2.929-7.678,0-10.606c2.929-2.929,7.678-2.929,10.606,0l31.514,31.514
	c2.929,2.929,2.929,7.678,0,10.606l-31.514,31.514C298.779,294.281,296.859,295.014,294.94,295.014z"/>
<path style="fill:#FFA638;" d="M243.404,320.224c-0.479,0-0.966-0.046-1.454-0.142c-4.064-0.798-6.712-4.741-5.914-8.805
	l22.284-113.446c0.798-4.064,4.741-6.709,8.805-5.914c4.064,0.798,6.712,4.741,5.914,8.805l-22.284,113.446
	C250.052,317.744,246.916,320.224,243.404,320.224z"/>
<path style="fill:#ED8300;" d="M241.95,320.082c0.488,0.096,0.975,0.142,1.454,0.142c3.512,0,6.648-2.479,7.351-6.056l11.242-57.232
	c-8.571,17.125-17.128,34.234-25.177,50.352l-0.784,3.989C235.238,315.341,237.885,319.283,241.95,320.082z"/>
<g>
</g>
<g>
</g>
<g>
</g>
<g>
</g>
<g>
</g>
<g>
</g>
<g>
</g>
<g>
</g>
<g>
</g>
<g>
</g>
<g>
</g>
<g>
</g>
<g>
</g>
<g>
</g>
<g>
</g>
</svg>
