<?xml version="1.0" encoding="iso-8859-1"?>
<!-- Generator: Adobe Illustrator 21.0.0, SVG Export Plug-In . SVG Version: 6.00 Build 0)  -->
<svg version="1.1" id="Capa_1" xmlns="http://www.w3.org/2000/svg" xmlns:xlink="http://www.w3.org/1999/xlink" x="0px" y="0px"
	 viewBox="0 0 512 512" style="enable-background:new 0 0 512 512;" xml:space="preserve">
<path style="fill:#A6E2E3;" d="M451.444,0v512H60.556V0H451.444z"/>
<path style="fill:#7CCBCC;" d="M360.314,0c-9.75,187.841-68.569,362.696-163.881,512h255.011V0H360.314z"/>
<rect x="100.93" y="40.37" style="fill:#EBEBEB;" width="310.14" height="431.25"/>
<path style="fill:#CCCCCC;" d="M220.946,471.625h190.123V40.375H357.44C343.382,196.383,295.408,342.607,220.946,471.625z"/>
<g>
	<path style="fill:#4D4D4D;" d="M313.809,137.795H198.196c-4.143,0-7.5-3.358-7.5-7.5s3.357-7.5,7.5-7.5h115.612
		c4.143,0,7.5,3.358,7.5,7.5S317.951,137.795,313.809,137.795z"/>
	<path style="fill:#4D4D4D;" d="M313.809,301.121H198.196c-4.143,0-7.5-3.358-7.5-7.5s3.357-7.5,7.5-7.5h115.612
		c4.143,0,7.5,3.358,7.5,7.5S317.951,301.121,313.809,301.121z"/>
	<path style="fill:#4D4D4D;" d="M354.182,192.237H157.823c-4.143,0-7.5-3.358-7.5-7.5s3.357-7.5,7.5-7.5h196.358
		c4.143,0,7.5,3.358,7.5,7.5S358.324,192.237,354.182,192.237z"/>
	<path style="fill:#4D4D4D;" d="M354.182,246.679H157.823c-4.143,0-7.5-3.358-7.5-7.5s3.357-7.5,7.5-7.5h196.358
		c4.143,0,7.5,3.358,7.5,7.5S358.324,246.679,354.182,246.679z"/>
</g>
<g>
</g>
<g>
</g>
<g>
</g>
<g>
</g>
<g>
</g>
<g>
</g>
<g>
</g>
<g>
</g>
<g>
</g>
<g>
</g>
<g>
</g>
<g>
</g>
<g>
</g>
<g>
</g>
<g>
</g>
</svg>
