<?xml version="1.0" encoding="iso-8859-1"?>
<!-- Generator: Adobe Illustrator 21.0.0, SVG Export Plug-In . SVG Version: 6.00 Build 0)  -->
<svg version="1.1" id="Capa_1" xmlns="http://www.w3.org/2000/svg" xmlns:xlink="http://www.w3.org/1999/xlink" x="0px" y="0px"
	 viewBox="0 0 512 512" style="enable-background:new 0 0 512 512;" xml:space="preserve">
<polygon style="fill:#808080;" points="409.416,512 256,103.052 102.584,512 256,203.258 "/>
<polygon style="fill:#616161;" points="102.584,512 256,154.853 409.416,512 256,203.258 "/>
<g>
	<path style="fill:#FFA638;" d="M256.995,162.061c34.391,0,62.368-27.979,62.368-62.368c0-8.986-1.871-17.659-5.562-25.78
		c-1.71-3.761-6.142-5.427-9.907-3.715c-3.762,1.71-5.425,6.145-3.716,9.906c2.802,6.163,4.222,12.753,4.222,19.588
		c0,26.14-21.266,47.406-47.406,47.406c-26.14,0-47.407-21.266-47.407-47.406c0-23.595,17.328-43.212,39.925-46.811v16.073
		c0,4.132,3.35,7.481,7.481,7.481c4.133,0,7.481-3.35,7.481-7.481V52.901c6.067,0.966,11.904,3.077,17.167,6.288
		c3.526,2.15,8.131,1.037,10.284-2.491c2.152-3.527,1.037-8.131-2.49-10.284c-7.616-4.646-16.13-7.572-24.96-8.635V7.481
		c0-4.132-3.349-7.481-7.481-7.481c-4.132,0-7.481,3.35-7.481,7.481v30.307c-30.873,3.71-54.888,30.048-54.888,61.905
		C194.625,134.084,222.604,162.061,256.995,162.061z"/>
	<path style="fill:#FFA638;" d="M351.668,183.786c-2.922-2.921-7.658-2.922-10.581,0c-22.462,22.462-52.326,34.833-84.093,34.833
		s-61.631-12.37-84.094-34.833c-2.922-2.922-7.659-2.922-10.58,0c-2.922,2.922-2.922,7.659,0,10.58
		c25.288,25.288,58.911,39.216,94.673,39.216c35.763,0,69.385-13.926,94.674-39.216
		C354.589,191.445,354.589,186.707,351.668,183.786z"/>
</g>
<g>
</g>
<g>
</g>
<g>
</g>
<g>
</g>
<g>
</g>
<g>
</g>
<g>
</g>
<g>
</g>
<g>
</g>
<g>
</g>
<g>
</g>
<g>
</g>
<g>
</g>
<g>
</g>
<g>
</g>
</svg>
