<?xml version="1.0" encoding="iso-8859-1"?>
<!-- Generator: Adobe Illustrator 21.0.0, SVG Export Plug-In . SVG Version: 6.00 Build 0)  -->
<svg version="1.1" id="Capa_1" xmlns="http://www.w3.org/2000/svg" xmlns:xlink="http://www.w3.org/1999/xlink" x="0px" y="0px"
	 viewBox="0 0 512.001 512.001" style="enable-background:new 0 0 512.001 512.001;" xml:space="preserve">
<path style="fill:#808080;" d="M343.904,126.628c-4.142,0-7.5-3.358-7.5-7.5V63.59c0-13.161-10.707-23.868-23.868-23.868H201.459
	c-13.161,0-23.868,10.707-23.868,23.868v55.539c0,4.142-3.358,7.5-7.5,7.5s-7.5-3.358-7.5-7.5V63.59
	c0-21.432,17.436-38.868,38.868-38.868h111.077c21.432,0,38.868,17.436,38.868,38.868v55.539
	C351.404,123.27,348.046,126.628,343.904,126.628z"/>
<path style="fill:#A6E2E3;" d="M511.852,456.831l-3.11-30.023L479.177,141.28c-1.291-12.49-11.826-21.987-24.388-21.987H346.58
	H165.423H57.202c-12.562,0-23.085,9.497-24.376,21.987L3.26,426.809l-3.11,30.023c-1.686,16.283,11.087,30.447,27.457,30.447h30.174
	h396.428h30.185C500.765,487.279,513.538,473.114,511.852,456.831z"/>
<path style="fill:#7CCBCC;" d="M511.852,456.831l-3.11-30.022l-29.565-285.528c-1.291-12.49-11.826-21.987-24.388-21.987h-28.834
	c0.123,4.891,0.186,9.797,0.186,14.718c0,133.217-45.36,255.835-121.47,353.267h179.724
	C500.764,487.279,513.538,473.114,511.852,456.831z"/>
<polygon style="fill:#F4F1EE;" points="135.954,388.869 121.449,446.044 178.625,431.539 170.251,396.472 "/>
<path style="fill:#616161;" d="M508.742,426.809l3.11,30.022c1.686,16.283-11.087,30.448-27.457,30.448H454.21
	C454.209,455.819,478.103,429.958,508.742,426.809z"/>
<path style="fill:#808080;" d="M57.781,487.279H27.608c-16.37,0-29.143-14.165-27.457-30.448l3.11-30.022
	C33.888,429.958,57.781,455.819,57.781,487.279z"/>
<path style="fill:#F4F1EE;" d="M381.708,185.785c5.889,5.889,8.833,13.612,8.833,21.323c0,7.723-2.944,15.446-8.833,21.335
	l-9.388,9.388l-27.695-14.487l-14.963-28.172l9.388-9.388C350.827,174.008,369.93,174.008,381.708,185.785z"/>
<polygon style="fill:#808080;" points="372.32,237.832 178.625,431.539 135.954,388.869 329.661,195.174 "/>
<g>
</g>
<g>
</g>
<g>
</g>
<g>
</g>
<g>
</g>
<g>
</g>
<g>
</g>
<g>
</g>
<g>
</g>
<g>
</g>
<g>
</g>
<g>
</g>
<g>
</g>
<g>
</g>
<g>
</g>
</svg>
