<?xml version="1.0" encoding="iso-8859-1"?>
<!-- Generator: Adobe Illustrator 21.0.0, SVG Export Plug-In . SVG Version: 6.00 Build 0)  -->
<svg version="1.1" id="Capa_1" xmlns="http://www.w3.org/2000/svg" xmlns:xlink="http://www.w3.org/1999/xlink" x="0px" y="0px"
	 viewBox="0 0 512 512" style="enable-background:new 0 0 512 512;" xml:space="preserve">
<path style="fill:#CCCCCC;" d="M459.714,163.58H271.012c-6.862,0-12.425,5.563-12.425,12.425v35.409l27.849,126.736l-27.849,126.016
	v35.421c0,6.856,5.558,12.413,12.413,12.413h94.357h94.368c6.856,0,12.413-5.558,12.413-12.413v-35.421l-25.295-126.375
	l25.295-126.377v-35.409C472.139,169.143,466.576,163.58,459.714,163.58z"/>
<path style="fill:#ADADAD;" d="M271.012,163.58c-6.862,0-12.425,5.563-12.425,12.425v323.582c0,6.856,5.557,12.413,12.413,12.413
	h46.779c12.356-6.689,20.753-19.765,20.753-34.807V163.58H271.012z"/>
<g>
	<rect x="360.36" y="461.5" style="fill:#3B3B3B;" width="10" height="50.5"/>
	<polygon style="fill:#3B3B3B;" points="258.587,211.414 258.587,464.166 313.354,464.166 365.357,464.166 472.139,464.166 
		472.139,211.414 	"/>
</g>
<polygon style="fill:#2B2B2B;" points="258.587,211.414 258.587,464.166 279.089,464.166 298.557,464.166 338.532,464.166 
	338.532,211.414 "/>
<g>
	<path style="fill:#CCCCCC;" d="M309.149,39.555v17.138L174.501,77.385L39.862,56.692V39.555C39.862,17.704,57.566,0,79.416,0
		h190.178C291.433,0,309.149,17.704,309.149,39.555z"/>
	<path style="fill:#CCCCCC;" d="M174.502,347.853l134.647,32.456v19.5c0,21.85-17.716,39.555-39.555,39.555h-11.008H79.416
		c-21.85,0-39.555-17.705-39.555-39.555v-19.5L174.502,347.853z"/>
</g>
<path style="fill:#ADADAD;" d="M269.595,0h-34.763L98.628,439.363h159.959h11.008c21.838,0,39.555-17.705,39.555-39.555v-19.5
	V56.692V39.555C309.149,17.704,291.433,0,269.595,0z"/>
<path style="fill:#808080;" d="M174.796,424.444c-7.995,0-14.5-6.505-14.5-14.5s6.505-14.5,14.5-14.5s14.5,6.505,14.5,14.5
	S182.791,424.444,174.796,424.444z"/>
<rect x="39.862" y="56.692" style="fill:#4D4D4D;" width="269.29" height="323.62"/>
<polygon style="fill:#3B3B3B;" points="116.935,380.309 309.149,380.309 309.149,56.692 217.257,56.692 "/>
<g>
</g>
<g>
</g>
<g>
</g>
<g>
</g>
<g>
</g>
<g>
</g>
<g>
</g>
<g>
</g>
<g>
</g>
<g>
</g>
<g>
</g>
<g>
</g>
<g>
</g>
<g>
</g>
<g>
</g>
</svg>
