<?xml version="1.0" encoding="iso-8859-1"?>
<!-- Generator: Adobe Illustrator 21.0.0, SVG Export Plug-In . SVG Version: 6.00 Build 0)  -->
<svg version="1.1" id="Capa_1" xmlns="http://www.w3.org/2000/svg" xmlns:xlink="http://www.w3.org/1999/xlink" x="0px" y="0px"
	 viewBox="0 0 512 512" style="enable-background:new 0 0 512 512;" xml:space="preserve">
<path style="fill:#A6E2E3;" d="M497.702,50.076H314H14.298C6.403,50.076,0,56.479,0,64.374v261.995l251.483,36.051L512,326.369
	V64.374C511.999,56.479,505.596,50.076,497.702,50.076z"/>
<path style="fill:#7CCBCC;" d="M497.702,50.076H314l-196.472,324.76h92.922h91.111h196.141c7.894,0,14.297-6.403,14.297-14.309
	V326.37V64.374C511.999,56.479,505.596,50.076,497.702,50.076z"/>
<polygon style="fill:#808080;" points="301.561,367.734 312.284,456.372 199.727,456.372 210.45,367.734 "/>
<polygon style="fill:#616161;" points="308.676,426.548 301.561,367.734 210.45,367.734 203.335,426.548 "/>
<g>
	<path style="fill:#CCCCCC;" d="M146.845,326.369H0v34.158c0,7.906,6.403,14.309,14.298,14.309h103.231h92.922h91.111h196.141
		c7.894,0,14.297-6.403,14.297-14.309v-34.158H146.845z"/>
	<path style="fill:#CCCCCC;" d="M352.308,461.923H159.696c-4.142,0-7.5-3.358-7.5-7.5s3.358-7.5,7.5-7.5h192.611
		c4.142,0,7.5,3.358,7.5,7.5S356.45,461.923,352.308,461.923z"/>
</g>
<path style="fill:#F4F1EE;" d="M422.859,138.364H89.151c-7.206,0-13.048,5.842-13.048,13.048v75.691
	c0,7.206,5.842,13.048,13.048,13.048h333.708c7.206,0,13.048-5.842,13.048-13.048v-75.691
	C435.908,144.204,430.066,138.364,422.859,138.364z"/>
<path style="fill:#EBEBEB;" d="M422.859,138.364h-162.27L199.01,240.15h223.849c7.206,0,13.048-5.842,13.048-13.048v-75.691
	C435.908,144.204,430.066,138.364,422.859,138.364z"/>
<path style="fill:#4D4D4D;" d="M175.049,138.364v101.787H89.151c-7.206,0-13.048-5.842-13.048-13.048v-75.691
	c0-7.206,5.842-13.048,13.048-13.048H175.049z"/>
<path style="fill:#CCCCCC;" d="M150.196,203.368l-6.96-6.96c4.378-8.823,2.916-19.831-4.424-27.171
	c-9.198-9.197-24.158-9.196-33.354,0c-9.195,9.195-9.195,24.158,0,33.354c4.599,4.598,10.638,6.897,16.677,6.897
	c3.603,0,7.198-0.837,10.495-2.473l6.959,6.959c1.465,1.464,3.385,2.197,5.304,2.197s3.839-0.732,5.304-2.197
	C153.124,211.047,153.124,206.298,150.196,203.368z M116.065,191.984c-3.348-3.347-3.348-8.793,0-12.141
	c1.673-1.673,3.871-2.51,6.07-2.51c2.198,0,4.396,0.837,6.069,2.51c3.348,3.347,3.348,8.793,0,12.141
	C124.858,195.331,119.411,195.333,116.065,191.984z"/>
<g>
</g>
<g>
</g>
<g>
</g>
<g>
</g>
<g>
</g>
<g>
</g>
<g>
</g>
<g>
</g>
<g>
</g>
<g>
</g>
<g>
</g>
<g>
</g>
<g>
</g>
<g>
</g>
<g>
</g>
</svg>
