<?xml version="1.0" encoding="iso-8859-1"?>
<!-- Generator: Adobe Illustrator 21.0.0, SVG Export Plug-In . SVG Version: 6.00 Build 0)  -->
<svg version="1.1" id="Capa_1" xmlns="http://www.w3.org/2000/svg" xmlns:xlink="http://www.w3.org/1999/xlink" x="0px" y="0px"
	 viewBox="0 0 512 512" style="enable-background:new 0 0 512 512;" xml:space="preserve">
<g>
	<path style="fill:#4D4D4D;" d="M226.878,372.191l0.031-0.215C124.011,357.265,46.417,267.653,46.417,163.531H31.37
		c0,54.632,19.78,107.346,55.697,148.433c23.129,26.458,51.896,46.951,83.82,60.148h-30.122c-4.155,0-7.523,3.368-7.523,7.523
		s3.368,7.523,7.523,7.523h85.075c4.155,0,7.523-3.368,7.523-7.523C233.363,375.833,230.541,372.698,226.878,372.191z"/>
	<path style="fill:#4D4D4D;" d="M110.634,372.106H61.671c-4.155,0-7.523,3.368-7.523,7.523s3.368,7.523,7.523,7.523h48.964
		c4.155,0,7.523-3.368,7.523-7.523S114.789,372.106,110.634,372.106z"/>
	<path style="fill:#4D4D4D;" d="M373.233,372.111h-30.118c31.924-13.198,60.692-33.691,83.82-60.148
		c35.917-41.086,55.697-93.801,55.697-148.433h-15.047c0,104.122-77.595,193.734-180.494,208.445l0.031,0.215
		c-3.664,0.505-6.489,3.64-6.489,7.444c0,4.155,3.367,7.523,7.523,7.523h85.076c4.156,0,7.523-3.368,7.523-7.523
		S377.388,372.111,373.233,372.111z"/>
	<path style="fill:#4D4D4D;" d="M452.328,372.106h-48.497c-4.156,0-7.523,3.368-7.523,7.523s3.367,7.523,7.523,7.523h48.497
		c4.156,0,7.523-3.368,7.523-7.523S456.484,372.106,452.328,372.106z"/>
</g>
<g>
	<path style="fill:#A6E2E3;" d="M492.197,365.425v26.401c0,3.64-2.951,6.591-6.591,6.591h-26.401c-3.64,0-6.591-2.951-6.591-6.591
		v-26.401c0-3.64,2.951-6.591,6.591-6.591h26.401C489.246,358.833,492.197,361.785,492.197,365.425z"/>
	<path style="fill:#A6E2E3;" d="M59.387,365.425v26.401c0,3.64-2.951,6.591-6.591,6.591H26.395c-3.64,0-6.591-2.951-6.591-6.591
		v-26.401c0-3.64,2.951-6.591,6.591-6.591h26.401C56.435,358.833,59.387,361.785,59.387,365.425z"/>
</g>
<g>
	<path style="fill:#FFA638;" d="M294.098,357.794v43.68c0,8.98-7.279,16.259-16.259,16.259h-21.84h-21.84
		c-8.98,0-16.259-7.279-16.259-16.259v-43.68c0-8.98,7.28-16.259,16.259-16.259h43.68
		C286.82,341.536,294.098,348.815,294.098,357.794z"/>
	<path style="fill:#FFA638;" d="M512,110.526v43.68c0,8.98-7.279,16.259-16.259,16.259h-21.84h-21.84
		c-8.98,0-16.259-7.28-16.259-16.259v-43.68c0-8.98,7.28-16.259,16.259-16.259h43.68C504.72,94.267,512,101.547,512,110.526z"/>
	<path style="fill:#FFA638;" d="M76.198,110.526v43.68c0,8.98-7.28,16.259-16.259,16.259h-21.84h-21.84
		C7.28,170.464,0,163.186,0,154.206v-43.68c0-8.98,7.28-16.259,16.259-16.259h43.68C68.918,94.267,76.198,101.547,76.198,110.526z"
		/>
</g>
<g>
</g>
<g>
</g>
<g>
</g>
<g>
</g>
<g>
</g>
<g>
</g>
<g>
</g>
<g>
</g>
<g>
</g>
<g>
</g>
<g>
</g>
<g>
</g>
<g>
</g>
<g>
</g>
<g>
</g>
</svg>
