<?xml version="1.0" encoding="iso-8859-1"?>
<!-- Generator: Adobe Illustrator 21.0.0, SVG Export Plug-In . SVG Version: 6.00 Build 0)  -->
<svg version="1.1" id="Capa_1" xmlns="http://www.w3.org/2000/svg" xmlns:xlink="http://www.w3.org/1999/xlink" x="0px" y="0px"
	 viewBox="0 0 512 512" style="enable-background:new 0 0 512 512;" xml:space="preserve">
<polygon style="fill:#EBEBEB;" points="419.414,512 9.814,512 9.814,0 308.867,0 337.719,83.682 419.414,110.535 "/>
<polygon style="fill:#CCCCCC;" points="419.414,110.535 308.867,110.535 308.867,0 "/>
<path style="fill:#C4C1C1;" d="M419.414,233.9h-142.13c-12.96,0-23.46,10.5-23.46,23.46v105.19c0,12.948,10.5,23.46,23.46,23.46
	h142.13V233.9z"/>
<path style="fill:#FFA638;" d="M478.726,201.016h-59.312H244.4c-12.96,0-23.46,10.5-23.46,23.46v105.19
	c0,12.948,10.5,23.46,23.46,23.46h175.014h59.312c12.948,0,23.46-10.512,23.46-23.46v-105.19
	C502.186,211.516,491.674,201.016,478.726,201.016z"/>
<g>
	<path style="fill:#4D4D4D;" d="M289.897,223.402h-19.475c-4.898,0-8.868,3.97-8.868,8.868v18.41v35.473v35.473
		c0,4.898,3.971,8.868,8.868,8.868s8.868-3.971,8.868-8.868v-26.605h10.606c19.746,0,35.81-16.064,35.81-35.81
		C325.707,239.466,309.643,223.402,289.897,223.402z M289.897,277.285H279.29V250.68v-9.542h10.606
		c9.966,0,18.073,8.108,18.073,18.073S299.863,277.285,289.897,277.285z"/>
	<path style="fill:#4D4D4D;" d="M426.889,330.495h-2.376c-4.898,0-8.868-3.971-8.868-8.868v-88.081c0-4.898,3.971-8.868,8.868-8.868
		h2.376c29.174,0,52.909,23.735,52.909,52.909C479.798,306.76,456.063,330.495,426.889,330.495z M433.381,243.014v69.144
		c16.304-3.054,28.68-17.395,28.68-34.572C462.061,260.409,449.685,246.069,433.381,243.014z"/>
	<path style="fill:#4D4D4D;" d="M368.927,330.495c-17.208,0-31.208-13.999-31.208-31.207c0-4.898,3.971-8.868,8.868-8.868
		c4.898,0,8.868,3.971,8.868,8.868c0,7.428,6.043,13.471,13.471,13.471s13.471-6.043,13.471-13.471s-6.043-13.471-13.471-13.471
		c-17.208,0-31.208-13.999-31.208-31.207s14-31.208,31.208-31.208s31.207,13.999,31.207,31.207c0,4.898-3.971,8.868-8.868,8.868
		c-4.898,0-8.868-3.971-8.868-8.868c0-7.428-6.043-13.471-13.471-13.471s-13.471,6.043-13.471,13.471s6.043,13.471,13.471,13.471
		c17.208,0,31.207,13.999,31.207,31.207C400.134,316.495,386.135,330.495,368.927,330.495z"/>
</g>
<g>
</g>
<g>
</g>
<g>
</g>
<g>
</g>
<g>
</g>
<g>
</g>
<g>
</g>
<g>
</g>
<g>
</g>
<g>
</g>
<g>
</g>
<g>
</g>
<g>
</g>
<g>
</g>
<g>
</g>
</svg>
