<?xml version="1.0" encoding="iso-8859-1"?>
<!-- Generator: Adobe Illustrator 21.0.0, SVG Export Plug-In . SVG Version: 6.00 Build 0)  -->
<svg version="1.1" id="Capa_1" xmlns="http://www.w3.org/2000/svg" xmlns:xlink="http://www.w3.org/1999/xlink" x="0px" y="0px"
	 viewBox="0 0 512 512" style="enable-background:new 0 0 512 512;" xml:space="preserve">
<path style="fill:#CCCCCC;" d="M492.946,100.257v272.931L254.82,389.264L19.042,373.188V100.257
	c0-14.267,11.567-25.833,25.833-25.833h422.237C481.38,74.423,492.946,85.99,492.946,100.257z"/>
<path style="fill:#ADADAD;" d="M467.113,74.423H335.397L206.436,373.188h286.51V100.257C492.946,85.99,481.38,74.423,467.113,74.423
	z"/>
<path style="fill:#808080;" d="M512,373.188v38.556c0,14.267-11.567,25.833-25.833,25.833H25.833C11.567,437.577,0,426.01,0,411.743
	v-38.556h19.042h473.904H512z"/>
<path style="fill:#616161;" d="M508.934,373.188v27.154c0,14.267-11.567,25.834-25.833,25.834H22.768
	c-9.833,0-18.381-5.495-22.746-13.58c0.45,13.872,11.831,24.982,25.812,24.982h460.333c14.267,0,25.833-11.567,25.833-25.833
	v-38.556L508.934,373.188L508.934,373.188z"/>
<path style="fill:#4D4D4D;" d="M185.079,373.188H326.91c0,17.757-14.396,32.153-32.153,32.153h-77.512
	C199.487,405.341,185.079,390.945,185.079,373.188z"/>
<g style="opacity:0.2;">
	<path d="M185.188,375.73c-0.066-0.839-0.109-1.685-0.109-2.541h-0.976C184.431,374.053,184.789,374.903,185.188,375.73z"/>
</g>
<rect x="57.68" y="114.86" style="fill:#EBEBEB;" width="396.64" height="216.35"/>
<polygon style="fill:#CCCCCC;" points="224.554,331.213 454.32,331.213 454.32,114.865 317.941,114.865 "/>
<g>
</g>
<g>
</g>
<g>
</g>
<g>
</g>
<g>
</g>
<g>
</g>
<g>
</g>
<g>
</g>
<g>
</g>
<g>
</g>
<g>
</g>
<g>
</g>
<g>
</g>
<g>
</g>
<g>
</g>
</svg>
