<?xml version="1.0" encoding="iso-8859-1"?>
<!-- Generator: Adobe Illustrator 21.0.0, SVG Export Plug-In . SVG Version: 6.00 Build 0)  -->
<svg version="1.1" id="Capa_1" xmlns="http://www.w3.org/2000/svg" xmlns:xlink="http://www.w3.org/1999/xlink" x="0px" y="0px"
	 viewBox="0 0 512 512" style="enable-background:new 0 0 512 512;" xml:space="preserve">
<path style="fill:#A6E2E3;" d="M497.702,50.076H314H14.298C6.403,50.076,0,56.479,0,64.374v261.995l251.483,36.051L512,326.369
	V64.374C511.999,56.479,505.596,50.076,497.702,50.076z"/>
<path style="fill:#7CCBCC;" d="M497.702,50.076H314l-196.472,324.76h92.922h91.111h196.141c7.894,0,14.297-6.403,14.297-14.309
	V326.37V64.374C511.999,56.479,505.596,50.076,497.702,50.076z"/>
<polygon style="fill:#808080;" points="301.561,367.734 312.284,456.372 199.727,456.372 210.45,367.734 "/>
<polygon style="fill:#616161;" points="308.676,426.548 301.561,367.734 210.45,367.734 203.335,426.548 "/>
<path style="fill:#CCCCCC;" d="M146.845,326.369H0v34.158c0,7.906,6.403,14.309,14.298,14.309h103.231h92.922h91.111h196.141
	c7.894,0,14.297-6.403,14.297-14.309v-34.158H146.845z"/>
<path style="fill:#ADADAD;" d="M146.85,326.369l-29.322,48.467h380.174c7.894,0,14.297-6.403,14.297-14.309V326.37L146.85,326.369
	L146.85,326.369z"/>
<path style="fill:#CCCCCC;" d="M352.308,461.923H159.696c-4.142,0-7.5-3.358-7.5-7.5s3.358-7.5,7.5-7.5h192.611
	c4.142,0,7.5,3.358,7.5,7.5S356.45,461.923,352.308,461.923z"/>
<path style="fill:#FFA638;" d="M287.962,238.34v0.047l-30.965,16.345l-32.959-16.345v-0.047c0-21.565-6.486-42.478-17.801-60.835
	c-5.906-9.587-9.125-21.008-8.593-33.211c1.326-30.134,25.92-54.586,56.066-55.746c33.306-1.278,60.705,25.352,60.705,58.374
	c0,11.682-3.444,22.571-9.362,31.696C293.572,196.335,287.962,217.225,287.962,238.34z"/>
<path style="fill:#ED8300;" d="M285.805,96.683l-66.474,109.878c3.066,10.267,4.707,20.94,4.707,31.777v0.047l32.959,16.345
	l30.965-16.345v-0.047c0-21.115,5.61-42.005,17.091-59.723c5.918-9.125,9.362-20.014,9.362-31.696
	C314.415,125.549,302.931,106.867,285.805,96.683z"/>
<path style="fill:#616161;" d="M287.962,238.387v26.405c0,15.031-12.179,27.21-27.21,27.21h-9.492
	c-15.031,0-27.222-12.179-27.222-27.21v-26.405L287.962,238.387L287.962,238.387z"/>
<g>
</g>
<g>
</g>
<g>
</g>
<g>
</g>
<g>
</g>
<g>
</g>
<g>
</g>
<g>
</g>
<g>
</g>
<g>
</g>
<g>
</g>
<g>
</g>
<g>
</g>
<g>
</g>
<g>
</g>
</svg>
