<?xml version="1.0" encoding="iso-8859-1"?>
<!-- Generator: Adobe Illustrator 21.0.0, SVG Export Plug-In . SVG Version: 6.00 Build 0)  -->
<svg version="1.1" id="Capa_1" xmlns="http://www.w3.org/2000/svg" xmlns:xlink="http://www.w3.org/1999/xlink" x="0px" y="0px"
	 viewBox="0 0 512 512" style="enable-background:new 0 0 512 512;" xml:space="preserve">
<path style="fill:#4D4D4D;" d="M304.327,355.911H162.738l-33.684,99.912H46.841L193.569,56.177h80.5l146.727,399.646h-81.643
	L304.327,355.911z M183.863,295.964h100.482L233.532,150.95L183.863,295.964z"/>
<path style="fill:#3B3B3B;" d="M304.327,355.911h-70.508l-0.084-59.947h50.609L233.532,150.95l0.287-94.773h40.25l146.727,399.646
	h-81.643L304.327,355.911z"/>
<path style="fill:#CCCCCC;" d="M457.659,512c-4.143,0-7.5-3.358-7.5-7.5V7.5c0-4.142,3.357-7.5,7.5-7.5s7.5,3.358,7.5,7.5v497
	C465.159,508.642,461.802,512,457.659,512z"/>
<g>
</g>
<g>
</g>
<g>
</g>
<g>
</g>
<g>
</g>
<g>
</g>
<g>
</g>
<g>
</g>
<g>
</g>
<g>
</g>
<g>
</g>
<g>
</g>
<g>
</g>
<g>
</g>
<g>
</g>
</svg>
