<?xml version="1.0" encoding="iso-8859-1"?>
<!-- Generator: Adobe Illustrator 21.0.0, SVG Export Plug-In . SVG Version: 6.00 Build 0)  -->
<svg version="1.1" id="Capa_1" xmlns="http://www.w3.org/2000/svg" xmlns:xlink="http://www.w3.org/1999/xlink" x="0px" y="0px"
	 viewBox="0 0 512 512" style="enable-background:new 0 0 512 512;" xml:space="preserve">
<path style="fill:#4D4D4D;" d="M504.5,496.518H61.966C27.798,496.518,0,468.72,0,434.552v-66.381
	c0-34.168,27.798-61.966,61.966-61.966c4.142,0,7.5,3.358,7.5,7.5s-3.358,7.5-7.5,7.5C36.069,321.206,15,342.275,15,368.172v66.381
	c0,25.897,21.069,46.966,46.966,46.966H504.5c4.142,0,7.5,3.358,7.5,7.5S508.642,496.518,504.5,496.518z"/>
<path style="fill:#C4C1C1;" d="M473.228,112.019c15.553,0,28.167,12.614,28.167,28.167v272.561
	c0,15.564-12.614,28.167-28.167,28.167H88.767c-15.553,0-28.167-12.603-28.167-28.167V140.186c0-15.553,12.614-28.167,28.167-28.167
	C88.767,112.019,473.228,112.019,473.228,112.019z"/>
<path style="opacity:0.15;enable-background:new    ;" d="M61.595,158.025v103.818h43.731c7.686,0,13.914-6.228,13.914-13.903
	v-76.002c0-7.686-6.228-13.914-13.914-13.914H61.595V158.025z"/>
<path style="opacity:0.15;enable-background:new    ;" d="M61.595,289.864v103.818h43.731c7.686,0,13.914-6.228,13.914-13.914
	v-76.002c0-7.675-6.228-13.903-13.914-13.903H61.595V289.864z"/>
<path style="opacity:0.1;enable-background:new    ;" d="M105.326,261.843c7.686,0,13.914-6.228,13.914-13.903v-76.002
	c0-7.686-6.228-13.914-13.914-13.914H84.551v103.818h20.775V261.843z"/>
<path style="opacity:0.1;enable-background:new    ;" d="M105.326,393.682c7.686,0,13.914-6.228,13.914-13.914v-76.002
	c0-7.675-6.228-13.903-13.914-13.903H84.551v103.818h20.775V393.682z"/>
<path style="opacity:0.15;enable-background:new    ;" d="M155.213,158.025c-9.905,0-17.934,8.029-17.934,17.934v96.498v103.291
	c0,9.904,8.029,17.934,17.934,17.934h286.992c9.904,0,17.934-8.029,17.934-17.934V175.959c0-9.904-8.029-17.934-17.934-17.934
	H155.213z"/>
<path style="fill:#66645D;" d="M360.682,228.219c-2.17,0-4.339-0.828-5.994-2.483l-13.537-13.537c-3.311-3.311-3.311-8.678,0-11.988
	c3.31-3.311,8.678-3.311,11.988,0l13.537,13.537c3.311,3.311,3.311,8.678,0,11.989C365.021,227.392,362.852,228.219,360.682,228.219
	z"/>
<path style="fill:#E2E0E0;" d="M171.576,73.792l132.412,132.412c11.917,11.917,31.24,11.917,43.157,0l0,0
	c11.917-11.917,11.917-31.24,0-43.157L214.732,30.635L171.576,73.792z"/>
<path style="fill:#66645D;" d="M293.715,161.252c-2.169,0-4.339-0.828-5.994-2.483l-20.344-20.344
	c-3.311-3.311-3.311-8.678,0-11.989c3.31-3.311,8.678-3.311,11.989,0l20.344,20.344c3.311,3.311,3.311,8.678,0,11.988
	C298.054,160.425,295.884,161.252,293.715,161.252z"/>
<path style="opacity:0.05;enable-background:new    ;" d="M473.228,112.019h-41.86c-11.153,118.283-46.361,229.563-100.691,328.895
	h142.551c15.553,0,28.167-12.603,28.167-28.167V140.186C501.395,124.633,488.781,112.019,473.228,112.019z"/>
<path style="fill:#CCCCCC;" d="M473.228,112c15.553,0,28.167,12.614,28.167,28.167v272.561c0,15.564-12.614,28.167-28.167,28.167
	H88.767c-15.553,0-28.167-12.603-28.167-28.167V140.167C60.6,124.614,73.214,112,88.767,112H473.228z"/>
<g>
	<path style="fill:#ADADAD;" d="M473.228,112h-41.86c-11.153,118.283-46.361,229.563-100.691,328.895h142.551
		c15.553,0,28.167-12.603,28.167-28.167V140.167C501.395,124.614,488.781,112,473.228,112z"/>
	<path style="fill:#ADADAD;" d="M60.6,158.006v103.818h43.731c7.686,0,13.914-6.228,13.914-13.903V171.92
		c0-7.686-6.228-13.914-13.914-13.914H60.6z"/>
	<path style="fill:#ADADAD;" d="M60.6,289.845v103.818h43.731c7.686,0,13.914-6.228,13.914-13.914v-76.002
		c0-7.675-6.228-13.903-13.914-13.903H60.6V289.845z"/>
</g>
<g>
	<path style="fill:#808080;" d="M104.331,261.824c7.686,0,13.914-6.228,13.914-13.903V171.92c0-7.686-6.228-13.914-13.914-13.914
		H83.556v103.818H104.331z"/>
	<path style="fill:#808080;" d="M104.331,393.663c7.686,0,13.914-6.228,13.914-13.914v-76.002c0-7.675-6.228-13.903-13.914-13.903
		H83.556v103.818h20.775V393.663z"/>
	<path style="fill:#808080;" d="M155.213,158.006c-9.904,0-17.934,8.029-17.934,17.934v96.498v103.291
		c0,9.905,8.029,17.934,17.934,17.934h286.992c9.905,0,17.934-8.029,17.934-17.934V175.94c0-9.905-8.029-17.934-17.934-17.934
		H155.213z"/>
</g>
<path style="fill:#616161;" d="M442.206,158.006h-16.443c-12.387,83.046-36.687,162.199-71.126,235.657h87.569
	c9.904,0,17.934-8.029,17.934-17.934V175.94C460.139,166.035,452.11,158.006,442.206,158.006z"/>
<path style="fill:#4D4D4D;" d="M361.096,227.436c-1.919,0-3.839-0.732-5.303-2.197l-13.591-13.591
	c-2.929-2.929-2.929-7.678,0-10.607s7.678-2.929,10.606,0l13.591,13.591c2.929,2.929,2.929,7.678,0,10.607
	C364.935,226.704,363.016,227.436,361.096,227.436z"/>
<path style="fill:#EBEBEB;" d="M171.575,73.773l132.412,132.412c11.917,11.917,31.24,11.917,43.157,0l0,0
	c11.917-11.917,11.917-31.24,0-43.157L214.732,30.616L171.575,73.773z"/>
<g>
	<path style="fill:#4D4D4D;" d="M186.904,18.792l-27.172,27.172c-4.414,4.414-4.414,11.571,0,15.985l18.981,18.981l43.157-43.157
		l0,0l-18.981-18.981C198.475,14.378,191.318,14.378,186.904,18.792z"/>
	<path style="fill:#4D4D4D;" d="M293.865,160.205c-1.919,0-3.839-0.732-5.303-2.197l-20.425-20.425
		c-2.929-2.929-2.929-7.677,0-10.606s7.678-2.929,10.606,0l20.425,20.425c2.929,2.929,2.929,7.677,0,10.606
		C297.704,159.472,295.784,160.205,293.865,160.205z"/>
</g>
<g>
</g>
<g>
</g>
<g>
</g>
<g>
</g>
<g>
</g>
<g>
</g>
<g>
</g>
<g>
</g>
<g>
</g>
<g>
</g>
<g>
</g>
<g>
</g>
<g>
</g>
<g>
</g>
<g>
</g>
</svg>
