<?xml version="1.0" encoding="iso-8859-1"?>
<!-- Generator: Adobe Illustrator 21.0.0, SVG Export Plug-In . SVG Version: 6.00 Build 0)  -->
<svg version="1.1" id="Capa_1" xmlns="http://www.w3.org/2000/svg" xmlns:xlink="http://www.w3.org/1999/xlink" x="0px" y="0px"
	 viewBox="0 0 511.999 511.999" style="enable-background:new 0 0 511.999 511.999;" xml:space="preserve">
<polygon style="fill:#EBEBEB;" points="422.628,113.839 422.628,255.635 256.006,277.766 89.358,255.635 89.358,23.908 
	332.684,23.908 357.262,89.262 "/>
<g>
	<polygon style="fill:#CCCCCC;" points="422.628,113.839 332.684,113.839 332.684,23.908 	"/>
	<path style="fill:#CCCCCC;" d="M511.999,299.898v139.167c0,27.078-21.949,49.027-49.027,49.027H49.027
		C21.949,488.091,0,466.142,0,439.064V299.898l256.006-22.131L511.999,299.898z"/>
</g>
<path style="opacity:0.1;enable-background:new    ;" d="M469.933,298.997l1.124,125.2c0,27.078-21.949,49.027-49.027,49.027H38.612
	c-13.336,0-25.421-5.332-34.26-13.97c7.696,17.002,24.797,28.837,44.675,28.837h413.945c27.078,0,49.027-21.949,49.027-49.027
	V299.898L469.933,298.997z"/>
<path style="fill:#4D4D4D;" d="M446.543,393.521v31.358c0,4.311-3.495,7.806-7.806,7.806H73.276c-4.311,0-7.806-3.495-7.806-7.806
	v-31.358c0-4.311,3.495-7.806,7.806-7.806h365.461C443.048,385.715,446.543,389.21,446.543,393.521z"/>
<path style="fill:#808080;" d="M511.999,268.98v30.917H0V268.98c0-7.37,5.975-13.345,13.345-13.345h76.013h333.27h76.026
	C506.025,255.635,511.999,261.609,511.999,268.98z"/>
<path style="fill:#FFA638;" d="M49.469,349.367c-3.424,0-6.783-1.393-9.204-3.814c-2.421-2.422-3.815-5.78-3.815-9.204
	s1.393-6.783,3.815-9.204c2.421-2.421,5.78-3.815,9.204-3.815c3.424,0,6.783,1.393,9.204,3.815c2.435,2.421,3.814,5.78,3.814,9.204
	s-1.379,6.783-3.814,9.204C56.253,347.974,52.894,349.367,49.469,349.367z"/>
<g>
</g>
<g>
</g>
<g>
</g>
<g>
</g>
<g>
</g>
<g>
</g>
<g>
</g>
<g>
</g>
<g>
</g>
<g>
</g>
<g>
</g>
<g>
</g>
<g>
</g>
<g>
</g>
<g>
</g>
</svg>
