<?xml version="1.0" encoding="iso-8859-1"?>
<!-- Generator: Adobe Illustrator 21.0.0, SVG Export Plug-In . SVG Version: 6.00 Build 0)  -->
<svg version="1.1" id="Capa_1" xmlns="http://www.w3.org/2000/svg" xmlns:xlink="http://www.w3.org/1999/xlink" x="0px" y="0px"
	 viewBox="0 0 512 512" style="enable-background:new 0 0 512 512;" xml:space="preserve">
<polygon style="fill:#808080;" points="353.043,373.311 280.035,356.001 204.144,373.311 192.335,443.503 278.593,443.503 
	364.852,443.503 "/>
<polygon style="fill:#616161;" points="197.188,414.657 359.999,414.657 353.043,373.311 280.035,356.001 204.144,373.311 "/>
<path style="fill:#CCCCCC;" d="M412.136,453.282H157.914c-5.399,0-9.776-4.377-9.776-9.776s4.377-9.776,9.776-9.776h254.222
	c5.399,0,9.776,4.377,9.776,9.776S417.535,453.282,412.136,453.282z"/>
<path style="fill:#999999;" d="M512,321.173v27.099c0,13.83-11.21,25.04-25.04,25.04H353.043H328.89h-22.837v-52.138H512V321.173z"
	/>
<path style="fill:#4D4D4D;" d="M486.96,13.556H287.804H73.111c-13.829,0-25.04,11.211-25.04,25.04v309.677
	c0,13.829,11.211,25.04,25.04,25.04h206.872H486.96c13.829,0,25.04-11.211,25.04-25.04v-27.099V38.595
	C512,24.766,500.789,13.556,486.96,13.556z"/>
<path style="fill:#3B3B3B;" d="M279.984,373.311H486.96c13.829,0,25.04-11.211,25.04-25.04v-27.099V38.595
	c0-13.829-11.211-25.039-25.04-25.039H371.356L252.437,373.311H279.984z"/>
<path style="fill:#ADADAD;" d="M48.072,321.825v26.447c0,13.829,11.211,25.04,25.04,25.04h206.872H486.96
	c13.829,0,25.04-11.211,25.04-25.04v-26.447H48.072z"/>
<rect x="48.07" y="311.4" style="fill:#2B2B2B;" width="463.92" height="19.552"/>
<path style="fill:#EBEBEB;" d="M211.682,265.262l0.111,25.071l-59.363,5.5l-59.363-5.5v-21.299c0-7.199,5.836-13.035,13.035-13.035
	h96.318C207.535,256,211.682,260.147,211.682,265.262z"/>
<path style="fill:#FFA638;" d="M285.245,290.333h-5.262h-66.998H93.067H48.072H20.808C9.316,290.333,0,299.648,0,311.141v166.495
	c0,11.492,9.316,20.808,20.808,20.808h264.437c11.492,0,20.808-9.316,20.808-20.808v-34.133v-70.191v-52.139V311.14
	C306.053,299.648,296.737,290.333,285.245,290.333z"/>
<path style="fill:#ED8300;" d="M285.245,290.333h-64.488l-31.589,52.214l-67.402,111.408l-26.916,44.49h190.395
	c11.492,0,20.808-9.316,20.808-20.808V311.141C306.053,299.648,296.737,290.333,285.245,290.333z"/>
<circle style="fill:#4D4D4D;" cx="259.13" cy="331.6" r="13.04"/>
<path style="fill:#D65D00;" d="M169.415,349.484c-36.002,0-65.173,29.184-65.173,65.173c0,36.001,29.171,65.173,65.173,65.173
	c35.989,0,65.173-29.172,65.173-65.173C234.588,378.668,205.403,349.484,169.415,349.484z"/>
<path style="fill:#EBEBEB;" d="M153.026,331.601c-36.002,0-65.173,29.185-65.173,65.173c0,36.002,29.171,65.173,65.173,65.173
	c35.989,0,65.173-29.171,65.173-65.173C218.199,360.785,189.015,331.601,153.026,331.601z"/>
<path style="fill:#4D4D4D;" d="M153.026,368.202c15.772,0,28.572,12.787,28.572,28.572s-12.8,28.572-28.572,28.572
	c-15.785,0-28.572-12.787-28.572-28.572C124.455,380.989,137.241,368.202,153.026,368.202z"/>
<path style="fill:#ED8300;" d="M85.917,356.001H45.472c-3.949,0-7.15-3.201-7.15-7.15v-18.286c0-3.949,3.201-7.15,7.15-7.15h40.445
	c3.949,0,7.15,3.201,7.15,7.15v18.286C93.067,352.799,89.866,356.001,85.917,356.001z"/>
<path style="fill:#EBEBEB;" d="M78.096,347.594H37.651c-3.949,0-7.15-3.201-7.15-7.15v-18.286c0-3.949,3.201-7.15,7.15-7.15h40.445
	c3.949,0,7.15,3.201,7.15,7.15v18.286C85.246,344.393,82.045,347.594,78.096,347.594z"/>
<path style="fill:#CCCCCC;" d="M166.138,290.333h45.655l-0.111-25.071c0-5.115-4.147-9.262-9.262-9.262h-17.193
	C180.734,268.525,174.245,280.096,166.138,290.333z"/>
<g>
</g>
<g>
</g>
<g>
</g>
<g>
</g>
<g>
</g>
<g>
</g>
<g>
</g>
<g>
</g>
<g>
</g>
<g>
</g>
<g>
</g>
<g>
</g>
<g>
</g>
<g>
</g>
<g>
</g>
</svg>
