<?xml version="1.0" encoding="iso-8859-1"?>
<!-- Generator: Adobe Illustrator 21.0.0, SVG Export Plug-In . SVG Version: 6.00 Build 0)  -->
<svg version="1.1" id="Capa_1" xmlns="http://www.w3.org/2000/svg" xmlns:xlink="http://www.w3.org/1999/xlink" x="0px" y="0px"
	 viewBox="0 0 512 512" style="enable-background:new 0 0 512 512;" xml:space="preserve">
<path style="fill:#CCCCCC;" d="M348.317,6.82h-116.39H35.622C15.942,6.82,0,22.763,0,42.443V53.86l28.004,202.948L0,458.141v11.417
	c0,19.68,15.942,35.622,35.622,35.622h1.983h310.711c19.68,0,35.622-15.943,35.622-35.622v-11.417L352.69,256.807L383.94,53.86
	V42.443C383.94,22.763,367.997,6.82,348.317,6.82z"/>
<path style="fill:#ADADAD;" d="M348.317,6.82H233.373L39.068,505.18h309.249c19.68,0,35.622-15.943,35.622-35.622v-11.417V53.86
	V42.443C383.94,22.763,367.997,6.82,348.317,6.82z"/>
<rect y="53.86" style="fill:#4D4D4D;" width="383.94" height="404.28"/>
<polygon style="fill:#3B3B3B;" points="57.408,458.14 383.94,458.14 383.94,53.86 215.033,53.86 "/>
<polygon style="fill:#2B2B2B;" points="383.94,304.489 307.94,228.488 247.705,213.206 262.986,273.443 383.94,394.396 "/>
<polygon style="fill:#EBEBEB;" points="288.743,158.247 228.508,142.966 243.789,203.201 447.862,407.275 447.862,407.262 
	482.667,398.333 492.803,362.321 "/>
<path style="fill:#4D4D4D;" d="M502.694,372.212c12.408,12.408,12.408,32.533,0,44.941c-6.204,6.217-14.34,9.319-22.477,9.319
	s-16.273-3.102-22.477-9.319l-9.878-9.878v-0.013l44.941-44.941L502.694,372.212z"/>
<g>
</g>
<g>
</g>
<g>
</g>
<g>
</g>
<g>
</g>
<g>
</g>
<g>
</g>
<g>
</g>
<g>
</g>
<g>
</g>
<g>
</g>
<g>
</g>
<g>
</g>
<g>
</g>
<g>
</g>
</svg>
