<?xml version="1.0" encoding="iso-8859-1"?>
<!-- Generator: Adobe Illustrator 21.0.0, SVG Export Plug-In . SVG Version: 6.00 Build 0)  -->
<svg version="1.1" id="Capa_1" xmlns="http://www.w3.org/2000/svg" xmlns:xlink="http://www.w3.org/1999/xlink" x="0px" y="0px"
	 viewBox="0 0 511.999 511.999" style="enable-background:new 0 0 511.999 511.999;" xml:space="preserve">
<path style="fill:#4D4D4D;" d="M448.406,422.862H432.87c-3.541-19.387-20.557-34.127-40.95-34.127h-73.791v-94.312h-15v94.312
	H154.462c-12.6,0-22.851-10.251-22.851-22.851V297c0-4.142-3.357-7.5-7.5-7.5c-4.143,0-7.5,3.358-7.5,7.5v68.884
	c0,20.871,16.979,37.851,37.851,37.851H391.92c12.079,0,22.305,8.085,25.552,19.127H92.426c-13.545,0-24.564,11.019-24.564,24.563
	s11.02,24.563,24.564,24.563H391.92c20.394,0,37.409-14.74,40.95-34.127h15.536c16.629,0,30.157,13.529,30.157,30.158
	c0,15.98-13.001,28.98-28.98,28.98H25.937c-4.143,0-7.5,3.358-7.5,7.5s3.357,7.5,7.5,7.5h423.646c24.251,0,43.98-19.73,43.98-43.981
	C493.563,443.119,473.306,422.862,448.406,422.862z M391.92,456.989H92.426c-5.273,0-9.564-4.29-9.564-9.563
	s4.291-9.563,9.564-9.563h325.046C414.225,448.904,403.999,456.989,391.92,456.989z"/>
<path style="fill:#808080;" d="M333.991,94.174v196.672c0,12.512-10.153,22.653-22.653,22.653s-22.653-10.142-22.653-22.653V94.18
	L333.991,94.174z"/>
<path style="fill:#616161;" d="M319.268,94.076v192.206c0,12.153-9.587,22.042-21.593,22.6c3.802,2.885,8.526,4.617,13.662,4.617
	c12.5,0,22.653-10.141,22.653-22.653V94.174L319.268,94.076z"/>
<path style="fill:#808080;" d="M145.049,147.585v143.261c0,12.512-10.142,22.653-22.653,22.653c-12.5,0-22.653-10.142-22.653-22.653
	V147.585H145.049z"/>
<path style="fill:#616161;" d="M131.229,147.585v138.531c0,12.509-10.138,22.65-22.647,22.653c3.827,2.955,8.61,4.731,13.814,4.731
	c12.512,0,22.653-10.141,22.653-22.653V147.585H131.229z"/>
<path style="fill:#EBEBEB;" d="M384.038,0c-3.874,0-7.703,0.228-11.463,0.683c-46.651,5.572-83.537,44.725-83.89,92.778v0.706v0.011
	c0,34.117,18.141,63.994,45.307,80.517c11.475,6.974,24.568,11.577,38.584,13.093c3.373,0.365,6.814,0.558,10.29,0.558h1.174
	c17.845,0,32.293-14.46,32.293-32.293V32.293C416.331,14.46,401.882,0,384.038,0z"/>
<path style="fill:#CCCCCC;" d="M410.656,14.011v121.533c0,17.833-14.449,32.293-32.293,32.293h-1.174
	c-3.476,0-6.917-0.194-10.29-0.558c-7.008-0.758-13.785-2.288-20.245-4.5c-1.615-0.553-3.21-1.149-4.784-1.786
	c-0.787-0.318-1.569-0.647-2.345-0.986c-3.881-1.694-7.625-3.642-11.211-5.822c-17.238-10.484-30.832-26.35-38.474-45.261
	c4.383,27.867,20.978,51.679,44.148,65.772c11.475,6.974,24.568,11.577,38.584,13.093c3.373,0.365,6.814,0.558,10.29,0.558h1.174
	c17.845,0,32.293-14.46,32.293-32.293V32.293C416.331,25.506,414.233,19.21,410.656,14.011z"/>
<path style="fill:#BABABA;" d="M333.991,174.697c-27.166-16.523-45.307-46.4-45.307-80.517v-0.011v-0.706
	c0.353-48.053,37.239-87.206,83.89-92.778v0.011V187.79C358.558,186.274,345.466,181.671,333.991,174.697z"/>
<path style="fill:#9E9E9E;" d="M366.9,167.279c-7.008-0.758-13.785-2.287-20.245-4.5c-1.615-0.553-3.21-1.149-4.784-1.786
	c-0.787-0.318-1.568-0.647-2.344-0.986c-3.881-1.694-7.625-3.642-11.211-5.822c-17.238-10.484-30.832-26.35-38.473-45.26
	c0,0.002,0,0.004,0.001,0.006c0.128,0.813,0.268,1.622,0.417,2.428c0.018,0.097,0.035,0.194,0.054,0.291
	c0.147,0.785,0.304,1.568,0.471,2.346c0.019,0.088,0.038,0.175,0.057,0.263c0.904,4.161,2.082,8.22,3.516,12.156
	c0.027,0.073,0.052,0.147,0.079,0.221c0.26,0.709,0.531,1.414,0.808,2.115c0.056,0.141,0.111,0.282,0.168,0.422
	c0.272,0.68,0.552,1.357,0.839,2.029c0.058,0.136,0.118,0.272,0.177,0.408c0.299,0.69,0.603,1.376,0.918,2.057
	c0.018,0.038,0.036,0.076,0.054,0.114c1.03,2.22,2.145,4.392,3.339,6.514c0.045,0.08,0.089,0.162,0.134,0.242
	c0.328,0.578,0.665,1.15,1.005,1.721c0.13,0.218,0.258,0.437,0.39,0.654c0.318,0.525,0.642,1.045,0.97,1.563
	c0.161,0.255,0.324,0.509,0.488,0.763c0.321,0.496,0.645,0.99,0.974,1.479c0.178,0.265,0.36,0.526,0.54,0.789
	c0.332,0.482,0.664,0.963,1.004,1.438c0.174,0.242,0.353,0.481,0.528,0.721c0.817,1.119,1.654,2.222,2.519,3.303
	c0.032,0.04,0.062,0.081,0.094,0.12c0.32,0.399,0.649,0.789,0.975,1.182c0.263,0.317,0.525,0.636,0.792,0.95
	c0.311,0.365,0.629,0.726,0.946,1.086c0.295,0.335,0.59,0.67,0.89,1.001c0.309,0.343,0.622,0.682,0.937,1.02
	c0.321,0.344,0.644,0.686,0.969,1.025c0.307,0.32,0.614,0.639,0.925,0.954c0.357,0.361,0.718,0.717,1.08,1.073
	c0.29,0.284,0.577,0.571,0.871,0.852c0.468,0.448,0.944,0.888,1.422,1.326c0.197,0.181,0.389,0.366,0.587,0.545
	c0.667,0.602,1.344,1.194,2.029,1.777c0.246,0.21,0.498,0.414,0.747,0.621c0.464,0.387,0.929,0.773,1.4,1.151
	c0.284,0.228,0.572,0.451,0.858,0.676c0.448,0.351,0.897,0.699,1.351,1.042c0.295,0.223,0.593,0.444,0.891,0.664
	c0.464,0.342,0.932,0.679,1.403,1.012c0.288,0.205,0.576,0.41,0.867,0.611c0.516,0.357,1.038,0.707,1.562,1.054
	c0.25,0.166,0.498,0.335,0.75,0.498c0.777,0.505,1.56,1,2.353,1.482c6.455,3.923,13.421,7.096,20.776,9.391
	c5.72,1.785,11.676,3.039,17.808,3.702v-20.072C370.665,167.625,368.771,167.481,366.9,167.279z"/>
<path style="fill:#EBEBEB;" d="M122.397,0c52.007,0,94.18,42.162,94.18,94.18c0,44.201-30.459,81.281-71.526,91.422
	c-7.259,1.8-14.848,2.746-22.653,2.746c-7.817,0-15.406-0.946-22.653-2.746C58.675,175.46,28.229,138.37,28.229,94.18
	C28.229,42.162,70.39,0,122.397,0z"/>
<path style="fill:#CCCCCC;" d="M166.964,11.202c21.789,17.249,35.786,43.912,35.786,73.862c0,44.201-30.459,81.281-71.526,91.422
	c-7.259,1.8-14.848,2.746-22.653,2.746c-7.817,0-15.406-0.946-22.653-2.746c-7.729-1.909-15.082-4.774-21.927-8.46
	c10.372,8.214,22.504,14.304,35.753,17.576c7.247,1.8,14.836,2.746,22.653,2.746c7.806,0,15.395-0.946,22.653-2.746
	c41.067-10.142,71.526-47.221,71.526-91.422C216.576,58.289,196.495,27.097,166.964,11.202z"/>
<g>
</g>
<g>
</g>
<g>
</g>
<g>
</g>
<g>
</g>
<g>
</g>
<g>
</g>
<g>
</g>
<g>
</g>
<g>
</g>
<g>
</g>
<g>
</g>
<g>
</g>
<g>
</g>
<g>
</g>
</svg>
