<?xml version="1.0" encoding="iso-8859-1"?>
<!-- Generator: Adobe Illustrator 21.0.0, SVG Export Plug-In . SVG Version: 6.00 Build 0)  -->
<svg version="1.1" id="Capa_1" xmlns="http://www.w3.org/2000/svg" xmlns:xlink="http://www.w3.org/1999/xlink" x="0px" y="0px"
	 viewBox="0 0 512.001 512.001" style="enable-background:new 0 0 512.001 512.001;" xml:space="preserve">
<g>
	<path style="fill:#E4EDF2;" d="M120.118,251.609l-99.889,17.529c-15.891,27.016-13.455,61.037,6.125,85.512l0,0
		c12.81,16.012,32.203,25.333,52.709,25.333h82.109c20.505,0,39.899-9.321,52.709-25.333l0,0
		c19.58-24.475,22.017-58.497,6.125-85.512L120.118,251.609z"/>
	<path style="fill:#E4EDF2;" d="M391.876,251.609l-99.889,17.529c-15.891,27.016-13.454,61.037,6.125,85.512l0,0
		c12.81,16.012,32.203,25.333,52.709,25.333h82.109c20.505,0,39.899-9.321,52.709-25.333l0,0
		c19.58-24.475,22.017-58.497,6.125-85.512L391.876,251.609z"/>
</g>
<g>
	<path style="fill:#CADEEA;" d="M368.094,379.983h64.837c20.505,0,39.899-9.321,52.709-25.333
		c19.58-24.475,22.017-58.497,6.125-85.512l-62.924-11.042L368.094,379.983z"/>
	<path style="fill:#CADEEA;" d="M96.433,379.983h64.837c20.505,0,39.899-9.321,52.709-25.333
		c19.58-24.475,22.017-58.497,6.125-85.512l-62.924-11.042L96.433,379.983z"/>
</g>
<g>
	<polygon style="fill:#4D4D4D;" points="68.79,132.018 0,224.126 39.87,238.363 74.381,140.15 	"/>
	<polygon style="fill:#4D4D4D;" points="443.211,132.018 512.001,224.126 472.131,238.363 437.62,140.15 	"/>
	<path style="fill:#4D4D4D;" d="M220.105,269.002c15.893,27.013,13.449,61.035-6.128,85.511l-4.542,5.677
		c-2.804,3.504-8.345,0.332-6.743-3.86l0,0c9.852-25.783,5.552-54.836-11.344-76.661l-14.491-18.718L220.105,269.002z"/>
</g>
<path style="fill:#66645D;" d="M291.895,269.002c-15.893,27.013-13.449,61.035,6.128,85.511l4.542,5.677
	c2.804,3.504,8.345,0.332,6.743-3.86l0,0c-9.852-25.783-5.552-54.836,11.344-76.661l14.491-18.718L291.895,269.002z"/>
<path style="fill:#4D4D4D;" d="M291.895,269.002c-15.893,27.013-13.449,61.035,6.128,85.511l4.542,5.677
	c2.804,3.504,8.345,0.332,6.743-3.86l0,0c-9.852-25.783-5.552-54.836,11.344-76.661l14.491-18.718L291.895,269.002z"/>
<path style="fill:#A6E2E3;" d="M51.167,264.25v60.376h88.601c10.857,0,19.659-8.802,19.659-19.659V264.25H51.167z"/>
<path style="fill:#FFA638;" d="M55.417,324.627L55.417,324.627c0,7.172-5.814,12.985-12.985,12.985H12.985
	C5.814,337.612,0,331.798,0,324.627V264.25h55.417V324.627z"/>
<rect y="269" style="fill:#ED8300;" width="55.42" height="18.204"/>
<polygon style="fill:#7CCBCC;" points="55.417,269.002 55.417,324.627 60.5,324.627 60.5,287.205 159.427,287.205 159.427,269.002 
	125.104,269.002 "/>
<polygon style="fill:#CCCCCC;" points="512.001,224.126 512.001,269.002 291.991,269.002 220.01,269.002 159.427,269.002 
	125.104,269.002 55.417,269.002 0,269.002 0,224.126 "/>
<g>
</g>
<g>
</g>
<g>
</g>
<g>
</g>
<g>
</g>
<g>
</g>
<g>
</g>
<g>
</g>
<g>
</g>
<g>
</g>
<g>
</g>
<g>
</g>
<g>
</g>
<g>
</g>
<g>
</g>
</svg>
