<?xml version="1.0"?>
<svg xmlns="http://www.w3.org/2000/svg" viewBox="0 0 64 64" width="512" height="512"><g id="Filled_outline" data-name="Filled outline"><rect x="7" y="5" width="50" height="4" style="fill:#aabece"/><rect x="7" y="55" width="50" height="4" style="fill:#aabece"/><rect x="7" y="44" width="50" height="4" style="fill:#aabece"/><rect x="7" y="30" width="50" height="4" style="fill:#aabece"/><rect x="7" y="16" width="50" height="4" style="fill:#aabece"/><circle cx="16" cy="18" r="5" style="fill:#e4544f"/><circle cx="26" cy="18" r="5" style="fill:#f3bb59"/><circle cx="36" cy="18" r="5" style="fill:#e4544f"/><circle cx="36" cy="32" r="5" style="fill:#f3bb59"/><circle cx="46" cy="32" r="5" style="fill:#e4544f"/><circle cx="16" cy="32" r="5" style="fill:#f3bb59"/><circle cx="26" cy="32" r="5" style="fill:#e4544f"/><circle cx="38" cy="46" r="5" style="fill:#e4544f"/><circle cx="48" cy="46" r="5" style="fill:#f3bb59"/><circle cx="18" cy="46" r="5" style="fill:#e4544f"/><circle cx="28" cy="46" r="5" style="fill:#f3bb59"/><rect x="3" y="3" width="4" height="58" style="fill:#d9833b"/><rect x="57" y="3" width="4" height="58" style="fill:#d9833b"/><path d="M56,4H8V2H2V62H8V60H56v2h6V2H56ZM6,60H4V4H6ZM8,17h2.09a5.6,5.6,0,0,0,0,2H8ZM8,31h2.09a5.6,5.6,0,0,0,0,2H8ZM8,45h4.09a5.6,5.6,0,0,0,0,2H8ZM56,58H8V56H56Zm0-4H8V49h4.812A5.989,5.989,0,0,0,23,49.31a5.992,5.992,0,0,0,10,0,5.992,5.992,0,0,0,10,0A5.989,5.989,0,0,0,53.188,49H56ZM14,46a4,4,0,1,1,4,4A4,4,0,0,1,14,46Zm10,0a4,4,0,1,1,4,4A4,4,0,0,1,24,46Zm10,0a4,4,0,1,1,4,4A4,4,0,0,1,34,46Zm10,0a4,4,0,1,1,4,4A4,4,0,0,1,44,46Zm12,1H53.91a5.6,5.6,0,0,0,0-2H56Zm0-4H53.188A5.989,5.989,0,0,0,43,42.69a5.992,5.992,0,0,0-10,0,5.992,5.992,0,0,0-10,0A5.989,5.989,0,0,0,12.812,43H8V35h2.812A5.989,5.989,0,0,0,21,35.31a5.992,5.992,0,0,0,10,0,5.992,5.992,0,0,0,10,0A5.989,5.989,0,0,0,51.188,35H56ZM12,32a4,4,0,1,1,4,4A4,4,0,0,1,12,32Zm10,0a4,4,0,1,1,4,4A4,4,0,0,1,22,32Zm10,0a4,4,0,1,1,4,4A4,4,0,0,1,32,32Zm10,0a4,4,0,1,1,4,4A4,4,0,0,1,42,32Zm14,1H51.91a5.6,5.6,0,0,0,0-2H56Zm0-4H51.188A5.989,5.989,0,0,0,41,28.69a5.992,5.992,0,0,0-10,0,5.992,5.992,0,0,0-10,0A5.989,5.989,0,0,0,10.812,29H8V21h2.812A5.989,5.989,0,0,0,21,21.31a5.992,5.992,0,0,0,10,0A5.989,5.989,0,0,0,41.188,21H56ZM12,18a4,4,0,1,1,4,4A4,4,0,0,1,12,18Zm10,0a4,4,0,1,1,4,4A4,4,0,0,1,22,18Zm10,0a4,4,0,1,1,4,4A4,4,0,0,1,32,18Zm24,1H41.91a5.6,5.6,0,0,0,0-2H56Zm0-4H41.188A5.989,5.989,0,0,0,31,14.69a5.992,5.992,0,0,0-10,0A5.989,5.989,0,0,0,10.812,15H8V10H56Zm0-7H8V6H56Zm2-4h2V60H58Z"/></g></svg>
