<?xml version="1.0"?>
<svg xmlns="http://www.w3.org/2000/svg" viewBox="0 0 64 64" width="512" height="512"><g id="Filled_outline" data-name="Filled outline"><path d="M55,32c0,7-4.449,29-17,29-3,0-4.985-3-6-3s-3,3-6,3C13.449,61,9,39,9,32c0-13.807,9-17,23-14C46,15,55,18.193,55,32Z" style="fill:#e4544f"/><path d="M16,3h4A10,10,0,0,1,30,13v0a0,0,0,0,1,0,0H26A10,10,0,0,1,16,3V3A0,0,0,0,1,16,3Z" style="fill:#55b56a"/><path d="M40,3H38a8,8,0,0,0-8,8V21h4V11a4,4,0,0,1,4-4h2a2,2,0,0,0,2-2h0A2,2,0,0,0,40,3Z" style="fill:#3e8051"/><path d="M50.966,38.258l-1.932-.516c1.393-5.222,1.2-9.338-.582-12.229A7.829,7.829,0,0,0,43.8,21.979l.4-1.959a9.841,9.841,0,0,1,5.932,4.4C52.23,27.8,52.513,32.457,50.966,38.258Z" style="fill:#fff"/><rect x="47.382" y="40" width="2.236" height="2" transform="translate(-9.861 66.044) rotate(-63.435)" style="fill:#fff"/><path d="M21,21s-8,0-8,11a37.24,37.24,0,0,0,4,17S13,31,21,21Z" style="fill:#f98c96"/><path d="M12.773,19.167C9.606,21.821,8,26.14,8,32c0,6.616,4.311,30,18,30,2.247,0,3.968-1.384,5.106-2.3A9.274,9.274,0,0,1,32,59.032a9.274,9.274,0,0,1,.894.668C34.032,60.616,35.753,62,38,62c13.689,0,18-23.384,18-30,0-5.86-1.606-10.179-4.773-12.833C47.686,16.2,42.352,15.325,35,16.453V11a3,3,0,0,1,3-3h2a3,3,0,0,0,0-6H38a9.009,9.009,0,0,0-8.366,5.7A11,11,0,0,0,20,2H15V3A11.013,11.013,0,0,0,26,14h3v2.453C21.647,15.325,16.314,16.2,12.773,19.167ZM26,12a9.012,9.012,0,0,1-8.944-8H20a9.012,9.012,0,0,1,8.944,8Zm5-1a7.009,7.009,0,0,1,7-7h2a1,1,0,0,1,0,2H38a5.006,5.006,0,0,0-5,5v9H31ZM30,22h4a1,1,0,0,0,1-1V18.473c6.822-1.087,11.863-.353,14.941,2.226C52.635,22.956,54,26.759,54,32c0,5.929-4,28-16,28-1.543,0-2.823-1.03-3.853-1.858A3.758,3.758,0,0,0,32,57a3.758,3.758,0,0,0-2.147,1.142C28.823,58.97,27.543,60,26,60,14,60,10,37.929,10,32c0-5.241,1.365-9.044,4.059-11.3C17.136,18.12,22.173,17.386,29,18.473V21A1,1,0,0,0,30,22Z"/><path d="M48.452,25.513c1.778,2.891,1.975,7.007.582,12.229l1.932.516c1.547-5.8,1.264-10.456-.838-13.838a9.841,9.841,0,0,0-5.932-4.4l-.4,1.959A7.829,7.829,0,0,1,48.452,25.513Z"/><rect x="47.382" y="40" width="2.236" height="2" transform="translate(-9.861 66.044) rotate(-63.435)"/><path d="M21,20c-.09,0-9,.138-9,12a37.933,37.933,0,0,0,4.132,17.5A1,1,0,0,0,17,50a.989.989,0,0,0,.36-.067,1,1,0,0,0,.617-1.15c-.04-.175-3.8-17.654,3.8-27.158A1,1,0,0,0,21,20ZM15.015,40.615A37.631,37.631,0,0,1,14,32c0-6.184,2.668-8.544,4.713-9.444C15.4,28.126,14.816,35.164,15.015,40.615Z"/></g></svg>
