<?xml version="1.0"?>
<svg xmlns="http://www.w3.org/2000/svg" viewBox="0 0 64 64" width="512" height="512"><g id="Filled_outline" data-name="Filled outline"><ellipse cx="32" cy="32" rx="13" ry="29" style="fill:#69b1d5"/><path d="M32,62c-7.851,0-14-13.178-14-30S24.149,2,32,2,46,15.178,46,32,39.851,62,32,62ZM32,4C25.5,4,20,16.822,20,32s5.5,28,12,28S44,47.178,44,32,38.505,4,32,4Z" style="fill:#f4f4e6"/><path d="M39,21c15.114,9.709,24.88,22.959,21,29s-19.886,2.709-35-7S.12,20.041,4,14,23.886,11.291,39,21Z" style="fill:#69b1d5"/><path d="M52.313,54.028a29.538,29.538,0,0,1-5.8-.641c-6.777-1.373-14.61-4.763-22.055-9.545C8.527,33.607-1.028,19.978,3.159,13.46c2.106-3.281,7.195-4.29,14.327-2.847,6.777,1.373,14.61,4.763,22.055,9.545,15.932,10.235,25.487,23.864,21.3,30.382C59.361,52.845,56.41,54.028,52.313,54.028ZM11.682,11.971c-3.354,0-5.752.876-6.841,2.569-3.469,5.4,6.2,18.307,20.7,27.618,7.24,4.653,14.83,7.944,21.37,9.268,6.176,1.252,10.641.534,12.248-1.966,3.469-5.4-6.2-18.307-20.7-27.618-7.24-4.653-14.83-7.944-21.37-9.268A27.548,27.548,0,0,0,11.682,11.971Z" style="fill:#f4f4e6"/><path d="M25,21C9.886,30.709.12,43.959,4,50s19.886,2.709,35-7S63.88,20.041,60,14,40.114,11.291,25,21Z" style="fill:#69b1d5"/><path d="M11.687,54.028c-4.1,0-7.048-1.183-8.528-3.488-4.187-6.518,5.368-20.147,21.3-30.382,7.445-4.782,15.278-8.172,22.055-9.545,7.133-1.444,12.221-.434,14.327,2.847,4.187,6.518-5.368,20.147-21.3,30.382-7.445,4.782-15.278,8.172-22.055,9.545A29.538,29.538,0,0,1,11.687,54.028ZM52.318,11.971a27.556,27.556,0,0,0-5.407.6c-6.54,1.324-14.13,4.615-21.37,9.268-14.5,9.311-24.169,22.217-20.7,27.618,1.606,2.5,6.071,3.22,12.248,1.966,6.54-1.324,14.13-4.615,21.37-9.268,14.5-9.311,24.169-22.217,20.7-27.618C58.071,12.847,55.672,11.971,52.318,11.971Z" style="fill:#f4f4e6"/><circle cx="32" cy="32" r="5" style="fill:#f4f4e6"/><circle cx="38" cy="58" r="3" style="fill:#e4544f"/><circle cx="10" cy="11" r="3" style="fill:#e4544f"/><circle cx="58" cy="25" r="3" style="fill:#e4544f"/><path d="M32,26a6,6,0,1,0,6,6A6.006,6.006,0,0,0,32,26Zm0,10a4,4,0,1,1,4-4A4,4,0,0,1,32,36Z"/><path d="M60.841,13.459C58.3,9.512,51.583,8.884,42.349,11.68,39.744,5.517,36,2,32,2s-7.747,3.52-10.353,9.688a39.463,39.463,0,0,0-7.76-1.594A3.995,3.995,0,0,0,6,11c0,.02.006.039.006.059a6.691,6.691,0,0,0-2.847,2.4C.527,17.548,3.142,24.442,10.13,32,3.141,39.559.527,46.453,3.159,50.541c1.5,2.328,4.447,3.505,8.51,3.505a35.318,35.318,0,0,0,9.982-1.724C24.257,58.484,28,62,32,62a7.409,7.409,0,0,0,3.482-.918A3.959,3.959,0,0,0,38,62a3.989,3.989,0,0,0,2.9-6.742,27.4,27.4,0,0,0,1.449-2.937,35.306,35.306,0,0,0,9.984,1.725c4.062,0,7.012-1.177,8.51-3.505,2.632-4.088.018-10.982-6.969-18.539,1-1.081,1.924-2.171,2.768-3.256A3.961,3.961,0,0,0,58,29a3.987,3.987,0,0,0,2.7-6.937C62.163,18.581,62.229,15.614,60.841,13.459ZM43.3,22.739c-1.239-.9-2.492-1.768-3.761-2.58-1.734-1.116-3.535-2.149-5.355-3.131a65.1,65.1,0,0,1,7-2.865A46.128,46.128,0,0,1,43.3,22.739Zm.349,2.738A61.237,61.237,0,0,1,44,32a61.28,61.28,0,0,1-.348,6.523c-1.687,1.282-3.428,2.508-5.194,3.636C36.375,43.5,34.2,44.744,32,45.883c-2.2-1.138-4.376-2.382-6.462-3.726-1.763-1.126-3.5-2.353-5.191-3.634a61.308,61.308,0,0,1,0-13.046c1.687-1.282,3.428-2.508,5.194-3.636C27.625,20.5,29.8,19.256,32,18.117c2.2,1.138,4.376,2.382,6.462,3.726C40.224,22.969,41.965,24.2,43.652,25.477ZM32,4c3.133,0,6.178,3.012,8.443,8.3A68.647,68.647,0,0,0,32,15.869,68.33,68.33,0,0,0,23.557,12.3C25.822,7.013,28.867,4,32,4ZM22.817,14.162a65.313,65.313,0,0,1,7,2.866c-1.82.982-3.619,2.015-5.351,3.129-1.271.813-2.525,1.686-3.764,2.582A46.082,46.082,0,0,1,22.817,14.162ZM10,9a2,2,0,1,1-2,2A2,2,0,0,1,10,9ZM4.841,14.54A4.607,4.607,0,0,1,6.558,13a3.971,3.971,0,0,0,7.27-.907,37.513,37.513,0,0,1,7.083,1.46,50.118,50.118,0,0,0-2.462,10.857,70.642,70.642,0,0,0-6.933,6.142C5.427,23.929,2.805,17.7,4.841,14.54ZM18.2,36.827A66.631,66.631,0,0,1,12.9,32a66.474,66.474,0,0,1,5.3-4.827C18.081,28.748,18,30.351,18,32S18.081,35.253,18.2,36.827ZM4.841,49.459c-2.036-3.163.586-9.387,6.675-16.014a70.633,70.633,0,0,0,6.933,6.143,50.186,50.186,0,0,0,2.465,10.866C12.9,52.843,6.79,52.488,4.841,49.459Zm15.856-8.2c1.239.9,2.492,1.768,3.761,2.58,1.734,1.116,3.535,2.149,5.354,3.131a65,65,0,0,1-6.994,2.865A46.128,46.128,0,0,1,20.7,41.261ZM38,60a2,2,0,1,1,2-2A2,2,0,0,1,38,60Zm1.213-5.792A3.963,3.963,0,0,0,38,54a4,4,0,0,0-4,4,3.963,3.963,0,0,0,.285,1.46A5.324,5.324,0,0,1,32,60c-3.133,0-6.178-3.012-8.443-8.3A68.78,68.78,0,0,0,32,48.132,68.727,68.727,0,0,0,40.444,51.7,25.485,25.485,0,0,1,39.213,54.208Zm1.97-4.37a65.313,65.313,0,0,1-6.995-2.866c1.82-.982,3.619-2.015,5.351-3.129,1.271-.813,2.525-1.686,3.764-2.583A46.073,46.073,0,0,1,41.183,49.838Zm17.976-.379c-1.949,3.027-8.065,3.385-16.073.995a50.2,50.2,0,0,0,2.465-10.867,70.9,70.9,0,0,0,6.934-6.141C58.573,40.071,61.2,46.3,59.159,49.459ZM45.8,27.173A66.823,66.823,0,0,1,51.1,32a66.474,66.474,0,0,1-5.3,4.827c.117-1.575.2-3.178.2-4.827S45.919,28.747,45.8,27.173Zm9.19.435c-.767.981-1.6,1.967-2.506,2.948a71.048,71.048,0,0,0-6.935-6.144,50.173,50.173,0,0,0-2.465-10.866c8.01-2.39,14.124-2.034,16.073,1,1.215,1.885.636,4.485-.223,6.58A3.961,3.961,0,0,0,58,21a4,4,0,0,0-4,4A3.962,3.962,0,0,0,54.992,27.608ZM58,27a2,2,0,1,1,2-2A2,2,0,0,1,58,27Z"/></g></svg>
