<?xml version="1.0"?>
<svg xmlns="http://www.w3.org/2000/svg" viewBox="0 0 64 64" width="512" height="512"><g id="Filled_outline" data-name="Filled outline"><path d="M16,21H48a0,0,0,0,1,0,0V59a2,2,0,0,1-2,2H18a2,2,0,0,1-2-2V21A0,0,0,0,1,16,21Z" style="fill:#ebb562"/><path d="M16,7H48a2,2,0,0,1,2,2V21a0,0,0,0,1,0,0H14a0,0,0,0,1,0,0V9A2,2,0,0,1,16,7Z" style="fill:#e4544f"/><path d="M16,43H48a0,0,0,0,1,0,0V59a2,2,0,0,1-2,2H18a2,2,0,0,1-2-2V43A0,0,0,0,1,16,43Z" style="fill:#e4544f"/><rect x="20" y="3" width="24" height="4" style="fill:#ffd782"/><path d="M10,33h6a0,0,0,0,1,0,0V55a0,0,0,0,1,0,0H8a2,2,0,0,1-2-2V37A4,4,0,0,1,10,33Z" style="fill:#cb2e5c"/><path d="M48,33h6a4,4,0,0,1,4,4V53a2,2,0,0,1-2,2H48a0,0,0,0,1,0,0V33A0,0,0,0,1,48,33Z" style="fill:#cb2e5c"/><rect x="20" y="17" width="4" height="14" style="fill:#cb2e5c"/><rect x="40" y="17" width="4" height="14" style="fill:#cb2e5c"/><path d="M10,33h6a0,0,0,0,1,0,0V47a0,0,0,0,1,0,0H6a0,0,0,0,1,0,0V37A4,4,0,0,1,10,33Z" style="fill:#ffd782"/><path d="M48,33H58a0,0,0,0,1,0,0V47a0,0,0,0,1,0,0H52a4,4,0,0,1-4-4V33A0,0,0,0,1,48,33Z" transform="translate(106 80) rotate(-180)" style="fill:#ffd782"/><rect x="21" y="47" width="22" height="4" style="fill:#ffd782"/><rect x="27" y="16" width="2" height="2" style="fill:#fff"/><rect x="31" y="16" width="2" height="2" style="fill:#fff"/><rect x="35" y="16" width="2" height="2" style="fill:#fff"/><rect x="36" y="56" width="12" height="2" style="fill:#fff"/><rect x="32" y="56" width="2" height="2" style="fill:#fff"/><rect x="6" y="39" width="4" height="4" style="fill:#d9833b"/><rect x="54" y="39" width="4" height="4" style="fill:#d9833b"/><path d="M20,31h4a0,0,0,0,1,0,0v2a2,2,0,0,1-2,2h0a2,2,0,0,1-2-2V31a0,0,0,0,1,0,0Z" style="fill:#e4544f"/><path d="M40,31h4a0,0,0,0,1,0,0v2a2,2,0,0,1-2,2h0a2,2,0,0,1-2-2V31A0,0,0,0,1,40,31Z" style="fill:#e4544f"/><path d="M8,56h7v3a3,3,0,0,0,3,3H46a3,3,0,0,0,3-3V56h7a3,3,0,0,0,3-3V37a5.006,5.006,0,0,0-5-5H49V22h2V9a3,3,0,0,0-3-3H45V3a1,1,0,0,0-1-1H20a1,1,0,0,0-1,1V6H16a3,3,0,0,0-3,3V22h2V32H10a5.006,5.006,0,0,0-5,5V53A3,3,0,0,0,8,56Zm39,0H36v2H47v1a1,1,0,0,1-1,1H18a1,1,0,0,1-1-1V44H47Zm0-14H17V22h2V33a3,3,0,0,0,6,0V22H39V33a3,3,0,0,0,6,0V22h2ZM23,32v1a1,1,0,0,1-2,0V32Zm-2-2V18h2V30Zm22,2v1a1,1,0,0,1-2,0V32Zm-2-2V18h2V30ZM57,53a1,1,0,0,1-1,1H49V48h8Zm0-11H55V40h2Zm-3-8a3,3,0,0,1,3,3v1H54a1,1,0,0,0-1,1v4a1,1,0,0,0,1,1h3v2H49V34ZM21,4H43V6H21ZM15,9a1,1,0,0,1,1-1H48a1,1,0,0,1,1,1V20H45V16H39v4H25V16H19v4H15ZM7,40H9v2H7Zm0,4h3a1,1,0,0,0,1-1V39a1,1,0,0,0-1-1H7V37a3,3,0,0,1,3-3h5V46H7Zm0,4h8v6H8a1,1,0,0,1-1-1Z"/><path d="M44,46H20v6H44Zm-2,4H22V48H42Z"/><rect x="27" y="16" width="2" height="2"/><rect x="31" y="16" width="2" height="2"/><rect x="35" y="16" width="2" height="2"/><rect x="32" y="56" width="2" height="2"/></g></svg>
