<?xml version="1.0"?>
<svg xmlns="http://www.w3.org/2000/svg" viewBox="0 0 64 64" width="512" height="512"><g id="Filled_outline" data-name="Filled outline"><rect x="8" y="3" width="48" height="58" style="fill:#f3bb59"/><path d="M32,41h0A18,18,0,0,1,50,59v2a0,0,0,0,1,0,0H14a0,0,0,0,1,0,0V59A18,18,0,0,1,32,41Z" style="fill:#f1d77e"/><rect x="22" y="47" width="20" height="14" style="fill:#f3bb59"/><rect x="8" y="3" width="48" height="29" style="fill:#f1d77e"/><path d="M14,3H50a0,0,0,0,1,0,0V5A18,18,0,0,1,32,23h0A18,18,0,0,1,14,5V3A0,0,0,0,1,14,3Z" style="fill:#f3bb59"/><rect x="22" y="3" width="20" height="14" style="fill:#f1d77e"/><circle cx="32" cy="32" r="5" style="fill:#fff"/><circle cx="32" cy="17" r="6" style="fill:#f4f4e6"/><rect x="26" y="3" width="12" height="14" style="fill:#f3bb59"/><circle cx="32" cy="47" r="6" style="fill:#f4f4e6"/><rect x="26" y="47" width="12" height="14" style="fill:#f1d77e"/><path d="M7,62H57V2H7Zm14-2H15V59a16.956,16.956,0,0,1,6-12.938Zm4,0H23V48h2Zm.08-14H21.068a16.985,16.985,0,0,1,5.178-2.976A6.95,6.95,0,0,0,25.08,46ZM37,60H27V51.889a6.977,6.977,0,0,0,10,0Zm-.1-12a5,5,0,0,1-9.8,0Zm-9.8-2a5,5,0,0,1,9.8,0ZM41,60H39V48h2ZM39,46h-.08a6.95,6.95,0,0,0-1.166-2.976A16.985,16.985,0,0,1,42.932,46ZM49,60H43V46.062A16.956,16.956,0,0,1,49,59ZM43,4h6V5a16.956,16.956,0,0,1-6,12.938ZM39,4h2V16H39Zm-.08,14h4.012a16.985,16.985,0,0,1-5.178,2.976A6.95,6.95,0,0,0,38.92,18ZM27,4H37v8.111a6.977,6.977,0,0,0-10,0Zm.1,12a5,5,0,0,1,9.8,0Zm9.8,2a5,5,0,0,1-9.8,0ZM23,4h2V16H23Zm2,14h.08a6.95,6.95,0,0,0,1.166,2.976A16.985,16.985,0,0,1,21.068,18ZM15,4h6V17.938A16.956,16.956,0,0,1,15,5ZM9,4h4V5A19.008,19.008,0,0,0,31.285,23.964a7.118,7.118,0,0,0,1.43,0A19.008,19.008,0,0,0,51,5V4h4V31H37.91a5.993,5.993,0,0,0-11.82,0H9ZM28.142,31a3.981,3.981,0,0,1,7.716,0Zm7.716,2a3.981,3.981,0,0,1-7.716,0ZM9,33H26.09a5.993,5.993,0,0,0,11.82,0H55V60H51V59A19.008,19.008,0,0,0,32.715,40.036a7.118,7.118,0,0,0-1.43,0A19.008,19.008,0,0,0,13,59v1H9Z"/></g></svg>
