<?xml version="1.0"?>
<svg xmlns="http://www.w3.org/2000/svg" viewBox="0 0 64 64" width="512" height="512"><g id="Filled_outline" data-name="Filled outline"><rect x="6" y="49" width="48" height="12" style="fill:#e4544f"/><rect x="15" y="33" width="46" height="16" style="fill:#69b1d5"/><rect x="3" y="19" width="42" height="14" style="fill:#ebb562"/><path d="M21,3H61a0,0,0,0,1,0,0V19a0,0,0,0,1,0,0H21a6,6,0,0,1-6-6V9A6,6,0,0,1,21,3Z" style="fill:#67ac7f"/><path d="M21,7H61a0,0,0,0,1,0,0v8a0,0,0,0,1,0,0H21a2,2,0,0,1-2-2V9A2,2,0,0,1,21,7Z" style="fill:#e8e8e8"/><rect x="22" y="10" width="4" height="2" style="fill:#bfbfbf"/><rect x="28" y="10" width="2" height="2" style="fill:#bfbfbf"/><polygon points="57 26 53 23 49 26 49 11 57 11 57 26" style="fill:#e4544f"/><rect x="8" y="19" width="4" height="14" style="fill:#d9833b"/><rect x="39" y="19" width="6" height="14" style="fill:#d9833b"/><rect x="15" y="23" width="2" height="6" style="fill:#d9833b"/><rect x="19" y="25" width="2" height="2" style="fill:#d9833b"/><circle cx="23" cy="41" r="4" style="fill:#3b73a5"/><rect x="53" y="33" width="4" height="16" style="fill:#e8e8e8"/><rect x="49" y="33" width="4" height="16" style="fill:#3b73a5"/><rect x="10" y="49" width="8" height="12" style="fill:#cb2e5c"/><rect x="22" y="49" width="8" height="12" style="fill:#cb2e5c"/><rect x="25" y="56" width="2" height="5" style="fill:#ebb562"/><rect x="25" y="52" width="2" height="2" style="fill:#ebb562"/><rect x="38" y="10" width="23" height="2" style="fill:#bfbfbf"/><path d="M14,9v4a6.977,6.977,0,0,0,2.11,5H2V34H14V48H5V62H55V50h7V32H46V20h2v8l5-3.75L58,28V20h4V2H21A7.008,7.008,0,0,0,14,9ZM7,32H4V20H7Zm4,0H9V20h2ZM9,60H7V50H9ZM58,34h2V48H58ZM13,32V20H38V32Zm4,28H11V50h6Zm4,0H19V50h2Zm8,0H27V56H25v4H23V50h6ZM54,34h2V48H54Zm-4,0h2V48H50Zm3,16V60H31V50ZM48,34V48H16V34Zm-8-2V20h4V32Zm16-8-3-2.25L50,24V12h6Zm4-6H58V16h2Zm0-4H58V12h2Zm0-4H38v2H48v2H21a1,1,0,0,1-1-1V9a1,1,0,0,1,1-1H60Zm0-4H21a3,3,0,0,0-3,3v4a3,3,0,0,0,3,3H48v2H21a5.006,5.006,0,0,1-5-5V9a5.006,5.006,0,0,1,5-5H60Z"/><rect x="22" y="10" width="4" height="2"/><rect x="28" y="10" width="2" height="2"/><rect x="15" y="23" width="2" height="6"/><rect x="19" y="25" width="2" height="2"/><path d="M23,36a5,5,0,1,0,5,5A5.006,5.006,0,0,0,23,36Zm0,8a3,3,0,1,1,3-3A3,3,0,0,1,23,44Z"/><rect x="25" y="52" width="2" height="2"/></g></svg>
