<?xml version="1.0"?>
<svg xmlns="http://www.w3.org/2000/svg" viewBox="0 0 64 64" width="512" height="512"><g id="Filled_outline" data-name="Filled outline"><rect x="33" y="17" width="24" height="42" style="fill:#69b1d5"/><rect x="57" y="17" width="4" height="42" style="fill:#3b73a5"/><polygon points="57 17 33 17 35 11 59 11 57 17" style="fill:#cdeef6"/><polygon points="57 17 59 11 61 17 57 17" style="fill:#50b4f8"/><rect x="35" y="5" width="24" height="6" style="fill:#69b1d5"/><polygon points="57 44 33 50 33 42 57 36 57 44" style="fill:#cdeef6"/><circle cx="45" cy="27" r="5" style="fill:#fff"/><rect x="52" y="54" width="2" height="5" style="fill:#fff"/><rect x="52" y="50" width="2" height="2" style="fill:#fff"/><path d="M31,25H5a2,2,0,0,0-2,2v4a2,2,0,0,0,2,2H7V55H29V33h2a2,2,0,0,0,2-2V27A2,2,0,0,0,31,25Z" style="fill:#ebb562"/><rect x="13" y="29" width="2" height="2" style="fill:#fff"/><rect x="18" y="28" width="2" height="2" style="fill:#fff"/><rect x="22" y="31" width="2" height="2" style="fill:#fff"/><rect x="16" y="34" width="2" height="2" style="fill:#fff"/><polygon points="17.948 21.316 16.052 20.684 16.946 18 15.946 15 17.052 11.684 18.948 12.316 18.054 15 19.054 18 17.948 21.316" style="fill:#f3bb59"/><polygon points="12.895 20.447 11.105 19.553 11.882 18 10.882 16 12.105 13.553 13.895 14.447 13.118 16 14.118 18 12.895 20.447" style="fill:#f3bb59"/><polygon points="22.895 20.447 21.105 19.553 21.882 18 20.882 16 22.105 13.553 23.895 14.447 23.118 16 24.118 18 22.895 20.447" style="fill:#f3bb59"/><rect x="3" y="55" width="30" height="4" style="fill:#ad6327"/><path d="M61.948,16.684,60,10.839V5a1,1,0,0,0-1-1H35a1,1,0,0,0-1,1v5.839l-1.948,5.845A1.776,1.776,0,0,0,32,17v7.184A2.966,2.966,0,0,0,31,24H5a3,3,0,0,0-3,3v4a3,3,0,0,0,3,3H6V54H2v6H61a1,1,0,0,0,1-1V17A1.776,1.776,0,0,0,61.948,16.684ZM56,43.219l-22,5.5V42.781l22-5.5ZM32,54H30V34h1a2.966,2.966,0,0,0,1-.184Zm2-13.281V18H56V35.219ZM35.72,12H57.613L56.28,16H34.387ZM59,14.161,59.613,16H58.387ZM36,6H58v4H36ZM5,32a1,1,0,0,1-1-1V27a1,1,0,0,1,1-1H31a1,1,0,0,1,1,1v4a1,1,0,0,1-1,1H28V54H8V32ZM4,56H32v2H4Zm30-2V50.781l22-5.5V58H54V54H52v4H34Zm26,4H58V18h2Z"/><path d="M45,21a6,6,0,1,0,6,6A6.006,6.006,0,0,0,45,21Zm0,10a4,4,0,1,1,4-4A4,4,0,0,1,45,31Z"/><rect x="52" y="50" width="2" height="2"/><rect x="13" y="29" width="2" height="2"/><rect x="18" y="28" width="2" height="2"/><rect x="22" y="31" width="2" height="2"/><rect x="16" y="34" width="2" height="2"/><polygon points="16.052 20.684 17.948 21.316 19.054 18 18.054 15 18.948 12.316 17.052 11.684 15.946 15 16.946 18 16.052 20.684"/><polygon points="11.105 19.553 12.895 20.447 14.118 18 13.118 16 13.895 14.447 12.105 13.553 10.882 16 11.882 18 11.105 19.553"/><polygon points="21.105 19.553 22.895 20.447 24.118 18 23.118 16 23.895 14.447 22.105 13.553 20.882 16 21.882 18 21.105 19.553"/></g></svg>
