<?xml version="1.0"?>
<svg xmlns="http://www.w3.org/2000/svg" viewBox="0 0 64 64" width="512" height="512"><g id="Filled_outline" data-name="Filled outline"><rect x="12" y="45" width="40" height="6" style="fill:#6e7a88"/><rect x="15" y="51" width="34" height="10" style="fill:#bfbfbf"/><rect x="16" y="24" width="6" height="21" style="fill:#d9833b"/><rect x="27" y="26" width="24" height="4" style="fill:#ad6327"/><path d="M31,14h2a0,0,0,0,1,0,0V26a0,0,0,0,1,0,0H29a0,0,0,0,1,0,0V16A2,2,0,0,1,31,14Z" style="fill:#e8e8e8"/><rect x="33" y="14" width="4" height="12" style="fill:#b5bcc9"/><rect x="37" y="14" width="4" height="12" style="fill:#e8e8e8"/><rect x="41" y="14" width="4" height="12" style="fill:#b5bcc9"/><path d="M45,14h2a2,2,0,0,1,2,2V26a0,0,0,0,1,0,0H45a0,0,0,0,1,0,0V14A0,0,0,0,1,45,14Z" style="fill:#e8e8e8"/><polygon points="47 36 31 36 27 30 51 30 47 36" style="fill:#ebb562"/><rect x="31" y="36" width="16" height="9" style="fill:#ad6327"/><rect x="42" y="40" width="2" height="2" style="fill:#fff"/><rect x="15" y="56" width="5" height="2" style="fill:#fff"/><rect x="44" y="56" width="2" height="2" style="fill:#fff"/><rect x="16" y="18" width="6" height="6" style="fill:#ad6327"/><path d="M25,15a6,6,0,0,1-12,0c0-4,6-12,6-12S25,11,25,15Z" style="fill:#ada9d0"/><rect x="18" y="3" width="2" height="9" style="fill:#e8e8e8"/><path d="M53,44H48V36.3l3.832-5.748A1,1,0,0,0,52,30H52V26a1,1,0,0,0-1-1H50V16a3,3,0,0,0-3-3H31a3,3,0,0,0-3,3v9H27a1,1,0,0,0-1,1v4h0a1,1,0,0,0,.163.555L30,36.3V44H23V20.736A6.991,6.991,0,0,0,26,15c0-4.212-5.565-11.754-6.2-12.6a1.036,1.036,0,0,0-1.6,0C17.565,3.246,12,10.788,12,15a6.992,6.992,0,0,0,3,5.736V44H11v8h3V62H50V52h3ZM46,15h1a1,1,0,0,1,1,1v9H46Zm-4,0h2V25H42Zm-4,0h2V25H38Zm-4,0h2V25H34Zm-4,1a1,1,0,0,1,1-1h1V25H30ZM50,27v2H28V27Zm-.868,4-2.667,4H31.535l-2.667-4ZM32,37H46v7H32ZM14,15c0-2.169,2.18-6.02,4-8.807V12h2V6.192c1.82,2.786,4,6.637,4,8.808a5,5,0,0,1-10,0Zm3,6.7a6.927,6.927,0,0,0,4,0V23H17ZM17,25h4V44H17ZM48,60H16V58h4V56H16V52H48Zm3-10H13V46H51Z"/><rect x="42" y="40" width="2" height="2"/><rect x="44" y="56" width="2" height="2"/></g></svg>
