<?xml version="1.0"?>
<svg xmlns="http://www.w3.org/2000/svg" viewBox="0 0 64 64" width="512" height="512"><g id="Filled_outline" data-name="Filled outline"><rect x="19" y="35" width="26" height="8" style="fill:#ebb562"/><rect x="3" y="20" width="58" height="6" style="fill:#ebb562"/><rect x="21" y="7" width="22" height="24" style="fill:#ad6327"/><rect x="26" y="11" width="12" height="4" style="fill:#ebb562"/><rect x="26" y="23" width="4" height="16" style="fill:#c68c3e"/><rect x="34" y="23" width="4" height="16" style="fill:#c68c3e"/><rect x="19" y="43" width="4" height="14" style="fill:#ad6327"/><rect x="41" y="43" width="4" height="14" style="fill:#ad6327"/><rect x="3" y="26" width="4" height="31" style="fill:#ad6327"/><rect x="57" y="26" width="4" height="31" style="fill:#ad6327"/><path d="M44,6H20V19H2V58H8V27H20v5h5v2H18V58h6V44H40V58h6V34H39V32h5V27H56V58h6V19H44ZM6,56H4V27H6ZM20,25H4V21H20Zm2,31H20V44h2Zm22,0H42V44h2Zm0-20v6H20V36h5v4h6V36h2v4h6V36ZM27,38V24h2V38Zm4-4V32h2v2Zm4,4V24h2V38Zm7-8H39V22H33v8H31V22H25v8H22V8H42ZM60,56H58V27h2Zm0-35v4H44V21Z"/><path d="M39,10H25v6H39Zm-2,4H27V12H37Z"/></g></svg>
