<?xml version="1.0"?>
<svg xmlns="http://www.w3.org/2000/svg" viewBox="0 0 64 64" width="512" height="512"><g id="Filled_outline" data-name="Filled outline"><rect x="3" y="10" width="58" height="40" style="fill:#55b56a"/><rect x="7" y="14" width="50" height="32" style="fill:#113142"/><path d="M14,42h4a2,2,0,0,1,2,2v2a0,0,0,0,1,0,0H12a0,0,0,0,1,0,0V44A2,2,0,0,1,14,42Z" style="fill:#e8e8e8"/><rect x="45" y="40" width="8" height="6" style="fill:#e97424"/><rect x="46" y="35" width="2" height="5" style="fill:#f1d77e"/><rect x="50" y="37" width="2" height="3" style="fill:#f1d77e"/><rect x="3" y="50" width="58" height="4" style="fill:#d9833b"/><rect x="10" y="17" width="2" height="2" style="fill:#fff"/><polygon points="54 26 52 26 52 19 47 19 47 17 54 17 54 26" style="fill:#fff"/><rect x="43" y="17" width="2" height="2" style="fill:#fff"/><path d="M2,55H62V9H2ZM4,11H60V49H4ZM4,51H60v2H4Z"/><path d="M6,47H58V13H6Zm13-2H13V44a1,1,0,0,1,1-1h4a1,1,0,0,1,1,1Zm33,0H46V41h6ZM8,15H56V45H54V39H52V37H50v2H48V35H46v4H44v6H21V44a3,3,0,0,0-3-3H14a3,3,0,0,0-3,3v1H8Z"/><rect x="10" y="17" width="2" height="2"/><polygon points="52 26 54 26 54 17 47 17 47 19 52 19 52 26"/><rect x="43" y="17" width="2" height="2"/></g></svg>
