<?xml version="1.0"?>
<svg xmlns="http://www.w3.org/2000/svg" viewBox="0 0 64 64" width="512" height="512"><g id="Filled_outline" data-name="Filled outline"><rect x="26" y="9" width="12" height="7" style="fill:#bfbfbf"/><circle cx="32" cy="37" r="24" style="fill:#e4544f"/><circle cx="32" cy="37" r="20" style="fill:#f3bb59"/><rect x="16" y="3" width="32" height="6" style="fill:#6e7a88"/><path d="M32,24h0a2,2,0,0,1,2,2V36a0,0,0,0,1,0,0H30a0,0,0,0,1,0,0V26A2,2,0,0,1,32,24Z" style="fill:#3b73a5"/><path d="M33,35H46a2,2,0,0,1,2,2v0a2,2,0,0,1-2,2H33a0,0,0,0,1,0,0V35A0,0,0,0,1,33,35Z" style="fill:#3b73a5"/><rect x="31" y="17" width="2" height="3" style="fill:#fff"/><rect x="48" y="36" width="4" height="2" style="fill:#fff"/><rect x="31" y="54" width="2" height="3" style="fill:#fff"/><rect x="12" y="36" width="3" height="2" style="fill:#fff"/><path d="M27,50a1,1,0,0,1-.894-1.447l4-8a1,1,0,0,1,1.79.894l-4,8A1,1,0,0,1,27,50Z" style="fill:#3b73a5"/><circle cx="32" cy="37" r="4" style="fill:#154f7a"/><path d="M57,37A25.038,25.038,0,0,0,39,13.005V10H49V2H15v8H25v3.005A25,25,0,1,0,57,37ZM17,8V4H47V8Zm20,2v2.5a25.1,25.1,0,0,0-10,0V10ZM32,60A23,23,0,1,1,55,37,23.025,23.025,0,0,1,32,60Z"/><path d="M32,16A21,21,0,1,0,53,37,21.024,21.024,0,0,0,32,16ZM46.578,49.164l-1.871-1.871-1.414,1.414,1.919,1.919A18.919,18.919,0,0,1,33,55.949V54H31v1.949a18.919,18.919,0,0,1-12.212-5.323l1.919-1.919-1.414-1.414-1.871,1.871A18.9,18.9,0,0,1,13.051,38H15V36H13.051a18.9,18.9,0,0,1,4.371-11.164l1.871,1.871,1.414-1.414-1.919-1.919A18.919,18.919,0,0,1,31,18.051V20h2V18.051a18.919,18.919,0,0,1,12.212,5.323l-1.919,1.919,1.414,1.414,1.871-1.871A18.9,18.9,0,0,1,50.949,36H48.816A3,3,0,0,0,46,34H35.974A4.993,4.993,0,0,0,35,33.026V26a3.015,3.015,0,0,0-3-3,3,3,0,0,0-3,3v7.026a4.952,4.952,0,0,0,.681,8.377l-3.576,7.15a1,1,0,0,0,1.79.894l3.742-7.484c.122.009.239.037.363.037a4.977,4.977,0,0,0,3.974-2H46a2.994,2.994,0,0,0,2.818-2h2.131A18.9,18.9,0,0,1,46.578,49.164ZM36.9,36H46a1,1,0,0,1,1,1,.977.977,0,0,1-.307.713A.959.959,0,0,1,46,38H36.9a5,5,0,0,0,0-2ZM32,34a3,3,0,1,1-3,3A3,3,0,0,1,32,34Zm-1-1.9V26a1,1,0,0,1,1-1,.977.977,0,0,1,.713.307A.959.959,0,0,1,33,26v6.1a5,5,0,0,0-2,0Z"/></g></svg>
