<?xml version="1.0"?>
<svg xmlns="http://www.w3.org/2000/svg" viewBox="0 0 64 64" width="512" height="512"><g id="Filled_outline" data-name="Filled outline"><rect x="5" y="10" width="34" height="24" style="fill:#f4f4e6"/><rect x="19" y="34" width="6" height="4" style="fill:#98a5a6"/><rect x="12" y="38" width="20" height="4" style="fill:#f4f4e6"/><rect x="9" y="14" width="26" height="16" style="fill:#bfbfbf"/><rect x="43" y="6" width="18" height="36" style="fill:#f4f4e6"/><rect x="47" y="10" width="10" height="4" style="fill:#98a5a6"/><rect x="47" y="14" width="10" height="4" style="fill:#6e7a88"/><circle cx="52" cy="36" r="2" style="fill:#6e7a88"/><rect x="13.757" y="26" width="8.485" height="2" transform="translate(-13.82 20.636) rotate(-45)" style="fill:#fff"/><rect x="20.757" y="26" width="8.485" height="2" transform="translate(-11.77 25.586) rotate(-45)" style="fill:#fff"/><rect x="3" y="46" width="40" height="12" style="fill:#98a5a6"/><rect x="14" y="53" width="18" height="2" style="fill:#fff"/><rect x="14" y="49" width="2" height="2" style="fill:#fff"/><rect x="18" y="49" width="2" height="2" style="fill:#fff"/><rect x="22" y="49" width="2" height="2" style="fill:#fff"/><rect x="26" y="49" width="2" height="2" style="fill:#fff"/><rect x="30" y="49" width="2" height="2" style="fill:#fff"/><rect x="34" y="49" width="2" height="2" style="fill:#fff"/><rect x="34" y="53" width="2" height="2" style="fill:#fff"/><rect x="38" y="49" width="2" height="2" style="fill:#fff"/><rect x="38" y="53" width="2" height="2" style="fill:#fff"/><rect x="6" y="49" width="2" height="2" style="fill:#fff"/><rect x="6" y="53" width="2" height="2" style="fill:#fff"/><rect x="10" y="49" width="2" height="2" style="fill:#fff"/><rect x="10" y="53" width="2" height="2" style="fill:#fff"/><path d="M52,47h2a3,3,0,0,1,3,3v6a0,0,0,0,1,0,0H49a0,0,0,0,1,0,0V50A3,3,0,0,1,52,47Z" style="fill:#98a5a6"/><rect x="52" y="47" width="2" height="4" style="fill:#fff"/><path d="M40,35V9H4V35H18v2H11v6H33V37H26V35Zm-9,4v2H13V39ZM20,37V35h4v2ZM6,33V11H38V33Z"/><path d="M36,13H8V31H36ZM34,29H24.414l4.293-4.293-1.414-1.414L21.586,29H17.414l4.293-4.293-1.414-1.414L14.586,29H10V15H34Z"/><path d="M42,43H62V5H42ZM44,7H60V41H44Z"/><path d="M46,19H58V9H46Zm2-8h8v2H48Zm0,4h8v2H48Z"/><path d="M52,33a3,3,0,1,0,3,3A3,3,0,0,0,52,33Zm0,4a1,1,0,1,1,1-1A1,1,0,0,1,52,37Z"/><path d="M44,45H2V59H44ZM42,57H4V47H42Z"/><rect x="14" y="53" width="18" height="2"/><rect x="14" y="49" width="2" height="2"/><rect x="18" y="49" width="2" height="2"/><rect x="22" y="49" width="2" height="2"/><rect x="26" y="49" width="2" height="2"/><rect x="30" y="49" width="2" height="2"/><rect x="34" y="49" width="2" height="2"/><rect x="34" y="53" width="2" height="2"/><rect x="38" y="49" width="2" height="2"/><rect x="38" y="53" width="2" height="2"/><rect x="6" y="49" width="2" height="2"/><rect x="6" y="53" width="2" height="2"/><rect x="10" y="49" width="2" height="2"/><rect x="10" y="53" width="2" height="2"/><path d="M58,50a4,4,0,0,0-4-4H52a4,4,0,0,0-4,4v7H58Zm-2,5H50V50a2,2,0,0,1,2-2v3h2V48a2,2,0,0,1,2,2Z"/></g></svg>
