<?xml version="1.0"?>
<svg xmlns="http://www.w3.org/2000/svg" viewBox="0 0 64 64" width="512" height="512"><g id="Filled_outline" data-name="Filled outline"><polygon points="58 27 56 27 56 11 47 11 47 9 58 9 58 27" style="fill:#6e7a88"/><rect x="3" y="30" width="58" height="20" style="fill:#ebb562"/><rect x="5" y="50" width="6" height="6" style="fill:#ad6327"/><rect x="53" y="50" width="6" height="6" style="fill:#ad6327"/><rect x="21" y="34" width="22" height="8" style="fill:#fef59c"/><rect x="41" y="22" width="8" height="8" style="fill:#e4544f"/><rect x="5" y="26" width="14" height="4" style="fill:#6e7a88"/><rect x="5" y="22" width="14" height="4" style="fill:#e4544f"/><rect x="5" y="18" width="14" height="4" style="fill:#6e7a88"/><rect x="5" y="14" width="14" height="4" style="fill:#e4544f"/><rect x="9" y="14" width="4" height="4" style="fill:#f3bb59"/><rect x="11" y="18" width="4" height="4" style="fill:#bfbfbf"/><rect x="15" y="22" width="4" height="4" style="fill:#f3bb59"/><rect x="15" y="26" width="4" height="4" style="fill:#bfbfbf"/><rect x="42" y="15" width="2" height="7" style="fill:#6e7a88"/><rect x="46" y="17" width="2" height="5" style="fill:#6e7a88"/><rect x="37" y="8" width="10" height="4" style="fill:#e4544f"/><rect x="53" y="26" width="8" height="4" style="fill:#e4544f"/><rect x="28" y="37" width="8" height="2" style="fill:#f3bb59"/><polygon points="11 47 6 47 6 42 8 42 8 45 11 45 11 47" style="fill:#fff"/><rect x="13" y="45" width="2" height="2" style="fill:#fff"/><path d="M27,20h6a4,4,0,0,1,4,4v6a0,0,0,0,1,0,0H23a0,0,0,0,1,0,0V24A4,4,0,0,1,27,20Z" style="fill:#ad6327"/><rect x="23" y="50" width="4" height="6" style="fill:#ad6327"/><rect x="34" y="50" width="4" height="6" style="fill:#ad6327"/><path d="M20,43H44V33H20Zm2-8H42v6H22Z"/><path d="M58,9H48V7H36v6H48V11h8V25H52v4H50V21H48V17H46v4H44V15H42v6H40v8H38V24a5.006,5.006,0,0,0-5-5H27a5.006,5.006,0,0,0-5,5v5H20V13H4V29H2V51H4v6h8V51H22v6h6V51h5v6h6V51H52v6h8V51h2V25H58ZM46,11H38V9h8ZM42,23h6v6H42ZM24,24a3,3,0,0,1,3-3h6a3,3,0,0,1,3,3v5H24ZM14,15h4v2H14Zm2,10V23h2v2Zm2,2v2H16V27Zm-2-6V19h2v2Zm-6-6h2v2H10Zm4,4v2H12V19ZM6,15H8v2H6Zm0,4h4v2H6Zm0,4h8v2H6Zm0,4h8v2H6Zm4,28H6V51h4Zm16,0H24V51h2Zm11,0H35V51h2Zm21,0H54V51h4Zm2-6H4V31H60Zm0-22v2H54V27Z"/><rect x="28" y="37" width="8" height="2"/><polygon points="8 42 6 42 6 47 11 47 11 45 8 45 8 42"/><rect x="13" y="45" width="2" height="2"/></g></svg>
