<?xml version="1.0"?>
<svg xmlns="http://www.w3.org/2000/svg" viewBox="0 0 64 64" width="512" height="512"><g id="Filled_outline" data-name="Filled outline"><polygon points="24 53 16 53 6 31 14 31 24 53" style="fill:#98a5a6"/><polygon points="14 31 6 31 26 9 34 9 14 31" style="fill:#98a5a6"/><rect x="3" y="57" width="32" height="4" style="fill:#113142"/><rect x="6" y="53" width="26" height="4" style="fill:#d8d8d2"/><circle cx="11" cy="31" r="7" style="fill:#113142"/><circle cx="11" cy="31" r="3" style="fill:#98a5a6"/><rect x="26" y="5" width="14" height="4" style="fill:#113142"/><rect x="40" y="3" width="14" height="10" style="fill:#6e7a88"/><rect x="36" y="13" width="22" height="4" style="fill:#113142"/><rect x="33" y="17" width="28" height="8" style="fill:#6e7a88"/><path d="M47,35A10,10,0,0,0,57,25H37A10,10,0,0,0,47,35Z" style="fill:#f3bb59"/><rect x="33" y="20" width="5" height="2" style="fill:#fff"/><rect x="56" y="20" width="2" height="2" style="fill:#fff"/><rect x="46" y="38" width="2" height="6" style="fill:#f3bb59"/><rect x="34.172" y="37" width="5.657" height="2" transform="translate(-16.033 37.293) rotate(-45)" style="fill:#f3bb59"/><rect x="56" y="35.172" width="2" height="5.657" transform="translate(-10.175 51.435) rotate(-45)" style="fill:#f3bb59"/><path d="M15,31a4,4,0,1,0-4,4A4,4,0,0,0,15,31ZM9,31a2,2,0,1,1,2,2A2,2,0,0,1,9,31Z"/><path d="M61,16H59V13a1,1,0,0,0-1-1H55V3a1,1,0,0,0-1-1H40a1,1,0,0,0-1,1V4H26a1,1,0,0,0-1,1V8.613L11.88,23.051A7.993,7.993,0,0,0,8.325,38.53L14.447,52H5v4H2v6H36V56H33V52H24.644L17.32,35.887a7.938,7.938,0,0,0,.984-8.134L34.442,10H39v2H36a1,1,0,0,0-1,1v3H33a1,1,0,0,0-1,1v8a1,1,0,0,0,1,1h3.051a10.994,10.994,0,0,0,21.9,0H61a1,1,0,0,0,1-1V17A1,1,0,0,0,61,16ZM41,4H53v8H41ZM5,31a6,6,0,1,1,6,6A6.006,6.006,0,0,1,5,31ZM34,58v2H4V58Zm-3-4v2H7V54Zm-8.553-2h-5.8L10.729,38.986c.091,0,.18.014.271.014a7.953,7.953,0,0,0,4.8-1.617Zm-5.23-26.024a8.042,8.042,0,0,0-3.146-2.361L26.442,10h5.3ZM27,8V6H39V8Zm10,6H57v2H37ZM47,34a9.013,9.013,0,0,1-8.945-8h17.89A9.013,9.013,0,0,1,47,34ZM60,24H34V22h4V20H34V18H60Z"/><rect x="56" y="20" width="2" height="2"/><rect x="46" y="38" width="2" height="6"/><rect x="34.172" y="37" width="5.657" height="2" transform="translate(-16.033 37.293) rotate(-45)"/><rect x="56" y="35.172" width="2" height="5.657" transform="translate(-10.175 51.435) rotate(-45)"/></g></svg>
