<?xml version="1.0"?>
<svg xmlns="http://www.w3.org/2000/svg" viewBox="0 0 64 64" width="512" height="512"><g id="Filled_outline" data-name="Filled outline"><rect x="3" y="3" width="58" height="50" style="fill:#f3bb59"/><polygon points="51 49 13 49 7 43 7 12 13 7 50 7 57 12 57 43 51 49" style="fill:#fef59c"/><circle cx="32" cy="14" r="3" style="fill:#e4544f"/><rect x="23" y="20" width="18" height="2" style="fill:#f3bb59"/><rect x="17" y="20" width="4" height="2" style="fill:#f3bb59"/><rect x="43" y="20" width="6" height="2" style="fill:#f3bb59"/><rect x="13" y="24" width="10" height="2" style="fill:#f3bb59"/><rect x="25" y="24" width="4" height="2" style="fill:#f3bb59"/><rect x="31" y="24" width="6" height="2" style="fill:#f3bb59"/><rect x="39" y="24" width="12" height="2" style="fill:#f3bb59"/><rect x="17" y="28" width="2" height="2" style="fill:#f3bb59"/><rect x="21" y="28" width="2" height="2" style="fill:#f3bb59"/><rect x="25" y="28" width="10" height="2" style="fill:#f3bb59"/><rect x="37" y="28" width="6" height="2" style="fill:#f3bb59"/><rect x="45" y="28" width="2" height="2" style="fill:#f3bb59"/><rect x="22" y="37" width="6" height="2" style="fill:#f3bb59"/><rect x="30" y="37" width="2" height="2" style="fill:#f3bb59"/><polygon points="47 61 42 57 37 61 37 40 47 40 47 61" style="fill:#e4544f"/><circle cx="42" cy="39" r="6" style="fill:#3b73a5"/><path d="M2,54H36v7a1,1,0,0,0,1.625.781L42,58.28l4.375,3.5A1,1,0,0,0,48,61V54H62V2H2Zm44,4.919-3.375-2.7a1,1,0,0,0-1.25,0L38,58.919V44.736a6.961,6.961,0,0,0,8,0ZM42,44a5,5,0,1,1,5-5A5.006,5.006,0,0,1,42,44Zm0-12a6.985,6.985,0,0,0-6,10.587V48H13.414L8,42.586V12.469L13.362,8H49.68L56,12.515V42.586L50.586,48H48V42.587A6.985,6.985,0,0,0,42,32ZM4,4H60V52H48V50h3.414L58,43.414V11.485L50.32,6H12.638L6,11.531V43.414L12.586,50H36v2H4Z"/><path d="M32,18a4,4,0,1,0-4-4A4,4,0,0,0,32,18Zm0-6a2,2,0,1,1-2,2A2,2,0,0,1,32,12Z"/><rect x="23" y="20" width="18" height="2"/><rect x="17" y="20" width="4" height="2"/><rect x="43" y="20" width="6" height="2"/><rect x="13" y="24" width="10" height="2"/><rect x="25" y="24" width="4" height="2"/><rect x="31" y="24" width="6" height="2"/><rect x="39" y="24" width="12" height="2"/><rect x="17" y="28" width="2" height="2"/><rect x="21" y="28" width="2" height="2"/><rect x="25" y="28" width="10" height="2"/><rect x="37" y="28" width="6" height="2"/><rect x="45" y="28" width="2" height="2"/><rect x="22" y="37" width="6" height="2"/><rect x="30" y="37" width="2" height="2"/></g></svg>
