<?xml version="1.0"?>
<svg xmlns="http://www.w3.org/2000/svg" viewBox="0 0 64 64" width="512" height="512"><g id="Filled_outline" data-name="Filled outline"><polygon points="51 45 9 45 9 13 59 13 59 37 51 45" style="fill:#e8e8e8"/><polygon points="48 35 34 35 41 21 48 35" style="fill:#e4544f"/><rect x="3" y="7" width="58" height="6" style="fill:#e4544f"/><polygon points="51 45 51 37 59 37 51 45" style="fill:#bfbfbf"/><rect x="17" y="45" width="4" height="16" style="fill:#d9833b"/><rect x="43" y="45" width="4" height="16" style="fill:#d9833b"/><rect x="21" y="51" width="22" height="4" style="fill:#ebb562"/><rect x="5" y="13" width="4" height="30" style="fill:#bfbfbf"/><rect x="21" y="3" width="22" height="4" style="fill:#ebb562"/><rect x="17" y="19" width="12" height="12" style="fill:#69b1d5"/><circle cx="32" cy="32" r="7" style="fill:#f3bb59"/><path d="M44,2H20V6H2v8H4V44H8v2h8V62h6V56H42v6h6V46h3.414l.293-.293,8-8L60,37.414V14h2V6H44ZM22,4H42V6H22ZM8,42H6V14H8ZM20,60H18V46h2Zm22-6H22V52H42Zm0-4H22V46H42Zm4,10H44V46h2Zm6-17.414V38h4.586ZM58,36H51a1,1,0,0,0-1,1v7H10V14H58ZM60,8v4H4V8Z"/><path d="M32,40a8,8,0,0,0,6.918-4H48a1,1,0,0,0,.9-1.447l-7-14a1.042,1.042,0,0,0-1.79,0l-2.757,5.515A7.9,7.9,0,0,0,30,24.263V18H16V32h8A8.009,8.009,0,0,0,32,40Zm9-16.764L46.382,34H39.737a7.873,7.873,0,0,0-.984-6.27Zm-3.364,6.727A5.885,5.885,0,0,1,37.65,34H35.618ZM30,26.35a5.947,5.947,0,0,1,6.409,1.595l-3.3,6.608A1,1,0,0,0,34,36h2.46A5.992,5.992,0,0,1,26,32h4ZM26.35,30A6.016,6.016,0,0,1,28,27.54V30ZM18,20H28v5.082A8.022,8.022,0,0,0,24.263,30H18Z"/></g></svg>
