<?xml version="1.0"?>
<svg xmlns="http://www.w3.org/2000/svg" viewBox="0 0 64 64" width="512" height="512"><g id="Filled_outline" data-name="Filled outline"><circle cx="28" cy="24" r="20" style="fill:#cdeef6"/><rect x="14" y="57" width="28" height="4" style="fill:#ad6327"/><rect x="26" y="51" width="4" height="6" style="fill:#ebb562"/><path d="M45,7c3.741,4.37,7,9.8,7,16,0,13.807-10.193,25-24,25-6.2,0-12.63-3.259-17-7L7,45a32.829,32.829,0,0,0,21,8c16.569,0,29-13.431,29-30A30.736,30.736,0,0,0,49,3Z" style="fill:#ad6327"/><rect x="5.55" y="40.5" width="9.899" height="2" transform="translate(-26.27 19.58) rotate(-45)" style="fill:#ebb562"/><rect x="40.55" y="5.5" width="9.899" height="2" transform="translate(8.73 34.077) rotate(-45)" style="fill:#ebb562"/><path d="M8.05,23H10l3,2,2-1,1-2,6,4,3,4h5l-1-5,3-3-4-1-2-2-2-5h4l2-2,4-1L32,9l4-3-.092-.369A19.976,19.976,0,0,0,8.05,23Z" style="fill:#67c086"/><path d="M40,15l-1,3,4,2-3,3H38l-1,3,2,1-1,2-4,1-1,5-3,2-4-1-3-1-2,4H18l-1.978.989.071.053,7.731,3.514A19.971,19.971,0,0,0,45.878,15.074L45,14Z" style="fill:#67c086"/><path d="M15.848,15.53l-1.7-1.06c5.277-8.444,13.62-7.506,13.972-7.462l-.245,1.985C27.577,8.957,20.431,8.2,15.848,15.53Z" style="fill:#fff"/><rect x="12.382" y="17" width="2.236" height="2" transform="translate(-8.637 22.025) rotate(-63.435)" style="fill:#fff"/><path d="M58,23A31.489,31.489,0,0,0,49.75,2.338,1,1,0,0,0,49.031,2a.952.952,0,0,0-.738.293L42.1,8.484A20.965,20.965,0,0,0,12.484,38.1L6.293,44.293a1,1,0,0,0,.04,1.452A33.977,33.977,0,0,0,25,53.842V56H13v6H43V56H31V53.851C46.362,52.342,58,39.335,58,23ZM28,45A20.965,20.965,0,0,0,43.516,9.9l1.4-1.4C48.992,13.5,51,18.251,51,23c0,13.458-10.1,24-23,24-5.8,0-11.651-3.021-15.512-6.074l1.41-1.41A20.9,20.9,0,0,0,28,45ZM39.447,26.105l-1.224-.611.5-1.494H40a1,1,0,0,0,.707-.293l3-3a1,1,0,0,0-.26-1.6l-3.224-1.611.542-1.627,3.995-.8A18.97,18.97,0,0,1,17.994,40.121L18.236,40H21a1,1,0,0,0,.895-.553l1.612-3.225,2.25.748,4,1a.991.991,0,0,0,.8-.138l3-2a1,1,0,0,0,.425-.636l.876-4.379,3.387-.847a1,1,0,0,0,.652-.523l1-2A1,1,0,0,0,39.447,26.105ZM28,5a18.872,18.872,0,0,1,6.236,1.073L31.4,8.2a1,1,0,0,0-.107,1.507l.751.751-2.287.572a1,1,0,0,0-.464.263L27.586,13H24a1,1,0,0,0-.929,1.372l2,5a1.016,1.016,0,0,0,.222.335l2,2a1,1,0,0,0,.464.263l2.287.572-1.751,1.751a1,1,0,0,0-.273.9l.76,3.8H25.5l-2.7-3.6a1,1,0,0,0-.245-.232l-6-4a1,1,0,0,0-1.45.385l-.85,1.7-1.183.591-2.517-1.678A1.006,1.006,0,0,0,10,22H9.107A19.025,19.025,0,0,1,28,5ZM9.7,24l2.748,1.832a1,1,0,0,0,1,.063l2-1a1,1,0,0,0,.448-.448l.493-.987L21.3,26.737,24.2,30.6a1,1,0,0,0,.8.4h5a1,1,0,0,0,.98-1.2l-.895-4.475,2.622-2.622a1,1,0,0,0-.464-1.677L28.511,20.1l-1.659-1.659L25.477,15H28a1,1,0,0,0,.707-.293l1.8-1.8,3.732-.933a1,1,0,0,0,.464-1.677L33.522,9.108,36.373,6.97a19.115,19.115,0,0,1,7.277,6.28l-3.846.77a1,1,0,0,0-.753.664l-1,3a1,1,0,0,0,.5,1.211l2.759,1.379L39.586,22H38a1,1,0,0,0-.949.684l-1,3a1,1,0,0,0,.5,1.211l1.105.552-.347.7-3.554.888a1,1,0,0,0-.737.774L32.1,34.4l-2.288,1.525-3.5-.872-3-1a1,1,0,0,0-1.211.5L20.382,38H18a1,1,0,0,0-.447.1l-1.419.71A18.962,18.962,0,0,1,9,24Zm1.365,18.352C16.229,46.528,22.5,49,28,49c14.019,0,25-11.42,25-26,0-5.284-2.175-10.506-6.645-15.941l2.588-2.588A29.27,29.27,0,0,1,56,23c0,16.262-12.3,29-28,29A31.855,31.855,0,0,1,8.47,44.945ZM41,58v2H15V58ZM29,56H27V53.975c.334.011.668.025,1,.025s.667-.015,1-.025Z"/><path d="M27.879,8.993l.245-1.985c-.352-.044-8.695-.982-13.972,7.462l1.7,1.06C20.431,8.2,27.577,8.957,27.879,8.993Z"/><rect x="12.382" y="17" width="2.236" height="2" transform="translate(-8.637 22.025) rotate(-63.435)"/></g></svg>
