<?xml version="1.0"?>
<svg xmlns="http://www.w3.org/2000/svg" viewBox="0 0 64 64" width="512" height="512"><g id="Filled_outline" data-name="Filled outline"><rect x="22" y="32" width="16" height="25" style="fill:#bfbfbf"/><rect x="6" y="32" width="16" height="25" style="fill:#f4f4e6"/><rect x="38" y="32" width="16" height="25" style="fill:#f4f4e6"/><rect x="6" y="7" width="16" height="25" style="fill:#bfbfbf"/><rect x="38" y="7" width="16" height="25" style="fill:#bfbfbf"/><rect x="22" y="7" width="16" height="25" style="fill:#f4f4e6"/><rect x="4" y="57" width="52" height="4" style="fill:#6e7a88"/><rect x="4" y="3" width="52" height="4" style="fill:#6e7a88"/><rect x="6" y="16" width="4" height="4" style="fill:#6e7a88"/><rect x="9" y="23" width="4" height="2" style="fill:#f4f4e6"/><rect x="15" y="23" width="4" height="2" style="fill:#f4f4e6"/><rect x="9" y="27" width="4" height="2" style="fill:#f4f4e6"/><rect x="15" y="27" width="4" height="2" style="fill:#f4f4e6"/><rect x="6" y="41" width="4" height="4" style="fill:#6e7a88"/><rect x="9" y="48" width="4" height="2" style="fill:#bfbfbf"/><rect x="15" y="48" width="4" height="2" style="fill:#bfbfbf"/><rect x="9" y="52" width="4" height="2" style="fill:#bfbfbf"/><rect x="15" y="52" width="4" height="2" style="fill:#bfbfbf"/><rect x="22" y="16" width="4" height="4" style="fill:#6e7a88"/><rect x="25" y="23" width="4" height="2" style="fill:#bfbfbf"/><rect x="31" y="23" width="4" height="2" style="fill:#bfbfbf"/><rect x="25" y="27" width="4" height="2" style="fill:#bfbfbf"/><rect x="31" y="27" width="4" height="2" style="fill:#bfbfbf"/><rect x="22" y="41" width="4" height="4" style="fill:#6e7a88"/><rect x="25" y="48" width="4" height="2" style="fill:#f4f4e6"/><rect x="31" y="48" width="4" height="2" style="fill:#f4f4e6"/><rect x="25" y="52" width="4" height="2" style="fill:#f4f4e6"/><rect x="31" y="52" width="4" height="2" style="fill:#f4f4e6"/><rect x="38" y="16" width="4" height="4" style="fill:#6e7a88"/><rect x="41" y="23" width="4" height="2" style="fill:#f4f4e6"/><rect x="47" y="23" width="4" height="2" style="fill:#f4f4e6"/><rect x="41" y="27" width="4" height="2" style="fill:#f4f4e6"/><rect x="47" y="27" width="4" height="2" style="fill:#f4f4e6"/><rect x="38" y="41" width="4" height="4" style="fill:#6e7a88"/><rect x="41" y="48" width="4" height="2" style="fill:#bfbfbf"/><rect x="47" y="48" width="4" height="2" style="fill:#bfbfbf"/><rect x="41" y="52" width="4" height="2" style="fill:#bfbfbf"/><rect x="47" y="52" width="4" height="2" style="fill:#bfbfbf"/><path d="M3,8H5V56H3v6H57V56H55V8h2V2H3ZM55,60H5V58H55ZM11,46V40H7V33H21V56H7V46ZM7,44V42H9v2Zm4-23V15H7V8H21V31H7V21ZM7,19V17H9v2ZM27,46V40H23V33H37V56H23V46Zm-4-2V42h2v2Zm4-23V15H23V8H37V31H23V21Zm-4-2V17h2v2ZM43,46V40H39V33H53V56H39V46Zm-4-2V42h2v2Zm4-23V15H39V8H53V31H39V21Zm-4-2V17h2v2ZM5,4H55V6H5Z"/><rect x="9" y="23" width="4" height="2"/><rect x="15" y="23" width="4" height="2"/><rect x="9" y="27" width="4" height="2"/><rect x="15" y="27" width="4" height="2"/><rect x="9" y="48" width="4" height="2"/><rect x="15" y="48" width="4" height="2"/><rect x="9" y="52" width="4" height="2"/><rect x="15" y="52" width="4" height="2"/><rect x="25" y="23" width="4" height="2"/><rect x="31" y="23" width="4" height="2"/><rect x="25" y="27" width="4" height="2"/><rect x="31" y="27" width="4" height="2"/><rect x="25" y="48" width="4" height="2"/><rect x="31" y="48" width="4" height="2"/><rect x="25" y="52" width="4" height="2"/><rect x="31" y="52" width="4" height="2"/><rect x="41" y="23" width="4" height="2"/><rect x="47" y="23" width="4" height="2"/><rect x="41" y="27" width="4" height="2"/><rect x="47" y="27" width="4" height="2"/><rect x="41" y="48" width="4" height="2"/><rect x="47" y="48" width="4" height="2"/><rect x="41" y="52" width="4" height="2"/><rect x="47" y="52" width="4" height="2"/></g></svg>
