<?xml version="1.0"?>
<svg xmlns="http://www.w3.org/2000/svg" viewBox="0 0 64 64" width="512" height="512"><g id="Filled_outline" data-name="Filled outline"><rect x="3" y="55" width="58" height="6" style="fill:#113142"/><rect x="5" y="45" width="16" height="10" style="fill:#6e7a88"/><rect x="37" y="10" width="12" height="18" style="fill:#6e7a88"/><rect x="39" y="6" width="8" height="4" style="fill:#bfbfbf"/><rect x="35" y="3" width="16" height="3" style="fill:#113142"/><rect x="34" y="28" width="18" height="4" style="fill:#113142"/><rect x="39" y="32" width="8" height="4" style="fill:#bfbfbf"/><rect x="41" y="36" width="4" height="4" style="fill:#113142"/><rect x="32" y="47" width="22" height="4" style="fill:#bfbfbf"/><path d="M10,23V45h6V25a4,4,0,0,1,4-4H33V15H18A8,8,0,0,0,10,23Z" style="fill:#bfbfbf"/><rect x="21" y="48" width="11" height="2" style="fill:#113142"/><rect x="8" y="49" width="2" height="2" style="fill:#fff"/><rect x="40" y="13" width="2" height="4" style="fill:#fff"/><rect x="40" y="19" width="2" height="2" style="fill:#fff"/><rect x="33" y="12" width="4" height="12" style="fill:#113142"/><path d="M22,50h9v2H55V46H31v2H22V44H17V25a3,3,0,0,1,3-3H32v3h4v2H33v6h5v4h2v4h6V37h2V33h5V27H50V9H48V7h4V2H34V7h4V9H36v2H32v3H18a9.01,9.01,0,0,0-9,9V44H4V54H2v8H62V54H22Zm11-2H53v2H33Zm11-9H42V37h2Zm2-4H40V33h6ZM36,5V4H50V5ZM46,7V9H40V7ZM38,25V11H48V27H38Zm13,4v2H35V29ZM34,13h2V23H34ZM11,23a7.009,7.009,0,0,1,7-7H32v4H20a5.006,5.006,0,0,0-5,5V44H11ZM6,46H20v8H6ZM60,56v4H4V56Z"/><rect x="8" y="49" width="2" height="2"/><rect x="40" y="13" width="2" height="4"/><rect x="40" y="19" width="2" height="2"/></g></svg>
