<?xml version="1.0"?>
<svg xmlns="http://www.w3.org/2000/svg" viewBox="0 0 64 64" width="512" height="512"><g id="Filled_outline" data-name="Filled outline"><path d="M32,20c-12.15,0-22,1.791-22,4V41c0,2.209,9.85,4,22,4s22-1.791,22-4V24C54,21.791,44.15,20,32,20Z" style="fill:#bfbfbf"/><path d="M32,8,3,21l7,3c0-2.209,9.85-4,22-4s22,1.791,22,4l7-3Z" style="fill:#6e7a88"/><path d="M32,45c12.15,0,22-1.791,22-4V37c0-2.209-9.85-4-22-4s-22,1.791-22,4v4C10,43.209,19.85,45,32,45Z" style="fill:#d8d8d2"/><ellipse cx="32" cy="41" rx="22" ry="4" style="fill:#6e7a88"/><rect x="13" y="25" width="2" height="2" style="fill:#fff"/><rect x="17" y="24" width="2" height="2" style="fill:#fff"/><path d="M49,22.277V15H47v7.277a2,2,0,1,0,2,0Z" style="fill:#113142"/><polygon points="50 56 46 54 46 30 48 26 50 30 50 56" style="fill:#113142"/><path d="M61.409,20.088l-29-13a1,1,0,0,0-.818,0l-29,13a1,1,0,0,0,.015,1.831L9,24.659V41c0,4.943,22.061,5,23,5a103.528,103.528,0,0,0,13-.763V54a1,1,0,0,0,.553.9l4,2A1,1,0,0,0,51,56V44.048c2.712-.788,4-1.764,4-3.048V24.659l6.394-2.74a1,1,0,0,0,.015-1.831ZM32,9.1,47,15.82v4.256A108.66,108.66,0,0,0,32,19c-.85,0-19.008.047-22.441,3.723L5.491,20.979ZM48,25a1,1,0,1,1,1-1A1,1,0,0,1,48,25Zm-1.429,1.621-1.466,2.932A1,1,0,0,0,45,30v2.763A103.528,103.528,0,0,0,32,32c-.765,0-15.557.038-21.005,2.729L10.986,24.08C11.529,22.975,19.016,21,32,21a95.274,95.274,0,0,1,13.859.905,2.977,2.977,0,0,0,.712,4.716ZM11,38.727v-1.66C11.59,35.959,19.064,34,32,34a100.338,100.338,0,0,1,13,.783v1.98A103.528,103.528,0,0,0,32,36C31.235,36,16.449,36.038,11,38.727ZM32,44c-12.861,0-20.318-1.936-20.973-2.969C11.757,39.917,19.2,38,32,38a100.338,100.338,0,0,1,13,.783v4.434A100.338,100.338,0,0,1,32,44ZM49,54.382l-2-1V30.236l1-2,1,2Zm.429-27.761A2.989,2.989,0,0,0,51,24a2.955,2.955,0,0,0-.2-1.062c1.292.386,2.05.764,2.2,1.062l.01,10.69A13.171,13.171,0,0,0,51,33.952V30a1,1,0,0,0-.1-.447Zm3.584,12.071A13.2,13.2,0,0,0,51,37.952V36.039c1.673.551,1.984.993,2.012,1.039ZM51,41.961V40.039A4.953,4.953,0,0,1,52.947,41,4.953,4.953,0,0,1,51,41.961Zm2.012-4.9A.164.164,0,0,1,53,37h.012Zm1.429-14.342c-.936-1-2.966-1.734-5.441-2.269V16.717l9.509,4.262Z"/><rect x="13" y="25" width="2" height="2"/><rect x="17" y="24" width="2" height="2"/></g></svg>
