<?xml version="1.0"?>
<svg xmlns="http://www.w3.org/2000/svg" viewBox="0 0 64 64" width="512" height="512"><g id="Filled_outline" data-name="Filled outline"><path d="M52,3h3a2,2,0,0,1,2,2V59a2,2,0,0,1-2,2H52a0,0,0,0,1,0,0V3a0,0,0,0,1,0,0Z" style="fill:#ebb562"/><rect x="7" y="3" width="37" height="58" style="fill:#e4544f"/><rect x="7" y="3" width="8" height="58" style="fill:#ebb562"/><rect x="44" y="3" width="8" height="58" style="fill:#ad6327"/><rect x="32" y="26" width="29" height="12" rx="2" ry="2" style="fill:#113142"/><circle cx="38" cy="32" r="2" style="fill:#ebb562"/><path d="M5,10h6a0,0,0,0,1,0,0v4a0,0,0,0,1,0,0H5a2,2,0,0,1-2-2v0A2,2,0,0,1,5,10Z" style="fill:#113142"/><path d="M5,18h6a0,0,0,0,1,0,0v4a0,0,0,0,1,0,0H5a2,2,0,0,1-2-2v0A2,2,0,0,1,5,18Z" style="fill:#113142"/><path d="M5,26h6a0,0,0,0,1,0,0v4a0,0,0,0,1,0,0H5a2,2,0,0,1-2-2v0A2,2,0,0,1,5,26Z" style="fill:#113142"/><path d="M5,34h6a0,0,0,0,1,0,0v4a0,0,0,0,1,0,0H5a2,2,0,0,1-2-2v0A2,2,0,0,1,5,34Z" style="fill:#113142"/><path d="M5,42h6a0,0,0,0,1,0,0v4a0,0,0,0,1,0,0H5a2,2,0,0,1-2-2v0A2,2,0,0,1,5,42Z" style="fill:#113142"/><path d="M5,50h6a0,0,0,0,1,0,0v4a0,0,0,0,1,0,0H5a2,2,0,0,1-2-2v0A2,2,0,0,1,5,50Z" style="fill:#113142"/><rect x="21" y="11" width="17" height="8" style="fill:#ebb562"/><rect x="36" y="56" width="8" height="2" style="fill:#fff"/><rect x="26" y="56" width="2" height="2" style="fill:#fff"/><polygon points="24 58 18 58 18 50 20 50 20 56 24 56 24 58" style="fill:#fff"/><path d="M59,25H58V5a3,3,0,0,0-3-3H6V9H5a3,3,0,0,0,0,6H6v2H5a3,3,0,0,0,0,6H6v2H5a3,3,0,0,0,0,6H6v2H5a3,3,0,0,0,0,6H6v2H5a3,3,0,0,0,0,6H6v2H5a3,3,0,0,0,0,6H6v7H55a3,3,0,0,0,3-3V39h1a3,3,0,0,0,3-3V28A3,3,0,0,0,59,25ZM5,13a1,1,0,0,1,0-2h5v2Zm0,8a1,1,0,0,1,0-2h5v2Zm0,8a1,1,0,0,1,0-2h5v2Zm0,8a1,1,0,0,1,0-2h5v2Zm0,8a1,1,0,0,1,0-2h5v2Zm0,8a1,1,0,0,1,0-2h5v2Zm9,7H8V55h4V49H8V47h4V41H8V39h4V33H8V31h4V25H8V23h4V17H8V15h4V9H8V4h6ZM53,4h2a1,1,0,0,1,1,1V25H53ZM45,4h6V25H45ZM43,56H36v2h7v2H16V4H43V25H34a3,3,0,0,0-3,3v8a3,3,0,0,0,3,3h9Zm8,4H45V39h6Zm5-1a1,1,0,0,1-1,1H53V39h3Zm4-23a1,1,0,0,1-1,1H34a1,1,0,0,1-1-1V28a1,1,0,0,1,1-1H59a1,1,0,0,1,1,1Z"/><path d="M38,29a3,3,0,1,0,3,3A3,3,0,0,0,38,29Zm0,4a1,1,0,1,1,1-1A1,1,0,0,1,38,33Z"/><path d="M39,10H20V20H39Zm-2,8H22V12H37Z"/><rect x="26" y="56" width="2" height="2"/><polygon points="20 50 18 50 18 58 24 58 24 56 20 56 20 50"/></g></svg>
