<?xml version="1.0"?>
<svg xmlns="http://www.w3.org/2000/svg" viewBox="0 0 64 64" width="512" height="512"><g id="Filled_outline" data-name="Filled outline"><path d="M49,39c.014-.332,0-.665,0-1A23,23,0,1,0,25,60.975V61H50A11,11,0,0,0,61,50h0A11,11,0,0,0,50,39Z" style="fill:#e8e8e8"/><circle cx="38" cy="32" r="5" style="fill:#e4544f"/><circle cx="50" cy="50" r="7" style="fill:#925eb1"/><circle cx="28" cy="52" r="5" style="fill:#cb2e5c"/><circle cx="15" cy="47" r="5" style="fill:#67ac7f"/><circle cx="13" cy="33" r="5" style="fill:#69b1d5"/><circle cx="25" cy="25" r="5" style="fill:#ebb562"/><polygon points="48 10 48 7 52 3 52 10 48 10" style="fill:#ad6327"/><rect x="12" y="23" width="2" height="2" style="fill:#fff"/><rect x="16" y="20" width="2" height="2" style="fill:#fff"/><rect x="35" y="23" width="30" height="4" transform="translate(75 -25) rotate(90)" style="fill:#d9833b"/><path d="M50,50s-4-5-4-8a4,4,0,0,1,8,0C54,45,50,50,50,50Z" style="fill:#ada9d0"/><path d="M53.628,38.58A4.939,4.939,0,0,0,53,38.026V3a1,1,0,0,0-1.707-.707l-4,4A1,1,0,0,0,47,7V26.388A24,24,0,1,0,24,61.91V62H50a11.985,11.985,0,0,0,3.628-23.42Zm.377,6.97A5.924,5.924,0,0,1,56,50a6,6,0,0,1-12,0A5.924,5.924,0,0,1,46,45.55a29.072,29.072,0,0,0,3.224,5.075,1,1,0,0,0,1.562,0A29.072,29.072,0,0,0,54.005,45.55ZM49,7.414l2-2V9H49ZM49,11h2V37.1a5,5,0,0,0-2,0Zm1,28a3,3,0,0,1,3,3c0,1.743-1.762,4.6-3,6.334C48.762,46.6,47,43.746,47,42A3,3,0,0,1,50,39Zm0,21H25.728l-.686-.029A22,22,0,0,1,4.057,36.333,22.005,22.005,0,0,1,47,31.438v6.588A4.977,4.977,0,0,0,45,42a6.048,6.048,0,0,0,.248,1.584A7.906,7.906,0,0,0,42,50a8,8,0,0,0,16,0,7.906,7.906,0,0,0-3.248-6.416A6.048,6.048,0,0,0,55,42a4.9,4.9,0,0,0-.07-.69A9.993,9.993,0,0,1,50,60Z"/><path d="M28,46a6,6,0,1,0,6,6A6.006,6.006,0,0,0,28,46Zm0,10a4,4,0,1,1,4-4A4,4,0,0,1,28,56Z"/><path d="M15,41a6,6,0,1,0,6,6A6.006,6.006,0,0,0,15,41Zm0,10a4,4,0,1,1,4-4A4,4,0,0,1,15,51Z"/><path d="M19,33a6,6,0,1,0-6,6A6.006,6.006,0,0,0,19,33ZM9,33a4,4,0,1,1,4,4A4,4,0,0,1,9,33Z"/><path d="M25,31a6,6,0,1,0-6-6A6.006,6.006,0,0,0,25,31Zm0-10a4,4,0,1,1-4,4A4,4,0,0,1,25,21Z"/><path d="M44,32a6,6,0,1,0-6,6A6.006,6.006,0,0,0,44,32Zm-6,4a4,4,0,1,1,4-4A4,4,0,0,1,38,36Z"/><rect x="12" y="23" width="2" height="2"/><rect x="16" y="20" width="2" height="2"/></g></svg>
