<?xml version="1.0"?>
<svg xmlns="http://www.w3.org/2000/svg" viewBox="0 0 64 64" width="512" height="512"><g id="Filled_outline" data-name="Filled outline"><polygon points="16 17 22 3 28 17 24 19 22 17 20 19 16 17" style="fill:#ebb562"/><rect x="36" y="27" width="12" height="18" style="fill:#ebb562"/><rect x="12" y="45" width="40" height="6" style="fill:#6e7a88"/><rect x="15" y="51" width="34" height="10" style="fill:#bfbfbf"/><rect x="15" y="56" width="5" height="2" style="fill:#fff"/><rect x="44" y="56" width="2" height="2" style="fill:#fff"/><polygon points="28 45 24 45 24 19 28 17 28 45" style="fill:#e4544f"/><polygon points="20 45 16 45 16 17 20 19 20 45" style="fill:#e4544f"/><polygon points="24 45 20 45 20 19 22 17 24 19 24 45" style="fill:#55b56a"/><polygon points="22 3 19.429 9 24.571 9 22 3" style="fill:#113142"/><rect x="36" y="23" width="12" height="4" style="fill:#ad6327"/><path d="M40,13h4a4,4,0,0,1,4,4v6a0,0,0,0,1,0,0H36a0,0,0,0,1,0,0V17A4,4,0,0,1,40,13Z" style="fill:#e8e8e8"/><rect x="39" y="37" width="2" height="8" style="fill:#fff"/><rect x="39" y="33" width="2" height="2" style="fill:#fff"/><path d="M53,44H49V17a5.006,5.006,0,0,0-5-5H40a5.006,5.006,0,0,0-5,5V44H29V17a.984.984,0,0,0-.088-.391l.007,0-6-14a1,1,0,0,0-1.838,0l-6,14,.007,0A.984.984,0,0,0,15,17V44H11v8h3V62H50V52h3ZM37,17a3,3,0,0,1,3-3h4a3,3,0,0,1,3,3v5H37Zm0,7H47v2H37Zm0,4H47V44H41V37H39v7H37ZM21,44V19.414l1-1,1,1V44Zm5.709-27.473L24.2,17.783l-1.49-1.49a1,1,0,0,0-1.414,0l-1.49,1.49-2.512-1.256L20.088,10h3.824ZM25,19.618l2-1V44H25ZM22,5.539,23.055,8h-2.11ZM17,18.618l2,1V44H17ZM48,60H16V58h4V56H16V52H48Zm3-10H13V46H51Z"/><rect x="44" y="56" width="2" height="2"/><rect x="39" y="33" width="2" height="2"/></g></svg>
