<?xml version="1.0"?>
<svg xmlns="http://www.w3.org/2000/svg" viewBox="0 0 64 64" width="512" height="512"><g id="Filled_outline" data-name="Filled outline"><rect x="5" y="15" width="54" height="34" style="fill:#f4f4e6"/><path d="M43.707,26.707l-1.414-1.414,5-5A1,1,0,0,1,48,20h2v2H48.414Z" style="fill:#ebb562"/><rect x="52" y="20" width="4" height="2" style="fill:#ebb562"/><rect x="49" y="24" width="7" height="2" style="fill:#ebb562"/><rect x="49" y="28" width="7" height="2" style="fill:#ebb562"/><rect x="49" y="32" width="2" height="2" style="fill:#ebb562"/><rect x="53" y="32" width="3" height="2" style="fill:#ebb562"/><rect x="49" y="36" width="4" height="2" style="fill:#ebb562"/><rect x="3" y="11" width="58" height="4" style="fill:#6e7a88"/><rect x="3" y="49" width="58" height="4" style="fill:#6e7a88"/><rect x="31" y="2" width="2" height="9" style="fill:#bfbfbf"/><path d="M33,56.184V53H31v3.184a3,3,0,1,0,2,0ZM32,60a1,1,0,1,1,1-1A1,1,0,0,1,32,60Z" style="fill:#bfbfbf"/><path d="M32,25V19a12.956,12.956,0,0,0-9.192,3.808L27.05,27.05A6.982,6.982,0,0,1,32,25Z" style="fill:#3b73a5"/><path d="M22.808,22.808A12.956,12.956,0,0,0,19,32h6a6.982,6.982,0,0,1,2.05-4.95Z" style="fill:#e4544f"/><path d="M32,25V19a12.956,12.956,0,0,1,9.192,3.808L36.95,27.05A6.982,6.982,0,0,0,32,25Z" style="fill:#ebb562"/><path d="M41.192,22.808A12.956,12.956,0,0,1,45,32H39a6.982,6.982,0,0,0-2.05-4.95Z" style="fill:#3b73a5"/><path d="M32,39v6a12.956,12.956,0,0,1-9.192-3.808L27.05,36.95A6.982,6.982,0,0,0,32,39Z" style="fill:#e4544f"/><path d="M22.808,41.192A12.956,12.956,0,0,1,19,32h6a6.982,6.982,0,0,0,2.05,4.95Z" style="fill:#3b73a5"/><path d="M32,39v6a12.956,12.956,0,0,0,9.192-3.808L36.95,36.95A6.982,6.982,0,0,1,32,39Z" style="fill:#ebb562"/><path d="M41.192,41.192A12.956,12.956,0,0,0,45,32H39a6.982,6.982,0,0,1-2.05,4.95Z" style="fill:#e4544f"/><path d="M17,42H12a1,1,0,0,1-1-1V37h2v3h3.586l2.707-2.707,1.414,1.414-3,3A1,1,0,0,1,17,42Z" style="fill:#ebb562"/><path d="M15,37H9V21a2,2,0,0,1,2-2h2a2,2,0,0,1,2,2Z" style="fill:#e4544f"/><path d="M11,19h2a2,2,0,0,1,2,2v6a0,0,0,0,1,0,0H9a0,0,0,0,1,0,0V21A2,2,0,0,1,11,19Z" style="fill:#69b1d5"/><path d="M33,2H31v8H2v6H4V48H2v6H31v2.184a3,3,0,1,0,2,0V54H62V48H60V16h2V10H33ZM32,60a1,1,0,1,1,1-1A1,1,0,0,1,32,60Zm28-8H4V50H60ZM6,48V16H58V48ZM60,12v2H4V12Z"/><path d="M50,22V20H48a1,1,0,0,0-.707.293l-3.768,3.768A14,14,0,0,0,19.112,37.474L16.586,40H13V38h3V21a3,3,0,0,0-3-3H11a3,3,0,0,0-3,3V38h3v4h6.414l2.67-2.67A14.054,14.054,0,0,0,22.1,41.9,13.993,13.993,0,0,0,44.567,25.848L48.414,22ZM10,21a1,1,0,0,1,1-1h2a1,1,0,0,1,1,1v5H10Zm0,15V28h4v8ZM33,20.041a11.884,11.884,0,0,1,6.749,2.795l-2.843,2.843A7.905,7.905,0,0,0,33,24.062Zm-2,0v4.021a7.9,7.9,0,0,0-3.906,1.618l-2.843-2.843A11.886,11.886,0,0,1,31,20.041Zm-8.163,4.21,2.843,2.843A7.9,7.9,0,0,0,24.062,31H20.041A11.886,11.886,0,0,1,22.837,24.251ZM20.041,33h4.021a7.9,7.9,0,0,0,1.618,3.906l-2.843,2.843A11.886,11.886,0,0,1,20.041,33ZM31,43.959a11.886,11.886,0,0,1-6.749-2.8l2.843-2.843A7.9,7.9,0,0,0,31,39.938Zm-3.242-7.717A6,6,0,1,1,32,38,5.956,5.956,0,0,1,27.758,36.242ZM33,43.959V39.938a7.9,7.9,0,0,0,3.906-1.618l2.843,2.843A11.886,11.886,0,0,1,33,43.959Zm8.163-4.21L38.32,36.906A7.9,7.9,0,0,0,39.938,33h4.021A11.886,11.886,0,0,1,41.163,39.749ZM39.938,31a7.907,7.907,0,0,0-1.618-3.906l2.843-2.843A11.879,11.879,0,0,1,43.959,31Z"/><rect x="52" y="20" width="4" height="2"/><rect x="49" y="24" width="7" height="2"/><rect x="49" y="28" width="7" height="2"/><rect x="49" y="32" width="2" height="2"/><rect x="53" y="32" width="3" height="2"/><rect x="49" y="36" width="4" height="2"/></g></svg>
