<?xml version="1.0"?>
<svg xmlns="http://www.w3.org/2000/svg" viewBox="0 0 64 64" width="512" height="512"><g id="Filled_outline" data-name="Filled outline"><rect x="14" y="36" width="22" height="8" style="fill:#6e7a88"/><circle cx="25" cy="22" r="19" style="fill:#e4544f"/><circle cx="25" cy="22" r="7" style="fill:#f1d77e"/><path d="M25,38C9.183,38,9,22.16,9,22h2c0,.571.2,14,14,14Z" style="fill:#f98c96"/><rect x="27" y="36" width="2" height="2" style="fill:#f98c96"/><rect x="11" y="44" width="28" height="17" style="fill:#98a5a6"/><path d="M51,26V45a5,5,0,0,1-5,5H39v4h8a8,8,0,0,0,8-8V26Z" style="fill:#113142"/><rect x="16" y="48" width="18" height="4" style="fill:#113142"/><path d="M46.071,13.372c-1.88-4.7-6.648-8.553-6.7-8.591l1.25-1.562c.212.17,5.229,4.224,7.3,9.409Z" style="fill:#bfbfbf"/><path d="M51.071,14.372a29.82,29.82,0,0,0-5.778-8.665l1.414-1.414a31.467,31.467,0,0,1,6.222,9.335Z" style="fill:#bfbfbf"/><circle cx="53" cy="24" r="5" style="fill:#ebb562"/><path d="M25,2A19.975,19.975,0,0,0,13,37.962V43H10V62H40V55h7a9.011,9.011,0,0,0,9-9V29.188a6,6,0,1,0-6,0V45a4,4,0,0,1-4,4H40V43H37V37.962A19.975,19.975,0,0,0,25,2ZM49,24a4,4,0,1,1,4,4A4,4,0,0,1,49,24ZM40,51h6a6.006,6.006,0,0,0,6-6V29.91a5.6,5.6,0,0,0,2,0V46a7.008,7.008,0,0,1-7,7H40Zm-2-6V60H12V45ZM15,43V39.294a19.83,19.83,0,0,0,20,0V43Zm10-3A18,18,0,1,1,43,22,18.021,18.021,0,0,1,25,40Z"/><path d="M25,14a8,8,0,1,0,8,8A8.009,8.009,0,0,0,25,14Zm0,14a6,6,0,1,1,6-6A6.006,6.006,0,0,1,25,28Z"/><path d="M11,22H9c0,.16.183,16,16,16V36C11.2,36,11,22.57,11,22Z"/><rect x="27" y="36" width="2" height="2"/><path d="M15,53H35V47H15Zm2-4H33v2H17Z"/><path d="M40.625,3.219l-1.25,1.562c.048.038,4.816,3.889,6.7,8.591l1.858-.744C45.854,7.443,40.837,3.389,40.625,3.219Z"/><path d="M52.929,13.628a31.467,31.467,0,0,0-6.222-9.335L45.293,5.707a29.82,29.82,0,0,1,5.778,8.665Z"/></g></svg>
