<?xml version="1.0"?>
<svg xmlns="http://www.w3.org/2000/svg" viewBox="0 0 64 64" width="512" height="512"><g id="Filled_outline" data-name="Filled outline"><rect x="13" y="15" width="38" height="20" style="fill:#fef59c"/><path d="M17,3H47a4,4,0,0,1,4,4v8a0,0,0,0,1,0,0H13a0,0,0,0,1,0,0V7A4,4,0,0,1,17,3Z" style="fill:#ffd782"/><path d="M12,39h9a0,0,0,0,1,0,0V51a0,0,0,0,1,0,0H10a0,0,0,0,1,0,0V41A2,2,0,0,1,12,39Z" style="fill:#ffd782"/><rect x="13" y="35" width="5" height="4" style="fill:#d9833b"/><rect x="46" y="35" width="5" height="4" transform="translate(97 74) rotate(-180)" style="fill:#d9833b"/><rect x="8" y="51" width="48" height="4" style="fill:#113142"/><path d="M10,55h6a0,0,0,0,1,0,0v4a2,2,0,0,1-2,2H12a2,2,0,0,1-2-2V55A0,0,0,0,1,10,55Z" style="fill:#6e7a88"/><path d="M48,55h6a0,0,0,0,1,0,0v4a2,2,0,0,1-2,2H50a2,2,0,0,1-2-2V55A0,0,0,0,1,48,55Z" style="fill:#6e7a88"/><circle cx="16" cy="45" r="2" style="fill:#e97424"/><path d="M43,39H54a0,0,0,0,1,0,0V51a0,0,0,0,1,0,0H45a2,2,0,0,1-2-2V39A0,0,0,0,1,43,39Z" transform="translate(97 90) rotate(-180)" style="fill:#ffd782"/><circle cx="48" cy="45" r="2" style="fill:#e97424"/><polygon points="18 35 18 39 21 39 21 51 43 51 43 39 46 39 46 35 18 35" style="fill:#fcf05a"/><rect x="25" y="38" width="6" height="2" style="fill:#e97424"/><rect x="25" y="42" width="6" height="2" style="fill:#e97424"/><rect x="25" y="46" width="6" height="2" style="fill:#e97424"/><rect x="33" y="38" width="6" height="2" style="fill:#e97424"/><rect x="33" y="42" width="6" height="2" style="fill:#e97424"/><rect x="33" y="46" width="6" height="2" style="fill:#e97424"/><circle cx="19" cy="9" r="2" style="fill:#e97424"/><circle cx="45" cy="9" r="2" style="fill:#e97424"/><rect x="25" y="7" width="14" height="4" style="fill:#e97424"/><path d="M21,19H43a4,4,0,0,1,4,4V35a0,0,0,0,1,0,0H17a0,0,0,0,1,0,0V23A4,4,0,0,1,21,19Z" style="fill:#cfdfe8"/><rect x="39.757" y="27" width="8.485" height="2" transform="translate(-6.912 39.314) rotate(-45)" style="fill:#f4f4e6"/><rect x="41.172" y="21" width="5.657" height="2" transform="translate(-2.669 37.556) rotate(-45)" style="fill:#f4f4e6"/><rect x="38.586" y="25" width="2.828" height="2" transform="translate(-6.669 35.899) rotate(-45)" style="fill:#f4f4e6"/><rect x="55" y="25" width="4" height="6" style="fill:#ffd782"/><polygon points="58 36 51 36 51 34 56 34 56 31 58 31 58 36" style="fill:#113142"/><rect x="5" y="25" width="4" height="6" transform="translate(14 56) rotate(-180)" style="fill:#ffd782"/><polygon points="13 36 6 36 6 31 8 31 8 34 13 34 13 36" style="fill:#113142"/><path d="M16,48a3,3,0,1,0-3-3A3,3,0,0,0,16,48Zm0-4a1,1,0,1,1-1,1A1,1,0,0,1,16,44Z"/><path d="M45,45a3,3,0,1,0,3-3A3,3,0,0,0,45,45Zm3-1a1,1,0,1,1-1,1A1,1,0,0,1,48,44Z"/><rect x="25" y="38" width="6" height="2"/><rect x="25" y="42" width="6" height="2"/><rect x="25" y="46" width="6" height="2"/><rect x="33" y="38" width="6" height="2"/><rect x="33" y="42" width="6" height="2"/><rect x="33" y="46" width="6" height="2"/><path d="M19,6a3,3,0,1,0,3,3A3,3,0,0,0,19,6Zm0,4a1,1,0,1,1,1-1A1,1,0,0,1,19,10Z"/><path d="M45,6a3,3,0,1,0,3,3A3,3,0,0,0,45,6Zm0,4a1,1,0,1,1,1-1A1,1,0,0,1,45,10Z"/><path d="M24,12H40V6H24Zm2-4H38v2H26Z"/><rect x="38.586" y="25" width="2.828" height="2" transform="translate(-6.669 35.899) rotate(-45)"/><path d="M6,36h6v2a3,3,0,0,0-3,3v9H7v6H9v3a3,3,0,0,0,3,3h2a3,3,0,0,0,3-3V56H47v3a3,3,0,0,0,3,3h2a3,3,0,0,0,3-3V56h2V50H55V41a3,3,0,0,0-3-3V36h6V32h2V24H54v8h2v2H52V7a5.006,5.006,0,0,0-5-5H17a5.006,5.006,0,0,0-5,5V34H8V32h2V24H4v8H6ZM56,26h2v4H56ZM15,59a1,1,0,0,1-1,1H12a1,1,0,0,1-1-1V56h4Zm38,0a1,1,0,0,1-1,1H50a1,1,0,0,1-1-1V56h4Zm2-7v2H9V52ZM42.707,24.707,45.7,21.715A2.951,2.951,0,0,1,46,23v1.586l-5.707,5.707,1.414,1.414L46,27.414V34H26.414l5.293-5.293-1.414-1.414L23.586,34H19.414l5.293-5.293-1.414-1.414L18,32.586V23a3,3,0,0,1,3-3H43a2.951,2.951,0,0,1,1.285.3l-2.992,2.992ZM19,36H45v2H42V50H22V38H19Zm33,4a1,1,0,0,1,1,1v9H44V40Zm-5-2V36h3v2ZM14,7a3,3,0,0,1,3-3H47a3,3,0,0,1,3,3v7H14Zm0,9H50V34H48V23a5.006,5.006,0,0,0-5-5H21a5.006,5.006,0,0,0-5,5V34H14Zm0,20h3v2H14Zm6,4V50H11V41a1,1,0,0,1,1-1ZM6,26H8v4H6Z"/></g></svg>
