<?xml version="1.0"?>
<svg xmlns="http://www.w3.org/2000/svg" viewBox="0 0 64 64" width="512" height="512"><g id="Filled_outline" data-name="Filled outline"><rect x="31" y="10" width="2" height="16" style="fill:#6e7a88"/><polygon points="47 29 32 23 17 29 17 34 32 28 47 34 47 29" style="fill:#e4544f"/><polygon points="22 47 3 47 6 41 22 41 22 47" style="fill:#e4544f"/><polygon points="42 47 61 47 58 41 42 41 42 47" style="fill:#e4544f"/><polygon points="42 61 22 61 22 32 32 28 42 32 42 61" style="fill:#f1d77e"/><rect x="26" y="47" width="6" height="14" style="fill:#d9833b"/><rect x="32" y="47" width="6" height="14" style="fill:#ebb562"/><rect x="6" y="47" width="16" height="14" style="fill:#d9833b"/><rect x="42" y="47" width="16" height="14" transform="translate(100 108) rotate(-180)" style="fill:#d9833b"/><rect x="29" y="53" width="6" height="2" style="fill:#fff"/><circle cx="32" cy="36" r="3" style="fill:#e4544f"/><rect x="6" y="51" width="16" height="6" style="fill:#e8e8e8"/><rect x="42" y="51" width="16" height="6" style="fill:#e8e8e8"/><polygon points="45.618 10 31 10 31 20 45.618 20 43.118 15 45.618 10" style="fill:#de463e"/><path d="M26.852,20A3.807,3.807,0,0,0,27,19a4.09,4.09,0,0,0-4.174-4,4.273,4.273,0,0,0-1.322.225A6.238,6.238,0,0,0,15.522,11a6.208,6.208,0,0,0-6.094,4.642A4.277,4.277,0,0,0,7.174,15,4.09,4.09,0,0,0,3,19a3.807,3.807,0,0,0,.148,1Z" style="fill:#69b1d5"/><circle cx="55" cy="9" r="6" style="fill:#ffd782"/><rect x="8.379" y="54.5" width="4.243" height="2" transform="translate(-36.169 23.68) rotate(-45)" style="fill:#bfbfbf"/><rect x="13.379" y="54.5" width="4.243" height="2" transform="translate(-34.705 27.216) rotate(-45)" style="fill:#bfbfbf"/><rect x="45.379" y="54.5" width="4.243" height="2" transform="translate(-25.332 49.843) rotate(-45)" style="fill:#bfbfbf"/><rect x="50.379" y="54.5" width="4.243" height="2" transform="translate(-23.868 53.379) rotate(-45)" style="fill:#bfbfbf"/><rect x="30" y="42" width="4" height="2" style="fill:#e4544f"/><rect x="36" y="42" width="2" height="2" style="fill:#e4544f"/><rect x="26" y="42" width="2" height="2" style="fill:#e4544f"/><path d="M16,35.477l5-2V40H6a1,1,0,0,0-.895.553l-3,6A1,1,0,0,0,3,48H5V62H59V48h2a1,1,0,0,0,.9-1.447l-3-6A1,1,0,0,0,58,40H43V33.477l5,2V28.323l-15-6V20H45.618l-2.5-5,2.5-5H31V22.323l-15,6ZM21,60H7V58H21Zm0-4H16.414l1.293-1.293-1.414-1.414L13.586,56H11.414l1.293-1.293-1.414-1.414L8.586,56H7V52H21Zm0-6H7V48H21Zm0-4H4.618l2-4H21ZM33,12h9.382l-1.5,3,1.5,3H33ZM31,53H29v2h2v5H27V48h4Zm6,7H33V55h2V53H33V48h4Zm4,0H39V46H25V60H23V32.677l9-3.6,9,3.6Zm16,0H43V58H57Zm0-4H53.414l1.293-1.293-1.414-1.414L50.586,56H48.414l1.293-1.293-1.414-1.414L45.586,56H43V52H57Zm0-6H43V48H57Zm.382-8,2,4H43V42ZM18,29.677l14-5.6,14,5.6v2.846l-14-5.6-14,5.6Z"/><path d="M28,36a4,4,0,1,0,4-4A4,4,0,0,0,28,36Zm6,0a2,2,0,1,1-2-2A2,2,0,0,1,34,36Z"/><path d="M3.147,21H26.853a1,1,0,0,0,.965-.739A4.817,4.817,0,0,0,28,19a5.093,5.093,0,0,0-5.889-4.946A7.245,7.245,0,0,0,15.521,10a7.229,7.229,0,0,0-6.683,4.27A5.268,5.268,0,0,0,7.174,14,5.1,5.1,0,0,0,2,19a4.817,4.817,0,0,0,.182,1.261A1,1,0,0,0,3.147,21Zm4.027-5a3.284,3.284,0,0,1,1.729.493,1,1,0,0,0,1.5-.616A5.181,5.181,0,0,1,15.521,12a5.21,5.21,0,0,1,5.031,3.532,1,1,0,0,0,1.258.644A3.316,3.316,0,0,1,22.826,16,3.094,3.094,0,0,1,26,19H4A3.094,3.094,0,0,1,7.174,16Z"/><path d="M55,2a7,7,0,1,0,7,7A7.008,7.008,0,0,0,55,2Zm0,12a5,5,0,1,1,5-5A5.006,5.006,0,0,1,55,14Z"/><rect x="30" y="42" width="4" height="2"/><rect x="36" y="42" width="2" height="2"/><rect x="26" y="42" width="2" height="2"/></g></svg>
