<?xml version="1.0"?>
<svg xmlns="http://www.w3.org/2000/svg" viewBox="0 0 64 64" width="512" height="512"><g id="Filled_outline" data-name="Filled outline"><rect x="3" y="49" width="58" height="12" style="fill:#67c086"/><circle cx="9" cy="55" r="2" style="fill:#3e8051"/><path d="M3,5V45H43ZM9,18,30,39H9Z" style="fill:#f3bb59"/><path d="M7,3,61,32V3ZM57,24,24,7H57Z" style="fill:#e4544f"/><rect x="20" y="49" width="2" height="5" style="fill:#3e8051"/><rect x="24" y="49" width="2" height="5" style="fill:#3e8051"/><rect x="28" y="49" width="2" height="5" style="fill:#3e8051"/><rect x="32" y="49" width="2" height="5" style="fill:#3e8051"/><rect x="40" y="49" width="2" height="5" style="fill:#3e8051"/><rect x="44" y="49" width="2" height="5" style="fill:#3e8051"/><rect x="48" y="49" width="2" height="5" style="fill:#3e8051"/><rect x="52" y="49" width="2" height="5" style="fill:#3e8051"/><rect x="36" y="49" width="2" height="7" style="fill:#3e8051"/><rect x="16" y="49" width="2" height="7" style="fill:#3e8051"/><rect x="56" y="49" width="2" height="7" style="fill:#3e8051"/><rect x="3" y="38" width="3" height="2" style="fill:#fef59c"/><rect x="3" y="34" width="3" height="2" style="fill:#fef59c"/><rect x="3" y="30" width="3" height="2" style="fill:#fef59c"/><rect x="3" y="26" width="3" height="2" style="fill:#fef59c"/><rect x="3" y="22" width="3" height="2" style="fill:#fef59c"/><rect x="3" y="18" width="3" height="2" style="fill:#fef59c"/><rect x="28" y="42" width="2" height="3" style="fill:#fef59c"/><rect x="24" y="42" width="2" height="3" style="fill:#fef59c"/><rect x="20" y="42" width="2" height="3" style="fill:#fef59c"/><rect x="16" y="42" width="2" height="3" style="fill:#fef59c"/><rect x="12" y="42" width="2" height="3" style="fill:#fef59c"/><rect x="8" y="42" width="2" height="3" style="fill:#fef59c"/><path d="M2,62H62V48H2ZM4,50H16v6h2V50h2v4h2V50h2v4h2V50h2v4h2V50h2v4h2V50h2v6h2V50h2v4h2V50h2v4h2V50h2v4h2V50h2v4h2V50h2v6h2V50h2V60H4Z"/><path d="M9,52a3,3,0,1,0,3,3A3,3,0,0,0,9,52Zm0,4a1,1,0,1,1,1-1A1,1,0,0,1,9,56Z"/><path d="M3,46H43a1,1,0,0,0,.707-1.707l-40-40A1,1,0,0,0,2,5V45A1,1,0,0,0,3,46Zm1-6H6V38H4V36H6V34H4V32H6V30H4V28H6V26H4V24H6V22H4V20H6V18H4V7.414L40.586,44H30V42H28v2H26V42H24v2H22V42H20v2H18V42H16v2H14V42H12v2H10V42H8v2H4Z"/><path d="M9,40H30a1,1,0,0,0,.707-1.707l-21-21A1,1,0,0,0,8,18V39A1,1,0,0,0,9,40Zm1-19.586L27.586,38H10Z"/><path d="M61,2H7a1,1,0,0,0-.473,1.881l54,29A.994.994,0,0,0,61,33a1,1,0,0,0,1-1V3A1,1,0,0,0,61,2ZM60,30.328,10.976,4H60Z"/><path d="M23.542,7.889l33,17A1,1,0,0,0,58,24V7a1,1,0,0,0-1-1H24a1,1,0,0,0-.458,1.889ZM56,8V22.36L28.125,8Z"/></g></svg>
