<?xml version="1.0"?>
<svg xmlns="http://www.w3.org/2000/svg" viewBox="0 0 64 64" width="512" height="512"><g id="Filled_outline" data-name="Filled outline"><rect x="15" y="9" width="34" height="52" style="fill:#e4544f"/><rect x="19" y="43" width="26" height="14" style="fill:#f3bb59"/><path d="M31,13h2A12,12,0,0,1,45,25V39a0,0,0,0,1,0,0H19a0,0,0,0,1,0,0V25A12,12,0,0,1,31,13Z" style="fill:#f3bb59"/><circle cx="32" cy="26" r="9" style="fill:#113142"/><circle cx="32" cy="26" r="5" style="fill:#98a5a6"/><rect x="31" y="21" width="2" height="3" style="fill:#6e7a88"/><rect x="31" y="28" width="2" height="3" style="fill:#6e7a88"/><rect x="34" y="25" width="3" height="2" style="fill:#6e7a88"/><rect x="27" y="25" width="3" height="2" style="fill:#6e7a88"/><polygon points="42 54 38 54 38 52 40 52 40 47 42 47 42 54" style="fill:#fff"/><rect x="34" y="52" width="2" height="2" style="fill:#fff"/><rect x="19" y="3" width="8" height="6" style="fill:#113142"/><rect x="37" y="3" width="8" height="6" style="fill:#113142"/><path d="M18,58H46V42H18Zm2-14H44V56H20Z"/><path d="M18,25V40H46V25A13.015,13.015,0,0,0,33,12H31A13.015,13.015,0,0,0,18,25ZM31,14h2A11.013,11.013,0,0,1,44,25V38H20V25A11.013,11.013,0,0,1,31,14Z"/><path d="M32,36A10,10,0,1,0,22,26,10.011,10.011,0,0,0,32,36Zm0-18a8,8,0,1,1-8,8A8.009,8.009,0,0,1,32,18Z"/><path d="M32,32a6,6,0,1,0-6-6A6.006,6.006,0,0,0,32,32Zm-3.858-7A4,4,0,0,1,31,22.142V24h2V22.142A4,4,0,0,1,35.858,25H34v2h1.858A4,4,0,0,1,33,29.858V28H31v1.858A4,4,0,0,1,28.142,27H30V25Z"/><polygon points="40 52 38 52 38 54 42 54 42 47 40 47 40 52"/><rect x="34" y="52" width="2" height="2"/><path d="M18,2V8H14V62H50V8H46V2H36V8H28V2Zm2,2h6V8H20ZM38,4h6V8H38Zm10,6V60H16V10Z"/></g></svg>
