<?xml version="1.0"?>
<svg xmlns="http://www.w3.org/2000/svg" viewBox="0 0 64 64" width="512" height="512"><g id="Filled_outline" data-name="Filled outline"><path d="M3,9v4H7V9A2,2,0,0,1,9,7h2a2,2,0,0,1,2,2V34h4V9a6,6,0,0,0-6-6H9A6,6,0,0,0,3,9Z" style="fill:#bfbfbf"/><path d="M21,9v4h4V9a2,2,0,0,1,2-2h2a2,2,0,0,1,2,2V34h4V9a6,6,0,0,0-6-6H27A6,6,0,0,0,21,9Z" style="fill:#bfbfbf"/><rect x="17" y="18" width="14" height="4" style="fill:#6e7a88"/><rect x="17" y="26" width="14" height="4" style="fill:#6e7a88"/><rect x="3" y="34" width="58" height="27" style="fill:#cdeef6"/><path d="M50,7A11,11,0,1,0,61,18,11,11,0,0,0,50,7Zm0,17a6,6,0,1,1,6-6A6,6,0,0,1,50,24Z" style="fill:#e4544f"/><path d="M61,38c-3.627,0-3.373,5-7,5s-3.373-5-7-5-4.375,5-8,5-3.374-5-7-5-3.375,5-7,5-3.376-5-7-5-4.376,5-8,5-3.376-5-7-5V61H61Z" style="fill:#69b1d5"/><rect x="15" y="46" width="5" height="2" style="fill:#cdeef6"/><rect x="23" y="52" width="4" height="2" style="fill:#cdeef6"/><rect x="32" y="47" width="4" height="2" style="fill:#cdeef6"/><rect x="42" y="54" width="4" height="2" style="fill:#cdeef6"/><rect x="50" y="48" width="4" height="2" style="fill:#cdeef6"/><path d="M44,18a5.971,5.971,0,0,1,.349-2H39.19a10.621,10.621,0,0,0,0,4h5.159A5.971,5.971,0,0,1,44,18Z" style="fill:#f4f4e6"/><path d="M60.81,16H55.651a5.905,5.905,0,0,1,0,4H60.81a10.621,10.621,0,0,0,0-4Z" style="fill:#f4f4e6"/><path d="M36,9a7.009,7.009,0,0,0-7-7H27a7.009,7.009,0,0,0-7,7v5h6V9a1,1,0,0,1,1-1h2a1,1,0,0,1,1,1v8H18V9a7.009,7.009,0,0,0-7-7H9A7.009,7.009,0,0,0,2,9v5H8V9A1,1,0,0,1,9,8h2a1,1,0,0,1,1,1V33H2V62H62V33H36ZM29,6H27a3,3,0,0,0-3,3v3H22V9a5.006,5.006,0,0,1,5-5h2a5.006,5.006,0,0,1,5,5V33H32V9A3,3,0,0,0,29,6ZM18,19H30v2H18Zm0,4H30v2H18Zm0,4H30v2H18Zm0,4H30v2H18ZM11,6H9A3,3,0,0,0,6,9v3H4V9A5.006,5.006,0,0,1,9,4h2a5.006,5.006,0,0,1,5,5V33H14V9A3,3,0,0,0,11,6ZM60,60H4V39.222A5.141,5.141,0,0,1,5.671,41.06C6.556,42.369,7.656,44,10,44c2.266,0,3.587-1.51,4.753-2.842C15.767,40,16.642,39,18,39c1.221,0,1.783.744,2.671,2.06S22.656,44,25,44s3.444-1.631,4.329-2.94S30.778,39,32,39s1.783.744,2.671,2.06S36.655,44,39,44c2.267,0,3.587-1.51,4.753-2.842C44.766,40,45.642,39,47,39c1.223,0,1.784.744,2.671,2.06S51.655,44,54,44s3.445-1.631,4.329-2.94A5.141,5.141,0,0,1,60,39.222Zm0-25v2.123a5.74,5.74,0,0,0-3.329,2.817C55.784,41.256,55.223,42,54,42s-1.784-.744-2.671-2.06S49.345,37,47,37c-2.267,0-3.587,1.51-4.753,2.842C41.234,41,40.358,42,39,42c-1.222,0-1.783-.744-2.671-2.06S34.345,37,32,37s-3.444,1.631-4.329,2.94S26.222,42,25,42s-1.783-.744-2.671-2.06S20.344,37,18,37c-2.266,0-3.587,1.51-4.753,2.842C12.233,41,11.358,42,10,42c-1.221,0-1.783-.744-2.671-2.06A5.746,5.746,0,0,0,4,37.123V35Z"/><rect x="15" y="46" width="5" height="2"/><rect x="23" y="52" width="4" height="2"/><rect x="32" y="47" width="4" height="2"/><rect x="42" y="54" width="4" height="2"/><rect x="50" y="48" width="4" height="2"/><path d="M50,6A12,12,0,1,0,62,18,12.013,12.013,0,0,0,50,6Zm0,2a10.018,10.018,0,0,1,9.539,7H56.315a6.985,6.985,0,0,0-12.63,0H40.461A10.018,10.018,0,0,1,50,8ZM60,18a10.007,10.007,0,0,1-.051,1H56.92a6.29,6.29,0,0,0,0-2h3.029A10.007,10.007,0,0,1,60,18Zm-5,0a5,5,0,1,1-5-5A5.006,5.006,0,0,1,55,18ZM43.08,19H40.051a9.829,9.829,0,0,1,0-2H43.08a6.29,6.29,0,0,0,0,2ZM50,28a10.018,10.018,0,0,1-9.539-7h3.224a6.985,6.985,0,0,0,12.63,0h3.224A10.018,10.018,0,0,1,50,28Z"/></g></svg>
