<?xml version="1.0"?>
<svg xmlns="http://www.w3.org/2000/svg" viewBox="0 0 64 64" width="512" height="512"><g id="Filled_outline" data-name="Filled outline"><polygon points="48 31 17 29 17 19 48 17 48 31" style="fill:#113142"/><rect x="9" y="19" width="4" height="10" style="fill:#113142"/><polygon points="25 61 21 61 27 41 31 41 25 61" style="fill:#98a5a6"/><polygon points="39 61 43 61 37 41 33 41 39 61" style="fill:#98a5a6"/><rect x="27" y="37" width="10" height="4" style="fill:#113142"/><path d="M31,27h2a4,4,0,0,1,4,4v6a0,0,0,0,1,0,0H27a0,0,0,0,1,0,0V31A4,4,0,0,1,31,27Z" style="fill:#98a5a6"/><circle cx="32" cy="32" r="2" style="fill:#fff"/><rect x="13" y="17" width="4" height="14" style="fill:#98a5a6"/><rect x="3" y="22" width="6" height="4" style="fill:#98a5a6"/><path d="M61,24a7,7,0,0,1-7,7V17A7,7,0,0,1,61,24Z" style="fill:#cdeef6"/><rect x="48" y="15" width="6" height="18" style="fill:#98a5a6"/><rect x="43" y="20" width="2" height="2" style="fill:#fff"/><rect x="39" y="22" width="2" height="2" style="fill:#fff"/><path d="M32,29a3,3,0,1,0,3,3A3,3,0,0,0,32,29Zm0,4a1,1,0,1,1,1-1A1,1,0,0,1,32,33Z"/><path d="M55,16.069V14H47v2.063l-29,1.87V16H12v2H8v3H2v6H8v3h4v2h6V30.066l8.042.519c-.012.139-.042.273-.042.415v9.853L19.656,62h6.088l6-20h.512l6,20h6.088L38,40.853V31.361l9,.577V34h8V31.931a7.993,7.993,0,0,0,0-15.862ZM8,25H4V23H8Zm4,3H10V20h2Zm4-9.938V30H14V18h2ZM24.256,60H22.344l5.4-18h1.912ZM28,40V38h8v2Zm0-4V31a3,3,0,0,1,3-3h2a3,3,0,0,1,3,3v5ZM41.656,60H39.744l-5.4-18h1.912ZM47,29.934l-9.306-.6A4.991,4.991,0,0,0,33,26H31a4.985,4.985,0,0,0-4.369,2.619L18,28.062V19.938l29-1.872ZM53,32H49V16h4Zm2-2.083V18.083a6,6,0,0,1,0,11.834Z"/><rect x="43" y="20" width="2" height="2"/><rect x="39" y="22" width="2" height="2"/></g></svg>
