<?xml version="1.0"?>
<svg xmlns="http://www.w3.org/2000/svg" viewBox="0 0 64 64" width="512" height="512"><g id="Filled_outline" data-name="Filled outline"><path d="M13,24v2H27V24H47V34a10,10,0,0,1-20,0H9V24Z" style="fill:#e4544f"/><rect x="19" y="13" width="2" height="6" style="fill:#f3bb59"/><rect x="13" y="15.172" width="2" height="5.657" transform="translate(-8.627 15.172) rotate(-45)" style="fill:#f3bb59"/><rect x="23.172" y="17" width="5.657" height="2" transform="translate(-5.113 23.657) rotate(-45)" style="fill:#f3bb59"/><rect x="3" y="24" width="6" height="10" transform="translate(12 58) rotate(-180)" style="fill:#f3bb59"/><path d="M54.87,27a4.078,4.078,0,0,0-1.04-1.83A4.025,4.025,0,0,0,51,24H47v8h4a3.657,3.657,0,0,0,1-.13A3.976,3.976,0,0,0,54.87,29a3.911,3.911,0,0,0,0-2Z" style="fill:#bfbfbf"/><path d="M62,34V46a6,6,0,0,1-12,0V28h2V46a4,4,0,0,0,8,0V34a5,5,0,0,0-5-5h-.13a3.911,3.911,0,0,0,0-2H55A7.008,7.008,0,0,1,62,34Z" style="fill:#113142"/><circle cx="37" cy="34" r="6" style="fill:#f3bb59"/><rect x="13" y="34" width="10" height="4" style="fill:#f3bb59"/><rect x="19" y="13" width="2" height="6"/><rect x="13" y="15.172" width="2" height="5.657" transform="translate(-8.627 15.172) rotate(-45)"/><rect x="23.172" y="17" width="5.657" height="2" transform="translate(-5.113 23.657) rotate(-45)"/><path d="M55.906,27.065A5,5,0,0,0,51,23H26v2H14V23H2V35H12v4H24V35h2.045A11,11,0,0,0,48,34V33h2V46a6,6,0,0,0,12,0V34A7.007,7.007,0,0,0,55.906,27.065ZM8,33H4V25H8Zm14,4H14V35h8Zm24-4v1a9,9,0,0,1-18,0V33H10V25h2v2H28V25H46Zm4-5v3H48V25h3a2.993,2.993,0,0,1,1,5.816V28ZM60,46a4,4,0,0,1-8,0V32.9a5.012,5.012,0,0,0,3.873-3.811A5,5,0,0,1,60,34Z"/><path d="M37,41a7,7,0,1,0-7-7A7.008,7.008,0,0,0,37,41Zm0-12a5,5,0,1,1-5,5A5.006,5.006,0,0,1,37,29Z"/></g></svg>
