<?xml version="1.0"?>
<svg xmlns="http://www.w3.org/2000/svg" viewBox="0 0 64 64" width="512" height="512"><g id="flat"><path d="M13,62H11c0-2.508,1.49-3.948,2.805-5.219C14.982,55.643,16,54.66,16,53c0-1.591-.931-2.3-2.108-3.206C12.6,48.807,11,47.577,11,45s1.6-3.806,2.892-4.794C15.069,39.3,16,38.589,16,37h2c0,2.576-1.6,3.806-2.892,4.794C13.931,42.7,13,43.411,13,45s.931,2.3,2.108,3.206C16.4,49.193,18,50.423,18,53c0,2.508-1.49,3.948-2.8,5.219C14.018,59.357,13,60.34,13,62Z" style="fill:#394d5c"/><path d="M46,62H44a3.281,3.281,0,0,1,1.979-2.854C46.782,58.655,47,58.458,47,58a3.2,3.2,0,0,0-.817-1.923A5.078,5.078,0,0,1,45,53a3.284,3.284,0,0,1,1.979-2.854C47.782,49.655,48,49.457,48,49h2a3.284,3.284,0,0,1-1.979,2.854C47.218,52.345,47,52.543,47,53a3.2,3.2,0,0,0,.817,1.923A5.078,5.078,0,0,1,49,58a3.281,3.281,0,0,1-1.979,2.854C46.218,61.345,46,61.542,46,62Z" style="fill:#394d5c"/><ellipse cx="17" cy="20" rx="15" ry="18" style="fill:#e4544f"/><ellipse cx="47" cy="32" rx="15" ry="18" style="fill:#e4544f"/><ellipse cx="12" cy="16" rx="3" ry="4" style="fill:#ffd782"/><ellipse cx="22" cy="18" rx="3" ry="4" style="fill:#ffd782"/><path d="M8,23a26.214,26.214,0,0,0,17,2s-2,7-9,7S8,23,8,23Z" style="fill:#ffd782"/><path d="M55,39a26.214,26.214,0,0,0-17-2s2-7,9-7S55,39,55,39Z" style="fill:#ffd782"/><ellipse cx="44" cy="23" rx="2" ry="3" style="fill:#ffd782"/><ellipse cx="52" cy="24" rx="2" ry="3" style="fill:#ffd782"/><rect x="18" y="7" width="2" height="2" style="fill:#fff"/><rect x="22" y="9" width="2" height="2" style="fill:#fff"/><rect x="46" y="44" width="2" height="2" style="fill:#fff"/><rect x="42" y="42" width="2" height="2" style="fill:#fff"/><path d="M32,44a4,4,0,0,1-4-4,1,1,0,0,0-2,0,4,4,0,0,1-4,4,1,1,0,0,0,0,2,4,4,0,0,1,4,4,1,1,0,0,0,2,0,4,4,0,0,1,4-4,1,1,0,0,0,0-2Zm-5,2.69A6.044,6.044,0,0,0,25.31,45,6.044,6.044,0,0,0,27,43.31,6.044,6.044,0,0,0,28.69,45,6.044,6.044,0,0,0,27,46.69Z" style="fill:#e97131"/><path d="M44,7a4,4,0,0,1-4-4,1,1,0,0,0-2,0,4,4,0,0,1-4,4,1,1,0,0,0,0,2,4,4,0,0,1,4,4,1,1,0,0,0,2,0,4,4,0,0,1,4-4,1,1,0,0,0,0-2ZM39,9.69A6.044,6.044,0,0,0,37.31,8,6.044,6.044,0,0,0,39,6.31,6.044,6.044,0,0,0,40.69,8,6.044,6.044,0,0,0,39,9.69Z" style="fill:#e97131"/></g></svg>
