<?xml version="1.0"?>
<svg xmlns="http://www.w3.org/2000/svg" viewBox="0 0 64 64" width="512" height="512"><g id="flat"><rect x="12" y="16" width="40" height="28" rx="8" ry="8" style="fill:#e4544f"/><circle cx="23" cy="27" r="7" style="fill:#fff"/><circle cx="41" cy="27" r="7" style="fill:#fff"/><path d="M16.683,24H29.317a6.988,6.988,0,0,0-12.634,0Z" style="fill:#ffd782"/><path d="M16.683,30a6.988,6.988,0,0,0,12.634,0Z" style="fill:#ffd782"/><path d="M34.683,24H47.317a6.988,6.988,0,0,0-12.634,0Z" style="fill:#ffd782"/><path d="M34.683,30a6.988,6.988,0,0,0,12.634,0Z" style="fill:#ffd782"/><polygon points="12 36 4 41 7 34 3 30 7 26 4 19 12 24 12 36" style="fill:#394d5c"/><polygon points="52 36 60 41 57 34 61 30 57 26 60 19 52 24 52 36" style="fill:#394d5c"/><path d="M30,39h8a0,0,0,0,1,0,0v6a4,4,0,0,1-4,4h0a4,4,0,0,1-4-4V39a0,0,0,0,1,0,0Z" style="fill:#ffd782"/><rect x="33" y="44" width="2" height="5" style="fill:#f98c96"/><rect x="43.382" y="37" width="2.236" height="2" transform="translate(-9.389 60.808) rotate(-63.435)" style="fill:#f98c96"/><rect x="46.382" y="37" width="2.236" height="2" transform="translate(-7.731 63.491) rotate(-63.435)" style="fill:#f98c96"/><rect x="18.5" y="36.882" width="2" height="2.236" transform="translate(-14.935 12.732) rotate(-26.565)" style="fill:#f98c96"/><rect x="15.5" y="36.882" width="2" height="2.236" transform="translate(-15.252 11.391) rotate(-26.565)" style="fill:#f98c96"/><circle cx="23" cy="27" r="3" style="fill:#394d5c"/><circle cx="41" cy="27" r="3" style="fill:#394d5c"/><rect x="23" y="38" width="18" height="2" style="fill:#394d5c"/></g></svg>
