<?xml version="1.0"?>
<svg xmlns="http://www.w3.org/2000/svg" viewBox="0 0 64 64" width="512" height="512"><g id="flat"><rect x="15" y="27" width="30" height="10" style="fill:#f98c96"/><path d="M15,47H45a0,0,0,0,1,0,0v6a4,4,0,0,1-4,4H19a4,4,0,0,1-4-4V47a0,0,0,0,1,0,0Z" style="fill:#f98c96"/><rect x="15" y="3" width="46" height="4" style="fill:#d3843d"/><rect x="23" y="57" width="14" height="4" style="fill:#e4544f"/><rect x="23" y="13" width="14" height="4" style="fill:#f98c96"/><path d="M37,14H23a1,1,0,0,1-.819-1.573l7-10a1.036,1.036,0,0,1,1.638,0l7,10A1,1,0,0,1,37,14ZM24.92,12H35.08L30,4.744Z" style="fill:#394d5c"/><path d="M19,17H41a4,4,0,0,1,4,4v6a0,0,0,0,1,0,0H15a0,0,0,0,1,0,0V21a4,4,0,0,1,4-4Z" style="fill:#e4544f"/><rect x="15" y="37" width="30" height="10" style="fill:#e4544f"/><path d="M30,35a8,8,0,0,0,8-8H22A8,8,0,0,0,30,35Z" style="fill:#fff"/><path d="M27.184,27A2.962,2.962,0,0,0,27,28a3,3,0,0,0,6,0,2.962,2.962,0,0,0-.184-1Z" style="fill:#e4544f"/><path d="M30,19h0a8,8,0,0,1,8,8v0a0,0,0,0,1,0,0H22a0,0,0,0,1,0,0v0A8,8,0,0,1,30,19Z" style="fill:#394d5c"/><path d="M39,42s-12,0-12,8c0,9-17,8-17,8s-4,0-4-3,4-3,4-3,10,1,10-4c0-5.1,3-6,3-6Z" style="fill:#5a6470"/><rect x="19" y="41" width="22" height="2" style="fill:#394d5c"/><rect x="40" y="52" width="5" height="2" style="fill:#fff"/><rect x="36" y="52" width="2" height="2" style="fill:#fff"/><rect x="18" y="20" width="2" height="2" style="fill:#fff"/></g></svg>
