<?xml version="1.0"?>
<svg xmlns="http://www.w3.org/2000/svg" viewBox="0 0 64 64" width="512" height="512"><g id="flat"><rect x="14" y="52" width="36" height="9" style="fill:#e4544f"/><path d="M30,3h4A16,16,0,0,1,50,19V52a0,0,0,0,1,0,0H14a0,0,0,0,1,0,0V19A16,16,0,0,1,30,3Z" style="fill:#ffd782"/><path d="M12,52h2a0,0,0,0,1,0,0v9a0,0,0,0,1,0,0H6a0,0,0,0,1,0,0V58A6,6,0,0,1,12,52Z" style="fill:#73cac2"/><path d="M50,52h8a0,0,0,0,1,0,0v9a0,0,0,0,1,0,0H56a6,6,0,0,1-6-6V52A0,0,0,0,1,50,52Z" transform="translate(108 113) rotate(-180)" style="fill:#73cac2"/><path d="M40,29a6,6,0,0,0,6-6H34A6,6,0,0,0,40,29Z" style="fill:#fff"/><path d="M37.888,23a2.227,2.227,0,0,0-.138.75,2.25,2.25,0,0,0,4.5,0,2.227,2.227,0,0,0-.138-.75Z" style="fill:#e4544f"/><path d="M40,17h0a6,6,0,0,1,6,6v0a0,0,0,0,1,0,0H34a0,0,0,0,1,0,0v0A6,6,0,0,1,40,17Z" style="fill:#394d5c"/><path d="M24,29a6,6,0,0,0,6-6H18A6,6,0,0,0,24,29Z" style="fill:#fff"/><path d="M21.888,23a2.227,2.227,0,0,0-.138.75,2.25,2.25,0,0,0,4.5,0,2.227,2.227,0,0,0-.138-.75Z" style="fill:#e4544f"/><path d="M24,17h0a6,6,0,0,1,6,6v0a0,0,0,0,1,0,0H18a0,0,0,0,1,0,0v0A6,6,0,0,1,24,17Z" style="fill:#394d5c"/><polygon points="20 52 14 52 14 38 20 40 20 52" style="fill:#f1c056"/><polygon points="44 52 50 52 50 38 44 40 44 52" style="fill:#f1c056"/><circle cx="32" cy="31" r="5" style="fill:#e4544f"/><path d="M32,48a7.992,7.992,0,0,0,2-.262V40H30v7.738A7.992,7.992,0,0,0,32,48Z" style="fill:#e4544f"/><path d="M40,40H34v7.738A8,8,0,0,0,40,40Z" style="fill:#f98c96"/><path d="M30,47.738V40H24A8,8,0,0,0,30,47.738Z" style="fill:#f98c96"/><path d="M10,25h4a0,0,0,0,1,0,0v8a0,0,0,0,1,0,0H10a2,2,0,0,1-2-2V27A2,2,0,0,1,10,25Z" style="fill:#ebb562"/><rect x="11" y="28" width="3" height="2" style="fill:#fff69a"/><path d="M52,25h4a0,0,0,0,1,0,0v8a0,0,0,0,1,0,0H52a2,2,0,0,1-2-2V27A2,2,0,0,1,52,25Z" transform="translate(106 58) rotate(-180)" style="fill:#ebb562"/><rect x="50" y="28" width="3" height="2" style="fill:#fff69a"/><rect x="17.586" y="32" width="2.828" height="2" transform="translate(-17.77 23.101) rotate(-45)" style="fill:#f98c96"/><rect x="21.586" y="32" width="2.828" height="2" transform="translate(-16.598 25.929) rotate(-45)" style="fill:#f98c96"/><rect x="44" y="31.586" width="2" height="2.828" transform="translate(-10.154 41.485) rotate(-45)" style="fill:#f98c96"/><rect x="40" y="31.586" width="2" height="2.828" transform="translate(-11.326 38.657) rotate(-45)" style="fill:#f98c96"/><rect x="23" y="52" width="18" height="9" style="fill:#f98c96"/><rect x="14" y="57" width="9" height="4" style="fill:#ffd782"/><rect x="41" y="57" width="9" height="4" style="fill:#ffd782"/><rect x="25" y="9.228" width="2.001" height="8.544" transform="translate(4.23 33.104) rotate(-69.444)" style="fill:#394d5c"/><rect x="33.728" y="12.5" width="8.544" height="2.001" transform="translate(-2.32 14.216) rotate(-20.576)" style="fill:#394d5c"/><path d="M19,7a3.989,3.989,0,0,0-7.957-.422,4.011,4.011,0,1,0-.954,7.253,4,4,0,1,0,6.948-3.406A3.982,3.982,0,0,0,19,7Z" style="fill:#e4544f"/><path d="M45,7a3.989,3.989,0,0,1,7.957-.422,4.011,4.011,0,1,1,.954,7.253,4,4,0,1,1-6.948-3.406A3.982,3.982,0,0,1,45,7Z" style="fill:#e4544f"/></g></svg>
