<?xml version="1.0"?>
<svg xmlns="http://www.w3.org/2000/svg" viewBox="0 0 64 64" width="512" height="512"><g id="flat"><polygon points="42 61 22 61 14 15 20 3 44 3 50 15 42 61" style="fill:#394d5c"/><polygon points="19 15 26 57 38 57 45 15 41 7 23 7 19 15" style="fill:#bfbfbf"/><polygon points="40 15 34 15 34 11 30 11 30 15 24 15 24 19 30 19 30 39 34 39 34 19 40 19 40 15" style="fill:#143441"/><polygon points="35.82 54 32 54 32 52 34.18 52 36.02 42.804 37.98 43.196 35.82 54" style="fill:#fff"/><rect x="28" y="52" width="2" height="2" style="fill:#fff"/></g></svg>
