<?xml version="1.0"?>
<svg xmlns="http://www.w3.org/2000/svg" viewBox="0 0 64 64" width="512" height="512"><g id="flat"><path d="M24,3H40A16,16,0,0,1,56,19V42A15,15,0,0,1,41,57H23A15,15,0,0,1,8,42V19A16,16,0,0,1,24,3Z" style="fill:#e4544f"/><path d="M45.657,43H18.343a6,6,0,0,1-5.991-6.333l1.123-20.222A10,10,0,0,1,23.46,7H40.54a10,10,0,0,1,9.985,9.445l1.123,20.222A6,6,0,0,1,45.657,43Z" style="fill:#f4f4e6"/><rect x="24" y="57" width="16" height="4" style="fill:#ffd782"/><polygon points="28 18 18 14 20 11 30 15 28 18" style="fill:#143441"/><polygon points="36 18 46 14 44 11 34 15 36 18" style="fill:#143441"/><path d="M40,40a.994.994,0,0,1-.6-.2c-7.289-5.466-14.5-.225-14.8,0a1,1,0,0,1-1.2-1.6c.085-.064,8.7-6.377,17.2,0A1,1,0,0,1,40,40Z" style="fill:#143441"/><path d="M38,34s6,0,9-5v7A23.129,23.129,0,0,1,38,34Z" style="fill:#e4544f"/><path d="M26,34s-6,0-9-5v7A23.129,23.129,0,0,0,26,34Z" style="fill:#e4544f"/><path d="M13,47s2,6,10,6c0,0-3-3-3-6Z" style="fill:#f4f4e6"/><path d="M51,47s-2,6-10,6c0,0,3-3,3-6Z" style="fill:#f4f4e6"/><path d="M30,53s-6-1-6-6h4S28,51,30,53Z" style="fill:#f4f4e6"/><path d="M34,53s6-1,6-6H36S36,51,34,53Z" style="fill:#f4f4e6"/><path d="M40,29a6,6,0,0,0,6-6H34A6,6,0,0,0,40,29Z" style="fill:#ffd782"/><path d="M37.888,23a2.227,2.227,0,0,0-.138.75,2.25,2.25,0,0,0,4.5,0,2.227,2.227,0,0,0-.138-.75Z" style="fill:#e4544f"/><path d="M40,17h0a6,6,0,0,1,6,6v0a0,0,0,0,1,0,0H34a0,0,0,0,1,0,0v0A6,6,0,0,1,40,17Z" style="fill:#394d5c"/><path d="M24,29a6,6,0,0,0,6-6H18A6,6,0,0,0,24,29Z" style="fill:#ffd782"/><path d="M21.888,23a2.227,2.227,0,0,0-.138.75,2.25,2.25,0,0,0,4.5,0,2.227,2.227,0,0,0-.138-.75Z" style="fill:#e4544f"/><path d="M24,17h0a6,6,0,0,1,6,6v0a0,0,0,0,1,0,0H18a0,0,0,0,1,0,0v0A6,6,0,0,1,24,17Z" style="fill:#394d5c"/></g></svg>
