<?xml version="1.0"?>
<svg xmlns="http://www.w3.org/2000/svg" viewBox="0 0 64 64" width="512" height="512"><g id="flat"><path d="M30,12h4A16,16,0,0,1,50,28V61a0,0,0,0,1,0,0H14a0,0,0,0,1,0,0V28A16,16,0,0,1,30,12Z" style="fill:#e4544f"/><path d="M13,3A30.553,30.553,0,0,0,27,13a8.855,8.855,0,0,1-10,6S13,13,13,3Z" style="fill:#7d8d9c"/><path d="M51,3A30.553,30.553,0,0,1,37,13a8.855,8.855,0,0,0,10,6S51,13,51,3Z" style="fill:#7d8d9c"/><path d="M14,40H10a2,2,0,0,1-2-2L7,28l7,2Z" style="fill:#ffd782"/><path d="M50,40h4a2,2,0,0,0,2-2l1-10-7,2Z" style="fill:#ffd782"/><rect x="11" y="34" width="3" height="2" style="fill:#ebb562"/><rect x="50" y="34" width="3" height="2" style="fill:#ebb562"/><polygon points="20 61 14 61 14 47 20 49 20 61" style="fill:#ebb562"/><polygon points="44 61 50 61 50 47 44 49 44 61" style="fill:#ebb562"/><path d="M32,48a1,1,0,0,1-.707-.293l-2-2A1,1,0,0,1,29,45V26.754l-6.274-1.793.548-1.922,7,2A1,1,0,0,1,31,26V44.586l1,1,1-1V26a1,1,0,0,1,.726-.961l7-2,.548,1.922L35,26.754V45a1,1,0,0,1-.293.707l-2,2A1,1,0,0,1,32,48Z" style="fill:#f9b2bb"/><path d="M38.293,53.707,36.586,52H27.414l-1.707,1.707-1.414-1.414,2-2A1,1,0,0,1,27,50H37a1,1,0,0,1,.707.293l2,2Z" style="fill:#394d5c"/><rect x="29" y="54" width="6" height="2" style="fill:#f9b2bb"/><path d="M40,40a6,6,0,0,0,6-6H34A6,6,0,0,0,40,40Z" style="fill:#fff"/><path d="M37.888,34a2.227,2.227,0,0,0-.138.75,2.25,2.25,0,0,0,4.5,0,2.227,2.227,0,0,0-.138-.75Z" style="fill:#e4544f"/><path d="M40,28h0a6,6,0,0,1,6,6v0a0,0,0,0,1,0,0H34a0,0,0,0,1,0,0v0A6,6,0,0,1,40,28Z" style="fill:#394d5c"/><path d="M24,40a6,6,0,0,0,6-6H18A6,6,0,0,0,24,40Z" style="fill:#fff"/><path d="M21.888,34a2.227,2.227,0,0,0-.138.75,2.25,2.25,0,0,0,4.5,0,2.227,2.227,0,0,0-.138-.75Z" style="fill:#e4544f"/><path d="M24,28h0a6,6,0,0,1,6,6v0a0,0,0,0,1,0,0H18a0,0,0,0,1,0,0v0a6,6,0,0,1,6-6Z" style="fill:#394d5c"/></g></svg>
