<?xml version="1.0"?>
<svg xmlns="http://www.w3.org/2000/svg" viewBox="0 0 64 64" width="512" height="512"><g id="flat"><polygon points="25 61 6 61 3 42 14 43 14 51 25 51 25 61" style="fill:#143441"/><polygon points="39 61 58 61 61 42 50 43 50 51 39 51 39 61" style="fill:#143441"/><rect x="14" y="51" width="36" height="10" style="fill:#143441"/><rect x="14" y="11" width="36" height="40" style="fill:#cfdfe8"/><rect x="14" y="3" width="36" height="8" style="fill:#143441"/><path d="M40,32a6,6,0,0,0,6-6H34A6,6,0,0,0,40,32Z" style="fill:#fff"/><path d="M37.888,26a2.227,2.227,0,0,0-.138.75,2.25,2.25,0,0,0,4.5,0,2.227,2.227,0,0,0-.138-.75Z" style="fill:#e4544f"/><path d="M40,20h0a6,6,0,0,1,6,6v0a0,0,0,0,1,0,0H34a0,0,0,0,1,0,0v0a6,6,0,0,1,6-6Z" style="fill:#394d5c"/><path d="M24,32a6,6,0,0,0,6-6H18A6,6,0,0,0,24,32Z" style="fill:#fff"/><path d="M21.888,26a2.227,2.227,0,0,0-.138.75,2.25,2.25,0,0,0,4.5,0,2.227,2.227,0,0,0-.138-.75Z" style="fill:#e4544f"/><path d="M24,20h0a6,6,0,0,1,6,6v0a0,0,0,0,1,0,0H18a0,0,0,0,1,0,0v0A6,6,0,0,1,24,20Z" style="fill:#394d5c"/><path d="M32,40a1,1,0,0,1-.707-.293l-2-2A1,1,0,0,1,29,37V33h2v3.586l1,1,1-1V33h2v4a1,1,0,0,1-.293.707l-2,2A1,1,0,0,1,32,40Z" style="fill:#394d5c"/><polygon points="26 47 24 43 28 43 26 47" style="fill:#e4544f"/><polygon points="38 47 36 43 40 43 38 47" style="fill:#e4544f"/><polygon points="20 51 14 51 14 35 20 37 20 51" style="fill:#5a6470"/><polygon points="44 51 50 51 50 35 44 37 44 51" style="fill:#5a6470"/><rect x="23.5" y="9.424" width="2" height="13.153" transform="translate(4.961 37.782) rotate(-81.254)" style="fill:#394d5c"/><rect x="32.924" y="15" width="13.153" height="2" transform="translate(-1.977 6.205) rotate(-8.763)" style="fill:#394d5c"/><path d="M14,29H10a2,2,0,0,1-2-2L7,17l7,2Z" style="fill:#aec0d1"/><path d="M50,29h4a2,2,0,0,0,2-2l1-10-7,2Z" style="fill:#aec0d1"/><rect x="25" y="51" width="14" height="10" style="fill:#e4544f"/><rect x="11" y="23" width="3" height="2" style="fill:#5a6470"/><rect x="50" y="23" width="3" height="2" style="fill:#5a6470"/><rect x="4" y="46" width="3" height="2" style="fill:#fff"/><rect x="9" y="46" width="2" height="2" style="fill:#fff"/><rect x="57" y="46" width="3" height="2" style="fill:#fff"/><rect x="53" y="46" width="2" height="2" style="fill:#fff"/><path d="M50,51h8a0,0,0,0,1,0,0V61a0,0,0,0,1,0,0H56a6,6,0,0,1-6-6V51A0,0,0,0,1,50,51Z" transform="translate(108 112) rotate(-180)" style="fill:#5a6470"/><path d="M12,51h2a0,0,0,0,1,0,0V61a0,0,0,0,1,0,0H6a0,0,0,0,1,0,0V57A6,6,0,0,1,12,51Z" style="fill:#5a6470"/><rect x="24" y="42" width="16" height="2" style="fill:#143441"/></g></svg>
