<?xml version="1.0"?>
<svg xmlns="http://www.w3.org/2000/svg" viewBox="0 0 64 64" width="512" height="512"><g id="flat"><circle cx="28" cy="21" r="18" style="fill:#e8ecf2"/><path d="M14.4,32.771A19.792,19.792,0,0,0,34,47c17,0,17,14,17,14s6.5-10.5-1-18-4.25-18.937-4.25-18.937A22.242,22.242,0,0,1,39,31c-3,2-5.953.284-8,1-2.493.872-4,4-7,4C20.59,36,16.772,33.721,14.4,32.771Z" style="fill:#98a5a6"/><path d="M25,54a3,3,0,0,1-6,0c0-2,3-5,3-5S25,52.343,25,54Z" style="fill:#e4544f"/><path d="M38,57a2,2,0,0,1-4,0c0-2,2-4,2-4S38,55,38,57Z" style="fill:#e4544f"/><circle cx="26" cy="18" r="10" style="fill:#e4544f"/><circle cx="25" cy="16" r="5" style="fill:#394d5c"/><circle cx="29" cy="12" r="3" style="fill:#fff"/><path d="M36.641,27.769l-1.282-1.538c5.336-4.446,2.83-10.581,2.721-10.839l1.839-.786C39.952,14.683,43.138,22.354,36.641,27.769Z" style="fill:#98a5a6"/></g></svg>
