<?xml version="1.0"?>
<svg xmlns="http://www.w3.org/2000/svg" viewBox="0 0 64 64" width="512" height="512"><g id="flat"><rect x="14" y="15" width="36" height="36" style="fill:#cfdfe8"/><rect x="14" y="3" width="36" height="12" style="fill:#143441"/><path d="M40,32a6,6,0,0,0,6-6H34A6,6,0,0,0,40,32Z" style="fill:#fff"/><path d="M37.888,26a2.227,2.227,0,0,0-.138.75,2.25,2.25,0,0,0,4.5,0,2.227,2.227,0,0,0-.138-.75Z" style="fill:#e4544f"/><path d="M40,20h0a6,6,0,0,1,6,6v0a0,0,0,0,1,0,0H34a0,0,0,0,1,0,0v0A6,6,0,0,1,40,20Z" style="fill:#394d5c"/><path d="M24,32a6,6,0,0,0,6-6H18A6,6,0,0,0,24,32Z" style="fill:#fff"/><path d="M21.888,26a2.227,2.227,0,0,0-.138.75,2.25,2.25,0,0,0,4.5,0,2.227,2.227,0,0,0-.138-.75Z" style="fill:#e4544f"/><path d="M24,20h0a6,6,0,0,1,6,6v0a0,0,0,0,1,0,0H18a0,0,0,0,1,0,0v0A6,6,0,0,1,24,20Z" style="fill:#394d5c"/><polygon points="20 51 14 51 14 35 20 37 20 51" style="fill:#5a6470"/><polygon points="44 51 50 51 50 35 44 37 44 51" style="fill:#5a6470"/><path d="M38.293,40.707,36.586,39H27.414l-1.707,1.707-1.414-1.414,2-2A1,1,0,0,1,27,37H37a1,1,0,0,1,.707.293l2,2Z" style="fill:#143441"/><rect x="29" y="41" width="6" height="2" style="fill:#aec0d1"/><rect x="6" y="8" width="4" height="8" style="fill:#143441"/><rect x="10" y="10" width="4" height="4" style="fill:#5a6470"/><rect x="54" y="8" width="4" height="8" transform="translate(112 24) rotate(-180)" style="fill:#143441"/><rect x="50" y="10" width="4" height="4" transform="translate(104 24) rotate(-180)" style="fill:#5a6470"/><rect x="14" y="3" width="36" height="6" style="fill:#205a77"/><rect x="17" y="6" width="2" height="6" style="fill:#fff"/><rect x="21" y="6" width="2" height="6" style="fill:#fff"/><rect x="25" y="6" width="2" height="6" style="fill:#fff"/><rect x="29" y="6" width="2" height="6" style="fill:#fff"/><rect x="33" y="6" width="2" height="6" style="fill:#fff"/><rect x="37" y="6" width="2" height="6" style="fill:#fff"/><rect x="41" y="6" width="2" height="6" style="fill:#fff"/><rect x="45" y="6" width="2" height="6" style="fill:#fff"/><path d="M10,22h4a0,0,0,0,1,0,0v8a0,0,0,0,1,0,0H10a2,2,0,0,1-2-2V24A2,2,0,0,1,10,22Z" style="fill:#aec0d1"/><rect x="11" y="25" width="3" height="2" style="fill:#5a6470"/><path d="M52,22h4a0,0,0,0,1,0,0v8a0,0,0,0,1,0,0H52a2,2,0,0,1-2-2V24A2,2,0,0,1,52,22Z" transform="translate(106 52) rotate(-180)" style="fill:#aec0d1"/><rect x="50" y="25" width="3" height="2" style="fill:#5a6470"/><polygon points="35 61 29 61 25 51 39 51 35 61" style="fill:#55b56a"/><polygon points="29 61 14 61 14 51 25 51 29 61" style="fill:#ffd782"/><polygon points="35 61 50 61 50 51 39 51 35 61" style="fill:#ffd782"/><path d="M12,51h2a0,0,0,0,1,0,0V61a0,0,0,0,1,0,0H6a0,0,0,0,1,0,0V57A6,6,0,0,1,12,51Z" style="fill:#55b56a"/><path d="M50,51h8a0,0,0,0,1,0,0V61a0,0,0,0,1,0,0H56a6,6,0,0,1-6-6V51A0,0,0,0,1,50,51Z" transform="translate(108 112) rotate(-180)" style="fill:#55b56a"/></g></svg>
