<?xml version="1.0"?>
<svg xmlns="http://www.w3.org/2000/svg" viewBox="0 0 64 64" width="512" height="512"><g id="flat"><path d="M14,21A18,18,0,0,1,32,3h0A18,18,0,0,1,50,21V58c-3,0-3,3-6,3s-2.994-3-6-3-3,3-6,3-3-3-6-3-3,3-6,3-3-3-6-3Z" style="fill:#cfdfe8"/><path d="M40,36a6,6,0,0,0,6-6H34A6,6,0,0,0,40,36Z" style="fill:#fcf05a"/><path d="M24,36a6,6,0,0,0,6-6H18A6,6,0,0,0,24,36Z" style="fill:#fcf05a"/><path d="M37.888,30a2.227,2.227,0,0,0-.138.75,2.25,2.25,0,0,0,4.5,0,2.227,2.227,0,0,0-.138-.75Z" style="fill:#dd3e46"/><path d="M40,24h0a6,6,0,0,1,6,6v0a0,0,0,0,1,0,0H34a0,0,0,0,1,0,0v0A6,6,0,0,1,40,24Z" style="fill:#394d5c"/><path d="M21.888,30a2.227,2.227,0,0,0-.138.75,2.25,2.25,0,0,0,4.5,0,2.227,2.227,0,0,0-.138-.75Z" style="fill:#dd3e46"/><path d="M24,24h0a6,6,0,0,1,6,6v0a0,0,0,0,1,0,0H18a0,0,0,0,1,0,0v0A6,6,0,0,1,24,24Z" style="fill:#394d5c"/><path d="M23.632,40.566a10.965,10.965,0,0,1-7.339-2.859L17.7,36.29a8.981,8.981,0,0,0,8.979,1.761l.632,1.9A11.6,11.6,0,0,1,23.632,40.566Z" style="fill:#5a6470"/><path d="M40.368,40.566a11.6,11.6,0,0,1-3.684-.617l.632-1.9a9.066,9.066,0,0,0,8.977-1.758l1.414,1.414A10.965,10.965,0,0,1,40.368,40.566Z" style="fill:#5a6470"/><rect x="26" y="44" width="12" height="2" style="fill:#5a6470"/><rect x="29" y="48" width="6" height="2" style="fill:#5a6470"/><path d="M43.105,14.447A11.158,11.158,0,0,0,32.121,7.993l-.245-1.985A13.368,13.368,0,0,1,44.9,13.553Z" style="fill:#5a6470"/><rect x="44" y="16" width="2" height="2" style="fill:#5a6470"/></g></svg>
