<?xml version="1.0"?>
<svg xmlns="http://www.w3.org/2000/svg" viewBox="0 0 64 64" width="512" height="512"><g id="flat"><path d="M37,25V48.828a4.116,4.116,0,0,0,3.607,4.153A4,4,0,0,0,45,49v2.828a4.116,4.116,0,0,0,3.607,4.153A4,4,0,0,0,53,52v2.828a4.116,4.116,0,0,0,3.607,4.153A4,4,0,0,0,61,55V25A12,12,0,0,0,49,13h0A12,12,0,0,0,37,25Z" style="fill:#cfdfe8"/><path d="M3,17V48.828a4.116,4.116,0,0,0,3.607,4.153A4,4,0,0,0,11,49V45a4,4,0,0,0,8,0v6.828a4.116,4.116,0,0,0,3.607,4.153A4,4,0,0,0,27,52V17A12,12,0,0,0,15,5h0A12,12,0,0,0,3,17Z" style="fill:#cfdfe8"/><path d="M49,30a6,6,0,0,0,6-6H43A6,6,0,0,0,49,30Z" style="fill:#fcf05a"/><path d="M46.888,24a2.227,2.227,0,0,0-.138.75,2.25,2.25,0,0,0,4.5,0,2.227,2.227,0,0,0-.138-.75Z" style="fill:#dd3e46"/><path d="M49,18h0a6,6,0,0,1,6,6v0a0,0,0,0,1,0,0H43a0,0,0,0,1,0,0v0A6,6,0,0,1,49,18Z" style="fill:#394d5c"/><path d="M15,23a6,6,0,0,0,6-6H9A6,6,0,0,0,15,23Z" style="fill:#fcf05a"/><path d="M12.888,17a2.227,2.227,0,0,0-.138.75,2.25,2.25,0,0,0,4.5,0,2.227,2.227,0,0,0-.138-.75Z" style="fill:#dd3e46"/><path d="M15,11h0a6,6,0,0,1,6,6v0a0,0,0,0,1,0,0H9a0,0,0,0,1,0,0v0A6,6,0,0,1,15,11Z" style="fill:#394d5c"/><path d="M55.293,40.707,53.586,39H44.414l-1.707,1.707-1.414-1.414,2-2A1,1,0,0,1,44,37H54a1,1,0,0,1,.707.293l2,2Z" style="fill:#5a6470"/><path d="M21.293,35.707,19.586,34H10.414L8.707,35.707,7.293,34.293l2-2A1,1,0,0,1,10,32H20a1,1,0,0,1,.707.293l2,2Z" style="fill:#5a6470"/><rect x="46" y="41" width="6" height="2" style="fill:#5a6470"/><rect x="5.586" y="27" width="2.828" height="2" transform="translate(-17.749 13.151) rotate(-45)" style="fill:#5a6470"/><rect x="9.586" y="27" width="2.828" height="2" transform="translate(-16.577 15.979) rotate(-45)" style="fill:#5a6470"/><rect x="22" y="26.586" width="2" height="2.828" transform="translate(-13.062 24.464) rotate(-45)" style="fill:#5a6470"/><rect x="18" y="26.586" width="2" height="2.828" transform="translate(-14.234 21.636) rotate(-45)" style="fill:#5a6470"/><rect x="10" y="40" width="2" height="2" style="fill:#5a6470"/><circle cx="35" cy="8" r="4" style="fill:#cfdfe8"/><circle cx="7" cy="59" r="2" style="fill:#cfdfe8"/><circle cx="47" cy="5" r="2" style="fill:#cfdfe8"/><circle cx="34" cy="58" r="3" style="fill:#cfdfe8"/></g></svg>
