<?xml version="1.0"?>
<svg xmlns="http://www.w3.org/2000/svg" viewBox="0 0 64 64" width="512" height="512"><g id="flat"><path d="M17,27H31a0,0,0,0,1,0,0v6a6,6,0,0,1-6,6H17a0,0,0,0,1,0,0V27A0,0,0,0,1,17,27Z" style="fill:#98a5a6"/><rect x="25" y="27" width="20" height="28" style="fill:#394d5c"/><path d="M31,27H45a0,0,0,0,1,0,0v6a6,6,0,0,1-6,6H31a0,0,0,0,1,0,0V27A0,0,0,0,1,31,27Z" style="fill:#98a5a6"/><path d="M27,13H43a0,0,0,0,1,0,0v8a6,6,0,0,1-6,6H33a6,6,0,0,1-6-6V13A0,0,0,0,1,27,13Z" style="fill:#ffd782"/><polygon points="45 13 25 13 23 7 47 7 45 13" style="fill:#394d5c"/><path d="M27,27h4a0,0,0,0,1,0,0v4a0,0,0,0,1,0,0H27a2,2,0,0,1-2-2v0A2,2,0,0,1,27,27Z" style="fill:#ffd782"/><path d="M13,27h4a0,0,0,0,1,0,0v4a0,0,0,0,1,0,0H13a2,2,0,0,1-2-2v0A2,2,0,0,1,13,27Z" style="fill:#ffd782"/><rect x="31" y="27" width="4" height="12" style="fill:#5a6470"/><rect x="17" y="27" width="4" height="12" style="fill:#5a6470"/><rect x="23" y="3" width="24" height="4" style="fill:#98a5a6"/><rect x="32" y="7" width="6" height="14" style="fill:#e4544f"/><rect x="29" y="55" width="4" height="6" style="fill:#ffd782"/><rect x="37" y="55" width="4" height="6" style="fill:#ffd782"/><rect x="25" y="51" width="20" height="4" style="fill:#5a6470"/><rect x="31" y="39" width="8" height="8" style="fill:#e4544f"/><rect x="52" y="43" width="2" height="8" style="fill:#e8ecf2"/><rect x="48" y="47" width="2" height="8" style="fill:#e8ecf2"/><rect x="16" y="42" width="2" height="8" style="fill:#e8ecf2"/><rect x="20" y="46" width="2" height="8" style="fill:#e8ecf2"/></g></svg>
