<?xml version="1.0"?>
<svg xmlns="http://www.w3.org/2000/svg" viewBox="0 0 64 64" width="512" height="512"><g id="flat"><path d="M19,40H45A11,11,0,0,1,56,51V61a0,0,0,0,1,0,0H8a0,0,0,0,1,0,0V51A11,11,0,0,1,19,40Z" style="fill:#ad6327"/><path d="M32,3C25.373,3,20,4.343,20,6V34a6,6,0,0,0,6,6H38a6,6,0,0,0,6-6V6C44,4.343,38.627,3,32,3Z" style="fill:#ffd782"/><path d="M20,6V17l8-3V8.826C23.342,8.413,20,7.306,20,6Z" style="fill:#51a262"/><polygon points="20 8 20 15 13 11 20 8" style="fill:#73cac2"/><polygon points="44 8 44 15 51 11 44 8" style="fill:#73cac2"/><path d="M32,9c-1.405,0-2.747-.063-4-.174V14l4,4,4-4V8.826C34.747,8.937,33.405,9,32,9Z" style="fill:#73cac2"/><path d="M36,8.826V14l8,3V6C44,7.306,40.658,8.413,36,8.826Z" style="fill:#51a262"/><polygon points="26 31 32 36 38 31 26 31" style="fill:#d3843d"/><polygon points="38 31 32 26 26 31 38 31" style="fill:#995f5b"/><path d="M18,20h2a0,0,0,0,1,0,0v8a0,0,0,0,1,0,0H18a2,2,0,0,1-2-2V22A2,2,0,0,1,18,20Z" style="fill:#ebb562"/><path d="M46,20h2a0,0,0,0,1,0,0v8a0,0,0,0,1,0,0H46a2,2,0,0,1-2-2V22A2,2,0,0,1,46,20Z" transform="translate(92 48) rotate(180)" style="fill:#ebb562"/><rect x="28" y="40" width="8" height="4" style="fill:#d8aa59"/><rect x="20" y="44" width="24" height="17" style="fill:#ebb562"/><path d="M17,44h3a0,0,0,0,1,0,0V61a0,0,0,0,1,0,0H14a0,0,0,0,1,0,0V47A3,3,0,0,1,17,44Z" style="fill:#ffd782"/><path d="M44,44h6a0,0,0,0,1,0,0V61a0,0,0,0,1,0,0H47a3,3,0,0,1-3-3V44A0,0,0,0,1,44,44Z" transform="translate(94 105) rotate(-180)" style="fill:#ffd782"/><rect x="24" y="55" width="2" height="2" style="fill:#ad6327"/><rect x="38" y="55" width="2" height="2" style="fill:#ad6327"/><rect x="22.586" y="26" width="2.828" height="2" transform="translate(-12.062 24.879) rotate(-45)" style="fill:#f98c96"/><rect x="38.586" y="26" width="2.828" height="2" transform="translate(-7.376 36.192) rotate(-45)" style="fill:#f98c96"/><circle cx="27" cy="21" r="2" style="fill:#143441"/><circle cx="37" cy="21" r="2" style="fill:#143441"/></g></svg>
