<?xml version="1.0"?>
<svg xmlns="http://www.w3.org/2000/svg" viewBox="0 0 64 64" width="512" height="512"><g id="flat"><rect x="47" y="40" width="14" height="8" style="fill:#ebb562"/><rect x="46" y="43" width="6" height="2" style="fill:#ffd782"/><rect x="54" y="43" width="2" height="2" style="fill:#ffd782"/><path d="M5,42H47a0,0,0,0,1,0,0v4a0,0,0,0,1,0,0H5a2,2,0,0,1-2-2v0A2,2,0,0,1,5,42Z" style="fill:#ad6327"/><circle cx="48" cy="26" r="10" style="fill:#bfbfbf"/><circle cx="16" cy="26" r="10" style="fill:#bfbfbf"/><rect x="26" y="24" width="12" height="13" transform="translate(64 61) rotate(180)" style="fill:#ebb562"/><path d="M26,46v8H22a2,2,0,0,0-2,2v2H30V46Z" style="fill:#ebb562"/><path d="M14,24h2a0,0,0,0,1,0,0v4a0,0,0,0,1,0,0H14a2,2,0,0,1-2-2v0A2,2,0,0,1,14,24Z" style="fill:#ebb562"/><path d="M50,24h2a0,0,0,0,1,0,0v4a0,0,0,0,1,0,0H50a2,2,0,0,1-2-2v0A2,2,0,0,1,50,24Z" transform="translate(100 52) rotate(180)" style="fill:#ebb562"/><rect x="26" y="7" width="12" height="17" transform="translate(64 31) rotate(180)" style="fill:#ffd782"/><rect x="16" y="24" width="10" height="4" style="fill:#ffd782"/><rect x="38" y="24" width="10" height="4" transform="translate(86 52) rotate(-180)" style="fill:#ffd782"/><rect x="26" y="7" width="12" height="4" transform="translate(64 18) rotate(180)" style="fill:#394d5c"/><rect x="26" y="37" width="12" height="9" style="fill:#e4544f"/><rect x="26" y="42" width="4" height="12" style="fill:#f2bb5a"/><rect x="29" y="15" width="2" height="2" style="fill:#394d5c"/><rect x="33" y="15" width="2" height="2" style="fill:#394d5c"/><rect x="29" y="19" width="6" height="2" style="fill:#394d5c"/><rect x="29" y="28" width="2" height="2" style="fill:#ffd782"/><rect x="33" y="28" width="2" height="2" style="fill:#ffd782"/><path d="M5.893,18.451l-1.788-.9C4.239,17.285,7.491,11,17,11v2C8.776,13,6.006,18.229,5.893,18.451Z" style="fill:#bfbfbf"/><path d="M3.893,14.451l-1.788-.9C2.239,13.285,5.491,7,15,7V9C6.776,9,4.006,14.229,3.893,14.451Z" style="fill:#bfbfbf"/><path d="M58.107,18.451C57.994,18.229,55.224,13,47,13V11c9.509,0,12.761,6.285,12.9,6.553Z" style="fill:#bfbfbf"/><path d="M60.107,14.451C59.994,14.229,57.224,9,49,9V7c9.509,0,12.761,6.285,12.9,6.553Z" style="fill:#bfbfbf"/><path d="M30,42V54H26a2,2,0,0,0-2,2v2H34V46h4V42Z" style="fill:#ffd782"/></g></svg>
