<?xml version="1.0"?>
<svg xmlns="http://www.w3.org/2000/svg" viewBox="0 0 64 64" width="512" height="512"><g id="flat"><rect x="30" y="32" width="4" height="8" style="fill:#ad6327"/><polygon points="24 14 24 28 29 28 29 32 35 32 35 28 40 28 40 14 24 14" style="fill:#ffd782"/><path d="M18,13V33l6,2V14H40V35l6-2V13A10,10,0,0,0,36,3H28A10,10,0,0,0,18,13Z" style="fill:#394d5c"/><rect x="28" y="18" width="2" height="2" style="fill:#394d5c"/><rect x="34" y="18" width="2" height="2" style="fill:#394d5c"/><rect x="31" y="11" width="2" height="3" style="fill:#bfbfbf"/><rect x="27" y="8" width="2" height="6" style="fill:#bfbfbf"/><rect x="23" y="11" width="2" height="3" style="fill:#bfbfbf"/><rect x="35" y="8" width="2" height="6" style="fill:#bfbfbf"/><rect x="39" y="11" width="2" height="3" style="fill:#bfbfbf"/><path d="M28,51l-6,2V46a4.952,4.952,0,0,1,5-5h3v7C30,50,29.089,50.673,28,51Z" style="fill:#bfbfbf"/><path d="M36,51l6,2V46a4.952,4.952,0,0,0-5-5H34v7C34,50,34.911,50.673,36,51Z" style="fill:#bfbfbf"/><path d="M32,38h0a3.8,3.8,0,0,0-5,0h0a3.551,3.551,0,0,0,0,5h0l5,4,5-4h0a3.551,3.551,0,0,0,0-5h0A3.8,3.8,0,0,0,32,38Z" style="fill:#e4544f"/><rect x="27" y="47" width="10" height="4" rx="2" ry="2" style="fill:#394d5c"/><rect x="27" y="51" width="10" height="4" rx="2" ry="2" style="fill:#98a5a6"/><path d="M30,55h4a0,0,0,0,1,0,0v6a0,0,0,0,1,0,0h0a4,4,0,0,1-4-4V55A0,0,0,0,1,30,55Z" style="fill:#394d5c"/><path d="M32.13,25.323A8.256,8.256,0,0,1,27.4,23.8l1.2-1.6a5.8,5.8,0,0,0,6.8,0l1.2,1.6A7.321,7.321,0,0,1,32.13,25.323Z" style="fill:#394d5c"/><rect x="15" y="39" width="2" height="2" style="fill:#fcf05a"/><rect x="15" y="43" width="2" height="2" style="fill:#fcf05a"/><rect x="13" y="41" width="2" height="2" style="fill:#fcf05a"/><rect x="17" y="41" width="2" height="2" style="fill:#fcf05a"/><rect x="45" y="54" width="2" height="2" style="fill:#fcf05a"/><rect x="45" y="58" width="2" height="2" style="fill:#fcf05a"/><rect x="43" y="56" width="2" height="2" style="fill:#fcf05a"/><rect x="47" y="56" width="2" height="2" style="fill:#fcf05a"/><rect x="47" y="37" width="2" height="2" style="fill:#fcf05a"/><rect x="47" y="41" width="2" height="2" style="fill:#fcf05a"/><rect x="45" y="39" width="2" height="2" style="fill:#fcf05a"/><rect x="49" y="39" width="2" height="2" style="fill:#fcf05a"/></g></svg>
