<?xml version="1.0"?>
<svg xmlns="http://www.w3.org/2000/svg" viewBox="0 0 64 64" width="512" height="512"><g id="flat"><path d="M30,3h4A10,10,0,0,1,44,13v0a0,0,0,0,1,0,0H20a0,0,0,0,1,0,0v0A10,10,0,0,1,30,3Z" style="fill:#143441"/><rect x="31" y="8" width="2" height="5" style="fill:#5a6470"/><rect x="24.307" y="9.5" width="5.385" height="2.001" transform="translate(7.222 31.667) rotate(-68.193)" style="fill:#5a6470"/><rect x="36" y="7.807" width="2.001" height="5.385" transform="translate(-1.253 14.492) rotate(-21.801)" style="fill:#5a6470"/><rect x="43.91" y="11" width="11.18" height="2" transform="translate(-1.348 9.04) rotate(-10.295)" style="fill:#ebb562"/><rect x="42.576" y="6" width="9.849" height="2" transform="translate(1.254 19.904) rotate(-23.974)" style="fill:#ebb562"/><circle cx="56" cy="11" r="3" style="fill:#e4544f"/><circle cx="53" cy="5" r="3" style="fill:#e4544f"/><path d="M20,35l-8-2V19a6,6,0,0,1,6-6h2Z" style="fill:#5a6470"/><path d="M44,35l8-2V19a6,6,0,0,0-6-6H44Z" style="fill:#5a6470"/><path d="M20,13H44a0,0,0,0,1,0,0V52a4,4,0,0,1-4,4H24a4,4,0,0,1-4-4V13A0,0,0,0,1,20,13Z" style="fill:#ffd782"/><rect x="47" y="29" width="2" height="5" style="fill:#bfbfbf"/><rect x="15" y="29" width="2" height="5" style="fill:#bfbfbf"/><rect x="15" y="25" width="2" height="2" style="fill:#bfbfbf"/><path d="M24,18h2a4,4,0,0,1,4,4v0a0,0,0,0,1,0,0H28a4,4,0,0,1-4-4v0A0,0,0,0,1,24,18Z" style="fill:#e4544f"/><path d="M38,18h2a0,0,0,0,1,0,0v0a4,4,0,0,1-4,4H34a0,0,0,0,1,0,0v0A4,4,0,0,1,38,18Z" transform="translate(74 40) rotate(-180)" style="fill:#e4544f"/><rect x="25" y="26" width="14" height="26" style="fill:#e4544f"/><polygon points="32 32 30 26 34 26 32 32" style="fill:#a51c1c"/><polygon points="36 32 34 26 38 26 36 32" style="fill:#a51c1c"/><polygon points="28 32 26 26 30 26 28 32" style="fill:#a51c1c"/><polygon points="32 46 34 52 30 52 32 46" style="fill:#a51c1c"/><polygon points="28 46 30 52 26 52 28 46" style="fill:#a51c1c"/><polygon points="36 46 38 52 34 52 36 46" style="fill:#a51c1c"/><rect x="26" y="56" width="12" height="5" style="fill:#ebb562"/></g></svg>
