<?xml version="1.0"?>
<svg xmlns="http://www.w3.org/2000/svg" viewBox="0 0 64 64" width="512" height="512"><g id="flat"><path d="M14,26h4a0,0,0,0,1,0,0v8a0,0,0,0,1,0,0H14a4,4,0,0,1-4-4v0a4,4,0,0,1,4-4Z" style="fill:#ebb562"/><path d="M50,26h4a0,0,0,0,1,0,0v8a0,0,0,0,1,0,0H50a4,4,0,0,1-4-4v0a4,4,0,0,1,4-4Z" transform="translate(100 60) rotate(180)" style="fill:#ebb562"/><circle cx="32" cy="29" r="17" style="fill:#ffd782"/><path d="M14,46h3a0,0,0,0,1,0,0V61a0,0,0,0,1,0,0H11a0,0,0,0,1,0,0V49A3,3,0,0,1,14,46Z" style="fill:#ffd782"/><path d="M47,46h6a0,0,0,0,1,0,0V61a0,0,0,0,1,0,0H50a3,3,0,0,1-3-3V46A0,0,0,0,1,47,46Z" transform="translate(100 107) rotate(180)" style="fill:#ffd782"/><path d="M32,22c5.55,0,10.438-1.414,13.308-3.56a16.97,16.97,0,0,0-26.616,0C21.562,20.586,26.45,22,32,22Z" style="fill:#394d5c"/><rect x="17" y="46" width="30" height="15" style="fill:#e4544f"/><polygon points="22 46 32 54 41 46 22 46" style="fill:#ffd782"/><circle cx="32" cy="55" r="3" style="fill:#f98c96"/><path d="M41,12c0,4.418-4.029,6-9,6s-9-1.582-9-6a9.375,9.375,0,0,1,9-9A9.375,9.375,0,0,1,41,12Z" style="fill:#394d5c"/><path d="M23.129,10.671A7.66,7.66,0,0,0,23,12c0,4.418,4.029,6,9,6s9-1.582,9-6a7.5,7.5,0,0,0-.049-.846A19.415,19.415,0,0,1,23.129,10.671Z" style="fill:#e4544f"/><path d="M40,37a6,6,0,0,0,6-6H34A6,6,0,0,0,40,37Z" style="fill:#bfbfbf"/><path d="M37.888,31a2.227,2.227,0,0,0-.138.75,2.25,2.25,0,0,0,4.5,0,2.227,2.227,0,0,0-.138-.75Z" style="fill:#8b3123"/><path d="M40,25h0a6,6,0,0,1,6,6v0a0,0,0,0,1,0,0H34a0,0,0,0,1,0,0v0A6,6,0,0,1,40,25Z" style="fill:#394d5c"/><path d="M24,37a6,6,0,0,0,6-6H18A6,6,0,0,0,24,37Z" style="fill:#bfbfbf"/><path d="M21.888,31a2.227,2.227,0,0,0-.138.75,2.25,2.25,0,0,0,4.5,0,2.227,2.227,0,0,0-.138-.75Z" style="fill:#8b3123"/><path d="M24,25h0a6,6,0,0,1,6,6v0a0,0,0,0,1,0,0H18a0,0,0,0,1,0,0v0A6,6,0,0,1,24,25Z" style="fill:#394d5c"/><rect x="29" y="41" width="6" height="2" style="fill:#394d5c"/></g></svg>
