<?xml version="1.0"?>
<svg xmlns="http://www.w3.org/2000/svg" viewBox="0 0 64 64" width="512" height="512"><g id="flat"><path d="M57,29H51V25c3.314,0,5-2,5-6V16H42v3c0,4,2,6,5,6v4H9V27a2,2,0,0,0-2-2H3v4H5v2a2,2,0,0,0,2,2H41v8H57V51h4V33A4,4,0,0,0,57,29Z" style="fill:#ffd782"/><path d="M38,13V29h4V16H56V29h4V13A10,10,0,0,0,50,3H48A10,10,0,0,0,38,13Z" style="fill:#394d5c"/><rect x="41" y="33" width="16" height="8" style="fill:#e4544f"/><rect x="41" y="41" width="16" height="4" style="fill:#8b3123"/><path d="M41,45H57a0,0,0,0,1,0,0V59a2,2,0,0,1-2,2H43a2,2,0,0,1-2-2V45A0,0,0,0,1,41,45Z" style="fill:#ad6327"/><rect x="47" y="45" width="4" height="16" style="fill:#8b3123"/><rect x="44.5" y="48.197" width="2" height="3.606" transform="translate(-21.341 60.123) rotate(-56.31)" style="fill:#8b3123"/><rect x="50.697" y="49" width="3.606" height="2" transform="translate(-18.918 37.519) rotate(-33.69)" style="fill:#8b3123"/><rect x="48" y="33" width="2" height="4" style="fill:#a51c1c"/><path d="M41.02,16.2c-.046-.229-1.073-5.656,3.38-9l1.2,1.6c-3.455,2.592-2.628,6.96-2.62,7Z" style="fill:#bfbfbf"/><path d="M56.984,16.175l-1.968-.35L56,16l-.985-.172A7.587,7.587,0,0,0,52.289,8.8l1.2-1.6C57.93,10.531,57.025,15.946,56.984,16.175Z" style="fill:#bfbfbf"/><path d="M47,16H45a14.3,14.3,0,0,1,1.1-5.447l1.79.894A12.442,12.442,0,0,0,47,16Z" style="fill:#bfbfbf"/><path d="M51,16a12.442,12.442,0,0,0-.9-4.554l1.79-.894A14.3,14.3,0,0,1,53,16Z" style="fill:#bfbfbf"/><path d="M59,51h2a0,0,0,0,1,0,0v6a0,0,0,0,1,0,0H57a0,0,0,0,1,0,0V53A2,2,0,0,1,59,51Z" transform="translate(118 108) rotate(180)" style="fill:#ebb562"/><rect x="20" y="24" width="8" height="2" style="fill:#bfbfbf"/><rect x="16" y="20" width="8" height="2" style="fill:#bfbfbf"/><rect x="45" y="19" width="2" height="2" style="fill:#394d5c"/><rect x="49" y="19" width="2" height="2" style="fill:#394d5c"/></g></svg>
