<?xml version="1.0"?>
<svg xmlns="http://www.w3.org/2000/svg" viewBox="0 0 64 64" width="512" height="512"><g id="flat"><rect x="19" y="51" width="10" height="10" style="fill:#f98c96"/><rect x="35" y="51" width="10" height="10" style="fill:#f98c96"/><rect x="23" y="58" width="2" height="3" style="fill:#e4544f"/><rect x="39" y="58" width="2" height="3" style="fill:#e4544f"/><path d="M19,32C5,32,0,19.562,5,22c3.241,1.58,14,0,14,0Z" style="fill:#f98c96"/><path d="M19,45.317c-14,0-19-12.438-14-10,3.241,1.58,14,0,14,0Z" style="fill:#f98c96"/><path d="M45,32c14,0,19-12.437,14-10-3.241,1.58-14,0-14,0Z" style="fill:#f98c96"/><path d="M45,45.317c14,0,19-12.438,14-10-3.241,1.58-14,0-14,0Z" style="fill:#f98c96"/><path d="M48,29V27c.035,0,3.616-.029,5.294-1.707l1.414,1.414C52.44,28.974,48.181,29,48,29Z" style="fill:#e4544f"/><path d="M16,29c-.181,0-4.44-.026-6.707-2.293l1.414-1.414C12.107,26.693,15,27,16,27Z" style="fill:#e4544f"/><path d="M16,42a5.306,5.306,0,0,1-3.707-1.293l1.4-1.426A3.46,3.46,0,0,0,16,40Z" style="fill:#e4544f"/><path d="M48,42V40a3.46,3.46,0,0,0,2.3-.719l1.4,1.426A5.306,5.306,0,0,1,48,42Z" style="fill:#e4544f"/><rect x="30" y="3" width="4" height="6" style="fill:#394d5c"/><rect x="21.379" y="4.257" width="4.243" height="8.485" transform="translate(0.873 19.107) rotate(-45)" style="fill:#394d5c"/><rect x="36.257" y="6.379" width="8.485" height="4.243" transform="translate(5.852 31.127) rotate(-45)" style="fill:#394d5c"/><path d="M35,8H29A11.013,11.013,0,0,0,18,19V52H46V19A11.013,11.013,0,0,0,35,8Z" style="fill:#e4544f"/><path d="M24,40H41S33,31,24,40Z" style="fill:#ffd782"/><rect x="22" y="46" width="2" height="2" style="fill:#f98c96"/><rect x="26" y="46" width="2" height="2" style="fill:#f98c96"/><circle cx="32" cy="23" r="6" style="fill:#fcf05a"/><circle cx="32" cy="23" r="2" style="fill:#e4544f"/><path d="M32.347,33.552c-5.121,0-9-3.787-9.054-3.845l1.413-1.415c.3.3,7.4,7.185,14.587,0l1.414,1.414C37.823,32.591,34.927,33.552,32.347,33.552Z" style="fill:#fff"/></g></svg>
