<?xml version="1.0"?>
<svg xmlns="http://www.w3.org/2000/svg" viewBox="0 0 64 64" width="512" height="512"><g id="flat"><path d="M25,57H23a4,4,0,0,0-4,4H29V51H25Z" style="fill:#874384"/><path d="M41,57H39V51H35V61H45A4,4,0,0,0,41,57Z" style="fill:#874384"/><path d="M9,31h6a0,0,0,0,1,0,0v7a3,3,0,0,1-3,3h0a3,3,0,0,1-3-3V31A0,0,0,0,1,9,31Z" transform="translate(48 24) rotate(90)" style="fill:#874384"/><path d="M52,31h0a3,3,0,0,1,3,3v7a0,0,0,0,1,0,0H49a0,0,0,0,1,0,0V34a3,3,0,0,1,3-3Z" transform="translate(88 -16) rotate(90)" style="fill:#874384"/><path d="M50,39c0,8.837-8.059,15-18,15S14,47.837,14,39s8.059-21,18-21S50,30.163,50,39Z" style="fill:#d0bafa"/><circle cx="32" cy="11" r="8" style="fill:#874384"/><circle cx="32" cy="12" r="3" style="fill:#fcf05a"/><circle cx="16" cy="21" r="8" style="fill:#874384"/><circle cx="15" cy="21" r="3" style="fill:#fcf05a"/><circle cx="48" cy="21" r="8" style="fill:#874384"/><circle cx="49" cy="20" r="3" style="fill:#fcf05a"/><rect x="23" y="32" width="18" height="12" style="fill:#ffd782"/><polygon points="32 36 29 32 35 32 32 36" style="fill:#e4544f"/><polygon points="26 36 23 32 29 32 26 36" style="fill:#e4544f"/><polygon points="38 36 35 32 41 32 38 36" style="fill:#e4544f"/><rect x="23" y="40" width="18" height="4" style="fill:#fcf05a"/><path d="M36,50V48c8.9,0,9-6.714,9-7h2C47,41.09,46.874,50,36,50Z" style="fill:#fff"/><rect x="32" y="48" width="2" height="2" style="fill:#fff"/></g></svg>
