<?xml version="1.0"?>
<svg xmlns="http://www.w3.org/2000/svg" viewBox="0 0 64 64" width="512" height="512"><g id="flat"><path d="M20,17s0,9,9,9V22s-5,0-5-5Z" style="fill:#4f97d5"/><path d="M12,37c0-3,3-6,10-6v4s-6,0-6,3a2.156,2.156,0,0,1-2.034,2h0C12,40,12,38.3,12,37Z" style="fill:#4f97d5"/><path d="M52,37c0-3-3-6-10-6v4s6,0,6,3a2.156,2.156,0,0,0,2.034,2h0C52,40,52,38.3,52,37Z" style="fill:#4f97d5"/><path d="M44,17s0,9-9,9V22s5,0,5-5Z" style="fill:#4f97d5"/><rect x="25" y="43" width="4" height="14" style="fill:#4f97d5"/><rect x="35" y="43" width="4" height="14" transform="translate(74 100) rotate(-180)" style="fill:#4f97d5"/><circle cx="32" cy="34" r="13" style="fill:#7cb8eb"/><path d="M22,19a8,8,0,0,0,8-8H14A8,8,0,0,0,22,19Z" style="fill:#fcf05a"/><path d="M19.184,11A2.962,2.962,0,0,0,19,12a3,3,0,0,0,6,0,2.962,2.962,0,0,0-.184-1Z" style="fill:#e4544f"/><path d="M22,3h0a8,8,0,0,1,8,8v0a0,0,0,0,1,0,0H14a0,0,0,0,1,0,0v0A8,8,0,0,1,22,3Z" style="fill:#394d5c"/><path d="M42,19a8,8,0,0,0,8-8H34A8,8,0,0,0,42,19Z" style="fill:#fcf05a"/><path d="M39.184,11A2.962,2.962,0,0,0,39,12a3,3,0,0,0,6,0,2.962,2.962,0,0,0-.184-1Z" style="fill:#e4544f"/><path d="M42,3h0a8,8,0,0,1,8,8v0a0,0,0,0,1,0,0H34a0,0,0,0,1,0,0v0A8,8,0,0,1,42,3Z" style="fill:#394d5c"/><path d="M31.7,42.711l-1.411-1.418A7.165,7.165,0,0,1,38.447,40.1l-.894,1.79A5.155,5.155,0,0,0,31.7,42.711Z" style="fill:#394d5c"/><path d="M21,57h8a0,0,0,0,1,0,0v4a0,0,0,0,1,0,0H19a0,0,0,0,1,0,0V59A2,2,0,0,1,21,57Z" style="fill:#7cb8eb"/><path d="M35,57H45a0,0,0,0,1,0,0v4a0,0,0,0,1,0,0H37a2,2,0,0,1-2-2V57A0,0,0,0,1,35,57Z" transform="translate(80 118) rotate(-180)" style="fill:#7cb8eb"/></g></svg>
