<?xml version="1.0"?>
<svg xmlns="http://www.w3.org/2000/svg" viewBox="0 0 64 64" width="512" height="512"><g id="flat"><path d="M53,25v5H49v8h2a8,8,0,0,0,8-8V25a3,3,0,0,0-3-3h0A3,3,0,0,0,53,25Z" style="fill:#e97131"/><path d="M11,25v5h4v8H13a8,8,0,0,1-8-8V25a3,3,0,0,1,3-3H8A3,3,0,0,1,11,25Z" style="fill:#e97131"/><path d="M23,15H41a8,8,0,0,1,8,8V51a0,0,0,0,1,0,0H15a0,0,0,0,1,0,0V23A8,8,0,0,1,23,15Z" style="fill:#ebb562"/><path d="M52,41c0,6.075-8.954,2-20,2s-20,4.075-20-2,8.954-20,20-20S52,34.925,52,41Z" style="fill:#fcf05a"/><path d="M41,24.047V28a2.991,2.991,0,0,0,5.663,1.354A26.856,26.856,0,0,0,41,24.047Z" style="fill:#e4544f"/><path d="M38,30a3,3,0,0,0,3-3V24.047a17.6,17.6,0,0,0-6-2.707V27A3,3,0,0,0,38,30Z" style="fill:#e97131"/><path d="M35,26V21.34a13.405,13.405,0,0,0-6,0V26a3,3,0,0,0,6,0Z" style="fill:#e4544f"/><path d="M23,24.047V27a3,3,0,0,0,6,0V21.34A17.6,17.6,0,0,0,23,24.047Z" style="fill:#e97131"/><path d="M17.337,29.354A2.991,2.991,0,0,0,23,28V24.047A26.856,26.856,0,0,0,17.337,29.354Z" style="fill:#e4544f"/><path d="M21,19a8,8,0,0,0,8-8H13A8,8,0,0,0,21,19Z" style="fill:#fcf05a"/><path d="M18.184,11A2.962,2.962,0,0,0,18,12a3,3,0,0,0,6,0,2.962,2.962,0,0,0-.184-1Z" style="fill:#e4544f"/><path d="M21,3h0a8,8,0,0,1,8,8v0a0,0,0,0,1,0,0H13a0,0,0,0,1,0,0v0A8,8,0,0,1,21,3Z" style="fill:#394d5c"/><path d="M43,19a8,8,0,0,0,8-8H35A8,8,0,0,0,43,19Z" style="fill:#fcf05a"/><path d="M40.184,11A2.962,2.962,0,0,0,40,12a3,3,0,0,0,6,0,2.962,2.962,0,0,0-.184-1Z" style="fill:#e4544f"/><path d="M43,3h0a8,8,0,0,1,8,8v0a0,0,0,0,1,0,0H35a0,0,0,0,1,0,0v0a8,8,0,0,1,8-8Z" style="fill:#394d5c"/><path d="M32,38a43.036,43.036,0,0,0-19.48.023A10.53,10.53,0,0,0,12,41c0,6.075,8.954,2,20,2s20,4.075,20-2a10.805,10.805,0,0,0-.567-3.134C46.392,38.674,38.177,39.544,32,38Z" style="fill:#e4544f"/><path d="M15,51H27a0,0,0,0,1,0,0v8a2,2,0,0,1-2,2H17a2,2,0,0,1-2-2V51A0,0,0,0,1,15,51Z" style="fill:#e97131"/><rect x="18" y="58" width="2" height="3" style="fill:#fcf05a"/><rect x="22" y="58" width="2" height="3" style="fill:#fcf05a"/><path d="M37,51H49a0,0,0,0,1,0,0v8a2,2,0,0,1-2,2H39a2,2,0,0,1-2-2V51A0,0,0,0,1,37,51Z" style="fill:#e97131"/><rect x="40" y="58" width="2" height="3" style="fill:#fcf05a"/><rect x="44" y="58" width="2" height="3" style="fill:#fcf05a"/><rect x="30" y="46" width="5" height="2" style="fill:#e97131"/><rect x="26" y="46" width="2" height="2" style="fill:#e97131"/><rect x="37" y="46" width="2" height="2" style="fill:#e97131"/></g></svg>
