<?xml version="1.0"?>
<svg xmlns="http://www.w3.org/2000/svg" viewBox="0 0 64 64" width="512" height="512"><g id="flat"><circle cx="32" cy="30" r="21" style="fill:#fcf05a"/><ellipse cx="37" cy="39" rx="7" ry="6" style="fill:#ffd782"/><ellipse cx="22" cy="28" rx="5" ry="4" style="fill:#ffd782"/><ellipse cx="34" cy="23" rx="3" ry="2" style="fill:#ffd782"/><path d="M31,48C18.407,48,14.086,34.431,14.044,34.294l1.912-.589a22.244,22.244,0,0,0,3.374,6.233C22.443,43.961,26.37,46,31,46Z" style="fill:#ebb562"/><path d="M26,7a8.96,8.96,0,0,0-1.409.115C23.537,4.726,20.54,3,17,3c-3.569,0-6.589,1.753-7.62,4.174A6.084,6.084,0,0,0,8,7C5.239,7,3,8.791,3,11s2.239,4,5,4H26c3.314,0,6-1.791,6-4S29.314,7,26,7Z" style="fill:#73cac2"/><path d="M58.725,53.652A5.208,5.208,0,0,0,59,52c0-3.314-3.134-6-7-6a7.164,7.164,0,0,0-6.294,3.388A9.432,9.432,0,0,0,43,49c-3.564,0-6.5,1.9-6.937,4.365A6.011,6.011,0,0,0,34,53c-2.761,0-5,1.791-5,4s2.239,4,5,4H56c2.761,0,5-1.791,5-4A3.877,3.877,0,0,0,58.725,53.652Z" style="fill:#73cac2"/><path d="M15,48a5.006,5.006,0,0,1-5-5,1,1,0,0,0-2,0,5.006,5.006,0,0,1-5,5,1,1,0,0,0,0,2,5.006,5.006,0,0,1,5,5,1,1,0,0,0,2,0,5.006,5.006,0,0,1,5-5,1,1,0,0,0,0-2ZM9,51.413A7.036,7.036,0,0,0,6.587,49,7.036,7.036,0,0,0,9,46.587,7.036,7.036,0,0,0,11.413,49,7.036,7.036,0,0,0,9,51.413Z" style="fill:#73cac2"/><path d="M61,13a4,4,0,0,1-4-4,1,1,0,0,0-2,0,4,4,0,0,1-4,4,1,1,0,0,0,0,2,4,4,0,0,1,4,4,1,1,0,0,0,2,0,4,4,0,0,1,4-4,1,1,0,0,0,0-2Zm-5,2.69A6.044,6.044,0,0,0,54.31,14,6.044,6.044,0,0,0,56,12.31,6.044,6.044,0,0,0,57.69,14,6.044,6.044,0,0,0,56,15.69Z" style="fill:#73cac2"/><rect x="41" y="55" width="2" height="2" style="fill:#fff"/><rect x="48" y="52" width="2" height="2" style="fill:#fff"/><rect x="7" y="10" width="2" height="2" style="fill:#fff"/><rect x="13" y="8" width="2" height="2" style="fill:#fff"/><rect x="43" y="19" width="2" height="2" style="fill:#ebb562"/><rect x="46" y="23" width="2" height="2" style="fill:#ebb562"/></g></svg>
