<?xml version="1.0"?>
<svg xmlns="http://www.w3.org/2000/svg" viewBox="0 0 64 64" width="512" height="512"><g id="flat"><path d="M14,15H50a0,0,0,0,1,0,0V46a4,4,0,0,1-4,4H18a4,4,0,0,1-4-4V15A0,0,0,0,1,14,15Z" style="fill:#cfdfe8"/><rect x="14" y="15" width="36" height="6" style="fill:#aec0d1"/><rect x="14" y="26" width="36" height="6" style="fill:#aec0d1"/><rect x="14" y="38" width="36" height="6" style="fill:#aec0d1"/><path d="M40,32a6,6,0,0,0,6-6H34A6,6,0,0,0,40,32Z" style="fill:#fff"/><path d="M37.888,26a2.227,2.227,0,0,0-.138.75,2.25,2.25,0,0,0,4.5,0,2.227,2.227,0,0,0-.138-.75Z" style="fill:#e4544f"/><path d="M40,20h0a6,6,0,0,1,6,6v0a0,0,0,0,1,0,0H34a0,0,0,0,1,0,0v0A6,6,0,0,1,40,20Z" style="fill:#394d5c"/><path d="M24,32a6,6,0,0,0,6-6H18A6,6,0,0,0,24,32Z" style="fill:#fff"/><path d="M21.888,26a2.227,2.227,0,0,0-.138.75,2.25,2.25,0,0,0,4.5,0,2.227,2.227,0,0,0-.138-.75Z" style="fill:#e4544f"/><path d="M24,20h0a6,6,0,0,1,6,6v0a0,0,0,0,1,0,0H18a0,0,0,0,1,0,0v0A6,6,0,0,1,24,20Z" style="fill:#394d5c"/><path d="M18,3H46a4,4,0,0,1,4,4V9a0,0,0,0,1,0,0H14a0,0,0,0,1,0,0V7A4,4,0,0,1,18,3Z" style="fill:#aec0d1"/><rect x="14" y="9" width="36" height="6" style="fill:#cfdfe8"/><rect x="21" y="50" width="22" height="4" style="fill:#5a6470"/><path d="M14,54H50a6,6,0,0,1,6,6v1a0,0,0,0,1,0,0H8a0,0,0,0,1,0,0V60A6,6,0,0,1,14,54Z" style="fill:#cfdfe8"/><polygon points="61 16 50 16 50 8 61 8 58 12 61 16" style="fill:#5a6470"/><polygon points="3 43 14 43 14 35 3 35 6 39 3 43" style="fill:#5a6470"/></g></svg>
