<?xml version="1.0"?>
<svg xmlns="http://www.w3.org/2000/svg" viewBox="0 0 64 64" width="512" height="512"><g id="flat"><path d="M30,3h4A24,24,0,0,1,58,27V61a0,0,0,0,1,0,0H6a0,0,0,0,1,0,0V27A24,24,0,0,1,30,3Z" style="fill:#5a6470"/><rect x="14" y="49" width="36" height="12" style="fill:#143441"/><path d="M37,9H27A14,14,0,0,0,13,23V49H51V23A14,14,0,0,0,37,9Z" style="fill:#f4f4e6"/><polygon points="35 34 33 34 33 31 31 31 31 34 29 34 29 36 31 36 31 40 33 40 33 36 35 36 35 34" style="fill:#394d5c"/><path d="M38.293,45.707,36.586,44H27.414l-1.707,1.707-1.414-1.414,2-2A1,1,0,0,1,27,42H37a1,1,0,0,1,.707.293l2,2Z" style="fill:#394d5c"/><path d="M40,32a6,6,0,0,0,6-6H34A6,6,0,0,0,40,32Z" style="fill:#fff"/><path d="M37.888,26a2.227,2.227,0,0,0-.138.75,2.25,2.25,0,0,0,4.5,0,2.227,2.227,0,0,0-.138-.75Z" style="fill:#e4544f"/><path d="M40,20h0a6,6,0,0,1,6,6v0a0,0,0,0,1,0,0H34a0,0,0,0,1,0,0v0A6,6,0,0,1,40,20Z" style="fill:#394d5c"/><path d="M24,32a6,6,0,0,0,6-6H18A6,6,0,0,0,24,32Z" style="fill:#fff"/><path d="M21.888,26a2.227,2.227,0,0,0-.138.75,2.25,2.25,0,0,0,4.5,0,2.227,2.227,0,0,0-.138-.75Z" style="fill:#e4544f"/><path d="M24,20h0a6,6,0,0,1,6,6v0a0,0,0,0,1,0,0H18a0,0,0,0,1,0,0v0A6,6,0,0,1,24,20Z" style="fill:#394d5c"/><path d="M15.52,15H48.48A13.976,13.976,0,0,0,37,9H27A13.976,13.976,0,0,0,15.52,15Z" style="fill:#143441"/><polygon points="19 49 13 49 13 35 19 37 19 49" style="fill:#cfdfe8"/><polygon points="45 49 51 49 51 35 45 37 45 49" style="fill:#cfdfe8"/><polygon points="19 49 32 58 45 49 19 49" style="fill:#5a6470"/><path d="M50,49h8a0,0,0,0,1,0,0V61a0,0,0,0,1,0,0H56a6,6,0,0,1-6-6V49A0,0,0,0,1,50,49Z" transform="translate(108 110) rotate(-180)" style="fill:#98a5a6"/><path d="M12,49h2a0,0,0,0,1,0,0V61a0,0,0,0,1,0,0H6a0,0,0,0,1,0,0V55A6,6,0,0,1,12,49Z" style="fill:#98a5a6"/></g></svg>
