<?xml version="1.0"?>
<svg xmlns="http://www.w3.org/2000/svg" viewBox="0 0 64 64" width="512" height="512"><g id="flat"><path d="M16,29s-4,0-6-3c0,0-5,14,6,14Z" style="fill:#ffd782"/><path d="M16,35a1,1,0,0,1-1-.976c-.013-.18-.174-1.024-2-1.024a1,1,0,0,1,0-2c3.164,0,4,1.962,4,3A1,1,0,0,1,16,35Z" style="fill:#d3843d"/><path d="M48,29s4,0,6-3c0,0,5,14-6,14Z" style="fill:#ffd782"/><path d="M48,34.982h-.031A.984.984,0,0,1,47,34c0-1.038.836-3,4-3a1,1,0,0,1,0,2c-1.841,0-1.989.857-2,1.029A1.016,1.016,0,0,1,48,34.982Z" style="fill:#d3843d"/><rect x="16" y="13" width="32" height="48" rx="8" ry="8" style="fill:#e4544f"/><path d="M12,3A30.553,30.553,0,0,0,26,13a8.855,8.855,0,0,1-10,6S12,13,12,3Z" style="fill:#5a6470"/><path d="M52,3A30.553,30.553,0,0,1,38,13a8.855,8.855,0,0,0,10,6S52,13,52,3Z" style="fill:#5a6470"/><path d="M27,13s-4,7-2,11h5s-2-5,2-11Z" style="fill:#143441"/><path d="M37,13s4,7,2,11H34s2-5-2-11Z" style="fill:#143441"/><path d="M22.555,32A3.955,3.955,0,0,0,22,34a4,4,0,0,0,8,0,3.955,3.955,0,0,0-.555-2Z" style="fill:#ffd782"/><rect x="20" y="28" width="24" height="4" style="fill:#143441"/><path d="M34.555,32A3.955,3.955,0,0,0,34,34a4,4,0,0,0,8,0,3.955,3.955,0,0,0-.555-2Z" style="fill:#ffd782"/><path d="M32,48a.994.994,0,0,1-.515-.143l-5-3a1,1,0,0,1-.192-1.564l3-3a1,1,0,0,1,1.414,1.414l-2.1,2.094L32,45.834,35.388,43.8l-2.095-2.094a1,1,0,0,1,1.414-1.414l3,3a1,1,0,0,1-.192,1.564l-5,3A.994.994,0,0,1,32,48Z" style="fill:#143441"/><path d="M20.889,51a5.644,5.644,0,0,1,0-6,17.9,17.9,0,0,0,5,6Z" style="fill:#fff"/><path d="M43,51a5.644,5.644,0,0,0,0-6,17.9,17.9,0,0,1-5,6Z" style="fill:#fff"/><rect x="21" y="51" width="22" height="4" style="fill:#143441"/></g></svg>
