<?xml version="1.0"?>
<svg xmlns="http://www.w3.org/2000/svg" viewBox="0 0 64 64" width="512" height="512"><g id="flat"><path d="M26,29V57l-2.051-.684A3,3,0,0,0,20,59.162V61H30V29Z" style="fill:#98a5a6"/><path d="M38,29V57l2.051-.684A3,3,0,0,1,44,59.162V61H34V29Z" style="fill:#98a5a6"/><path d="M48,45H46V23a6,6,0,0,0-6-6H34V13H30v4H24a6,6,0,0,0-6,6V45H16a2,2,0,0,0-2,2v2a2,2,0,0,0,2,2h4a2,2,0,0,0,2-2V23a2,2,0,0,1,2-2h2v8H38V21h2a2,2,0,0,1,2,2V49a2,2,0,0,0,2,2h4a2,2,0,0,0,2-2V47A2,2,0,0,0,48,45Z" style="fill:#98a5a6"/><path d="M36,13H28L26.718,6.588A3.243,3.243,0,0,1,30,3h4a3.243,3.243,0,0,1,3.282,3.588Z" style="fill:#5a6470"/><rect x="29" y="6" width="2" height="2" style="fill:#fff"/><rect x="33" y="6" width="2" height="2" style="fill:#fff"/><polygon points="38 34 34 36 30 36 26 34 26 29 38 29 38 34" style="fill:#e4544f"/><rect x="29" y="21" width="2" height="2" style="fill:#bfbfbf"/><rect x="33" y="21" width="2" height="2" style="fill:#bfbfbf"/><rect x="17" y="48" width="2" height="3" style="fill:#bfbfbf"/><rect x="45" y="48" width="2" height="3" style="fill:#bfbfbf"/></g></svg>
