<?xml version="1.0"?>
<svg xmlns="http://www.w3.org/2000/svg" viewBox="0 0 64 64" width="512" height="512"><g id="flat"><path d="M32,11c5.517,0,8,13.193,8,27s-3.582,23-8,23c16.016,0,29-9.193,29-23S52,11,32,11Z" style="fill:#f3bb59"/><path d="M32,11c-5.517,0-8,13.193-8,27s3.582,23,8,23C15.984,61,3,51.807,3,38S12,11,32,11Z" style="fill:#f3bb59"/><path d="M40,38c0,13.807-3.582,23-8,23s-8-9.193-8-23,2.483-27,8-27S40,24.193,40,38Z" style="fill:#f3bb59"/><path d="M32,11c5.517,0,8,13.193,8,27s-3.582,23-8,23c11.046,0,20-9.193,20-23S45.793,11,32,11Z" style="fill:#e97131"/><path d="M42,3H33a3,3,0,0,0-3,3v7h4V7h6Z" style="fill:#51a262"/><path d="M32,11c-5.517,0-8,13.193-8,27s3.582,23,8,23c-11.046,0-20-9.193-20-23S18.207,11,32,11Z" style="fill:#e97131"/><path d="M16,23a6.05,6.05,0,0,0-2,5,7,7,0,0,0,7,7c3.7,0,6.749-2.363,7-6Z" style="fill:#25313e"/><path d="M48,23a6.05,6.05,0,0,1,2,5,7,7,0,0,1-7,7c-3.7,0-6.749-2.363-7-6Z" style="fill:#25313e"/><path d="M47,38v6H41V40a47.848,47.848,0,0,1-6,1v6H29V41a51.783,51.783,0,0,1-6-1v4H17V38a68.714,68.714,0,0,1-8-3s.562,12.068,10,18V50h6v5a27.8,27.8,0,0,0,7,1,27.8,27.8,0,0,0,7-1V50h6v3c9.438-5.932,10-18,10-18A41.161,41.161,0,0,1,47,38Z" style="fill:#2f3e4f"/></g></svg>
