<?xml version="1.0"?>
<svg xmlns="http://www.w3.org/2000/svg" viewBox="0 0 64 64" width="512" height="512"><g id="flat"><rect x="33" y="37" width="20" height="24" style="fill:#f98c96"/><path d="M21,37H33a0,0,0,0,1,0,0v4a8,8,0,0,1-8,8H21a0,0,0,0,1,0,0V37A0,0,0,0,1,21,37Z" style="fill:#e4544f"/><path d="M7,25,3,23V17a4,4,0,0,1,4-4H7Z" style="fill:#5a6470"/><path d="M21,25l4-2V17a4,4,0,0,0-4-4h0Z" style="fill:#5a6470"/><path d="M35,9v6a2,2,0,0,1-2,2H25v4h8a6,6,0,0,0,6-6V9a2,2,0,0,1,2-2H55a2,2,0,0,1,2,2V23a2,2,0,0,1-2,2H47a6,6,0,0,0-6,6v6h4V31a2,2,0,0,1,2-2h8a6,6,0,0,0,6-6V9a6,6,0,0,0-6-6H41A6,6,0,0,0,35,9Z" style="fill:#ebb562"/><path d="M7,15H21a0,0,0,0,1,0,0V29a2,2,0,0,1-2,2H9a2,2,0,0,1-2-2V15A0,0,0,0,1,7,15Z" style="fill:#ffd782"/><polygon points="43 44 40.1 49.1 33 37 39 37 43 44" style="fill:#b23b3b"/><polygon points="39 51 45 51 53 37 47 37 39 51" style="fill:#a51c1c"/><rect x="33" y="51" width="20" height="4" style="fill:#b23b3b"/><path d="M11,9h6a4,4,0,0,1,4,4v2a0,0,0,0,1,0,0H7a0,0,0,0,1,0,0V13A4,4,0,0,1,11,9Z" style="fill:#143441"/><path d="M14,5h0a2,2,0,0,1,2,2V9a0,0,0,0,1,0,0H12a0,0,0,0,1,0,0V7A2,2,0,0,1,14,5Z" style="fill:#5a6470"/><rect x="10" y="18" width="3" height="2" style="fill:#143441"/><rect x="15" y="18" width="3" height="2" style="fill:#143441"/><rect x="13" y="26" width="2" height="2" style="fill:#143441"/><rect x="10" y="22" width="2" height="2" style="fill:#e4544f"/><rect x="16" y="22" width="2" height="2" style="fill:#e4544f"/><path d="M45,37H57a0,0,0,0,1,0,0v4a8,8,0,0,1-8,8H45a0,0,0,0,1,0,0V37A0,0,0,0,1,45,37Z" style="fill:#e4544f"/></g></svg>
