<?xml version="1.0"?>
<svg xmlns="http://www.w3.org/2000/svg" viewBox="0 0 64 64" width="512" height="512"><g id="flat"><path d="M29,3h6A20,20,0,0,1,55,23V61a0,0,0,0,1,0,0H9a0,0,0,0,1,0,0V23A20,20,0,0,1,29,3Z" style="fill:#5a6470"/><path d="M45,48,37,61H27L19,48h0a6,6,0,0,1-6-6V23A14,14,0,0,1,27,9H37A14,14,0,0,1,51,23V42a6,6,0,0,1-6,6Z" style="fill:#cfdfe8"/><path d="M19,21s7-1,7-6a2,2,0,0,1,4,0s2,10-11,10a2,2,0,0,1,0-4Z" style="fill:#143441"/><path d="M45,21s-7-1-7-6a2,2,0,0,0-4,0S32,25,45,25a2,2,0,0,0,0-4Z" style="fill:#143441"/><path d="M26.243,29.97l-.486-1.94c3.09-.773,3.237-2.813,3.243-3.044L31,25C31,25.154,30.946,28.794,26.243,29.97Z" style="fill:#143441"/><path d="M37.757,29.97C33.054,28.794,33,25.154,33,25h1l1-.014c.006.231.153,2.271,3.243,3.044Z" style="fill:#143441"/><path d="M38,40c0,6.075-2.868,18-6,18s-6-11.925-6-18,2.686-7,6-7S38,33.925,38,40Z" style="fill:#143441"/><path d="M19,48h0a6,6,0,0,1-6-6V32l6,2Z" style="fill:#aec0d1"/><path d="M45,48h0a6,6,0,0,0,6-6V32l-6,2Z" style="fill:#aec0d1"/></g></svg>
