<?xml version="1.0"?>
<svg xmlns="http://www.w3.org/2000/svg" viewBox="0 0 64 64" width="512" height="512"><g id="flat"><polygon points="50 33 58 42 54 42 60 49 54 49 61 58 53 58 55 61 44 61 44 55 50 55 50 33" style="fill:#d3843d"/><polygon points="50 23 57 21 60 16 55 16 60 10 54 10 61 3 53 3 45 7 46 3 37 7 40 3 32 3 32 15 50 12 50 23" style="fill:#d3843d"/><polygon points="50 55 14 55 14 12 32 15 50 12 50 55" style="fill:#ebb562"/><path d="M32,44a1,1,0,0,1-.707-.293l-2-2A1,1,0,0,1,29,41V30h2V40.586l1,1,1-1V30h2V41a1,1,0,0,1-.293.707l-2,2A1,1,0,0,1,32,44Z" style="fill:#ad6327"/><polygon points="18 55 14 55 14 43 21 41 18 47 21 49 18 55" style="fill:#9c2d20"/><polygon points="46 55 50 55 50 43 43 41 46 47 43 49 46 55" style="fill:#9c2d20"/><rect x="23.5" y="13.424" width="2" height="13.153" transform="translate(1.007 41.174) rotate(-81.254)" style="fill:#ad6327"/><rect x="32.924" y="19" width="13.153" height="2" transform="translate(-2.579 6.231) rotate(-8.736)" style="fill:#ad6327"/><path d="M14,33H10a2,2,0,0,1-2-2L7,21l7,2Z" style="fill:#fff69a"/><path d="M50,33h4a2,2,0,0,0,2-2l1-10-7,2Z" style="fill:#fff69a"/><rect x="11" y="27" width="3" height="2" style="fill:#ad6327"/><rect x="50" y="27" width="3" height="2" style="fill:#ad6327"/><path d="M26,51a1,1,0,0,1-1-1V47a1,1,0,0,1,2,0v3A1,1,0,0,1,26,51Z" style="fill:#e4544f"/><path d="M38,51a1,1,0,0,1-1-1V47a1,1,0,0,1,2,0v3A1,1,0,0,1,38,51Z" style="fill:#e4544f"/><polygon points="14 33 6 42 10 42 4 49 10 49 3 58 11 58 9 61 20 61 20 55 14 55 14 33" style="fill:#ad6327"/><rect x="20" y="55" width="24" height="6" style="fill:#9c2d20"/><polygon points="14 23 7 21 4 16 9 16 4 10 10 10 3 3 11 3 19 7 18 3 27 7 24 3 32 3 32 15 14 12 14 23" style="fill:#ad6327"/><rect x="23.586" y="40" width="2.828" height="2" transform="translate(-21.669 29.686) rotate(-45)" style="fill:#ad6327"/><rect x="38" y="39.586" width="2" height="2.828" transform="translate(-17.569 39.586) rotate(-45)" style="fill:#ad6327"/><path d="M39.553,45.105c-2.331,1.166-4.13,1.435-5.2.778C33.033,45.076,33,43.017,33,43l-.667,0L31,43c0,.021-.033,2.08-1.351,2.887-1.073.657-2.87.388-5.2-.778l-.894,1.79a10.821,10.821,0,0,0,4.693,1.339,4.59,4.59,0,0,0,2.462-.654A4.237,4.237,0,0,0,32,46.322a4.237,4.237,0,0,0,1.292,1.258,4.593,4.593,0,0,0,2.462.654A10.821,10.821,0,0,0,40.447,46.9Z" style="fill:#ad6327"/><path d="M34,38H30a1,1,0,0,0-1,1v2a1,1,0,0,0,.293.707l2,2a1,1,0,0,0,1.414,0l2-2A1,1,0,0,0,35,41V39A1,1,0,0,0,34,38Z" style="fill:#9c2d20"/><path d="M40,36a6,6,0,0,0,6-6H34A6,6,0,0,0,40,36Z" style="fill:#fff"/><path d="M37.888,30a2.227,2.227,0,0,0-.138.75,2.25,2.25,0,0,0,4.5,0,2.227,2.227,0,0,0-.138-.75Z" style="fill:#e4544f"/><path d="M40,24h0a6,6,0,0,1,6,6v0a0,0,0,0,1,0,0H34a0,0,0,0,1,0,0v0A6,6,0,0,1,40,24Z" style="fill:#394d5c"/><path d="M24,36a6,6,0,0,0,6-6H18A6,6,0,0,0,24,36Z" style="fill:#fff"/><path d="M21.888,30a2.227,2.227,0,0,0-.138.75,2.25,2.25,0,0,0,4.5,0,2.227,2.227,0,0,0-.138-.75Z" style="fill:#e4544f"/><path d="M24,24h0a6,6,0,0,1,6,6v0a0,0,0,0,1,0,0H18a0,0,0,0,1,0,0v0A6,6,0,0,1,24,24Z" style="fill:#394d5c"/></g></svg>
