<?xml version="1.0"?>
<svg xmlns="http://www.w3.org/2000/svg" viewBox="0 0 64 64" width="512" height="512"><g id="flat"><path d="M32,27a101.992,101.992,0,0,1-19-1.594V53l6,8H45l6-8V25.406A101.992,101.992,0,0,1,32,27Z" style="fill:#ffd782"/><ellipse cx="32" cy="21" rx="28" ry="6" style="fill:#143441"/><path d="M50,21a82.525,82.525,0,0,1-18,2,82.525,82.525,0,0,1-18-2L24,3H39Z" style="fill:#5a6470"/><polygon points="19 61 13 53 13 47 19 49 19 61" style="fill:#d3843d"/><polygon points="45 61 51 53 51 47 45 49 45 61" style="fill:#d3843d"/><path d="M32,51a1,1,0,0,1-.707-.293l-2-2A.994.994,0,0,1,29,48.09l-1-11L30,36.91l.967,10.639L32,48.586l1.037-1.037L34,36.91,36,37.09l-1,11a.994.994,0,0,1-.289.617l-2,2A1,1,0,0,1,32,51Z" style="fill:#ebb562"/><rect x="38" y="46" width="2" height="2" style="fill:#ebb562"/><rect x="40" y="50" width="2" height="2" style="fill:#ebb562"/><rect x="25" y="46" width="2" height="2" style="fill:#ebb562"/><rect x="22" y="49" width="2" height="2" style="fill:#ebb562"/><path d="M13,46H9a2,2,0,0,1-2-2L6,34l7,2Z" style="fill:#ebb562"/><rect x="10" y="40" width="3" height="2" style="fill:#ad6327"/><path d="M51,46h4a2,2,0,0,0,2-2l1-10-7,2Z" style="fill:#ebb562"/><rect x="51" y="40" width="3" height="2" style="fill:#ad6327"/><path d="M36,62H28a1,1,0,0,1-.707-.293l-4-4,1.414-1.414L28.414,60H35.5l2.7-3.6,1.6,1.2-3,4A1,1,0,0,1,36,62Z" style="fill:#ebb562"/><rect x="28" y="53" width="8" height="2" style="fill:#143441"/><path d="M14,21a82.525,82.525,0,0,0,18,2,82.525,82.525,0,0,0,18-2l-3.042-5H16.812Z" style="fill:#cfdfe8"/><ellipse cx="32" cy="19.5" rx="4" ry="3.5" style="fill:#143441"/><path d="M13,25.406a40.338,40.338,0,0,1-4-.986V34.859L13,36Z" style="fill:#d0bafa"/><path d="M9,46c0,2.5-1,2.5-1,5s1,2.5,1,5-1,2.5-1,5H19l-6-8V46Z" style="fill:#d0bafa"/><rect x="11" y="58" width="2" height="3" style="fill:#714fc6"/><path d="M51,25.406a40.338,40.338,0,0,0,4-.986V34.859L51,36Z" style="fill:#d0bafa"/><path d="M55,46c0,2.5,1,2.5,1,5s-1,2.5-1,5,1,2.5,1,5H45l6-8V46Z" style="fill:#d0bafa"/><rect x="51" y="58" width="2" height="3" style="fill:#714fc6"/><path d="M41,43a6,6,0,0,0,6-6H35A6,6,0,0,0,41,43Z" style="fill:#fff"/><path d="M38.888,37a2.227,2.227,0,0,0-.138.75,2.25,2.25,0,0,0,4.5,0,2.227,2.227,0,0,0-.138-.75Z" style="fill:#e4544f"/><path d="M41,31h0a6,6,0,0,1,6,6v0a0,0,0,0,1,0,0H35a0,0,0,0,1,0,0v0A6,6,0,0,1,41,31Z" style="fill:#394d5c"/><path d="M23,43a6,6,0,0,0,6-6H17A6,6,0,0,0,23,43Z" style="fill:#fff"/><path d="M20.888,37a2.227,2.227,0,0,0-.138.75,2.25,2.25,0,0,0,4.5,0,2.227,2.227,0,0,0-.138-.75Z" style="fill:#e4544f"/><path d="M23,31h0a6,6,0,0,1,6,6v0a0,0,0,0,1,0,0H17a0,0,0,0,1,0,0v0A6,6,0,0,1,23,31Z" style="fill:#394d5c"/></g></svg>
