<?xml version="1.0"?>
<svg xmlns="http://www.w3.org/2000/svg" viewBox="0 0 64 64" width="512" height="512"><g id="flat"><rect x="14" y="15" width="36" height="36" style="fill:#cfdfe8"/><path d="M40,31a6,6,0,0,0,6-6H34A6,6,0,0,0,40,31Z" style="fill:#fff"/><path d="M37.888,25a2.227,2.227,0,0,0-.138.75,2.25,2.25,0,0,0,4.5,0,2.227,2.227,0,0,0-.138-.75Z" style="fill:#e4544f"/><path d="M40,19h0a6,6,0,0,1,6,6v0a0,0,0,0,1,0,0H34a0,0,0,0,1,0,0v0A6,6,0,0,1,40,19Z" style="fill:#394d5c"/><path d="M24,31a6,6,0,0,0,6-6H18A6,6,0,0,0,24,31Z" style="fill:#fff"/><path d="M21.888,25a2.227,2.227,0,0,0-.138.75,2.25,2.25,0,0,0,4.5,0,2.227,2.227,0,0,0-.138-.75Z" style="fill:#e4544f"/><path d="M24,19h0a6,6,0,0,1,6,6v0a0,0,0,0,1,0,0H18a0,0,0,0,1,0,0v0a6,6,0,0,1,6-6Z" style="fill:#394d5c"/><polygon points="20 51 14 51 14 35 20 37 20 51" style="fill:#aec0d1"/><polygon points="44 51 50 51 50 35 44 37 44 51" style="fill:#aec0d1"/><polygon points="40 39 38 37 26 37 24 39 24 47 27 45 38 45 40 47 40 39" style="fill:#5a6470"/><path d="M12,51h2a0,0,0,0,1,0,0V61a0,0,0,0,1,0,0H6a0,0,0,0,1,0,0V57A6,6,0,0,1,12,51Z" style="fill:#ad6327"/><path d="M50,51h8a0,0,0,0,1,0,0V61a0,0,0,0,1,0,0H56a6,6,0,0,1-6-6V51A0,0,0,0,1,50,51Z" transform="translate(108 112) rotate(-180)" style="fill:#ad6327"/><rect x="29" y="37" width="4" height="4" style="fill:#e4544f"/><path d="M45,7c-.034,0-.066.009-.1.01a4.985,4.985,0,0,0-9.688-.374,3.983,3.983,0,0,0-5.451-.951,3.98,3.98,0,0,0-7.486-.114A4.947,4.947,0,0,0,20,5a5,5,0,0,0,0,10H45a4,4,0,0,0,0-8Z" style="fill:#55b56a"/><rect x="19" y="9" width="2" height="2" style="fill:#fff69a"/><rect x="25" y="7" width="2" height="2" style="fill:#fff69a"/><rect x="30" y="10" width="2" height="2" style="fill:#fff69a"/><rect x="38" y="7" width="2" height="2" style="fill:#fff69a"/><rect x="42" y="10" width="2" height="2" style="fill:#fff69a"/><path d="M52,22h4a0,0,0,0,1,0,0v8a0,0,0,0,1,0,0H52a2,2,0,0,1-2-2V24A2,2,0,0,1,52,22Z" transform="translate(106 52) rotate(-180)" style="fill:#aec0d1"/><rect x="50" y="25" width="3" height="2" style="fill:#5a6470"/><path d="M10,22h4a0,0,0,0,1,0,0v8a0,0,0,0,1,0,0H10a2,2,0,0,1-2-2V24A2,2,0,0,1,10,22Z" style="fill:#aec0d1"/><rect x="11" y="25" width="3" height="2" style="fill:#5a6470"/><rect x="14" y="51" width="36" height="10" style="fill:#d3843d"/><rect x="6" y="56" width="3" height="2" style="fill:#ffd782"/><rect x="54" y="54" width="4" height="2" style="fill:#ffd782"/><rect x="23" y="51" width="18" height="10" style="fill:#ffd782"/><circle cx="54" cy="5" r="2" style="fill:#55b56a"/><circle cx="9" cy="10" r="2" style="fill:#55b56a"/><rect x="28.586" y="32" width="2.828" height="2" transform="translate(-14.548 30.879) rotate(-45)" style="fill:#394d5c"/><rect x="33" y="31.586" width="2" height="2.828" transform="translate(-13.376 33.707) rotate(-45)" style="fill:#394d5c"/></g></svg>
