<?xml version="1.0"?>
<svg xmlns="http://www.w3.org/2000/svg" viewBox="0 0 64 64" width="512" height="512"><g id="flat"><path d="M57,11H7a4,4,0,0,0-4,4v8a4,4,0,0,0,4,4H9V53H55V27h2a4,4,0,0,0,4-4V15A4,4,0,0,0,57,11Z" style="fill:#d3843d"/><path d="M45,11H7a4,4,0,0,0-4,4v8a4,4,0,0,0,4,4H9V53H43V27h2a4,4,0,0,0,4-4V15A4,4,0,0,0,45,11Z" style="fill:#ad6327"/><path d="M43,15H9a2,2,0,0,0-2,2v4a2,2,0,0,0,2,2h4V49H39V23h4a2,2,0,0,0,2-2V17A2,2,0,0,0,43,15Z" style="fill:#f1c056"/><rect x="16" y="44" width="2" height="2" style="fill:#ffd782"/><rect x="22" y="40" width="2" height="2" style="fill:#ffd782"/><rect x="32" y="18" width="2" height="2" style="fill:#ffd782"/><rect x="27" y="21" width="2" height="2" style="fill:#ffd782"/><rect x="33" y="25" width="2" height="2" style="fill:#ffd782"/><rect x="17" y="36" width="2" height="2" style="fill:#ffd782"/></g></svg>
