<?xml version="1.0"?>
<svg xmlns="http://www.w3.org/2000/svg" viewBox="0 0 64 64" width="512" height="512"><g id="flat"><path d="M7,55H57a0,0,0,0,1,0,0v4a2,2,0,0,1-2,2H9a2,2,0,0,1-2-2V55A0,0,0,0,1,7,55Z" style="fill:#d3843d"/><path d="M17,17H47A10,10,0,0,1,57,27v4a0,0,0,0,1,0,0H7a0,0,0,0,1,0,0V27A10,10,0,0,1,17,17Z" style="fill:#d3843d"/><rect x="9" y="47" width="46" height="8" style="fill:#e4544f"/><rect x="10" y="43" width="44" height="4" style="fill:#ad6327"/><rect x="10" y="31" width="44" height="12" style="fill:#3e8051"/><polygon points="54 35 49 39 44 35 40 39 36 35 32 39 28 35 24 39 19 35 15 39 10 35 10 31 54 31 54 35" style="fill:#e4544f"/><polygon points="20 51 10 43 54 43 20 51" style="fill:#ffd782"/><rect x="48" y="50" width="4" height="2" style="fill:#fff"/><polygon points="32.293 13.707 28.586 10 32.586 6 30.293 3.707 31.707 2.293 35.414 6 31.414 10 33.707 12.293 32.293 13.707" style="fill:#f3bb59"/><polygon points="24.293 13.707 20.586 10 24.586 6 22.293 3.707 23.707 2.293 27.414 6 23.414 10 25.707 12.293 24.293 13.707" style="fill:#f3bb59"/><polygon points="40.293 13.707 36.586 10 40.586 6 38.293 3.707 39.707 2.293 43.414 6 39.414 10 41.707 12.293 40.293 13.707" style="fill:#f3bb59"/><rect x="30" y="20" width="4" height="2" style="fill:#ffd782"/><rect x="26" y="24" width="4" height="2" style="fill:#ffd782"/><rect x="34" y="24" width="4" height="2" style="fill:#ffd782"/><rect x="38" y="20" width="4" height="2" style="fill:#ffd782"/><rect x="42" y="24" width="4" height="2" style="fill:#ffd782"/><rect x="22" y="20" width="4" height="2" style="fill:#ffd782"/><rect x="18" y="24" width="4" height="2" style="fill:#ffd782"/></g></svg>
