<?xml version="1.0"?>
<svg xmlns="http://www.w3.org/2000/svg" viewBox="0 0 64 64" width="512" height="512"><g id="flat"><path d="M47,13h-.9a6,6,0,0,0-2.136.393L3,29H61S63,13,47,13Z" style="fill:#ffd782"/><path d="M3,29v7a4,4,0,0,1,0,8v7H37a6,6,0,0,1,12,0H61V29Z" style="fill:#ebb562"/><circle cx="28" cy="44" r="3" style="fill:#e97424"/><circle cx="38" cy="36" r="2" style="fill:#e97424"/><circle cx="51" cy="38" r="3" style="fill:#e97424"/><rect x="58" y="46" width="3" height="2" style="fill:#fff"/><rect x="6" y="32" width="2" height="2" style="fill:#fff"/><rect x="10" y="32" width="2" height="2" style="fill:#fff"/><circle cx="50" cy="22" r="3" style="fill:#e97424"/><circle cx="36" cy="23" r="2" style="fill:#e97424"/><circle cx="16" cy="40" r="3" style="fill:#e97424"/></g></svg>
