<?xml version="1.0"?>
<svg xmlns="http://www.w3.org/2000/svg" viewBox="0 0 64 64" width="512" height="512"><g id="flat"><path d="M34,3H20V37H34L44,47V13A10,10,0,0,1,34,3Z" style="fill:#d3843d"/><rect x="24" y="7" width="6" height="6" style="fill:#995f5b"/><rect x="24" y="17" width="6" height="6" style="fill:#995f5b"/><rect x="34" y="17" width="6" height="6" style="fill:#995f5b"/><rect x="24" y="27" width="6" height="6" style="fill:#995f5b"/><rect x="34" y="27" width="6" height="6" style="fill:#995f5b"/><polygon points="44 61 20 61 20 37 34 37 44 47 44 61" style="fill:#4f83d1"/><polygon points="44 47 34 47 34 37 44 47" style="fill:#3e5496"/><polygon points="44 53 20 53 20 41 34 41 34 47 44 47 44 53" style="fill:#69b1d5"/><rect x="39" y="56" width="2" height="2" style="fill:#fff"/></g></svg>
