<?xml version="1.0"?>
<svg xmlns="http://www.w3.org/2000/svg" viewBox="0 0 64 64" width="512" height="512"><g id="flat"><polygon points="44 61 20 61 16 25 48 25 44 61" style="fill:#d3843d"/><rect x="14" y="13" width="36" height="4" style="fill:#ad6327"/><rect x="12" y="17" width="40" height="8" style="fill:#38495c"/><rect x="12" y="20" width="5" height="2" style="fill:#fff"/><rect x="19" y="20" width="2" height="2" style="fill:#fff"/><rect x="47" y="20" width="2" height="2" style="fill:#fff"/><polygon points="45 52 19 52 17 33 47 33 45 52" style="fill:#3e8051"/><polygon points="34 13 30 13 30 5 34 3 34 13" style="fill:#3e8051"/><ellipse cx="28" cy="45" rx="3" ry="2" style="fill:#f1d77e"/><ellipse cx="34" cy="41" rx="5" ry="4" style="fill:#f1d77e"/><rect x="36" y="56" width="8" height="2" style="fill:#fff"/></g></svg>
