<?xml version="1.0"?>
<svg xmlns="http://www.w3.org/2000/svg" viewBox="0 0 64 64" width="512" height="512"><g id="flat"><circle cx="32" cy="32" r="29" style="fill:#aeddd0"/><circle cx="20" cy="36" r="9" style="fill:#ad6327"/><circle cx="24" cy="22" r="9" style="fill:#d3843d"/><circle cx="40" cy="24" r="9" style="fill:#ad6327"/><rect x="22" y="18" width="2" height="2" style="fill:#ffd782"/><rect x="19" y="21" width="2" height="2" style="fill:#ffd782"/><rect x="27" y="21" width="2" height="2" style="fill:#ffd782"/><rect x="24" y="26" width="2" height="2" style="fill:#ffd782"/><path d="M47,43a2.992,2.992,0,0,1-2.884-2.22,2.976,2.976,0,0,1-3.935-3.771c-.061,0-.12-.009-.181-.009a9.014,9.014,0,1,0,8.354,5.663A2.959,2.959,0,0,1,47,43Z" style="fill:#d3843d"/><rect x="42" y="20" width="2" height="2" style="fill:#ffd782"/><rect x="41" y="24" width="2" height="2" style="fill:#ffd782"/><rect x="36" y="25" width="2" height="2" style="fill:#ffd782"/><rect x="21" y="40" width="2" height="2" style="fill:#ffd782"/><rect x="14" y="35" width="2" height="2" style="fill:#ffd782"/><rect x="19" y="36" width="2" height="2" style="fill:#ffd782"/><rect x="36" y="45" width="2" height="2" style="fill:#ffd782"/><rect x="39" y="48" width="2" height="2" style="fill:#ffd782"/><path d="M24.351,8.937l-.7-1.874c.342-.126,8.445-3.1,16.7,0l-.7,1.874C32.111,6.11,24.427,8.908,24.351,8.937Z" style="fill:#fff"/><path d="M30.625,58.084a21.182,21.182,0,0,1-12.206-4.27l1.162-1.628c6.541,4.672,12.2,3.837,12.258,3.827l.325,1.973A9.954,9.954,0,0,1,30.625,58.084Z" style="fill:#fff"/><rect x="16" y="49.586" width="2" height="2.828" transform="translate(-31.083 26.958) rotate(-45)" style="fill:#fff"/></g></svg>
