<?xml version="1.0"?>
<svg xmlns="http://www.w3.org/2000/svg" viewBox="0 0 64 64" width="512" height="512"><g id="flat"><rect x="13" y="43" width="2" height="19" style="fill:#5a6470"/><rect x="31" y="9" width="2" height="53" style="fill:#5a6470"/><rect x="8" y="3" width="12" height="44" rx="4" ry="4" style="fill:#d3843d"/><polygon points="12.781 44.625 11.219 43.375 14.66 39.074 10.586 35 14.586 31 10.66 27.074 14.66 22.074 10.586 18 14.586 14 10.586 10 15.293 5.293 16.707 6.707 13.414 10 17.414 14 13.414 18 17.34 21.926 13.34 26.926 17.414 31 13.414 35 17.34 38.926 12.781 44.625" style="fill:#ffd782"/><circle cx="32" cy="9" r="6" style="fill:#e4544f"/><circle cx="32" cy="25" r="6" style="fill:#e4544f"/><circle cx="32" cy="41" r="6" style="fill:#e4544f"/><rect x="49" y="10" width="2" height="52" style="fill:#5a6470"/><rect x="44" y="3" width="12" height="12" style="fill:#e97424"/><rect x="44" y="19" width="12" height="12" style="fill:#e97424"/><rect x="44" y="35" width="12" height="12" style="fill:#e97424"/><rect x="51" y="6" width="2" height="2" style="fill:#fff"/><rect x="47" y="22" width="2" height="2" style="fill:#fff"/></g></svg>
