<?xml version="1.0"?>
<svg xmlns="http://www.w3.org/2000/svg" viewBox="0 0 64 64" width="512" height="512"><g id="flat"><path d="M47,33.839A3.114,3.114,0,0,0,43.83,31H42a3,3,0,0,0,3-3.161A3.114,3.114,0,0,0,41.83,25H40a2,2,0,0,1-2-2V9c0,4.152-5,7-10,8-5.091.7-9,4.094-9,8h-.83A3.114,3.114,0,0,0,15,27.839,3,3,0,0,0,18,31h2a3,3,0,0,0,0,6H44A3,3,0,0,0,47,33.839Z" style="fill:#f98c96"/><polygon points="50 61 14 61 12 43 52 43 50 61" style="fill:#f29657"/><path d="M52,43H12V41a4,4,0,0,1,4-4H48a4,4,0,0,1,4,4Z" style="fill:#dd3e46"/><rect x="31" y="30" width="12" height="2" style="fill:#fff"/><rect x="27" y="30" width="2" height="2" style="fill:#fff"/><circle cx="25" cy="26" r="2" style="fill:#fff"/><circle cx="32" cy="23" r="2" style="fill:#fff"/><path d="M21,3h2a6,6,0,0,1,6,6V9a0,0,0,0,1,0,0H27a6,6,0,0,1-6-6V3A0,0,0,0,1,21,3Z" style="fill:#3e8051"/><path d="M35,3h2a0,0,0,0,1,0,0V3a6,6,0,0,1-6,6H29a0,0,0,0,1,0,0V9A6,6,0,0,1,35,3Z" transform="translate(66 12) rotate(-180)" style="fill:#3e8051"/><circle cx="29" cy="13" r="4" style="fill:#dd3e46"/><polygon points="28 61 22 61 20 43 27 43 28 61" style="fill:#ffd782"/><polygon points="36 61 42 61 44 43 37 43 36 61" style="fill:#ffd782"/></g></svg>
