<?xml version="1.0"?>
<svg xmlns="http://www.w3.org/2000/svg" viewBox="0 0 64 64" width="512" height="512"><g id="flat"><path d="M32,3A29,29,0,1,0,61,32,29,29,0,0,0,32,3Zm0,41A12,12,0,1,1,44,32,12,12,0,0,1,32,44Z" style="fill:#f98c96"/><path d="M32,50V48c.084,0,8.477-.1,12.133-6.5l1.736.992C41.629,49.915,32.391,50,32,50Z" style="fill:#fff"/><rect x="28" y="48" width="2" height="2" style="fill:#fff"/><path d="M60.89,29.557v-.009c-.039-.474-.091-.946-.153-1.414l0-.018q-.093-.7-.219-1.38l-.006-.034q-.125-.677-.281-1.343l-.011-.046q-.155-.66-.341-1.307l-.017-.059c-.122-.425-.255-.847-.4-1.264l-.026-.077q-.211-.617-.449-1.219l-.037-.095q-.236-.591-.5-1.169l-.054-.118q-.257-.565-.537-1.117c-.023-.046-.046-.091-.07-.136-.184-.36-.377-.715-.576-1.066l-.09-.156c-.2-.341-.4-.679-.611-1.011-.037-.059-.075-.117-.112-.175q-.311-.485-.64-.955c-.046-.066-.093-.131-.14-.2-.217-.3-.438-.6-.666-.9-.054-.071-.11-.14-.164-.209-.225-.286-.454-.568-.69-.845-.065-.077-.131-.152-.2-.228-.231-.266-.465-.529-.7-.786-.076-.082-.154-.161-.23-.242-.236-.247-.475-.491-.72-.73-.087-.085-.175-.168-.263-.251-.24-.229-.483-.456-.731-.676-.1-.089-.2-.175-.3-.262-.242-.21-.485-.417-.734-.618-.114-.092-.23-.182-.346-.272-.242-.19-.486-.379-.734-.561-.128-.094-.258-.184-.387-.276-.243-.172-.486-.343-.734-.508-.141-.094-.285-.183-.428-.274-.243-.156-.485-.31-.732-.458-.155-.093-.313-.18-.469-.27-.242-.139-.484-.278-.73-.409-.167-.09-.338-.174-.507-.26-.241-.123-.482-.247-.727-.364-.181-.086-.366-.165-.548-.248-.239-.107-.477-.216-.719-.317-.2-.082-.394-.156-.591-.233-.237-.093-.471-.188-.711-.274-.207-.075-.418-.142-.627-.212-.234-.079-.467-.161-.7-.233-.221-.068-.446-.128-.67-.191s-.457-.132-.689-.191-.479-.112-.718-.166c-.223-.051-.444-.106-.669-.151-.257-.052-.517-.094-.777-.139-.211-.036-.421-.078-.634-.111-.278-.042-.56-.072-.84-.106-.2-.025-.4-.054-.6-.075-.312-.031-.628-.05-.942-.071-.172-.012-.343-.03-.516-.039Q32.743,3,32,3t-1.476.037c-.173.009-.344.027-.516.039-.314.021-.63.04-.942.071-.2.021-.4.05-.6.075-.28.034-.562.064-.84.106-.213.033-.423.075-.634.111-.26.045-.52.087-.777.139-.225.045-.446.1-.669.151-.239.054-.48.1-.718.166s-.46.127-.689.191-.449.123-.67.191c-.237.072-.47.154-.7.233-.209.07-.42.137-.627.212-.24.087-.476.182-.712.274-.2.077-.395.151-.589.233-.243.1-.481.21-.72.318-.183.082-.367.161-.548.247-.245.117-.486.241-.727.364-.169.086-.34.17-.507.26-.246.131-.488.27-.73.409-.156.09-.314.177-.469.27-.247.148-.489.3-.732.458-.143.091-.287.18-.428.274-.248.165-.491.336-.734.508-.129.092-.259.182-.387.276-.248.182-.492.371-.734.561-.116.09-.232.18-.346.272-.249.2-.492.408-.734.618-.1.087-.2.173-.3.262-.248.22-.491.447-.731.676-.088.083-.176.166-.263.251-.245.239-.484.483-.72.73-.076.081-.154.16-.23.242-.24.257-.474.52-.7.786-.066.076-.132.151-.2.228-.236.277-.465.559-.69.845-.054.069-.11.138-.164.209-.228.295-.449.6-.666.9-.047.066-.094.131-.14.2q-.328.47-.64.955c-.037.058-.075.116-.112.175-.21.332-.414.67-.611,1.011l-.09.156c-.2.351-.392.706-.576,1.066-.024.045-.047.09-.07.136q-.281.552-.537,1.117l-.054.118q-.26.579-.5,1.169l-.037.095q-.237.6-.449,1.219l-.026.077c-.141.417-.274.839-.4,1.264l-.017.059q-.186.648-.341,1.307l-.011.046q-.156.666-.281,1.343l-.006.034q-.126.684-.219,1.38l0,.018c-.062.468-.114.94-.153,1.414v.009q-.06.717-.085,1.443c-.011.332-.025.665-.025,1a29.21,29.21,0,0,0,.438,5H10v6a5,5,0,0,0,10,0V33h.05c-.027-.331-.05-.662-.05-1a12,12,0,0,1,24,0c0,.338-.023.669-.05,1H44v6a5,5,0,0,0,10,0V36h6.719A29.311,29.311,0,0,0,61,32c0-.335-.014-.668-.025-1Q60.95,30.274,60.89,29.557Z" style="fill:#dd3e46"/><circle cx="14" cy="32" r="2" style="fill:#f98c96"/><circle cx="29" cy="14" r="2" style="fill:#f98c96"/><circle cx="43" cy="13" r="3" style="fill:#f98c96"/><circle cx="15" cy="18" r="3" style="fill:#f98c96"/><circle cx="53" cy="28" r="3" style="fill:#f98c96"/><rect x="19" y="11" width="2" height="2" style="fill:#fff"/><rect x="7" y="26" width="2" height="2" style="fill:#fff"/><rect x="14" y="41" width="2" height="2" style="fill:#fff"/><rect x="44" y="20" width="2" height="2" style="fill:#fff"/><rect x="34" y="7" width="2" height="2" style="fill:#fff"/><rect x="47" y="37" width="2" height="2" style="fill:#fff"/></g></svg>
