<?xml version="1.0"?>
<svg xmlns="http://www.w3.org/2000/svg" viewBox="0 0 64 64" width="512" height="512"><g id="flat"><rect x="3" y="45" width="58" height="8" style="fill:#d3843d"/><rect x="3" y="53" width="58" height="8" style="fill:#ad6327"/><rect x="6" y="48" width="2" height="2" style="fill:#fff"/><rect x="6" y="56" width="2" height="2" style="fill:#fff"/><rect x="56" y="48" width="2" height="2" style="fill:#fff"/><rect x="56" y="56" width="2" height="2" style="fill:#fff"/><path d="M20,33V31a2,2,0,0,0-4,0,2,2,0,0,0-4,0v2c-3,1.078-6,3-6,7,0,3.866,3.134,5,7,5h4c6,0,6-2.8,6-6C23,36.622,21.812,34.848,20,33Z" style="fill:#f1c056"/><path d="M11,40.008,9,40a5.359,5.359,0,0,1,3.684-4.948C14.974,34.288,15,31.033,15,31h2c0,.192-.042,4.734-3.684,5.948A3.367,3.367,0,0,0,11,40.008Z" style="fill:#f47d7d"/><rect x="18" y="38" width="2" height="2" style="fill:#f47d7d"/><path d="M37,33V31a2,2,0,0,0-4,0,2,2,0,0,0-4,0v2c-3,1.078-6,3-6,7,0,3.866,3.134,5,7,5h4c6,0,6-2.8,6-6C40,36.622,38.812,34.848,37,33Z" style="fill:#f1c056"/><path d="M28,40.008,26,40a5.359,5.359,0,0,1,3.684-4.948C31.974,34.288,32,31.033,32,31h2c0,.192-.042,4.734-3.684,5.948A3.367,3.367,0,0,0,28,40.008Z" style="fill:#f47d7d"/><rect x="35" y="38" width="2" height="2" style="fill:#f47d7d"/><path d="M54,33V31a2,2,0,0,0-4,0,2,2,0,0,0-4,0v2c-3,1.078-6,3-6,7,0,3.866,3.134,5,7,5h4c6,0,6-2.8,6-6C57,36.622,55.812,34.848,54,33Z" style="fill:#f1c056"/><path d="M45,40.008,43,40a5.359,5.359,0,0,1,3.684-4.948C48.974,34.288,49,31.033,49,31h2c0,.192-.042,4.734-3.684,5.948A3.367,3.367,0,0,0,45,40.008Z" style="fill:#f47d7d"/><path d="M45,7V5a2,2,0,0,0-4,0,2,2,0,0,0-4,0V7c-3,1.078-6,3-6,7,0,3.866,3.134,5,7,5h4c6,0,6-2.8,6-6C48,10.622,46.812,8.848,45,7Z" style="fill:#f1c056"/><path d="M36,14.008,34,14a5.359,5.359,0,0,1,3.684-4.948C39.974,8.288,40,5.033,40,5h2c0,.192-.042,4.734-3.684,5.948A3.367,3.367,0,0,0,36,14.008Z" style="fill:#f47d7d"/><rect x="52" y="38" width="2" height="2" style="fill:#f47d7d"/><path d="M16,25H14a5.966,5.966,0,0,1,1.155-3.534A4.069,4.069,0,0,0,16,19a2.171,2.171,0,0,0-.735-1.821A4.123,4.123,0,0,1,14,14a5.978,5.978,0,0,1,1.154-3.534A4.066,4.066,0,0,0,16,8h2a5.978,5.978,0,0,1-1.154,3.534A4.066,4.066,0,0,0,16,14a2.171,2.171,0,0,0,.735,1.821A4.123,4.123,0,0,1,18,19a5.966,5.966,0,0,1-1.155,3.534A4.069,4.069,0,0,0,16,25Z" style="fill:#f3bb59"/><path d="M10,19H8a2.863,2.863,0,0,0-.8-1.9A4.788,4.788,0,0,1,6,14a4.788,4.788,0,0,1,1.2-3.1A2.863,2.863,0,0,0,8,9a2.867,2.867,0,0,0-.8-1.9A4.793,4.793,0,0,1,6,4H8a2.867,2.867,0,0,0,.8,1.9A4.793,4.793,0,0,1,10,9a4.788,4.788,0,0,1-1.2,3.1A2.863,2.863,0,0,0,8,14a2.863,2.863,0,0,0,.8,1.9A4.788,4.788,0,0,1,10,19Z" style="fill:#f3bb59"/><path d="M27,19H25a2.863,2.863,0,0,0-.8-1.9A4.788,4.788,0,0,1,23,14a4.788,4.788,0,0,1,1.2-3.1A2.863,2.863,0,0,0,25,9a2.867,2.867,0,0,0-.8-1.9A4.793,4.793,0,0,1,23,4h2a2.867,2.867,0,0,0,.8,1.9A4.793,4.793,0,0,1,27,9a4.788,4.788,0,0,1-1.2,3.1A2.863,2.863,0,0,0,25,14a2.863,2.863,0,0,0,.8,1.9A4.788,4.788,0,0,1,27,19Z" style="fill:#f3bb59"/><rect x="35" y="12" width="26" height="4" style="fill:#ad6327"/><path d="M61,8H45.91a7.965,7.965,0,0,1,2.009,4H61Z" style="fill:#d3843d"/></g></svg>
