<?xml version="1.0"?>
<svg xmlns="http://www.w3.org/2000/svg" viewBox="0 0 64 64" width="512" height="512"><g id="flat"><circle cx="32" cy="32" r="29" style="fill:#aeddd0"/><path d="M47,26a12.089,12.089,0,0,0-1.346-2.765,10.191,10.191,0,0,0-9.012-5.229A9,9,0,0,0,30,21a7.762,7.762,0,0,1-4,2,15.167,15.167,0,0,0,2.923,30,14.934,14.934,0,0,0,11.208-4.967A3.944,3.944,0,0,1,44,47a10.948,10.948,0,0,0,4,0c3.8-.635,6.373-3.883,6.908-7.7A8.822,8.822,0,0,0,50,30,5.7,5.7,0,0,1,47,26Z" style="fill:#f4f4e6"/><circle cx="36" cy="33" r="7" style="fill:#e97424"/><path d="M19.293,44.707c-4.83-4.83-2.177-11.465-.1-14.3l1.615,1.181c-.2.279-4.919,6.884-.1,11.7Z" style="fill:#98a1a1"/><rect x="21" y="44.586" width="2" height="2.828" transform="translate(-26.083 29.029) rotate(-45)" style="fill:#98a1a1"/><circle cx="28" cy="12" r="3" style="fill:#3e8051"/><circle cx="21" cy="18" r="2" style="fill:#3e8051"/><circle cx="37" cy="10" r="2" style="fill:#3e8051"/><rect x="6" y="31" width="2" height="2" style="fill:#fff"/><path d="M8,29,6,29a20.163,20.163,0,0,1,3.143-9.515l1.714,1.03A18.583,18.583,0,0,0,8,29Z" style="fill:#fff"/></g></svg>
