<?xml version="1.0"?>
<svg xmlns="http://www.w3.org/2000/svg" viewBox="0 0 64 64" width="512" height="512"><g id="flat"><circle cx="32" cy="32" r="29" style="fill:#aeddd0"/><path d="M20,32S30.611,42,40,42,57,32,57,32,49.389,22,40,22,20,32,20,32Z" style="fill:#418abd"/><path d="M9,22h2A10,10,0,0,1,21,32v0a0,0,0,0,1,0,0H19A10,10,0,0,1,9,22v0A0,0,0,0,1,9,22Z" style="fill:#418abd"/><path d="M19,32h2a0,0,0,0,1,0,0v0A10,10,0,0,1,11,42H9a0,0,0,0,1,0,0v0A10,10,0,0,1,19,32Z" style="fill:#418abd"/><rect x="27.343" y="30" width="11.314" height="2" transform="translate(-12.255 32.414) rotate(-45)" style="fill:#fff"/><rect x="32.343" y="30" width="11.314" height="2" transform="translate(-10.79 35.95) rotate(-45)" style="fill:#fff"/><rect x="38.343" y="30" width="11.314" height="2" transform="translate(-9.033 40.192) rotate(-45)" style="fill:#fff"/><circle cx="27" cy="19" r="2" style="fill:#3e8051"/><circle cx="34" cy="15" r="2" style="fill:#3e8051"/><circle cx="27" cy="11" r="2" style="fill:#3e8051"/><path d="M17,45s8,0,11-2c0,0,0,6-11,6Z" style="fill:#e4544f"/><rect x="14" y="46" width="3" height="2" style="fill:#3e8051"/><path d="M29,53s8,0,11,2c0,0,0-6-11-6Z" style="fill:#e4544f"/><rect x="26" y="50" width="3" height="2" style="fill:#3e8051"/><path d="M48.293,14.707C41.663,8.077,32.1,8,32,8V6c.425,0,10.5.083,17.707,7.293Z" style="fill:#fff"/><rect x="51" y="15.586" width="2" height="2.828" transform="translate(3.21 41.749) rotate(-45)" style="fill:#fff"/></g></svg>
