<?xml version="1.0"?>
<svg xmlns="http://www.w3.org/2000/svg" viewBox="0 0 64 64" width="512" height="512"><g id="flat"><polygon points="53 61 35 61 33 23 55 23 53 61" style="fill:#dd3e46"/><rect x="31" y="19" width="26" height="4" style="fill:#38495c"/><path d="M49,9V19h4V9a2,2,0,0,1,2-2h6V3H55A6,6,0,0,0,49,9Z" style="fill:#3e8051"/><rect x="33" y="26" width="5" height="2" style="fill:#fff"/><rect x="48" y="56" width="5" height="2" style="fill:#fff"/><rect x="50" y="56" width="2" height="2" style="fill:#fff"/><polygon points="53.526 51 54.579 31 33.421 31 34.474 51 53.526 51" style="fill:#f98c96"/><rect x="20" y="37" width="6" height="24" style="fill:#ad6327"/><rect x="6" y="28" width="6" height="33" style="fill:#ad6327"/><polygon points="26 55 20 57 20 45 26 43 26 55" style="fill:#e89f64"/><polygon points="12 49 6 51 6 39 12 37 12 49" style="fill:#e89f64"/><rect x="8" y="23" width="2" height="5.182" style="fill:#38495c"/><ellipse cx="9" cy="13" rx="6" ry="10" style="fill:#cfdfe8"/><rect x="22" y="31" width="2" height="6" style="fill:#38495c"/><path d="M27,31H19V27c0-15,1-24,8-24h0Z" style="fill:#cfdfe8"/><circle cx="44" cy="41" r="6" style="fill:#ffd782"/></g></svg>
