<?xml version="1.0"?>
<svg xmlns="http://www.w3.org/2000/svg" viewBox="0 0 64 64" width="512" height="512"><g id="flat"><polygon points="58 24 50 22 14 22 6 24 14 53 50 53 58 24" style="fill:#dd3e46"/><rect x="14" y="10" width="4" height="21" style="fill:#ffd782"/><rect x="18" y="12" width="4" height="19" style="fill:#f7a166"/><rect x="22" y="7" width="4" height="24" style="fill:#ffd782"/><rect x="26" y="10" width="4" height="21" style="fill:#f7a166"/><rect x="30" y="3" width="4" height="28" style="fill:#ffd782"/><rect x="34" y="7" width="4" height="24" style="fill:#f7a166"/><rect x="38" y="13" width="4" height="18" style="fill:#ffd782"/><rect x="42" y="9" width="4" height="22" style="fill:#f7a166"/><rect x="46" y="12" width="4" height="19" style="fill:#ffd782"/><path d="M50,61a82,82,0,0,0-36,0V25s7,4,18,4,18-4,18-4Z" style="fill:#f98c96"/><rect x="14" y="39" width="36" height="14" style="fill:#e97424"/><circle cx="32" cy="46" r="7" style="fill:#ffd782"/><rect x="14" y="34" width="5" height="2" style="fill:#fff"/><rect x="45" y="34" width="2" height="2" style="fill:#fff"/></g></svg>
