<?xml version="1.0"?>
<svg xmlns="http://www.w3.org/2000/svg" viewBox="0 0 64 64" width="512" height="512"><g id="flat"><path d="M8,45H56a0,0,0,0,1,0,0v0a8,8,0,0,1-8,8H16a8,8,0,0,1-8-8v0A0,0,0,0,1,8,45Z" style="fill:#d3843d"/><path d="M16,25H48a8,8,0,0,1,8,8v2a0,0,0,0,1,0,0H8a0,0,0,0,1,0,0V33A8,8,0,0,1,16,25Z" style="fill:#d3843d"/><polygon points="33.293 20.707 29.586 17 33.586 13 31.293 10.707 32.707 9.293 36.414 13 32.414 17 34.707 19.293 33.293 20.707" style="fill:#f3bb59"/><polygon points="25.293 20.707 21.586 17 25.586 13 23.293 10.707 24.707 9.293 28.414 13 24.414 17 26.707 19.293 25.293 20.707" style="fill:#f3bb59"/><polygon points="41.293 20.707 37.586 17 41.586 13 39.293 10.707 40.707 9.293 44.414 13 40.414 17 42.707 19.293 41.293 20.707" style="fill:#f3bb59"/><rect x="30" y="28" width="4" height="2" style="fill:#ffd782"/><rect x="38" y="28" width="4" height="2" style="fill:#ffd782"/><rect x="22" y="28" width="4" height="2" style="fill:#ffd782"/><rect x="3" y="35" width="58" height="10" rx="4" ry="4" style="fill:#e4544f"/><path d="M48.83,41.98A9.177,9.177,0,0,1,44.312,40.9a8,8,0,0,0-7.3,0,9.148,9.148,0,0,1-4.515,1.079A9.155,9.155,0,0,1,27.978,40.9a7.186,7.186,0,0,0-3.651-.881,7.187,7.187,0,0,0-3.65.881,9.146,9.146,0,0,1-4.514,1.079A9.151,9.151,0,0,1,11.648,40.9,7.166,7.166,0,0,0,8,40.02a1,1,0,0,1,0-2A9.149,9.149,0,0,1,12.514,39.1a7.18,7.18,0,0,0,3.649.881,7.18,7.18,0,0,0,3.649-.881,9.151,9.151,0,0,1,4.515-1.079A9.152,9.152,0,0,1,28.843,39.1a7.189,7.189,0,0,0,3.651.881,7.182,7.182,0,0,0,3.65-.881,9.992,9.992,0,0,1,9.033,0,8.008,8.008,0,0,0,7.305,0A9.177,9.177,0,0,1,57,38.02a1,1,0,0,1,0,2,7.187,7.187,0,0,0-3.652.881A9.164,9.164,0,0,1,48.83,41.98Z" style="fill:#ffd782"/></g></svg>
