<?xml version="1.0"?>
<svg xmlns="http://www.w3.org/2000/svg" viewBox="0 0 64 64" width="512" height="512"><g id="flat"><polygon points="40 61 24 61 22 35 42 35 40 61" style="fill:#efe7fc"/><path d="M42,25a2,2,0,0,0,0-4,10,10,0,0,0-20,0,2,2,0,0,0,0,4,2,2,0,0,0,0,4H42a2,2,0,0,0,0-4Z" style="fill:#f98c96"/><rect x="18" y="29" width="28" height="6" style="fill:#e4544f"/><polygon points="40.462 55 41.665 39.356 22.434 40.638 23.538 55 40.462 55" style="fill:#dc93bf"/><rect x="21" y="24" width="5" height="2" style="fill:#dd3e46"/><rect x="38" y="24" width="5" height="2" style="fill:#dd3e46"/><path d="M32,11a10,10,0,0,0-9.833,8.22c.64.8,3.111,3.366,6.318.3,1.033.979,3.644,2.754,6.934-.006.934,1.015,3.366,2.916,6.407-.332A10,10,0,0,0,32,11Z" style="fill:#ffd782"/><circle cx="32" cy="9" r="4" style="fill:#dd3e46"/><rect x="18.379" y="2.015" width="4.243" height="16.971" transform="translate(-1.42 17.571) rotate(-45)" style="fill:#3b73a5"/><rect x="31" y="16" width="2" height="2" style="fill:#fff"/><rect x="35" y="15" width="2" height="2" style="fill:#fff"/></g></svg>
