<?xml version="1.0"?>
<svg xmlns="http://www.w3.org/2000/svg" viewBox="0 0 64 64" width="512" height="512"><g id="flat"><path d="M55.71,45.29l-1.42,1.42a17.306,17.306,0,0,1-3.5-5.58c-2.25,4.31-6.87,8.4-7.13,8.62l-1.32-1.5c1.95-1.71,6.73-6.58,7.54-10.25A4.4,4.4,0,0,0,50,37h.91A5.47,5.47,0,0,1,51,38a5.47,5.47,0,0,1,.09-1H52a8.262,8.262,0,0,0,.06,1A14.092,14.092,0,0,0,55.71,45.29Z" style="fill:#67c086"/><polygon points="40 13 16 13 17 17 17 41 16 45 40 45 39 41 39 17 40 13" style="fill:#e4544f"/><rect x="18" y="9" width="20" height="4" style="fill:#f1d77e"/><rect x="16" y="5" width="24" height="4" style="fill:#995f5b"/><rect x="17" y="20" width="22" height="18" style="fill:#f1d77e"/><rect x="21" y="24" width="14" height="10" style="fill:#f4f4e6"/><rect x="28" y="5" width="4" height="15" style="fill:#d3843d"/><circle cx="30" cy="20" r="3" style="fill:#f4f4e6"/><circle cx="42" cy="54" r="6" style="fill:#e4544f"/><circle cx="56" cy="51" r="6" style="fill:#e4544f"/><path d="M59,32a6,6,0,0,1-6,6H51a5.47,5.47,0,0,1,.09-1A5.99,5.99,0,0,1,57,32Z" style="fill:#3e8051"/><path d="M51,38H49a6,6,0,0,1-6-6h2a5.99,5.99,0,0,1,5.91,5A5.47,5.47,0,0,1,51,38Z" style="fill:#3e8051"/><path d="M3,44c0-3.28,1.235-6.095,3-7.33V25h4V36.67c1.765,1.235,3,4.05,3,7.33,0,4.418-2.239,8-5,8S3,48.418,3,44Z" style="fill:#cfdfe8"/><path d="M12,9,10,25H6L4,9A1.835,1.835,0,0,1,6,7h4A1.835,1.835,0,0,1,12,9Z" style="fill:#d3843d"/><rect x="56" y="50" width="2" height="2" style="fill:#fff"/><rect x="7" y="10" width="2" height="2" style="fill:#fff"/></g></svg>
