<?xml version="1.0"?>
<svg xmlns="http://www.w3.org/2000/svg" viewBox="0 0 64 64" width="512" height="512"><g id="flat"><circle cx="29" cy="42" r="12" style="fill:#e97424"/><path d="M21,46A7,7,0,0,1,7,46Z" style="fill:#f5f688"/><path d="M25,46A11,11,0,0,1,3,46H7a7,7,0,0,0,14,0Z" style="fill:#f1c056"/><rect x="41" y="17" width="20" height="38" style="fill:#92cdde"/><rect x="41" y="51" width="20" height="4" style="fill:#e97424"/><rect x="41" y="25" width="20" height="26" style="fill:#f1c056"/><polygon points="45 7 35 7 35 11 45 11 45 17 49 17 49 7 45 7" style="fill:#e97424"/><path d="M14,53a6.965,6.965,0,0,0,3.882-1.176L14,46l-3.882,5.824A6.965,6.965,0,0,0,14,53Z" style="fill:#f1d77e"/><rect x="21" y="39" width="2" height="2" style="fill:#f1c056"/><rect x="23" y="35" width="2" height="2" style="fill:#f1c056"/><rect x="56" y="46" width="2" height="2" style="fill:#fff"/><rect x="56" y="40" width="2" height="4" style="fill:#fff"/></g></svg>
