<?xml version="1.0"?>
<svg xmlns="http://www.w3.org/2000/svg" viewBox="0 0 64 64" width="512" height="512"><g id="flat"><polygon points="21 58 6 58 3 30 23 30 21 58" style="fill:#92cdde"/><rect x="53" y="16" width="8" height="42" style="fill:#69b1d5"/><rect x="27" y="16" width="26" height="42" style="fill:#92cdde"/><polygon points="53 16 27 16 31 10 57 10 53 16" style="fill:#b3e5f4"/><polygon points="61 16 53 16 57 10 61 16" style="fill:#3b90b2"/><rect x="31" y="6" width="26" height="4" style="fill:#92cdde"/><path d="M45,50l3-4a2.121,2.121,0,0,0-3-3l-3,4-2-2a2.121,2.121,0,0,0-3,3l2,2H27v8H53V50Z" style="fill:#f4f4e6"/><circle cx="38" cy="38" r="2" style="fill:#f4f4e6"/><circle cx="46" cy="34" r="2" style="fill:#f4f4e6"/><polygon points="3.536 35 6 58 21 58 22.643 35 3.536 35" style="fill:#f4f4e6"/><rect x="7" y="38" width="2" height="2" style="fill:#3b90b2"/><rect x="11" y="40" width="2" height="2" style="fill:#3b90b2"/><rect x="27" y="19" width="5" height="2" style="fill:#fff"/><rect x="56" y="50" width="2" height="8" style="fill:#fff"/><rect x="56" y="46" width="2" height="2" style="fill:#fff"/></g></svg>
