<?xml version="1.0"?>
<svg xmlns="http://www.w3.org/2000/svg" viewBox="0 0 64 64" width="512" height="512"><g id="flat"><rect x="7" y="10" width="54" height="4" style="fill:#ad6327"/><rect x="7" y="6" width="54" height="4" style="fill:#d3843d"/><path d="M8,32V42A14,14,0,0,0,22,56H19v4H45V56H42A14,14,0,0,0,56,42V32Z" style="fill:#aeddd0"/><path d="M15,5h0a2,2,0,0,1,2,2V32a0,0,0,0,1,0,0H13a0,0,0,0,1,0,0V7A2,2,0,0,1,15,5Z" style="fill:#ffd782"/><path d="M19,5h0a2,2,0,0,1,2,2V32a0,0,0,0,1,0,0H17a0,0,0,0,1,0,0V7A2,2,0,0,1,19,5Z" style="fill:#f1c056"/><path d="M23,5h0a2,2,0,0,1,2,2V32a0,0,0,0,1,0,0H21a0,0,0,0,1,0,0V7A2,2,0,0,1,23,5Z" style="fill:#ffd782"/><path d="M27,5h0a2,2,0,0,1,2,2V32a0,0,0,0,1,0,0H25a0,0,0,0,1,0,0V7A2,2,0,0,1,27,5Z" style="fill:#f1c056"/><rect x="8" y="32" width="48" height="4" style="fill:#3e8051"/><rect x="11" y="39" width="2" height="2" style="fill:#fff"/><rect x="15" y="39" width="2" height="2" style="fill:#fff"/></g></svg>
