<?xml version="1.0"?>
<svg xmlns="http://www.w3.org/2000/svg" viewBox="0 0 64 64" width="512" height="512"><g id="flat"><rect x="8" y="40" width="49" height="5" style="fill:#ffd782"/><rect x="10" y="42" width="3" height="5" style="fill:#ebb562"/><rect x="27" y="42" width="4" height="4" style="fill:#ebb562"/><rect x="43" y="42" width="2" height="5" style="fill:#ebb562"/><polygon points="54 58 10 58 8 44 56 44 54 58" style="fill:#ffd782"/><polygon points="18 58 10 58 8 44 16 44 18 58" style="fill:#ebb562"/><polygon points="38 58 46 58 48 44 40 44 38 58" style="fill:#ebb562"/><polygon points="32 44 32 58 26 58 24 44 32 44" style="fill:#ebb562"/><path d="M32,27C17,27,3,34.373,3,41v2c0,2.209,2.791,4,5,4a4,4,0,0,0,4-4,4,4,0,0,0,8,0,4,4,0,0,0,8,0,4,4,0,0,0,8,0,4,4,0,0,0,8,0,4,4,0,0,0,8,0,4,4,0,0,0,4,4c2.209,0,5-1.791,5-4V41C61,34.373,47,27,32,27Z" style="fill:#d3843d"/><path d="M32,23H30a5.966,5.966,0,0,1,1.155-3.534A4.069,4.069,0,0,0,32,17a2.171,2.171,0,0,0-.735-1.821A4.123,4.123,0,0,1,30,12a5.978,5.978,0,0,1,1.154-3.534A4.066,4.066,0,0,0,32,6h2a5.978,5.978,0,0,1-1.154,3.534A4.066,4.066,0,0,0,32,12a2.171,2.171,0,0,0,.735,1.821A4.123,4.123,0,0,1,34,17a5.966,5.966,0,0,1-1.155,3.534A4.069,4.069,0,0,0,32,23Z" style="fill:#f3bb59"/><path d="M25,24H23a4.788,4.788,0,0,1,1.2-3.1,2.656,2.656,0,0,0,0-3.8A4.788,4.788,0,0,1,23,14a4.793,4.793,0,0,1,1.2-3.1A2.867,2.867,0,0,0,25,9h2a4.793,4.793,0,0,1-1.2,3.1A2.867,2.867,0,0,0,25,14a2.863,2.863,0,0,0,.8,1.9,4.6,4.6,0,0,1,0,6.2A2.863,2.863,0,0,0,25,24Z" style="fill:#f3bb59"/><path d="M39,24H37a4.788,4.788,0,0,1,1.2-3.1,2.656,2.656,0,0,0,0-3.8A4.788,4.788,0,0,1,37,14a4.793,4.793,0,0,1,1.2-3.1A2.867,2.867,0,0,0,39,9h2a4.793,4.793,0,0,1-1.2,3.1A2.867,2.867,0,0,0,39,14a2.863,2.863,0,0,0,.8,1.9,4.6,4.6,0,0,1,0,6.2A2.863,2.863,0,0,0,39,24Z" style="fill:#f3bb59"/><path d="M34,35a2,2,0,0,1-4,0c0-2,2-4,2-4S34,33,34,35Z" style="fill:#ffd782"/><path d="M25,36a2.121,2.121,0,0,1-3-3c1.414-1.414,5-2,5-2S26.414,34.586,25,36Z" style="fill:#ffd782"/><path d="M39,36a2.121,2.121,0,0,0,3-3c-1.414-1.414-5-2-5-2S37.586,34.586,39,36Z" style="fill:#ffd782"/><rect x="7" y="39" width="2" height="2" style="fill:#38495c"/><rect x="11" y="37" width="2" height="2" style="fill:#38495c"/></g></svg>
