<?xml version="1.0"?>
<svg xmlns="http://www.w3.org/2000/svg" viewBox="0 0 64 64" width="512" height="512"><g id="flat"><path d="M32,3C18,3,3,9,3,9L32,61,61,9S46,3,32,3Z" style="fill:#e89f64"/><path d="M32,9c10.351,0,21.241,3.278,26.219,4.988L61,9S46,3,32,3,3,9,3,9l2.781,4.988C10.759,12.278,21.649,9,32,9Z" style="fill:#ad6327"/><path d="M32.4,17.8a4.128,4.128,0,0,0-4.8,0l-1.2-1.6a6.074,6.074,0,0,1,7.2,0Z" style="fill:#ffd782"/><path d="M35.9,22.992A5.729,5.729,0,0,1,32.4,21.8l1.2-1.6a4.128,4.128,0,0,0,4.8,0l1.2,1.6A6.462,6.462,0,0,1,35.9,22.992Z" style="fill:#ffd782"/><path d="M32.4,31.8a4.128,4.128,0,0,0-4.8,0l-1.2-1.6a6.075,6.075,0,0,1,7.2,0Z" style="fill:#ffd782"/><circle cx="16" cy="17" r="3" style="fill:#aeddd0"/><circle cx="31" cy="47" r="3" style="fill:#aeddd0"/><circle cx="40" cy="30" r="3" style="fill:#aeddd0"/><path d="M23,27a4,4,0,0,0,4-4H19A4,4,0,0,0,23,27Z" style="fill:#dd3e46"/><path d="M43,19a4,4,0,0,0,4-4H39A4,4,0,0,0,43,19Z" style="fill:#dd3e46"/><path d="M32,36a4,4,0,0,0-4,4h8A4,4,0,0,0,32,36Z" style="fill:#dd3e46"/></g></svg>
