<?xml version="1.0"?>
<svg xmlns="http://www.w3.org/2000/svg" viewBox="0 0 64 64" width="512" height="512"><g id="flat"><path d="M3,31H61a0,0,0,0,1,0,0v0A26,26,0,0,1,35,57H29A26,26,0,0,1,3,31v0A0,0,0,0,1,3,31Z" style="fill:#aeddd0"/><rect x="7" y="34" width="2" height="2" style="fill:#fff"/><path d="M53,24a3.961,3.961,0,0,0-2.043.578A4.982,4.982,0,0,0,46,20a5.48,5.48,0,0,0-3,1,5.848,5.848,0,0,0-5-3,5.974,5.974,0,0,0-2.757.674,3.978,3.978,0,0,0-6.486,0A5.974,5.974,0,0,0,26,18a5.848,5.848,0,0,0-5,3,5.48,5.48,0,0,0-3-1,4.982,4.982,0,0,0-4.957,4.578A3.978,3.978,0,0,0,7,28v3H57V28A4,4,0,0,0,53,24Z" style="fill:#f4f4e6"/><rect x="36" y="22" width="2" height="2" style="fill:#f29657"/><rect x="32" y="24" width="2" height="2" style="fill:#f29657"/><rect x="25" y="22" width="2" height="2" style="fill:#f29657"/><rect x="42" y="25" width="2" height="2" style="fill:#f29657"/><rect x="18" y="25" width="2" height="2" style="fill:#f29657"/><path d="M56.9,45H38v4H26V45H7.1A25.974,25.974,0,0,0,29,57h6A25.974,25.974,0,0,0,56.9,45Z" style="fill:#67c086"/><path d="M32,14H30a3.565,3.565,0,0,1,1.293-2.708c.49-.49.707-.731.707-1.294s-.217-.8-.707-1.294A3.565,3.565,0,0,1,30,6a3.56,3.56,0,0,1,1.293-2.705C31.783,2.8,32,2.561,32,2h2a3.56,3.56,0,0,1-1.293,2.705C32.217,5.2,32,5.436,32,6s.217.8.707,1.294a3.482,3.482,0,0,1,0,5.416C32.217,13.2,32,13.438,32,14Z" style="fill:#f3bb59"/><path d="M26,14H24a3.565,3.565,0,0,1,1.293-2.708c.49-.49.707-.731.707-1.294s-.217-.8-.707-1.294A3.565,3.565,0,0,1,24,6a3.56,3.56,0,0,1,1.293-2.705C25.783,2.8,26,2.561,26,2h2a3.56,3.56,0,0,1-1.293,2.705C26.217,5.2,26,5.436,26,6s.217.8.707,1.294a3.482,3.482,0,0,1,0,5.416C26.217,13.2,26,13.438,26,14Z" style="fill:#f3bb59"/><path d="M38,14H36a3.565,3.565,0,0,1,1.293-2.708c.49-.49.707-.731.707-1.294s-.217-.8-.707-1.294A3.565,3.565,0,0,1,36,6a3.56,3.56,0,0,1,1.293-2.705C37.783,2.8,38,2.561,38,2h2a3.56,3.56,0,0,1-1.293,2.705C38.217,5.2,38,5.436,38,6s.217.8.707,1.294a3.482,3.482,0,0,1,0,5.416C38.217,13.2,38,13.438,38,14Z" style="fill:#f3bb59"/><rect x="15" y="53" width="34" height="8" style="fill:#3e8051"/></g></svg>
