<?xml version="1.0"?>
<svg xmlns="http://www.w3.org/2000/svg" viewBox="0 0 64 64" width="512" height="512"><g id="flat"><path d="M54,8c-1.1,0-1,.105-1-1a2,2,0,0,0-4,0V9l-6,6,3,3,6-6h2a2,2,0,0,0,0-4Z" style="fill:#cfdfe8"/><rect x="7" y="28" width="12" height="4" style="fill:#98a1a1"/><rect x="47" y="28" width="10" height="4" style="fill:#98a1a1"/><path d="M47,26H46c-2.029-4.7-7.43-8-14-8-8.284,0-15,5.373-15,12s6.716,12,15,12c6.57,0,11.971-3.3,14-8h1a4,4,0,0,0,0-8Z" style="fill:#d3843d"/><path d="M46,15c2.343,2.343.734,7.266-2,10s-6.607,3.293-8.95.95S33.266,19.734,36,17,43.657,12.657,46,15Z" style="fill:#ad6327"/><rect x="3" y="25" width="4" height="36" style="fill:#38495c"/><rect x="57" y="25" width="4" height="36" style="fill:#38495c"/><polygon points="26.293 13.707 22.586 10 26.586 6 24.293 3.707 25.707 2.293 29.414 6 25.414 10 27.707 12.293 26.293 13.707" style="fill:#f3bb59"/><polygon points="17.293 13.707 13.586 10 17.586 6 15.293 3.707 16.707 2.293 20.414 6 16.414 10 18.707 12.293 17.293 13.707" style="fill:#f3bb59"/><polygon points="35.293 13.707 31.586 10 35.586 6 33.293 3.707 34.707 2.293 38.414 6 34.414 10 36.707 12.293 35.293 13.707" style="fill:#f3bb59"/><rect x="27" y="35" width="2" height="2" style="fill:#ad6327"/><rect x="35" y="35" width="2" height="2" style="fill:#ad6327"/><rect x="31" y="37" width="2" height="2" style="fill:#ad6327"/><rect x="22" y="57" width="4" height="4" style="fill:#e4544f"/><rect x="30" y="57" width="4" height="4" style="fill:#e4544f"/><rect x="38" y="57" width="4" height="4" style="fill:#e4544f"/><path d="M30,51a2,2,0,0,1-4,0c0-1.1,2-4,2-4S30,49.9,30,51Z" style="fill:#e97424"/><path d="M38,51a2,2,0,0,1-4,0c0-1.1,2-4,2-4S38,49.9,38,51Z" style="fill:#e97424"/><path d="M22.927,27.375l-1.856-.747A9.551,9.551,0,0,1,30,21v2A7.571,7.571,0,0,0,22.927,27.375Z" style="fill:#ad6327"/></g></svg>
