<?xml version="1.0"?>
<svg xmlns="http://www.w3.org/2000/svg" viewBox="0 0 64 64" width="512" height="512"><g id="flat"><path d="M43,19a7,7,0,0,0-6.763,5.219,4.91,4.91,0,0,0-5.265-.781,7.994,7.994,0,0,0-15.92-.323A5,5,0,1,0,14,33H43a7,7,0,0,0,0-14Z" style="fill:#67c086"/><polygon points="57 57 7 57 3 39 61 39 57 57" style="fill:#aeddd0"/><rect x="3" y="33" width="58" height="6" style="fill:#3e8051"/><path d="M27,33H18L4,19a2.715,2.715,0,0,1,0-4H4a2.715,2.715,0,0,1,4,0Z" style="fill:#3e5496"/><rect x="20" y="20" width="2" height="2" style="fill:#fff"/><rect x="24" y="21" width="2" height="2" style="fill:#fff"/><rect x="45" y="52" width="12" height="2" style="fill:#fff"/><rect x="41" y="52" width="2" height="2" style="fill:#fff"/><rect x="4" y="42" width="5" height="2" style="fill:#fff"/><path d="M54.828,25V23.365a4.327,4.327,0,0,0-4-4.365,4.328,4.328,0,0,0-4,4.365V25c-1.505-.778-3.737-1.262-5,0a4.427,4.427,0,0,0,0,6l2,2h14l2-2a4.425,4.425,0,0,0,0-6C58.566,23.738,56.334,24.222,54.828,25Z" style="fill:#e4544f"/><path d="M26,26a7,7,0,0,0-7,7H33A7,7,0,0,0,26,26Z" style="fill:#d0bafa"/><path d="M34,28a5,5,0,0,0-5,5H39A5,5,0,0,0,34,28Z" style="fill:#fcf05a"/><circle cx="35" cy="14" r="2" style="fill:#67c086"/><circle cx="50" cy="10" r="3" style="fill:#67c086"/></g></svg>
