<?xml version="1.0"?>
<svg xmlns="http://www.w3.org/2000/svg" viewBox="0 0 64 64" width="512" height="512"><g id="flat"><polygon points="61 50 25 50 43 14 61 50" style="fill:#ffd782"/><polygon points="25 50 20 50 38 14 43 14 25 50" style="fill:#d3843d"/><polygon points="12 50 7 50 25 14 30 14 12 50" style="fill:#d3843d"/><polygon points="7 50 3 50 21 14 25 14 7 50" style="fill:#ffd782"/><polygon points="20 50 12 50 30 14 38 14 20 50" style="fill:#67c086"/><path d="M32,19a4.969,4.969,0,0,0,1.654,3.692L38,14H37A5,5,0,0,0,32,19Z" style="fill:#dd3e46"/><path d="M32,22a4.989,4.989,0,0,0-2.621,9.241l4.444-8.886A4.957,4.957,0,0,0,32,22Z" style="fill:#dd3e46"/><path d="M28,31a4.985,4.985,0,0,0-2.992,8.984L29.39,31.22A4.952,4.952,0,0,0,28,31Z" style="fill:#dd3e46"/><path d="M24,40a4.984,4.984,0,0,0-3.346,8.692l4.3-8.6A4.981,4.981,0,0,0,24,40Z" style="fill:#dd3e46"/><rect x="52" y="45" width="2" height="2" style="fill:#d3843d"/><rect x="48" y="42" width="2" height="2" style="fill:#d3843d"/></g></svg>
