<?xml version="1.0"?>
<svg xmlns="http://www.w3.org/2000/svg" viewBox="0 0 64 64" width="512" height="512"><g id="flat"><circle cx="32" cy="32" r="29" style="fill:#aeddd0"/><rect x="17" y="15" width="10" height="34" rx="4" ry="4" style="fill:#d3843d"/><rect x="37" y="15" width="10" height="34" rx="4" ry="4" style="fill:#d3843d"/><rect x="19.5" y="21.5" width="5" height="1.999" transform="translate(-9.099 17.694) rotate(-36.859)" style="fill:#fff"/><rect x="19.5" y="27.5" width="5" height="1.999" transform="translate(-12.698 18.893) rotate(-36.859)" style="fill:#fff"/><rect x="19.5" y="33.5" width="5" height="1.999" transform="translate(-16.297 20.093) rotate(-36.859)" style="fill:#fff"/><rect x="19.5" y="39.5" width="5" height="1.999" transform="translate(-19.896 21.292) rotate(-36.859)" style="fill:#fff"/><rect x="21" y="12" width="2" height="3" style="fill:#5a6470"/><rect x="21" y="49" width="2" height="3" style="fill:#5a6470"/><rect x="27" y="15" width="10" height="34" rx="4" ry="4" style="fill:#f3bb59"/><rect x="29.5" y="21.5" width="5" height="1.999" transform="translate(-7.1 23.692) rotate(-36.859)" style="fill:#fff"/><rect x="29.5" y="27.5" width="5" height="1.999" transform="translate(-10.699 24.892) rotate(-36.859)" style="fill:#fff"/><rect x="29.5" y="33.5" width="5" height="1.999" transform="translate(-14.298 26.091) rotate(-36.859)" style="fill:#fff"/><rect x="29.5" y="39.5" width="5" height="1.999" transform="translate(-17.897 27.29) rotate(-36.859)" style="fill:#fff"/><rect x="31" y="12" width="2" height="3" style="fill:#5a6470"/><rect x="31" y="49" width="2" height="3" style="fill:#5a6470"/><rect x="39.5" y="21.5" width="5" height="1.999" transform="translate(-5.101 29.691) rotate(-36.859)" style="fill:#fff"/><rect x="39.5" y="27.5" width="5" height="1.999" transform="translate(-8.7 30.89) rotate(-36.859)" style="fill:#fff"/><rect x="39.5" y="33.5" width="5" height="1.999" transform="translate(-12.3 32.089) rotate(-36.859)" style="fill:#fff"/><rect x="39.5" y="39.5" width="5" height="1.999" transform="translate(-15.899 33.289) rotate(-36.859)" style="fill:#fff"/><rect x="41" y="12" width="2" height="3" style="fill:#5a6470"/><rect x="41" y="49" width="2" height="3" style="fill:#5a6470"/><rect x="6" y="31" width="2" height="2" style="fill:#fff"/><path d="M8,29,6,29a20.16,20.16,0,0,1,3.143-9.515l1.714,1.03A18.586,18.586,0,0,0,8,29Z" style="fill:#fff"/></g></svg>
