<?xml version="1.0"?>
<svg xmlns="http://www.w3.org/2000/svg" viewBox="0 0 64 64" width="512" height="512"><g id="flat"><circle cx="32" cy="32" r="29" style="fill:#aeddd0"/><rect x="16" y="16" width="12" height="26" rx="4" ry="4" style="fill:#f1d77e"/><path d="M16,20V34s6,0,6,3c0-3,6-3,6-3V20a4,4,0,0,0-4-4H20A4,4,0,0,0,16,20Z" style="fill:#e97424"/><rect x="36" y="16" width="12" height="26" rx="4" ry="4" style="fill:#f1d77e"/><path d="M36,20V34s6,0,6,3c0-3,6-3,6-3V20a4,4,0,0,0-4-4H40A4,4,0,0,0,36,20Z" style="fill:#e97424"/><path d="M16,20v8s6,0,6,3c0-3,6-3,6-3V20a4,4,0,0,0-4-4H20A4,4,0,0,0,16,20Z" style="fill:#f1d77e"/><path d="M36,20v8s6,0,6,3c0-3,6-3,6-3V20a4,4,0,0,0-4-4H40A4,4,0,0,0,36,20Z" style="fill:#f1d77e"/><path d="M22,42h0a0,0,0,0,1,0,0v0a8,8,0,0,1-8,8h0a0,0,0,0,1,0,0v0A8,8,0,0,1,22,42Z" style="fill:#e97424"/><path d="M22,42h0a8,8,0,0,1,8,8v0a0,0,0,0,1,0,0h0a8,8,0,0,1-8-8v0A0,0,0,0,1,22,42Z" transform="translate(52 92) rotate(-180)" style="fill:#e97424"/><path d="M16,20v2s6,0,6,3c0-3,6-3,6-3V20a4,4,0,0,0-4-4H20A4,4,0,0,0,16,20Z" style="fill:#e97424"/><path d="M42,42h0a0,0,0,0,1,0,0v0a8,8,0,0,1-8,8h0a0,0,0,0,1,0,0v0A8,8,0,0,1,42,42Z" style="fill:#e97424"/><path d="M42,42h0a8,8,0,0,1,8,8v0a0,0,0,0,1,0,0h0a8,8,0,0,1-8-8v0A0,0,0,0,1,42,42Z" transform="translate(92 92) rotate(-180)" style="fill:#e97424"/><path d="M36,20v2s6,0,6,3c0-3,6-3,6-3V20a4,4,0,0,0-4-4H40A4,4,0,0,0,36,20Z" style="fill:#e97424"/><rect x="21" y="42" width="2" height="20" style="fill:#5a6470"/><rect x="41" y="42" width="2" height="20" style="fill:#5a6470"/><rect x="6" y="31" width="2" height="2" style="fill:#fff"/><path d="M8,29,6,29a20.16,20.16,0,0,1,3.143-9.515l1.714,1.03A18.586,18.586,0,0,0,8,29Z" style="fill:#fff"/></g></svg>
