<?xml version="1.0"?>
<svg xmlns="http://www.w3.org/2000/svg" viewBox="0 0 64 64" width="512" height="512"><g id="flat"><polygon points="48 44 16 44 6 30 58 30 48 44" style="fill:#aeddd0"/><path d="M32,21H30a5.966,5.966,0,0,1,1.155-3.534A4.069,4.069,0,0,0,32,15a2.171,2.171,0,0,0-.735-1.821A4.123,4.123,0,0,1,30,10a5.978,5.978,0,0,1,1.154-3.534A4.066,4.066,0,0,0,32,4h2a5.978,5.978,0,0,1-1.154,3.534A4.066,4.066,0,0,0,32,10a2.171,2.171,0,0,0,.735,1.821A4.123,4.123,0,0,1,34,15a5.966,5.966,0,0,1-1.155,3.534A4.069,4.069,0,0,0,32,21Z" style="fill:#f3bb59"/><path d="M27,17H25a2.863,2.863,0,0,0-.8-1.9A4.788,4.788,0,0,1,23,12a4.788,4.788,0,0,1,1.2-3.1A2.863,2.863,0,0,0,25,7a2.867,2.867,0,0,0-.8-1.9A4.793,4.793,0,0,1,23,2h2a2.867,2.867,0,0,0,.8,1.9A4.793,4.793,0,0,1,27,7a4.788,4.788,0,0,1-1.2,3.1A2.863,2.863,0,0,0,25,12a2.863,2.863,0,0,0,.8,1.9A4.788,4.788,0,0,1,27,17Z" style="fill:#f3bb59"/><path d="M41,17H39a2.863,2.863,0,0,0-.8-1.9A4.788,4.788,0,0,1,37,12a4.788,4.788,0,0,1,1.2-3.1A2.863,2.863,0,0,0,39,7a2.867,2.867,0,0,0-.8-1.9A4.793,4.793,0,0,1,37,2h2a2.867,2.867,0,0,0,.8,1.9A4.793,4.793,0,0,1,41,7a4.788,4.788,0,0,1-1.2,3.1A2.863,2.863,0,0,0,39,12a2.863,2.863,0,0,0,.8,1.9A4.788,4.788,0,0,1,41,17Z" style="fill:#f3bb59"/><rect x="3" y="24" width="58" height="6" style="fill:#3e8051"/><rect x="14" y="33" width="2" height="2" style="fill:#fff"/><rect x="18" y="33" width="2" height="2" style="fill:#fff"/><rect x="6" y="44" width="52" height="4" style="fill:#38495c"/><path d="M57,57h0a2.987,2.987,0,0,1-3,3L24,59V55l30-1A2.988,2.988,0,0,1,57,57Z" style="fill:#ad6327"/><rect x="19" y="56" width="5" height="2" style="fill:#98a1a1"/><path d="M12,53c3.866,0,8,1.791,8,4s-4.134,4-8,4-6-1.791-6-4S8.134,53,12,53Z" style="fill:#cfdfe8"/></g></svg>
