<?xml version="1.0"?>
<svg xmlns="http://www.w3.org/2000/svg" viewBox="0 0 64 64" width="512" height="512"><g id="flat"><polygon points="55 61 9 61 5 49 59 49 55 61" style="fill:#aeddd0"/><rect x="3" y="45" width="58" height="4" style="fill:#3e8051"/><rect x="8" y="41" width="48" height="4" rx="2" ry="2" style="fill:#e97424"/><rect x="12" y="37" width="40" height="4" rx="2" ry="2" style="fill:#f1d77e"/><rect x="15" y="33" width="34" height="4" rx="2" ry="2" style="fill:#e97424"/><path d="M30,33H22V43a2,2,0,0,0,4,0V39a2,2,0,0,0,4,0V37h4v8a2,2,0,0,0,4,0v2a2,2,0,0,0,4,0V33Z" style="fill:#ebb562"/><circle cx="41" cy="31" r="2" style="fill:#e4544f"/><circle cx="33" cy="29" r="2" style="fill:#e4544f"/><rect x="52" y="52" width="5" height="2" style="fill:#fff"/><rect x="48" y="52" width="2" height="2" style="fill:#fff"/><rect x="47" y="-2" width="6" height="22" transform="translate(41 59) rotate(-90)" style="fill:#d3843d"/><rect x="34" y="8" width="5" height="2" style="fill:#cfdfe8"/><path d="M29,16H18V14H29a3,3,0,0,0,3-3V7a3,3,0,0,0-3-3H18V2H29a5.006,5.006,0,0,1,5,5v4A5.006,5.006,0,0,1,29,16Z" style="fill:#cfdfe8"/><path d="M18,33c0-2.349,1-1.651,1-4s-1-1.651-1-4,1-1.655,1-4-1-2.655-1-5,1-2.655,1-5h4c0,2.345-1,2.655-1,5s1,2.655,1,5-1,1.655-1,4,1,1.651,1,4-1,1.651-1,4Z" style="fill:#f29657"/><path d="M22,33c0-2.349,1-1.651,1-4s-1-1.651-1-4,1-1.655,1-4-1-2.655-1-5,1-2.655,1-5h4c0,2.345-1,2.655-1,5s1,2.655,1,5-1,1.655-1,4,1,1.651,1,4-1,1.651-1,4Z" style="fill:#f1d77e"/><path d="M28,12H18V10H28V8H18V6H28a2,2,0,0,1,2,2v2A2,2,0,0,1,28,12Z" style="fill:#cfdfe8"/></g></svg>
