<?xml version="1.0"?>
<svg xmlns="http://www.w3.org/2000/svg" viewBox="0 0 64 64" width="512" height="512"><g id="flat"><circle cx="32" cy="32" r="29" style="fill:#aeddd0"/><path d="M32,38,20,28.029a6.756,6.756,0,0,1-1-9L28,9a5.431,5.431,0,0,1,8,0l9,10.029c2.076,2.561,1.545,7.876-1,9.971Z" style="fill:#e97424"/><path d="M42,44H22l5.721-28.329A2,2,0,0,1,29.694,14h4.612a2,2,0,0,1,1.973,1.671Z" style="fill:#f1d77e"/><rect x="26" y="39" width="2" height="2" style="fill:#e97424"/><rect x="31" y="44" width="2" height="18" style="fill:#5a6470"/><path d="M24,44v4H20V38a2,2,0,0,0-2-2h0a2,2,0,0,0-2,2V50a2,2,0,0,0,2,2h8a2,2,0,0,0,2-2V44Z" style="fill:#e97424"/><path d="M40,44v4h4V38a2,2,0,0,1,2-2h0a2,2,0,0,1,2,2V50a2,2,0,0,1-2,2H38a2,2,0,0,1-2-2V44Z" style="fill:#e97424"/><rect x="6" y="31" width="2" height="2" style="fill:#fff"/><path d="M8,29,6,29a20.16,20.16,0,0,1,3.143-9.515l1.714,1.03A18.586,18.586,0,0,0,8,29Z" style="fill:#fff"/></g></svg>
