<?xml version="1.0"?>
<svg xmlns="http://www.w3.org/2000/svg" viewBox="0 0 64 64" width="512" height="512"><g id="flat"><circle cx="32" cy="32" r="29" style="fill:#aeddd0"/><path d="M51,39c0-.047-.012-.091-.014-.137a3.983,3.983,0,0,0,0-7.726c0-.046.014-.09.014-.137a3,3,0,0,0-6,0v8a3,3,0,0,0,6,0Z" style="fill:#dd3e46"/><path d="M27.365,11A11.239,11.239,0,0,0,16,21.794,11,11,0,0,0,27,33V46.692a9.205,9.205,0,0,0,8.4,9.289A9,9,0,0,0,45,47V13a2,2,0,0,0-2-2Z" style="fill:#d3843d"/><path d="M41,15H27a7,7,0,0,0,0,14h4V47a5,5,0,0,0,10,0Z" style="fill:#f29657"/><rect x="30.136" y="45.5" width="12.728" height="2" transform="translate(-22.19 39.429) rotate(-45)" style="fill:#d3843d"/><rect x="28.929" y="37" width="14.142" height="2" transform="translate(-16.326 36.586) rotate(-45)" style="fill:#d3843d"/><rect x="28.929" y="28" width="14.142" height="2" transform="translate(-9.962 33.95) rotate(-45)" style="fill:#d3843d"/><rect x="24.101" y="21" width="19.799" height="2" transform="translate(-5.598 30.485) rotate(-45)" style="fill:#d3843d"/><rect x="18.722" y="19.5" width="15.556" height="2" transform="translate(-6.734 24.743) rotate(-45)" style="fill:#d3843d"/><circle cx="14" cy="36" r="2" style="fill:#3e8051"/><circle cx="21" cy="39" r="2" style="fill:#3e8051"/><circle cx="15" cy="44" r="3" style="fill:#3e8051"/><path d="M51,29c0-.047-.012-.091-.014-.137a3.983,3.983,0,0,0,0-7.726c0-.046.014-.09.014-.137a3,3,0,0,0-6,0v8a3,3,0,0,0,6,0Z" style="fill:#3e8051"/><rect x="6" y="31" width="2" height="2" style="fill:#fff"/><path d="M8,29,6,29a20.163,20.163,0,0,1,3.143-9.515l1.714,1.03A18.583,18.583,0,0,0,8,29Z" style="fill:#fff"/></g></svg>
