<?xml version="1.0"?>
<svg xmlns="http://www.w3.org/2000/svg" viewBox="0 0 64 64" width="512" height="512"><g id="flat"><rect x="3" y="5" width="58" height="54" style="fill:#aeddd0"/><rect x="8" y="11" width="24" height="18" rx="4" ry="4" style="fill:#5a6470"/><rect x="8" y="11" width="24" height="12" rx="4" ry="4" style="fill:#dd3e46"/><rect x="32" y="11" width="24" height="18" rx="4" ry="4" style="fill:#e8b125"/><rect x="32" y="11" width="24" height="12" rx="4" ry="4" style="fill:#ffd782"/><path d="M24.209,11H12a4,4,0,0,0-4,4v4a4,4,0,0,0,4,4h7.209S30.209,20,24.209,11Z" style="fill:#f9acb4"/><path d="M17,11H12a4,4,0,0,0-4,4v4a4,4,0,0,0,4,4S23,20,17,11Z" style="fill:#e56a76"/><rect x="8" y="33" width="24" height="18" rx="4" ry="4" style="fill:#e8b125"/><rect x="8" y="33" width="24" height="12" rx="4" ry="4" style="fill:#ffd782"/><rect x="32" y="33" width="24" height="18" rx="4" ry="4" style="fill:#5a6470"/><rect x="32" y="33" width="24" height="12" rx="4" ry="4" style="fill:#e97424"/><rect x="11" y="14" width="2" height="2" style="fill:#fff"/><path d="M50,11H36a4,4,0,0,0-4,4v4a4,4,0,0,0,4,4H50a12.677,12.677,0,0,1,2-6A12.677,12.677,0,0,1,50,11Z" style="fill:#e97424"/><path d="M44,11H36a4,4,0,0,0-4,4v4a4,4,0,0,0,4,4h8a12.677,12.677,0,0,1,2-6A12.677,12.677,0,0,1,44,11Z" style="fill:#ffd782"/><path d="M38,11H36a4,4,0,0,0-4,4v4a4,4,0,0,0,4,4h2a12.677,12.677,0,0,1,2-6A12.677,12.677,0,0,1,38,11Z" style="fill:#e97424"/><rect x="12" y="37" width="16" height="4" rx="2" ry="2" style="fill:#e97424"/><rect x="17" y="33" width="6" height="18" style="fill:#5a6470"/><circle cx="40" cy="36" r="3" style="fill:#ffd782"/><circle cx="44" cy="43" r="2" style="fill:#ffd782"/><circle cx="52" cy="43" r="2" style="fill:#ffd782"/><circle cx="36" cy="43" r="2" style="fill:#ffd782"/><circle cx="49" cy="36" r="3" style="fill:#ffd782"/><rect x="56" y="54" width="2" height="2" style="fill:#fff"/><rect x="52" y="54" width="2" height="2" style="fill:#fff"/></g></svg>
