<?xml version="1.0"?>
<svg xmlns="http://www.w3.org/2000/svg" viewBox="0 0 64 64" width="512" height="512"><g id="flat"><rect x="3" y="44" width="58" height="8" style="fill:#aeddd0"/><path d="M23,19h8c.338,0,.668.03,1,.05A15.988,15.988,0,0,0,17,35V47H9a2,2,0,0,1-2-2V35A16,16,0,0,1,23,19Z" style="fill:#d3843d"/><path d="M14,33c0,.047.012.091.014.137a3.983,3.983,0,0,0,0,7.726c0,.046-.014.09-.014.137a3,3,0,0,0,6,0V33a3,3,0,0,0-6,0Z" style="fill:#3e8051"/><circle cx="18" cy="29" r="4" style="fill:#e4544f"/><circle cx="22" cy="22" r="6" style="fill:#aeddd0"/><circle cx="29" cy="20" r="4" style="fill:#e4544f"/><path d="M41,16c-.047,0-.091.012-.137.014a3.983,3.983,0,0,0-7.726,0c-.046,0-.09-.014-.137-.014a3,3,0,0,0,0,6h8a3,3,0,0,0,0-6Z" style="fill:#3e8051"/><circle cx="48" cy="20" r="4" style="fill:#e4544f"/><path d="M33,19h8A16,16,0,0,1,57,35V45a2,2,0,0,1-2,2H17a0,0,0,0,1,0,0V35A16,16,0,0,1,33,19Z" style="fill:#ffd782"/><rect x="37" y="28" width="2" height="2" style="fill:#e97424"/><rect x="33" y="26" width="2" height="2" style="fill:#e97424"/><rect x="29" y="28" width="2" height="2" style="fill:#e97424"/><rect x="45" y="28" width="2" height="2" style="fill:#e97424"/><rect x="41" y="26" width="2" height="2" style="fill:#e97424"/></g></svg>
