<?xml version="1.0"?>
<svg xmlns="http://www.w3.org/2000/svg" viewBox="0 0 64 64" width="512" height="512"><g id="flat"><path d="M3,53h8a0,0,0,0,1,0,0v8a0,0,0,0,1,0,0H7a4,4,0,0,1-4-4V53A0,0,0,0,1,3,53Z" style="fill:#394d5c"/><path d="M57,53h4a0,0,0,0,1,0,0v8a0,0,0,0,1,0,0H53a0,0,0,0,1,0,0V57A4,4,0,0,1,57,53Z" transform="translate(114 114) rotate(-180)" style="fill:#394d5c"/><path d="M7,11h4a0,0,0,0,1,0,0v8a0,0,0,0,1,0,0H3a0,0,0,0,1,0,0V15A4,4,0,0,1,7,11Z" style="fill:#394d5c"/><path d="M53,11h8a0,0,0,0,1,0,0v8a0,0,0,0,1,0,0H57a4,4,0,0,1-4-4V11A0,0,0,0,1,53,11Z" transform="translate(114 30) rotate(180)" style="fill:#394d5c"/><polygon points="53 53 57 53 57 19 53 19 53 15 11 15 11 19 7 19 7 53 11 53 11 57 53 57 53 53" style="fill:#cfdfe8"/><rect x="3" y="19" width="4" height="34" style="fill:#dd3e46"/><rect x="11" y="11" width="42" height="4" style="fill:#dd3e46"/><rect x="57" y="19" width="4" height="34" style="fill:#dd3e46"/><rect x="11" y="57" width="42" height="4" style="fill:#dd3e46"/><polygon points="20 3 20 11 24 11 24 7 41 7 41 11 45 11 45 3 20 3" style="fill:#394d5c"/><polygon points="53 53 53 57 11 57 11 53 7 53 7 27 57 27 57 53 53 53" style="fill:#394d5c"/><circle cx="47" cy="21" r="2" style="fill:#394d5c"/><circle cx="25" cy="21" r="2" style="fill:#394d5c"/><circle cx="17" cy="21" r="2" style="fill:#394d5c"/><rect x="32" y="18" width="8" height="2" style="fill:#dd3e46"/><rect x="32" y="22" width="2" height="2" style="fill:#dd3e46"/><rect x="36" y="22" width="4" height="2" style="fill:#dd3e46"/><rect x="6" y="14" width="2" height="2" style="fill:#cfdfe8"/><rect x="56" y="14" width="2" height="2" style="fill:#cfdfe8"/><rect x="56" y="56" width="2" height="2" style="fill:#cfdfe8"/><rect x="6" y="56" width="2" height="2" style="fill:#fff"/><rect x="7" y="27" width="4" height="26" style="fill:#728d9e"/><rect x="53" y="27" width="4" height="26" style="fill:#728d9e"/><rect x="29" y="27" width="6" height="30" style="fill:#728d9e"/><rect x="23" y="27" width="6" height="30" style="fill:#45606d"/><rect x="17" y="27" width="6" height="30" style="fill:#728d9e"/><rect x="47" y="27" width="6" height="30" style="fill:#45606d"/><rect x="41" y="27" width="6" height="30" style="fill:#728d9e"/><rect x="35" y="27" width="6" height="30" style="fill:#45606d"/><rect x="11" y="27" width="6" height="30" style="fill:#45606d"/></g></svg>
