<?xml version="1.0"?>
<svg xmlns="http://www.w3.org/2000/svg" viewBox="0 0 64 64" width="512" height="512"><g id="flat"><circle cx="32" cy="32" r="29" style="fill:#dd3e46"/><rect x="26" y="7" width="12" height="28" rx="2" ry="2" style="fill:#dadfe6"/><path d="M42,29v6a4,4,0,0,1-4,4H26a4,4,0,0,1-4-4V29a2,2,0,0,0-2-2h0a2,2,0,0,0-2,2v6a8,8,0,0,0,8,8H38a8,8,0,0,0,8-8V29a2,2,0,0,0-2-2h0A2,2,0,0,0,42,29Z" style="fill:#dadfe6"/><rect x="30" y="43" width="4" height="8" style="fill:#98a1a1"/><rect x="23" y="51" width="18" height="4" rx="2" ry="2" style="fill:#dadfe6"/><path d="M21.257,22.669a7.632,7.632,0,0,1-2.247-5.577,7.562,7.562,0,0,1,2.326-4.839l1.328,1.494L22,13l.668.744c-.381.345-3.614,3.487.075,7.587Z" style="fill:#f1d77e"/><path d="M18.28,24.694a10.178,10.178,0,0,1-3.274-7.5,10.67,10.67,0,0,1,3.33-6.941l1.328,1.494L19,11l.666.745A8.773,8.773,0,0,0,17,17.289a8.285,8.285,0,0,0,2.716,6.017Z" style="fill:#f1d77e"/><path d="M42.743,22.669l-1.486-1.338A5.732,5.732,0,0,0,42.993,17.2a5.617,5.617,0,0,0-1.657-3.456l1.328-1.494a7.562,7.562,0,0,1,2.326,4.839A7.632,7.632,0,0,1,42.743,22.669Z" style="fill:#f1d77e"/><path d="M45.72,24.694l-1.44-1.388A8.285,8.285,0,0,0,47,17.289a8.773,8.773,0,0,0-2.662-5.544l1.33-1.492a10.67,10.67,0,0,1,3.33,6.941A10.178,10.178,0,0,1,45.72,24.694Z" style="fill:#f1d77e"/></g></svg>
