<?xml version="1.0"?>
<svg xmlns="http://www.w3.org/2000/svg" viewBox="0 0 64 64" width="512" height="512"><g id="flat"><circle cx="32" cy="46" r="14" style="fill:#d3843d"/><circle cx="32" cy="46" r="10" style="fill:#dadfe6"/><rect x="27" y="3" width="10" height="8" style="fill:#d3843d"/><rect x="29" y="11" width="6" height="46" style="fill:#f1c056"/><rect x="26" y="44" width="12" height="4" style="fill:#5a5e5e"/><rect x="24" y="2" width="3" height="2" style="fill:#98a1a1"/><rect x="24" y="6" width="3" height="2" style="fill:#98a1a1"/><rect x="24" y="10" width="3" height="2" style="fill:#98a1a1"/><rect x="37" y="10" width="3" height="2" style="fill:#98a1a1"/><rect x="37" y="6" width="3" height="2" style="fill:#98a1a1"/><rect x="37" y="2" width="3" height="2" style="fill:#98a1a1"/><polygon points="40.447 26.895 39.553 25.105 41 24.382 41 19.181 48 17.78 48 24.618 45.447 25.895 44.553 24.105 46 23.382 46 20.22 43 20.819 43 25.618 40.447 26.895" style="fill:#f98c96"/><polygon points="10.447 21.895 9.553 20.105 11 19.382 11 14.181 18 12.78 18 19.618 15.447 20.895 14.553 19.105 16 18.382 16 15.22 13 15.819 13 20.618 10.447 21.895" style="fill:#f98c96"/><polygon points="17.447 33.895 16.553 32.105 18 31.382 18 27.382 20.553 26.105 21.447 27.895 20 28.618 20 32.618 17.447 33.895" style="fill:#f98c96"/><rect x="27" y="57" width="10" height="4" style="fill:#5a5e5e"/></g></svg>
