<?xml version="1.0"?>
<svg xmlns="http://www.w3.org/2000/svg" viewBox="0 0 64 64" width="512" height="512"><g id="flat"><polygon points="47 61 32 57 17 61 32 29 47 61" style="fill:#dd3e46"/><rect x="28" y="3" width="8" height="8" style="fill:#2e3131"/><rect x="30" y="11" width="4" height="38" style="fill:#6b809b"/><rect x="27" y="49" width="10" height="4" style="fill:#2e3131"/><rect x="25" y="4" width="3" height="2" style="fill:#dd3e46"/><rect x="25" y="8" width="3" height="2" style="fill:#dd3e46"/><rect x="36" y="4" width="3" height="2" style="fill:#dd3e46"/><rect x="36" y="8" width="3" height="2" style="fill:#dd3e46"/><rect x="31" y="3" width="2" height="3" style="fill:#6b809b"/><path d="M20,35.184V26.613L9,30.279v6.9a3,3,0,1,0,2,0V35.721l7-2.333v1.8a3,3,0,1,0,2,0ZM10,41a1,1,0,1,1,1-1A1,1,0,0,1,10,41Zm1-7.388V31.721l7-2.334v1.892ZM19,39a1,1,0,1,1,1-1A1,1,0,0,1,19,39Z" style="fill:#f98c96"/><path d="M54,13.659V7.483l-9,3.858v9.843a3,3,0,1,0,2,0V16.659Zm-7-1,5-2.142v1.824l-5,2.142ZM46,25a1,1,0,1,1,1-1A1,1,0,0,1,46,25Z" style="fill:#f98c96"/></g></svg>
