<?xml version="1.0"?>
<svg xmlns="http://www.w3.org/2000/svg" viewBox="0 0 64 64" width="512" height="512"><g id="flat"><rect x="28" y="29" width="8" height="5" style="fill:#d3843d"/><path d="M32,3h0a4,4,0,0,0-4,4v5c0,4,2,17,2,17h4s2-13,2-17V7A4,4,0,0,0,32,3Z" style="fill:#f1c056"/><path d="M40,47V37a4,4,0,0,0-4-4H28a4,4,0,0,0-4,4V47a8,8,0,0,1-8,8h0v6H48V55h0A8,8,0,0,1,40,47Z" style="fill:#f1c056"/><rect x="38" y="54" width="10" height="2" style="fill:#fff"/><rect x="31" y="3" width="2" height="5" style="fill:#fff"/><path d="M37,43H35V39a1,1,0,0,0-1-1H32V36h2a3,3,0,0,1,3,3Z" style="fill:#fff"/><rect x="34" y="54" width="2" height="2" style="fill:#fff"/></g></svg>
