<?xml version="1.0"?>
<svg xmlns="http://www.w3.org/2000/svg" viewBox="0 0 64 64" width="512" height="512"><g id="flat"><path d="M37,23H59a0,0,0,0,1,0,0V45a2,2,0,0,1-2,2H39a2,2,0,0,1-2-2V23A0,0,0,0,1,37,23Z" style="fill:#d3843d"/><rect x="35" y="19" width="26" height="4" style="fill:#f1c056"/><path d="M5,23H27a0,0,0,0,1,0,0V45a2,2,0,0,1-2,2H7a2,2,0,0,1-2-2V23A0,0,0,0,1,5,23Z" style="fill:#d3843d"/><rect x="3" y="19" width="26" height="4" style="fill:#f1c056"/><rect x="27" y="29" width="10" height="12" style="fill:#66342e"/><rect x="5" y="27" width="22" height="4" style="fill:#f1c056"/><rect x="12" y="27" width="8" height="4" style="fill:#66342e"/><path d="M14,31h4a0,0,0,0,1,0,0V41a2,2,0,0,1-2,2h0a2,2,0,0,1-2-2V31A0,0,0,0,1,14,31Z" style="fill:#b5554e"/><rect x="37" y="27" width="22" height="4" style="fill:#f1c056"/><rect x="44" y="27" width="8" height="4" style="fill:#66342e"/><path d="M46,31h4a0,0,0,0,1,0,0V41a2,2,0,0,1-2,2h0a2,2,0,0,1-2-2V31A0,0,0,0,1,46,31Z" style="fill:#b5554e"/><rect x="5" y="42" width="5" height="2" style="fill:#f1c056"/><rect x="40" y="42" width="2" height="2" style="fill:#f1c056"/><rect x="54" y="42" width="5" height="2" style="fill:#f1c056"/><rect x="27" y="32" width="5" height="2" style="fill:#b5554e"/><rect x="30" y="36" width="7" height="2" style="fill:#b5554e"/></g></svg>
