<?xml version="1.0"?>
<svg xmlns="http://www.w3.org/2000/svg" viewBox="0 0 64 64" width="512" height="512"><g id="flat"><rect x="3" y="21" width="58" height="34" style="fill:#dd3e46"/><circle cx="15" cy="42" r="8" style="fill:#394d5c"/><circle cx="15" cy="42" r="4" style="fill:#bfbfbf"/><circle cx="49" cy="42" r="8" style="fill:#394d5c"/><circle cx="49" cy="42" r="4" style="fill:#bfbfbf"/><rect x="27" y="34" width="10" height="16" style="fill:#f4f4e6"/><rect x="3" y="21" width="58" height="8" style="fill:#ffd782"/><polygon points="13 9 13 15 13 21 17 21 17 15 47 15 47 21 51 21 51 15 51 9 13 9" style="fill:#dd3e46"/><rect x="17" y="9" width="30" height="6" style="fill:#394d5c"/><rect x="31" y="41" width="2" height="2" style="fill:#728d9e"/><rect x="31" y="45" width="2" height="2" style="fill:#728d9e"/><rect x="31" y="37" width="2" height="2" style="fill:#728d9e"/><rect x="3" y="24" width="16" height="2" style="fill:#394d5c"/><rect x="21" y="24" width="2" height="2" style="fill:#394d5c"/><rect x="51" y="24" width="10" height="2" style="fill:#394d5c"/></g></svg>
