<?xml version="1.0"?>
<svg xmlns="http://www.w3.org/2000/svg" viewBox="0 0 64 64" width="512" height="512"><g id="flat"><rect x="3" y="14" width="58" height="36" style="fill:#dd3e46"/><rect x="3" y="30" width="58" height="10" style="fill:#f3bb59"/><polygon points="57 26 7 26 7 21 10 18 54 18 57 21 57 26" style="fill:#ffd782"/><path d="M44,30H20a5,5,0,0,0,0,10H44a5,5,0,0,0,0-10Z" style="fill:#f3f2f0"/><rect x="13" y="40" width="38" height="10" style="fill:#ffd782"/><rect x="25" y="44" width="14" height="2" style="fill:#d67d43"/><rect x="41" y="44" width="4" height="2" style="fill:#d67d43"/><rect x="19" y="44" width="4" height="2" style="fill:#d67d43"/><rect x="19" y="37" width="2" height="3" style="fill:#6b809b"/><path d="M20,29a6,6,0,1,0,6,6A6.006,6.006,0,0,0,20,29Zm0,10a4,4,0,0,1-3.858-3H18V34H16.142A4,4,0,0,1,19,31.142V33h2V31.142A4,4,0,0,1,23.858,34H22v2h1.858A4,4,0,0,1,20,39Z" style="fill:#6b809b"/><path d="M44,29a6,6,0,1,0,6,6A6.006,6.006,0,0,0,44,29Zm1,9.858V37H43v1.858A4,4,0,0,1,40.142,36H42V34H40.142A4,4,0,0,1,43,31.142V33h2V31.142A4,4,0,0,1,47.858,34H46v2h1.858A4,4,0,0,1,45,38.858Z" style="fill:#6b809b"/></g></svg>
