<?xml version="1.0"?>
<svg xmlns="http://www.w3.org/2000/svg" viewBox="0 0 64 64" width="512" height="512"><g id="flat"><rect x="3" y="15" width="58" height="8" style="fill:#f1c056"/><rect x="6" y="27" width="4" height="30" style="fill:#98a1a1"/><rect x="14" y="27" width="4" height="28" style="fill:#98a1a1"/><rect x="22" y="27" width="4" height="26" style="fill:#98a1a1"/><rect x="30" y="27" width="4" height="24" style="fill:#98a1a1"/><rect x="38" y="27" width="4" height="22" style="fill:#98a1a1"/><rect x="46" y="27" width="4" height="20" style="fill:#98a1a1"/><rect x="54" y="27" width="4" height="18" style="fill:#98a1a1"/><rect x="7" y="23" width="2" height="4" style="fill:#394d5c"/><rect x="15" y="23" width="2" height="4" style="fill:#394d5c"/><rect x="23" y="23" width="2" height="4" style="fill:#394d5c"/><rect x="31" y="23" width="2" height="4" style="fill:#394d5c"/><rect x="39" y="23" width="2" height="4" style="fill:#394d5c"/><rect x="47" y="23" width="2" height="4" style="fill:#394d5c"/><rect x="55" y="23" width="2" height="4" style="fill:#394d5c"/><rect x="6" y="18" width="2" height="2" style="fill:#fff"/><rect x="10" y="18" width="2" height="2" style="fill:#fff"/><rect x="52" y="18" width="6" height="2" style="fill:#fff"/><polygon points="19 7 19 15 23 15 23 11 41 11 41 15 45 15 45 7 19 7" style="fill:#d3843d"/></g></svg>
