<?xml version="1.0"?>
<svg xmlns="http://www.w3.org/2000/svg" viewBox="0 0 64 64" width="512" height="512"><g id="flat"><rect x="3" y="25" width="58" height="4" style="fill:#3e5496"/><rect x="5" y="29" width="54" height="28" style="fill:#92cdde"/><rect x="3" y="57" width="58" height="4" style="fill:#3e5496"/><rect x="5" y="29" width="54" height="6" style="fill:#4da19a"/><rect x="10" y="35" width="4" height="22" style="fill:#6caade"/><rect x="20" y="35" width="4" height="22" style="fill:#6caade"/><rect x="40" y="35" width="4" height="22" style="fill:#6caade"/><rect x="50" y="35" width="4" height="22" style="fill:#6caade"/><rect x="30" y="35" width="4" height="22" style="fill:#6caade"/><path d="M56,3a4.7,4.7,0,0,0-4,2H5A2,2,0,0,0,3,7H3A2,2,0,0,0,5,9H52a4.7,4.7,0,0,0,4,2c2.761,0,5-1.791,5-4S58.761,3,56,3Z" style="fill:#ebb562"/><path d="M8,13a4.7,4.7,0,0,1,4,2H59a2,2,0,0,1,2,2h0a2,2,0,0,1-2,2H12a4.7,4.7,0,0,1-4,2c-2.761,0-5-1.791-5-4S5.239,13,8,13Z" style="fill:#ebb562"/><rect x="18" y="29" width="28" height="6" style="fill:#3b73a5"/><rect x="31" y="29" width="2" height="3" style="fill:#6caade"/><rect x="25" y="29" width="2" height="3" style="fill:#6caade"/><rect x="37" y="29" width="2" height="3" style="fill:#6caade"/></g></svg>
