<?xml version="1.0"?>
<svg xmlns="http://www.w3.org/2000/svg" viewBox="0 0 64 64" width="512" height="512"><g id="flat"><path d="M11,15c-1.172-1.172-4-4-2-6s4.828.828,6,2a2.559,2.559,0,0,1,1,2L57,53a2.817,2.817,0,0,1,0,4h0a2.817,2.817,0,0,1-4,0L13,16A2.559,2.559,0,0,1,11,15Z" style="fill:#e5a82e"/><path d="M53,15c1.172-1.172,4-4,2-6s-4.828.828-6,2a2.559,2.559,0,0,0-1,2L7,53a2.817,2.817,0,0,0,0,4H7a2.817,2.817,0,0,0,4,0L51,16A2.559,2.559,0,0,0,53,15Z" style="fill:#f1c056"/><path d="M10.335,38.747A8.691,8.691,0,0,1,7,32.223c0-3.96,3.2-6.849,3.335-6.97l1.33,1.494L11,26l.666.746c-.027.024-2.673,2.435-2.666,5.488a6.8,6.8,0,0,0,2.665,5.019Z" style="fill:#f98c96"/><path d="M7.335,42.747C3.8,39.6,2,36.109,2,32.37c0-6.3,5.118-10.924,5.335-11.117l1.331,1.493c-.047.042-4.673,4.24-4.666,9.638,0,3.137,1.574,6.121,4.665,8.869Z" style="fill:#f98c96"/><path d="M53.665,38.747l-1.33-1.494A6.8,6.8,0,0,0,55,32.223c0-3.072-2.638-5.452-2.665-5.476l1.33-1.494c.136.121,3.335,3.01,3.335,6.97A8.691,8.691,0,0,1,53.665,38.747Z" style="fill:#f98c96"/><path d="M56.665,42.747l-1.33-1.494C58.431,38.5,60,35.513,60,32.37c0-5.414-4.618-9.581-4.665-9.623l1.33-1.494C56.882,21.446,62,26.067,62,32.37,62,36.109,60.205,39.6,56.665,42.747Z" style="fill:#f98c96"/><polygon points="38.679 42.321 49.543 53.457 53.457 49.543 42.321 38.679 38.679 42.321" style="fill:#d3843d"/><polygon points="14.457 53.457 25.321 42.321 21.679 38.679 10.543 49.543 14.457 53.457" style="fill:#d3843d"/></g></svg>
