<?xml version="1.0"?>
<svg xmlns="http://www.w3.org/2000/svg" viewBox="0 0 64 64" width="512" height="512"><g id="flat"><rect x="10" y="27" width="10" height="10" style="fill:#98a1a1"/><rect x="20" y="29" width="37" height="6" style="fill:#dadfe6"/><rect x="57" y="29" width="4" height="6" style="fill:#98a1a1"/><rect x="26" y="29" width="2" height="3" style="fill:#394d5c"/><rect x="32" y="29" width="2" height="3" style="fill:#394d5c"/><rect x="38" y="29" width="2" height="3" style="fill:#394d5c"/><rect x="44" y="29" width="2" height="3" style="fill:#394d5c"/><rect x="50" y="29" width="2" height="3" style="fill:#394d5c"/><path d="M3,29v4H6a4.971,4.971,0,0,0,4,2V29Z" style="fill:#dadfe6"/><polygon points="44.447 20.895 43.553 19.105 45 18.382 45 13.181 52 11.78 52 18.618 49.447 19.895 48.553 18.105 50 17.382 50 14.22 47 14.819 47 19.618 44.447 20.895" style="fill:#f98c96"/><polygon points="30.447 24.895 29.553 23.105 31 22.382 31 18.382 33.553 17.105 34.447 18.895 33 19.618 33 23.618 30.447 24.895" style="fill:#f98c96"/><rect x="10" y="31" width="5" height="2" style="fill:#394d5c"/></g></svg>
