<?xml version="1.0"?>
<svg xmlns="http://www.w3.org/2000/svg" viewBox="0 0 64 64" width="512" height="512"><g id="flat"><path d="M43,40a11.314,11.314,0,0,0,1-5c0-5.08-3.824-8.79-9-10H29c-5.176,1.21-9,4.92-9,10a11.314,11.314,0,0,0,1,5,11.694,11.694,0,0,0-3,8c0,7.025,6.268,13,14,13s14-5.975,14-13A11.694,11.694,0,0,0,43,40Z" style="fill:#f1c056"/><rect x="28" y="3" width="8" height="10" style="fill:#f1c056"/><rect x="25" y="4" width="3" height="2" style="fill:#d3843d"/><rect x="25" y="8" width="3" height="2" style="fill:#d3843d"/><rect x="36" y="4" width="3" height="2" style="fill:#d3843d"/><rect x="36" y="8" width="3" height="2" style="fill:#d3843d"/><rect x="29" y="13" width="6" height="23" style="fill:#d3843d"/><rect x="28" y="52" width="8" height="2" style="fill:#d3843d"/><rect x="30" y="56" width="4" height="2" style="fill:#d3843d"/><rect x="31" y="3" width="2" height="3" style="fill:#d3843d"/><path d="M59,25.184V16.613L48,20.279v6.905a3,3,0,1,0,2,0V25.721l7-2.333v1.8a3,3,0,1,0,2,0ZM49,31a1,1,0,1,1,1-1A1,1,0,0,1,49,31Zm1-7.388V21.721l7-2.334v1.892ZM58,29a1,1,0,1,1,1-1A1,1,0,0,1,58,29Z" style="fill:#f98c96"/><path d="M11,20.184a3,3,0,1,0,2,0V15.659l7-3V6.483l-9,3.858Zm2-8.525,5-2.142v1.824l-5,2.142ZM12,24a1,1,0,1,1,1-1A1,1,0,0,1,12,24Z" style="fill:#f98c96"/><circle cx="32" cy="42" r="7" style="fill:#ad6327"/><circle cx="32" cy="42" r="3" style="fill:#d3843d"/></g></svg>
