<?xml version="1.0"?>
<svg xmlns="http://www.w3.org/2000/svg" viewBox="0 0 64 64" width="512" height="512"><g id="flat"><rect x="3" y="25" width="58" height="14" rx="2" ry="2" style="fill:#6caade"/><rect x="10" y="25" width="44" height="10" style="fill:#3b73a5"/><rect x="10" y="35" width="4" height="4" style="fill:#bfbfbf"/><rect x="14" y="35" width="4" height="4" style="fill:#98a1a1"/><rect x="18" y="35" width="4" height="4" style="fill:#bfbfbf"/><rect x="22" y="35" width="4" height="4" style="fill:#98a1a1"/><rect x="26" y="35" width="4" height="4" style="fill:#bfbfbf"/><rect x="30" y="35" width="4" height="4" style="fill:#98a1a1"/><rect x="34" y="35" width="4" height="4" style="fill:#bfbfbf"/><rect x="38" y="35" width="4" height="4" style="fill:#98a1a1"/><rect x="42" y="35" width="4" height="4" style="fill:#bfbfbf"/><rect x="46" y="35" width="4" height="4" style="fill:#98a1a1"/><rect x="50" y="35" width="4" height="4" style="fill:#bfbfbf"/><rect x="3" y="31" width="3" height="2" style="fill:#6b809b"/><rect x="58" y="31" width="3" height="2" style="fill:#6b809b"/><rect x="29" y="28" width="6" height="2" style="fill:#fff"/><rect x="25" y="28" width="2" height="2" style="fill:#fff"/><rect x="37" y="28" width="2" height="2" style="fill:#fff"/><path d="M22,52.184V42.612L11,46.279v7.9a3,3,0,1,0,2,0V51.72l7-2.333v2.8a3,3,0,1,0,2,0ZM12,58a1,1,0,1,1,1-1A1,1,0,0,1,12,58Zm1-8.387V47.721l7-2.333V47.28ZM21,56a1,1,0,1,1,1-1A1,1,0,0,1,21,56Z" style="fill:#f98c96"/><path d="M53,8.659V2.483L44,6.341v9.843a3,3,0,1,0,2,0V11.659Zm-7-1,5-2.142V7.341L46,9.483ZM45,20a1,1,0,1,1,1-1A1,1,0,0,1,45,20Z" style="fill:#f98c96"/></g></svg>
