<?xml version="1.0"?>
<svg xmlns="http://www.w3.org/2000/svg" viewBox="0 0 64 64" width="512" height="512"><g id="flat"><rect x="12" y="23" width="2" height="7" style="fill:#6b809b"/><rect x="50" y="23" width="2" height="7" style="fill:#6b809b"/><path d="M33,62H31V58H15a5.006,5.006,0,0,1-5-5V44h2v9a3,3,0,0,0,3,3H32a1,1,0,0,1,1,1Z" style="fill:#6b809b"/><path d="M33,62H31V57a1,1,0,0,1,1-1H49a3,3,0,0,0,3-3V44h2v9a5.006,5.006,0,0,1-5,5H33Z" style="fill:#6b809b"/><path d="M32,3C17,3,11,9,11,9V23h4V11A36.854,36.854,0,0,1,32,7a36.854,36.854,0,0,1,17,4V23h4V9S47,3,32,3Z" style="fill:#45606d"/><path d="M13,27h0a2,2,0,0,1,2,2v4a0,0,0,0,1,0,0H11a0,0,0,0,1,0,0V29A2,2,0,0,1,13,27Z" style="fill:#98a1a1"/><path d="M49,27h4a0,0,0,0,1,0,0v4a2,2,0,0,1-2,2h0a2,2,0,0,1-2-2V27A0,0,0,0,1,49,27Z" transform="translate(102 60) rotate(-180)" style="fill:#98a1a1"/><path d="M25,41a1,1,0,0,1-.707-1.707,1.725,1.725,0,0,0-.006-2.592,1,1,0,0,1,1.42-1.408,3.721,3.721,0,0,1,0,5.414A1,1,0,0,1,25,41Z" style="fill:#f98c96"/><path d="M28,43a1,1,0,0,1-.8-1.6,5.8,5.8,0,0,0,0-6.8,1,1,0,0,1,1.6-1.2,7.767,7.767,0,0,1,0,9.2A1,1,0,0,1,28,43Z" style="fill:#f98c96"/><path d="M39,41a1,1,0,0,1-.707-.293,3.721,3.721,0,0,1,0-5.414,1,1,0,0,1,1.419,1.41,1.724,1.724,0,0,0-.005,2.59A1,1,0,0,1,39,41Z" style="fill:#f98c96"/><path d="M36,43a1,1,0,0,1-.8-.4,7.767,7.767,0,0,1,0-9.2,1,1,0,0,1,1.6,1.2,5.8,5.8,0,0,0,0,6.8A1,1,0,0,1,36,43Z" style="fill:#f98c96"/><path d="M11,33h4a0,0,0,0,1,0,0V45a0,0,0,0,1,0,0H11a6,6,0,0,1-6-6v0A6,6,0,0,1,11,33Z" style="fill:#6caade"/><path d="M55,33h4a0,0,0,0,1,0,0V45a0,0,0,0,1,0,0H55a6,6,0,0,1-6-6v0A6,6,0,0,1,55,33Z" transform="translate(108 78) rotate(180)" style="fill:#6caade"/><path d="M11,43a3.888,3.888,0,0,1-4-4,1,1,0,0,1,2-.006A1.885,1.885,0,0,0,11,41a1,1,0,0,1,0,2ZM9,39H9Z" style="fill:#195c85"/><path d="M53,43a1,1,0,0,1-.006-2A1.885,1.885,0,0,0,55,39a1,1,0,0,1,2,0A3.888,3.888,0,0,1,53,43Z" style="fill:#195c85"/><rect x="45" y="31" width="4" height="16" style="fill:#394d5c"/><rect x="15" y="31" width="4" height="16" style="fill:#394d5c"/></g></svg>
