<?xml version="1.0"?>
<svg xmlns="http://www.w3.org/2000/svg" viewBox="0 0 64 64" width="512" height="512"><g id="flat"><rect x="3" y="28" width="58" height="27" style="fill:#dd3e46"/><rect x="42" y="32" width="14" height="4" style="fill:#ffd782"/><rect x="8" y="32" width="4" height="4" style="fill:#ffd782"/><rect x="17" y="32" width="4" height="4" style="fill:#ffd782"/><rect x="28" y="24" width="8" height="4" style="fill:#7d8d9c"/><rect x="12" y="40" width="4" height="8" style="fill:#394d5c"/><polygon points="12 40 12 48 14 48 14 55 8 55 8 40 12 40" style="fill:#f4f4e6"/><polygon points="16 40 16 48 14 48 14 55 20 55 20 40 16 40" style="fill:#cfdfe8"/><rect x="24" y="40" width="4" height="8" style="fill:#394d5c"/><polygon points="24 40 24 48 26 48 26 55 20 55 20 40 24 40" style="fill:#f4f4e6"/><polygon points="28 40 28 48 26 48 26 55 32 55 32 40 28 40" style="fill:#cfdfe8"/><rect x="36" y="40" width="4" height="8" style="fill:#394d5c"/><polygon points="36 40 36 48 38 48 38 55 32 55 32 40 36 40" style="fill:#f4f4e6"/><polygon points="40 40 40 48 38 48 38 55 44 55 44 40 40 40" style="fill:#cfdfe8"/><rect x="48" y="40" width="4" height="8" style="fill:#394d5c"/><polygon points="48 40 48 48 50 48 50 55 44 55 44 40 48 40" style="fill:#f4f4e6"/><polygon points="52 40 52 48 50 48 50 55 56 55 56 40 52 40" style="fill:#cfdfe8"/><circle cx="28" cy="34" r="2" style="fill:#c8d952"/><circle cx="36" cy="34" r="2" style="fill:#c8d952"/><rect x="30" y="20" width="4" height="4" style="fill:#394d5c"/><path d="M49,23H44a3,3,0,0,1-3-3V15a1,1,0,0,0-1-1H34a1,1,0,0,0-1,1v5H31V15a3,3,0,0,1,3-3h6a3,3,0,0,1,3,3v5a1,1,0,0,0,1,1h5a1,1,0,0,0,1-1V9h2V20A3,3,0,0,1,49,23Z" style="fill:#7d8d9c"/></g></svg>
