<?xml version="1.0"?>
<svg xmlns="http://www.w3.org/2000/svg" viewBox="0 0 64 64" width="512" height="512"><g id="flat"><path d="M46,61h0a4,4,0,0,0,4-4V52c0-4-2-17-2-17H44s-2,13-2,17v5A4,4,0,0,0,46,61Z" style="fill:#f1c056"/><path d="M18,61h0a4,4,0,0,0,4-4V52c0-4-2-17-2-17H16s-2,13-2,17v5A4,4,0,0,0,18,61Z" style="fill:#f1c056"/><path d="M57,17c0,11-4.925,20-11,20S35,28,35,17C35,9.82,39.925,3,46,3S57,9.82,57,17Z" style="fill:#dd3e46"/><path d="M29,17c0,11-4.925,20-11,20S7,28,7,17C7,9.82,11.925,3,18,3S29,9.82,29,17Z" style="fill:#dd3e46"/><path d="M37.12,9H54.88c-2-3.526-5.228-6-8.88-6S39.12,5.474,37.12,9Z" style="fill:#92cdde"/><path d="M9.12,9H26.88c-2-3.526-5.228-6-8.88-6S11.12,5.474,9.12,9Z" style="fill:#92cdde"/><path d="M9.12,9A16.375,16.375,0,0,0,7,17H29a16.375,16.375,0,0,0-2.12-8Z" style="fill:#ebb562"/><path d="M37.12,9A16.375,16.375,0,0,0,35,17H57a16.375,16.375,0,0,0-2.12-8Z" style="fill:#ebb562"/><path d="M55.51,27A33.1,33.1,0,0,0,57,17H35a33.1,33.1,0,0,0,1.49,10Z" style="fill:#3e5496"/><path d="M27.51,27A33.1,33.1,0,0,0,29,17H7A33.1,33.1,0,0,0,8.49,27Z" style="fill:#3e5496"/></g></svg>
