<?xml version="1.0"?>
<svg xmlns="http://www.w3.org/2000/svg" viewBox="0 0 64 64" width="512" height="512"><g id="flat"><rect x="29" y="51" width="6" height="6" style="fill:#98a1a1"/><path d="M32,3h0a8,8,0,0,1,8,8V22a0,0,0,0,1,0,0H24a0,0,0,0,1,0,0V11a8,8,0,0,1,8-8Z" style="fill:#394d5c"/><rect x="24" y="22" width="16" height="4" style="fill:#bfbfbf"/><rect x="24" y="31" width="16" height="4" style="fill:#dd3e46"/><path d="M24,35H40a0,0,0,0,1,0,0v2a8,8,0,0,1-8,8h0a8,8,0,0,1-8-8V35A0,0,0,0,1,24,35Z" style="fill:#394d5c"/><rect x="19" y="57" width="26" height="4" style="fill:#394d5c"/><rect x="24" y="26" width="16" height="5" style="fill:#394d5c"/><path d="M14,22H24a0,0,0,0,1,0,0v4a0,0,0,0,1,0,0H14a2,2,0,0,1-2-2v0A2,2,0,0,1,14,22Z" style="fill:#98a1a1"/><path d="M40,22H50a2,2,0,0,1,2,2v0a2,2,0,0,1-2,2H40a0,0,0,0,1,0,0V22a0,0,0,0,1,0,0Z" style="fill:#98a1a1"/><path d="M44,26V37A12,12,0,0,1,32,49h0A12,12,0,0,1,20,37V26H16V37A16,16,0,0,0,32,53h0A16,16,0,0,0,48,37V26Z" style="fill:#c6cacc"/><rect x="27" y="17" width="2" height="2" style="fill:#98a1a1"/><rect x="31" y="16" width="2" height="2" style="fill:#98a1a1"/><rect x="35" y="17" width="2" height="2" style="fill:#98a1a1"/><rect x="27" y="13" width="2" height="2" style="fill:#98a1a1"/><rect x="31" y="12" width="2" height="2" style="fill:#98a1a1"/><rect x="35" y="13" width="2" height="2" style="fill:#98a1a1"/><rect x="28" y="9" width="2" height="2" style="fill:#98a1a1"/><rect x="31" y="6" width="2" height="2" style="fill:#98a1a1"/><rect x="34" y="9" width="2" height="2" style="fill:#98a1a1"/><path d="M32,42l-.007-2A1.884,1.884,0,0,0,34,38h2A3.887,3.887,0,0,1,32,42Z" style="fill:#98a1a1"/></g></svg>
