<?xml version="1.0"?>
<svg xmlns="http://www.w3.org/2000/svg" viewBox="0 0 64 64" width="512" height="512"><g id="flat"><rect x="43" y="35" width="2" height="6" style="fill:#f1c056"/><rect x="5" y="57" width="54" height="4" style="fill:#ad6327"/><rect x="5" y="41" width="54" height="4" style="fill:#ad6327"/><rect x="8" y="45" width="48" height="12" style="fill:#f1c056"/><path d="M26,11s10,0,17-2A69.945,69.945,0,0,0,54,5V25a69.945,69.945,0,0,0-11-4c-7-2-17-2-17-2H11a2,2,0,0,0-2,2H9a4,4,0,0,0,4,4h6a2,2,0,0,1,2,2h0a2,2,0,0,1-2,2H12a9,9,0,0,1-9-9H3a9,9,0,0,1,9-9Z" style="fill:#f1c056"/><rect x="54" y="3" width="4" height="24" rx="2" ry="2" transform="translate(112 30) rotate(-180)" style="fill:#d9833b"/><path d="M19,25h2a0,0,0,0,1,0,0v4a0,0,0,0,1,0,0H19a2,2,0,0,1-2-2v0A2,2,0,0,1,19,25Z" transform="translate(38 54) rotate(-180)" style="fill:#d9833b"/><rect x="20" y="11" width="6" height="8" transform="translate(46 30) rotate(-180)" style="fill:#d9833b"/><rect x="15" y="14" width="2" height="2" style="fill:#fff"/><rect x="11" y="14" width="2" height="2" style="fill:#fff"/><rect x="15" y="49" width="34" height="4" style="fill:#d9833b"/><path d="M59,36H4a1,1,0,0,1,0-2H59a1,1,0,0,1,0,2Z" style="fill:#394d5c"/><rect x="13" y="29" width="4" height="12" style="fill:#bfbfbf"/></g></svg>
