<?xml version="1.0"?>
<svg xmlns="http://www.w3.org/2000/svg" viewBox="0 0 64 64" width="512" height="512"><g id="flat"><circle cx="32" cy="32" r="29" style="fill:#dd3e46"/><rect x="26" y="7" width="12" height="28" rx="2" ry="2" style="fill:#dadfe6"/><path d="M42,29v6a4,4,0,0,1-4,4H26a4,4,0,0,1-4-4V29a2,2,0,0,0-2-2h0a2,2,0,0,0-2,2v6a8,8,0,0,0,8,8H38a8,8,0,0,0,8-8V29a2,2,0,0,0-2-2h0A2,2,0,0,0,42,29Z" style="fill:#dadfe6"/><rect x="30" y="43" width="4" height="8" style="fill:#98a1a1"/><rect x="23" y="51" width="18" height="4" rx="2" ry="2" style="fill:#dadfe6"/><path d="M50.272,9.485,9.485,50.272a29.241,29.241,0,0,0,4.243,4.243L54.515,13.728A29.241,29.241,0,0,0,50.272,9.485Z" style="fill:#2e3131"/><path d="M46.6,53.8l-1.2-1.6c.116-.087,11.545-8.821,10.6-20.117L58,31.917C59.03,44.325,47.108,53.419,46.6,53.8Z" style="fill:#f1d77e"/><rect x="56" y="28" width="2" height="2" style="fill:#f1d77e"/></g></svg>
