<?xml version="1.0"?>
<svg xmlns="http://www.w3.org/2000/svg" viewBox="0 0 64 64" width="512" height="512"><g id="flat"><rect x="3" y="20" width="58" height="12" style="fill:#f1c056"/><rect x="22" y="12" width="20" height="12" style="fill:#ffd782"/><rect x="12" y="28" width="4" height="4" style="fill:#bfbfbf"/><rect x="16" y="28" width="4" height="4" style="fill:#394d5c"/><rect x="20" y="28" width="4" height="4" style="fill:#bfbfbf"/><rect x="24" y="28" width="4" height="4" style="fill:#394d5c"/><rect x="28" y="28" width="4" height="4" style="fill:#bfbfbf"/><rect x="32" y="28" width="4" height="4" style="fill:#394d5c"/><rect x="36" y="28" width="4" height="4" style="fill:#bfbfbf"/><rect x="40" y="28" width="4" height="4" style="fill:#394d5c"/><rect x="44" y="28" width="4" height="4" style="fill:#bfbfbf"/><rect x="48" y="28" width="4" height="4" style="fill:#394d5c"/><rect x="6" y="23" width="2" height="2" style="fill:#fff"/><rect x="56" y="23" width="5" height="2" style="fill:#fff"/><rect x="7" y="32" width="50" height="4" style="fill:#ad6327"/><rect x="3" y="32" width="4" height="24" style="fill:#d9833b"/><rect x="57" y="32" width="4" height="24" style="fill:#d9833b"/><rect x="23" y="41" width="18" height="4" style="fill:#f1c056"/><rect x="23" y="45" width="4" height="10" style="fill:#d9833b"/><rect x="37" y="45" width="4" height="10" style="fill:#d9833b"/><polygon points="48.447 16.895 47.553 15.105 49 14.382 49 9.18 56 7.78 56 14.618 53.447 15.895 52.553 14.105 54 13.382 54 10.22 51 10.82 51 15.618 48.447 16.895" style="fill:#f98c96"/><polygon points="13.447 14.895 12.553 13.105 14 12.382 14 8.382 16.553 7.105 17.447 8.895 16 9.618 16 13.618 13.447 14.895" style="fill:#f98c96"/><rect x="3" y="28" width="9" height="4" style="fill:#fcf078"/><rect x="52" y="28" width="9" height="4" style="fill:#fcf078"/></g></svg>
