<?xml version="1.0"?>
<svg xmlns="http://www.w3.org/2000/svg" viewBox="0 0 64 64" width="512" height="512"><g id="flat"><rect x="3" y="10" width="14" height="44" style="fill:#394d5c"/><rect x="47" y="10" width="14" height="44" style="fill:#394d5c"/><rect x="17" y="30" width="30" height="24" style="fill:#195c85"/><circle cx="32" cy="42" r="8" style="fill:#bfbfbf"/><circle cx="32" cy="42" r="4" style="fill:#394d5c"/><circle cx="10" cy="27" r="3" style="fill:#98a1a1"/><circle cx="10" cy="37" r="3" style="fill:#98a1a1"/><circle cx="10" cy="47" r="3" style="fill:#98a1a1"/><rect x="7" y="14" width="6" height="4" style="fill:#98a1a1"/><circle cx="54" cy="27" r="3" style="fill:#98a1a1"/><circle cx="54" cy="37" r="3" style="fill:#98a1a1"/><circle cx="54" cy="47" r="3" style="fill:#98a1a1"/><rect x="51" y="14" width="6" height="4" style="fill:#98a1a1"/><rect x="20" y="33" width="2" height="2" style="fill:#fff"/><rect x="42" y="33" width="2" height="2" style="fill:#fff"/><rect x="42" y="49" width="2" height="2" style="fill:#fff"/><rect x="20" y="49" width="2" height="2" style="fill:#fff"/><path d="M36.331,26.743c-4.283-3.854-8.485-.16-8.662,0l-1.338-1.486a8.324,8.324,0,0,1,11.338,0Z" style="fill:#f98c96"/><path d="M38.459,22.841c-6.387-4.106-12.854-.042-12.918,0l-1.082-1.682c.308-.2,7.626-4.793,15.082,0Z" style="fill:#f98c96"/><path d="M40.553,18.9c-8.455-4.229-17.021-.043-17.106,0l-.894-1.79c.385-.192,9.554-4.669,18.894,0Z" style="fill:#f98c96"/></g></svg>
