<?xml version="1.0"?>
<svg xmlns="http://www.w3.org/2000/svg" viewBox="0 0 64 64" width="512" height="512"><g id="flat"><circle cx="9" cy="34" r="6" style="fill:#bfbfbf"/><circle cx="55" cy="34" r="6" style="fill:#bfbfbf"/><circle cx="48" cy="18" r="6" style="fill:#bfbfbf"/><circle cx="16" cy="18" r="6" style="fill:#bfbfbf"/><circle cx="48" cy="50" r="6" style="fill:#bfbfbf"/><circle cx="16" cy="50" r="6" style="fill:#bfbfbf"/><circle cx="32" cy="11" r="6" style="fill:#bfbfbf"/><path d="M32,9A25,25,0,1,0,57,34,25,25,0,0,0,32,9Zm0,46A21,21,0,1,1,53,34,21,21,0,0,1,32,55Z" style="fill:#f1c056"/><path d="M32,55a20.9,20.9,0,0,1-7-1.221V58a24.976,24.976,0,0,0,14,0v-4.22A20.9,20.9,0,0,1,32,55Z" style="fill:#d3843d"/></g></svg>
