<?xml version="1.0"?>
<svg xmlns="http://www.w3.org/2000/svg" viewBox="0 0 64 64" width="512" height="512"><g id="flat"><path d="M44,31H18a8,8,0,0,0,0,16H44a8,8,0,0,0,0-16Zm0,12H18a4,4,0,0,1,0-8H44a4,4,0,0,1,0,8Z" style="fill:#d3843d"/><rect x="3" y="23" width="4" height="10" style="fill:#d3843d"/><path d="M57,37s-8-6-13-6H7V25H44c5,0,13-6,13-6Z" style="fill:#f1c056"/><rect x="57" y="17" width="4" height="22" style="fill:#d3843d"/><rect x="18" y="17" width="8" height="4" style="fill:#f1c056"/><rect x="26" y="17" width="8" height="4" style="fill:#f7a90d"/><rect x="20" y="35" width="4" height="8" style="fill:#f1c056"/><rect x="28" y="35" width="4" height="8" style="fill:#f1c056"/><rect x="36" y="35" width="4" height="8" style="fill:#f1c056"/><rect x="20" y="21" width="4" height="4" style="fill:#d3843d"/><rect x="28" y="21" width="4" height="4" style="fill:#d3843d"/><rect x="34" y="17" width="8" height="4" style="fill:#f1c056"/><rect x="36" y="21" width="4" height="4" style="fill:#d3843d"/><rect x="10" y="25" width="2" height="3" style="fill:#fff"/><rect x="14" y="25" width="2" height="3" style="fill:#fff"/></g></svg>
