<?xml version="1.0"?>
<svg xmlns="http://www.w3.org/2000/svg" viewBox="0 0 64 64" width="512" height="512"><g id="flat"><rect x="3" y="3" width="58" height="58" style="fill:#dd3e46"/><circle cx="28" cy="26" r="19" style="fill:#394d5c"/><path d="M28,42V40A14.015,14.015,0,0,0,42,26h2A16.019,16.019,0,0,1,28,42Z" style="fill:#bfbfbf"/><circle cx="28" cy="26" r="9" style="fill:#cfdfe8"/><circle cx="28" cy="26" r="3" style="fill:#394d5c"/><rect x="53" y="7" width="4" height="8" style="fill:#ffd782"/><polygon points="47.53 45.848 46.47 44.152 54 39.446 54 15 56 15 56 40.554 47.53 45.848" style="fill:#394d5c"/><rect x="42" y="22" width="2" height="2" style="fill:#bfbfbf"/><circle cx="9" cy="9" r="2" style="fill:#f1c056"/><circle cx="9" cy="47" r="2" style="fill:#f1c056"/><circle cx="15" cy="54" r="3" style="fill:#f1c056"/><rect x="22" y="50" width="34" height="6" style="fill:#f1c056"/><rect x="29" y="50" width="2" height="6" style="fill:#d9833b"/></g></svg>
