<?xml version="1.0"?>
<svg xmlns="http://www.w3.org/2000/svg" viewBox="0 0 64 64" width="512" height="512"><g id="flat"><circle cx="32" cy="32" r="29" style="fill:#394d5c"/><path d="M8,32H6A26.03,26.03,0,0,1,32,6V8A24.028,24.028,0,0,0,8,32Z" style="fill:#98a1a1"/><path d="M32,58V56A24.028,24.028,0,0,0,56,32h2A26.03,26.03,0,0,1,32,58Z" style="fill:#98a1a1"/><path d="M32,54V52A20.023,20.023,0,0,0,52,32h2A22.025,22.025,0,0,1,32,54Z" style="fill:#98a1a1"/><circle cx="32" cy="32" r="13" style="fill:#bfbfbf"/><circle cx="32" cy="32" r="8" style="fill:#394d5c"/><circle cx="32" cy="32" r="3" style="fill:#bfbfbf"/><rect x="6" y="34" width="2" height="2" style="fill:#98a1a1"/></g></svg>
