<?xml version="1.0"?>
<svg xmlns="http://www.w3.org/2000/svg" viewBox="0 0 64 64" width="512" height="512"><g id="flat"><path d="M34,49a2,2,0,0,1-2-2V41a2,2,0,0,1,2-2h1V33a6,6,0,0,0-6-6H23a6,6,0,0,0-6,6v6h1a2,2,0,0,1,2,2v6a2,2,0,0,1-2,2H17v6a6,6,0,0,0,6,6h6a6,6,0,0,0,6-6V49Z" style="fill:#f1c056"/><polygon points="29 35 23 35 24 11 28 11 29 35" style="fill:#d3843d"/><rect x="23" y="3" width="6" height="8" style="fill:#f1c056"/><rect x="29" y="4" width="3" height="2" style="fill:#ad6327"/><rect x="29" y="8" width="3" height="2" style="fill:#ad6327"/><rect x="20" y="4" width="3" height="2" style="fill:#ad6327"/><rect x="20" y="8" width="3" height="2" style="fill:#ad6327"/><polygon points="28 61 24 61 23 53 29 53 28 61" style="fill:#ad6327"/><rect x="20" y="34" width="12" height="2" style="fill:#ad6327"/><rect x="43" y="7" width="4" height="50" style="fill:#ad6327"/><rect x="23" y="48" width="6" height="2" style="fill:#ad6327"/><rect x="23" y="38" width="6" height="2" style="fill:#ad6327"/><path d="M44,54H41a3,3,0,0,1-3-3V13a3,3,0,0,1,3-3h3ZM41,12a1,1,0,0,0-1,1V51a1,1,0,0,0,1,1h1V12Z" style="fill:#bfbfbf"/></g></svg>
