<?xml version="1.0"?>
<svg xmlns="http://www.w3.org/2000/svg" viewBox="0 0 64 64" width="512" height="512"><g id="flat"><rect x="35" y="37" width="44" height="4" transform="translate(18 96) rotate(-90)" style="fill:#ebb562"/><rect x="-15" y="37" width="44" height="4" transform="translate(-32 46) rotate(-90)" style="fill:#ebb562"/><rect x="28" y="-12" width="8" height="38" transform="translate(39 -25) rotate(90)" style="fill:#dd3e46"/><rect x="28" y="2" width="8" height="34" transform="translate(51 -13) rotate(90)" style="fill:#ffd782"/><rect x="28" y="16" width="8" height="30" transform="translate(63 -1) rotate(90)" style="fill:#4eaa6e"/><rect x="28" y="30" width="8" height="26" transform="translate(75 11) rotate(90)" style="fill:#4da6ea"/><rect x="28" y="44" width="8" height="22" transform="translate(87 23) rotate(90)" style="fill:#195c85"/><rect x="46" y="6" width="2" height="2" style="fill:#fff"/><rect x="16" y="6" width="2" height="2" style="fill:#fff"/><rect x="44" y="18" width="2" height="2" style="fill:#fff"/><rect x="18" y="18" width="2" height="2" style="fill:#fff"/><rect x="42" y="30" width="2" height="2" style="fill:#fff"/><rect x="20" y="30" width="2" height="2" style="fill:#fff"/><rect x="40" y="42" width="2" height="2" style="fill:#fff"/><rect x="22" y="42" width="2" height="2" style="fill:#fff"/><rect x="38" y="54" width="2" height="2" style="fill:#fff"/><rect x="24" y="54" width="2" height="2" style="fill:#fff"/><rect x="37" y="11" width="4" height="4" transform="translate(52 -26) rotate(90)" style="fill:#cc882e"/><rect x="37" y="23" width="4" height="4" transform="translate(64 -14) rotate(90)" style="fill:#cc882e"/><rect x="37" y="35" width="4" height="4" transform="translate(76 -2) rotate(90)" style="fill:#cc882e"/><rect x="37" y="47" width="4" height="4" transform="translate(88 10) rotate(90)" style="fill:#cc882e"/><rect x="23" y="11" width="4" height="4" transform="translate(38 -12) rotate(90)" style="fill:#cc882e"/><rect x="23" y="23" width="4" height="4" transform="translate(50) rotate(90)" style="fill:#cc882e"/><rect x="23" y="35" width="4" height="4" transform="translate(62 12) rotate(90)" style="fill:#cc882e"/><rect x="23" y="47" width="4" height="4" transform="translate(74 24) rotate(90)" style="fill:#cc882e"/><circle cx="57" cy="16" r="4" style="fill:#dd3e46"/><circle cx="7" cy="16" r="4" style="fill:#dd3e46"/></g></svg>
