<svg height="496pt" viewBox="0 -64 496 496" width="496pt" xmlns="http://www.w3.org/2000/svg"><path d="m488 312v32c0 8.800781-7.199219 16-16 16h-448c-8.800781 0-16-7.199219-16-16v-32zm0 0" fill="#e6e9ed"/><path d="m488 24v288h-48v-288c0-8.800781 7.199219-16 16-16h16c8.800781 0 16 7.199219 16 16zm0 0" fill="#ffeaa7"/><path d="m56 248v64h-48v-288c0-8.800781 7.199219-16 16-16h16c8.800781 0 16 7.199219 16 16zm0 0" fill="#ffeaa7"/><g fill="#cf9e76"><path d="m136 248v24c0 4.398438-3.601562 8-8 8h-16c-4.398438 0-8-3.601562-8-8v-48c0-4.398438 3.601562-8 8-8h16c4.398438 0 8 3.601562 8 8zm0 0"/><path d="m200 248v24c0 4.398438-3.601562 8-8 8h-16c-4.398438 0-8-3.601562-8-8v-48c0-4.398438 3.601562-8 8-8h16c4.398438 0 8 3.601562 8 8zm0 0"/><path d="m392 152v24c0 4.398438-3.601562 8-8 8h-16c-4.398438 0-8-3.601562-8-8v-48c0-4.398438 3.601562-8 8-8h16c4.398438 0 8 3.601562 8 8zm0 0"/><path d="m328 152v24c0 4.398438-3.601562 8-8 8h-16c-4.398438 0-8-3.601562-8-8v-48c0-4.398438 3.601562-8 8-8h16c4.398438 0 8 3.601562 8 8zm0 0"/><path d="m248 56v24c0 4.398438-3.601562 8-8 8h-16c-4.398438 0-8-3.601562-8-8v-48c0-4.398438 3.601562-8 8-8h16c4.398438 0 8 3.601562 8 8zm0 0"/><path d="m184 56v24c0 4.398438-3.601562 8-8 8h-16c-4.398438 0-8-3.601562-8-8v-48c0-4.398438 3.601562-8 8-8h16c4.398438 0 8 3.601562 8 8zm0 0"/><path d="m120 56v24c0 4.398438-3.601562 8-8 8h-16c-4.398438 0-8-3.601562-8-8v-48c0-4.398438 3.601562-8 8-8h16c4.398438 0 8 3.601562 8 8zm0 0"/></g><path d="m472 0h-16c-13.230469 0-24 10.769531-24 24v24h-176v-16c0-8.824219-7.175781-16-16-16h-16c-8.824219 0-16 7.175781-16 16v16h-16v-16c0-8.824219-7.175781-16-16-16h-16c-8.824219 0-16 7.175781-16 16v16h-16v-16c0-8.824219-7.175781-16-16-16h-16c-8.824219 0-16 7.175781-16 16v16h-16v-24c0-13.230469-10.769531-24-24-24h-16c-13.230469 0-24 10.769531-24 24v320c0 13.230469 10.769531 24 24 24h448c13.230469 0 24-10.769531 24-24v-320c0-13.230469-10.769531-24-24-24zm-408 304v-48h32v16c0 8.824219 7.175781 16 16 16h16c8.824219 0 16-7.175781 16-16v-16h16v16c0 8.824219 7.175781 16 16 16h16c8.824219 0 16-7.175781 16-16v-16h224v48zm240-112h16c8.824219 0 16-7.175781 16-16v-16h16v16c0 8.824219 7.175781 16 16 16h16c8.824219 0 16-7.175781 16-16v-16h32v80h-224v-16c0-8.824219-7.175781-16-16-16h-16c-8.824219 0-16 7.175781-16 16v16h-16v-16c0-8.824219-7.175781-16-16-16h-16c-8.824219 0-16 7.175781-16 16v16h-32v-80h224v16c0 8.824219 7.175781 16 16 16zm0-16v-48h16v48zm64 0v-48h16v48zm-175.992188 96h-16.007812v-48h16zm-64 0h-16.007812v-48h16zm95.992188-240h16l.007812 48h-16.007812zm-64 0h16l.007812 48h-16.007812zm-64 0h16l.007812 48h-16.007812zm-16 32v16c0 8.824219 7.175781 16 16 16h16c8.824219 0 16-7.175781 16-16v-16h16v16c0 8.824219 7.175781 16 16 16h16c8.824219 0 16-7.175781 16-16v-16h16v16c0 8.824219 7.175781 16 16 16h16c8.824219 0 16-7.175781 16-16v-16h176v80h-32v-16c0-8.824219-7.175781-16-16-16h-16c-8.824219 0-16 7.175781-16 16v16h-16v-16c0-8.824219-7.175781-16-16-16h-16c-8.824219 0-16 7.175781-16 16v16h-224v-80zm-64-40c0-4.40625 3.585938-8 8-8h16c4.414062 0 8 3.59375 8 8v280h-32zm464 320c0 4.40625-3.585938 8-8 8h-448c-4.414062 0-8-3.59375-8-8v-24h464zm-32-40v-280c0-4.40625 3.585938-8 8-8h16c4.414062 0 8 3.59375 8 8v280zm0 0"/></svg>