<svg height="496pt" viewBox="0 -15 496 495" width="496pt" xmlns="http://www.w3.org/2000/svg"><g fill="#ffeaa7"><path d="m427.039062 440.820312.082032.160157c-45.761719 25.917969-104.960938 19.359375-144-19.601563-23.441406-23.4375-35.121094-54.160156-35.121094-84.878906 0-20.398438 5.199219-40.878906 15.519531-59.121094l.160157.082032 40.878906 40.878906c-5.199219 4.238281-8.558594 10.800781-8.558594 18.160156 0 10.800781 7.121094 19.761719 16.878906 22.800781-4.71875 9.039063-3.4375 20.480469 4.242188 28.078125 7.597656 7.679688 19.039062 8.960938 28.078125 4.242188 3.039062 9.757812 12 16.878906 22.800781 16.878906 7.359375 0 13.921875-3.359375 18.238281-8.558594zm0 0"/><path d="m452.878906 251.621094c38.960938 39.039062 45.519532 98.238281 19.601563 144l-.160157-.082032-40.878906-40.878906c5.199219-4.238281 8.558594-10.800781 8.558594-18.160156 0-10.800781-7.121094-19.761719-16.878906-22.800781 4.71875-9.039063 3.4375-20.480469-4.242188-28.078125-7.597656-7.679688-19.039062-8.960938-28.078125-4.242188-3.039062-9.757812-12-16.878906-22.800781-16.878906-7.359375 0-13.921875 3.359375-18.160156 8.558594l-40.878906-40.878906-.082032-.160157c45.761719-25.917969 104.960938-19.359375 144 19.601563zm0 0"/><path d="m243.519531 368.5h.082031c-13.921874 50.71875-60.402343 88-115.601562 88s-101.679688-37.28125-115.601562-88h86.082031c-2.960938 10-6.800781 21.039062-2.480469 23.601562 7.039062 4.078126 23.28125-23.523437 32-23.523437s24.960938 27.601563 32 23.523437c4.320312-2.5625.480469-13.601562-2.480469-23.601562zm0 0"/><path d="m243.601562 304.5h-86.082031c2.960938-10 6.800781-21.039062 2.480469-23.601562-7.039062-4.078126-23.28125 23.523437-32 23.523437s-24.960938-27.601563-32-23.523437c-4.320312 2.5625-.480469 13.601562 2.480469 23.601562h-86.082031c13.921874-50.71875 60.402343-88 115.601562-88 20.71875 0 40.160156 5.28125 57.199219 14.480469 28.320312 15.359375 49.761719 41.839843 58.402343 73.519531zm0 0"/><path d="m363.601562 96.5h-43.761718c-.640625-8.558594-4.320313-16.160156-10-21.839844-6.320313-6.320312-14.960938-10.160156-24.558594-10.160156h-2.800781c-6.800781 0-13.519531 2-19.199219 5.839844l-15.28125 10.160156-15.28125-10.160156c-5.679688-3.839844-12.398438-5.839844-19.199219-5.839844h-2.800781c-18.238281 0-33.199219 14.078125-34.558594 32h-43.761718c13.921874-50.71875 60.402343-88 115.601562-88s101.679688 37.28125 115.601562 88zm0 0"/><path d="m363.519531 160.5h.082031c-8.480468 31.039062-29.203124 56.960938-56.640624 72.480469-17.359376 9.917969-37.519532 15.519531-58.960938 15.519531-22.960938 0-44.480469-6.480469-62.71875-17.679688-25.601562-15.761718-44.800781-40.71875-52.882812-70.320312h86.800781l28.800781 32 28.800781-32zm0 0"/></g><path d="m368 128.5h-62.320312l5.441406-6.078125c5.679687-6.402344 8.878906-14.640625 8.878906-23.203125 0-.957031 0-1.839844-.160156-2.71875h43.761718c2.878907 10.160156 4.398438 20.960938 4.398438 32zm0 0" fill="#e6e9ed"/><path d="m305.679688 128.5h62.320312c0 11.039062-1.519531 21.839844-4.398438 32h-86.800781l28.800781-32zm0 0" fill="#e6e9ed"/><path d="m472.320312 395.539062.160157.082032c-5.199219 9.277344-11.761719 17.917968-19.601563 25.757812l-34-34c7.679688-7.597656 8.960938-19.039062 4.242188-28.078125 3.117187-.960937 5.917968-2.5625 8.320312-4.640625zm0 0" fill="#e6e9ed"/><path d="m418.878906 387.378906 34 34c-7.839844 7.839844-16.480468 14.402344-25.757812 19.601563l-.082032-.160157-40.800781-40.878906c2-2.402344 3.601563-5.203125 4.5625-8.320312 9.039063 4.71875 20.480469 3.4375 28.078125-4.242188zm0 0" fill="#e6e9ed"/><path d="m423.121094 313.699219c9.757812 3.039062 16.878906 12 16.878906 22.800781 0 7.359375-3.359375 13.921875-8.558594 18.160156-2.402344 2.078125-5.203125 3.679688-8.320312 4.640625 4.71875 9.039063 3.4375 20.480469-4.242188 28.078125-7.597656 7.679688-19.039062 8.960938-28.078125 4.242188-.960937 3.117187-2.5625 5.917968-4.5625 8.320312-4.316406 5.199219-10.878906 8.558594-18.238281 8.558594-10.800781 0-19.761719-7.121094-22.800781-16.878906-9.039063 4.71875-20.480469 3.4375-28.078125-4.242188-7.679688-7.597656-8.960938-19.039062-4.242188-28.078125-9.757812-3.039062-16.878906-12-16.878906-22.800781 0-7.359375 3.359375-13.921875 8.558594-18.160156 2.402344-2.078125 5.203125-3.679688 8.320312-4.640625-4.71875-9.039063-3.4375-20.480469 4.242188-28.078125 7.597656-7.679688 19.039062-8.960938 28.078125-4.242188.960937-3.117187 2.5625-5.917968 4.640625-8.320312 4.238281-5.199219 10.800781-8.558594 18.160156-8.558594 10.800781 0 19.761719 7.121094 22.800781 16.878906 9.039063-4.71875 20.480469-3.4375 28.078125 4.242188 7.679688 7.597656 8.960938 19.039062 4.242188 28.078125zm0 0" fill="#ff826e"/><path d="m383.953125 336.5c0 8.808594-7.144531 15.953125-15.953125 15.953125s-15.953125-7.144531-15.953125-15.953125 7.144531-15.953125 15.953125-15.953125 15.953125 7.144531 15.953125 15.953125zm0 0" fill="#fcd770"/><path d="m308.960938 232.179688 40.878906 40.878906c-2.078125 2.402344-3.679688 5.203125-4.640625 8.320312-9.039063-4.71875-20.480469-3.4375-28.078125 4.242188l-34-34c7.359375-7.359375 15.359375-13.519532 23.917968-18.5625.5625-.320313 1.199219-.71875 1.839844-1.039063zm0 0" fill="#e6e9ed"/><path d="m319.839844 96.5c.160156.878906.160156 1.761719.160156 2.71875 0 8.5625-3.199219 16.800781-8.878906 23.203125l-5.441406 6.078125h-.078126l-57.601562 64-57.601562-64h-.078126l-5.441406-6.078125c-5.679687-6.402344-8.878906-14.640625-8.878906-23.203125 0-.957031 0-1.839844.160156-2.71875 1.359375-17.921875 16.320313-32 34.558594-32h2.800781c6.800781 0 13.519531 2 19.199219 5.839844l15.28125 10.160156 15.28125-10.160156c5.679688-3.839844 12.398438-5.839844 19.199219-5.839844h2.800781c9.597656 0 18.238281 3.839844 24.558594 10.160156 5.679687 5.679688 9.359375 13.28125 10 21.839844zm0 0" fill="#ff826e"/><path d="m283.121094 251.621094 34 34c-7.679688 7.597656-8.960938 19.039062-4.242188 28.078125-3.117187.960937-5.917968 2.5625-8.320312 4.640625l-40.878906-40.878906-.160157-.082032c5.199219-9.277344 11.761719-17.917968 19.601563-25.757812zm0 0" fill="#e6e9ed"/><path d="m248 336.5h-56c0-8.800781-32.160156-8.960938-36.238281-16-1.683594-2.960938-.160157-9.199219 1.757812-16h86.082031c2.878907 10.160156 4.398438 20.960938 4.398438 32zm0 0" fill="#e6e9ed"/><path d="m192 336.5h56c0 11.039062-1.519531 21.839844-4.398438 32h-86.082031c-1.917969-6.800781-3.441406-13.039062-1.757812-16 4.078125-7.039062 36.238281-7.199219 36.238281-16zm0 0" fill="#e6e9ed"/><path d="m219.199219 160.5h-86.800781c-2.878907-10.160156-4.398438-20.960938-4.398438-32h62.398438zm0 0" fill="#e6e9ed"/><path d="m184.878906 122.421875 5.441406 6.078125h-62.320312c0-11.039062 1.519531-21.839844 4.398438-32h43.761718c-.160156.878906-.160156 1.761719-.160156 2.71875 0 8.5625 3.199219 16.800781 8.878906 23.203125zm0 0" fill="#e6e9ed"/><path d="m155.761719 320.5c4.078125 7.039062 36.238281 7.199219 36.238281 16s-32.160156 8.960938-36.238281 16c-1.683594 2.960938-.160157 9.199219 1.757812 16 2.960938 10 6.800781 21.039062 2.480469 23.601562-7.039062 4.078126-23.28125-23.523437-32-23.523437s-24.960938 27.601563-32 23.523437c-4.320312-2.5625-.480469-13.601562 2.480469-23.601562 1.917969-6.800781 3.441406-13.039062 1.757812-16-4.078125-7.039062-36.238281-7.199219-36.238281-16s32.160156-8.960938 36.238281-16c1.683594-2.960938.160157-9.199219-1.757812-16-2.960938-10-6.800781-21.039062-2.480469-23.601562 7.039062-4.078126 23.28125 23.523437 32 23.523437s24.960938-27.601563 32-23.523437c4.320312 2.5625.480469 13.601562-2.480469 23.601562-1.917969 6.800781-3.441406 13.039062-1.757812 16zm0 0" fill="#b4dd7f"/><path d="m98.480469 304.5c1.917969 6.800781 3.441406 13.039062 1.757812 16-4.078125 7.039062-36.238281 7.199219-36.238281 16h-56c0-11.039062 1.519531-21.839844 4.398438-32zm0 0" fill="#e6e9ed"/><path d="m100.238281 352.5c1.683594 2.960938.160157 9.199219-1.757812 16h-86.082031c-2.878907-10.160156-4.398438-20.960938-4.398438-32h56c0 8.800781 32.160156 8.960938 36.238281 16zm0 0" fill="#e6e9ed"/><path d="m458.503906 245.996094c-24.167968-24.183594-56.320312-37.496094-90.503906-37.496094-7.390625 0-14.65625.742188-21.800781 1.960938 18.578125-22.226563 29.800781-50.800782 29.800781-81.960938 0-70.574219-57.425781-128-128-128s-128 57.425781-128 128c0 31.183594 11.238281 59.777344 29.839844 82.007812-7.113282-1.230468-14.382813-2.007812-21.839844-2.007812-70.574219 0-128 57.425781-128 128s57.425781 128 128 128c55.023438 0 101.902344-34.960938 119.96875-83.785156 6.3125 17.175781 16.199219 32.96875 29.527344 46.296875 24.167968 24.175781 56.320312 37.488281 90.503906 37.488281s66.335938-13.3125 90.503906-37.496094c24.183594-24.167968 37.496094-56.320312 37.496094-90.503906s-13.3125-66.335938-37.496094-90.503906zm-11.3125 11.3125c21.160156 21.152344 32.808594 49.28125 32.808594 79.191406 0 16.007812-3.433594 31.464844-9.777344 45.648438l-27.765625-27.769532c3.503907-5.144531 5.542969-11.304687 5.542969-17.878906 0-11.175781-5.761719-21.222656-14.910156-26.960938 2.421875-10.535156-.609375-21.703124-8.515625-29.605468-7.902344-7.90625-19.070313-10.914063-29.605469-8.511719-5.746094-9.160156-15.792969-14.921875-26.96875-14.921875-6.574219 0-12.734375 2.039062-17.886719 5.542969l-27.769531-27.765625c14.191406-6.34375 29.648438-9.777344 45.65625-9.777344 29.910156 0 58.039062 11.648438 79.191406 32.808594zm-131.902344 94.359375c-6.753906-2.089844-11.289062-8.191407-11.289062-15.167969s4.535156-13.078125 11.289062-15.167969l9.183594-2.847656-4.472656-8.519531c-3.289062-6.257813-2.183594-13.785156 2.742188-18.722656 4.929687-4.925782 12.441406-6.039063 18.722656-2.742188l8.511718 4.480469 2.847657-9.183594c2.097656-6.761719 8.199219-11.296875 15.175781-11.296875s13.078125 4.535156 15.167969 11.289062l2.847656 9.183594 8.519531-4.472656c6.265625-3.28125 13.785156-2.183594 18.722656 2.742188 4.925782 4.9375 6.03125 12.464843 2.742188 18.722656l-4.480469 8.511718 9.183594 2.847657c6.761719 2.097656 11.296875 8.199219 11.296875 15.175781s-4.535156 13.078125-11.289062 15.167969l-9.183594 2.847656 4.472656 8.519531c3.289062 6.257813 2.183594 13.785156-2.742188 18.722656-4.929687 4.925782-12.449218 6.039063-18.722656 2.742188l-8.511718-4.480469-2.847657 9.183594c-2.097656 6.761719-8.199219 11.296875-15.175781 11.296875s-13.078125-4.535156-15.167969-11.289062l-2.847656-9.183594-8.519531 4.472656c-6.25 3.296875-13.785156 2.199219-18.722656-2.742188-4.925782-4.9375-6.03125-12.457031-2.742188-18.722656l4.480469-8.511718zm-164.472656 22.265625c.359375 1.191406.785156 2.613281 1.199219 4.09375-.925781-.96875-1.808594-1.894532-2.558594-2.703125-7.441406-7.894531-13.863281-14.726563-21.457031-14.726563s-14.015625 6.832032-21.457031 14.726563c-.757813.808593-1.640625 1.742187-2.566407 2.703125.421876-1.480469.847657-2.894532 1.207032-4.101563 3.054687-10.195312 5.695312-19 2.015625-25.386719-3.589844-6.222656-12.34375-8.269531-22.488281-10.640624-1.65625-.390626-3.726563-.871094-5.765626-1.398438 2.039063-.527344 4.109376-1.015625 5.773438-1.398438 10.136719-2.371093 18.882812-4.417968 22.480469-10.648437 3.679687-6.378906 1.039062-15.175781-2.015625-25.386719-.359375-1.191406-.785156-2.613281-1.199219-4.09375.925781.96875 1.808594 1.894532 2.558594 2.703125 7.441406 7.894531 13.863281 14.726563 21.457031 14.726563s14.015625-6.832032 21.457031-14.726563c.757813-.808593 1.640625-1.742187 2.566407-2.703125-.421876 1.480469-.847657 2.894532-1.207032 4.101563-3.054687 10.195312-5.695312 19-2.015625 25.386719 3.589844 6.222656 12.34375 8.269531 22.488281 10.640624 1.65625.390626 3.726563.871094 5.765626 1.398438-2.039063.527344-4.109376 1.015625-5.773438 1.398438-10.136719 2.371093-18.882812 4.417968-22.480469 10.648437-3.679687 6.378906-1.039062 15.175781 2.015625 25.386719zm-58.511718-61.433594c.328124 1.40625.597656 2.726562.679687 3.6875-2.601563 1.167969-8.289063 2.488281-11.894531 3.328125-8.617188 2.015625-17.335938 4.136719-21.875 8.984375h-42.808594c.386719-5.449219 1.105469-10.792969 2.25-16zm-75.898438 32h42.816406c4.539063 4.847656 13.25 6.96875 21.855469 8.976562 3.609375.839844 9.296875 2.167969 11.90625 3.335938-.082031.960938-.351563 2.28125-.679687 3.6875h-73.648438c-1.144531-5.207031-1.863281-10.550781-2.25-16zm223.1875-16h-42.816406c-4.539063-4.847656-13.25-6.96875-21.855469-8.976562-3.609375-.839844-9.296875-2.167969-11.90625-3.335938.082031-.960938.351563-2.28125.679687-3.6875h73.648438c1.144531 5.207031 1.863281 10.550781 2.25 16zm-75.898438 32c-.328124-1.40625-.597656-2.726562-.679687-3.6875 2.601563-1.167969 8.289063-2.488281 11.894531-3.328125 8.617188-2.015625 17.335938-4.136719 21.875-8.984375h42.816406c-.386718 5.449219-1.105468 10.792969-2.25 16zm62.464844-106.007812c7.113282 1.230468 14.382813 2.007812 21.839844 2.007812 7.433594 0 14.679688-.769531 21.769531-1.992188-9.503906 11.351563-16.785156 24.121094-21.800781 37.777344-5.136719-13.863281-12.488281-26.648437-21.808594-37.792968zm-57.671875-149.992188c.710938 5.65625 2.464844 11.089844 5.304688 16h-37.394531c.386718-5.449219 1.105468-10.792969 2.25-16zm159.023438 0h29.832031c1.144531 5.207031 1.863281 10.550781 2.25 16h-37.394531c2.847656-4.910156 4.601562-10.34375 5.3125-16zm-18.351563 32h50.441406c-.386718 5.449219-1.105468 10.792969-2.25 16h-62.582031zm-4.007812-19.464844-57.152344 63.503906-57.152344-63.503906c-4.414062-4.902344-6.847656-11.246094-6.847656-17.847656 0-14.71875 11.96875-26.6875 26.6875-26.6875h2.816406c5.289063 0 10.40625 1.542969 14.808594 4.488281l19.6875 13.128907 19.695312-13.136719c4.402344-2.9375 9.511719-4.480469 14.800782-4.480469h2.816406c14.71875 0 26.6875 11.96875 26.6875 26.6875 0 6.601562-2.433594 12.945312-6.847656 17.847656zm-118.3125 19.464844 14.398437 16h-62.582031c-1.144531-5.207031-1.863281-10.550781-2.25-16zm28.800781 32 32.359375 35.960938 32.359375-35.960938h72.128906c-16.152343 42.03125-56.832031 72-104.488281 72s-88.335938-29.96875-104.488281-72zm102.167969 106.496094-23.074219-23.070313c4.105469-3.570312 8.402344-6.824219 12.914063-9.722656l28.527343 28.527344c-6.382812-.445313-12.792969.984375-18.367187 4.265625zm-34.382813-11.761719 23.070313 23.074219c-3.289063 5.574218-4.726563 11.976562-4.265625 18.367187l-28.519531-28.519531c2.890624-4.519531 6.144531-8.816406 9.714843-12.921875zm134.765625 134.769531 23.074219 23.070313c-4.105469 3.570312-8.402344 6.824219-12.914063 9.722656l-28.527343-28.535156c6.390625.453125 12.792969-.976563 18.367187-4.257813zm11.3125-11.3125c3.289063-5.574218 4.726563-11.976562 4.265625-18.367187l28.519531 28.519531c-2.898437 4.511719-6.152343 8.808594-9.722656 12.914062zm-181.503906-370.191406c47.65625 0 88.335938 29.96875 104.488281 72h-26.007812c-4.777344-18.351562-21.34375-32-41.167969-32h-2.816406c-8.464844 0-16.648438 2.480469-23.679688 7.167969l-10.816406 7.214843-10.824219-7.207031c-7.023437-4.695312-15.214843-7.175781-23.671875-7.175781h-2.816406c-19.824219 0-36.390625 13.648438-41.167969 32h-26.007812c16.152343-42.03125 56.832031-72 104.488281-72zm-120 208c47.65625 0 88.335938 29.96875 104.488281 72h-64.3125c2.464844-9.414062 3.335938-18.167969-4.144531-22.503906-9.214844-5.3125-17.847656 3.832031-26.222656 12.710937-2.824219 3.007813-7.34375 7.808594-9.808594 9.386719-2.464844-1.578125-6.984375-6.378906-9.808594-9.386719-8.375-8.871093-17.054687-18.023437-26.222656-12.710937-7.480469 4.34375-6.601562 13.097656-4.136719 22.503906h-64.320312c16.152343-42.03125 56.832031-72 104.488281-72zm0 224c-47.65625 0-88.335938-29.96875-104.488281-72h64.3125c-2.464844 9.414062-3.335938 18.167969 4.144531 22.503906 1.894531 1.097656 3.765625 1.574219 5.617188 1.574219 7.140624 0 13.957031-7.238281 20.605468-14.285156 2.824219-3.007813 7.34375-7.808594 9.808594-9.386719 2.464844 1.578125 6.984375 6.378906 9.808594 9.386719 8.367187 8.871093 17.039062 18.007812 26.222656 12.710937 7.480469-4.34375 6.601562-13.097656 4.136719-22.503906h64.320312c-16.152343 42.03125-56.832031 72-104.488281 72zm160.808594-32.808594c-21.160156-21.152344-32.808594-49.28125-32.808594-79.191406 0-16.007812 3.433594-31.464844 9.777344-45.648438l27.765625 27.769532c-3.503907 5.144531-5.542969 11.304687-5.542969 17.878906 0 11.175781 5.761719 21.222656 14.910156 26.960938-2.421875 10.535156.609375 21.703124 8.515625 29.605468 7.902344 7.90625 19.101563 10.914063 29.605469 8.511719 5.746094 9.160156 15.792969 14.921875 26.96875 14.921875 6.585938 0 12.742188-2.039062 17.886719-5.542969l27.761719 27.765625c-14.183594 6.34375-29.640626 9.777344-45.648438 9.777344-29.910156 0-58.039062-11.648438-79.191406-32.808594zm0 0"/><path d="m368 360.484375c6.152344 0 12.289062-2.335937 16.96875-7.015625 9.359375-9.359375 9.359375-24.578125 0-33.9375s-24.578125-9.359375-33.9375 0-9.359375 24.578125 0 33.9375c4.679688 4.679688 10.816406 7.015625 16.96875 7.015625zm-5.65625-29.640625c1.558594-1.558594 3.609375-2.335938 5.65625-2.335938s4.097656.777344 5.65625 2.335938c3.121094 3.121094 3.121094 8.191406 0 11.3125-3.128906 3.128906-8.183594 3.128906-11.3125 0-3.121094-3.121094-3.121094-8.191406 0-11.3125zm0 0"/></svg>