<svg height="496pt" viewBox="-53 0 496 496" width="496pt" xmlns="http://www.w3.org/2000/svg"><path d="m218.761719 464c0 13.253906-10.746094 24-24 24-13.257813 0-24-10.746094-24-24s10.742187-24 24-24c13.253906 0 24 10.746094 24 24zm0 0" fill="#fcd770"/><path d="m218.441406 262.558594c.238282.960937.320313 1.921875.320313 2.882812 0 8.078125-6.480469 14.558594-14.5625 14.558594h-18.878907c-8.082031 0-14.558593-6.480469-14.558593-14.558594 0-.960937.078125-1.921875.316406-2.882812l6.160156-30.796875c2.160157.160156 4.320313.238281 6.480469.238281h22.082031c2.160157 0 4.320313-.078125 6.480469-.238281zm0 0" fill="#f0d0b4"/><path d="m288.519531 78.800781c17.519531-3.121093 30.402344-12.402343 39.679688-22.480469-8.480469-2.960937-15.121094-6.320312-20.878907-9.28125-9.519531-4.800781-13.921874-7.039062-24.558593-7.039062-9.761719 0-18.402344 5.441406-24.800781 11.039062-7.601563-8-16.5625-14.398437-26.402344-18.960937 10.882812-11.117187 28.402344-24.078125 51.203125-24.078125 40 0 40 24 96 24 0 0-20.082031 66.800781-84.640625 78.320312-2.320313-7.441406-5.679688-14.480468-9.921875-21.121093l-6-9.4375h.082031zm0 0" fill="#ecc19c"/><path d="m104.039062 78.800781 7.199219.960938h.082031l-6 9.4375c-4.242187 6.640625-7.601562 13.679687-9.921874 21.121093-64.558594-11.519531-84.636719-78.320312-84.636719-78.320312 56 0 56-24 96-24 22.796875 0 40.316406 12.960938 51.199219 24.078125-1.761719.882813-3.519532 1.761719-5.28125 2.722656-7.28125 4-14 8.960938-19.839844 14.878907l-.160156-.160157c-6.078126-5.039062-14.078126-9.519531-22.878907-9.519531-10.722656 0-15.039062 2.238281-24.5625 7.039062-5.757812 2.960938-12.398437 6.320313-20.878906 9.28125 9.28125 10.078126 22.160156 19.359376 39.679687 22.480469zm0 0" fill="#ecc19c"/><path d="m278.28125 79.761719h-.082031l-9.679688-15.28125c-3.121093-4.878907-6.640625-9.441407-10.558593-13.441407 6.398437-5.597656 15.039062-11.039062 24.800781-11.039062 10.636719 0 15.039062 2.238281 24.558593 7.039062 5.757813 2.960938 12.398438 6.320313 20.878907 9.28125-9.277344 10.078126-22.160157 19.359376-39.679688 22.480469zm0 0" fill="#f29ed0"/><path d="m132.679688 49.519531.160156.160157c-4.398438 4.398437-8.398438 9.359374-11.839844 14.800781l-9.679688 15.28125h-.082031l-7.199219-.960938c-17.519531-3.121093-30.398437-12.402343-39.679687-22.480469 8.480469-2.960937 15.121094-6.320312 20.878906-9.28125 9.523438-4.800781 13.839844-7.039062 24.5625-7.039062 8.800781 0 16.800781 4.480469 22.878907 9.519531zm0 0" fill="#f29ed0"/><path d="m231.558594 32.078125c9.839844 4.5625 18.800781 10.960937 26.402344 18.960937 3.917968 4 7.4375 8.5625 10.558593 13.441407l9.679688 15.28125 6 9.4375c4.242187 6.640625 7.601562 13.679687 9.921875 21.121093 3.117187 9.199219 4.640625 18.878907 4.640625 28.71875 0 49.199219-38.160157 89.441407-86.480469 92.722657-2.160156.160156-4.320312.238281-6.480469.238281h-22.082031c-2.160156 0-4.320312-.078125-6.480469-.238281-23.117187-1.601563-43.917969-11.601563-59.277343-26.960938-16.800782-16.800781-27.199219-40.082031-27.199219-65.761719 0-9.839843 1.519531-19.519531 4.636719-28.71875 2.320312-7.441406 5.679687-14.480468 9.921874-21.121093l6-9.4375 9.679688-15.28125c3.441406-5.441407 7.441406-10.402344 11.839844-14.800781 5.839844-5.917969 12.558594-10.878907 19.839844-14.878907 1.761718-.960937 3.519531-1.839843 5.28125-2.722656 11.359374-5.199219 23.917968-8.078125 36.800781-8.078125 12.878906 0 25.4375 2.878906 36.796875 8.078125zm0 0" fill="#f0d0b4"/><path d="m216.839844 200h-44.160156c-7.199219 0-13.601563-2.878906-18.320313-7.601562-4.71875-4.71875-7.597656-11.117188-7.597656-18.320313 0-4 .957031-7.917969 2.71875-11.519531l6.160156-12.238282c4.320313-8.800781 13.28125-14.320312 23.121094-14.320312h32c9.839843 0 18.796875 5.519531 23.117187 14.320312l6.160156 12.238282c1.761719 3.601562 2.722657 7.519531 2.722657 11.519531 0 14.320313-11.601563 25.921875-25.921875 25.921875zm0 0" fill="#f29ed0"/><path d="m250.761719 88c0 8.835938-7.164063 16-16 16-8.839844 0-16-7.164062-16-16s7.160156-16 16-16c8.835937 0 16 7.164062 16 16zm0 0" fill="#cf9e76"/><path d="m170.761719 88c0 8.835938-7.164063 16-16 16-8.839844 0-16-7.164062-16-16s7.160156-16 16-16c8.835937 0 16 7.164062 16 16zm0 0" fill="#cf9e76"/><path d="m218.761719 392h16v-32h-120c-8.824219 0-16-7.175781-16-16s7.175781-16 16-16h64c13.230469 0 24-10.769531 24-24v-16h1.4375c12.441406 0 22.5625-10.121094 22.5625-22.550781 0-1.488281-.144531-2.976563-.441407-4.433594l-4.480468-22.40625c48.054687-7.722656 84.921875-49.351563 84.921875-99.546875 0-7.765625-.9375-15.445312-2.683594-22.917969 61.753906-16.152343 81.496094-79.046875 82.335937-81.832031l3.105469-10.3125h-10.757812c-28.441407 0-41.113281-6.425781-53.371094-12.640625-11.007813-5.582031-22.398437-11.359375-42.628906-11.359375-22.921875 0-40.890625 11.511719-52.929688 22.632812-10.976562-4.320312-22.832031-6.632812-35.070312-6.632812-12.242188 0-24.097657 2.3125-35.074219 6.632812-12.039062-11.121093-30.007812-22.632812-52.925781-22.632812-20.234375 0-31.625 5.777344-42.632813 11.359375-12.257812 6.214844-24.929687 12.640625-53.367187 12.640625h-10.761719l3.097656 10.304688c.839844 2.792968 20.582032 65.6875 82.335938 81.832031-1.738282 7.480469-2.671875 15.160156-2.671875 22.925781 0 50.195312 36.863281 91.832031 84.917969 99.546875l-4.480469 22.40625c-.296875 1.457031-.4375 2.945313-.4375 4.433594 0 12.429687 10.117187 22.550781 22.558593 22.550781h1.441407v16c0 4.414062-3.59375 8-8 8h-64c-17.648438 0-32 14.351562-32 32s14.351562 32 32 32h104zm64-376c16.40625 0 24.789062 4.246094 35.390625 9.632812 11.574218 5.871094 24.496094 12.421876 48.984375 14.007813-7.808594 17.113281-28.015625 51.175781-67.90625 61.320313-2.070313-5.082032-4.542969-10-7.445313-14.714844 16.136719-3.277344 30.375-11.492188 42.292969-24.542969l8.167969-8.933594-11.414063-4.007812c-7.9375-2.792969-14.289062-6.007813-19.921875-8.867188-9.710937-4.917969-15.566406-7.894531-28.148437-7.894531-8.136719 0-16.242188 2.953125-24.1875 8.535156-4.167969-3.765625-8.6875-7.054687-13.421875-10.007812 9.519531-7.664063 22.304687-14.527344 37.609375-14.527344zm4.992187 54.824219-5.386718.519531-7.085938-11.144531c-1.761719-2.757813-3.730469-5.328125-5.730469-7.863281 3.898438-2.433594 8.464844-4.335938 13.210938-4.335938 8.757812 0 11.824219 1.550781 20.949219 6.175781 2.914062 1.480469 6.183593 3.136719 9.875 4.824219-7.898438 6.183594-16.625 10.167969-25.832032 11.824219zm-265.371094-31.183594c24.480469-1.59375 37.402344-8.144531 48.984376-14.007813 10.601562-5.386718 18.984374-9.632812 35.394531-9.632812 15.300781 0 28.085937 6.863281 37.605469 14.527344-4.230469 2.640625-8.261719 5.585937-12.054688 8.878906-7.425781-4.839844-14.96875-7.40625-22.519531-7.40625-12.585938 0-18.441407 2.976562-28.175781 7.902344-5.609376 2.839844-11.960938 6.066406-19.898438 8.851562l-11.414062 4.007813 8.167968 8.933593c11.207032 12.257813 24.449219 20.25 39.625 23.9375-3.058594 4.894532-5.640625 10.023438-7.800781 15.320313-39.898437-10.136719-60.105469-44.199219-67.914063-61.3125zm84.882813 31.519531-1.839844-.25c-9.664062-1.71875-18.523437-5.710937-26.449219-11.902344 3.6875-1.6875 6.96875-3.351562 9.894532-4.832031 9.097656-4.625 12.160156-6.175781 20.921875-6.175781 3.527343 0 7.230469 1.144531 11.03125 3.167969-2.335938 2.871093-4.558594 5.855469-6.585938 9.03125zm-8.503906 67.902344c0-16.183594 4.589843-31.949219 13.277343-45.597656l15.695313-24.671875c14.664063-23.039063 39.722656-36.792969 67.027344-36.792969 27.300781 0 52.359375 13.753906 67.015625 36.792969l15.695312 24.671875c8.6875 13.648437 13.28125 29.414062 13.28125 45.597656.007813 46.832031-38.097656 84.9375-84.929687 84.9375h-22.128907c-46.832031 0-84.933593-38.105469-84.933593-84.9375zm80 126.386719c0-.441407.039062-.863281.125-1.289063l4.832031-24.160156h22.089844l4.832031 24.160156c.078125.414063.121094.847656.121094 1.289063 0 3.613281-2.945313 6.550781-6.5625 6.550781h-18.878907c-3.617187 0-6.558593-2.9375-6.558593-6.550781zm0 0"/><path d="m250.761719 344h16v48h-16zm0 0"/><path d="m282.761719 344h16v48h-16zm0 0"/><path d="m354.761719 360h-24v-16h-16v32h40c8.824219 0 16 7.175781 16 16s-7.175781 16-16 16h-144c-13.234375 0-24 10.769531-24 24v1.136719c-13.761719 3.574219-24 15.992187-24 30.863281 0 17.648438 14.351562 32 32 32 17.644531 0 32-14.351562 32-32 0-14.871094-10.242188-27.289062-24-30.863281v-1.136719c0-4.414062 3.589843-8 8-8h144c17.644531 0 32-14.351562 32-32s-14.355469-32-32-32zm-144 104c0 8.824219-7.175781 16-16 16s-16-7.175781-16-16 7.175781-16 16-16 16 7.175781 16 16zm0 0"/><path d="m250.761719 174.113281c0-5.234375-1.242188-10.472656-3.578125-15.152343l-6.113282-12.226563c-5.773437-11.558594-17.390624-18.734375-30.308593-18.734375h-32c-12.921875 0-24.539063 7.175781-30.3125 18.734375l-6.113281 12.226563c-2.335938 4.679687-3.574219 9.917968-3.574219 15.152343 0 18.6875 15.199219 33.886719 33.886719 33.886719h44.214843c18.695313 0 33.898438-15.199219 33.898438-33.886719zm-96 0c0-2.761719.652343-5.519531 1.886719-8l6.113281-12.226562c3.046875-6.09375 9.175781-9.886719 16-9.886719h32c6.824219 0 12.949219 3.792969 16 9.886719l6.109375 12.226562c1.242187 2.472657 1.890625 5.238281 1.890625 8 0 9.863281-8.027344 17.886719-17.890625 17.886719h-44.214844c-9.871094 0-17.894531-8.023438-17.894531-17.886719zm0 0"/><path d="m186.761719 168c0 4.417969-3.582031 8-8 8-4.421875 0-8-3.582031-8-8s3.578125-8 8-8c4.417969 0 8 3.582031 8 8zm0 0"/><path d="m218.761719 168c0 4.417969-3.582031 8-8 8-4.421875 0-8-3.582031-8-8s3.578125-8 8-8c4.417969 0 8 3.582031 8 8zm0 0"/><path d="m178.761719 88c0-13.230469-10.769531-24-24-24-13.234375 0-24 10.769531-24 24s10.765625 24 24 24c13.230469 0 24-10.769531 24-24zm-32 0c0-4.40625 3.589843-8 8-8 4.40625 0 8 3.59375 8 8s-3.59375 8-8 8c-4.410157 0-8-3.59375-8-8zm0 0"/><path d="m234.761719 112c13.230469 0 24-10.769531 24-24s-10.769531-24-24-24c-13.234375 0-24 10.769531-24 24s10.765625 24 24 24zm0-32c4.40625 0 8 3.59375 8 8s-3.59375 8-8 8c-4.410157 0-8-3.59375-8-8s3.589843-8 8-8zm0 0"/></svg>