<svg height="496pt" viewBox="0 -40 496 496" width="496pt" xmlns="http://www.w3.org/2000/svg"><path d="m483.28125 12.71875c2.957031 2.882812 4.71875 6.882812 4.71875 11.28125 0 8.800781-7.199219 16-16 16h-64l4.960938-19.921875c1.757812-7.117187 8.160156-12.078125 15.519531-12.078125h43.519531c4.398438 0 8.398438 1.761719 11.28125 4.71875zm0 0" fill="#969faa"/><path d="m448 40-40 160h-40l40-160zm0 0" fill="#fcd770"/><g fill="#ff826e"><path d="m184 24c6.640625 0 12.640625 2.71875 16.960938 7.039062 4.320312 4.320313 7.039062 10.320313 7.039062 16.960938 0 13.28125-10.71875 24-24 24h-8v-40c0-2.71875-.71875-5.359375-1.921875-7.601562l1.921875-.398438zm0 0"/><path d="m208 192c0 2.800781-.480469 5.519531-1.359375 8h-22.640625c-4.398438 0-8-3.601562-8-8v-24h8c6.640625 0 12.640625 2.71875 16.960938 7.039062 4.320312 4.320313 7.039062 10.320313 7.039062 16.960938zm0 0"/><path d="m200.960938 79.039062c4.320312 4.320313 7.039062 10.320313 7.039062 16.960938 0 13.28125-10.71875 24-24 24h-8v-48h8c6.640625 0 12.640625 2.71875 16.960938 7.039062zm0 0"/><path d="m200.960938 127.039062c4.320312 4.320313 7.039062 10.320313 7.039062 16.960938 0 13.28125-10.71875 24-24 24h-8v-48h8c6.640625 0 12.640625 2.71875 16.960938 7.039062zm0 0"/></g><path d="m408 200c8.800781 0 16 7.199219 16 16 0 4.398438-1.761719 8.398438-4.71875 11.28125-2.882812 2.957031-6.882812 4.71875-11.28125 4.71875h-232c-17.679688 0-32-14.320312-32-32v-168c0-8.800781 7.199219-16 16-16 4.398438 0 8.398438 1.761719 11.28125 4.71875 1.117188 1.042969 2.078125 2.320312 2.796875 3.679688 1.203125 2.242187 1.921875 4.882812 1.921875 7.601562v160c0 4.398438 3.601562 8 8 8zm0 0" fill="#e6e9ed"/><path d="m144 200c0 17.679688 14.320312 32 32 32h232v40c0 23.921875-13.121094 44.71875-32.480469 55.761719-4.078125-35.921875-34.558593-63.761719-71.519531-63.761719-39.761719 0-72 32.238281-72 72h-48c0-39.761719-32.238281-72-72-72-36.960938 0-67.359375 27.839844-71.519531 63.679688-19.359375-10.960938-32.480469-31.839844-32.480469-55.679688v-96h136zm0 0" fill="#ffeaa7"/><path d="m144 144v32h-136v-32c0-11.121094 1.601562-21.839844 4.640625-32 13.757813-46.238281 56.640625-80 107.359375-80h24zm0 0" fill="#fcd770"/><path d="m375.519531 327.761719c.320313 2.71875.480469 5.4375.480469 8.238281 0 39.761719-32.238281 72-72 72s-72-32.238281-72-72 32.238281-72 72-72c36.960938 0 67.441406 27.839844 71.519531 63.761719zm0 0" fill="#e6e9ed"/><path d="m40.480469 327.679688c4.160156-35.839844 34.558593-63.679688 71.519531-63.679688 39.761719 0 72 32.238281 72 72s-32.238281 72-72 72-72-32.238281-72-72c0-2.800781.160156-5.601562.480469-8.320312zm0 0" fill="#e6e9ed"/><path d="m344 331.441406v3.199219c0 5.917969-2.71875 11.519531-7.28125 15.199219l-32.71875 26.160156-32.71875-26.160156c-4.5625-3.679688-7.28125-9.28125-7.28125-15.199219v-3.199219c0-5.363281 2.160156-10.242187 5.679688-13.761718 3.519531-3.519532 8.398437-5.679688 13.761718-5.679688 2.957032 0 6 .71875 8.636719 2.078125l11.921875 5.921875 11.921875-5.921875c2.636719-1.359375 5.679687-2.078125 8.636719-2.078125 10.722656 0 19.441406 8.71875 19.441406 19.441406zm0 0" fill="#ff826e"/><path d="m152 331.441406v3.199219c0 5.917969-2.71875 11.519531-7.28125 15.199219l-32.71875 26.160156-32.71875-26.160156c-4.5625-3.679688-7.28125-9.28125-7.28125-15.199219v-3.199219c0-5.363281 2.160156-10.242187 5.679688-13.761718 3.519531-3.519532 8.398437-5.679688 13.761718-5.679688 2.957032 0 6 .71875 8.636719 2.078125l11.921875 5.921875 11.921875-5.921875c2.636719-1.359375 5.679687-2.078125 8.636719-2.078125 10.722656 0 19.441406 8.71875 19.441406 19.441406zm0 0" fill="#ff826e"/><path d="m324.585938 304c-4.226563 0-8.457032 1-12.25 2.878906l-8.335938 4.175782-8.335938-4.167969c-3.792968-1.886719-8.023437-2.886719-12.25-2.886719-15.117187 0-27.414062 12.296875-27.414062 27.414062v3.257813c0 8.382813 3.753906 16.183594 10.296875 21.40625l37.703125 30.160156 37.703125-30.167969c6.542969-5.214843 10.296875-13.015624 10.296875-21.398437v-3.257813c0-15.117187-12.304688-27.414062-27.414062-27.414062zm11.414062 30.671875c0 3.488281-1.558594 6.734375-4.289062 8.902344l-27.710938 22.1875-27.71875-22.175781c-2.722656-2.179688-4.28125-5.425782-4.28125-8.914063v-3.257813c0-6.292968 5.121094-11.414062 11.414062-11.414062 1.761719 0 3.53125.414062 5.105469 1.199219l15.480469 7.746093 15.480469-7.746093c1.582031-.792969 3.351562-1.199219 5.113281-1.199219 6.285156 0 11.40625 5.121094 11.40625 11.414062zm0 0"/><path d="m132.585938 304c-4.226563 0-8.457032 1-12.25 2.878906l-8.335938 4.175782-8.335938-4.167969c-3.792968-1.886719-8.023437-2.886719-12.25-2.886719-15.117187 0-27.414062 12.296875-27.414062 27.414062v3.257813c0 8.382813 3.753906 16.183594 10.296875 21.40625l37.703125 30.160156 37.703125-30.167969c6.542969-5.214843 10.296875-13.015624 10.296875-21.398437v-3.257813c0-15.117187-12.304688-27.414062-27.414062-27.414062zm11.414062 30.671875c0 3.488281-1.558594 6.734375-4.289062 8.902344l-27.710938 22.1875-27.71875-22.175781c-2.722656-2.179688-4.28125-5.425782-4.28125-8.914063v-3.257813c0-6.292968 5.121094-11.414062 11.414062-11.414062 1.761719 0 3.53125.414062 5.105469 1.199219l15.480469 7.746093 15.480469-7.746093c1.582031-.792969 3.351562-1.199219 5.113281-1.199219 6.285156 0 11.40625 5.121094 11.40625 11.414062zm0 0"/><path d="m472 0h-43.503906c-11.03125 0-20.609375 7.480469-23.289063 18.175781l-4.96875 19.878907-38.484375 153.945312h-145.753906c0-9.542969-4.199219-18.136719-10.855469-24 6.65625-5.863281 10.855469-14.457031 10.855469-24s-4.199219-18.136719-10.855469-24c6.65625-5.863281 10.855469-14.457031 10.855469-24s-4.199219-18.136719-10.855469-24c6.65625-5.863281 10.855469-14.457031 10.855469-24 0-17.648438-14.351562-32-32-32h-6.238281c-4.402344-4.871094-10.699219-8-17.761719-8-10.414062 0-19.214844 6.710938-22.527344 16h-17.472656c-66.167969 0-120 53.832031-120 120v128c0 24.199219 12.265625 46.542969 32.207031 59.824219-.070312 1.390625-.207031 2.769531-.207031 4.175781 0 44.113281 35.886719 80 80 80 41.414062 0 75.566406-31.632812 79.59375-72h32.804688c4.027343 40.367188 38.1875 72 79.59375 72 44.113281 0 80-35.886719 80-80 0-1.40625-.136719-2.785156-.207032-4.175781 19.933594-13.289063 32.214844-35.679688 32.214844-59.824219v-33.472656c9.289062-3.3125 16-12.113282 16-22.527344 0-9.769531-5.886719-18.160156-14.28125-21.894531l36.527344-146.105469h17.753906c13.230469 0 24-10.769531 24-24s-10.769531-24-24-24zm-288 192v-16c8.824219 0 16 7.175781 16 16zm0-64c8.824219 0 16 7.175781 16 16s-7.175781 16-16 16zm0-48c8.824219 0 16 7.175781 16 16s-7.175781 16-16 16zm16-32c0 8.824219-7.175781 16-16 16v-32c8.824219 0 16 7.175781 16 16zm-88 352c-35.289062 0-64-28.710938-64-64s28.710938-64 64-64 64 28.710938 64 64-28.710938 64-64 64zm192 0c-35.289062 0-64-28.710938-64-64s28.710938-64 64-64 64 28.710938 64 64-28.710938 64-64 64zm76.847656-86c-9.582031-33.433594-40.367187-58-76.847656-58-41.414062 0-75.566406 31.632812-79.59375 72h-32.804688c-4.027343-40.367188-38.1875-72-79.59375-72-36.480468 0-67.265624 24.566406-76.855468 58.007812-11.976563-10.511718-19.152344-25.71875-19.152344-42.007812v-88h104v-16h-104v-24c0-8.273438 1.070312-16.28125 2.902344-24h101.097656v-16h-95.976562c15.703124-37.542969 52.800781-64 95.976562-64h16v32h-16v16h16v48h-16v16h16v48h-16v16h19.390625c6.195313 14.105469 20.25 24 36.609375 24h224v32c0 16.257812-7.183594 31.472656-19.152344 42zm27.152344-90h-232c-13.230469 0-24-10.769531-24-24v-168c0-4.40625 3.59375-8 8-8s8 3.59375 8 8v160c0 8.824219 7.175781 16 16 16h224c4.40625 0 8 3.59375 8 8 0 4.414062-3.59375 8-8 8zm-6.246094-32h-23.507812l36-144h23.507812zm70.246094-160h-53.753906l2.488281-9.9375c.890625-3.566406 4.082031-6.0625 7.761719-6.0625h43.503906c4.40625 0 8 3.59375 8 8s-3.59375 8-8 8zm0 0"/><path d="m56 136h16v16h-16zm0 0"/><path d="m88 136h16v16h-16zm0 0"/><path d="m56 200h16v16h-16zm0 0"/><path d="m88 200h16v16h-16zm0 0"/><path d="m56 72h16v16h-16zm0 0"/><path d="m88 72h16v16h-16zm0 0"/></svg>