<svg height="496pt" viewBox="0 0 496 496" width="496pt" xmlns="http://www.w3.org/2000/svg"><path d="m448 40v112h-64v-112c0-17.679688 14.320312-32 32-32 8.800781 0 16.800781 3.601562 22.640625 9.359375 5.757813 5.839844 9.359375 13.839844 9.359375 22.640625zm0 0" fill="#cf9e76"/><path d="m432 329.839844c32.078125 7.28125 56 51.921875 56 86.160156 0 39.761719-32.238281 72-72 72s-72-32.238281-72-72c0-34.238281 23.921875-78.878906 56-86.160156v-177.839844h32zm24 86.160156c0-22.078125-17.921875-56-40-56s-40 33.921875-40 56 17.921875 40 40 40 40-17.921875 40-40zm0 0" fill="#fcd770"/><g fill="#69d6f4"><path d="m40 24c0 8.835938-7.164062 16-16 16s-16-7.164062-16-16 7.164062-16 16-16 16 7.164062 16 16zm0 0"/><path d="m64 80c0 8.835938-7.164062 16-16 16s-16-7.164062-16-16 7.164062-16 16-16 16 7.164062 16 16zm0 0"/><path d="m112 120c0 8.835938-7.164062 16-16 16s-16-7.164062-16-16 7.164062-16 16-16 16 7.164062 16 16zm0 0"/><path d="m144 48c0 8.835938-7.164062 16-16 16s-16-7.164062-16-16 7.164062-16 16-16 16 7.164062 16 16zm0 0"/><path d="m296 56c0 26.507812-21.492188 48-48 48s-48-21.492188-48-48 21.492188-48 48-48 48 21.492188 48 48zm0 0"/></g><path d="m272 176v16c0 4.398438-3.601562 8-8 8h-176c-4.398438 0-8-3.601562-8-8v-16c0-4.398438 3.601562-8 8-8h176c4.398438 0 8 3.601562 8 8zm0 0" fill="#aab2bd"/><path d="m271.921875 259.761719c2.238281 5.679687 4.078125 11.519531 5.359375 17.4375-13.441406-4.558594-19.28125-13.199219-41.28125-13.199219-30 0-30 16-60 16s-30-16-60-16c-22 0-27.839844 8.640625-41.28125 13.199219 1.28125-5.917969 3.121094-11.757813 5.359375-17.4375l23.921875-59.761719h144zm0 0" fill="#e6e9ed"/><path d="m280 301.761719c0 6.796875-.640625 13.597656-1.839844 20.238281l-25.359375 139.761719c-2.800781 15.199219-16.082031 26.238281-31.519531 26.238281h-90.5625c-15.4375 0-28.71875-11.039062-31.519531-26.238281l-25.359375-139.761719c-1.199219-6.640625-1.839844-13.441406-1.839844-20.238281 0-8.320313.878906-16.5625 2.71875-24.5625 13.441406-4.558594 19.28125-13.199219 41.28125-13.199219 30 0 30 16 60 16s30-16 60-16c22 0 27.839844 8.640625 41.28125 13.199219 1.839844 8 2.71875 16.242187 2.71875 24.5625zm0 0" fill="#69d6f4"/><path d="m232 340.320312c0 7.441407-2.960938 14.640626-8.320312 20l-47.679688 47.679688-47.679688-47.679688c-5.359374-5.359374-8.320312-12.558593-8.320312-20 0-7.839843 3.199219-14.878906 8.320312-20 5.121094-5.121093 12.160157-8.320312 20-8.320312 7.441407 0 14.640626 2.960938 20 8.320312l7.679688 7.679688 7.679688-7.679688c5.359374-5.359374 12.558593-8.320312 20-8.320312 7.839843 0 14.878906 3.199219 20 8.320312 5.121093 5.121094 8.320312 12.160157 8.320312 20zm0 0" fill="#3bafda"/><path d="m259.816406 208h4.183594c8.824219 0 16-7.175781 16-16v-16c0-8.824219-7.175781-16-16-16h-176c-8.824219 0-16 7.175781-16 16v16c0 8.824219 7.175781 16 16 16h4.183594l-19.511719 48.792969c-5.761719 14.375-8.671875 29.519531-8.671875 45.007812 0 7.253907.65625 14.542969 1.953125 21.671875l25.398437 139.679688c3.457032 19.03125 20.007813 32.847656 39.351563 32.847656h90.585937c19.34375 0 35.894532-13.816406 39.351563-32.847656l25.398437-139.679688c1.304688-7.128906 1.960938-14.425781 1.960938-21.671875 0-15.488281-2.910156-30.632812-8.664062-45zm-171.816406-32h176l.007812 16h-176.007812zm154.585938 32 21.636718 54.097656c-6.734375-3.234375-15.03125-6.097656-28.214844-6.097656-17 0-25.894531 4.753906-33.75 8.945312-7.097656 3.78125-13.234374 7.054688-26.226562 7.054688-13 0-19.144531-3.273438-26.238281-7.054688-7.863281-4.191406-16.777344-8.945312-33.777344-8.945312-13.199219 0-21.503906 2.863281-28.238281 6.105469l21.636718-54.105469zm27.71875 112.609375-25.402344 139.679687c-2.070313 11.421876-12.007813 19.710938-23.605469 19.710938h-90.59375c-11.605469 0-21.535156-8.289062-23.613281-19.703125l-25.402344-139.679687c-1.121094-6.191407-1.6875-12.519532-1.6875-18.816407 0-6.367187.609375-12.65625 1.734375-18.847656 2.875-1.257813 5.546875-2.570313 8.035156-3.890625 7.101563-3.789062 13.238281-7.0625 26.246094-7.0625s19.144531 3.273438 26.242187 7.054688c7.863282 4.191406 16.765626 8.945312 33.773438 8.945312 17 0 25.898438-4.753906 33.753906-8.945312 7.09375-3.78125 13.230469-7.054688 26.222656-7.054688 13 0 19.136719 3.273438 26.230469 7.054688 2.488281 1.328124 5.152344 2.640624 8.019531 3.890624 1.125 6.199219 1.742188 12.488282 1.742188 18.855469 0 6.296875-.566406 12.625-1.695312 18.808594zm0 0"/><path d="m203.710938 304c-9.6875 0-18.808594 3.777344-25.65625 10.632812l-2.054688 2.054688-2.054688-2.054688c-6.855468-6.855468-15.96875-10.632812-25.65625-10.632812-20.007812 0-36.289062 16.28125-36.289062 36.289062 0 9.6875 3.777344 18.808594 10.632812 25.65625l53.367188 53.367188 53.367188-53.367188c6.855468-6.855468 10.632812-15.96875 10.632812-25.65625 0-20.007812-16.28125-36.289062-36.289062-36.289062zm14.34375 50.632812-42.054688 42.054688-42.054688-42.054688c-3.832031-3.832031-5.945312-8.929687-5.945312-14.34375 0-11.183593 9.105469-20.289062 20.289062-20.289062 5.414063 0 10.511719 2.113281 14.34375 5.945312l13.367188 13.367188 13.367188-13.367188c3.832031-3.832031 8.929687-5.945312 14.34375-5.945312 11.183593 0 20.289062 9.105469 20.289062 20.289062 0 5.414063-2.113281 10.511719-5.945312 14.34375zm0 0"/><path d="m416 352c-27.839844 0-48 38.222656-48 64 0 26.472656 21.527344 48 48 48s48-21.527344 48-48c0-25.777344-20.160156-64-48-64zm0 96c-17.648438 0-32-14.351562-32-32 0-19.832031 16.550781-48 32-48s32 28.167969 32 48c0 17.648438-14.351562 32-32 32zm0 0"/><path d="m440 323.886719v-163.886719h16v-120c0-22.054688-17.945312-40-40-40s-40 17.945312-40 40v120h16v163.886719c-32.449219 11.914062-56 56.664062-56 92.113281 0 44.113281 35.886719 80 80 80s80-35.886719 80-80c0-35.449219-23.550781-80.191406-56-92.113281zm-48-283.886719c0-13.230469 10.769531-24 24-24s24 10.769531 24 24v104h-48zm24 440c-35.289062 0-64-28.710938-64-64 0-31 21.742188-71.984375 49.777344-78.351562l6.222656-1.417969v-176.230469h16v176.230469l6.222656 1.417969c28.035156 6.367187 49.777344 47.351562 49.777344 78.351562 0 35.289062-28.710938 64-64 64zm0 0"/><path d="m248 0c-30.878906 0-56 25.121094-56 56s25.121094 56 56 56 56-25.121094 56-56-25.121094-56-56-56zm0 96c-22.054688 0-40-17.945312-40-40s17.945312-40 40-40 40 17.945312 40 40-17.945312 40-40 40zm0 0"/><path d="m96 144c13.230469 0 24-10.769531 24-24s-10.769531-24-24-24-24 10.769531-24 24 10.769531 24 24 24zm0-32c4.40625 0 8 3.59375 8 8s-3.59375 8-8 8-8-3.59375-8-8 3.59375-8 8-8zm0 0"/><path d="m128 72c13.230469 0 24-10.769531 24-24s-10.769531-24-24-24-24 10.769531-24 24 10.769531 24 24 24zm0-32c4.40625 0 8 3.59375 8 8s-3.59375 8-8 8-8-3.59375-8-8 3.59375-8 8-8zm0 0"/><path d="m48 24c0-13.230469-10.769531-24-24-24s-24 10.769531-24 24 10.769531 24 24 24 24-10.769531 24-24zm-32 0c0-4.40625 3.59375-8 8-8s8 3.59375 8 8-3.59375 8-8 8-8-3.59375-8-8zm0 0"/><path d="m72 80c0-13.230469-10.769531-24-24-24s-24 10.769531-24 24 10.769531 24 24 24 24-10.769531 24-24zm-24 8c-4.40625 0-8-3.59375-8-8s3.59375-8 8-8 8 3.59375 8 8-3.59375 8-8 8zm0 0"/></svg>