<svg height="496pt" viewBox="-56 0 496 496" width="496pt" xmlns="http://www.w3.org/2000/svg"><path d="m344 56h-304c0-26.480469 21.519531-48 48-48h208c26.480469 0 48 21.519531 48 48zm0 0" fill="#ffeaa7"/><path d="m360 56c8.800781 0 16 7.199219 16 16v16c0 8.800781-7.199219 16-16 16h-336c-8.800781 0-16-7.199219-16-16v-16c0-8.800781 7.199219-16 16-16zm0 0" fill="#fcd770"/><path d="m56 440v-137.359375c0-14.480469-5.761719-28.402344-16-38.640625s-16-24.160156-16-38.640625v-121.359375h336v121.359375c0 14.480469-5.761719 28.402344-16 38.640625s-16 24.160156-16 38.640625v137.359375zm0 0" fill="#ffeaa7"/><path d="m328 440v16c0 17.679688-14.320312 32-32 32h-208c-17.679688 0-32-14.320312-32-32v-16zm0 0" fill="#fcd770"/><path d="m128.558594 208.558594c-.398438-2.796875-.558594-5.679688-.558594-8.558594 0-35.359375 28.640625-64 64-64s64 28.640625 64 64c0 2.960938-.238281 5.761719-.640625 8.640625 23.039063 3.519531 40.640625 23.359375 40.640625 47.359375 0 26.480469-21.519531 48-48 48l-.480469.238281c-10.960937-19.277343-31.757812-32.238281-55.519531-32.238281s-44.558594 12.960938-55.519531 32.238281l-.480469-.238281c-26.480469 0-48-21.519531-48-48 0-23.921875 17.601562-43.839844 40.558594-47.359375zm0 0" fill="#e6e9ed"/><path d="m248 440h-112c-26.480469 0-48-21.519531-48-48 0-23.921875 17.601562-43.839844 40.558594-47.359375v-.082031c-.398438-2.796875-.558594-5.679688-.558594-8.558594 0-11.601562 3.121094-22.398438 8.480469-31.761719 10.960937-19.277343 31.757812-32.238281 55.519531-32.238281s44.558594 12.960938 55.519531 32.238281c5.359375 9.363281 8.480469 20.160157 8.480469 31.761719 0 2.960938-.238281 5.761719-.640625 8.640625 23.039063 3.519531 40.640625 23.359375 40.640625 47.359375 0 26.480469-21.519531 48-48 48zm0 0" fill="#e6e9ed"/><path d="m360 48h-8.640625c-3.902344-27.097656-27.207031-48-55.359375-48h-208c-28.152344 0-51.457031 20.902344-55.359375 48h-8.640625c-13.230469 0-24 10.769531-24 24v16c0 10.414062 6.710938 19.214844 16 22.527344v114.847656c0 16.730469 6.511719 32.457031 18.34375 44.289062 8.808594 8.800782 13.65625 20.503907 13.65625 32.960938v153.375c0 22.054688 17.945312 40 40 40h208c22.054688 0 40-17.945312 40-40v-153.375c0-12.457031 4.847656-24.167969 13.65625-32.96875 11.832031-11.824219 18.34375-27.550781 18.34375-44.289062v-114.839844c9.289062-3.3125 16-12.113282 16-22.527344v-16c0-13.230469-10.769531-24-24-24zm-272-32h208c19.3125 0 35.472656 13.769531 39.191406 32h-286.382812c3.71875-18.230469 19.878906-32 39.191406-32zm250.34375 242.34375c-11.832031 11.824219-18.34375 27.542969-18.34375 44.28125v153.375c0 13.230469-10.769531 24-24 24h-208c-13.230469 0-24-10.769531-24-24v-8h240v-16h-16.886719c10.40625-10.175781 16.886719-24.335938 16.886719-40 0-25.238281-16.449219-46.734375-40.046875-53.648438.03125-.800781.046875-1.574218.046875-2.351562 0-8.863281-1.6875-17.320312-4.625-25.167969 25.441406-5.273437 44.625-27.855469 44.625-54.832031 0-25.238281-16.449219-46.734375-40.046875-53.648438.03125-.792968.046875-1.574218.046875-2.351562 0-39.695312-32.304688-72-72-72s-72 32.304688-72 72c0 .777344.128906 1.542969.152344 2.320312-23.175782 6.855469-40.152344 28.304688-40.152344 53.679688 0 26.976562 19.183594 49.558594 44.625 54.832031-2.9375 7.847657-4.625 16.304688-4.625 25.167969 0 .777344.128906 1.542969.152344 2.320312-23.175782 6.855469-40.152344 28.3125-40.152344 53.679688 0 15.664062 6.480469 29.824219 16.886719 40h-32.886719v-129.375c0-16.738281-6.511719-32.464844-18.34375-44.28125-8.808594-8.808594-13.65625-20.511719-13.65625-32.976562v-113.367188h320v113.367188c0 12.464843-4.847656 24.167968-13.65625 32.976562zm-242.34375 133.65625c0-22.054688 17.945312-40 40-40s40 17.945312 40 40h16c0-30.871094-25.121094-56-56-56 0-30.871094 25.121094-56 56-56s56 25.128906 56 56c0 2.246094-.183594 4.648438-.574219 7.535156l-1.058593 7.792969 7.769531 1.191406c19.625 3.023438 33.863281 19.632813 33.863281 39.480469 0 22.054688-17.945312 40-40 40h-112c-22.054688 0-40-17.945312-40-40zm40-176c19.617188 0 36.207031 14.015625 39.449219 33.328125l15.78125-2.648437c-4.542969-27.046876-27.765625-46.679688-55.230469-46.679688 0-30.878906 25.121094-56 56-56s56 25.121094 56 56c0 2.246094-.183594 4.648438-.574219 7.542969l-1.058593 7.785156 7.761718 1.191406c19.632813 3.03125 33.871094 19.632813 33.871094 39.480469 0 20.824219-16.054688 37.792969-36.414062 39.640625-12.960938-19.082031-34.832032-31.640625-59.585938-31.640625s-46.625 12.558594-59.585938 31.640625c-20.359374-1.847656-36.414062-18.816406-36.414062-39.640625 0-22.054688 17.945312-40 40-40zm232-128c0 4.40625-3.59375 8-8 8h-336c-4.40625 0-8-3.59375-8-8v-16c0-4.40625 3.59375-8 8-8h336c4.40625 0 8 3.59375 8 8zm0 0"/><path d="m232 336c0-22.054688-17.945312-40-40-40v16c13.230469 0 24 10.769531 24 24zm0 0"/><path d="m216 376v16c13.230469 0 24 10.769531 24 24h16c0-22.054688-17.945312-40-40-40zm0 0"/><path d="m200 160c-22.054688 0-40 17.945312-40 40h16c0-13.230469 10.769531-24 24-24zm0 0"/><path d="m216 256c0-13.230469 10.769531-24 24-24v-16c-22.054688 0-40 17.945312-40 40zm0 0"/></svg>