<svg height="495pt" viewBox="-79 0 495 495.97722" width="495pt" xmlns="http://www.w3.org/2000/svg"><path d="m288.488281 183.976562h-240c0-26.480468 21.519531-48 48-48h40v-26.078124c-17.199219-12-27.359375-33.28125-23.039062-56.640626 4.160156-22.082031 21.757812-39.921874 43.839843-44.160156 35.839844-6.960937 67.199219 20.238282 67.199219 54.878906 0 19.039063-9.519531 35.761719-24 45.921876v26.078124h40c26.480469 0 48 21.519532 48 48zm0 0" fill="#dfb28b"/><path d="m192.488281 63.976562c0 13.253907-10.746093 24-24 24-13.253906 0-24-10.746093-24-24 0-13.253906 10.746094-24 24-24 13.253907 0 24 10.746094 24 24zm0 0" fill="#cf9e76"/><path d="m328.488281 199.976562v16c0 8.800782-7.199219 16-16 16h-288c-8.800781 0-16-7.199218-16-16v-16c0-8.800781 7.199219-16 16-16h288c8.800781 0 16 7.199219 16 16zm0 0" fill="#fcd770"/><path d="m312.488281 231.976562v208c0 26.480469-21.519531 48-48 48h-192c-26.480469 0-48-21.519531-48-48v-208zm0 0" fill="#ffeaa7"/><path d="m264.488281 359.578125v.800781c0 14.238282-9.441406 26.160156-22.398437 30.078125 6.320312 11.921875 4.640625 27.039063-5.441406 37.121094l-.558594.558594c-10.082032 10.082031-25.203125 11.761719-37.121094 5.441406-3.921875 12.960937-15.839844 22.398437-30.082031 22.398437h-.796875c-14.242188 0-26.160156-9.4375-30.082032-22.398437-11.917968 6.320313-27.039062 4.640625-37.121093-5.441406l-.558594-.558594c-10.078125-10.082031-11.757813-25.199219-5.441406-37.121094-12.957031-3.917969-22.398438-15.839843-22.398438-30.078125v-.800781c0-14.242187 9.441407-26.160156 22.398438-30.082031-6.316407-11.917969-4.636719-27.039063 5.441406-37.117188l.558594-.5625c10.082031-10.078125 25.203125-11.757812 37.121093-5.4375 3.921876-12.960937 15.839844-22.402344 30.082032-22.402344h.796875c14.242187 0 26.160156 9.441407 30.082031 22.402344 11.917969-6.320312 27.039062-4.640625 37.121094 5.4375l.558594.5625c10.082031 10.078125 11.761718 25.199219 5.441406 37.117188 12.957031 3.921875 22.398437 15.839844 22.398437 30.082031zm0 0" fill="#ff826e"/><path d="m200.488281 359.976562c0 17.671876-14.328125 32-32 32s-32-14.328124-32-32c0-17.671874 14.328125-32 32-32s32 14.328126 32 32zm0 0" fill="#fcd770"/><path d="m312.488281 175.976562h-16.640625c-3.902344-27.09375-27.207031-48-55.359375-48h-32v-14.078124c15.105469-12.113282 24-30.472657 24-49.921876 0-19.183593-8.496093-37.183593-23.3125-49.398437-14.808593-12.207031-34.3125-17.082031-53.445312-13.351563-25.273438 4.902344-45.417969 25.238282-50.121094 50.582032-4.425781 23.855468 4.304687 47.265625 22.871094 62.097656v14.070312h-32c-28.152344 0-51.457031 20.90625-55.359375 48h-16.632813c-13.230469 0-24 10.769532-24 24v16c0 10.417969 6.710938 19.214844 16 22.527344v201.472656c0 30.878907 25.128907 56 56 56h192c30.871094 0 56-25.121093 56-56v-201.472656c9.289063-3.3125 16-12.109375 16-22.527344v-16c0-13.230468-10.769531-24-24-24zm-216-32h48v-38.246093l-3.421875-2.386719c-15.699218-10.957031-23.25-29.589844-19.722656-48.613281 3.511719-18.945313 18.554688-34.136719 37.433594-37.808594 14.421875-2.800781 29.109375.832031 40.214844 10 11.121093 9.160156 17.496093 22.671875 17.496093 37.054687 0 15.648438-7.695312 30.359376-20.574219 39.359376l-3.425781 2.394531v38.246093h48c19.3125 0 35.472657 13.769532 39.191407 32h-222.382813c3.71875-18.230468 19.878906-32 39.191406-32zm168 336h-192c-22.054687 0-40-17.941406-40-40v-200h272v200c0 22.058594-17.945312 40-40 40zm56-264c0 4.410157-3.582031 8-8 8h-288c-4.414062 0-8-3.589843-8-8v-16c0-4.40625 3.585938-8 8-8h288c4.417969 0 8 3.59375 8 8zm0 0"/><path d="m252.351562 325.234375c3.824219-13.59375.128907-28.34375-10.605468-39.074219-10.257813-10.261718-24.945313-13.894531-38.511719-10.054687-6.914063-12.3125-19.96875-20.128907-35.136719-20.128907-14.511718 0-27.464844 7.816407-34.351562 20.128907-13.601563-3.832031-28.257813-.207031-38.480469 10.015625l-.601563.59375c-10.261718 10.261718-13.878906 24.949218-10.054687 38.519531-12.296875 6.910156-20.121094 19.96875-20.121094 35.136719 0 14.511718 7.824219 27.453125 20.136719 34.34375-3.824219 13.589844-.128906 28.34375 10.609375 39.070312 10.253906 10.273438 24.925781 13.886719 38.511719 10.054688 6.910156 12.320312 19.964844 20.136718 35.132812 20.136718 14.515625 0 27.464844-7.816406 34.355469-20.128906 13.597656 3.832032 28.253906.21875 38.476563-10.015625l.601562-.589843c10.265625-10.265626 13.878906-24.953126 10.054688-38.519532 12.296874-6.914062 20.121093-19.96875 20.121093-35.136718 0-14.519532-7.824219-27.457032-20.136719-34.351563zm-12.621093 57.574219-9.273438 2.832031 4.550781 8.570313c4.914063 9.253906 3.304688 20.390624-3.976562 27.671874l-.597656.589844c-7.328125 7.335938-18.464844 8.953125-27.703125 4.015625l-8.570313-4.550781-2.832031 9.273438c-3.070313 10.039062-12.085937 16.765624-23.230469 16.765624-10.359375 0-19.378906-6.726562-22.449218-16.75l-2.832032-9.273437-8.566406 4.550781c-9.25 4.929688-20.386719 3.296875-28.265625-4.574218-7.320313-7.328126-8.929687-18.464844-4.015625-27.710938l4.550781-8.570312-9.269531-2.832032c-10.023438-3.070312-16.761719-12.085937-16.761719-23.230468 0-10.351563 6.738281-19.367188 16.761719-22.441407l9.269531-2.832031-4.550781-8.566406c-4.914062-9.257813-3.304688-20.394532 3.976562-27.671875l.597657-.59375c7.328125-7.320313 18.480469-8.933594 27.707031-4.015625l8.566406 4.550781 2.832032-9.269531c3.070312-10.039063 12.089843-16.769532 23.230468-16.769532 10.363282 0 19.378906 6.730469 22.449219 16.753907l2.832031 9.269531 8.570313-4.550781c9.253906-4.929688 20.390625-3.296875 28.261719 4.574219 7.320312 7.328124 8.929687 18.464843 4.015624 27.714843l-4.550781 8.566407 9.273438 2.832031c10.023437 3.074219 16.757812 12.089843 16.757812 23.234375 0 10.359375-6.734375 19.375-16.757812 22.4375zm0 0"/><path d="m168.488281 319.976562c-22.054687 0-40 17.945313-40 40 0 22.058594 17.945313 40 40 40 22.054688 0 40-17.941406 40-40 0-22.054687-17.945312-40-40-40zm0 64c-13.230469 0-24-10.765624-24-24 0-13.230468 10.769531-24 24-24s24 10.769532 24 24c0 13.234376-10.769531 24-24 24zm0 0"/><path d="m168.488281 31.976562c-17.648437 0-32 14.351563-32 32 0 17.648438 14.351563 32 32 32v-16c-8.824219 0-16-7.175781-16-16 0-8.824218 7.175781-16 16-16s16 7.175782 16 16h16c0-17.648437-14.351562-32-32-32zm0 0"/></svg>