<svg height="496pt" viewBox="0 -40 496 496" width="496pt" xmlns="http://www.w3.org/2000/svg"><path d="m488 240v64c0 26.480469-21.519531 48-48 48 0-30.960938-25.039062-56-56-56s-56 25.039062-56 56h-144c0-20.398438-10.878906-38.238281-27.199219-48h163.199219v-64h48l32 32 32-32zm0 0" fill="#ffeaa7"/><path d="m104 176h72v32h-16l-16 32v58.320312c-5.039062-1.519531-10.398438-2.320312-16-2.320312-30.960938 0-56 25.039062-56 56h-32c-17.679688 0-32-14.320312-32-32v-16h32c8.800781 0 16-7.199219 16-16v-16c0-8.800781-7.199219-16-16-16h-31.441406c1.441406-13.441406 5.921875-26.398438 13.042968-37.839844l18.476563-21.199218.082031.078124c-.082031.960938-.160156 2-.160156 2.960938 0 17.679688 14.320312 32 32 32s32-14.320312 32-32c0-9.441406-4.160156-18-10.640625-23.839844 1.441406-.160156 2.960937-.160156 4.402344-.160156zm0 0" fill="#ffeaa7"/><path d="m392.320312 184.320312c-5.359374-5.359374-12.558593-8.320312-20-8.320312-7.839843 0-14.878906 3.199219-20 8.320312-5.121093 5.121094-8.320312 12.160157-8.320312 20 0 7.441407 2.960938 14.640626 8.320312 20l15.679688 15.679688h-48l-16-32h-24l36-48 7.199219-9.601562c3.039062-4 7.761719-6.398438 12.800781-6.398438h136c8.800781 0 16 7.199219 16 16v80h-56l15.679688-15.679688c5.359374-5.359374 8.320312-12.558593 8.320312-20 0-7.839843-3.199219-14.878906-8.320312-20-5.121094-5.121093-12.160157-8.320312-20-8.320312-7.441407 0-14.640626 2.960938-20 8.320312l-7.679688 7.679688zm0 0" fill="#fcd770"/><path d="m320 240v64h-163.199219c-3.921875-2.398438-8.242187-4.320312-12.800781-5.679688v-58.320312l16-32h144zm0 0" fill="#b4dd7f"/><path d="m472 32v112h-48v-112c0-13.28125 10.71875-24 24-24 6.640625 0 12.640625 2.71875 16.960938 7.039062 4.320312 4.320313 7.039062 10.320313 7.039062 16.960938zm0 0" fill="#838f9b"/><path d="m316 160-36 48h-32v-16c0-17.679688 14.320312-32 32-32zm0 0" fill="#ccd1d9"/><path d="m384 296c30.960938 0 56 25.039062 56 56s-25.039062 56-56 56-56-25.039062-56-56 25.039062-56 56-56zm0 0" fill="#838f9b"/><path d="m156.800781 304c16.320313 9.761719 27.199219 27.601562 27.199219 48 0 30.960938-25.039062 56-56 56s-56-25.039062-56-56 25.039062-56 56-56c5.601562 0 10.960938.800781 16 2.320312 4.558594 1.359376 8.878906 3.28125 12.800781 5.679688zm0 0" fill="#838f9b"/><path d="m408 352c0 13.253906-10.746094 24-24 24s-24-10.746094-24-24 10.746094-24 24-24 24 10.746094 24 24zm0 0" fill="#ffeaa7"/><path d="m152 352c0 13.253906-10.746094 24-24 24s-24-10.746094-24-24 10.746094-24 24-24 24 10.746094 24 24zm0 0" fill="#ffeaa7"/><path d="m179.761719 85.761719c7.039062 1.277343 12.238281 7.519531 12.238281 14.71875 0 2.320312-.558594 4.640625-1.601562 6.640625l-1.359376 2.878906c-2.960937 5.921875-9.519531 9.199219-16.078124 8l-21.519532-3.921875-30.5625-5.519531-12.640625-2.320313c-7.039062-1.277343-12.238281-7.519531-12.238281-14.71875 0-2.320312.558594-4.640625 1.601562-6.640625l1.359376-2.878906c2.960937-5.921875 9.519531-9.199219 16.078124-8zm0 0" fill="#838f9b"/><path d="m151.441406 114.078125-15.441406 61.921875h-32l16.878906-67.441406zm0 0" fill="#aab2bd"/><g fill="#ff826e"><path d="m56 272v16c0 8.800781-7.199219 16-16 16h-32v-38.238281c0-3.28125.160156-6.5625.558594-9.761719h31.441406c8.800781 0 16 7.199219 16 16zm0 0"/><path d="m104 200c0 17.679688-14.320312 32-32 32s-32-14.320312-32-32c0-.960938.078125-2 .160156-2.960938l-.082031-.078124c4.402344-3.679688 9.121094-6.960938 14.160156-9.761719 11.839844-6.480469 25.203125-10.398438 39.121094-11.039063 6.480469 5.839844 10.640625 14.398438 10.640625 23.839844zm0 0"/><path d="m456 204.320312c0 7.441407-2.960938 14.640626-8.320312 20l-47.679688 47.679688-47.679688-47.679688c-5.359374-5.359374-8.320312-12.558593-8.320312-20 0-7.839843 3.199219-14.878906 8.320312-20 5.121094-5.121093 12.160157-8.320312 20-8.320312 7.441407 0 14.640626 2.960938 20 8.320312l7.679688 7.679688 7.679688-7.679688c5.359374-5.359374 12.558593-8.320312 20-8.320312 7.839843 0 14.878906 3.199219 20 8.320312 5.121093 5.121094 8.320312 12.160157 8.320312 20zm0 0"/></g><path d="m384 320c-17.648438 0-32 14.351562-32 32s14.351562 32 32 32 32-14.351562 32-32-14.351562-32-32-32zm0 48c-8.824219 0-16-7.175781-16-16s7.175781-16 16-16 16 7.175781 16 16-7.175781 16-16 16zm0 0"/><path d="m128 320c-17.648438 0-32 14.351562-32 32s14.351562 32 32 32 32-14.351562 32-32-14.351562-32-32-32zm0 48c-8.824219 0-16-7.175781-16-16s7.175781-16 16-16 16 7.175781 16 16-7.175781 16-16 16zm0 0"/><path d="m480 137.472656v-105.472656c0-17.648438-14.351562-32-32-32s-32 14.351562-32 32v104h-80c-7.511719 0-14.695312 3.585938-19.191406 9.601562l-4.800782 6.398438h-32.007812c-22.054688 0-40 17.945312-40 40v8h-56v-32h-37.761719l11.175781-44.710938 14.128907 2.566407c1.351562.25 2.703125.367187 4.050781.367187 8.550781 0 16.644531-4.839844 20.574219-12.679687l1.40625-2.816407c1.59375-3.167968 2.425781-6.710937 2.425781-10.253906 0-11.089844-7.921875-20.585937-18.839844-22.570312l-64.703125-11.757813c-9.9375-1.839843-20.082031 3.246094-24.625 12.3125l-1.40625 2.816407c-1.59375 3.167968-2.425781 6.710937-2.425781 10.253906 0 11.089844 7.921875 20.585937 18.839844 22.570312l4.199218.757813-13.277343 53.144531h-.027344c-33.917969 0-64.902344 17.167969-82.871094 45.9375-9.71875 15.550781-14.863281 33.460938-14.863281 51.796875v54.265625c0 22.054688 17.945312 40 40 40h24.550781c3.960938 31.519531 30.875 56 63.449219 56s59.488281-24.480469 63.449219-56h129.109375c3.960937 31.519531 30.875 56 63.449218 56 32.769532 0 59.832032-24.777344 63.527344-56.566406 27.3125-3.699219 48.464844-27.121094 48.464844-55.433594v-144c0-10.414062-6.710938-19.214844-16-22.527344zm-48-105.472656c0-8.824219 7.175781-16 16-16s16 7.175781 16 16v104h-32zm-102.398438 123.191406c1.503907-2 3.894532-3.191406 6.398438-3.191406h136c4.414062 0 8 3.585938 8 8v72h-28.6875l2.0625-2.0625c6.847656-6.847656 10.625-15.960938 10.625-25.65625 0-20.007812-16.273438-36.28125-36.28125-36.28125-9.695312 0-18.808594 3.777344-25.65625 10.625l-2.0625 2.0625-2.0625-2.0625c-6.847656-6.847656-15.960938-10.625-25.65625-10.625-20.007812 0-36.28125 16.273438-36.28125 36.28125 0 9.695312 3.777344 18.808594 10.625 25.65625l2.0625 2.0625h-23.742188l-16-32h-12.945312zm28.335938 63.433594c-3.824219-3.824219-5.9375-8.921875-5.9375-14.34375 0-11.175781 9.105469-20.28125 20.28125-20.28125 5.421875 0 10.511719 2.113281 14.34375 5.9375l13.375 13.375 13.375-13.375c3.824219-3.824219 8.921875-5.9375 14.34375-5.9375 11.175781 0 20.28125 9.105469 20.28125 20.28125 0 5.421875-2.113281 10.511719-5.9375 14.34375l-42.0625 42.0625zm-199.027344 77.375c-2.222656-1.230469-4.535156-2.320312-6.910156-3.289062v-50.824219l12.945312-25.886719h134.109376l12.945312 25.886719v54.113281zm97.089844-104c0-13.230469 10.769531-24 24-24h20.007812l-24 32h-20.007812zm-152-100.472656c0-1.078125.246094-2.152344.734375-3.121094l1.402344-2.804688c1.191406-2.378906 3.648437-3.839843 6.230469-3.839843.410156 0 .824218.039062 1.226562.109375l64.695312 11.761718c3.3125.605469 5.710938 3.480469 5.710938 6.839844 0 1.078125-.246094 2.152344-.734375 3.121094l-1.402344 2.804688c-1.382812 2.753906-4.464843 4.28125-7.464843 3.738281l-64.695313-11.761719c-3.304687-.613281-5.703125-3.488281-5.703125-6.847656zm22.808594 26.199218 14.839844 2.699219-11.886719 47.574219h-15.523438zm-30.808594 82.273438c0 13.230469-10.769531 24-24 24-12.945312 0-23.449219-10.3125-23.910156-23.144531 12.0625-9.261719 26.542968-14.953125 42.054687-16.375 3.6875 4.320312 5.855469 9.777343 5.855469 15.519531zm-79.878906 64h23.878906c4.414062 0 8 3.585938 8 8v16c0 4.414062-3.585938 8-8 8h-24v-30.265625c0-.582031.113281-1.148437.121094-1.734375zm-.121094 56v-8h24c13.230469 0 24-10.769531 24-24v-16c0-13.230469-10.769531-24-24-24h-21.855469c2.007813-9 5.335938-17.679688 10.28125-25.574219 1.894531-3.035156 3.957031-5.90625 6.183594-8.617187 5.648437 15.238281 20.207031 26.191406 37.390625 26.191406 22.054688 0 40-17.945312 40-40 0-5.566406-1.183594-11-3.367188-16h59.367188v16h-12.945312l-19.054688 38.113281v50.445313c-2.625-.335938-5.289062-.558594-8-.558594-32.574219 0-59.488281 24.480469-63.449219 56h-24.550781c-13.230469 0-24-10.769531-24-24zm112 80c-26.472656 0-48-21.527344-48-48s21.527344-48 48-48 48 21.527344 48 48-21.527344 48-48 48zm256 0c-26.472656 0-48-21.527344-48-48s21.527344-48 48-48 48 21.527344 48 48-21.527344 48-48 48zm63.328125-56.742188c-4.28125-31.152343-31.007813-55.257812-63.328125-55.257812-32.574219 0-59.488281 24.480469-63.449219 56h-129.101562c-1.511719-12.015625-6.335938-23-13.5625-32h150.113281v-64h36.6875l35.3125 35.3125 35.3125-35.3125h44.6875v56c0 19.542969-14.113281 35.800781-32.671875 39.257812zm0 0"/><path d="m168 264h128v16h-128zm0 0"/></svg>