<svg height="497pt" viewBox="0 0 497 497.376" width="497pt" xmlns="http://www.w3.org/2000/svg"><path d="m200.1875 177.375v64h-96v-80h98.71875c-1.757812 5.039062-2.71875 10.402344-2.71875 16zm0 0" fill="#ff826e"/><path d="m392.1875 97.375v64h-98.71875c-6.5625-18.640625-24.402344-32-45.28125-32-13.28125 0-25.28125 5.359375-33.917969 14.082031-5.042969 5.039063-8.960937 11.117188-11.363281 17.917969h-98.71875v-64zm0 0" fill="#fcd770"/><path d="m296.1875 177.375c0-5.597656-.960938-10.960938-2.71875-16h98.71875v80h-96zm0 0" fill="#ff826e"/><path d="m392.1875 97.375h-288l144-88zm0 0" fill="#b4dd7f"/><path d="m327.707031 407.457031c-4.558593-18.242187-15.039062-33.761719-29.117187-44.722656-14-10.957031-31.601563-17.359375-50.402344-17.359375-37.597656 0-70.398438 25.601562-79.519531 62.082031l-.480469 1.917969v-112h160v112zm0 0" fill="#b4dd7f"/><path d="m264.1875 265.375h32v32h-32zm0 0" fill="#b4dd7f"/><path d="m200.1875 265.375h32v32h-32zm0 0" fill="#b4dd7f"/><path d="m328.1875 393.375v96h160v-96zm0 0" fill="#ff826e"/><g fill="#fcd770"><path d="m456.1875 297.375h-128v96h160v-96zm0 0"/><path d="m456.1875 265.375h32v32h-32zm0 0"/><path d="m392.1875 265.375h32v32h-32zm0 0"/><path d="m328.1875 265.375h32v32h-32zm0 0"/></g><path d="m8.1875 393.375v96h160v-96zm0 0" fill="#ff826e"/><path d="m136.1875 297.375h-128v96h160v-96zm0 0" fill="#fcd770"/><path d="m136.1875 265.375h32v32h-32zm0 0" fill="#fcd770"/><path d="m72.1875 265.375h32v32h-32zm0 0" fill="#fcd770"/><path d="m8.1875 265.375h32v32h-32zm0 0" fill="#fcd770"/><path d="m448.1875 257.375v32h-16v-32h-48v32h-16v-32h-48v32h-16v-32h-48v32h-16v-32h-48v32h-16v-32h-48v32h-16v-32h-48v32h-16v-32h-48v240h176v-87.023438l.234375-.953124c8.253906-32.984376 37.765625-56.023438 71.765625-56.023438s63.511719 23.039062 71.761719 56.015625l.238281.976563v87.007812h176v-240zm32 80h-128v16h128v32h-144v-80h144zm-80-64h16v16h-16zm-48 0v16h-16v-16zm-80 0h16v16h-16zm-64 0h16v16h-16zm-192 80h128v-16h-128v-32h144v80h-144zm128-80h16v16h-16zm-64 0h16v16h-16zm-64 0h16v16h-16zm0 208v-32h128v-16h-128v-32h144v80zm232-144c-29.078125 0-55.40625 13.890625-72 36.066406v-68.066406h144v68.066406c-16.582031-22.175781-42.917969-36.066406-72-36.066406zm88 144v-80h144v32h-128v16h128v32zm128-192v-16h16v16zm0 0"/><path d="m112.1875 169.375h80.640625c-.375 2.625-.640625 5.28125-.640625 8v64h16v-64c0-22.054688 17.945312-40 40-40s40 17.945312 40 40v64h16v-64c0-2.71875-.261719-5.375-.640625-8h80.640625v72h16v-148.488281l-152-92.886719-152 92.886719v148.488281h16zm186.519531-16c-9.007812-18.886719-28.238281-32-50.519531-32s-41.503906 13.113281-50.519531 32h-85.480469v-48h272v48zm65.050781-64h-231.136718l115.566406-70.621094zm0 0"/></svg>