<svg height="496pt" viewBox="-32 0 496 496" width="496pt" xmlns="http://www.w3.org/2000/svg"><path d="m240 312v176h-176v-128h144zm0 0" fill="#dfb28b"/><path d="m368 360v128h-128v-176l32 48zm0 0" fill="#dfb28b"/><path d="m368 312 32 48h-128l-32-48zm0 0" fill="#cf9e76"/><path d="m232 312h8l-32 48h-176l32-48zm0 0" fill="#cf9e76"/><g fill="#fcd770"><path d="m232 280c8.800781 0 16 7.199219 16 16 0 4.398438-1.761719 8.398438-4.71875 11.28125-2.882812 2.957031-6.882812 4.71875-11.28125 4.71875h-32c-8.800781 0-16-7.199219-16-16 0-4.398438 1.761719-8.398438 4.71875-11.28125 2.882812-2.957031 6.882812-4.71875 11.28125-4.71875zm0 0"/><path d="m232 280h-48c-8.800781 0-16-7.199219-16-16 0-4.398438 1.761719-8.398438 4.71875-11.28125 2.882812-2.957031 6.882812-4.71875 11.28125-4.71875h64c8.800781 0 16 7.199219 16 16 0 4.398438-1.761719 8.398438-4.71875 11.28125-2.882812 2.957031-6.882812 4.71875-11.28125 4.71875zm0 0"/><path d="m248 248h-80c-8.800781 0-16-7.199219-16-16 0-4.398438 1.761719-8.398438 4.71875-11.28125 2.882812-2.957031 6.882812-4.71875 11.28125-4.71875h96c8.800781 0 16 7.199219 16 16 0 4.398438-1.761719 8.398438-4.71875 11.28125-2.882812 2.957031-6.882812 4.71875-11.28125 4.71875zm0 0"/><path d="m296 200v8c0 4.398438-3.601562 8-8 8h-144c-4.398438 0-8-3.601562-8-8v-16c0-4.398438 3.601562-8 8-8h144c4.398438 0 8 3.601562 8 8zm0 0"/></g><path d="m408 232c8.800781 0 16 7.199219 16 16s-7.199219 16-16 16-16-7.199219-16-16c0-4.558594 1.921875-8.71875 5.039062-11.601562 2.882813-2.796876 6.722657-4.398438 10.960938-4.398438zm0 0" fill="#ffc729"/><path d="m34.960938 236.398438c3.117187 2.882812 5.039062 7.042968 5.039062 11.601562 0 8.800781-7.199219 16-16 16s-16-7.199219-16-16 7.199219-16 16-16c4.238281 0 8.078125 1.601562 10.960938 4.398438zm0 0" fill="#ffc729"/><path d="m228.800781 14.398438 43.199219 57.601562h-112l43.199219-57.601562c3.039062-4 7.761719-6.398438 12.800781-6.398438s9.761719 2.398438 12.800781 6.398438zm0 0" fill="#ff826e"/><path d="m160 72h112l12 16c7.761719 10.398438 12 23.039062 12 36 0 29.039062-20.640625 53.28125-48.078125 58.800781-.5625-17.121093-14.640625-30.800781-31.921875-30.800781s-31.359375 13.679688-31.921875 30.800781c-11.757813-2.402343-22.316406-8.242187-30.476563-16.402343-10.882812-10.878907-17.601562-25.839844-17.601562-42.398438 0-12.960938 4.238281-25.601562 12-36zm0 0" fill="#e6e9ed"/><path d="m247.921875 182.800781c-3.84375.800781-7.84375 1.199219-11.921875 1.199219h-40c-4.078125 0-8.078125-.398438-11.921875-1.199219.5625-17.121093 14.640625-30.800781 31.921875-30.800781s31.359375 13.679688 31.921875 30.800781zm0 0" fill="#ff826e"/><path d="m88 448h128v16h-128zm0 0"/><path d="m312 448h32v16h-32zm0 0"/><path d="m312 416h32v16h-32zm0 0"/><path d="m192 104c0 4.417969-3.582031 8-8 8s-8-3.582031-8-8 3.582031-8 8-8 8 3.582031 8 8zm0 0"/><path d="m256 104c0 4.417969-3.582031 8-8 8s-8-3.582031-8-8 3.582031-8 8-8 8 3.582031 8 8zm0 0"/><path d="m408 272c13.230469 0 24-10.769531 24-24s-10.769531-24-24-24c-3.6875 0-7.152344.902344-10.28125 2.398438-25.679688-22.140626-58.109375-34.398438-92.207031-34.398438h-1.511719c0-8.824219-7.175781-16-16-16h-8.273438c14.816407-12.488281 24.273438-31.152344 24.273438-52 0-14.617188-4.832031-29.113281-13.601562-40.800781l-55.199219-73.597657c-4.503907-6.015624-11.6875-9.601562-19.199219-9.601562s-14.695312 3.585938-19.191406 9.601562l-55.199219 73.589844c-8.777344 11.695313-13.609375 26.191406-13.609375 40.808594 0 20.847656 9.457031 39.511719 24.273438 52h-8.273438c-8.824219 0-16 7.175781-16 16h-1.511719c-34.089843 0-66.527343 12.257812-92.207031 34.398438-3.128906-1.496094-6.59375-2.398438-10.28125-2.398438-13.230469 0-24 10.769531-24 24s10.769531 24 24 24 24-10.769531 24-24c0-3.679688-.902344-7.136719-2.390625-10.257812 22.628906-19.148438 51.03125-29.742188 80.878906-29.742188h1.511719c0 8.824219 7.175781 16 16 16h1.472656c-.898437 2.511719-1.472656 5.183594-1.472656 8 0 11.0625 7.558594 20.3125 17.761719 23.070312-1.113281 2.769532-1.761719 5.769532-1.761719 8.929688 0 11.0625 7.558594 20.3125 17.761719 23.070312-1.113281 2.769532-1.761719 5.769532-1.761719 8.929688 0 2.816406.574219 5.488281 1.472656 8h-117.753906l-42.664062 64h38.945312v128h320v-128h38.945312l-42.664062-64h-117.753906c.898437-2.511719 1.472656-5.183594 1.472656-8 0-3.160156-.648438-6.160156-1.761719-8.929688 10.203125-2.765624 17.761719-12.007812 17.761719-23.070312 0-3.160156-.648438-6.160156-1.761719-8.929688 10.203125-2.765624 17.761719-12.007812 17.761719-23.070312 0-2.816406-.574219-5.488281-1.472656-8h1.472656c8.824219 0 16-7.175781 16-16h1.511719c29.839843 0 58.25 10.585938 80.871093 29.742188-1.480468 3.121093-2.382812 6.578124-2.382812 10.257812 0 13.230469 10.769531 24 24 24zm-384-16c-4.414062 0-8-3.585938-8-8s3.585938-8 8-8 8 3.585938 8 8-3.585938 8-8 8zm169.511719-80.128906c3.351562-9.222656 12.121093-15.871094 22.488281-15.871094s19.136719 6.648438 22.488281 15.871094c-.832031.039062-1.648437.128906-2.488281.128906h-40c-.839844 0-1.65625-.089844-2.488281-.128906zm16.089843-156.679688c1.503907-2 3.894532-3.191406 6.398438-3.191406s4.894531 1.191406 6.398438 3.191406l33.601562 44.808594h-80zm-65.601562 104.808594c0-11.175781 3.695312-22.257812 10.398438-31.199219l9.601562-12.800781h104l9.601562 12.808594c6.703126 8.933594 10.398438 20.015625 10.398438 31.191406 0 22.28125-14.105469 41.273438-33.839844 48.664062-4.921875-16.511718-20.070312-28.664062-38.160156-28.664062s-33.238281 12.152344-38.160156 28.664062c-19.726563-7.390624-33.839844-26.390624-33.839844-48.664062zm-75.71875 196h156.773438l-21.335938 32h-156.773438zm3.71875 48h140.28125l19.71875-29.574219v141.574219h-160zm288 112h-112v-141.574219l19.71875 29.574219h92.28125zm3.71875-160 21.335938 32h-108.773438l-21.335938-32zm-139.71875-16h-24c-4.414062 0-8-3.585938-8-8s3.585938-8 8-8h32c4.414062 0 8 3.585938 8 8s-3.585938 8-8 8zm24-32h-64c-4.414062 0-8-3.585938-8-8s3.585938-8 8-8h64c4.414062 0 8 3.585938 8 8s-3.585938 8-8 8zm24-40c0 4.414062-3.585938 8-8 8h-96c-4.414062 0-8-3.585938-8-8s3.585938-8 8-8h96c4.414062 0 8 3.585938 8 8zm-8-24h-120v-16h144l.015625 16zm152 40c0 4.414062-3.585938 8-8 8s-8-3.585938-8-8 3.585938-8 8-8 8 3.585938 8 8zm0 0"/></svg>