<svg height="496pt" viewBox="0 0 496 495" width="496pt" xmlns="http://www.w3.org/2000/svg"><path d="m488 310.925781v144c0 17.679688-14.320312 32-32 32h-240v-128h-208v-48zm0 0" fill="#ffeaa7"/><path d="m488 278.925781v32h-480v-32zm0 0" fill="#fcd770"/><path d="m472 54.925781v224h-32v-216c0-4.402343-3.601562-8-8-8h-168v-6.320312c0-6.320313-1.839844-12.480469-5.359375-17.761719l-5.28125-7.917969h186.640625c17.679688 0 32 14.316407 32 32zm0 0" fill="#ffc729"/><path d="m242.640625 22.925781-5.28125 7.917969c-3.519531 5.28125-5.359375 11.441406-5.359375 17.761719v6.320312h-168c-4.398438 0-8 3.597657-8 8v216h-32v-224c0-17.683593 14.320312-32 32-32zm0 0" fill="#ffc729"/><g fill="#e6e9ed"><path d="m264 54.925781h168c4.398438 0 8 3.597657 8 8v216h-48v-112h-16v-30.320312c0-6.320313-1.839844-12.480469-5.359375-17.761719l-10.640625-15.917969-10.640625 15.917969c-3.519531 5.28125-5.359375 11.441406-5.359375 17.761719v30.320312h-16v112h-48v-200h-16zm0 0"/><path d="m216 78.925781v200h-48v-128h-16v-30.320312c0-6.320313-1.839844-12.480469-5.359375-17.761719l-10.640625-15.917969-10.640625 15.917969c-3.519531 5.28125-5.359375 11.441406-5.359375 17.761719v30.320312h-16v128h-48v-216c0-4.402343 3.601562-8 8-8h168v24zm0 0"/><path d="m40 486.925781c-17.679688 0-32-14.320312-32-32v-96h208v128zm0 0"/></g><path d="m328 198.925781h64v32h-64zm0 0" fill="#ccd1d9"/><path d="m216 110.925781h64v32h-64zm0 0" fill="#ccd1d9"/><path d="m104 182.925781h64v32h-64zm0 0" fill="#ccd1d9"/><path d="m328 230.925781h64v48h-64zm0 0" fill="#ff826e"/><path d="m392 166.925781v32h-64v-32zm0 0" fill="#ff826e"/><path d="m216 142.925781h64v136h-64zm0 0" fill="#b4dd7f"/><path d="m280 78.925781v32h-64v-32zm0 0" fill="#b4dd7f"/><path d="m104 214.925781h64v64h-64zm0 0" fill="#fcd770"/><path d="m168 150.925781v32h-64v-32zm0 0" fill="#fcd770"/><path d="m376 136.605469v30.320312h-32v-30.320312c0-6.320313 1.839844-12.480469 5.359375-17.761719l10.640625-15.917969 10.640625 15.917969c3.519531 5.28125 5.359375 11.441406 5.359375 17.761719zm0 0" fill="#ff826e"/><path d="m258.640625 30.84375-10.640625-15.917969-10.640625 15.917969c-3.519531 5.28125-5.359375 11.441406-5.359375 17.761719v30.320312h32v-30.320312c0-6.320313-1.839844-12.480469-5.359375-17.761719zm0 0" fill="#b4dd7f"/><path d="m152 120.605469v30.320312h-32v-30.320312c0-6.320313 1.839844-12.480469 5.359375-17.761719l10.640625-15.917969 10.640625 15.917969c3.519531 5.28125 5.359375 11.441406 5.359375 17.761719zm0 0" fill="#fcd770"/><path d="m456 387.242188c0 7.441406-2.960938 14.640624-8.320312 20l-47.679688 47.683593-47.679688-47.683593c-5.359374-5.359376-8.320312-12.558594-8.320312-20 0-7.839844 3.199219-14.878907 8.320312-20 5.121094-5.117188 12.160157-8.316407 20-8.316407 7.441407 0 14.640626 2.957031 20 8.316407l7.679688 7.683593 7.679688-7.683593c5.359374-5.359376 12.558593-8.316407 20-8.316407 7.839843 0 14.878906 3.199219 20 8.316407 5.121093 5.121093 8.320312 12.160156 8.320312 20zm0 0" fill="#ff826e"/><path d="m480 270.925781v-216c0-22.058593-17.945312-40-40-40h-152v16h152c13.230469 0 24 10.765625 24 24v216h-16v-208c0-8.824219-7.175781-16-16-16h-144v16h144v208h-32v-112h-16v-22.3125c0-7.921875-2.328125-15.59375-6.71875-22.183593l-17.28125-25.929688-17.28125 25.921875c-4.390625 6.597656-6.71875 14.269531-6.71875 22.191406v22.3125h-16v112h-32v-200h-16v-22.3125c0-7.921875-2.328125-15.59375-6.71875-22.183593l-17.28125-25.929688-17.28125 25.921875c-4.390625 6.597656-6.71875 14.269531-6.71875 22.191406v22.3125h-16v200h-32v-128h-16v-22.3125c0-7.921875-2.328125-15.59375-6.71875-22.183593l-17.28125-25.929688-17.28125 25.921875c-4.390625 6.597656-6.71875 14.269531-6.71875 22.191406v22.3125h-16v128h-32v-208h144v-16h-144c-8.824219 0-16 7.175781-16 16v208h-16v-216c0-13.234375 10.769531-24 24-24h152v-16h-152c-22.054688 0-40 17.941407-40 40v216h-16v184c0 22.054688 17.945312 40 40 40h416c22.054688 0 40-17.945312 40-40v-184zm-128-134.3125c0-4.753906 1.390625-9.351562 4.03125-13.3125l3.96875-5.953125 3.96875 5.953125c2.640625 3.960938 4.03125 8.558594 4.03125 13.3125v22.3125h-16zm32 38.3125v16h-48v-16zm-48 32h48v16h-32v16h32v32h-48zm-64-72h-48v-16h48zm-32-86.3125c0-4.753906 1.390625-9.351562 4.03125-13.3125l3.96875-5.953125 3.96875 5.953125c2.640625 3.960938 4.03125 8.558594 4.03125 13.3125v22.3125h-16zm32 38.3125v16h-48v-16zm-48 64h48v120h-48zm-96-30.3125c0-4.753906 1.390625-9.351562 4.03125-13.3125l3.96875-5.953125 3.96875 5.953125c2.640625 3.960938 4.03125 8.558594 4.03125 13.3125v22.3125h-16zm32 38.3125v16h-48v-16zm-48 64h32v-16h-32v-16h48v80h-48zm-96 232v-88h192v112h-168c-13.230469 0-24-10.769531-24-24zm464 0c0 13.230469-10.769531 24-24 24h-232v-128h-208v-64h464zm0 0"/><path d="m427.710938 350.925781c-9.6875 0-18.808594 3.773438-25.65625 10.628907l-2.054688 2.058593-2.054688-2.058593c-6.855468-6.855469-15.96875-10.628907-25.65625-10.628907-20.007812 0-36.289062 16.277344-36.289062 36.285157 0 9.6875 3.777344 18.808593 10.632812 25.65625l53.367188 53.367187 53.367188-53.367187c6.855468-6.855469 10.632812-15.96875 10.632812-25.65625 0-20.007813-16.28125-36.285157-36.289062-36.285157zm14.34375 50.628907-42.054688 42.058593-42.054688-42.058593c-3.832031-3.832032-5.945312-8.925782-5.945312-14.34375 0-11.183594 9.105469-20.285157 20.289062-20.285157 5.414063 0 10.511719 2.109375 14.34375 5.941407l13.367188 13.367187 13.367188-13.367187c3.832031-3.832032 8.929687-5.941407 14.34375-5.941407 11.183593 0 20.289062 9.101563 20.289062 20.285157 0 5.417968-2.113281 10.511718-5.945312 14.34375zm0 0"/><path d="m32 302.925781h16v16h-16zm0 0"/><path d="m64 302.925781h400v16h-400zm0 0"/><path d="m32 382.925781h16v16h-16zm0 0"/><path d="m64 382.925781h128v16h-128zm0 0"/><path d="m32 414.925781h160v16h-160zm0 0"/><path d="m32 446.925781h128v16h-128zm0 0"/><path d="m176 446.925781h16v16h-16zm0 0"/></svg>