<svg height="496pt" viewBox="-104 0 496 496" width="496pt" xmlns="http://www.w3.org/2000/svg"><path d="m280 440c0 8.800781-7.199219 16-16 16-30 0-30 32-60 32s-30-32-60-32-30 32-60 32-30-32-60-32c-8.800781 0-16-7.199219-16-16 0-70.640625 32.800781-137.199219 88.800781-180.320312l15.199219-11.679688h2.640625l5.359375 16 24 8 24-8 5.359375-16h2.640625l15.199219 11.679688c56 43.121093 88.800781 109.679687 88.800781 180.320312zm0 0" fill="#ef7385"/><path d="m204.238281 155.28125c5.28125 2 9.839844 5.519531 13.28125 9.839844 4.082031 5.277344 6.480469 11.839844 6.480469 18.878906l-32 8-18.640625 56-5.359375 16-24 8v-96h8l40-24 8.71875 2.160156c1.203125.320313 2.402344.640625 3.519531 1.121094zm0 0" fill="#e6e9ed"/><path d="m83.761719 155.28125c1.117187-.480469 2.316406-.800781 3.519531-1.121094l8.71875-2.160156 40 24h8v96l-24-8-5.359375-16-18.640625-56-32-8c0-12.800781 7.921875-24.160156 19.761719-28.71875zm0 0" fill="#e6e9ed"/><path d="m272 260.71875v3.761719c0 8.558593-6.960938 15.519531-15.519531 15.519531-5.28125 0-10.242188-2.71875-13.039063-7.199219l-51.441406-80.800781 32-8 45.359375 68.078125c1.761719 2.5625 2.640625 5.523437 2.640625 8.640625zm0 0" fill="#f0d0b4"/><path d="m232 128s-9.28125 18.398438-27.761719 27.28125c-1.117187-.480469-2.316406-.800781-3.519531-1.121094l-8.71875-2.160156-32-8v-12.398438c9.519531-5.601562 16-15.761718 16-27.601562v-32h-64v32c0 11.839844 6.480469 22 16 27.601562v12.398438l-32 8-8.71875 2.160156c-1.203125.320313-2.402344.640625-3.519531 1.121094-9.28125-4.480469-16.160157-11.203125-20.800781-16.960938-4.640626-5.679687-6.960938-10.320312-6.960938-10.320312 14.960938-10 24-26.800781 24-44.878906v-11.121094c0-17.679688 7.199219-33.679688 18.71875-45.28125 11.601562-11.519531 27.601562-18.71875 45.28125-18.71875 35.359375 0 64 28.640625 64 64v11.121094c0 9.039062 2.238281 17.757812 6.398438 25.4375 4.160156 7.761718 10.082031 14.480468 17.601562 19.441406zm0 0" fill="#fcd770"/><path d="m192 152-40 24h-16l-40-24 32-8v-12.398438c-9.519531-5.601562-16-15.761718-16-27.601562v-32h64v32c0 11.839844-6.480469 22-16 27.601562v12.398438zm0 0" fill="#f0d0b4"/><path d="m96 192-51.441406 80.800781c-2.796875 4.480469-7.757813 7.199219-13.039063 7.199219-8.558593 0-15.519531-6.960938-15.519531-15.519531v-3.761719c0-3.117188.878906-6.078125 2.640625-8.640625l45.359375-68.078125zm0 0" fill="#f0d0b4"/><path d="m196.105469 253.367188-12.832031-9.871094 11.007812-33.023438 42.40625 66.648438c4.34375 6.816406 11.753906 10.878906 19.816406 10.878906 12.960938 0 23.496094-10.535156 23.496094-23.496094v-3.816406c0-4.65625-1.367188-9.160156-3.945312-13.03125l-44.285157-66.433594c-.730469-10.183594-5.304687-19.429687-12.59375-26 12.992188-10.222656 19.632813-22.964844 19.976563-23.636718l3.175781-6.320313-5.886719-3.929687c-12.800781-8.519532-20.441406-22.800782-20.441406-38.175782v-11.160156c0-39.695312-32.296875-72-72-72s-72 32.304688-72 72v11.160156c0 15.375-7.640625 29.65625-20.441406 38.183594l-5.886719 3.929688 3.175781 6.320312c.335938.679688 6.984375 13.414062 19.976563 23.636719-7.289063 6.5625-11.863281 15.808593-12.59375 26l-44.285157 66.433593c-2.578124 3.863282-3.945312 8.375-3.945312 13.023438v3.816406c0 12.960938 10.535156 23.496094 23.496094 23.496094 8.078125 0 15.488281-4.0625 19.824218-10.878906l42.414063-66.640625 11.007813 33.023437-12.832032 9.871094c-57.558594 44.257812-91.910156 114.023438-91.910156 186.625 0 13.230469 10.769531 24 24 24 11.527344 0 17.113281 5.945312 24.167969 13.472656 7.726562 8.253906 17.359375 18.527344 35.824219 18.527344 18.464843 0 28.097656-10.273438 35.832031-18.527344 7.046875-7.527344 12.625-13.472656 24.144531-13.472656 11.535156 0 17.121094 5.945312 24.167969 13.472656 7.742187 8.253906 17.375 18.527344 35.847656 18.527344s28.105469-10.273438 35.839844-18.527344c7.054687-7.527344 12.640625-13.472656 24.175781-13.472656 13.230469 0 24-10.769531 24-24 0-72.601562-34.351562-142.367188-91.894531-186.632812zm-93.90625-68.0625-29.390625-7.34375c2.136718-7.769532 8.289062-13.984376 16.40625-16.015626l5.503906-1.378906 39.066406 23.433594h2.214844v76.894531l-9.671875-3.222656zm29.824219-60.65625c-7.527344-4.382813-12.023438-12.105469-12.023438-20.648438v-24h48v24c0 8.542969-4.496094 16.265625-12.023438 20.648438l-3.976562 2.3125v23.285156l19.320312 4.832031-21.535156 12.921875h-11.5625l-21.542968-12.921875 19.320312-4.832031v-23.285156zm19.976562 59.351562h2.214844l39.058594-23.433594 5.503906 1.378906c8.117187 2.03125 14.269531 8.246094 16.40625 16.015626l-29.390625 7.34375-24.128907 72.367187-9.664062 3.222656zm112 76.6875v3.816406c0 4.136719-3.359375 7.496094-7.496094 7.496094-2.574218 0-4.945312-1.304688-6.328125-3.472656l-45.472656-71.464844 15.761719-3.941406 42.269531 63.40625c.824219 1.242187 1.265625 2.679687 1.265625 4.160156zm-197.367188-130.742188c13.503907-11.679687 21.367188-28.664062 21.367188-46.785156v-11.160156c0-30.878906 25.128906-56 56-56s56 25.121094 56 56v11.160156c0 18.128906 7.863281 35.113282 21.367188 46.785156-3.480469 4.910157-9.65625 11.894532-18.101563 16.6875-.210937-.058593-.402344-.152343-.609375-.207031l-34.65625-8.671875v-1.921875c9.96875-7.511719 16-19.328125 16-31.832031v-40h-80v40c0 12.503906 6.03125 24.328125 16 31.832031v1.921875l-34.65625 8.660156c-.207031.058594-.398438.152344-.609375.210938-8.453125-4.792969-14.621094-11.777344-18.101563-16.679688zm-28.816406 138.582032c-1.382812 2.175781-3.746094 3.472656-6.320312 3.472656-4.136719 0-7.496094-3.359375-7.496094-7.496094v-3.816406c0-1.488281.441406-2.917969 1.257812-4.160156l42.269532-63.40625 15.761718 3.933594zm226.183594 179.472656c-18.472656 0-28.105469 10.273438-35.839844 18.527344-7.054687 7.527344-12.640625 13.472656-24.175781 13.472656s-17.121094-5.945312-24.167969-13.472656c-7.746094-8.253906-17.375-18.527344-35.847656-18.527344-18.464844 0-28.089844 10.273438-35.824219 18.527344-7.046875 7.527344-12.625 13.472656-24.152343 13.472656-11.527344 0-17.105469-5.945312-24.160157-13.472656-7.726562-8.253906-17.359375-18.527344-35.832031-18.527344-4.414062 0-8-3.59375-8-8 0-67.664062 32.015625-132.6875 85.648438-173.953125l8.441406-6.488281 3.582031 10.761718 30.328125 10.113282 30.328125-10.113282 3.582031-10.761718 8.441406 6.488281c53.632813 41.265625 85.648438 106.289063 85.648438 173.953125 0 4.40625-3.585938 8-8 8zm0 0"/></svg>