<svg height="496pt" viewBox="-96 0 496 496" width="496pt" xmlns="http://www.w3.org/2000/svg"><g fill="#f0d0b4"><path d="m296 301.441406c0 10.238282-8.320312 18.558594-18.558594 18.558594h-2.160156c-2.160156 0-4.320312-.398438-6.320312-1.121094l-42.402344-15.4375-13.117188-42.960937 69.839844 23.28125c7.597656 2.558593 12.71875 9.597656 12.71875 17.679687zm0 0"/><path d="m184 424-5.519531 64h-26.480469v-64zm0 0"/><path d="m152 424v64h-26.480469l-5.519531-64zm0 0"/><path d="m90.558594 260.480469-13.117188 42.960937-42.402344 15.4375c-2 .722656-4.160156 1.121094-6.320312 1.121094h-2.160156c-10.238282 0-18.558594-8.320312-18.558594-18.558594 0-8.082031 5.121094-15.121094 12.71875-17.679687zm0 0"/></g><path d="m120 240c0 17.679688 14.320312 32 32 32s32-14.320312 32-32c0-1.359375-.078125-2.640625-.238281-3.921875 7.277343-1.917969 14-4.398437 19.917969-7.4375l9.761718 31.839844 13.117188 42.960937 28.5625 93.597656c.558594 1.921876.878906 4 .878906 6.082032 0 11.519531-9.359375 20.878906-20.878906 20.878906h-166.242188c-5.757812 0-10.957031-2.320312-14.800781-6.078125-3.757813-3.84375-6.078125-9.042969-6.078125-14.800781 0-2.082032.320312-4.160156.878906-6.082032l28.5625-93.597656 13.117188-42.960937 9.761718-31.839844c5.917969 3.039063 12.640626 5.519531 19.917969 7.4375-.160156 1.28125-.238281 2.5625-.238281 3.921875zm0 0" fill="#b4dd7f"/><path d="m192 328v24c0 22.078125-17.921875 40-40 40s-40-17.921875-40-40v-24zm0 0" fill="#fcd770"/><path d="m247.601562 8s7.199219 94.558594-40.640624 103.28125c-4.480469-7.601562-10.480469-14.160156-17.679688-19.28125v-.078125c40.71875-42.242187 58.320312-83.921875 58.320312-83.921875zm0 0" fill="#ecc19c"/><path d="m56.398438 8s17.601562 41.679688 58.402343 84c-7.199219 5.039062-13.28125 11.679688-17.839843 19.359375-47.761719-8.480469-40.5625-103.359375-40.5625-103.359375zm0 0" fill="#ecc19c"/><path d="m247.601562 8s-17.601562 41.679688-58.320312 83.921875v.078125c-6.320312-4.558594-13.519531-8-21.28125-10 1.839844-18.558594 12.960938-74 79.601562-74zm0 0" fill="#dfb28b"/><path d="m56.398438 8c66.242187 0 77.121093 55.839844 78.882812 74.238281-7.441406 2-14.402344 5.28125-20.480469 9.761719-40.800781-42.320312-58.402343-84-58.402343-84zm0 0" fill="#dfb28b"/><path d="m183.761719 236.078125c.160156 1.28125.238281 2.5625.238281 3.921875 0 17.679688-14.320312 32-32 32s-32-14.320312-32-32c0-1.359375.078125-2.640625.238281-3.921875 9.761719 2.480469 20.480469 3.921875 31.761719 3.921875s22-1.441406 31.761719-3.921875zm0 0" fill="#f0d0b4"/><path d="m135.28125 82.238281c5.359375-1.4375 10.957031-2.238281 16.71875-2.238281 5.519531 0 10.878906.71875 16 2 7.761719 2 14.960938 5.441406 21.28125 10 7.199219 5.121094 13.199219 11.679688 17.679688 19.28125 5.757812 9.597656 9.039062 20.71875 9.039062 32.71875 0 5.039062-.640625 9.921875-1.839844 14.640625-.160156.878906-.398437 1.839844-.640625 2.71875 9.519531 6.878906 16 15.359375 17.839844 24.71875.402344 1.921875.640625 3.921875.640625 5.921875 0 11.679688-6.960938 22.398438-18.480469 30.71875v-.078125c-6.398437-22.800781-25.121093-40.480469-48.558593-45.28125 1.917968-2.640625 3.039062-5.839844 3.039062-9.359375 0-8.800781-7.199219-16-16-16s-16 7.199219-16 16c0 3.441406 1.039062 6.640625 2.960938 9.28125-23.441407 4.957031-42.082032 22.558594-48.480469 45.359375v.078125c-11.519531-8.320312-18.480469-19.039062-18.480469-30.71875 0-2 .238281-4 .640625-5.921875 1.839844-9.359375 8.320313-17.839844 17.839844-24.71875-.242188-.878906-.480469-1.839844-.640625-2.71875-1.199219-4.71875-1.839844-9.601563-1.839844-14.640625 0-11.921875 3.28125-23.121094 8.960938-32.640625 4.558593-7.679687 10.640624-14.320313 17.839843-19.359375 6.078125-4.480469 13.039063-7.761719 20.480469-9.761719zm0 0" fill="#f0d0b4"/><path d="m152 184c5.28125 0 10.078125-2.640625 12.960938-6.640625 23.4375 4.800781 42.160156 22.480469 48.558593 45.28125v.078125c-2.960937 2.082031-6.238281 4.082031-9.839843 5.921875-5.917969 3.039063-12.640626 5.519531-19.917969 7.4375-9.761719 2.480469-20.480469 3.921875-31.761719 3.921875s-22-1.441406-31.761719-3.921875c-7.277343-1.917969-14-4.398437-19.917969-7.4375-3.601562-1.839844-6.878906-3.839844-9.839843-5.921875v-.078125c6.398437-22.800781 25.039062-40.402344 48.480469-45.359375h.078124c2.882813 4.078125 7.601563 6.71875 12.960938 6.71875zm0 0" fill="#dfb28b"/><path d="m168 168c0 3.519531-1.121094 6.71875-3.039062 9.359375-2.882813 4-7.679688 6.640625-12.960938 6.640625-5.359375 0-10.078125-2.640625-12.960938-6.71875h-.078124c-1.921876-2.640625-2.960938-5.839844-2.960938-9.28125 0-8.800781 7.199219-16 16-16s16 7.199219 16 16zm0 0" fill="#ff826e"/><path d="m184 128c0 4.417969-3.582031 8-8 8s-8-3.582031-8-8 3.582031-8 8-8 8 3.582031 8 8zm0 0"/><path d="m136 128c0 4.417969-3.582031 8-8 8s-8-3.582031-8-8 3.582031-8 8-8 8 3.582031 8 8zm0 0"/><path d="m285.816406 276.167969-65.96875-21.984375-6.617187-21.671875c16.203125-9.902344 26.257812-23.800781 26.691406-39.472657 5.324219-.625 10.6875-1.039062 16.078125-1.039062v-16c-6.390625 0-12.742188.511719-19.054688 1.296875-2.066406-4.945313-5.167968-9.664063-9.234374-14.039063 9.28125-2.121093 18.785156-3.257812 28.289062-3.257812v-16c-10.816406 0-21.640625 1.273438-32.191406 3.695312.0625-1.230468.191406-2.472656.191406-3.695312 0-9.902344-2.015625-19.34375-5.648438-27.9375 43.488282-19.375 37.519532-104.789062 37.234376-108.671875l-.570313-7.390625h-7.40625c-64.847656 0-81.898437 48.078125-86.363281 72.664062-3.039063-.390624-6.109375-.664062-9.246094-.664062-3.398438 0-6.71875.320312-10 .777344-4.398438-24.671875-21.257812-72.777344-85.617188-72.777344h-7.414062l-.5625 7.390625c-.292969 3.914063-6.222656 89.679687 37.195312 108.792969-3.601562 8.558594-5.601562 17.960937-5.601562 27.816406 0 1.222656.128906 2.464844.191406 3.695312-10.550781-2.421874-21.375-3.695312-32.191406-3.695312v16c9.503906 0 19.007812 1.136719 28.289062 3.246094-4.066406 4.378906-7.167968 9.097656-9.234374 14.042968-6.3125-.777343-12.664063-1.289062-19.054688-1.289062v16c5.390625 0 10.753906.414062 16.078125 1.039062.433594 15.671876 10.488281 29.570313 26.691406 39.472657l-6.617187 21.671875-65.96875 21.984375c-10.871094 3.632812-18.183594 13.769531-18.183594 25.230469 0 14.664062 11.929688 26.601562 26.601562 26.601562h2.125c3.113282 0 6.175782-.535156 9.089844-1.601562l27.328125-9.933594-23.878906 78.214844c-.839844 2.726562-1.265625 5.566406-1.265625 8.441406 0 15.917968 12.960938 28.878906 28.878906 28.878906h43.785156l5.550782 64h67.5625l5.550781-64h43.785156c15.925781 0 28.886719-12.960938 28.886719-28.878906 0-2.875-.425781-5.714844-1.257812-8.433594l-23.878907-78.222656 27.320313 9.933594c2.921875 1.066406 5.984375 1.601562 9.097656 1.601562h2.125c14.664062 0 26.59375-11.9375 26.59375-26.601562 0-11.460938-7.3125-21.597657-18.183594-25.230469zm-133.816406-44.167969c-20.175781 0-38.6875-4.921875-51.902344-12.640625 6.390625-16.167969 19.796875-28.3125 36.535156-33.078125 1.953126 1.640625 4.109376 3.023438 6.511719 3.984375-2.097656 8.191406-8.136719 14.972656-16.441406 17.742187l-1.230469.40625 5.0625 15.179688 1.226563-.410156c8.335937-2.777344 15.300781-8.03125 20.238281-14.769532 4.9375 6.738282 11.902344 11.992188 20.238281 14.769532l1.234375.410156 5.0625-15.179688-1.238281-.414062c-8.296875-2.769531-14.34375-9.542969-16.441406-17.742188 2.410156-.960937 4.570312-2.347656 6.511719-3.984374 16.738281 4.765624 30.144531 16.917968 36.535156 33.078124-13.214844 7.726563-31.726563 12.648438-51.902344 12.648438zm23.128906 14.054688c-2.695312 10.289062-12 17.945312-23.128906 17.945312s-20.433594-7.65625-23.128906-17.945312c7.351562 1.234374 15.082031 1.945312 23.128906 1.945312s15.777344-.710938 23.128906-1.945312zm-31.128906-78.054688c0-4.40625 3.59375-8 8-8s8 3.59375 8 8-3.59375 8-8 8-8-3.59375-8-8zm72.824219 41c-1.609375-3.390625-3.488281-6.59375-5.578125-9.648438l.523437-.175781c3.910157-1.304687 7.878907-2.390625 11.878907-3.34375-.847657 4.65625-3.257813 9.078125-6.824219 13.167969zm-6.488281-107.039062c-2.808594-3.882813-5.984376-7.464844-9.488282-10.714844 16.863282-18.414063 29.417969-36.230469 38.160156-50.398438-2.113281 23.90625-8.832031 53.496094-28.671874 61.113282zm23.910156-84.960938c-7.574219 14.183594-22.621094 39.023438-46.359375 64.671875-3.519531-2.03125-7.222657-3.761719-11.085938-5.183594 3.335938-20.160156 15.328125-53.585937 57.445313-59.488281zm-107.789063 59.769531c-3.59375 1.367188-7.058593 3.007813-10.34375 4.910157-23.65625-25.566407-38.730469-50.433594-46.328125-64.648438 41.703125 5.984375 53.445313 39.554688 56.671875 59.738281zm-61.6875-36.289062c8.75 14.230469 21.375 32.207031 38.390625 50.777343-3.550781 3.285157-6.769531 6.917969-9.601562 10.855469-19.199219-7.335937-26.550782-36.296875-28.789063-61.632812zm29.222657 128.246093c3.742187 1.449219 7.464843 2.945313 11.054687 4.746094l3.378906 1.6875 7.148438-14.3125-3.375-1.6875c-5.015625-2.503906-10.175781-4.710937-15.457031-6.609375-.453126-2.871093-.742188-5.726562-.742188-8.550781 0-30.878906 25.121094-56 56-56s56 25.121094 56 56c0 2.824219-.289062 5.6875-.742188 8.542969-5.273437 1.898437-10.441406 4.105469-15.449218 6.609375l-3.375 1.6875 7.152344 14.3125 3.382812-1.6875c3.582031-1.792969 7.3125-3.296875 11.046875-4.746094 4.609375 3.519531 8.160156 7.386719 10.519531 11.425781-4.648437 1.085938-9.269531 2.328125-13.824218 3.847657l-1.230469.40625 4.28125 12.824218c-8.53125-11.574218-20.3125-20.453125-34.152344-25.238281.207031-1.296875.390625-2.617187.390625-3.984375 0-13.230469-10.769531-24-24-24s-24 10.769531-24 24c0 1.367188.183594 2.6875.398438 3.992188-13.839844 4.777343-25.613282 13.664062-34.152344 25.238281l4.273437-12.824219-1.214843-.40625c-4.550782-1.519531-9.175782-2.761719-13.824219-3.847656 2.359375-4.039063 5.902343-7.90625 10.511719-11.425782zm-1.753907 30.449219.515625.167969c-2.089844 3.054688-3.96875 6.265625-5.578125 9.648438-3.566406-4.089844-5.976562-8.511719-6.816406-13.167969 4 .960937 7.960937 2.046875 11.878906 3.351562zm-59.902343 112.183594c-1.160157.425781-2.375.640625-3.617188.640625h-2.125c-5.839844 0-10.59375-4.753906-10.59375-10.601562 0-4.566407 2.910156-8.605469 7.246094-10.046876l55.179687-18.390624-7.433593 24.34375zm96.382812 120.640625h15.28125v48h-11.113281zm42.394531 48h-11.113281v-48h15.28125zm76.886719-76.878906c0 7.101562-5.777344 12.878906-12.878906 12.878906h-166.242188c-7.101562 0-12.878906-5.777344-12.878906-12.878906 0-1.28125.183594-2.546875.558594-3.761719l48.761718-159.703125c2.230469.871094 4.527344 1.6875 6.894532 2.441406 1.105468 21.054688 18.449218 37.902344 39.785156 37.902344s38.679688-16.847656 39.792969-37.910156c2.367187-.746094 4.65625-1.5625 6.894531-2.441406l48.753906 159.710937c.375 1.214844.558594 2.472656.558594 3.761719zm29.398438-91.121094h-2.117188c-1.242188 0-2.457031-.214844-3.625-.640625l-38.640625-14.046875-7.429687-24.34375 55.175781 18.390625c4.328125 1.441406 7.238281 5.472656 7.238281 10.039063 0 5.847656-4.753906 10.601562-10.601562 10.601562zm0 0"/><path d="m104 352c0 26.472656 21.527344 48 48 48s48-21.527344 48-48v-32h-96zm16-16h64v16c0 17.648438-14.351562 32-32 32s-32-14.351562-32-32zm0 0"/></svg>