<svg height="496pt" viewBox="-56 0 496 496" width="496pt" xmlns="http://www.w3.org/2000/svg"><path d="m88 8c17.679688 0 32 14.320312 32 32v160h-64v-160c0-8.800781 3.601562-16.800781 9.359375-22.640625 5.839844-5.757813 13.839844-9.359375 22.640625-9.359375zm0 0" fill="#dfb28b"/><path d="m56 200v64h64v-64zm0 0" fill="#fcd770"/><path d="m104 313.601562c36.480469 7.4375 64 39.679688 64 78.398438 0 44.160156-35.839844 96-80 96s-80-51.839844-80-96c0-38.71875 27.519531-70.960938 64-78.398438v-49.601562h32zm0 0" fill="#e6e9ed"/><path d="m88 344c26.480469 0 48 21.519531 48 48 0 30.480469-25.121094 64-48 64s-48-33.519531-48-64c0-26.480469 21.519531-48 48-48zm0 0" fill="#ccd1d9"/><path d="m328 40v176h-64v-176c0-17.679688 14.320312-32 32-32s32 14.320312 32 32zm0 0" fill="#dfb28b"/><path d="m264 216v64h64v-64zm0 0" fill="#fcd770"/><path d="m376 400.71875v71.28125c0 4.398438-1.761719 8.398438-4.71875 11.28125-2.882812 2.957031-6.882812 4.71875-11.28125 4.71875-8.800781 0-16-7.199219-16-16v-48c0-4.398438-1.761719-8.398438-4.71875-11.28125-2.882812-2.957031-6.882812-4.71875-11.28125-4.71875-8.800781 0-16 7.199219-16 16v48c0 4.398438-1.761719 8.398438-4.71875 11.28125-2.882812 2.957031-6.882812 4.71875-11.28125 4.71875-8.800781 0-16-7.199219-16-16v-48c0-4.398438-1.761719-8.398438-4.71875-11.28125-2.882812-2.957031-6.882812-4.71875-11.28125-4.71875-8.800781 0-16 7.199219-16 16v48c0 4.398438-1.761719 8.398438-4.71875 11.28125-2.882812 2.957031-6.882812 4.71875-11.28125 4.71875-8.800781 0-16-7.199219-16-16v-71.28125c0-15.117188 8.558594-29.039062 22.078125-35.757812l41.921875-20.960938v-64h32v64l41.921875 20.960938c13.519531 6.71875 22.078125 20.640624 22.078125 35.757812zm0 0" fill="#e6e9ed"/><path d="m88 336c-30.878906 0-56 25.128906-56 56 0 34.992188 28.785156 72 56 72s56-37.007812 56-72c0-30.871094-25.121094-56-56-56zm0 112c-16.726562 0-40-28.214844-40-56 0-22.054688 17.945312-40 40-40s40 17.945312 40 40c0 27.785156-23.273438 56-40 56zm0 0"/><path d="m112 307.320312v-35.320312h16v-232c0-22.054688-17.945312-40-40-40s-40 17.945312-40 40v232h16v35.320312c-37.457031 10.601563-64 45.207032-64 84.679688 0 48.097656 38.441406 104 88 104s88-55.902344 88-104c0-39.472656-26.542969-74.078125-64-84.679688zm-48-51.320312v-16h48v16zm0-32v-16h48v16zm24-208c13.230469 0 24 10.769531 24 24v152h-48v-152c0-13.230469 10.769531-24 24-24zm0 464c-39.878906 0-72-48.144531-72-88 0-34.105469 24.222656-63.777344 57.59375-70.542969l6.40625-1.304687v-48.152344h16v48.152344l6.40625 1.304687c33.371094 6.765625 57.59375 36.4375 57.59375 70.542969 0 39.855469-32.121094 88-72 88zm0 0"/><path d="m357.472656 357.792969-37.472656-18.738281v-51.054688h16v-248c0-22.054688-17.945312-40-40-40s-40 17.945312-40 40v248h16v51.054688l-37.472656 18.738281c-16.359375 8.175781-26.527344 24.632812-26.527344 42.925781v71.28125c0 13.230469 10.769531 24 24 24s24-10.769531 24-24v-48c0-4.414062 3.59375-8 8-8s8 3.585938 8 8v48c0 13.230469 10.769531 24 24 24s24-10.769531 24-24v-48c0-4.414062 3.59375-8 8-8s8 3.585938 8 8v48c0 13.230469 10.769531 24 24 24s24-10.769531 24-24v-71.28125c0-18.292969-10.167969-34.75-26.527344-42.925781zm-85.472656-85.792969v-16h48v16zm0-32v-16h48v16zm24-224c13.230469 0 24 10.769531 24 24v168h-48v-168c0-13.230469 10.769531-24 24-24zm72 456c0 4.414062-3.59375 8-8 8s-8-3.585938-8-8v-48c0-13.230469-10.769531-24-24-24s-24 10.769531-24 24v48c0 4.414062-3.59375 8-8 8s-8-3.585938-8-8v-48c0-13.230469-10.769531-24-24-24s-24 10.769531-24 24v48c0 4.414062-3.59375 8-8 8s-8-3.585938-8-8v-71.28125c0-12.191406 6.777344-23.167969 17.6875-28.613281l46.3125-23.160157v-60.945312h16v60.945312l46.3125 23.160157c10.910156 5.445312 17.6875 16.414062 17.6875 28.613281zm0 0"/><path d="m96 40c0 4.417969-3.582031 8-8 8s-8-3.582031-8-8 3.582031-8 8-8 8 3.582031 8 8zm0 0"/></svg>