<svg height="496pt" viewBox="-104 0 496 496" width="496pt" xmlns="http://www.w3.org/2000/svg"><path d="m280 230.640625v2.71875c0 14.480469-5.761719 28.402344-16 38.640625v184c0 17.679688-14.320312 32-32 32h-176c-17.679688 0-32-14.320312-32-32v-184c-10.238281-10.238281-16-24.160156-16-38.640625v-2.71875c0-14.480469 5.761719-28.402344 16-38.640625v-152c0-17.679688 14.320312-32 32-32h176c17.679688 0 32 14.320312 32 32v152c10.238281 10.238281 16 24.160156 16 38.640625zm0 0" fill="#e6e9ed"/><path d="m184 328h48v48h-48zm0 0" fill="#b4dd7f"/><path d="m184 280h48v48h-48zm0 0" fill="#b4dd7f"/><path d="m160 408h32v48h-32zm0 0" fill="#ff826e"/><path d="m96 408h32v48h-32zm0 0" fill="#ff826e"/><g fill="#fcd770"><path d="m200 216h32v32h-32zm0 0"/><path d="m136 216h32v32h-32zm0 0"/><path d="m56 216h48v32h-48zm0 0"/><path d="m152 312v32h-32v32h-32v-32h-32v-32h32v-32h32v32zm0 0"/></g><path d="m56 40h176v128h-176zm0 0" fill="#69d6f4"/><path d="m272 188.816406v-148.816406c0-22.054688-17.945312-40-40-40h-176c-22.054688 0-40 17.945312-40 40v148.816406c-10.34375 11.503906-16 26.214844-16 41.816406v2.75c0 15.59375 5.65625 30.3125 16 41.816407v180.800781c0 22.054688 17.945312 40 40 40h176c22.054688 0 40-17.945312 40-40v-180.816406c10.34375-11.503906 16-26.214844 16-41.816406v-2.75c0-15.585938-5.65625-30.304688-16-41.800782zm0 44.558594c0 12.457031-4.847656 24.167969-13.65625 32.96875l-2.34375 2.34375v187.3125c0 13.230469-10.769531 24-24 24h-176c-13.230469 0-24-10.769531-24-24v-187.3125l-2.34375-2.34375c-8.808594-8.808594-13.65625-20.511719-13.65625-32.96875v-2.75c0-12.457031 4.847656-24.167969 13.65625-32.96875l2.34375-2.34375v-155.3125c0-13.230469 10.769531-24 24-24h176c13.230469 0 24 10.769531 24 24v155.3125l2.34375 2.34375c8.808594 8.808594 13.65625 20.511719 13.65625 32.96875zm0 0"/><path d="m48 176h192v-144h-192zm16-128h160v112h-160zm0 0"/><path d="m112 208h-64v48h64zm-16 32h-32v-16h32zm0 0"/><path d="m152 464h48v-64h-48zm16-48h16v32h-16zm0 0"/><path d="m88 464h48v-64h-48zm16-48h16v32h-16zm0 0"/><path d="m176 208h-48v48h48zm-16 32h-16v-16h16zm0 0"/><path d="m192 256h48v-48h-48zm16-32h16v16h-16zm0 0"/><path d="m128 384v-32h32v-48h-32v-32h-48v32h-32v48h32v32zm-64-48v-16h32v-32h16v32h32v16h-32v32h-16v-32zm0 0"/><path d="m176 384h64v-112h-64zm16-16v-32h32v32zm32-80v32h-32v-32zm0 0"/></svg>