<svg height="496pt" viewBox="0 -48 496 496" width="496pt" xmlns="http://www.w3.org/2000/svg"><path d="m362 360h124.320312c-4.960937 18.480469-21.921874 32-42 32h-40.242187c-19.757813 0-36.878906-13.199219-42.078125-32zm0 0" fill="#b4dd7f"/><path d="m488 72v66.71875c0 8.480469-3.359375 16.640625-9.359375 22.640625l-22.640625 22.640625 31.121094 155.761719c.558594 2.796875.878906 5.679687.878906 8.558593 0 4.078126-.558594 8-1.679688 11.679688h-124.320312c-.320312-1.121094-.558594-2.238281-.800781-3.441406l-14.71875-76.558594-9.28125-48-6.71875-35.039062c-1.441407-7.519532-8-12.960938-15.679688-12.960938h-178.800781v-144h320c17.679688 0 32 14.320312 32 32zm0 0" fill="#e6e9ed"/><path d="m88 40v144l-48-24v-96zm0 0" fill="#e6e9ed"/><path d="m88 40h48v144h-48zm0 0" fill="#fcd770"/><path d="m456 24v16h-96l11.601562-23.121094c2.71875-5.4375 8.238282-8.878906 14.320313-8.878906h54.078125c8.800781 0 16 7.199219 16 16zm0 0" fill="#b4dd7f"/><path d="m424 184 32 144h-64l-32-144zm0 0" fill="#fcd770"/><path d="m440 104v16c0 17.679688-14.320312 32-32 32h-96v-80h96c17.679688 0 32 14.320312 32 32zm0 0" fill="#69d6f4"/><path d="m248 72v80h-40c-22.078125 0-40-17.921875-40-40 0-11.039062 4.480469-21.039062 11.679688-28.320312 7.28125-7.199219 17.28125-11.679688 28.320312-11.679688zm0 0" fill="#69d6f4"/><path d="m280 72h32v80h-32zm0 0" fill="#ff826e"/><path d="m248 72h32v80h-32zm0 0" fill="#ff826e"/><path d="m8 80h32v64h-32zm0 0" fill="#b4dd7f"/><path d="m496 138.742188v-66.742188c0-19.3125-13.769531-35.472656-32-39.191406v-8.808594c0-13.230469-10.769531-24-24-24h-54.113281c-9.152344 0-17.375 5.089844-21.472657 13.265625l-9.359374 18.734375h-268.941407l-54.113281 27.054688v12.945312h-32v80h32v12.945312l54.113281 27.054688h153.886719v56c0 22.054688 17.945312 40 40 40h59.855469l13.480469 70.078125c4.664062 24.289063 26 41.921875 50.742187 41.921875h40.25c28.488281 0 51.671875-23.175781 51.671875-51.671875 0-3.390625-.335938-6.808594-1-10.144531l-30.3125-151.550782 19.601562-19.601562c7.550782-7.550781 11.710938-17.597656 11.710938-28.289062zm-117.265625-118.316407c1.363281-2.730469 4.105469-4.425781 7.152344-4.425781h54.113281c4.40625 0 8 3.585938 8 8v8h-75.054688zm-282.734375 27.574219h32v128h-32zm-80 88v-48h16v48zm32-67.054688 32-16v118.109376l-32-16zm232 203.054688c-13.230469 0-24-10.769531-24-24v-56h58.785156c3.832032 0 7.136719 2.726562 7.855469 6.488281l4.902344 25.511719h-39.542969v-16h-16v48h16v-16h42.625l6.152344 32zm164.328125 112h-40.25c-12.222656 0-23.167969-6.304688-29.628906-16h99.589843c-6.390624 9.625-17.3125 16-29.710937 16zm35.671875-245.257812c0 6.417968-2.496094 12.449218-7.023438 16.976562l-25.65625 25.648438 31.992188 159.953124c.457031 2.304688.6875 4.664063.6875 7.007813 0 1.257813-.238281 2.449219-.367188 3.671875h-111.175781l-30.105469-156.527344c-2.175781-11.289062-12.078124-19.472656-23.566406-19.472656h-170.785156v-128h312c13.230469 0 24 10.769531 24 24zm0 0"/><path d="m408 64h-200c-26.472656 0-48 21.527344-48 48s21.527344 48 48 48h200c22.054688 0 40-17.945312 40-40v-16c0-22.054688-17.945312-40-40-40zm-120 16h16v64h-16zm-16 64h-16v-64h16zm-96-32c0-17.648438 14.351562-32 32-32h32v64h-32c-17.648438 0-32-14.351562-32-32zm256 8c0 13.230469-10.769531 24-24 24h-88v-64h88c13.230469 0 24 10.769531 24 24zm0 0"/><path d="m350.023438 176 35.550781 160h80.394531l-35.554688-160zm48.390624 144-28.445312-128h47.605469l28.449219 128zm0 0"/></svg>