<svg height="496pt" viewBox="0 0 496 496" width="496pt" xmlns="http://www.w3.org/2000/svg"><path d="m440 270.960938v185.039062h-224v-128c0-17.679688-14.320312-32-32-32h-48c-17.679688 0-32 14.320312-32 32v128h-48v-185.039062l192-109.121094 15.921875 9.039062zm0 0" fill="#e6e9ed"/><path d="m120 172.238281-48 25.683594v-189.921875h352v189.921875l-48-25.683594v-116.238281h-96.078125c2-7.28125 3.277344-13.761719.078125-15.601562-7.039062-4.078126-23.28125 23.523437-32 23.523437s-24.960938-27.601563-32-23.523437c-3.199219 1.839843-1.921875 8.320312.078125 15.601562h-96.078125zm0 0" fill="#ffeaa7"/><path d="m275.761719 112c4.078125-7.039062 36.238281-7.199219 36.238281-16s-32.160156-8.960938-36.238281-16c-2.402344-4.160156 1.519531-14.71875 4.160156-24h96.078125v116.238281l-100.640625-53.679687h-.078125c-.402344-2.796875-.402344-5.117188.480469-6.558594zm0 0" fill="#e6e9ed"/><path d="m220.238281 112c.882813 1.441406.882813 3.761719.480469 6.558594l-100.71875 53.679687v-116.238281h96.078125c2.640625 9.28125 6.5625 19.839844 4.160156 24-4.078125 7.039062-36.238281 7.199219-36.238281 16s32.160156 8.960938 36.238281 16zm0 0" fill="#e6e9ed"/><path d="m474.558594 224.878906-50.558594-26.957031-48-25.683594-100.640625-53.679687c1.519531 11.042968 10.480469 29.679687 4.640625 33.042968-1.28125.71875-2.960938.398438-4.71875-.640624-8.082031-4.5625-20.242188-22.882813-27.28125-22.882813-8.71875 0-24.960938 27.601563-32 23.523437-5.839844-3.363281 3.121094-22 4.71875-33.042968l-100.71875 53.679687-48 25.683594-50.558594 26.957031c-8.320312 4.402344-13.441406 12.960938-13.441406 22.320313v7.519531c0 6.960938 2.878906 13.28125 7.441406 17.839844 4.558594 4.5625 10.878906 7.441406 17.839844 7.441406 4.398438 0 8.71875-1.121094 12.558594-3.28125l10.160156-5.757812 192-109.121094 15.921875 9.039062 176.078125 100.082032 10.160156 5.757812c3.839844 2.160156 8.160156 3.28125 12.558594 3.28125 13.921875 0 25.28125-11.359375 25.28125-25.28125v-7.519531c0-9.359375-5.121094-17.917969-13.441406-22.320313zm0 0" fill="#ff826e"/><path d="m488 488h-480c0-8.800781 3.601562-16.800781 9.359375-22.640625 5.839844-5.757813 13.839844-9.359375 22.640625-9.359375h416c17.679688 0 32 14.320312 32 32zm0 0" fill="#fcd770"/><g fill="#69d6f4"><path d="m328 280h64v48h-64zm0 0"/><path d="m264 280h64v48h-64zm0 0"/><path d="m328 328h64v48h-64zm0 0"/><path d="m264 328h64v48h-64zm0 0"/></g><path d="m104 392v-64c0-17.679688 14.320312-32 32-32h48c17.679688 0 32 14.320312 32 32v128h-112zm0 0" fill="#cf9e76"/><path d="m136 328h48v32h-48zm0 0" fill="#69d6f4"/><path d="m216.078125 56c-2-7.28125-3.277344-13.761719-.078125-15.601562 7.039062-4.078126 23.28125 23.523437 32 23.523437s24.960938-27.601563 32-23.523437c3.199219 1.839843 1.921875 8.320312-.078125 15.601562-2.640625 9.28125-6.5625 19.839844-4.160156 24 4.078125 7.039062 36.238281 7.199219 36.238281 16s-32.160156 8.960938-36.238281 16c-.882813 1.441406-.882813 3.761719-.480469 6.558594h.078125c1.519531 11.042968 10.480469 29.679687 4.640625 33.042968-1.28125.71875-2.960938.398438-4.71875-.640624-8.082031-4.5625-20.242188-22.882813-27.28125-22.882813-8.71875 0-24.960938 27.601563-32 23.523437-5.839844-3.363281 3.121094-22 4.71875-33.042968.402344-2.796875.402344-5.117188-.480469-6.558594-4.078125-7.039062-36.238281-7.199219-36.238281-16s32.160156-8.960938 36.238281-16c2.402344-4.160156-1.519531-14.71875-4.160156-24zm0 0" fill="#ffc729"/><path d="m462.6875 288c18.367188 0 33.3125-14.945312 33.3125-33.3125v-7.503906c0-12.335938-6.761719-23.589844-17.632812-29.398438l-46.367188-24.722656v-193.0625h-368v193.0625l-46.367188 24.730469c-10.871093 5.800781-17.632812 17.054687-17.632812 29.390625v7.503906c0 18.367188 14.945312 33.3125 33.3125 33.3125 5.101562 0 10.128906-1.246094 14.6875-3.496094v163.496094h-8c-22.054688 0-40 17.945312-40 40v8h496v-8c0-22.054688-17.945312-40-40-40h-8v-163.496094c4.558594 2.25 9.585938 3.496094 14.6875 3.496094zm-382.6875-272h336v168.527344l-32-17.0625v-119.464844h-94.28125c.664062-6.144531-.398438-11.441406-5.6875-14.503906-9.222656-5.320313-17.855469 3.832031-26.222656 12.710937-2.824219 3-7.34375 7.800781-9.808594 9.378907-2.464844-1.578126-6.984375-6.378907-9.808594-9.386719-8.375-8.871094-17.046875-18.039063-26.222656-12.710938-5.28125 3.070313-6.34375 8.367188-5.679688 14.511719h-94.289062v119.464844l-32 17.0625zm130.105469 48c1.109375 3.710938 2.636719 8.945312 2.878906 11.6875-2.601563 1.167969-8.289063 2.488281-11.894531 3.328125-12.335938 2.878906-25.089844 5.855469-25.089844 16.984375 0 11.121094 12.753906 14.105469 25.078125 16.976562 2.53125.589844 6.050781 1.421876 8.84375 2.261719l-81.921875 43.691407v-94.929688zm15.078125 69.425781c3.054687-10.195312 5.695312-19 2.015625-25.386719-3.589844-6.222656-12.34375-8.269531-22.488281-10.640624-1.65625-.390626-3.726563-.871094-5.765626-1.398438 2.039063-.527344 4.109376-1.015625 5.773438-1.398438 10.136719-2.371093 18.882812-4.417968 22.480469-10.648437 3.679687-6.378906 1.039062-15.175781-2.015625-25.386719-.359375-1.191406-.785156-2.613281-1.199219-4.09375.925781.96875 1.808594 1.894532 2.558594 2.703125 7.441406 7.894531 13.863281 14.726563 21.457031 14.726563s14.015625-6.832032 21.457031-14.726563c.757813-.808593 1.640625-1.742187 2.566407-2.703125-.421876 1.480469-.847657 2.894532-1.207032 4.101563-3.054687 10.195312-5.695312 19-2.015625 25.386719 3.589844 6.222656 12.34375 8.269531 22.488281 10.640624 1.65625.390626 3.726563.871094 5.765626 1.398438-2.039063.527344-4.109376 1.015625-5.773438 1.398438-10.136719 2.371093-18.882812 4.417968-22.480469 10.648437-3.679687 6.378906-1.039062 15.175781 2.015625 25.386719.359375 1.191406.785156 2.613281 1.199219 4.09375-.925781-.96875-1.808594-1.894532-2.558594-2.703125-7.441406-7.894531-13.863281-14.726563-21.457031-14.726563s-14.015625 6.832032-21.457031 14.726563c-.757813.808593-1.640625 1.742187-2.566407 2.703125.421876-1.480469.855469-2.902344 1.207032-4.101563zm60.90625-18.1875c2.789062-.839843 6.292968-1.664062 8.820312-2.253906 12.335938-2.878906 25.089844-5.855469 25.089844-16.984375 0-11.121094-12.753906-14.105469-25.078125-16.976562-3.609375-.839844-9.296875-2.167969-11.90625-3.335938.230469-2.742188 1.769531-7.976562 2.878906-11.6875h82.105469v94.929688zm-252.777344 156.761719c-9.542969 0-17.3125-7.769531-17.3125-17.3125v-7.503906c0-6.40625 3.503906-12.261719 9.167969-15.273438l183.128906-97.652344c-2.800781 10.070313-4.265625 19.636719 3.679687 24.253907 1.894532 1.097656 3.765626 1.578125 5.617188 1.578125 7.140625 0 13.957031-7.242188 20.605469-14.289063 2.824219-3.007812 7.34375-7.808593 9.808593-9.386719 2.464844 1.578126 6.984376 6.378907 9.808594 9.386719 8.367188 8.863281 17.03125 18.007813 26.222656 12.710938 7.945313-4.617188 6.472657-14.191407 3.671876-24.265625l183.128906 97.675781c5.65625 3 9.160156 8.863281 9.160156 15.261719v7.503906c0 9.542969-7.769531 17.3125-17.3125 17.3125-2.992188 0-5.945312-.785156-8.542969-2.257812l-206.144531-117.09375-206.144531 117.09375c-2.597657 1.472656-5.550781 2.257812-8.542969 2.257812zm445.320312 208h-461.265624c3.304687-9.3125 12.199218-16 22.632812-16h416c10.433594 0 19.328125 6.6875 22.632812 16zm-366.632812-80h16v-16h-16v-56c0-13.230469 10.769531-24 24-24h48c13.230469 0 24 10.769531 24 24v120h-96zm112 48v-120c0-22.054688-17.945312-40-40-40h-48c-22.054688 0-40 17.945312-40 40v120h-32v-172.441406l184-104.511719 184 104.511719v172.441406zm0 0"/><path d="m256 272v112h144v-112zm128 48h-48v-32h48zm-64-32v32h-48v-32zm-48 48h48v32h-48zm64 32v-32h48v32zm0 0"/><path d="m128 368h64v-48h-64zm16-32h32v16h-32zm0 0"/></svg>