<svg height="496pt" viewBox="0 0 496 496" width="496pt" xmlns="http://www.w3.org/2000/svg"><path d="m488 248v240h-240v-88h-16c-8.800781 0-16.800781-3.601562-22.640625-9.359375-5.757813-5.839844-9.359375-13.839844-9.359375-22.640625 0-17.679688 14.320312-32 32-32h16v-88h88v16c0 17.679688 14.320312 32 32 32 8.800781 0 16.800781-3.601562 22.640625-9.359375 5.757813-5.839844 9.359375-13.839844 9.359375-22.640625v-16zm0 0" fill="#b4dd7f"/><path d="m248 400v88h-192c-26.480469 0-48-21.519531-48-48v-192h88v16c0 17.679688 14.320312 32 32 32 8.800781 0 16.800781-3.601562 22.640625-9.359375 5.757813-5.839844 9.359375-13.839844 9.359375-22.640625v-16h88v88h-16c-17.679688 0-32 14.320312-32 32 0 8.800781 3.601562 16.800781 9.359375 22.640625 5.839844 5.757813 13.839844 9.359375 22.640625 9.359375zm0 0" fill="#ff826e"/><path d="m286.640625 105.359375c5.757813 5.839844 9.359375 13.839844 9.359375 22.640625 0 17.679688-14.320312 32-32 32h-16v88h-88v16c0 8.800781-3.601562 16.800781-9.359375 22.640625-5.839844 5.757813-13.839844 9.359375-22.640625 9.359375-17.679688 0-32-14.320312-32-32v-16h-88v-192c0-26.480469 21.519531-48 48-48h192v88h16c8.800781 0 16.800781 3.601562 22.640625 9.359375zm0 0" fill="#b4dd7f"/><path d="m488 56v192h-88v16c0 8.800781-3.601562 16.800781-9.359375 22.640625-5.839844 5.757813-13.839844 9.359375-22.640625 9.359375-17.679688 0-32-14.320312-32-32v-16h-88v-88h16c17.679688 0 32-14.320312 32-32 0-8.800781-3.601562-16.800781-9.359375-22.640625-5.839844-5.757813-13.839844-9.359375-22.640625-9.359375h-16v-88h192c26.480469 0 48 21.519531 48 48zm0 0" fill="#fcd770"/><path d="m168 368c0 22.089844-17.910156 40-40 40s-40-17.910156-40-40 17.910156-40 40-40 40 17.910156 40 40zm0 0" fill="#fcd770"/><path d="m368 56 48 72-48 72-48-72zm0 0" fill="#ff826e"/><path d="m162.640625 108c4.800781 8.238281 37.359375 9.761719 37.359375 20s-32.558594 11.761719-37.359375 20c-4.878906 8.480469 9.839844 37.441406 1.359375 42.320312-8.238281 4.800782-25.761719-22.320312-36-22.320312s-27.761719 27.121094-36 22.320312c-8.480469-4.878906 6.238281-33.839843 1.359375-42.320312-4.800781-8.238281-37.359375-9.761719-37.359375-20s32.558594-11.761719 37.359375-20c4.878906-8.480469-9.839844-37.441406-1.359375-42.320312 8.238281-4.800782 25.761719 22.320312 36 22.320312s27.761719-27.121094 36-22.320312c8.480469 4.878906-6.238281 33.839843-1.359375 42.320312zm0 0" fill="#fcd770"/><path d="m424 356.320312c0 7.441407-2.960938 14.640626-8.320312 20l-47.679688 47.679688-47.679688-47.679688c-5.359374-5.359374-8.320312-12.558593-8.320312-20 0-7.839843 3.199219-14.878906 8.320312-20 5.121094-5.121093 12.160157-8.320312 20-8.320312 7.441407 0 14.640626 2.960938 20 8.320312l7.679688 7.679688 7.679688-7.679688c5.359374-5.359374 12.558593-8.320312 20-8.320312 7.839843 0 14.878906 3.199219 20 8.320312 5.121093 5.121094 8.320312 12.160157 8.320312 20zm0 0" fill="#ff826e"/><path d="m440 0h-384c-30.878906 0-56 25.121094-56 56v384c0 30.878906 25.121094 56 56 56h440v-440c0-30.878906-25.121094-56-56-56zm0 16c22.054688 0 40 17.945312 40 40v184h-88v24c0 13.230469-10.769531 24-24 24s-24-10.769531-24-24v-24h-88v-72h8c22.054688 0 40-17.945312 40-40s-17.945312-40-40-40h-8v-72zm-424 40c0-22.054688 17.945312-40 40-40h184v88h24c13.230469 0 24 10.769531 24 24s-10.769531 24-24 24h-24v88h-88v24c0 13.230469-10.769531 24-24 24s-24-10.769531-24-24v-24h-88zm40 424c-22.054688 0-40-17.945312-40-40v-184h72v8c0 22.054688 17.945312 40 40 40s40-17.945312 40-40v-8h72v72h-8c-22.054688 0-40 17.945312-40 40s17.945312 40 40 40h8v72zm424 0h-224v-88h-24c-13.230469 0-24-10.769531-24-24s10.769531-24 24-24h24v-88h72v8c0 22.054688 17.945312 40 40 40s40-17.945312 40-40v-8h72zm0 0"/><path d="m370.054688 330.632812-2.054688 2.054688-2.054688-2.054688c-6.855468-6.855468-15.96875-10.632812-25.65625-10.632812-20.007812 0-36.289062 16.28125-36.289062 36.289062 0 9.6875 3.777344 18.808594 10.632812 25.65625l53.367188 53.367188 53.367188-53.367188c6.855468-6.855468 10.632812-15.96875 10.632812-25.65625 0-20.007812-16.28125-36.289062-36.289062-36.289062-9.6875 0-18.800782 3.777344-25.65625 10.632812zm45.945312 25.65625c0 5.414063-2.113281 10.511719-5.945312 14.34375l-42.054688 42.054688-42.054688-42.054688c-3.832031-3.832031-5.945312-8.929687-5.945312-14.34375 0-11.183593 9.105469-20.289062 20.289062-20.289062 5.414063 0 10.511719 2.113281 14.34375 5.945312l13.367188 13.367188 13.367188-13.367188c3.832031-3.832031 8.929687-5.945312 14.34375-5.945312 11.183593 0 20.289062 9.105469 20.289062 20.289062zm0 0"/><path d="m128 320c-26.472656 0-48 21.527344-48 48s21.527344 48 48 48 48-21.527344 48-48-21.527344-48-48-48zm0 80c-17.648438 0-32-14.351562-32-32s14.351562-32 32-32 32 14.351562 32 32-14.351562 32-32 32zm0 0"/><path d="m425.617188 128-57.617188-86.425781-57.617188 86.425781 57.617188 86.425781zm-57.617188-57.574219 38.382812 57.574219-38.382812 57.574219-38.382812-57.574219zm0 0"/><path d="m127.742188 175.984375c2.378906.488281 8.53125 6.183594 12.203124 9.589844 9.125 8.464843 18.558594 17.21875 28.078126 11.707031 9.710937-5.625 6.777343-18.425781 3.9375-30.808594-1.015626-4.441406-2.679688-11.695312-2.3125-14.375 2.113281-1.554687 8.945312-3.625 13.121093-4.890625 11.824219-3.589843 25.230469-7.65625 25.230469-19.207031s-13.40625-15.617188-25.230469-19.199219c-4.175781-1.265625-11-3.335937-13.121093-4.890625-.367188-2.679687 1.296874-9.933594 2.3125-14.367187 2.839843-12.382813 5.78125-25.191407-3.9375-30.816407-9.496094-5.503906-18.945313 3.25-28.078126 11.714844-3.671874 3.40625-9.824218 9.101563-11.6875 9.589844-2.378906-.488281-8.53125-6.183594-12.203124-9.589844-9.125-8.457031-18.550782-17.21875-28.078126-11.707031-9.710937 5.625-6.777343 18.425781-3.9375 30.808594 1.015626 4.441406 2.679688 11.695312 2.3125 14.378906-2.113281 1.550781-8.945312 3.621094-13.121093 4.886719-11.824219 3.574218-25.230469 7.640625-25.230469 19.191406s13.40625 15.617188 25.230469 19.199219c4.175781 1.265625 11 3.335937 13.121093 4.890625.367188 2.679687-1.296874 9.933594-2.3125 14.367187-2.839843 12.382813-5.78125 25.191407 3.9375 30.824219 2.0625 1.191406 4.121094 1.710938 6.175782 1.710938 7.40625 0 14.75-6.800782 21.894531-13.425782 3.679687-3.398437 9.832031-9.101562 11.695313-9.582031zm-30.238282 4.609375c.464844-3.304688 1.441406-7.5625 2.128906-10.554688 2.296876-10 4.464844-19.4375.640626-26.054687-3.722657-6.433594-12.378907-9.054687-22.394532-12.097656-3.320312-1-8.183594-2.480469-11.398437-3.886719 3.214843-1.40625 8.078125-2.886719 11.390625-3.886719 10.015625-3.035156 18.671875-5.664062 22.394531-12.097656 3.832031-6.625 1.664063-16.0625-.632813-26.0625-.6875-2.984375-1.664062-7.242187-2.121093-10.546875 2.511719 1.984375 5.527343 4.785156 7.664062 6.761719 7.679688 7.113281 14.929688 13.832031 22.824219 13.832031s15.144531-6.71875 22.824219-13.832031c2.136719-1.976563 5.152343-4.777344 7.664062-6.761719-.457031 3.304688-1.433593 7.5625-2.121093 10.554688-2.296876 10-4.464844 19.4375-.640626 26.054687 3.722657 6.433594 12.378907 9.054687 22.394532 12.097656 3.320312 1 8.175781 2.480469 11.390625 3.886719-3.214844 1.40625-8.078125 2.886719-11.390625 3.886719-10.015625 3.035156-18.671875 5.664062-22.394532 12.097656-3.832031 6.625-1.664062 16.0625.632813 26.0625.6875 2.984375 1.664063 7.242187 2.121094 10.546875-2.511719-1.984375-5.527344-4.785156-7.664063-6.761719-7.671875-7.113281-14.921875-13.832031-22.816406-13.832031s-15.144531 6.71875-22.824219 13.832031c-2.128906 1.984375-5.152343 4.777344-7.671875 6.761719zm0 0"/></svg>