<svg height="496pt" viewBox="0 -88 496.00621 496" width="496pt" xmlns="http://www.w3.org/2000/svg"><path d="m472.007812 8.003906h-389.523437c-38.398437 0-71.839844 28.960938-74.316406 67.199219-2.160157 33.359375 18.476562 62.320313 47.839843 72.640625 7.519532 2.71875 15.597657 4.160156 24 4.160156 8.398438 0 16.476563-1.441406 24-4.082031 12.636719-4.480469 23.679688-12.398437 32-22.71875 1.359376-1.679687 2.636719-3.441406 3.839844-5.199219h316.160156v176h16c8.796876 0 16-7.199218 16-16v-256c0-8.800781-7.203124-16-16-16zm0 0" fill="#ffeaa7"/><path d="m104.007812 147.921875v140.082031c0 2.640625-.402343 5.199219-1.28125 7.519532-3.121093 9.601562-12.082031 16.480468-22.71875 16.480468-13.28125 0-24-10.722656-24-24v-140.160156c7.519532 2.71875 15.597657 4.160156 24 4.160156 8.398438 0 16.476563-1.441406 24-4.082031zm0 0" fill="#fcd770"/><path d="m424.007812 120.003906v80h-32v-80h-96v80h-32v-80h-32v80h-32v-80h-60.160156c-1.203125 1.757813-2.480468 3.519532-3.839844 5.199219-8.320312 10.320313-19.363281 18.238281-32 22.71875v140.082031c0 2.640625-.402343 5.199219-1.28125 7.519532l1.28125.480468h352v-176zm0 0" fill="#e6e9ed"/><g fill="#656d78"><path d="m424.007812 120.003906v80h-32v-80zm0 0"/><path d="m296.007812 120.003906v80h-32v-80zm0 0"/><path d="m232.007812 120.003906v80h-32v-80zm0 0"/></g><path d="m120.007812 80.003906c0 22.089844-17.910156 40-40 40-22.09375 0-40-17.910156-40-40 0-22.09375 17.90625-40 40-40 22.089844 0 40 17.90625 40 40zm0 0" fill="#ff826e"/><path d="m152.007812 40.003906h48v32h-48zm0 0" fill="#b4dd7f"/><path d="m456.007812 51.441406v3.203125c0 5.917969-2.722656 11.519531-7.28125 15.199219l-32.71875 26.160156-32.722656-26.160156c-4.558594-3.679688-7.277344-9.28125-7.277344-15.199219v-3.203125c0-5.359375 2.160157-10.238281 5.679688-13.757812 3.519531-3.519532 8.398438-5.679688 13.757812-5.679688 2.960938 0 6 .71875 8.640626 2.078125l11.921874 5.921875 11.917969-5.921875c2.640625-1.359375 5.679688-2.078125 8.640625-2.078125 10.71875 0 19.441406 8.71875 19.441406 19.4375zm0 0" fill="#ff826e"/><path d="m344.007812 51.441406v3.203125c0 5.917969-2.722656 11.519531-7.28125 15.199219l-32.71875 26.160156-32.722656-26.160156c-4.558594-3.679688-7.277344-9.28125-7.277344-15.199219v-3.203125c0-5.359375 2.160157-10.238281 5.679688-13.757812 3.519531-3.519532 8.398438-5.679688 13.757812-5.679688 2.960938 0 6 .71875 8.640626 2.078125l11.921874 5.921875 11.917969-5.921875c2.640625-1.359375 5.679688-2.078125 8.640625-2.078125 10.71875 0 19.441406 8.71875 19.441406 19.4375zm0 0" fill="#ff826e"/><path d="m472.007812.00390625h-389.539062c-43.429688 0-79.582031 32.80859375-82.292969 74.68749975-1.449219 22.398438 6.167969 43.710938 21.453125 60.007813 7.480469 7.984375 16.503906 14.273437 26.378906 18.582031v134.722656c0 17.648438 14.351563 32 32 32 11.789063 0 22-6.480468 27.550782-16h364.449218c13.230469 0 24-10.769531 24-24v-256c0-13.234375-10.769531-23.99999975-24-23.99999975zm-392 303.99999975c-8.824218 0-16-7.175781-16-16v-129.648437c5.230469 1.078125 10.589844 1.648437 16 1.648437 5.4375 0 10.78125-.65625 16-1.722656v129.722656c0 8.824219-7.175781 16-16 16zm32-150.808594c5.679688-2.480468 11.03125-5.609374 16-9.351562v144.160156h-16zm288 38.808594v-64h16v64zm0 16v80h-32v-160h16v80zm-48 80h-16v-160h16zm-32 0h-32v-80h16v-80h16zm-32-96h-16v-64h16zm-16 16v80h-48v-80h16v-80h16v80zm-48-16h-16v-64h16zm-16 16v80h-32v-160h16v80zm-48 80h-16v-160h16zm288 0h-32v-80h16v-80h16zm32-8c0 4.40625-3.59375 8-8 8h-8v-176h-328.410156l-2.375 3.550782c-11.929687 17.808593-31.824218 28.449218-53.214844 28.449218-17.882812 0-34.472656-7.183594-46.707031-20.242187-12.222656-13.039063-18.320312-30.101563-17.160156-48.03125 2.175781-33.496094 31.304687-59.726563 66.328125-59.726563h389.539062c4.40625 0 8 3.589844 8 8zm0 0"/><path d="m436.589844 24.003906c-4.222656 0-8.464844 1-12.253906 2.894532l-8.328126 4.160156-8.328124-4.160156c-3.792969-1.894532-8.027344-2.894532-12.257813-2.894532-15.121094 0-27.414063 12.296875-27.414063 27.414063v3.257812c0 8.375 3.75 16.175781 10.292969 21.40625l37.707031 30.167969 37.703126-30.167969c6.542968-5.230469 10.296874-13.03125 10.296874-21.414062v-3.257813c0-15.109375-12.304687-27.40625-27.417968-27.40625zm11.417968 30.664063c0 3.488281-1.5625 6.734375-4.289062 8.910156l-27.710938 22.175781-27.714843-22.175781c-2.726563-2.175781-4.285157-5.414063-4.285157-8.910156v-3.257813c0-6.285156 5.117188-11.40625 11.414063-11.40625 1.761719 0 3.527344.414063 5.105469 1.207032l15.480468 7.734374 15.46875-7.734374c1.585938-.792969 3.355469-1.207032 5.113282-1.207032 6.296875 0 11.417968 5.121094 11.417968 11.414063zm0 0"/><path d="m324.589844 24.003906c-4.222656 0-8.464844 1-12.253906 2.894532l-8.328126 4.160156-8.328124-4.160156c-3.792969-1.894532-8.027344-2.894532-12.257813-2.894532-15.121094 0-27.414063 12.296875-27.414063 27.414063v3.257812c0 8.375 3.75 16.175781 10.292969 21.40625l37.707031 30.167969 37.703126-30.167969c6.542968-5.230469 10.296874-13.03125 10.296874-21.414062v-3.257813c0-15.109375-12.304687-27.40625-27.417968-27.40625zm11.417968 30.664063c0 3.488281-1.5625 6.734375-4.289062 8.910156l-27.710938 22.175781-27.714843-22.175781c-2.726563-2.175781-4.285157-5.414063-4.285157-8.910156v-3.257813c0-6.285156 5.117188-11.40625 11.414063-11.40625 1.761719 0 3.527344.414063 5.105469 1.207032l15.480468 7.734374 15.46875-7.734374c1.585938-.792969 3.355469-1.207032 5.113282-1.207032 6.296875 0 11.417968 5.121094 11.417968 11.414063zm0 0"/><path d="m80.007812 32.003906c-26.472656 0-48 21.527344-48 48s21.527344 48 48 48v-16c-17.648437 0-32-14.351562-32-32 0-17.648437 14.351563-32 32-32 17.644532 0 32 14.351563 32 32h16c0-26.472656-21.53125-48-48-48zm0 0"/><path d="m144.007812 80.003906h64v-48h-64zm16-32h32v16h-32zm0 0"/><path d="m224.007812 32.003906h16v16h-16zm0 0"/><path d="m224.007812 64.003906h16v16h-16zm0 0"/></svg>