<svg height="496pt" viewBox="0 0 496 496" width="496pt" xmlns="http://www.w3.org/2000/svg"><path d="m456 248c17.679688 0 32 14.320312 32 32s-14.320312 32-32 32c17.679688 0 32 14.320312 32 32s-14.320312 32-32 32h-16c-17.679688 0-32-14.320312-32-32 0-5.839844 1.601562-11.28125 4.320312-16 5.519532-9.601562 15.839844-16 27.679688-16-11.839844 0-22.160156-6.398438-27.679688-16-2.71875-4.71875-4.320312-10.160156-4.320312-16 0-17.679688 14.320312-32 32-32zm0 0" fill="#ffeaa7"/><path d="m412.320312 296c5.519532 9.601562 15.839844 16 27.679688 16-11.839844 0-22.160156 6.398438-27.679688 16h-116.320312v-32zm0 0" fill="#ffeaa7"/><path d="m56 456h208v32h-208zm0 0" fill="#b4dd7f"/><path d="m264 456h-208c15.121094-20.160156 38.800781-32 64-32h80c12.640625 0 24.800781 2.960938 35.761719 8.480469 10.957031 5.441406 20.71875 13.441406 28.238281 23.519531zm0 0" fill="#fcd770"/><path d="m136 376h48v48h-48zm0 0" fill="#ffeaa7"/><path d="m296 144v88h-120v-56l31.679688-31.679688c5.359374-5.359374 8.320312-12.558593 8.320312-20 0-7.839843-3.199219-14.878906-8.320312-20-5.121094-5.121093-12.160157-8.320312-20-8.320312-7.441407 0-14.640626 2.960938-20 8.320312l-7.679688 7.679688-7.679688-7.679688c-5.359374-5.359374-12.558593-8.320312-20-8.320312-7.839843 0-14.878906 3.199219-20 8.320312-5.121093 5.121094-8.320312 12.160157-8.320312 20 0 7.441407 2.960938 14.640626 8.320312 20l31.679688 31.679688v56h-120v-88c0-75.121094 60.878906-136 136-136 37.601562 0 71.519531 15.199219 96.160156 39.839844s39.839844 58.558594 39.839844 96.160156zm0 0" fill="#69d6f4"/><path d="m280 264-40 40 40 40h-120l40-40-40-40zm0 0" fill="#ffeaa7"/><path d="m160 264-40 40 40 40h-120l40-40-40-40zm0 0" fill="#ffeaa7"/><path d="m296 328v16h-16l-40-40 40-40h16zm0 0" fill="#ffc729"/><path d="m312 240v16c0 4.398438-3.601562 8-8 8h-288c-4.398438 0-8-3.601562-8-8v-16c0-4.398438 3.601562-8 8-8h288c4.398438 0 8 3.601562 8 8zm0 0" fill="#b4dd7f"/><path d="m296 344v16c0 8.800781-7.199219 16-16 16h-240c-8.800781 0-16-7.199219-16-16v-16zm0 0" fill="#b4dd7f"/><path d="m216 124.320312c0 7.441407-2.960938 14.640626-8.320312 20l-47.679688 47.679688-47.679688-47.679688c-5.359374-5.359374-8.320312-12.558593-8.320312-20 0-7.839843 3.199219-14.878906 8.320312-20 5.121094-5.121093 12.160157-8.320312 20-8.320312 7.441407 0 14.640626 2.960938 20 8.320312l7.679688 7.679688 7.679688-7.679688c5.359374-5.359374 12.558593-8.320312 20-8.320312 7.839843 0 14.878906 3.199219 20 8.320312 5.121093 5.121094 8.320312 12.160157 8.320312 20zm0 0" fill="#ff826e"/><path d="m200 304-40 40-40-40 40-40zm0 0" fill="#ffc729"/><path d="m176 176v56h-32v-56l16 16zm0 0" fill="#ffeaa7"/><path d="m80 304-40 40h-16v-80h16zm0 0" fill="#ffc729"/><path d="m479.976562 312c9.71875-7.304688 16.023438-18.929688 16.023438-32 0-22.054688-17.945312-40-40-40h-16c-22.054688 0-40 17.945312-40 40 0 2.742188.335938 5.40625.863281 8h-96.863281v-16c8.824219 0 16-7.175781 16-16v-16c0-8.824219-7.175781-16-16-16v-80c0-79.398438-64.601562-144-144-144s-144 64.601562-144 144v80c-8.824219 0-16 7.175781-16 16v16c0 8.824219 7.175781 16 16 16v88c0 13.230469 10.769531 24 24 24h88v32h-8c-27.550781 0-53.871094 13.160156-70.398438 35.199219l-1.601562 2.136719v42.664062h224v-42.664062l-1.601562-2.136719c-16.527344-22.039063-42.847657-35.199219-70.398438-35.199219h-8v-32h88c13.230469 0 24-10.769531 24-24v-24h96.863281c-.527343 2.59375-.863281 5.257812-.863281 8 0 22.054688 17.945312 40 40 40h16c22.054688 0 40-17.945312 40-40 0-13.070312-6.304688-24.695312-16.023438-32zm-191.976562 24h-4.6875l-32-32 32-32h4.6875zm-179.3125-32 32 32h-81.375l32-32-32-32h81.375zm51.3125-28.6875 28.6875 28.6875-28.6875 28.6875-28.6875-28.6875zm51.3125 28.6875-32-32h81.375l-32 32 32 32h-81.375zm-179.3125-160c0-70.574219 57.425781-128 128-128s128 57.425781 128 128v80h-104v-44.6875l29.375-29.375c6.847656-6.847656 10.625-15.960938 10.625-25.65625 0-20.007812-16.273438-36.28125-36.28125-36.28125-9.695312 0-18.808594 3.777344-25.65625 10.625l-2.0625 2.0625-2.0625-2.0625c-6.847656-6.847656-15.960938-10.625-25.65625-10.625-20.007812 0-36.28125 16.273438-36.28125 36.28125 0 9.695312 3.777344 18.808594 10.625 25.65625l29.375 29.375v44.6875h-104zm128 36.6875-42.0625-42.0625c-3.824219-3.824219-5.9375-8.921875-5.9375-14.34375 0-11.175781 9.105469-20.28125 20.28125-20.28125 5.421875 0 10.511719 2.113281 14.34375 5.9375l13.375 13.375 13.375-13.375c3.824219-3.824219 8.921875-5.9375 14.34375-5.9375 11.175781 0 20.28125 9.105469 20.28125 20.28125 0 5.421875-2.113281 10.511719-5.9375 14.34375zm0 22.625 8-8v28.6875h-16v-28.6875zm-144 36.6875h288v16h-288zm20.6875 32 32 32-32 32h-4.6875v-64zm27.3125 208v-16h192v16zm181.152344-32h-170.304688c12.679688-10.183594 28.632813-16 45.152344-16h80c16.519531 0 32.472656 5.816406 45.152344 16zm-69.152344-32h-32v-32h32zm104-48h-240c-4.414062 0-8-3.585938-8-8v-8h256v8c0 4.414062-3.585938 8-8 8zm128.105469-48h-104.105469v-16h104.105469c2.269531 3.007812 4.902343 5.734375 7.917969 8-3.015626 2.265625-5.648438 4.992188-7.917969 8zm47.894531 48h-16c-13.230469 0-24-10.769531-24-24s10.769531-24 24-24v-16c-13.230469 0-24-10.769531-24-24s10.769531-24 24-24h16c13.230469 0 24 10.769531 24 24s-10.769531 24-24 24v16c13.230469 0 24 10.769531 24 24s-10.769531 24-24 24zm0 0"/><path d="m168 304c0 4.417969-3.582031 8-8 8s-8-3.582031-8-8 3.582031-8 8-8 8 3.582031 8 8zm0 0"/><path d="m288 304c0 4.417969-3.582031 8-8 8s-8-3.582031-8-8 3.582031-8 8-8 8 3.582031 8 8zm0 0"/><path d="m48 304c0 4.417969-3.582031 8-8 8s-8-3.582031-8-8 3.582031-8 8-8 8 3.582031 8 8zm0 0"/><path d="m192 32h16v16h-16zm0 0"/><path d="m192 64h16v16h-16zm0 0"/><path d="m208 48h16v16h-16zm0 0"/><path d="m176 48h16v16h-16zm0 0"/><path d="m64 144h16v16h-16zm0 0"/><path d="m64 176h16v16h-16zm0 0"/><path d="m80 160h16v16h-16zm0 0"/><path d="m48 160h16v16h-16zm0 0"/><path d="m216 176h16v16h-16zm0 0"/><path d="m80 64h16v16h-16zm0 0"/></svg>