<svg height="496pt" viewBox="-136 0 496 496" width="496pt" xmlns="http://www.w3.org/2000/svg"><path d="m72 24v32h-32v-32c0-4.398438 1.761719-8.398438 4.71875-11.28125 2.882812-2.957031 6.882812-4.71875 11.28125-4.71875 8.800781 0 16 7.199219 16 16zm0 0" fill="#fcd770"/><path d="m40 56h32v80h-32zm0 0" fill="#ccd1d9"/><path d="m192 356v100c0 17.679688-14.320312 32-32 32h-96c-17.679688 0-32-14.320312-32-32v-100c0-12.960938-4.238281-25.601562-12-36s-12-23.039062-12-36v-116c0-17.679688 14.320312-32 32-32h144c17.679688 0 32 14.320312 32 32v116c0 12.960938-4.238281 25.601562-12 36s-12 23.039062-12 36zm0 0" fill="#e6e9ed"/><path d="m128 344c0 8.835938-7.164062 16-16 16s-16-7.164062-16-16 7.164062-16 16-16 16 7.164062 16 16zm0 0" fill="#ffc729"/><path d="m184 168v128h-144v-128zm0 0" fill="#69d6f4"/><path d="m152 219.441406v3.199219c0 5.917969-2.71875 11.519531-7.28125 15.199219l-32.71875 26.160156-32.71875-26.160156c-4.5625-3.679688-7.28125-9.28125-7.28125-15.199219v-3.199219c0-5.363281 2.160156-10.242187 5.679688-13.761718 3.519531-3.519532 8.398437-5.679688 13.761718-5.679688 2.957032 0 6 .71875 8.636719 2.078125l11.921875 5.921875 11.921875-5.921875c2.636719-1.359375 5.679687-2.078125 8.636719-2.078125 10.722656 0 19.441406 8.71875 19.441406 19.441406zm0 0" fill="#ff826e"/><path d="m132.585938 192c-4.234376 0-8.480469 1-12.265626 2.894531l-8.320312 4.160157-8.320312-4.160157c-3.792969-1.894531-8.03125-2.894531-12.265626-2.894531-15.117187 0-27.414062 12.296875-27.414062 27.414062v3.257813c0 8.375 3.753906 16.175781 10.289062 21.40625l37.710938 30.160156 37.703125-30.167969c6.542969-5.222656 10.296875-13.023437 10.296875-21.40625v-3.257812c0-15.109375-12.296875-27.40625-27.414062-27.40625zm11.414062 30.664062c0 3.488282-1.558594 6.734376-4.289062 8.910157l-27.710938 22.179687-27.71875-22.179687c-2.722656-2.175781-4.28125-5.414063-4.28125-8.910157v-3.257812c0-6.285156 5.121094-11.40625 11.414062-11.40625 1.769532 0 3.53125.414062 5.113282 1.207031l15.472656 7.738281 15.480469-7.738281c1.574219-.792969 3.34375-1.207031 5.105469-1.207031 6.292968 0 11.414062 5.121094 11.414062 11.414062zm0 0"/><path d="m32 304h160v-144h-160zm16-128h128v112h-128zm0 0"/><path d="m112 320c-13.230469 0-24 10.769531-24 24s10.769531 24 24 24 24-10.769531 24-24-10.769531-24-24-24zm0 32c-4.414062 0-8-3.585938-8-8s3.585938-8 8-8 8 3.585938 8 8-3.585938 8-8 8zm0 0"/><path d="m168 344c0 4.417969-3.582031 8-8 8s-8-3.582031-8-8 3.582031-8 8-8 8 3.582031 8 8zm0 0"/><path d="m72 344c0 4.417969-3.582031 8-8 8s-8-3.582031-8-8 3.582031-8 8-8 8 3.582031 8 8zm0 0"/><path d="m56 448h16v16h-16zm0 0"/><path d="m56 416h16v16h-16zm0 0"/><path d="m56 384h16v16h-16zm0 0"/><path d="m104 448h16v16h-16zm0 0"/><path d="m104 416h16v16h-16zm0 0"/><path d="m104 384h16v16h-16zm0 0"/><path d="m152 448h16v16h-16zm0 0"/><path d="m152 416h16v16h-16zm0 0"/><path d="m152 384h16v16h-16zm0 0"/><path d="m184 128h-104v-104c0-13.230469-10.769531-24-24-24s-24 10.769531-24 24v104.808594c-18.230469 3.71875-32 19.871094-32 39.191406v116c0 14.617188 4.832031 29.113281 13.601562 40.808594 6.703126 8.933594 10.398438 20.015625 10.398438 31.191406v100c0 22.054688 17.945312 40 40 40h96c22.054688 0 40-17.945312 40-40v-100c0-11.175781 3.695312-22.257812 10.398438-31.191406 8.777343-11.695313 13.601562-26.183594 13.601562-40.808594v-116c0-22.054688-17.945312-40-40-40zm-136 0v-64h16v64zm8-112c4.414062 0 8 3.59375 8 8v24h-16v-24c0-4.40625 3.585938-8 8-8zm152 268c0 11.175781-3.695312 22.257812-10.398438 31.191406-8.769531 11.695313-13.601562 26.191406-13.601562 40.808594v100c0 13.230469-10.769531 24-24 24h-96c-13.230469 0-24-10.769531-24-24v-100c0-14.617188-4.832031-29.113281-13.601562-40.808594-6.703126-8.933594-10.398438-20.015625-10.398438-31.191406v-116c0-13.230469 10.769531-24 24-24h144c13.230469 0 24 10.769531 24 24zm0 0"/></svg>