<svg height="496pt" viewBox="0 0 496 496" width="496pt" xmlns="http://www.w3.org/2000/svg"><path d="m301.519531 382.800781c-8.238281 15.121094-18.320312 29.277344-30.160156 42.160157l-3.917969-17.359376c-2-9.121093-10.082031-15.601562-19.441406-15.601562s-17.441406 6.480469-19.441406 15.601562l-3.917969 17.359376c-11.839844-12.882813-21.921875-27.039063-30.160156-42.160157-17.199219-31.28125-26.480469-66.640625-26.480469-103.121093v-65.039063c0-10.800781 1.359375-21.441406 4.078125-31.679687 1.203125-5.121094 2.800781-10.082032 4.800781-14.960938h142.242188c2 4.878906 3.597656 9.839844 4.800781 14.960938 2.71875 10.238281 4.078125 20.878906 4.078125 31.679687v65.039063c0 36.480468-9.28125 71.839843-26.480469 103.121093zm0 0" fill="#e6e9ed"/><path d="m264 102.238281 14.558594 11.363281c18.402344 14.320313 32.320312 33.199219 40.5625 54.398438h-142.242188c8.242188-21.199219 22.160156-40.078125 40.5625-54.398438l14.558594-11.363281 8-6.238281h16zm0 0" fill="#ff826e"/><path d="m488 224v32h-160v-41.359375c0-10.800781-1.359375-21.441406-4.078125-31.679687l36.078125 9.039062zm0 0" fill="#ff826e"/><path d="m136 192 36.078125-9.039062c-2.71875 10.238281-4.078125 20.878906-4.078125 31.679687v41.359375h-160v-32zm0 0" fill="#ff826e"/><g fill="#e6e9ed"><path d="m424 176v32l-32-8v-24zm0 0"/><path d="m392 256h32v32h-32zm0 0"/><path d="m72 256h32v32h-32zm0 0"/><path d="m104 176v24l-32 8v-32zm0 0"/></g><path d="m424 160v16h-32v-16c0-4.398438 1.761719-8.398438 4.71875-11.28125 2.882812-2.957031 6.882812-4.71875 11.28125-4.71875 8.800781 0 16 7.199219 16 16zm0 0" fill="#fcd770"/><path d="m104 160v16h-32v-16c0-4.398438 1.761719-8.398438 4.71875-11.28125 2.882812-2.957031 6.882812-4.71875 11.28125-4.71875 8.800781 0 16 7.199219 16 16zm0 0" fill="#fcd770"/><path d="m408 456v24l-129.199219-21.519531-7.441406-33.519531c11.839844-12.882813 21.921875-27.039063 30.160156-42.160157zm0 0" fill="#ff826e"/><path d="m224.640625 424.960938-7.441406 33.519531-129.199219 21.519531v-24l106.480469-73.199219c8.238281 15.121094 18.320312 29.277344 30.160156 42.160157zm0 0" fill="#ff826e"/><path d="m271.359375 424.960938 7.441406 33.519531.71875 3.199219c.320313 1.519531.480469 3.121093.480469 4.71875 0 5.921874-2.398438 11.363281-6.320312 15.28125-3.917969 3.921874-9.359376 6.320312-15.28125 6.320312h-20.796876c-11.921874 0-21.601562-9.679688-21.601562-21.601562 0-1.597657.160156-3.199219.480469-4.71875l.71875-3.199219 7.441406-33.519531 3.917969-17.359376c2-9.121093 10.082031-15.601562 19.441406-15.601562s17.441406 6.480469 19.441406 15.601562zm0 0" fill="#ccd1d9"/><path d="m280 248v64c0 17.679688-14.320312 32-32 32s-32-14.320312-32-32v-64c0-17.679688 14.320312-32 32-32 8.800781 0 16.800781 3.601562 22.640625 9.359375 5.757813 5.839844 9.359375 13.839844 9.359375 22.640625zm0 0" fill="#69d6f4"/><path d="m264 72v30.238281l-8-6.238281h-16l-8 6.238281v-78.238281c0-8.800781 7.199219-16 16-16 4.398438 0 8.398438 1.761719 11.28125 4.71875 2.957031 2.882812 4.71875 6.882812 4.71875 11.28125zm0 0" fill="#ffeaa7"/><path d="m312 40c8.800781 0 16 7.199219 16 16 0 4.398438-1.761719 8.398438-4.71875 11.28125-2.882812 2.957031-6.882812 4.71875-11.28125 4.71875h-48v-32zm0 0" fill="#fcd770"/><path d="m232 40v32h-48c-8.800781 0-16-7.199219-16-16 0-4.398438 1.761719-8.398438 4.71875-11.28125 2.882812-2.957031 6.882812-4.71875 11.28125-4.71875zm0 0" fill="#fcd770"/><path d="m496 217.753906-64-16v-41.753906c0-13.230469-10.769531-24-24-24s-24 10.769531-24 24v29.753906l-16-4v-33.753906h-16v29.753906l-21.640625-5.410156c-7.886719-27.0625-23.894531-51.230469-46.855469-69.097656l-11.503906-8.933594v-18.3125h40c13.230469 0 24-10.769531 24-24s-10.769531-24-24-24h-40v-8c0-13.230469-10.769531-24-24-24s-24 10.769531-24 24v8h-40c-13.230469 0-24 10.769531-24 24s10.769531 24 24 24h40.007812v18.304688l-11.503906 8.941406c-22.960937 17.859375-38.976562 42.027344-46.855468 69.097656l-21.648438 5.410156v-29.753906h-16v33.753906l-16 4v-29.753906c0-13.230469-10.769531-24-24-24s-24 10.769531-24 24v41.753906l-64 16v46.246094h64v32h48v-32h16v16h16v-16h16v15.664062c0 35.351563 8.34375 69.710938 24.023438 100.617188l-104.023438 71.511719v37.65625l128.175781-21.371094c.902344 15.53125 13.703125 27.921875 29.457031 27.921875h20.75c15.753907 0 28.554688-12.390625 29.457032-27.921875l128.160156 21.371094v-37.65625l-104.023438-71.511719c15.679688-30.90625 24.023438-65.265625 24.023438-100.617188v-15.664062h16v16h16v-16h16v32h48v-32h64zm-88-65.753906c4.414062 0 8 3.59375 8 8v8h-16v-8c0-4.40625 3.585938-8 8-8zm-8 32h16v13.753906l-16-4zm-88-136c4.414062 0 8 3.59375 8 8s-3.585938 8-8 8h-40v-16zm-64-32c4.414062 0 8 3.59375 8 8v64h-15.992188l-.007812-64c0-4.40625 3.585938-8 8-8zm-64 48c-4.414062 0-8-3.59375-8-8s3.585938-8 8-8h40v16zm38.328125 55.878906 20.414063-15.878906h10.515624l20.414063 15.878906c14.144531 11 25.304687 24.730469 33.167969 40.121094h-117.679688c7.863282-15.382812 19.023438-29.121094 33.167969-40.121094zm-134.328125 32.121094c4.414062 0 8 3.59375 8 8v8h-16v-8c0-4.40625 3.585938-8 8-8zm-8 32h16v9.753906l-16 4zm16 96h-16v-16h16zm-80-32v-17.753906l145.769531-36.4375c-1.050781 6.824218-1.769531 13.742187-1.769531 20.792968v33.398438zm80 212.207031 95.839844-65.886719c6.976562 11.582032 15.046875 22.574219 24.152344 32.847657l-5.398438 24.289062-114.59375 19.09375zm162.375 19.792969h-20.75c-7.511719 0-13.625-6.113281-13.625-13.625 0-.992188.113281-1.992188.328125-2.960938l12.015625-54.0625c1.214844-5.511718 6.015625-9.351562 11.65625-9.351562s10.441406 3.839844 11.65625 9.351562l12.015625 54.0625c.214844.96875.328125 1.96875.328125 2.960938 0 7.511719-6.113281 13.625-13.625 13.625zm141.625-19.792969v10.34375l-114.59375-19.09375-5.398438-24.289062c9.105469-10.273438 17.175782-21.265625 24.152344-32.847657zm-80-180.542969c0 46.664063-15.726562 91.382813-44.382812 127.71875l-.335938-1.496093c-2.855469-12.886719-14.082031-21.886719-27.28125-21.886719s-24.425781 9-27.28125 21.878906l-.335938 1.496094c-28.65625-36.328125-44.382812-81.046875-44.382812-127.710938v-65.0625c0-13.371093 2.257812-26.355468 6.390625-38.601562h131.21875c4.132813 12.246094 6.390625 25.230469 6.390625 38.601562zm96 .335938h-16v-16h16zm64-32h-144v-33.398438c0-7.058593-.71875-13.96875-1.769531-20.800781l145.769531 36.445313zm0 0"/><path d="m248 208c-22.054688 0-40 17.945312-40 40v64c0 22.054688 17.945312 40 40 40s40-17.945312 40-40v-64c0-22.054688-17.945312-40-40-40zm24 104c0 13.230469-10.769531 24-24 24s-24-10.769531-24-24v-64c0-13.230469 10.769531-24 24-24s24 10.769531 24 24zm0 0"/></svg>