<svg height="496pt" viewBox="0 0 496 496" width="496pt" xmlns="http://www.w3.org/2000/svg"><path d="m343.359375 184c.480469-2.480469.640625-5.121094.640625-7.761719v-72.238281c18 0 18 32 36 32s18-32 36-32 18 32 36 32 18-32 36-32v224c-15.121094 20.160156-38.800781 32-64 32h-334.878906c-21.199219 0-41.519532-8.398438-56.5625-23.441406l-23.4375-23.4375c3.917968-24.960938 17.359375-46.722656 36.480468-61.359375 9.757813 4.078125 21.757813 7.4375 24.796876 12.878906 5.601562 10-8.160157 40.800781 1.601562 46.640625 9.359375 5.597656 28.320312-21.921875 40-21.921875s30.640625 27.519531 40 21.921875c9.761719-5.839844-4-36.640625 1.601562-46.640625 5.4375-9.679687 38.398438-12.640625 38.398438-24.640625 0-6.640625-10.078125-10.558594-20.078125-14.320312 2.796875-.878907 5.519531-1.917969 8.238281-3.039063 14.71875-6.160156 28.320313-15.121094 39.839844-26.640625 4-4 7.761719-8.238281 11.039062-12.71875l.960938.71875 3.28125 9.839844c3.757812 11.441406 11.039062 20.960937 20.320312 27.601562 9.277344 6.71875 20.558594 10.558594 32.636719 10.558594 28.160157 0 51.441407-20.878906 55.121094-48zm0 0" fill="#ffeaa7"/><path d="m416 40v32h-56c-8.800781 0-16 7.199219-16 16h-88v-48c0-17.679688 14.320312-32 32-32h96c17.679688 0 32 14.320312 32 32zm0 0" fill="#969faa"/><path d="m344 120v32h-95.761719c3.839844-10.160156 6.242188-20.878906 7.28125-31.839844v-.160156zm0 0" fill="#969faa"/><path d="m240 184h103.359375c-3.679687 27.121094-26.960937 48-55.121094 48-12.078125 0-23.359375-3.839844-32.636719-10.558594-9.28125-6.640625-16.5625-16.160156-20.320312-27.601562l-3.28125-9.839844-.960938-.71875c.402344-.480469.722657-.882812 1.039063-1.359375 2.320313 1.359375 5.042969 2.078125 7.921875 2.078125zm0 0" fill="#969faa"/><path d="m488 88v16c-18 0-18 32-36 32s-18-32-36-32-18 32-36 32-18-32-36-32v-16c0-8.800781 7.199219-16 16-16h112c8.800781 0 16 7.199219 16 16zm0 0" fill="#b4dd7f"/><path d="m344 104v16h-104c-8.800781 0-16-7.199219-16-16 0-4.398438 1.761719-8.398438 4.71875-11.28125 2.882812-2.957031 6.882812-4.71875 11.28125-4.71875h104zm0 0" fill="#e6e9ed"/><path d="m344 152v24.238281c0 2.640625-.160156 5.28125-.640625 7.761719h-103.359375c-2.878906 0-5.601562-.71875-7.921875-2.078125-4.796875-2.800781-8.078125-8-8.078125-13.921875 0-4.398438 1.761719-8.398438 4.71875-11.28125 2.882812-2.957031 6.882812-4.71875 11.28125-4.71875zm0 0" fill="#e6e9ed"/><path d="m171.921875 225.679688c10 3.761718 20.078125 7.679687 20.078125 14.320312 0 12-32.960938 14.960938-38.398438 24.640625-5.601562 10 8.160157 40.800781-1.601562 46.640625-9.359375 5.597656-28.320312-21.921875-40-21.921875s-30.640625 27.519531-40 21.921875c-9.761719-5.839844 4-36.640625-1.601562-46.640625-3.039063-5.441406-15.039063-8.800781-24.796876-12.878906 16.160157-12.402344 36.398438-19.761719 58.398438-19.761719h29.121094c13.359375 0 26.398437-2.160156 38.800781-6.320312zm0 0" fill="#b4dd7f"/><path d="m456 260.320312c0 7.441407-2.960938 14.640626-8.320312 20l-47.679688 47.679688-47.679688-47.679688c-5.359374-5.359374-8.320312-12.558593-8.320312-20 0-7.839843 3.199219-14.878906 8.320312-20 5.121094-5.121093 12.160157-8.320312 20-8.320312 7.441407 0 14.640626 2.960938 20 8.320312l7.679688 7.679688 7.679688-7.679688c5.359374-5.359374 12.558593-8.320312 20-8.320312 7.839843 0 14.878906 3.199219 20 8.320312 5.121093 5.121094 8.320312 12.160157 8.320312 20zm0 0" fill="#ff826e"/><path d="m488 328v16c0 26.480469-21.519531 48-48 48h-368c-17.679688 0-33.679688-7.199219-45.28125-18.71875-11.519531-11.601562-18.71875-27.601562-18.71875-45.28125 0-5.039062.398438-10 1.121094-14.878906l23.4375 23.4375c15.042968 15.042968 35.363281 23.441406 56.5625 23.441406h334.878906c25.199219 0 48.878906-11.839844 64-32zm0 0" fill="#cf9e76"/><path d="m416 392c26.480469 0 48 21.519531 48 48s-21.519531 48-48 48-48-21.519531-48-48c0-5.601562.960938-10.960938 2.71875-16h37.28125zm0 0" fill="#838f9b"/><path d="m237.28125 424c1.757812 5.039062 2.71875 10.398438 2.71875 16 0 26.480469-21.519531 48-48 48s-48-21.519531-48-48c0-5.601562.960938-11.039062 2.71875-16zm0 0" fill="#838f9b"/><path d="m349.28125 424c1.757812 5.039062 2.71875 10.398438 2.71875 16 0 26.480469-21.519531 48-48 48s-48-21.519531-48-48c0-5.601562.960938-11.039062 2.71875-16zm0 0" fill="#838f9b"/><path d="m125.28125 424c1.757812 4.960938 2.71875 10.398438 2.71875 16 0 26.480469-21.519531 48-48 48s-48-21.519531-48-48 21.519531-48 48-48l8 32zm0 0" fill="#838f9b"/><path d="m416 392-8 32h-320l-8-32zm0 0" fill="#ccd1d9"/><g fill="#e6e9ed"><path d="m432 440c0 8.835938-7.164062 16-16 16s-16-7.164062-16-16 7.164062-16 16-16 16 7.164062 16 16zm0 0"/><path d="m320 440c0 8.835938-7.164062 16-16 16s-16-7.164062-16-16 7.164062-16 16-16 16 7.164062 16 16zm0 0"/><path d="m208 440c0 8.835938-7.164062 16-16 16s-16-7.164062-16-16 7.164062-16 16-16 16 7.164062 16 16zm0 0"/><path d="m96 440c0 8.835938-7.164062 16-16 16s-16-7.164062-16-16 7.164062-16 16-16 16 7.164062 16 16zm0 0"/></g><path d="m472 64h-48v-24c0-22.054688-17.945312-40-40-40h-96c-22.054688 0-40 17.945312-40 40v40h-8c-13.230469 0-24 10.769531-24 24s10.769531 24 24 24h6.398438c-.902344 5.425781-2.214844 10.761719-3.886719 16h-2.511719c-13.230469 0-24 10.769531-24 24 0 5.59375 2 10.671875 5.214844 14.761719-2.191406 2.621093-4.460938 5.175781-6.871094 7.582031-21.703125 21.703125-50.558594 33.65625-81.253906 33.65625h-29.089844c-57.34375 0-104 46.65625-104 104 0 30.703125 19.359375 56.910156 46.488281 67.238281-13.625 10.226563-22.488281 26.457031-22.488281 44.761719 0 30.878906 25.121094 56 56 56s56-25.121094 56-56c0-2.695312-.296875-5.359375-.671875-8h1.351563c-.382813 2.640625-.679688 5.304688-.679688 8 0 30.878906 25.121094 56 56 56s56-25.121094 56-56c0-2.695312-.296875-5.359375-.671875-8h1.351563c-.382813 2.640625-.679688 5.304688-.679688 8 0 30.878906 25.121094 56 56 56s56-25.121094 56-56c0-2.695312-.296875-5.359375-.671875-8h1.351563c-.382813 2.640625-.679688 5.304688-.679688 8 0 30.878906 25.121094 56 56 56s56-25.121094 56-56c0-16.550781-7.257812-31.398438-18.710938-41.664062 24.472657-5.984376 42.710938-28.039063 42.710938-54.335938v-256c0-13.230469-10.769531-24-24-24zm8 24v9.601562c-8.425781 3.421876-13.265625 11.863282-16.984375 18.46875-4.558594 8.105469-7.136719 11.921876-11.03125 11.921876-3.90625 0-6.480469-3.824219-11.039063-11.929688-4.777343-8.460938-11.304687-20.0625-24.984374-20.0625-13.679688 0-20.207032 11.609375-24.976563 20.078125-4.558594 8.105469-7.136719 11.921875-11.023437 11.921875-3.890626 0-6.457032-3.816406-11.007813-11.921875-3.714844-6.605469-8.546875-15.039063-16.953125-18.46875v-9.609375c0-4.40625 3.59375-8 8-8h112c4.40625 0 8 3.59375 8 8zm-216-48c0-13.230469 10.769531-24 24-24h96c13.230469 0 24 10.769531 24 24v24h-48c-10.414062 0-19.214844 6.710938-22.527344 16h-73.472656zm-32 64c0-4.40625 3.59375-8 8-8h96v16h-96c-4.40625 0-8-3.59375-8-8zm30.585938 24h73.414062v16h-76.800781c1.457031-5.257812 2.601562-10.601562 3.386719-16zm-22.585938 32h96v16h-96c-4.40625 0-8-3.59375-8-8s3.59375-8 8-8zm93.265625 32c-6.546875 18.609375-24.242187 32-45.058594 32-20.351562 0-38.335937-12.847656-45.046875-32zm-200.175781 48c13.308594 0 26.300781-2 38.679687-5.808594 4.328125 1.679688 9.847657 3.984375 11.816407 5.808594-2.417969 2.238281-10.25 5.214844-14.640626 6.894531-9.503906 3.625-18.496093 7.042969-22.328124 13.859375-3.914063 6.949219-2.320313 16.8125-.625 27.261719.742187 4.585937 1.894531 11.738281 1.582031 15.359375-3.054688-1.597656-8.09375-5.839844-11.335938-8.574219-8.199219-6.914062-15.949219-13.441406-24.230469-13.441406s-16.03125 6.527344-24.230468 13.433594c-3.25 2.734375-8.289063 6.984375-11.34375 8.582031-.320313-3.621094.839844-10.78125 1.582031-15.359375 1.6875-10.449219 3.289063-20.3125-.625-27.261719-2.710937-4.816406-8.015625-7.929687-14.238281-10.625 12.214844-6.441406 26.105468-10.128906 40.847656-10.128906zm-85.960938 20.96875c.75.289062 1.488282.589844 2.246094.878906 4.753906 1.808594 12.695312 4.832032 14.058594 6.726563 1.132812 2.347656-.335938 11.449219-1.21875 16.882812-2.125 13.136719-4.328125 26.710938 5.671875 32.664063 9.984375 5.933594 20.25-2.722656 30.183593-11.089844 3.953126-3.328125 11.3125-9.527344 13.90625-9.671875 2.632813.144531 9.992188 6.34375 13.945313 9.671875 7.644531 6.441406 15.484375 13.046875 23.238281 13.046875 2.328125 0 4.640625-.589844 6.9375-1.957031 10-5.953125 7.804688-19.527344 5.679688-32.664063-.882813-5.433593-2.351563-14.527343-1.265625-16.800781 1.410156-1.976562 9.359375-5 14.121093-6.816406 11.886719-4.519532 25.367188-9.65625 25.367188-21.839844 0-6.167969-3.441406-10.511719-8.359375-13.886719 12.40625-6.226562 23.910156-14.359375 34.015625-24.457031.96875-.96875 1.917969-1.953125 2.863281-2.953125 9.335938 24.800781 33.015625 41.296875 59.6875 41.296875 35.175781 0 63.792969-28.617188 63.792969-63.792969v-57.421875c.921875 1.472656 1.902344 3.160156 3.007812 5.125 4.761719 8.480469 11.289063 20.082032 24.960938 20.082032s20.199219-11.609376 24.96875-20.082032c4.558594-8.101562 7.132812-11.917968 11.023438-11.917968 3.894531 0 6.480468 3.816406 11.03125 11.917968 4.769531 8.472656 11.304687 20.082032 24.984374 20.082032 13.679688 0 20.207032-11.601563 24.984376-20.070313 1.117187-1.984375 2.109374-3.699219 3.039062-5.179687v206.347656c-13.585938 16.847656-34.289062 26.910156-56 26.910156h-334.863281c-19.234375 0-37.3125-7.488281-50.914063-21.089844l-20.460937-20.460937c4-19.664063 14.605469-36.945313 29.367187-49.480469zm368.871094 171.03125c4.40625 0 8 3.59375 8 8s-3.59375 8-8 8-8-3.59375-8-8 3.59375-8 8-8zm-14.246094-16h-307.507812l-4-16h315.507812zm-89.753906 24c0 4.40625-3.59375 8-8 8s-8-3.59375-8-8 3.59375-8 8-8 8 3.59375 8 8zm-112 0c0 4.40625-3.59375 8-8 8s-8-3.59375-8-8 3.59375-8 8-8 8 3.59375 8 8zm-112 0c0 4.40625-3.59375 8-8 8s-8-3.59375-8-8 3.59375-8 8-8 8 3.59375 8 8zm32 0c0 22.054688-17.945312 40-40 40s-40-17.945312-40-40c0-19.96875 14.753906-36.425781 33.902344-39.382812l3.90625 15.605468c-12.191406 1.121094-21.808594 11.296875-21.808594 23.777344 0 13.230469 10.769531 24 24 24s24-10.769531 24-24c0-2.816406-.574219-5.488281-1.472656-8h16.585937c.535157 2.625.886719 5.289062.886719 8zm112 0c0 22.054688-17.945312 40-40 40s-40-17.945312-40-40c0-2.710938.351562-5.375.886719-8h16.585937c-.898437 2.511719-1.472656 5.183594-1.472656 8 0 13.230469 10.769531 24 24 24s24-10.769531 24-24c0-2.816406-.574219-5.488281-1.472656-8h16.585937c.535157 2.625.886719 5.289062.886719 8zm112 0c0 22.054688-17.945312 40-40 40s-40-17.945312-40-40c0-2.710938.351562-5.375.886719-8h16.585937c-.898437 2.511719-1.472656 5.183594-1.472656 8 0 13.230469 10.769531 24 24 24s24-10.769531 24-24c0-2.816406-.574219-5.488281-1.472656-8h16.585937c.535157 2.625.886719 5.289062.886719 8zm112 0c0 22.054688-17.945312 40-40 40s-40-17.945312-40-40c0-2.710938.351562-5.375.886719-8h16.585937c-.898437 2.511719-1.472656 5.183594-1.472656 8 0 13.230469 10.769531 24 24 24s24-10.769531 24-24c0-12.480469-9.617188-22.65625-21.808594-23.777344l3.90625-15.605468c19.148438 2.957031 33.902344 19.414062 33.902344 39.382812zm-16-56h-368c-29.703125 0-54.007812-23.257812-55.824219-52.511719l10.734375 10.734375c16.625 16.625 38.722656 25.777344 62.226563 25.777344h334.863281c20.359375 0 40.023438-7.222656 55.585938-19.871094-2.097657 20.09375-18.945313 35.871094-39.585938 35.871094zm0 0"/><path d="m400 339.3125 53.367188-53.367188c6.855468-6.855468 10.632812-15.96875 10.632812-25.65625 0-20.007812-16.28125-36.289062-36.289062-36.289062-9.6875 0-18.808594 3.777344-25.65625 10.632812l-2.054688 2.054688-2.054688-2.054688c-6.855468-6.855468-15.96875-10.632812-25.65625-10.632812-20.007812 0-36.289062 16.28125-36.289062 36.289062 0 9.6875 3.777344 18.808594 10.632812 25.65625zm-27.710938-99.3125c5.414063 0 10.511719 2.113281 14.34375 5.945312l13.367188 13.367188 13.367188-13.367188c3.832031-3.832031 8.929687-5.945312 14.34375-5.945312 11.183593 0 20.289062 9.105469 20.289062 20.289062 0 5.414063-2.113281 10.511719-5.945312 14.34375l-42.054688 42.054688-42.054688-42.054688c-3.832031-3.832031-5.945312-8.929687-5.945312-14.34375 0-11.183593 9.105469-20.289062 20.289062-20.289062zm0 0"/></svg>