<svg height="498pt" viewBox="-1 0 498 498.864" width="498pt" xmlns="http://www.w3.org/2000/svg"><path d="m307.230469 278.222656-16.238281 183.441406c-1.441407 16.558594-15.28125 29.199219-31.839844 29.199219h-181.441406c-16.558594 0-30.398438-12.640625-31.839844-29.199219l-5.039063-56.878906c4.558594 2.160156 9.761719 3.117188 15.199219 2.480469l101.121094-11.601563c68.398437-8 123.757812-54.160156 146.320312-115.679687v-.082031c1.28125-.476563 2.558594-1.039063 3.757813-1.679688zm0 0" fill="#cf9e76"/><path d="m248.433594 242.863281c0 15.28125 8.558594 28.5625 21.199218 35.28125-20.402343 45.839844-63.601562 79.597657-116.242187 85.757813l-114.957031 13.523437-14-158.5625h232c-5.042969 6.640625-8 14.960938-8 24zm0 0" fill="#cf9e76"/><path d="m328.433594 186.863281v16c0 6.402344-3.761719 11.921875-9.203125 14.480469-7.359375-8.878906-18.398438-14.480469-30.796875-14.480469-13.042969 0-24.722656 6.320313-31.921875 16h-232.078125c-8.800782 0-16-7.199219-16-16v-16c0-8.800781 7.199218-16 16-16h288c8.796875 0 16 7.199219 16 16zm0 0" fill="#ecc19c"/><path d="m303.472656 279.984375c-22.5625 61.519531-77.921875 107.679687-146.320312 115.679687l-101.121094 11.601563c-5.4375.636719-10.640625-.320313-15.199219-2.480469-9.601562-4.480468-16.398437-14.242187-16.398437-25.679687l14-1.679688 114.957031-13.523437c52.640625-6.160156 95.839844-39.917969 116.242187-85.757813 5.597657 3.039063 12 4.71875 18.800782 4.71875 5.277344 0 10.398437-1.039062 15.039062-2.878906zm0 0" fill="#ecc19c"/><path d="m269.632812 278.144531c-12.640624-6.71875-21.199218-20-21.199218-35.28125 0-9.039062 2.957031-17.359375 8-24h.078125c7.199219-9.679687 18.878906-16 31.921875-16 12.398437 0 23.4375 5.601563 30.796875 14.480469 5.761719 6.960938 9.203125 15.839844 9.203125 25.519531 0 15.28125-8.5625 28.5625-21.203125 35.359375-1.199219.640625-2.476563 1.203125-3.757813 1.679688v.082031c-4.640625 1.839844-9.761718 2.878906-15.039062 2.878906-6.800782 0-13.203125-1.679687-18.800782-4.71875zm0 0" fill="#b27946"/><path d="m488.433594 403.023438v71.839843c0 4.402344-1.761719 8.402344-4.722656 11.28125-2.878907 2.960938-6.878907 4.71875-11.277344 4.71875-8.800782 0-16-7.199219-16-16v-48c0-4.398437-1.761719-8.398437-4.722656-11.277343-2.878907-2.960938-6.878907-4.722657-11.277344-4.722657-8.800782 0-16 7.199219-16 16v48c0 4.402344-1.761719 8.402344-4.722656 11.28125-2.878907 2.960938-6.878907 4.71875-11.277344 4.71875-8.800782 0-16-7.199219-16-16v-48c0-4.398437-1.761719-8.398437-4.722656-11.277343-2.878907-2.960938-6.878907-4.722657-11.277344-4.722657-8.800782 0-16 7.199219-16 16v48c0 4.402344-1.761719 8.402344-4.722656 11.28125-2.878907 2.960938-6.878907 4.71875-11.277344 4.71875-8.800782 0-16-7.199219-16-16v-71.839843c0-14.320313 9.4375-26.878907 23.199218-30.800782l32.800782-9.359375v-264c0-6.640625 2.71875-12.640625 7.039062-16.960937 4.320313-4.316406 10.320313-7.039063 16.960938-7.039063 13.277344 0 24 10.722657 24 24v264l32.796875 9.359375c13.761719 3.921875 23.203125 16.480469 23.203125 30.800782zm0 0" fill="#ffeaa7"/><path d="m88.433594 10.863281 72.71875 160h-61.601563l-59.117187-136zm0 0" fill="#fcd770"/><path d="m248.433594 106.863281v64h-32v-96h32zm0 0" fill="#aab2bd"/><path d="m280.433594 81.503906v25.359375h-32v-32h-32v32h-32v-25.359375c0-28.960937 15.199218-55.761718 40-70.640625h16c12.398437 7.441407 22.398437 17.839844 29.277344 30.082031 6.882812 12.160157 10.722656 26.078126 10.722656 40.558594zm0 0" fill="#ccd1d9"/><path d="m467.425781 364.535156-26.992187-7.703125v-257.96875c0-17.648437-14.355469-32-32-32-17.648438 0-32 14.351563-32 32v257.96875l-26.992188 7.710938c-17.082031 4.882812-29.007812 20.703125-29.007812 38.464843v71.855469c0 13.234375 10.765625 24 24 24 13.230468 0 24-10.765625 24-24v-48c0-4.414062 3.589844-8 8-8 4.40625 0 8 3.585938 8 8v48c0 13.234375 10.765625 24 24 24 13.230468 0 24-10.765625 24-24v-48c0-4.414062 3.589844-8 8-8 4.40625 0 8 3.585938 8 8v48c0 13.234375 10.765625 24 24 24 13.230468 0 24-10.765625 24-24v-71.855469c0-17.761718-11.929688-33.582031-29.007813-38.472656zm13.007813 110.328125c0 4.417969-3.59375 8-8 8-4.410156 0-8-3.582031-8-8v-48c0-13.230469-10.769532-24-24-24-13.234375 0-24 10.769531-24 24v48c0 4.417969-3.59375 8-8 8-4.410156 0-8-3.582031-8-8v-48c0-13.230469-10.769532-24-24-24-13.234375 0-24 10.769531-24 24v48c0 4.417969-3.59375 8-8 8-4.410156 0-8-3.582031-8-8v-71.855469c0-10.65625 7.160156-20.152343 17.40625-23.078124l38.59375-11.035157v-270.03125c0-8.824219 7.175781-16 16-16 8.824218 0 16 7.175781 16 16v270.03125l38.589844 11.027344c10.25 2.933594 17.410156 12.429687 17.410156 23.085937zm0 0"/><path d="m336.433594 242.863281c0-8.664062-2.34375-16.773437-6.371094-23.800781 3.992188-4.359375 6.371094-10.101562 6.371094-16.199219v-16c0-13.230469-10.769532-24-24-24h-56v-48h32v-33.351562c0-31.566407-16.816406-61.265625-43.882813-77.503907l-1.902343-1.144531h-20.433594l-1.902344 1.144531c-27.066406 16.238282-43.878906 45.9375-43.878906 77.503907v33.351562h32v48h-42.121094l-74.03125-162.863281-62.210938 31.097656 57.289063 131.765625h-62.925781c-13.234375 0-24 10.769531-24 24v16c0 10.625 6.980468 19.542969 16.558594 22.703125l12.777343 144.832032-13.335937 1.570312v7.121094c0 10.351562 4.429687 20.230468 12.152344 27.125 1.453124 1.296875 3.03125 2.410156 4.652343 3.441406l4.65625 52.726562c1.832031 20.792969 18.960938 36.480469 39.839844 36.480469h181.402344c20.878906 0 38.007812-15.6875 39.839843-36.488281l15.832032-179.453125c13.015625-8.59375 21.625-23.328125 21.625-40.058594zm-297.195313 151.410157c-2.574219-2.296876-4.46875-5.105469-5.597656-8.21875l120.710937-14.191407c51.007813-6 95.945313-37.695312 119.160157-83.398437 4.695312 1.535156 9.703125 2.398437 14.921875 2.398437.597656 0 1.183594-.0625 1.773437-.085937-24.792969 53.328125-74.886719 90.023437-133.96875 96.976562l-101.140625 11.558594c-5.859375.648438-11.472656-1.128906-15.859375-5.039062zm249.195313-119.410157c-17.648438 0-32-14.351562-32-32 0-17.648437 14.351562-32 32-32 17.644531 0 32 14.351563 32 32 0 17.648438-14.355469 32-32 32zm-96-176v-17.351562c0-25.253907 13.078125-49.0625 34.277344-62.648438h11.449218c21.191406 13.585938 34.273438 37.394531 34.273438 62.648438v17.351562h-16v-32h-48v32zm32-16h16v80h-16zm-173.640625-44.230469 33.792969-16.898437 64.148437 141.128906h-43.925781zm-34.359375 148.230469c0-4.414062 3.589844-8 8-8h288c4.40625 0 8 3.585938 8 8v16c0 1.25-.363282 2.425781-.898438 3.511719-8.382812-7.160156-19.238281-11.511719-31.101562-11.511719-14.167969 0-26.882813 6.207031-35.679688 16h-228.320312c-4.410156 0-8-3.582031-8-8zm16.734375 40h210.0625c-1.773438 5.015625-2.796875 10.382813-2.796875 16 0 15.535157 7.445312 29.328125 18.933594 38.113281-20.765626 41.085938-61.09375 69.609376-106.878907 74.992188l-106.816406 12.558594zm249.871093 234.113281c-1.101562 12.472657-11.382812 21.886719-23.910156 21.886719h-181.394531c-12.527344 0-22.804687-9.414062-23.902344-21.886719l-4.039062-45.816406c1.007812.085938 2 .273438 3.015625.273438 1.367187 0 2.742187-.082032 4.121094-.234375l101.167968-11.558594c58.382813-6.871094 108.710938-40.273437 137.917969-89.625zm0 0"/></svg>