<svg height="490pt" viewBox="-109 0 490 490.248" width="490pt" xmlns="http://www.w3.org/2000/svg"><path d="m104.125 398.566406v-127.359375l27.519531-49.4375 4.480469 4.476563 4.480469-4.476563 27.519531 49.4375v127.359375c9.757812 8.800782 16 21.523438 16 35.679688 0 26.480468-21.519531 48-48 48s-48-21.519532-48-48c0-14.15625 6.238281-26.878906 16-35.679688zm0 0" fill="#b4dd7f"/><path d="m152.125 434.246094c0 8.839844-7.164062 16-16 16s-16-7.160156-16-16c0-8.835938 7.164062-16 16-16s16 7.164062 16 16zm0 0" fill="#8cc152"/><path d="m136.125 10.246094-80 64 47.359375 73.28125c2.238281-.878906 4.71875-1.28125 7.28125-1.28125 6 0 11.757813 2.402344 16 6.640625l9.359375 9.359375 9.359375-9.359375c4.238281-4.238281 10-6.640625 16-6.640625 2.558594 0 5.039063.402344 7.28125 1.28125l47.359375-73.28125zm0 0" fill="#b4dd7f"/><g fill="#ffeaa7"><path d="m160.125 202.246094 56 80-24 32-24-43.039063-27.519531-49.4375zm0 0"/><path d="m131.644531 221.769531-27.519531 49.4375-24 43.039063-24-32 56-80zm0 0"/><path d="m264.125 158.886719v38.722656c0 5.679687-2.320312 10.878906-6.082031 14.558594-3.679688 3.761719-8.878907 6.078125-14.558594 6.078125-2.242187 0-4.398437-.316406-6.558594-1.039063l-68.800781-22.960937 9.359375-9.359375c4.238281-4.238281 6.640625-10 6.640625-16 0-4-1.039062-7.679688-2.882812-10.957031l55.683593-18.640626c2.160157-.722656 4.316407-1.042968 6.558594-1.042968 11.359375 0 20.640625 9.28125 20.640625 20.640625zm0 0"/><path d="m104.125 194.246094-68.800781 22.960937c-2.160157.722657-4.320313 1.039063-6.558594 1.039063-11.363281 0-20.640625-9.277344-20.640625-20.636719v-38.722656c0-5.679688 2.320312-10.878907 6.078125-14.558594 3.679687-3.761719 8.882813-6.082031 14.5625-6.082031 2.238281 0 4.398437.320312 6.558594 1.042968l55.679687 18.640626c-1.839844 3.277343-2.878906 6.957031-2.878906 10.957031 0 6 2.398438 11.761719 6.640625 16zm0 0"/></g><path d="m140.605469 221.769531-4.480469 4.476563-4.480469-4.476563-19.519531-19.523437-17.359375-17.359375c-4.242187-4.238281-6.640625-10-6.640625-16 0-4 1.039062-7.679688 2.878906-10.957031.960938-1.839844 2.238282-3.523438 3.761719-5.042969 2.398437-2.398438 5.359375-4.320313 8.71875-5.359375 2.238281-.878906 4.71875-1.28125 7.28125-1.28125 6 0 11.757813 2.402344 16 6.640625l9.359375 9.359375 9.359375-9.359375c4.238281-4.238281 10-6.640625 16-6.640625 2.558594 0 5.039063.402344 7.28125 1.28125 3.359375 1.039062 6.320313 2.960937 8.71875 5.359375 1.519531 1.519531 2.800781 3.203125 3.757813 5.042969 1.84375 3.277343 2.882812 6.957031 2.882812 10.957031 0 6-2.402344 11.761719-6.640625 16l-17.359375 17.359375zm0 0" fill="#ff826e"/><path d="m243.476562 130.246094c-3.074218 0-6.121093.496094-9.066406 1.472656l-50.246094 16.753906c-1.238281-1.375-2.59375-2.609375-4.054687-3.746094l46.65625-72.207031-90.640625-72.519531-90.640625 72.511719 46.65625 72.207031c-1.464844 1.128906-2.816406 2.371094-4.054687 3.746094l-50.265626-16.753906c-2.929687-.96875-5.976562-1.464844-9.046874-1.464844-15.800782 0-28.648438 12.851562-28.648438 28.648437v38.707031c0 15.796876 12.847656 28.644532 28.648438 28.644532 3.070312 0 6.117187-.492188 9.0625-1.46875l63.59375-21.203125-55.175782 78.824219 34.863282 46.496093 15.007812-26.910156v93.144531c-10.210938 10.445313-16 24.496094-16 39.117188 0 30.882812 25.128906 56 56 56s56-25.117188 56-56c0-14.613282-5.792969-28.671875-16-39.117188v-93.144531l15.007812 26.910156 34.863282-46.496093-55.175782-78.824219 63.609376 21.203125c2.925781.976562 5.972656 1.46875 9.046874 1.46875 15.800782 0 28.648438-12.847656 28.648438-28.644532v-38.707031c0-15.796875-12.847656-28.648437-28.648438-28.648437zm-107.351562 84.691406-35.722656-35.714844c-2.757813-2.765625-4.277344-6.4375-4.277344-10.34375 0-8.070312 6.558594-14.632812 14.621094-14.632812 3.851562 0 7.617187 1.5625 10.347656 4.289062l15.03125 15.023438 15.03125-15.023438c2.769531-2.765625 6.441406-4.289062 10.34375-4.289062 8.0625 0 14.625 6.5625 14.625 14.632812 0 3.90625-1.519531 7.585938-4.28125 10.34375zm8-132.691406h20.183594l-20.183594 50.457031zm-16 50.457031-20.183594-50.457031h20.183594zm33.375 5.542969c-.832031 0-1.632812.179687-2.457031.242187l22.496093-56.242187h19.890626l-36.417969 56.355468c-1.160157-.136718-2.304688-.355468-3.511719-.355468zm31.816406-72h-114.382812l57.191406-45.75zm-122.503906 16h19.886719l22.496093 56.242187c-.816406-.0625-1.617187-.242187-2.449218-.242187-1.207032 0-2.351563.21875-3.519532.355468zm-38.023438 127.347656c-1.304687.4375-2.65625.652344-4.015624.652344-6.976563 0-12.648438-5.671875-12.648438-12.644532v-38.707031c0-6.972656 5.671875-12.648437 12.648438-12.648437 1.359374 0 2.710937.21875 4 .648437l47.957031 15.992188c-.390625 1.9375-.605469 3.9375-.605469 5.992187 0 8.175782 3.183594 15.863282 8.96875 21.65625l.214844.21875zm46.34375 90-13.136718-17.503906 47.207031-67.441406 8.542969 8.542968zm83.648438 104.902344c8.488281 7.609375 13.34375 18.449218 13.34375 29.75 0 22.058594-17.945312 40-40 40-22.058594 0-40-17.941406-40-40 0-11.300782 4.855469-22.140625 13.34375-29.75l2.65625-2.382813v-128.824219l21.382812-38.351562 2.617188 2.621094 2.613281-2.613282 21.386719 38.34375v128.816407zm30.335938-104.902344-42.617188-76.410156 8.542969-8.542969 47.210937 67.4375zm63.007812-101.992188c0 6.972657-5.671875 12.644532-12.648438 12.644532-1.359374 0-2.710937-.214844-4-.644532l-56.542968-18.847656.222656-.226562c5.785156-5.785156 8.96875-13.472656 8.96875-21.648438 0-2.054687-.21875-4.054687-.609375-5.992187l47.945313-15.984375c1.304687-.4375 2.65625-.65625 4.015624-.65625 6.976563 0 12.648438 5.675781 12.648438 12.648437zm0 0"/><path d="m136.125 410.246094c-13.234375 0-24 10.769531-24 24h16c0-4.40625 3.582031-8 8-8 4.414062 0 8 3.59375 8 8 0 4.410156-3.585938 8-8 8v16c13.230469 0 24-10.765625 24-24 0-13.230469-10.769531-24-24-24zm0 0"/><path d="m128.125 378.246094h16v16h-16zm0 0"/><path d="m128.125 346.246094h16v16h-16zm0 0"/><path d="m128.125 314.246094h16v16h-16zm0 0"/></svg>