<svg height="496pt" viewBox="0 0 496 496" width="496pt" xmlns="http://www.w3.org/2000/svg"><path d="m488 296v8l-8.71875 40h-465.359375c-3.921875-15.679688-5.921875-31.761719-5.921875-48zm0 0" fill="#fcd770"/><path d="m479.28125 344-17.601562 80.960938c-8 36.800781-40.558594 63.039062-78.160157 63.039062h-215.917969c-57.921874 0-110.242187-34.71875-132.722656-88.160156l-11.359375-26.960938c-3.917969-9.359375-7.121093-19.039062-9.597656-28.878906zm0 0" fill="#e6e9ed"/><path d="m400 152v16c0 8.800781-7.199219 16-16 16h-208c-8.800781 0-16-7.199219-16-16v-16c0-8.800781 7.199219-16 16-16h208c8.800781 0 16 7.199219 16 16zm0 0" fill="#fcd770"/><path d="m384 184 24 112h-48.640625l-14.640625-65.761719c-.796875-3.597656-4.078125-6.238281-7.839844-6.238281h-113.757812c-3.761719 0-7.042969 2.640625-7.839844 6.238281l-14.640625 65.761719h-48.640625l24-112zm0 0" fill="#ccd1d9"/><g fill="#69d6f4"><path d="m344.71875 230.238281 14.640625 65.761719h-158.71875l14.640625-65.761719c.796875-3.597656 4.078125-6.238281 7.839844-6.238281h113.757812c3.761719 0 7.042969 2.640625 7.839844 6.238281zm0 0"/><path d="m320 416c0 17.671875-14.328125 32-32 32s-32-14.328125-32-32 14.328125-32 32-32 32 14.328125 32 32zm0 0"/><path d="m400 416c0 13.253906-10.746094 24-24 24s-24-10.746094-24-24 10.746094-24 24-24 24 10.746094 24 24zm0 0"/><path d="m224 416c0 22.089844-17.910156 40-40 40s-40-17.910156-40-40 17.910156-40 40-40 40 17.910156 40 40zm0 0"/></g><path d="m440 120h32v176h-32zm0 0" fill="#e6e9ed"/><path d="m440 88h32v32h-32zm0 0" fill="#fcd770"/><path d="m488 80v8h-64v-8l12.558594-56.398438c2-9.121093 10.082031-15.601562 19.441406-15.601562s17.441406 6.480469 19.441406 15.601562zm0 0" fill="#b4dd7f"/><path d="m184 368c-26.472656 0-48 21.527344-48 48s21.527344 48 48 48 48-21.527344 48-48-21.527344-48-48-48zm0 80c-17.648438 0-32-14.351562-32-32s14.351562-32 32-32 32 14.351562 32 32-14.351562 32-32 32zm0 0"/><path d="m288 376c-22.054688 0-40 17.945312-40 40s17.945312 40 40 40 40-17.945312 40-40-17.945312-40-40-40zm0 64c-13.230469 0-24-10.769531-24-24s10.769531-24 24-24 24 10.769531 24 24-10.769531 24-24 24zm0 0"/><path d="m376 384c-17.648438 0-32 14.351562-32 32s14.351562 32 32 32 32-14.351562 32-32-14.351562-32-32-32zm0 48c-8.824219 0-16-7.175781-16-16s7.175781-16 16-16 16 7.175781 16 16-7.175781 16-16 16zm0 0"/><path d="m496 96v-16l-12.71875-58.128906c-2.867188-12.871094-14.089844-21.871094-27.28125-21.871094s-24.414062 9-27.28125 21.878906l-12.527344 56.386719-.191406 17.734375h16v192h-17.527344l-20.992187-97.96875c8.527343-3.679688 14.519531-12.167969 14.519531-22.03125v-16c0-13.230469-10.769531-24-24-24h-208c-13.230469 0-24 10.769531-24 24v16c0 9.863281 5.992188 18.351562 14.519531 22.03125l-20.992187 97.96875h-145.527344v8c0 27.609375 5.433594 54.511719 16.152344 79.96875l11.375 27.015625c23.785156 56.511719 78.777344 93.015625 140.089844 93.015625h215.902343c41.097657 0 77.265625-29.152344 85.992188-69.304688l26.304687-120.992187.183594-17.703125h-16v-192zm-51.664062-70.648438c1.222656-5.511718 6.023437-9.351562 11.664062-9.351562s10.441406 3.839844 11.664062 9.351562l12.144532 54.648438h-47.609375zm-276.335938 126.648438c0-4.414062 3.59375-8 8-8h208c4.40625 0 8 3.585938 8 8v16c0 4.414062-3.59375 8-8 8h-208c-4.40625 0-8-3.585938-8-8zm14.472656 40h195.0625l20.570313 96h-32.34375l-13.226563-59.472656c-1.632812-7.367188-8.054687-12.527344-15.613281-12.527344h-113.84375c-7.558594 0-13.980469 5.160156-15.613281 12.527344l-13.21875 59.472656h-32.34375zm166.894532 96h-138.734376l12.445313-56h113.832031zm34.152343 192h-215.902343c-54.855469 0-104.058594-32.664062-125.335938-83.214844l-11.378906-27.015625c-2.460938-5.839843-4.542969-11.777343-6.398438-17.769531h444.871094l-15.496094 71.296875c-7.144531 32.855469-36.726562 56.703125-70.359375 56.703125zm89.335938-144h-452.550781c-2.265626-10.503906-3.6875-21.175781-4.136719-32h463.648437zm-24.855469-48v-160h16v160zm16-176h-16v-16h16zm0 0"/></svg>