<svg height="496pt" viewBox="-40 0 496 496" width="496pt" xmlns="http://www.w3.org/2000/svg"><path d="m88.335938 456v8c0 13.28125-10.71875 24-24 24-6.640626 0-12.640626-2.71875-16.960938-7.039062-4.320312-4.320313-7.039062-10.320313-7.039062-16.960938v-8zm0 0" fill="#fcd770"/><path d="m40.335938 344h48v80h-48zm0 0" fill="#b27946"/><path d="m40.335938 424h56c4.398437 0 8 3.601562 8 8v16c0 4.398438-3.601563 8-8 8h-64c-4.398438 0-8-3.601562-8-8v-16c0-4.398438 3.601562-8 8-8zm0 0" fill="#e6e9ed"/><path d="m64.335938 296h8c6.238281 0 12.238281 1.199219 17.761718 3.441406 13.039063 5.199219 23.359375 16 27.757813 29.4375 1.601562 4.722656 2.480469 9.839844 2.480469 15.121094h-112c0-13.28125 5.359374-25.28125 14.078124-33.921875 4.5625-4.558594 10.082032-8.238281 16.160157-10.71875 5.523437-2.160156 11.523437-3.359375 17.761719-3.359375zm0 0" fill="#e6e9ed"/><path d="m64.335938 8v288h-8c-6.238282 0-12.238282 1.199219-17.761719 3.359375l-30.238281-219.359375 48-72zm0 0" fill="#ffeaa7"/><path d="m72.335938 8 48 72-30.238282 219.441406c-5.523437-2.242187-11.523437-3.441406-17.761718-3.441406h-8v-288zm0 0" fill="#fcd770"/><path d="m376.335938 32v8h-48v-8c0-13.28125 10.71875-24 24-24 6.640624 0 12.640624 2.71875 16.960937 7.039062 4.320313 4.320313 7.039063 10.320313 7.039063 16.960938zm0 0" fill="#ffeaa7"/><path d="m392.335938 48v16c0 4.398438-3.601563 8-8 8h-64c-4.398438 0-8-3.601562-8-8v-16c0-4.398438 3.601562-8 8-8h64c4.398437 0 8 3.601562 8 8zm0 0" fill="#e6e9ed"/><path d="m328.335938 72h48v80h-48zm0 0" fill="#b27946"/><path d="m394.257812 185.921875c-4.5625 4.558594-10.082031 8.238281-16.160156 10.71875-5.523437 2.160156-11.523437 3.359375-17.761718 3.359375h-16c-6.238282 0-12.238282-1.199219-17.761719-3.441406-13.039063-5.199219-23.359375-16-27.757813-29.4375-1.601562-4.722656-2.480468-9.839844-2.480468-15.121094h112c0 13.28125-5.359376 25.28125-14.078126 33.921875zm0 0" fill="#e6e9ed"/><path d="m360.335938 200c6.238281 0 12.238281-1.199219 17.761718-3.359375l30.238282 219.359375-48 72h-8v-288zm0 0" fill="#fcd770"/><path d="m352.335938 200v288h-8l-48-72 30.238281-219.441406c5.523437 2.242187 11.523437 3.441406 17.761719 3.441406zm0 0" fill="#ffeaa7"/><path d="m122.921875 320.128906c-5.136719-10.832031-13.601563-19.792968-24.121094-25.464844l29.878907-216.585937-52.0625-78.078125h-24.5625l-52.054688 78.089844 29.871094 216.582031c-17.566406 9.464844-29.535156 28.023437-29.535156 49.328125v8h32v64c-8.824219 0-16 7.175781-16 16v16c0 8.824219 7.175781 16 16 16 0 17.648438 14.351562 32 32 32 17.648437 0 32-14.351562 32-32 8.824218 0 16-7.175781 16-16h8c35.289062 0 64-28.710938 64-64 0-34.414062-27.328126-62.496094-61.414063-63.871094zm-10.921875-238.21875-28.585938 207.203125c-3.582031-.730469-7.285156-1.113281-11.078124-1.113281v-265.574219zm-95.328125 0 39.664063-59.484375v265.574219c-3.792969 0-7.503907.390625-11.089844 1.113281zm39.664063 222.089844h16c19.320312 0 35.480468 13.769531 39.191406 32h-94.382813c3.710938-18.230469 19.871094-32 39.191407-32zm-8 48h32v64h-32zm16 128c-8.824219 0-16-7.175781-16-16h32c0 8.824219-7.175782 16-16 16zm32-32h-64l-.015626-16h64.015626zm24-16h-8c0-8.824219-7.175782-16-16-16v-64h32v-8c0-2.503906-.222657-4.945312-.542969-7.359375 22.933593 3.597656 40.542969 23.429687 40.542969 47.359375 0 26.472656-21.527344 48-48 48zm0 0"/><path d="m386.800781 201.328125c17.566407-9.464844 29.535157-28.023437 29.535157-49.328125v-8h-32v-64c8.824218 0 16-7.175781 16-16v-16c0-8.824219-7.175782-16-16-16 0-17.648438-14.351563-32-32-32-17.648438 0-32 14.351562-32 32-8.824219 0-16 7.175781-16 16h-8c-35.289063 0-64 28.710938-64 64 0 34.414062 27.328124 62.496094 61.417968 63.871094 5.132813 10.832031 13.597656 19.792968 24.117188 25.464844l-29.878906 216.585937 52.0625 78.078125h24.5625l52.054687-78.089844zm-18.464843-57.328125h-32v-64h32zm-16-128c8.824218 0 16 7.175781 16 16h-32c0-8.824219 7.175781-16 16-16zm-32 32h64l.015624 16h-64.015624zm-32 96v8c0 2.503906.222656 4.945312.542968 7.359375-22.933594-3.597656-40.542968-23.429687-40.542968-47.359375 0-26.472656 21.527343-48 48-48h8c0 8.824219 7.175781 16 16 16v64zm16.808593 16h94.390625c-3.71875 18.230469-19.871094 32-39.191406 32h-16c-19.328125 0-35.488281-13.769531-39.199219-32zm-.472656 254.089844 28.585937-207.203125c3.582032.722656 7.285157 1.113281 11.078126 1.113281v265.574219zm55.664063 59.484375v-265.574219c3.792968 0 7.503906-.390625 11.089843-1.113281l28.574219 207.203125zm0 0"/></svg>