<svg height="496pt" viewBox="0 0 496 496" width="496pt" xmlns="http://www.w3.org/2000/svg"><g fill="#838f9b"><path d="m56 177.679688v32.800781l-32.800781-1.679688c-8.558594-.480469-15.199219-7.441406-15.199219-16v-.800781c0-8.800781 7.199219-16 16-16zm0 0"/><path d="m157.839844 182.960938c5.679687 10.320312 14.960937 18.320312 26.160156 22.238281v11.839843l-64-3.277343v-32.800781zm0 0"/><path d="m280 189.28125v32.796875l-64-3.359375v-13.519531c9.679688-3.359375 17.921875-9.757813 23.601562-18.078125zm0 0"/><path d="m392 195.039062v32.800782l-48-2.480469v-32.800781zm0 0"/><path d="m488 215.199219v.800781c0 8.800781-7.199219 16-16 16l-16-.800781v-32.878907l16.800781.878907c8.558594.480469 15.199219 7.441406 15.199219 16zm0 0"/><path d="m488 56v.800781c0 8.558594-6.640625 15.519531-15.199219 16l-16.800781.878907v-32.878907l16-.800781c8.800781 0 16 7.199219 16 16zm0 0"/><path d="m392 44.160156v32.800782l-48 2.480468v-32.800781zm0 0"/><path d="m280 49.921875v32.796875l-48 2.5625v-32.882812zm0 0"/><path d="m168 55.761719v32.796875l-48 2.480468v-32.800781zm0 0"/><path d="m56 61.519531v32.800781l-32 1.679688c-8.800781 0-16-7.199219-16-16v-.800781c0-8.558594 6.640625-15.519531 15.199219-16zm0 0"/></g><path d="m456 231.199219v32.800781h-64v-256h64zm0 0" fill="#fcd770"/><path d="m344 192.558594v63.441406h-64v-240h64zm0 0" fill="#b4dd7f"/><path d="m232 52.398438v71.839843c-8.480469-7.597656-19.679688-12.238281-32-12.238281s-23.519531 4.640625-32 12.320312v-100.320312h64zm0 0" fill="#ff826e"/><path d="m120 180.960938v59.039062h-64v-208h64zm0 0" fill="#e6e9ed"/><path d="m200 208c-5.601562 0-10.960938-.960938-16-2.800781v266.800781c0 8.800781 7.199219 16 16 16 4.398438 0 8.398438-1.761719 11.28125-4.71875 2.957031-2.882812 4.71875-6.882812 4.71875-11.28125v-266.800781c-5.039062 1.839843-10.398438 2.800781-16 2.800781zm0 0" fill="#cf9e76"/><path d="m184 205.199219c-11.199219-3.917969-20.480469-11.917969-26.160156-22.238281-3.761719-6.800782-5.839844-14.640626-5.839844-22.960938 0-14.160156 6.160156-26.960938 16-35.679688 8.480469-7.679687 19.679688-12.320312 32-12.320312s23.519531 4.640625 32 12.238281c9.839844 8.800781 16 21.601563 16 35.761719 0 10.078125-3.121094 19.441406-8.398438 27.121094-5.679687 8.320312-13.921874 14.71875-23.601562 18.078125-5.039062 1.839843-10.398438 2.800781-16 2.800781s-10.960938-.960938-16-2.800781zm0 0" fill="#ffc729"/><path d="m473.238281 80.777344c12.761719-.65625 22.761719-11.191406 22.761719-23.96875v-.808594c0-13.222656-10.753906-23.992188-24.390625-23.992188 0 0-.007813 0-.015625 0l-7.59375.390626v-32.398438h-80v36.542969l-32 1.648437v-30.191406h-80v34.328125l-32 1.65625v-27.984375h-80v32.128906l-32 1.65625v-25.785156h-80v29.921875l-25.238281 1.300781c-12.761719.65625-22.761719 11.191406-22.761719 23.96875v.808594c0 13.222656 10.753906 23.992188 24.390625 23.992188h.015625l23.59375-1.222657v66.460938l-24-1.230469c-13.230469 0-24 10.769531-24 24v.808594c0 12.785156 10 23.3125 22.761719 23.96875l25.238281 1.300781v29.921875h80v-25.785156l31.632812 1.640625.832032-15.984375-32.464844-1.679688v-16.792968l25.214844 1.304687c5.617187 8.527344 13.503906 15.394531 22.785156 19.824219v261.472656c0 13.230469 10.769531 24 24 24s24-10.769531 24-24v-261.480469c7.527344-3.589843 14.152344-8.765625 19.375-15.160156l28.625 1.480469v16.800781l-32.398438-1.671875-.832031 15.984375 33.230469 1.71875v34.328125h80v-30.191406l32 1.648437v36.542969h80v-32.40625l8 .40625c13.230469 0 24-10.769531 24-24v-.808594c0-12.785156-10-23.3125-22.761719-23.96875l-9.238281-.480468v-109.484376zm-1.238281-32.777344c4.40625 0 8 3.585938 8 8v.808594c0 4.253906-3.335938 7.765625-7.585938 7.984375l-8.414062.429687v-16.796875zm-120 39.046875 32-1.648437v101.210937l-32-1.648437zm32-34.480469v16.800782l-32 1.648437v-16.800781zm-112 5.792969v16.800781l-32 1.65625v-16.800781zm-48-26.359375v77.480469c-7.289062-3.472657-15.398438-5.480469-24-5.480469s-16.710938 2.007812-24 5.480469v-77.480469zm-64 32.152344v16.800781l-32 1.648437v-16.792968zm-136 23.847656c-4.40625 0-8-3.585938-8-8v-.808594c0-4.253906 3.335938-7.765625 7.585938-7.984375l24.414062-1.261719v16.796876zm-.414062 112.792969c-4.25-.226563-7.585938-3.730469-7.585938-7.984375v-.808594c0-4.414062 3.59375-8 7.585938-8.007812l24.414062 1.265624v16.796876zm88.414062 31.207031h-48v-192h48zm16-58.632812v-74.734376l32-1.648437v23.902344c-9.878906 10.105469-16 23.90625-16 39.113281 0 4.945312.710938 9.71875 1.921875 14.296875zm80 298.632812c0 4.414062-3.59375 8-8 8s-8-3.585938-8-8v-256.640625c2.625.375 5.28125.640625 8 .640625s5.375-.265625 8-.640625zm-8-272c-22.054688 0-40-17.945312-40-40s17.945312-40 40-40 40 17.945312 40 40-17.945312 40-40 40zm52.320312-20.199219c2.335938-6.167969 3.679688-12.824219 3.679688-19.800781 0-15.214844-6.121094-29.015625-16-39.113281v-28.039063l32-1.65625v89.632813zm83.679688 68.199219h-48v-224h48zm16-30.214844v-16.800781l32 1.648437v16.800782zm96 38.214844h-48v-240h48zm24.414062-48.792969c4.25.226563 7.585938 3.730469 7.585938 7.984375v.808594c0 4.414062-3.59375 8-7.585938 8.007812l-8.414062-.433593v-16.796875zm0 0"/><path d="m416 32h16v16h-16zm0 0"/><path d="m416 224h16v16h-16zm0 0"/><path d="m304 216h16v16h-16zm0 0"/><path d="m304 40h16v16h-16zm0 0"/><path d="m192 48h16v16h-16zm0 0"/><path d="m80 200h16v16h-16zm0 0"/><path d="m80 56h16v16h-16zm0 0"/></svg>