<svg height="496pt" viewBox="0 0 496 496" width="496pt" xmlns="http://www.w3.org/2000/svg"><path d="m128 248c66.238281 0 120 53.761719 120 120s-53.761719 120-120 120-120-53.761719-120-120 53.761719-120 120-120zm0 0" fill="#b4dd7f"/><path d="m128 280c48.640625 0 88 39.359375 88 88s-39.359375 88-88 88-88-39.359375-88-88 39.359375-88 88-88zm0 0" fill="#fcd770"/><path d="m184 356.320312c0 7.441407-2.960938 14.640626-8.320312 20l-47.679688 47.679688-47.679688-47.679688c-5.359374-5.359374-8.320312-12.558593-8.320312-20 0-7.839843 3.199219-14.878906 8.320312-20 5.121094-5.121093 12.160157-8.320312 20-8.320312 7.441407 0 14.640626 2.960938 20 8.320312l7.679688 7.679688 7.679688-7.679688c5.359374-5.359374 12.558593-8.320312 20-8.320312 7.839843 0 14.878906 3.199219 20 8.320312 5.121093 5.121094 8.320312 12.160157 8.320312 20zm0 0" fill="#ff826e"/><path d="m328 48v32h-24c-4.398438 0-8-3.601562-8-8v-16c0-4.398438 3.601562-8 8-8zm0 0" fill="#969faa"/><path d="m488 24v80c0 8.800781-7.199219 16-16 16h-96l-48-24v-64l48-24h96c8.800781 0 16 7.199219 16 16zm-32 64v-48h-72.480469l-23.519531 11.761719v24.476562l23.519531 11.761719zm0 0" fill="#fcd770"/><path d="m181.375 381.945312c6.847656-6.855468 10.625-15.960937 10.625-25.65625 0-20.007812-16.273438-36.289062-36.28125-36.289062-9.6875 0-18.808594 3.777344-25.65625 10.625l-2.0625 2.0625-2.0625-2.054688c-6.847656-6.855468-15.96875-10.632812-25.65625-10.632812-20.007812 0-36.28125 16.28125-36.28125 36.289062 0 9.695313 3.777344 18.808594 10.625 25.65625l53.375 53.367188zm-101.375-25.65625c0-11.183593 9.105469-20.289062 20.28125-20.289062 5.414062 0 10.503906 2.113281 14.34375 5.945312l13.375 13.367188 13.375-13.367188c3.832031-3.832031 8.929688-5.945312 14.34375-5.945312 11.175781 0 20.28125 9.105469 20.28125 20.289062 0 5.421876-2.113281 10.511719-5.9375 14.34375l-42.0625 42.054688-42.0625-42.054688c-3.824219-3.832031-5.9375-8.929687-5.9375-14.34375zm0 0"/><path d="m352 46.832031v34.34375l29.664062 14.824219h82.335938v-64h-82.335938zm96 1.167969v32h-62.550781l-17.449219-8.71875v-14.5625l17.449219-8.71875zm0 0"/><path d="m472 0h-97.886719l-54.113281 27.054688v12.945312h-16c-8.824219 0-16 7.175781-16 16h-176c-17.648438 0-32 14.351562-32 32s14.351562 32 32 32h56c8.824219 0 16 7.175781 16 16s-7.175781 16-16 16h-136c-17.648438 0-32 14.351562-32 32s14.351562 32 32 32h72c8.824219 0 16 7.175781 16 16v8.40625c-66.847656 4.160156-120 59.714844-120 127.59375 0 70.574219 57.425781 128 128 128s128-57.425781 128-128c0-67.878906-53.152344-123.433594-120-127.59375v-8.40625c0-17.648438-14.351562-32-32-32h-72c-8.824219 0-16-7.175781-16-16s7.175781-16 16-16h136c17.648438 0 32-14.351562 32-32s-14.351562-32-32-32h-56c-8.824219 0-16-7.175781-16-16s7.175781-16 16-16h176c0 8.824219 7.175781 16 16 16h16v12.945312l54.113281 27.054688h97.886719c13.230469 0 24-10.769531 24-24v-80c0-13.230469-10.769531-24-24-24zm-232 368c0 61.761719-50.238281 112-112 112s-112-50.238281-112-112 50.238281-112 112-112 112 50.238281 112 112zm64-296v-16h16v16zm176 32c0 4.40625-3.585938 8-8 8h-94.113281l-41.886719-20.945312v-54.109376l41.886719-20.945312h94.113281c4.414062 0 8 3.59375 8 8zm0 0"/><path d="m208 368c0 44.113281-35.886719 80-80 80-18.6875 0-36.878906-6.601562-51.222656-18.574219l-10.25 12.277344c17.207031 14.375 39.039062 22.296875 61.472656 22.296875 52.9375 0 96-43.0625 96-96 0-22.433594-7.921875-44.265625-22.296875-61.488281l-12.277344 10.257812c11.972657 14.351563 18.574219 32.542969 18.574219 51.230469zm0 0"/><path d="m32 368c0 22.433594 7.921875 44.265625 22.296875 61.488281l12.277344-10.257812c-11.972657-14.351563-18.574219-32.542969-18.574219-51.230469 0-44.113281 35.886719-80 80-80 18.6875 0 36.878906 6.601562 51.222656 18.574219l10.25-12.277344c-17.207031-14.375-39.039062-22.296875-61.472656-22.296875-52.9375 0-96 43.0625-96 96zm0 0"/></svg>