<?xml version="1.0"?>
<svg xmlns="http://www.w3.org/2000/svg" viewBox="0 0 64 64" width="512" height="512"><g id="flat"><path d="M51,24v8H46V30a2,2,0,0,0-2-2H36a2,2,0,0,1-2-2V16H30V28a4,4,0,0,1-4,4H18V28H14v6a4,4,0,0,0,4,4H31a2,2,0,0,1,2,2v1a2,2,0,0,1-2,2H17a2,2,0,0,0-2,2v2H48V45a2,2,0,0,0-2-2H42a2,2,0,0,1-2-2V39a2,2,0,0,1,2-2h9a4,4,0,0,0,4-4V24Z" style="fill:#d3843d"/><rect x="9" y="51" width="46" height="6" style="fill:#aabece"/><rect x="11" y="57" width="14" height="4" style="fill:#7d8d9c"/><rect x="39" y="57" width="14" height="4" style="fill:#7d8d9c"/><rect x="9" y="47" width="46" height="4" style="fill:#7d8d9c"/><path d="M58,18a3.1,3.1,0,0,0-.4.04,5,5,0,0,0-9.2,0A3.1,3.1,0,0,0,48,18a2.99,2.99,0,0,0-2.822,2.018c-.059,0-.117-.018-.178-.018a2,2,0,0,0,0,4H58a3,3,0,0,0,0-6Z" style="fill:#8ec13f"/><path d="M23,22a4.991,4.991,0,0,0-9.666-1.755A3.934,3.934,0,0,0,8.163,22.93,3,3,0,1,0,6,28H23a3,3,0,0,0,0-6Z" style="fill:#8ec13f"/><path d="M42,10a2.975,2.975,0,0,0-1.368.344A3.992,3.992,0,0,0,37,8c-.03,0-.058.008-.089.009a5.992,5.992,0,0,0-11.839.11A3.994,3.994,0,0,0,26,16H42a3,3,0,0,0,0-6Z" style="fill:#8ec13f"/><rect x="41" y="31" width="5" height="2" style="fill:#ffd782"/><rect x="37" y="31" width="2" height="2" style="fill:#ffd782"/><rect x="25" y="31" width="9" height="2" style="fill:#ffd782"/><rect x="17" y="20" width="2" height="2" style="fill:#c8d952"/><rect x="12" y="23" width="2" height="2" style="fill:#c8d952"/><rect x="29" y="7" width="2" height="2" style="fill:#c8d952"/><rect x="32" y="10" width="2" height="2" style="fill:#c8d952"/><rect x="27" y="11" width="2" height="2" style="fill:#c8d952"/><rect x="53" y="19" width="2" height="2" style="fill:#c8d952"/><rect x="15" y="51" width="2" height="3" style="fill:#f3f2f0"/><rect x="20" y="51" width="2" height="3" style="fill:#f3f2f0"/><rect x="48" y="51" width="2" height="3" style="fill:#f3f2f0"/><rect x="40" y="51" width="2" height="3" style="fill:#f3f2f0"/></g></svg>
