<?xml version="1.0"?>
<svg xmlns="http://www.w3.org/2000/svg" viewBox="0 0 64 64" width="512" height="512"><g id="flat"><polygon points="23 39 12 39 11 35 23 35 23 39" style="fill:#ffd782"/><polygon points="24 48 10 48 12 43 24 43 24 48" style="fill:#ffd782"/><polygon points="23 31 14 31 13 27 23 27 23 31" style="fill:#ffd782"/><polygon points="41 39 52 39 53 35 41 35 41 39" style="fill:#ffd782"/><polygon points="40 48 54 48 52 43 40 43 40 48" style="fill:#ffd782"/><polygon points="41 31 50 31 51 27 41 27 41 31" style="fill:#ffd782"/><path d="M41,48H23c-2.366,0-4.235-1.645-4-4l2-17H43l2,17C45.235,46.355,43.366,48,41,48Z" style="fill:#e97424"/><polygon points="12 39 7 39 5 31 10 31 12 39" style="fill:#e97424"/><polygon points="12 55 7 55 10 48 15 48 12 55" style="fill:#e97424"/><path d="M7,61H4l3-6h5l-2,4A3.021,3.021,0,0,1,7,61Z" style="fill:#f4a531"/><polygon points="10 31 5 31 3 25 8 25 10 31" style="fill:#f4a531"/><path d="M3,25s0-7,3-7l2,7Z" style="fill:#e97424"/><circle cx="28" cy="23" r="2" style="fill:#e97424"/><circle cx="36" cy="23" r="2" style="fill:#e97424"/><rect x="39" y="43" width="2" height="2" style="fill:#ffd782"/><rect x="35" y="43" width="2" height="2" style="fill:#ffd782"/><rect x="39" y="39" width="2" height="2" style="fill:#ffd782"/><rect x="39" y="35" width="2" height="2" style="fill:#ffd782"/><rect x="35" y="39" width="2" height="2" style="fill:#ffd782"/><rect x="31" y="43" width="2" height="2" style="fill:#ffd782"/><polygon points="18 27 13 27 12 22 17 22 18 27" style="fill:#e97424"/><polygon points="17 22 12 22 11 16 16 16 17 22" style="fill:#f4a531"/><polygon points="16 16 11 16 9 10 18 10 16 16" style="fill:#b5554e"/><path d="M18,10H14l2-7h0c2,0,4,1,3,4Z" style="fill:#e97424"/><path d="M9,10h4L11,3h0C9,3,7,4,8,7Z" style="fill:#e97424"/><polygon points="52 39 57 39 59 31 54 31 52 39" style="fill:#e97424"/><polygon points="52 55 57 55 54 48 49 48 52 55" style="fill:#e97424"/><path d="M57,61h3l-3-6H52l2,4A3.021,3.021,0,0,0,57,61Z" style="fill:#f4a531"/><polygon points="54 31 59 31 61 25 56 25 54 31" style="fill:#f4a531"/><path d="M61,25s0-7-3-7l-2,7Z" style="fill:#e97424"/><polygon points="46 27 51 27 52 22 47 22 46 27" style="fill:#e97424"/><polygon points="47 22 52 22 53 16 48 16 47 22" style="fill:#f4a531"/><polygon points="48 16 53 16 55 10 46 10 48 16" style="fill:#b5554e"/><path d="M46,10h4L48,3h0c-2,0-4,1-3,4Z" style="fill:#e97424"/><path d="M55,10H51l2-7h0c2,0,4,1,3,4Z" style="fill:#e97424"/></g></svg>
