<?xml version="1.0"?>
<svg xmlns="http://www.w3.org/2000/svg" viewBox="0 0 64 64" width="512" height="512"><g id="flat"><path d="M24,3H40A16,16,0,0,1,56,19V42A15,15,0,0,1,41,57H23A15,15,0,0,1,8,42V19A16,16,0,0,1,24,3Z" style="fill:#dd3e46"/><path d="M24,57H40a0,0,0,0,1,0,0v2a2,2,0,0,1-2,2H26a2,2,0,0,1-2-2V57A0,0,0,0,1,24,57Z" style="fill:#f1c056"/><path d="M45,43H19a5.735,5.735,0,0,1-6-6V17c.294-5.3,5.693-10,11-10H40c5.307,0,10.706,4.7,11,10V37A5.735,5.735,0,0,1,45,43Z" style="fill:#fff"/><path d="M13,47s2,6,10,6c0,0-3-3-3-6Z" style="fill:#f1c056"/><path d="M51,47s-2,6-10,6c0,0,3-3,3-6Z" style="fill:#f1c056"/><path d="M30,53s-6-1-6-6h4S28,51,30,53Z" style="fill:#f1c056"/><path d="M34,53s6-1,6-6H36S36,51,34,53Z" style="fill:#f1c056"/><path d="M18,16.1l-1.99-.194c.012-.122.314-2.984,2.437-4.157,1.353-.746,3.036-.624,5,.359,1.738.871,3.171,1.077,4.144.6a3.01,3.01,0,0,0,1.429-1.9l1.96.392A5.026,5.026,0,0,1,28.47,14.5c-1.576.773-3.568.566-5.917-.608-1.345-.672-2.4-.808-3.143-.4A3.7,3.7,0,0,0,18,16.1Z" style="fill:#9b1e5a"/><circle cx="24" cy="22" r="5" style="fill:#394d5c"/><path d="M24,24a2,2,0,1,1,2-2A2,2,0,0,1,24,24Zm0-2h0Z" style="fill:#f4f4e6"/><rect x="29" y="28" width="2" height="2" style="fill:#9b1e5a"/><path d="M23,39c-3.175,0-5.571-1.217-6.575-3.339a4.37,4.37,0,0,1,.411-4.567,3.225,3.225,0,0,1,3.406-1.064,12.6,12.6,0,0,0,6.442.021l.632,1.9a14.539,14.539,0,0,1-7.558.021,1.25,1.25,0,0,0-1.376.392,2.381,2.381,0,0,0-.149,2.444C18.893,36.2,20.63,37,23,37Z" style="fill:#9b1e5a"/><path d="M46.005,16.1a3.68,3.68,0,0,0-1.421-2.6c-.74-.407-1.8-.271-3.137.4-2.349,1.174-4.34,1.38-5.917.608A5.026,5.026,0,0,1,33.02,11.2l1.96-.392L34,11l.979-.2a3.022,3.022,0,0,0,1.445,1.916c.972.468,2.4.258,4.129-.608,1.968-.983,3.652-1.105,5.005-.359C47.681,12.919,47.983,15.781,48,15.9Z" style="fill:#9b1e5a"/><circle cx="40" cy="22" r="5" style="fill:#394d5c"/><path d="M40,24a2,2,0,1,1,2-2A2,2,0,0,1,40,24Zm0-2h0Z" style="fill:#f4f4e6"/><rect x="33" y="28" width="2" height="2" style="fill:#9b1e5a"/><path d="M41,39V37c2.37,0,4.107-.8,4.767-2.194a2.381,2.381,0,0,0-.149-2.444,1.252,1.252,0,0,0-1.376-.392,14.539,14.539,0,0,1-7.558-.021l.629-1.9a12.805,12.805,0,0,0,6.445-.02,3.224,3.224,0,0,1,3.406,1.064,4.37,4.37,0,0,1,.411,4.567C46.571,37.783,44.175,39,41,39Z" style="fill:#9b1e5a"/><path d="M38.5,36.868c-6.43-3.674-12.943-.037-13.008,0L24.5,35.132c.306-.174,7.581-4.236,14.992,0Z" style="fill:#394d5c"/><path d="M35.553,39.9a8.637,8.637,0,0,0-7.106,0l-.894-1.79a10.626,10.626,0,0,1,8.894,0Z" style="fill:#9b1e5a"/></g></svg>
