<?xml version="1.0"?>
<svg xmlns="http://www.w3.org/2000/svg" viewBox="0 0 64 64" width="512" height="512"><g id="flat"><path d="M6,26H58c0-8-5.059-6.377-10-8-3.7-1.215-9-4-16-4-6,0-12.3,2.785-16,4C11.06,19.623,6,19,6,26Z" style="fill:#d3843d"/><path d="M32,44c13.255,0,26-2.686,26-6H6C6,41.314,18.745,44,32,44Z" style="fill:#d3843d"/><rect x="5" y="30" width="54" height="4" style="fill:#ffd782"/><rect x="3" y="26" width="58" height="4" rx="2" ry="2" style="fill:#b5554e"/><rect x="3" y="34" width="58" height="4" rx="2" ry="2" style="fill:#b5554e"/><rect x="26" y="18" width="2" height="2" style="fill:#ffd782"/><rect x="19" y="21" width="2" height="2" style="fill:#ffd782"/><rect x="31" y="21" width="2" height="2" style="fill:#ffd782"/><rect x="36" y="19" width="2" height="2" style="fill:#ffd782"/><rect x="44" y="21" width="2" height="2" style="fill:#ffd782"/></g></svg>
