<?xml version="1.0"?>
<svg xmlns="http://www.w3.org/2000/svg" viewBox="0 0 64 64" width="512" height="512"><g id="flat"><path d="M58,18V17a2.768,2.768,0,0,0-3-3H54c-.593-1.9-2-3-5-3-2.227,0-4.518.932-5,3H43a2.919,2.919,0,0,0-3,3v1Z" style="fill:#195c85"/><circle cx="21" cy="16" r="13" style="fill:#fcf05a"/><polygon points="56 49 8 49 24 9 40 9 56 49" style="fill:#67c086"/><polygon points="16.4 28 21 28 24 23 28 33 32 27 35 30 39 20 43 28 47.6 28 40 9 24 9 16.4 28" style="fill:#cdeef6"/><rect x="10.148" y="42.5" width="11.705" height="2" transform="translate(-30.349 43.671) rotate(-70.017)" style="fill:#d1f5c9"/><rect x="43.5" y="27.692" width="2" height="7.616" transform="translate(-8.81 20.076) rotate(-23.199)" style="fill:#d1f5c9"/><rect x="35.5" y="33.938" width="2" height="4.123" transform="translate(-7.641 9.927) rotate(-14.036)" style="fill:#d1f5c9"/><rect x="24.438" y="39" width="4.123" height="2" transform="translate(-18.735 56.002) rotate(-75.957)" style="fill:#d1f5c9"/><rect x="43" y="38.615" width="2.001" height="10.77" transform="translate(-13.194 19.488) rotate(-21.801)" style="fill:#d1f5c9"/><rect x="26" y="12" width="2" height="2" style="fill:#195c85"/><rect x="30" y="14" width="2" height="2" style="fill:#195c85"/><path d="M21,38V37a2.768,2.768,0,0,0-3-3H17c-.593-1.9-2-3-5-3-2.227,0-4.518.932-5,3H6a2.919,2.919,0,0,0-3,3v1Z" style="fill:#195c85"/><rect x="3" y="49" width="58" height="12" style="fill:#f1d77e"/><rect x="15" y="56" width="4" height="2" style="fill:#d3843d"/><rect x="24" y="54" width="4" height="2" style="fill:#d3843d"/><rect x="34" y="56" width="4" height="2" style="fill:#d3843d"/><rect x="42" y="52" width="4" height="2" style="fill:#d3843d"/><rect x="51" y="54" width="4" height="2" style="fill:#d3843d"/><rect x="7" y="53" width="4" height="2" style="fill:#d3843d"/></g></svg>
