<?xml version="1.0"?>
<svg xmlns="http://www.w3.org/2000/svg" viewBox="0 0 64 64" width="512" height="512"><g id="flat"><polygon points="38.414 13.071 38.104 11.093 47.89 10.006 48.11 11.994 38.414 13.071" style="fill:#e97424"/><polygon points="38.598 10.219 37.883 8.351 46.649 5.063 47.351 6.937 38.598 10.219" style="fill:#e97424"/><circle cx="50" cy="11" r="3" style="fill:#dd3e46"/><circle cx="48" cy="5" r="3" style="fill:#dd3e46"/><path d="M27,6H37a2,2,0,0,1,2,2v4a0,0,0,0,1,0,0H25a0,0,0,0,1,0,0V8A2,2,0,0,1,27,6Z" style="fill:#394d5c"/><path d="M25,24l-5-2,.82-8.2A2,2,0,0,1,22.81,12H25Z" style="fill:#394d5c"/><path d="M39,24l5-2-.82-8.2A2,2,0,0,0,41.19,12H39Z" style="fill:#394d5c"/><rect x="25" y="12" width="14" height="16" style="fill:#ffd782"/><rect x="22" y="32" width="20" height="29" style="fill:#dd3e46"/><path d="M10,32H22a0,0,0,0,1,0,0v4a8,8,0,0,1-8,8H10a0,0,0,0,1,0,0V32A0,0,0,0,1,10,32Z" style="fill:#c62636"/><path d="M42,32h4a8,8,0,0,1,8,8v4a0,0,0,0,1,0,0H42a0,0,0,0,1,0,0V32A0,0,0,0,1,42,32Z" transform="translate(96 76) rotate(-180)" style="fill:#c62636"/><polygon points="32 38.285 29 43 22 32 28 32 32 38.285" style="fill:#dd6b9f"/><polygon points="29 43 35 43 42 32 36 32 29 43" style="fill:#eb8cb3"/><rect x="22" y="43" width="20" height="8" style="fill:#eb8cb3"/><polygon points="34 12 30 12 29 6 35 6 34 12" style="fill:#eb8cb3"/><polygon points="39 17 32 18 25 17 25 12 39 12 39 17" style="fill:#22343f"/><rect x="28" y="21" width="3" height="2" style="fill:#394d5c"/><rect x="33" y="21" width="3" height="2" style="fill:#394d5c"/><rect x="25" y="56" width="2" height="2" style="fill:#eb8cb3"/><rect x="29" y="54" width="2" height="2" style="fill:#eb8cb3"/><path d="M14,32H10V44h2a9.618,9.618,0,0,0,2-.231Z" style="fill:#eb8cb3"/><path d="M50,32h4V44H52a9.618,9.618,0,0,1-2-.231Z" style="fill:#eb8cb3"/><rect x="22" y="46" width="8" height="2" style="fill:#fff"/><rect x="32" y="46" width="4" height="2" style="fill:#fff"/><rect x="39" y="46" width="3" height="2" style="fill:#fff"/></g></svg>
