<?xml version="1.0"?>
<svg xmlns="http://www.w3.org/2000/svg" viewBox="0 0 64 64" width="512" height="512"><g id="flat"><rect x="41" y="12" width="20" height="40" style="fill:#d3843d"/><rect x="3" y="40" width="34" height="4" style="fill:#d3843d"/><rect x="41" y="40" width="20" height="4" style="fill:#b5554e"/><polygon points="53 22 49 22 48 16 54 16 53 22" style="fill:#b5554e"/><polygon points="41 25 48.177 17.063 49 22 41 31 41 25" style="fill:#394d5c"/><polygon points="61 25 53.823 17.062 53 22 61 31 61 25" style="fill:#394d5c"/><rect x="44" y="47" width="2" height="2" style="fill:#ffd782"/><rect x="56" y="47" width="5" height="2" style="fill:#ffd782"/><rect x="7" y="44" width="6" height="6" style="fill:#b5554e"/><rect x="27" y="44" width="6" height="6" style="fill:#b5554e"/><path d="M29,36h2a2,2,0,0,1,2,2v2a0,0,0,0,1,0,0H29a0,0,0,0,1,0,0V36A0,0,0,0,1,29,36Z" style="fill:#b5554e"/><polygon points="29 40 11 40 16 36 29 36 29 40" style="fill:#394d5c"/><rect x="17" y="49" width="2" height="2" style="fill:#ffd782"/><rect x="19" y="51" width="2" height="2" style="fill:#ffd782"/><rect x="2" y="49" width="2" height="2" style="fill:#ffd782"/></g></svg>
