<?xml version="1.0"?>
<svg xmlns="http://www.w3.org/2000/svg" viewBox="0 0 64 64" width="512" height="512"><g id="flat"><polygon points="52 30 12 30 12 13 19 9 45 9 52 13 52 30" style="fill:#aabece"/><polygon points="40 18 24 18 25 3 39 3 40 18" style="fill:#394d5c"/><circle cx="32" cy="6" r="3" style="fill:#f4f4e6"/><polygon points="12 37 22 39 32 37 42 39 52 37 52 30 12 30 12 37" style="fill:#b5554e"/><rect x="12" y="18" width="40" height="12" style="fill:#2d75bb"/><polygon points="28 34 23 35 18 34 16 30 30 30 28 34" style="fill:#ffd782"/><polygon points="46 34 41 35 36 34 34 30 48 30 46 34" style="fill:#ffd782"/><polygon points="22 39 22 53 28 57 29 61 35 61 36 57 42 53 42 39 32 37 22 39" style="fill:#f4f4e6"/><polygon points="35 61 29 61 28 57 29 50 32 49 35 50 36 57 35 61" style="fill:#394d5c"/><polygon points="36.804 42.98 32 42.02 27.196 42.98 26.804 41.02 32 39.98 37.196 41.02 36.804 42.98" style="fill:#394d5c"/><polygon points="36.804 46.98 32 46.02 27.196 46.98 26.804 45.02 32 43.98 37.196 45.02 36.804 46.98" style="fill:#394d5c"/><polygon points="22 58 18 59 18 38.111 22 39 22 58" style="fill:#dd3e46"/><polygon points="18 59 12 61 12 37 18 38.111 18 59" style="fill:#7d8d9c"/><polygon points="37 24 32 26 27 24 28 13 36 13 37 24" style="fill:#f4f4e6"/><polygon points="12 55 4 55 4 27 12 23 12 55" style="fill:#aabece"/><rect x="8" y="31" width="4" height="4" style="fill:#394d5c"/><rect x="8" y="39" width="4" height="4" style="fill:#394d5c"/><rect x="8" y="47" width="4" height="4" style="fill:#394d5c"/><polygon points="42 58 46 59 46 38.111 42 39 42 58" style="fill:#dd3e46"/><polygon points="46 59 52 61 52 37 46 38.111 46 59" style="fill:#7d8d9c"/><polygon points="52 55 60 55 60 27 52 23 52 55" style="fill:#aabece"/><rect x="52" y="31" width="4" height="4" transform="translate(108 66) rotate(-180)" style="fill:#394d5c"/><rect x="52" y="39" width="4" height="4" transform="translate(108 82) rotate(-180)" style="fill:#394d5c"/><rect x="52" y="47" width="4" height="4" transform="translate(108 98) rotate(-180)" style="fill:#394d5c"/><polygon points="37 24 61 3 36 13 37 24" style="fill:#dd3e46"/><polygon points="27 24 3 3 28 13 27 24" style="fill:#dd3e46"/><polygon points="27 24 32 26 37 24 36.455 18 32 20 27.545 18 27 24" style="fill:#ffd782"/><circle cx="18" cy="24" r="2" style="fill:#f4f4e6"/><circle cx="46" cy="24" r="2" style="fill:#f4f4e6"/></g></svg>
