<?xml version="1.0"?>
<svg xmlns="http://www.w3.org/2000/svg" viewBox="0 0 64 64" width="512" height="512"><g id="flat"><path d="M19,43H17A10,10,0,0,1,7,33V7L19,3Z" style="fill:#50b3c9"/><path d="M45,43h2A10,10,0,0,0,57,33V7L45,3Z" style="fill:#50b3c9"/><rect x="19" y="3" width="26" height="58" style="fill:#7fcac9"/><polygon points="23 29 23 22 36 3 41 3 23 29" style="fill:#195c85"/><polygon points="29.402 12.643 31.948 8.922 28 3 23 3 29.402 12.643" style="fill:#2d75bb"/><rect x="19" y="29" width="26" height="4" style="fill:#2d75bb"/><rect x="29" y="29" width="6" height="4" style="fill:#50b3c9"/><path d="M26,58H23a1,1,0,0,1-1-1V52h2v4h2Z" style="fill:#fff"/><rect x="28" y="56" width="2" height="2" style="fill:#fff"/><rect x="10" y="6" width="2" height="18" style="fill:#fff"/><rect x="52" y="6" width="2" height="8" style="fill:#fff"/><rect x="52" y="16" width="2" height="4" style="fill:#fff"/><rect x="10" y="32" width="2" height="2" style="fill:#fff"/></g></svg>
