<?xml version="1.0"?>
<svg xmlns="http://www.w3.org/2000/svg" viewBox="0 0 64 64" width="512" height="512"><g id="flat"><path d="M10.851,5.437l4.465-1.488-.632-1.9-6,2A1,1,0,0,0,8.2,4.4L5.5,8H2v2H4V20a1,1,0,0,0,.105.447L5,22.236V27H7V22a1,1,0,0,0-.105-.447L6,19.764V10a1,1,0,0,0,.8-.4L9.108,6.522,11,8.414V13h2V8a1,1,0,0,0-.293-.707Z" style="fill:#d3843d"/><rect x="19" y="39" width="38" height="8" style="fill:#cfdfe8"/><rect x="19" y="25" width="38" height="10" style="fill:#cfdfe8"/><rect x="22" y="11" width="32" height="10" style="fill:#cfdfe8"/><rect x="3" y="41" width="4" height="20" style="fill:#d3843d"/><rect x="57" y="41" width="4" height="20" style="fill:#d3843d"/><path d="M57,49A157.25,157.25,0,0,0,7,49V45a157.25,157.25,0,0,1,50,0Z" style="fill:#b5554e"/><path d="M57,57A157.25,157.25,0,0,0,7,57V53a157.25,157.25,0,0,1,50,0Z" style="fill:#b5554e"/><path d="M23,55.265V39H19V55.543C20.261,55.44,21.6,55.345,23,55.265Z" style="fill:#d3843d"/><path d="M41,55.265V39h4V55.543C43.739,55.44,42.4,55.345,41,55.265Z" style="fill:#d3843d"/><rect x="3" y="45" width="4" height="4" style="fill:#ebb562"/><rect x="3" y="53" width="4" height="4" style="fill:#ebb562"/><rect x="57" y="45" width="4" height="4" style="fill:#ebb562"/><rect x="57" y="53" width="4" height="4" style="fill:#ebb562"/><path d="M60.861,25H15.079A8.277,8.277,0,0,0,22,21H54.012S56.926,25,60.861,25Z" style="fill:#195c85"/><rect x="19" y="35" width="38" height="4" style="fill:#195c85"/><rect x="26" y="15" width="10" height="6" style="fill:#ad6327"/><rect x="40" y="15" width="10" height="6" style="fill:#ad6327"/><rect x="34" y="29" width="8" height="6" style="fill:#ad6327"/><rect x="46" y="29" width="8" height="6" style="fill:#ad6327"/><rect x="22" y="29" width="8" height="6" style="fill:#ad6327"/><path d="M58.023,11H18.14C29.077,11,38,3,38,3h0S47.077,11,58.023,11Z" style="fill:#195c85"/><rect x="37" y="3" width="2" height="5" style="fill:#143441"/><rect x="16" y="58" width="2" height="2" style="fill:#50b3c9"/><rect x="31" y="60" width="2" height="2" style="fill:#50b3c9"/><rect x="35" y="58" width="2" height="2" style="fill:#50b3c9"/><rect x="18" y="60" width="2" height="2" style="fill:#50b3c9"/><rect x="46" y="60" width="2" height="2" style="fill:#50b3c9"/><path d="M3,32a2,2,0,0,0,2,2H7a2,2,0,0,0,2-2V30H3Z" style="fill:#f98c96"/><path d="M3,28a2,2,0,0,1,2-2H7a2,2,0,0,1,2,2v2H3Z" style="fill:#dd3e46"/><path d="M9,18a2,2,0,0,0,2,2h2a2,2,0,0,0,2-2V16H9Z" style="fill:#f98c96"/><path d="M9,14a2,2,0,0,1,2-2h2a2,2,0,0,1,2,2v2H9Z" style="fill:#dd3e46"/><rect x="58" y="2" width="2" height="2" style="fill:#ffd782"/><rect x="58" y="6" width="2" height="2" style="fill:#ffd782"/><rect x="56" y="4" width="2" height="2" style="fill:#ffd782"/><rect x="60" y="4" width="2" height="2" style="fill:#ffd782"/><rect x="19" y="2" width="2" height="2" style="fill:#ffd782"/><rect x="19" y="6" width="2" height="2" style="fill:#ffd782"/><rect x="17" y="4" width="2" height="2" style="fill:#ffd782"/><rect x="21" y="4" width="2" height="2" style="fill:#ffd782"/><rect x="11" y="35" width="2" height="2" style="fill:#ffd782"/><rect x="11" y="39" width="2" height="2" style="fill:#ffd782"/><rect x="9" y="37" width="2" height="2" style="fill:#ffd782"/><rect x="13" y="37" width="2" height="2" style="fill:#ffd782"/></g></svg>
