<?xml version="1.0"?>
<svg xmlns="http://www.w3.org/2000/svg" viewBox="0 0 64 64" width="512" height="512"><g id="flat"><rect x="48" width="8" height="18" transform="translate(61 -43) rotate(90)" style="fill:#394d5c"/><rect x="6" y="22" width="8" height="14" transform="translate(39 19) rotate(90)" style="fill:#394d5c"/><path d="M39,13V5H13C7,5,3,13,3,13Z" style="fill:#aabece"/><path d="M17,33V25H51c6,0,10,8,10,8Z" style="fill:#aabece"/><rect x="14" y="9" width="6" height="16" style="fill:#d3843d"/><rect x="43" y="29" width="6" height="28" style="fill:#d3843d"/><rect x="35" y="7" width="12" height="4" transform="translate(50 -32) rotate(90)" style="fill:#ffd782"/><rect x="23" y="8" width="2" height="2" style="fill:#394d5c"/><rect x="27" y="8" width="12" height="2" style="fill:#394d5c"/><polygon points="51 9 49 5 47 9 49 13 51 9" style="fill:#7d8d9c"/><polygon points="57 9 55 5 53 9 55 13 57 9" style="fill:#7d8d9c"/><polygon points="11 29 13 25 15 29 13 33 11 29" style="fill:#7d8d9c"/><polygon points="5 29 7 25 9 29 7 33 5 29" style="fill:#7d8d9c"/><polygon points="25 33 21 25 27 25 31 33 25 33" style="fill:#7d8d9c"/><rect x="3" y="57" width="58" height="4" style="fill:#b5554e"/><rect x="20" y="43" width="23" height="10" style="fill:#b5554e"/><path d="M10,43h4a0,0,0,0,1,0,0V53a0,0,0,0,1,0,0H8a0,0,0,0,1,0,0V45A2,2,0,0,1,10,43Z" style="fill:#b5554e"/><path d="M49,43h6a0,0,0,0,1,0,0V53a0,0,0,0,1,0,0H51a2,2,0,0,1-2-2V43A0,0,0,0,1,49,43Z" transform="translate(104 96) rotate(-180)" style="fill:#b5554e"/><rect x="11" y="47" width="3" height="2" style="fill:#f9c770"/><rect x="20" y="47" width="8" height="2" style="fill:#f9c770"/><rect x="30" y="47" width="6" height="2" style="fill:#f9c770"/><rect x="40" y="47" width="3" height="2" style="fill:#f9c770"/><rect x="49" y="47" width="3" height="2" style="fill:#f9c770"/><rect x="17" y="25" width="4" height="8" transform="translate(38 58) rotate(-180)" style="fill:#ffd782"/><rect x="14" y="29" width="6" height="28" style="fill:#d3843d"/><rect x="43" y="9" width="6" height="16" style="fill:#d3843d"/></g></svg>
