<?xml version="1.0"?>
<svg xmlns="http://www.w3.org/2000/svg" viewBox="0 0 64 64" width="512" height="512"><g id="flat"><path d="M56,33H54A10,10,0,0,1,44,23V3L56,7Z" style="fill:#f98c96"/><path d="M8,33h2A10,10,0,0,0,20,23V3L8,7Z" style="fill:#f98c96"/><rect x="24" y="34" width="20" height="27" style="fill:#f98c96"/><rect x="20" y="3" width="24" height="31" style="fill:#dd3e46"/><polygon points="29 18 23 18 36 3 41 3 29 18" style="fill:#f98c96"/><polygon points="28.697 11.418 31.667 8 28 3 23 3 28.697 11.418" style="fill:#9e212e"/><polygon points="41 54 37 54 37 52 39 52 39 48 41 48 41 54" style="fill:#dd3e46"/><rect x="33" y="52" width="2" height="2" style="fill:#dd3e46"/><rect x="11" y="21" width="2" height="12" style="fill:#dd3e46"/><rect x="47" y="21" width="2" height="4" style="fill:#dd3e46"/><rect x="47" y="27" width="2" height="4" style="fill:#dd3e46"/><rect x="11" y="17" width="2" height="2" style="fill:#dd3e46"/><rect x="20" y="22" width="24" height="8" style="fill:#db527d"/><rect x="20" y="18" width="24" height="4" style="fill:#9e212e"/><rect x="20" y="30" width="24" height="4" style="fill:#9e212e"/><rect x="20" y="34" width="4" height="25" style="fill:#dd3e46"/><rect x="24" y="57" width="20" height="4" style="fill:#db527d"/><rect x="20" y="55" width="4" height="4" style="fill:#9e212e"/></g></svg>
