<?xml version="1.0"?>
<svg xmlns="http://www.w3.org/2000/svg" viewBox="0 0 64 64" width="512" height="512"><g id="flat"><path d="M19.932,24.836l-11.1-1.85a1,1,0,0,1-.282-1.881l9.117-4.546.742,1.853L12.2,21.519l8.092,1.349Z" style="fill:#38495c"/><path d="M19.932,44.836l-11.1-1.85a1,1,0,0,1-.282-1.881l9.558-4.722L19,38.118l-6.8,3.4,8.092,1.349Z" style="fill:#38495c"/><polygon points="43 50 17 50 17 34 43 34 53 36 53 48 43 50" style="fill:#50b3c9"/><polygon points="59 22 53 22 53 16 61 14 59 22" style="fill:#f98c96"/><polygon points="59 22 53 22 53 28 61 30 59 22" style="fill:#ed6b7b"/><polygon points="59 42 53 42 53 36 61 34 59 42" style="fill:#cdeef6"/><polygon points="59 42 53 42 53 48 61 50 59 42" style="fill:#a0e0ea"/><path d="M29,34s9,7,0,16H17V34Z" style="fill:#cdeef6"/><polygon points="43 30 17 30 17 14 43 14 53 16 53 28 43 30" style="fill:#dd3e46"/><path d="M29,14s9,7,0,16H17V14Z" style="fill:#f98c96"/><path d="M40.8,26a8.245,8.245,0,0,1,.82,1.905,7.943,7.943,0,0,1,.3,2.095H43l4.918-1s1-7-4-7C43.918,22,44.2,24.635,40.8,26Z" style="fill:#9e212e"/><circle cx="27" cy="22" r="2" style="fill:#dd3e46"/><path d="M17,14s9,7,0,16Z" style="fill:#dd3e46"/><path d="M33.918,14a11.978,11.978,0,0,1,3,8s5-3,5-8Z" style="fill:#f98c96"/><path d="M33.918,30a11.978,11.978,0,0,0,3-8s5,3,5,8Z" style="fill:#f98c96"/><path d="M36.918,22A13.233,13.233,0,0,0,40.8,18s3.118,1,3.118,4S40.8,26,40.8,26A11.726,11.726,0,0,0,36.918,22Z" style="fill:#ed6b7b"/><path d="M40.8,18a8.245,8.245,0,0,0,.82-1.905,7.943,7.943,0,0,0,.3-2.095H43l4.918,1s1,7-4,7C43.918,22,44.2,19.365,40.8,18Z" style="fill:#9e212e"/><circle cx="27" cy="42" r="2" style="fill:#3b73a5"/><path d="M17,34s9,7,0,16Z" style="fill:#50b3c9"/><path d="M33.918,34a11.978,11.978,0,0,1,3,8s5-3,5-8Z" style="fill:#cdeef6"/><path d="M33.918,50a11.978,11.978,0,0,0,3-8s5,3,5,8Z" style="fill:#cdeef6"/><path d="M36.918,42A13.233,13.233,0,0,0,40.8,38s3.118,1,3.118,4S40.8,46,40.8,46A11.726,11.726,0,0,0,36.918,42Z" style="fill:#a0e0ea"/><path d="M40.8,38a8.245,8.245,0,0,0,.82-1.905,7.943,7.943,0,0,0,.3-2.095H43l4.918,1s1,7-4,7C43.918,42,44.2,39.365,40.8,38Z" style="fill:#3b73a5"/><path d="M40.8,46a8.245,8.245,0,0,1,.82,1.905,7.943,7.943,0,0,1,.3,2.095H43l4.918-1s1-7-4-7C43.918,42,44.2,44.635,40.8,46Z" style="fill:#3b73a5"/><path d="M55,11a9.453,9.453,0,0,1-4.625-1.131A6.8,6.8,0,0,0,47,9a4.83,4.83,0,0,0-2.985.857A6.78,6.78,0,0,1,40,11a6.779,6.779,0,0,1-4.014-1.143A4.838,4.838,0,0,0,33,9V7a6.779,6.779,0,0,1,4.014,1.143A4.838,4.838,0,0,0,40,9a4.83,4.83,0,0,0,2.985-.857A6.78,6.78,0,0,1,47,7a8.763,8.763,0,0,1,4.241,1.066A7.546,7.546,0,0,0,55,9Z" style="fill:#cdeef6"/><path d="M55,7a9.523,9.523,0,0,1-4.419-1.092A7.529,7.529,0,0,0,47,5a4.838,4.838,0,0,0-2.986.857A6.779,6.779,0,0,1,40,7V5a4.838,4.838,0,0,0,2.986-.857A6.779,6.779,0,0,1,47,3a9.523,9.523,0,0,1,4.419,1.092A7.529,7.529,0,0,0,55,5a8.323,8.323,0,0,0,3.022-.437A11.27,11.27,0,0,1,62,4V6a9.33,9.33,0,0,0-3.375.47A10.226,10.226,0,0,1,55,7Z" style="fill:#cdeef6"/><path d="M47,57a6.78,6.78,0,0,1-4.015-1.143A4.83,4.83,0,0,0,40,55a4.838,4.838,0,0,0-2.986.857A6.779,6.779,0,0,1,33,57V55a4.838,4.838,0,0,0,2.986-.857A6.779,6.779,0,0,1,40,53a6.78,6.78,0,0,1,4.015,1.143A4.83,4.83,0,0,0,47,55a6.8,6.8,0,0,0,3.375-.869A9.453,9.453,0,0,1,55,53v2a7.546,7.546,0,0,0-3.759.934A8.763,8.763,0,0,1,47,57Z" style="fill:#cdeef6"/><path d="M47,61a6.779,6.779,0,0,1-4.014-1.143A4.838,4.838,0,0,0,40,59V57a6.779,6.779,0,0,1,4.014,1.143A4.838,4.838,0,0,0,47,59a7.529,7.529,0,0,0,3.581-.908A9.523,9.523,0,0,1,55,57a10.226,10.226,0,0,1,3.625.53A9.33,9.33,0,0,0,62,58v2a11.27,11.27,0,0,1-3.978-.563A8.323,8.323,0,0,0,55,59a7.529,7.529,0,0,0-3.581.908A9.523,9.523,0,0,1,47,61Z" style="fill:#cdeef6"/><rect x="5" y="8" width="4" height="53" style="fill:#d3843d"/><circle cx="7" cy="7" r="4" style="fill:#b5554e"/></g></svg>
