<?xml version="1.0"?>
<svg xmlns="http://www.w3.org/2000/svg" viewBox="0 0 64 64" width="512" height="512"><g id="flat"><rect x="46" y="18" width="6" height="8" style="fill:#7d8d9c"/><rect x="3" y="7" width="12" height="50" style="fill:#d3843d"/><polygon points="38 26 11 22 38 18 38 26" style="fill:#aabece"/><polygon points="42 26 36 33 38 26 38 18 36 11 42 18 42 26" style="fill:#394d5c"/><circle cx="55" cy="22" r="6" style="fill:#394d5c"/><circle cx="55" cy="22" r="2" style="fill:#aabece"/><rect x="35" y="21" width="3" height="2" style="fill:#7d8d9c"/><rect x="42" y="18" width="4" height="8" style="fill:#aabece"/><rect x="6" y="7" width="2" height="10" style="fill:#f1c056"/><rect x="6" y="19" width="2" height="2" style="fill:#f1c056"/><rect x="10" y="7" width="2" height="5" style="fill:#f1c056"/><rect x="10" y="51" width="2" height="6" style="fill:#f1c056"/><rect x="6" y="54" width="2" height="3" style="fill:#f1c056"/><rect x="44" y="32" width="10" height="2" style="fill:#98a1a1"/><rect x="49" y="36" width="10" height="2" style="fill:#98a1a1"/><rect x="44" y="10" width="10" height="2" style="fill:#98a1a1"/><rect x="49" y="6" width="10" height="2" style="fill:#98a1a1"/></g></svg>
