<?xml version="1.0"?>
<svg xmlns="http://www.w3.org/2000/svg" viewBox="0 0 64 64" width="512" height="512"><g id="flat"><rect x="25" y="17" width="14" height="40" style="fill:#9e212e"/><rect x="3" y="3" width="57" height="4" style="fill:#d3843d"/><rect x="25" y="57" width="14" height="4" style="fill:#dd3e46"/><rect x="25" y="13" width="14" height="4" style="fill:#dd3e46"/><path d="M39,14H25a1,1,0,0,1-.819-1.573l7-10a1.036,1.036,0,0,1,1.638,0l7,10A1,1,0,0,1,39,14ZM26.92,12H37.08L32,4.744Z" style="fill:#b5554e"/><rect x="18" y="27" width="7" height="10" style="fill:#f98c96"/><rect x="18" y="37" width="7" height="10" style="fill:#dd3e46"/><rect x="28" y="21" width="8" height="2" style="fill:#ffd782"/><path d="M28,33V31c4.315,0,5.527-2.538,5.868-4H28V25h8v1C36,26.07,35.909,33,28,33Z" style="fill:#ffd782"/><rect x="31" y="35" width="2" height="4" style="fill:#ffd782"/><polygon points="29.581 46.814 31.809 45.223 33.293 46.707 34.707 45.293 33.458 44.044 36.581 41.814 35.419 40.186 32.025 42.611 30.707 41.293 29.293 42.707 30.375 43.789 28.419 45.186 29.581 46.814" style="fill:#ffd782"/><path d="M35.1,47.553a5.731,5.731,0,0,1-2.6,2.541l-1.8-1.8-1.414,1.414,1.113,1.113A8.233,8.233,0,0,1,29,51l0,2c.229,0,5.644-.052,7.9-4.553Z" style="fill:#ffd782"/><path d="M22,17a4,4,0,0,0-4,4v6h7V17Z" style="fill:#dd3e46"/><path d="M22,57a4,4,0,0,1-4-4V47h7V57Z" style="fill:#f98c96"/><rect x="39" y="27" width="7" height="10" transform="translate(85 64) rotate(-180)" style="fill:#f98c96"/><rect x="39" y="37" width="7" height="10" transform="translate(85 84) rotate(-180)" style="fill:#dd3e46"/><path d="M42,17a4,4,0,0,1,4,4v6H39V17Z" style="fill:#dd3e46"/><path d="M42,57a4,4,0,0,0,4-4V47H39V57Z" style="fill:#f98c96"/><rect x="43" y="51" width="3" height="2" style="fill:#dd3e46"/><rect x="18" y="51" width="4" height="2" style="fill:#dd3e46"/><rect x="39" y="41" width="3" height="2" style="fill:#fff"/><rect x="22" y="40" width="3" height="2" style="fill:#fff"/><rect x="39" y="32" width="4" height="2" style="fill:#dd3e46"/><rect x="18" y="30" width="3" height="2" style="fill:#dd3e46"/><rect x="21" y="22" width="4" height="2" style="fill:#fff"/><rect x="39" y="20" width="4" height="2" style="fill:#fff"/><rect x="55" y="21" width="2" height="2" style="fill:#ffd782"/><rect x="55" y="25" width="2" height="2" style="fill:#ffd782"/><rect x="53" y="23" width="2" height="2" style="fill:#ffd782"/><rect x="57" y="23" width="2" height="2" style="fill:#ffd782"/><rect x="11" y="32" width="2" height="2" style="fill:#ffd782"/><rect x="11" y="36" width="2" height="2" style="fill:#ffd782"/><rect x="9" y="34" width="2" height="2" style="fill:#ffd782"/><rect x="13" y="34" width="2" height="2" style="fill:#ffd782"/><rect x="51" y="38" width="2" height="2" style="fill:#ffd782"/><rect x="51" y="42" width="2" height="2" style="fill:#ffd782"/><rect x="49" y="40" width="2" height="2" style="fill:#ffd782"/><rect x="53" y="40" width="2" height="2" style="fill:#ffd782"/><rect x="7" y="14" width="2" height="2" style="fill:#ffd782"/><rect x="7" y="18" width="2" height="2" style="fill:#ffd782"/><rect x="5" y="16" width="2" height="2" style="fill:#ffd782"/><rect x="9" y="16" width="2" height="2" style="fill:#ffd782"/></g></svg>
