<?xml version="1.0"?>
<svg xmlns="http://www.w3.org/2000/svg" viewBox="0 0 64 64" width="512" height="512"><g id="flat"><path d="M38,8s4-5,10-5c0,0,2,8-4,11Z" style="fill:#c4bfbf"/><path d="M26,8S22,3,16,3c0,0-2,8,4,11Z" style="fill:#c4bfbf"/><path d="M44.613,9.707c-1.325-1.324-4.935-.959-6.1-.727l-.393-1.96c.565-.114,5.593-1.038,7.9,1.273Z" style="fill:#5a6470"/><path d="M19.387,9.707,17.973,8.293c2.31-2.311,7.336-1.387,7.9-1.273l-.392,1.961C24.321,8.75,20.705,8.39,19.387,9.707Z" style="fill:#5a6470"/><polygon points="25 36 22.964 36 17.964 31 25 31 25 36" style="fill:#f4f4e6"/><rect x="40" y="31" width="8" height="6" style="fill:#f4f4e6"/><path d="M38.429,27.653C42.924,25.655,46,21.639,46,17c0-6.627-6.268-12-14-12S18,10.373,18,17c0,4.639,3.076,8.655,7.571,10.653C21.075,31.491,18,38.813,18,45c0,8.837,6.268,12,14,12s14-3.163,14-12C46,38.813,42.925,31.491,38.429,27.653Z" style="fill:#e8e8e8"/><rect x="25" y="41" width="14" height="20" rx="2" ry="2" style="fill:#f1c056"/><path d="M22,55h4a4,4,0,0,1,4,4v2a0,0,0,0,1,0,0H18a0,0,0,0,1,0,0V59A4,4,0,0,1,22,55Z" style="fill:#c4bfbf"/><rect x="21" y="58" width="2" height="3" style="fill:#e8e8e8"/><rect x="25" y="58" width="2" height="3" style="fill:#e8e8e8"/><path d="M38,55h4a4,4,0,0,1,4,4v2a0,0,0,0,1,0,0H34a0,0,0,0,1,0,0V59A4,4,0,0,1,38,55Z" style="fill:#c4bfbf"/><rect x="37" y="58" width="2" height="3" style="fill:#e8e8e8"/><rect x="41" y="58" width="2" height="3" style="fill:#e8e8e8"/><path d="M24.964,43h0a3.535,3.535,0,0,1-5,0l-5.585-5.586c-.781-.781-1.2-1.633-.415-2.414l4-4,7,7A3.535,3.535,0,0,1,24.964,43Z" style="fill:#c4bfbf"/><rect x="29" y="44" width="6" height="2" style="fill:#e1462b"/><rect x="29" y="52" width="6" height="2" style="fill:#e1462b"/><rect x="28" y="48" width="8" height="2" style="fill:#e1462b"/><path d="M52,21h0a4,4,0,0,1,4,4v8a4,4,0,0,1-4,4H48a0,0,0,0,1,0,0V25a4,4,0,0,1,4-4Z" style="fill:#c4bfbf"/><rect x="51" y="21" width="2" height="4" style="fill:#e8e8e8"/><rect x="51" y="27" width="2" height="2" style="fill:#e8e8e8"/><rect x="21.965" y="38.172" width="2" height="5.657" transform="translate(-22.265 28.247) rotate(-45)" style="fill:#e8e8e8"/><polygon points="32 20 29 16 35 16 32 20" style="fill:#5a6470"/><path d="M35.712,23.223a4.834,4.834,0,0,1-.588-.036,5.91,5.91,0,0,1-3.981-2.672l1.711-1.034a3.926,3.926,0,0,0,2.53,1.723c1.185.14,2.5-.5,3.909-1.911l1.414,1.414A7.245,7.245,0,0,1,35.712,23.223Z" style="fill:#5a6470"/><rect x="42.95" y="15.5" width="5.099" height="2" transform="matrix(0.981, -0.196, 0.196, 0.981, -2.354, 9.253)" style="fill:#5a6470"/><rect x="44.5" y="18.307" width="2" height="5.385" transform="translate(9.104 55.446) rotate(-68.199)" style="fill:#5a6470"/><path d="M38.445,12.832a4.625,4.625,0,0,0-4.89,0l-1.11-1.664a6.608,6.608,0,0,1,7.11,0Z" style="fill:#5a6470"/><path d="M28.288,23.223a7.245,7.245,0,0,1-5-2.516l1.414-1.414c1.407,1.407,2.724,2.051,3.909,1.911a3.926,3.926,0,0,0,2.53-1.723l1.711,1.034a5.91,5.91,0,0,1-3.981,2.672A4.834,4.834,0,0,1,28.288,23.223Z" style="fill:#5a6470"/><rect x="17.5" y="13.95" width="2" height="5.099" transform="translate(-1.308 31.405) rotate(-78.69)" style="fill:#5a6470"/><rect x="15.807" y="20" width="5.385" height="2" transform="translate(-6.471 8.364) rotate(-21.781)" style="fill:#5a6470"/><path d="M30.449,12.835a4.61,4.61,0,0,0-4.894,0l-1.11-1.664a6.611,6.611,0,0,1,7.11,0Z" style="fill:#5a6470"/><path d="M32,34a19.529,19.529,0,0,1-9.667-2.489l.99-1.738a18.017,18.017,0,0,0,17.354,0l.99,1.738A19.529,19.529,0,0,1,32,34Z" style="fill:#f98c96"/><circle cx="32" cy="35" r="2" style="fill:#cb2e5c"/></g></svg>
