<?xml version="1.0"?>
<svg xmlns="http://www.w3.org/2000/svg" viewBox="0 0 64 64" width="512" height="512"><g id="flat"><rect x="9.964" y="22.601" width="7.071" height="19.799" transform="translate(-19.027 19.065) rotate(-45)" style="fill:#995f5b"/><rect x="40.601" y="28.964" width="19.799" height="7.071" transform="translate(-8.19 45.228) rotate(-45)" style="fill:#995f5b"/><rect x="23" y="3" width="18" height="26" rx="2" ry="2" style="fill:#ffd782"/><path d="M25,3H39a2,2,0,0,1,2,2v8a0,0,0,0,1,0,0H23a0,0,0,0,1,0,0V5A2,2,0,0,1,25,3Z" style="fill:#394d5c"/><rect x="19" y="35" width="26" height="26" style="fill:#394d5c"/><path d="M23,21H41a0,0,0,0,1,0,0v6a2,2,0,0,1-2,2H25a2,2,0,0,1-2-2V21A0,0,0,0,1,23,21Z" style="fill:#394d5c"/><rect x="26" y="16" width="2" height="2" style="fill:#0b232d"/><rect x="36" y="16" width="2" height="2" style="fill:#0b232d"/><path d="M16,35h3a0,0,0,0,1,0,0V60.99a0,0,0,0,1,0,0H13a0,0,0,0,1,0,0V38A3,3,0,0,1,16,35Z" style="fill:#0b232d"/><path d="M45,35h6a0,0,0,0,1,0,0V61a0,0,0,0,1,0,0H48a3,3,0,0,1-3-3V35A0,0,0,0,1,45,35Z" transform="translate(96 96) rotate(180)" style="fill:#0b232d"/><polygon points="49 15 41 14 41 10 49 9 47 12 49 15" style="fill:#143441"/><rect x="23" y="9" width="18" height="4" style="fill:#0b232d"/><polygon points="23 61 19 61 19 57 35 35 41 35 23 61" style="fill:#0b232d"/><polygon points="29.974 41.91 26.07 47.279 23 35 28 35 29.974 41.91" style="fill:#143441"/><rect x="30" y="9" width="4" height="4" style="fill:#7d8d9c"/><rect x="4.964" y="24.672" width="7.071" height="5.657" transform="translate(-16.956 14.065) rotate(-45)" style="fill:#8b3123"/><rect x="52.672" y="23.964" width="5.657" height="7.071" transform="translate(-3.19 47.299) rotate(-45)" style="fill:#8b3123"/><rect x="13" y="42" width="6" height="4" style="fill:#7d8d9c"/><rect x="13" y="46" width="6" height="4" style="fill:#5a6470"/><rect x="45" y="42" width="6" height="4" style="fill:#7d8d9c"/><rect x="45" y="46" width="6" height="4" style="fill:#5a6470"/></g></svg>
