<?xml version="1.0"?>
<svg xmlns="http://www.w3.org/2000/svg" viewBox="0 0 64 64" width="512" height="512"><g id="flat"><path d="M49,37H35c-4.46,0-7-5.011-5-9l7-14a5.427,5.427,0,0,1,10,0l7,14C56,31.989,53.46,37,49,37Z" style="fill:#e0d4d3"/><path d="M27,37H12c-4.46,0-6.995-5.011-5-9l7-14a5.427,5.427,0,0,1,10,0l7,14C32.995,31.989,31.46,37,27,37Z" style="fill:#ececec"/><rect x="3" y="37" width="58" height="6" style="fill:#d3843d"/><rect x="47" y="43" width="8" height="8" transform="translate(102 94) rotate(-180)" style="fill:#b5554e"/><rect x="9" y="43" width="8" height="8" transform="translate(26 94) rotate(-180)" style="fill:#b5554e"/><rect x="35" y="28" width="14" height="9" style="fill:#67ac7f"/><rect x="39" y="15" width="2" height="2" style="fill:#98a1a1"/><rect x="43" y="17" width="2" height="2" style="fill:#98a1a1"/><rect x="40" y="20" width="2" height="2" style="fill:#98a1a1"/><rect x="36" y="23" width="2" height="2" style="fill:#98a1a1"/><rect x="45" y="22" width="2" height="2" style="fill:#98a1a1"/><rect x="12" y="28" width="14" height="9" transform="translate(38 65) rotate(-180)" style="fill:#67ac7f"/><rect x="20" y="15" width="2" height="2" style="fill:#98a1a1"/><rect x="16" y="17" width="2" height="2" style="fill:#98a1a1"/><rect x="19" y="20" width="2" height="2" style="fill:#98a1a1"/><rect x="23" y="23" width="2" height="2" style="fill:#98a1a1"/><rect x="14" y="22" width="2" height="2" style="fill:#98a1a1"/></g></svg>
