<?xml version="1.0"?>
<svg xmlns="http://www.w3.org/2000/svg" viewBox="0 0 64 64" width="512" height="512"><g id="flat"><rect x="3" y="45" width="58" height="16" style="fill:#d3843d"/><rect x="25" y="7" width="14" height="14" style="fill:#ffd782"/><rect x="3" y="25" width="58" height="20" style="fill:#7fcac9"/><rect x="25" y="21" width="14" height="15" style="fill:#f9c770"/><rect x="28" y="10" width="2" height="2" style="fill:#394d5c"/><rect x="34" y="10" width="2" height="2" style="fill:#394d5c"/><path d="M32,18a1,1,0,0,1-.555-.168l-3-2a1,1,0,0,1,1.11-1.664L32,15.8l2.445-1.63a1,1,0,1,1,1.11,1.664l-3,2A1,1,0,0,1,32,18Z" style="fill:#394d5c"/><path d="M17,23V33h4V25h4V21H19A2,2,0,0,0,17,23Z" style="fill:#ffd782"/><path d="M47,23V33H43V25H39V21h6A2,2,0,0,1,47,23Z" style="fill:#ffd782"/><rect x="28" y="25" width="2" height="2" style="fill:#ffd782"/><rect x="34" y="25" width="2" height="2" style="fill:#ffd782"/><rect x="3" y="25" width="14" height="4" style="fill:#195c85"/><rect x="47" y="25" width="14" height="4" style="fill:#195c85"/><rect x="3" y="51" width="58" height="4" style="fill:#ffd782"/><rect x="14" y="32" width="8" height="2" style="fill:#f4f4e6"/><rect x="42" y="32" width="8" height="2" style="fill:#f4f4e6"/><rect x="53" y="36" width="4" height="2" style="fill:#f4f4e6"/><rect x="42" y="38" width="4" height="2" style="fill:#f4f4e6"/><rect x="17" y="37" width="4" height="2" style="fill:#f4f4e6"/><rect x="28" y="40" width="4" height="2" style="fill:#f4f4e6"/><rect x="6" y="35" width="4" height="2" style="fill:#f4f4e6"/><rect x="23" y="3" width="18" height="4" style="fill:#394d5c"/><rect x="21" y="25" width="4" height="4" style="fill:#195c85"/><rect x="39" y="25" width="4" height="4" style="fill:#195c85"/><polygon points="18.949 13.316 17.051 12.684 17.946 10 16.946 7 18.051 3.684 19.949 4.316 19.054 7 20.054 10 18.949 13.316" style="fill:#ffd782"/><polygon points="3.949 16.316 2.051 15.684 2.946 13 1.946 10 3.051 6.684 4.949 7.316 4.054 10 5.054 13 3.949 16.316" style="fill:#ffd782"/><polygon points="47.949 16.316 46.051 15.684 46.946 13 45.946 10 47.051 6.684 48.949 7.316 48.054 10 49.054 13 47.949 16.316" style="fill:#ffd782"/><polygon points="59.895 10.447 58.105 9.553 58.882 8 57.882 6 59.105 3.553 60.895 4.447 60.118 6 61.118 8 59.895 10.447" style="fill:#ffd782"/><polygon points="54.895 20.447 53.105 19.553 53.882 18 52.882 16 54.105 13.553 55.895 14.447 55.118 16 56.118 18 54.895 20.447" style="fill:#ffd782"/><polygon points="12.895 19.447 11.105 18.553 11.882 17 10.882 15 12.105 12.553 13.895 13.447 13.118 15 14.118 17 12.895 19.447" style="fill:#ffd782"/><rect x="15" y="45" width="10" height="6" style="fill:#b5554e"/><rect x="39" y="45" width="12" height="6" style="fill:#b5554e"/><rect x="3" y="55" width="12" height="6" style="fill:#b5554e"/><rect x="51" y="55" width="10" height="6" style="fill:#b5554e"/><rect x="25" y="55" width="14" height="6" style="fill:#b5554e"/></g></svg>
