<?xml version="1.0"?>
<svg xmlns="http://www.w3.org/2000/svg" viewBox="0 0 64 64" width="512" height="512"><g id="flat"><polygon points="49 47 15 47 32 39 49 47" style="fill:#aabece"/><polygon points="32 39 61 29 49 47 32 39" style="fill:#2d75bb"/><polygon points="32 39 32 16 44.731 34.61 32 39" style="fill:#50b3c9"/><polygon points="61 29 42.261 30.998 44.731 34.61 61 29" style="fill:#394d5c"/><polygon points="32 39 3 29 15 47 32 39" style="fill:#2d75bb"/><polygon points="32 39 32 16 19.269 34.61 32 39" style="fill:#7fcac9"/><polygon points="3 29 21.739 30.998 19.269 34.61 3 29" style="fill:#394d5c"/><rect x="10" y="39" width="6" height="2" style="fill:#7fcac9"/><rect x="18" y="39" width="2" height="2" style="fill:#7fcac9"/><rect x="44" y="39" width="10" height="2" style="fill:#7fcac9"/></g></svg>
