<?xml version="1.0"?>
<svg xmlns="http://www.w3.org/2000/svg" viewBox="0 0 64 64" width="512" height="512"><g id="flat"><path d="M33,7.816a3,3,0,1,0-2,0V10H29v2h2v2H29v2h2v4h2V16h2V14H33V12h2V10H33ZM32,4a1,1,0,1,1-1,1A1,1,0,0,1,32,4Z" style="fill:#dd3e46"/><rect x="20" y="51" width="24" height="10" style="fill:#f98c96"/><rect x="20" y="47" width="24" height="4" style="fill:#6f1d48"/><path d="M50,47H14c6,0,6-6,6-6H44S45,47,50,47Z" style="fill:#dd3e46"/><path d="M46,37H18c5,0,5-5,5-5H41S41,37,46,37Z" style="fill:#dd3e46"/><path d="M46,28H18c5,0,5-5,5-5H41S41,28,46,28Z" style="fill:#dd3e46"/><rect x="20" y="51" width="4" height="10" style="fill:#dd3e46"/><rect x="40" y="51" width="4" height="10" style="fill:#dd3e46"/><path d="M32,51h0a4,4,0,0,1,4,4v6a0,0,0,0,1,0,0H28a0,0,0,0,1,0,0V55A4,4,0,0,1,32,51Z" style="fill:#fff69a"/><rect x="28" y="19" width="8" height="4" style="fill:#6f1d48"/><path d="M21,18V17a2.768,2.768,0,0,0-3-3H17c-.593-1.9-2-3-5-3-2.227,0-4.518.932-5,3H6a2.919,2.919,0,0,0-3,3v1Z" style="fill:#50b3c9"/><path d="M61,13V12a2.768,2.768,0,0,0-3-3H57c-.593-1.9-2-3-5-3-2.227,0-4.518.932-5,3H46a2.919,2.919,0,0,0-3,3v1Z" style="fill:#50b3c9"/><rect x="15" y="60" width="2" height="2" style="fill:#f1c056"/><rect x="9" y="60" width="4" height="2" style="fill:#f1c056"/><rect x="47" y="60" width="4" height="2" style="fill:#f1c056"/><rect x="30" y="28" width="4" height="4" style="fill:#6f1d48"/><rect x="23" y="28" width="7" height="4" style="fill:#9b1e5a"/><rect x="34" y="28" width="7" height="4" style="fill:#9b1e5a"/><rect x="30" y="37" width="4" height="4" style="fill:#6f1d48"/><rect x="23" y="37" width="7" height="4" style="fill:#9b1e5a"/><rect x="28" y="47" width="8" height="4" style="fill:#f1c056"/><rect x="34" y="37" width="7" height="4" style="fill:#9b1e5a"/><path d="M30,41s1,6-3,6H20s6,0,5-6Z" style="fill:#f98c96"/><path d="M34,41s-1,6,3,6h7s-6,0-5-6Z" style="fill:#f98c96"/><path d="M33,32s0,5,4,5h4s-4,0-4-5Z" style="fill:#f98c96"/><path d="M31,32s0,5-4,5H23s4,0,4-5Z" style="fill:#f98c96"/><path d="M33,23s0,5,4,5h4s-4,0-4-5Z" style="fill:#f98c96"/><path d="M31,23s0,5-4,5H23s4,0,4-5Z" style="fill:#f98c96"/></g></svg>
