<?xml version="1.0"?>
<svg xmlns="http://www.w3.org/2000/svg" viewBox="0 0 64 64" width="512" height="512"><g id="flat"><rect x="20" y="53" width="24" height="8" style="fill:#7d8d9c"/><path d="M3,31H61a0,0,0,0,1,0,0v0A26,26,0,0,1,35,57H29A26,26,0,0,1,3,31v0A0,0,0,0,1,3,31Z" style="fill:#aabece"/><polygon points="5 31 7 27 11 25 14 22 19 21 23 19 27 18 32 18 37 17 45 20 47 22 52 25 55 26 58 28 59 31 5 31" style="fill:#f4f4e6"/><rect x="36" y="22" width="2" height="2" style="fill:#7d8d9c"/><rect x="32" y="24" width="2" height="2" style="fill:#7d8d9c"/><rect x="25" y="22" width="2" height="2" style="fill:#7d8d9c"/><rect x="42" y="25" width="2" height="2" style="fill:#7d8d9c"/><rect x="22" y="26" width="2" height="2" style="fill:#7d8d9c"/><path d="M59,41a25.81,25.81,0,0,0,1.689-6H3.307A25.81,25.81,0,0,0,5,41Z" style="fill:#7d8d9c"/><rect x="45" y="44" width="12" height="2" style="fill:#f4f4e6"/><rect x="41" y="44" width="2" height="2" style="fill:#f4f4e6"/><polygon points="19 26 15 28 4 5 8 3 19 26" style="fill:#d3843d"/><polygon points="19 26 15 28 4 5 8 3 19 26" style="fill:#d3843d"/><polygon points="8.965 5.018 13 3 23 24 19 26 8.965 5.018" style="fill:#b5554e"/><path d="M35,14H33a3.565,3.565,0,0,1,1.293-2.708c.49-.49.707-.731.707-1.294s-.217-.8-.707-1.294A3.565,3.565,0,0,1,33,6a3.56,3.56,0,0,1,1.293-2.705C34.783,2.8,35,2.561,35,2h2a3.56,3.56,0,0,1-1.293,2.705C35.217,5.2,35,5.436,35,6s.217.8.707,1.294a3.482,3.482,0,0,1,0,5.416C35.217,13.2,35,13.438,35,14Z" style="fill:#ffd782"/><path d="M28,15H26a3.565,3.565,0,0,1,1.293-2.708c.49-.49.707-.731.707-1.294s-.217-.8-.707-1.294A3.565,3.565,0,0,1,26,7a3.56,3.56,0,0,1,1.293-2.7C27.783,3.8,28,3.561,28,3h2a3.56,3.56,0,0,1-1.293,2.705C28.217,6.2,28,6.436,28,7s.217.8.707,1.294a3.482,3.482,0,0,1,0,5.416C28.217,14.2,28,14.438,28,15Z" style="fill:#ffd782"/><path d="M42,15H40a3.565,3.565,0,0,1,1.293-2.708c.49-.49.707-.731.707-1.294s-.217-.8-.707-1.294A3.565,3.565,0,0,1,40,7a3.56,3.56,0,0,1,1.293-2.7C41.783,3.8,42,3.561,42,3h2a3.56,3.56,0,0,1-1.293,2.705C42.217,6.2,42,6.436,42,7s.217.8.707,1.294a3.482,3.482,0,0,1,0,5.416C42.217,14.2,42,14.438,42,15Z" style="fill:#ffd782"/></g></svg>
