<?xml version="1.0"?>
<svg xmlns="http://www.w3.org/2000/svg" viewBox="0 0 64 64" width="512" height="512"><g id="flat"><polygon points="3 40 10 39 17 35 25 23 24 32 33 28 39 23 47 19 42 28 49 31 42 32 37 33 32 37 22 39 30 44 36 45 39 48 48 49 41 53 27 50 19 45 15 48 8 49 3 51 3 40" style="fill:#ebb562"/><path d="M21.732,49.474C23.642,48.074,24,45,24,45s-2.837-.727-4.654.084c.007-.116.022-.223.022-.347C19.368,42.368,17,40,17,40s-2.368,2.368-2.368,4.737c0,.124.015.231.022.347C12.836,44.273,10,45,10,45s.353,3.074,2.263,4.474c.177.129.568.427.737.526a15.637,15.637,0,0,0-2,5s4.4-.252,6-2c1.6,1.748,6,2,6,2a15.637,15.637,0,0,0-2-5C21.169,49.9,21.555,49.6,21.732,49.474Z" style="fill:#f98c96"/><path d="M54.732,18.474C56.642,17.074,57,14,57,14s-2.837-.727-4.654.084c.007-.116.022-.223.022-.347C52.368,11.368,50,9,50,9s-2.368,2.368-2.368,4.737c0,.124.015.231.022.347C45.836,13.273,43,14,43,14s.353,3.074,2.263,4.474c.177.129.568.427.737.526a15.637,15.637,0,0,0-2,5s4.4-.252,6-2c1.6,1.748,6,2,6,2a15.637,15.637,0,0,0-2-5C54.169,18.9,54.555,18.6,54.732,18.474Z" style="fill:#f98c96"/><path d="M56.994,49C59.414,47.227,61,43,61,43s-4.727-.588-7.028.44c.009-.148.028-.283.028-.44,0-3-3-6-3-6s-3,3-3,6c0,.157.019.292.028.44C45.725,42.412,41,43,41,43s1.58,4.227,4,6a7.6,7.6,0,0,0,.654.421C43.982,51.663,44,57,44,57s4.977-.786,7-3c2.023,2.214,7,3,7,3s.012-5.337-1.66-7.579A7.6,7.6,0,0,0,56.994,49Z" style="fill:#f98c96"/><path d="M30.994,19C33.414,17.227,35,13,35,13s-4.727-.588-7.028.44c.009-.148.028-.283.028-.44,0-3-3-6-3-6s-3,3-3,6c0,.157.019.292.028.44C19.725,12.412,15,13,15,13s1.58,4.227,4,6a7.6,7.6,0,0,0,.654.421C17.982,21.663,18,27,18,27s4.977-.786,7-3c2.023,2.214,7,3,7,3s.012-5.337-1.66-7.579A7.6,7.6,0,0,0,30.994,19Z" style="fill:#f98c96"/><circle cx="51" cy="48" r="2" style="fill:#9b1e5a"/><circle cx="25" cy="18" r="2" style="fill:#9b1e5a"/><rect x="2.938" y="43.5" width="4.123" height="2" transform="translate(-10.649 2.543) rotate(-14.043)" style="fill:#b5554e"/><rect x="21.197" y="32.5" width="3.606" height="2" transform="translate(-17.632 34.055) rotate(-56.31)" style="fill:#b5554e"/><rect x="30.585" y="45.5" width="5.831" height="2" transform="translate(-19.154 23.871) rotate(-30.973)" style="fill:#b5554e"/><path d="M29.555,34.832l-1.11-1.664,2.679-1.786.906-3.625,1.94.486-1,4a1,1,0,0,1-.415.589Z" style="fill:#b5554e"/><rect x="49" y="16" width="2" height="2" style="fill:#9e212e"/><rect x="16" y="47" width="2" height="2" style="fill:#9e212e"/></g></svg>
