<?xml version="1.0"?>
<svg xmlns="http://www.w3.org/2000/svg" viewBox="0 0 64 64" width="512" height="512"><g id="flat"><path d="M53.319,12.346A28.978,28.978,0,0,1,59.4,22.5L38.334,29.034a7.021,7.021,0,0,0-1.6-2.178Z" style="fill:#f98c96"/><path d="M49.48,15.705,36.736,26.856a7.021,7.021,0,0,1,1.6,2.178L54.8,23.925A27.182,27.182,0,0,0,49.48,15.705Z" style="fill:#6f1d48"/><path d="M53.319,12.346,36.736,26.856A6.99,6.99,0,0,0,34.58,25.5L43.922,5.566A29.075,29.075,0,0,1,53.319,12.346Z" style="fill:#dd3e46"/><path d="M20.121,5.546,29.43,25.493A6.992,6.992,0,0,1,32,25V3A28.886,28.886,0,0,0,20.121,5.546Z" style="fill:#dd3e46"/><path d="M43.879,5.546,34.57,25.493A6.992,6.992,0,0,0,32,25V3A28.886,28.886,0,0,1,43.879,5.546Z" style="fill:#f98c96"/><path d="M34.57,25.493l7.171-15.366A23.326,23.326,0,0,0,32,8V25A6.992,6.992,0,0,1,34.57,25.493Z" style="fill:#6f1d48"/><path d="M41.776,10.144,34.58,25.5a6.99,6.99,0,0,1,2.156,1.359L49.48,15.705A24.979,24.979,0,0,0,41.776,10.144Z" style="fill:#b11e48"/><path d="M29.43,25.493,22.259,10.127A23.326,23.326,0,0,1,32,8V25A6.992,6.992,0,0,0,29.43,25.493Z" style="fill:#b11e48"/><path d="M10.681,12.346A28.978,28.978,0,0,0,4.6,22.5l21.065,6.537a7.021,7.021,0,0,1,1.6-2.178Z" style="fill:#dd3e46"/><path d="M10.681,12.346l16.583,14.51A6.99,6.99,0,0,1,29.42,25.5L20.078,5.566A29.075,29.075,0,0,0,10.681,12.346Z" style="fill:#f98c96"/><path d="M22.224,10.144,29.42,25.5a6.99,6.99,0,0,0-2.156,1.359L14.52,15.705A24.979,24.979,0,0,1,22.224,10.144Z" style="fill:#6f1d48"/><path d="M14.52,15.705,27.264,26.856a7.021,7.021,0,0,0-1.6,2.178L9.2,23.925A27.182,27.182,0,0,1,14.52,15.705Z" style="fill:#b11e48"/><path d="M25.666,29.034,32,31l6.334-1.966A7.144,7.144,0,0,0,32,25,7.282,7.282,0,0,0,25.666,29.034Z" style="fill:#f3bb59"/><rect x="31" y="36" width="2" height="9.495" style="fill:#b11e48"/><path d="M32,42h0a2,2,0,0,1,2,2v2a0,0,0,0,1,0,0H30a0,0,0,0,1,0,0V44A2,2,0,0,1,32,42Z" style="fill:#6f1d48"/><polygon points="34 61 30 59 30 46 34 46 34 61" style="fill:#f98c96"/><path d="M34.57,25.493l2.542-5.447A12.958,12.958,0,0,0,32,19v6A6.992,6.992,0,0,1,34.57,25.493Z" style="fill:#f98c96"/><path d="M37.13,20.055,34.58,25.5a6.99,6.99,0,0,1,2.156,1.359l4.532-3.965A13.013,13.013,0,0,0,37.13,20.055Z" style="fill:#dd3e46"/><path d="M41.268,22.891l-4.532,3.965a7.021,7.021,0,0,1,1.6,2.178l5.757-1.786A13.007,13.007,0,0,0,41.268,22.891Z" style="fill:#f98c96"/><path d="M38,36a12.677,12.677,0,0,1-6,2,12.677,12.677,0,0,1-6-2l6-5Z" style="fill:#f3bb59"/><path d="M29.43,25.493l-2.542-5.447A12.958,12.958,0,0,1,32,19v6A6.992,6.992,0,0,0,29.43,25.493Z" style="fill:#dd3e46"/><path d="M26.87,20.055,29.42,25.5a6.99,6.99,0,0,0-2.156,1.359l-4.532-3.965A13.013,13.013,0,0,1,26.87,20.055Z" style="fill:#f98c96"/><path d="M22.732,22.891l4.532,3.965a7.021,7.021,0,0,0-1.6,2.178l-5.757-1.786A13.007,13.007,0,0,1,22.732,22.891Z" style="fill:#dd3e46"/></g></svg>
