<?xml version="1.0"?>
<svg xmlns="http://www.w3.org/2000/svg" viewBox="0 0 64 64" width="512" height="512"><g id="flat"><rect x="26" y="7" width="12" height="11" style="fill:#ffd782"/><polygon points="43 42 21 42 21 38 19 22 45 22 43 38 43 42" style="fill:#ffd782"/><polygon points="21 42 15 44 15 57 21 57 21 50 29 48 27 42 21 42" style="fill:#ffd782"/><polygon points="43 42 37 42 35 48 43 50 43 57 49 57 49 44 43 42" style="fill:#ffd782"/><rect x="21" y="38" width="22" height="4" style="fill:#7d8d9c"/><polygon points="35 48 29 48 27 42 37 42 35 48" style="fill:#aabece"/><path d="M13,57h8a0,0,0,0,1,0,0v4a0,0,0,0,1,0,0H11a0,0,0,0,1,0,0V59A2,2,0,0,1,13,57Z" style="fill:#f9c770"/><polygon points="20.005 30.042 12 28 12 22 19 22 20.005 30.042" style="fill:#f9c770"/><polygon points="12 28 6 26 6 16 12 16 12 28" style="fill:#ffd782"/><path d="M43,57H53a0,0,0,0,1,0,0v4a0,0,0,0,1,0,0H45a2,2,0,0,1-2-2V57A0,0,0,0,1,43,57Z" transform="translate(96 118) rotate(-180)" style="fill:#f9c770"/><path d="M24.765,32.092a12.771,12.771,0,0,1-5.212-1.2l.892-1.791c.22.111,5.415,2.623,8.848-.811l1.414,1.414A8.14,8.14,0,0,1,24.765,32.092Z" style="fill:#d3843d"/><rect x="24" y="26" width="2" height="2" style="fill:#d3843d"/><circle cx="9" cy="11" r="3" style="fill:#f9c770"/><polygon points="44 30.041 52 28 52 22 45 22 44 30.041" style="fill:#f9c770"/><polygon points="52 28 58 26 58 16 52 16 52 28" style="fill:#ffd782"/><path d="M39.235,32.092a8.136,8.136,0,0,1-5.942-2.385l1.414-1.414c3.452,3.451,8.793.84,8.846.812l.894,1.79A12.771,12.771,0,0,1,39.235,32.092Z" style="fill:#d3843d"/><rect x="38" y="26" width="2" height="2" style="fill:#d3843d"/><circle cx="55" cy="11" r="3" style="fill:#f9c770"/><polygon points="38 11 32 12 26 11 26 7 38 7 38 11" style="fill:#22343f"/><polygon points="26 15 22 13 22 9 26 7 26 15" style="fill:#394d5c"/><polygon points="38 15 42 13 42 9 38 7 38 15" style="fill:#394d5c"/><path d="M30,3h4a2,2,0,0,1,2,2V7a0,0,0,0,1,0,0H28a0,0,0,0,1,0,0V5A2,2,0,0,1,30,3Z" style="fill:#394d5c"/></g></svg>
