<?xml version="1.0"?>
<svg xmlns="http://www.w3.org/2000/svg" viewBox="0 0 64 64" width="512" height="512"><g id="flat"><polygon points="34 15 30 15 28 3 36 3 34 15" style="fill:#ffd782"/><polygon points="34 32 30 32 20 61 44 61 34 32" style="fill:#ffd782"/><polygon points="27 17 25 19 3 7 3 3 18 3 27 17" style="fill:#ffd782"/><polygon points="27 31 25 29 3 41 3 61 6 61 27 31" style="fill:#ffd782"/><polygon points="24 26 3 30 3 18 24 22 24 26" style="fill:#ffd782"/><polygon points="37 17 39 19 61 7 61 3 46 3 37 17" style="fill:#ffd782"/><polygon points="37 31 39 29 61 41 61 61 58 61 37 31" style="fill:#ffd782"/><polygon points="40 26 61 30 61 18 40 22 40 26" style="fill:#ffd782"/><circle cx="32" cy="24" r="12" style="fill:#dd3e46"/><path d="M31,33c-6.328,0-8-5.887-8-9h1l1,0c0,.286.1,7,6,7Z" style="fill:#f98c96"/><rect x="3" y="23" width="5" height="2" style="fill:#e97424"/><rect x="1.343" y="47" width="11.314" height="2" transform="translate(-31.891 19.009) rotate(-45)" style="fill:#e97424"/><rect x="12.586" y="40" width="2.828" height="2" transform="translate(-24.891 21.908) rotate(-45)" style="fill:#e97424"/><rect x="31" y="3" width="2" height="3" style="fill:#e97424"/><rect x="11.5" y="1.964" width="2" height="7.071" transform="translate(-0.228 10.45) rotate(-45)" style="fill:#e97424"/><rect x="17" y="9.586" width="2" height="2.828" transform="translate(-2.506 15.95) rotate(-45)" style="fill:#e97424"/><rect x="56" y="23" width="5" height="2" style="fill:#e97424"/><rect x="56" y="42.343" width="2" height="11.314" transform="translate(-17.246 54.364) rotate(-45)" style="fill:#e97424"/><rect x="49" y="39.586" width="2" height="2.828" transform="translate(-14.347 47.364) rotate(-45)" style="fill:#e97424"/><rect x="47.964" y="4.5" width="7.071" height="2" transform="translate(11.195 38.027) rotate(-45)" style="fill:#e97424"/><rect x="44.586" y="10" width="2.828" height="2" transform="translate(5.695 35.749) rotate(-45)" style="fill:#e97424"/><rect x="31" y="42" width="2" height="19" style="fill:#e97424"/></g></svg>
