<?xml version="1.0"?>
<svg xmlns="http://www.w3.org/2000/svg" viewBox="0 0 64 64" width="512" height="512"><g id="flat"><path d="M31,21v2a2,2,0,0,0,2,2h1a1,1,0,0,0,1-1h0a1,1,0,0,1,1-1H56a1,1,0,0,1,1,1h0a1,1,0,0,0,1,1h1a2,2,0,0,0,2-2V21a4,4,0,0,0-4-4H35A4,4,0,0,0,31,21Z" style="fill:#e97424"/><path d="M56,17H35a4,4,0,0,0-4,4v2a2,2,0,0,0,2,2h1a1,1,0,0,0,1-1,1,1,0,0,1,1-1H49S50,19,56,17Z" style="fill:#e1462b"/><path d="M3,21v2a2,2,0,0,0,2,2H6a1,1,0,0,0,1-1H7a1,1,0,0,1,1-1H28a1,1,0,0,1,1,1h0a1,1,0,0,0,1,1h1a2,2,0,0,0,2-2V21a4,4,0,0,0-4-4H7A4,4,0,0,0,3,21Z" style="fill:#ffd782"/><rect x="3" y="33" width="58" height="6" style="fill:#d3843d"/><rect x="47" y="39" width="8" height="8" transform="translate(102 86) rotate(-180)" style="fill:#b5554e"/><rect x="9" y="39" width="8" height="8" transform="translate(26 86) rotate(-180)" style="fill:#b5554e"/><path d="M8,23H28a1,1,0,0,1,1,1v7a2,2,0,0,1-2,2H9a2,2,0,0,1-2-2V24A1,1,0,0,1,8,23Z" style="fill:#f4f4e6"/><path d="M28,17H7a4,4,0,0,0-4,4v2a2,2,0,0,0,2,2H6a1,1,0,0,0,1-1,1,1,0,0,1,1-1H21S22,19,28,17Z" style="fill:#ebb562"/><path d="M20,17H7a4,4,0,0,0-4,4v2a2,2,0,0,0,2,2H6a1,1,0,0,0,1-1,1,1,0,0,1,1-1h5S14,19,20,17Z" style="fill:#ebb562"/><path d="M13,17H7a4,4,0,0,0-4,4v2a2,2,0,0,0,2,2H6a1,1,0,0,0,1-1S7,17,13,17Z" style="fill:#ffd782"/><path d="M29,24a1,1,0,0,0,1,1h1a2,2,0,0,0,2-2V21a3.957,3.957,0,0,0-.453-1.813A7.935,7.935,0,0,0,28,23,1,1,0,0,1,29,24Z" style="fill:#ebb562"/><path d="M37,23H57a1,1,0,0,1,1,1v7a2,2,0,0,1-2,2H38a2,2,0,0,1-2-2V24A1,1,0,0,1,37,23Z" style="fill:#f4f4e6"/><path d="M48,17H35a4,4,0,0,0-4,4v2a2,2,0,0,0,2,2h1a1,1,0,0,0,1-1,1,1,0,0,1,1-1h5S42,19,48,17Z" style="fill:#e1462b"/><path d="M41,17H35a4,4,0,0,0-4,4v2a2,2,0,0,0,2,2h1a1,1,0,0,0,1-1S35,17,41,17Z" style="fill:#e97424"/><path d="M57,24a1,1,0,0,0,1,1h1a2,2,0,0,0,2-2V21a3.957,3.957,0,0,0-.453-1.813A7.935,7.935,0,0,0,56,23,1,1,0,0,1,57,24Z" style="fill:#e1462b"/><rect x="39.5" y="26.793" width="2" height="1.414" transform="translate(-7.583 36.692) rotate(-45)" style="fill:#98a1a1"/><rect x="46.793" y="25.5" width="1.414" height="2" transform="translate(-4.826 41.349) rotate(-45)" style="fill:#98a1a1"/><rect x="43.5" y="28.793" width="2" height="1.414" transform="translate(-7.826 40.107) rotate(-45)" style="fill:#98a1a1"/><rect x="49.5" y="28.793" width="2" height="1.414" transform="translate(-6.069 44.349) rotate(-45)" style="fill:#98a1a1"/><rect x="52.793" y="25.5" width="1.414" height="2" transform="translate(-3.069 45.592) rotate(-45)" style="fill:#98a1a1"/><rect x="23.793" y="26.5" width="1.414" height="2" transform="translate(-12.27 25.379) rotate(-45)" style="fill:#98a1a1"/><rect x="16.5" y="25.793" width="2" height="1.414" transform="translate(-13.613 20.136) rotate(-45)" style="fill:#98a1a1"/><rect x="19.793" y="28.5" width="1.414" height="2" transform="translate(-14.855 23.136) rotate(-45)" style="fill:#98a1a1"/><rect x="13.793" y="28.5" width="1.414" height="2" transform="translate(-16.613 18.893) rotate(-45)" style="fill:#98a1a1"/><rect x="10.5" y="25.793" width="2" height="1.414" transform="translate(-15.37 15.893) rotate(-45)" style="fill:#98a1a1"/></g></svg>
