<?xml version="1.0"?>
<svg xmlns="http://www.w3.org/2000/svg" viewBox="0 0 64 64" width="512" height="512"><g id="flat"><rect x="3" y="45" width="58" height="6" style="fill:#d3843d"/><rect x="55" y="51" width="6" height="8" transform="translate(116 110) rotate(-180)" style="fill:#b5554e"/><rect x="3" y="51" width="6" height="8" transform="translate(12 110) rotate(-180)" style="fill:#b5554e"/><rect x="6" y="45" width="2" height="3" style="fill:#b5554e"/><rect x="11" y="45" width="2" height="3" style="fill:#b5554e"/><rect x="40" y="45" width="2" height="3" style="fill:#b5554e"/><rect x="54" y="45" width="2" height="3" style="fill:#b5554e"/><polygon points="29 45 9 45 8 41 30 41 29 45" style="fill:#5a6470"/><rect x="6" y="35" width="26" height="6" style="fill:#aabece"/><polygon points="8 35 11 32 13 31 15 29 19 28 23 28 27 30 31 35 8 35" style="fill:#d1f5c9"/><rect x="18" y="28" width="2" height="3" style="fill:#55b56a"/><rect x="23" y="28" width="2" height="4" style="fill:#55b56a"/><path d="M36,25H58a0,0,0,0,1,0,0V39a6,6,0,0,1-6,6H42a6,6,0,0,1-6-6V25A0,0,0,0,1,36,25Z" style="fill:#aabece"/><rect x="36" y="29" width="22" height="4" style="fill:#5a6470"/><rect x="53" y="36" width="2" height="2" style="fill:#fff"/><path d="M54,15h4a0,0,0,0,1,0,0v4a6,6,0,0,1-6,6H46a0,0,0,0,1,0,0V23A8,8,0,0,1,54,15Z" style="fill:#d1f5c9"/><rect x="50.757" y="17" width="8.485" height="2" transform="translate(3.381 44.163) rotate(-45)" style="fill:#55b56a"/><path d="M38,19H36a3.568,3.568,0,0,1,1.292-2.708C37.783,15.8,38,15.561,38,15s-.217-.8-.708-1.294a3.48,3.48,0,0,1,0-5.413C37.783,7.8,38,7.561,38,7h2a3.563,3.563,0,0,1-1.293,2.705C38.217,10.2,38,10.436,38,11s.217.8.708,1.294a3.484,3.484,0,0,1,0,5.416C38.217,18.2,38,18.438,38,19Z" style="fill:#ffd782"/><path d="M44,17H42a3.568,3.568,0,0,1,1.292-2.708C43.783,13.8,44,13.561,44,13s-.217-.8-.708-1.294a3.48,3.48,0,0,1,0-5.413C43.783,5.8,44,5.561,44,5h2a3.563,3.563,0,0,1-1.293,2.705C44.217,8.2,44,8.436,44,9s.217.8.708,1.294a3.484,3.484,0,0,1,0,5.416C44.217,16.2,44,16.438,44,17Z" style="fill:#ffd782"/></g></svg>
