<?xml version="1.0"?>
<svg xmlns="http://www.w3.org/2000/svg" viewBox="0 0 64 64" width="512" height="512"><g id="flat"><path d="M53,8l0-2c.164,0,4-.057,4-3h2C59,6.955,55.075,8,53,8Z" style="fill:#66342e"/><path d="M11,8C8.925,8,5,6.955,5,3H7c0,2.966,3.837,3,4,3Z" style="fill:#66342e"/><rect x="11" y="38" width="10" height="21" style="fill:#f1c056"/><rect x="43" y="38" width="10" height="21" style="fill:#f1c056"/><rect x="25" y="38" width="14" height="21" style="fill:#f1c056"/><rect x="10" y="14" width="44" height="12" style="fill:#f1c056"/><rect x="21" y="38" width="4" height="23" style="fill:#dd3e46"/><rect x="7" y="38" width="4" height="23" style="fill:#dd3e46"/><path d="M60.828,34H3.1c4.976,0,6.9-8,6.9-8H54S55.851,34,60.828,34Z" style="fill:#ad6327"/><polygon points="42.998 26 48.998 26 49.998 34 43.998 34 42.998 26" style="fill:#d3843d"/><polygon points="20.998 26 14.998 26 13.998 34 19.998 34 20.998 26" style="fill:#d3843d"/><path d="M60.828,14H3.1C8.074,14,11,6,11,6H53S55.851,14,60.828,14Z" style="fill:#ad6327"/><polygon points="42.998 6 48.998 6 49.998 14 43.998 14 42.998 6" style="fill:#d3843d"/><polygon points="32 26 27 26 26 34 32 34 38 34 37 26 32 26" style="fill:#d3843d"/><polygon points="38 14 37 6 32 6 27 6 26 14 32 14 38 14" style="fill:#d3843d"/><polygon points="20.998 6 14.998 6 13.998 14 19.998 14 20.998 6" style="fill:#d3843d"/><rect x="7" y="34" width="50" height="4" style="fill:#66342e"/><rect x="31" y="38" width="2" height="4" style="fill:#66342e"/><path d="M29,48a2,2,0,0,0,2,2h2a2,2,0,0,0,2-2V46H29Z" style="fill:#dd3e46"/><path d="M29,44a2,2,0,0,1,2-2h2a2,2,0,0,1,2,2v2H29Z" style="fill:#fff69a"/><rect x="11" y="42" width="10" height="12" style="fill:#fff69a"/><polygon points="21 45 17 45 17 42 15 42 15 45 11 45 11 47 15 47 15 54 17 54 17 47 21 47 21 45" style="fill:#66342e"/><rect x="53" y="38" width="4" height="23" style="fill:#dd3e46"/><rect x="39" y="38" width="4" height="23" style="fill:#dd3e46"/><rect x="43" y="42" width="10" height="12" style="fill:#fff69a"/><polygon points="53 45 49 45 49 42 47 42 47 45 43 45 43 47 47 47 47 54 49 54 49 47 53 47 53 45" style="fill:#66342e"/><rect x="10" y="14" width="10" height="4" style="fill:#f1d77e"/><rect x="10" y="18" width="10" height="4" style="fill:#fef59c"/><rect x="20" y="14" width="8" height="4" style="fill:#fef59c"/><rect x="20" y="18" width="8" height="4" style="fill:#f1d77e"/><rect x="44" y="14" width="10" height="4" transform="translate(98 32) rotate(-180)" style="fill:#f1d77e"/><rect x="44" y="18" width="10" height="4" transform="translate(98 40) rotate(-180)" style="fill:#fef59c"/><rect x="36" y="14" width="8" height="4" transform="translate(80 32) rotate(-180)" style="fill:#fef59c"/><rect x="17" y="34" width="8" height="4" style="fill:#b5554e"/><rect x="39" y="34" width="8" height="4" transform="translate(86 72) rotate(-180)" style="fill:#b5554e"/><rect x="36" y="18" width="8" height="4" transform="translate(80 40) rotate(-180)" style="fill:#f1d77e"/><rect x="28" y="14" width="8" height="12" style="fill:#dd3e46"/><rect x="31" y="17" width="2" height="2" style="fill:#f1d77e"/><rect x="31" y="21" width="2" height="2" style="fill:#f1d77e"/><rect x="29" y="34" width="6" height="4" style="fill:#dd3e46"/></g></svg>
