<?xml version="1.0"?>
<svg xmlns="http://www.w3.org/2000/svg" viewBox="0 0 64 64" width="512" height="512"><g id="flat"><circle cx="10" cy="42" r="3" style="fill:#195c85"/><circle cx="37" cy="42" r="3" style="fill:#195c85"/><path d="M61,45H49l-6-4H3V19H33c8,0,28,12,28,20Z" style="fill:#aabece"/><rect x="5" y="14" width="19" height="2" style="fill:#98a1a1"/><rect x="2" y="10" width="11" height="2" style="fill:#98a1a1"/><polygon points="43 37 3 37 3 33 35 33 43 37" style="fill:#195c85"/><rect x="53" y="40" width="8" height="2" style="fill:#195c85"/><rect x="49" y="40" width="2" height="2" style="fill:#195c85"/><rect x="23" y="23" width="8" height="18" style="fill:#394d5c"/><rect x="3" y="23" width="6" height="6" style="fill:#195c85"/><rect x="13" y="23" width="6" height="6" style="fill:#195c85"/><path d="M44.958,23H35l2,6H54.057A55.424,55.424,0,0,0,44.958,23Z" style="fill:#195c85"/><path d="M58.173,33H49l7,4h4.617A13.4,13.4,0,0,0,58.173,33Z" style="fill:#ffd782"/><rect x="23" y="28" width="3" height="2" style="fill:#ffd782"/><rect x="17" y="41" width="13" height="4" style="fill:#195c85"/><rect x="3" y="45" width="58" height="8" transform="translate(64 98) rotate(-180)" style="fill:#394d5c"/><rect x="49" y="48" width="12" height="2" style="fill:#aabece"/><rect x="6" y="48" width="6" height="2" style="fill:#aabece"/><rect x="14" y="48" width="8" height="2" style="fill:#aabece"/><rect x="25" y="48" width="2" height="2" style="fill:#aabece"/></g></svg>
