<?xml version="1.0"?>
<svg xmlns="http://www.w3.org/2000/svg" viewBox="0 0 64 64" width="512" height="512"><g id="flat"><polygon points="31.878 32.521 25.878 21.521 24.122 22.479 27.793 29.209 17.618 21.214 16.382 22.786 30.382 33.786 31 33 31.878 32.521" style="fill:#c1712f"/><polygon points="47.618 22.786 46.382 21.214 36.207 29.209 39.878 22.479 38.122 21.521 32.122 32.521 33 33 33.618 33.786 47.618 22.786" style="fill:#c1712f"/><rect x="30" y="23" width="4" height="38" style="fill:#d3843d"/><rect x="30" y="3" width="4" height="5" style="fill:#b5554e"/><polygon points="16 23 32 7 3 23 16 23" style="fill:#eb8cb3"/><polygon points="16 23 32 7 27 23 16 23" style="fill:#f9a7cc"/><polygon points="48 23 32 7 61 23 48 23" style="fill:#eb8cb3"/><polygon points="48 23 32 7 37 23 48 23" style="fill:#f9a7cc"/><polygon points="27 23 32 7 37 23 27 23" style="fill:#eb8cb3"/><polygon points="3 23 13.875 17 22 17 16 23 3 23" style="fill:#dd3e46"/><polygon points="16 23 22 17 28.875 17 27 23 16 23" style="fill:#c12b3a"/><polygon points="61 23 50.125 17 42 17 48 23 61 23" style="fill:#dd3e46"/><polygon points="48 23 42 17 35.125 17 37 23 48 23" style="fill:#c12b3a"/><polygon points="27 23 28.875 17 35.125 17 37 23 27 23" style="fill:#dd3e46"/><rect x="30" y="30" width="4" height="20" style="fill:#b5554e"/><rect x="54" y="7" width="2" height="2" style="fill:#ffd782"/><rect x="54" y="11" width="2" height="2" style="fill:#ffd782"/><rect x="52" y="9" width="2" height="2" style="fill:#ffd782"/><rect x="56" y="9" width="2" height="2" style="fill:#ffd782"/><rect x="10" y="4" width="2" height="2" style="fill:#ffd782"/><rect x="10" y="8" width="2" height="2" style="fill:#ffd782"/><rect x="8" y="6" width="2" height="2" style="fill:#ffd782"/><rect x="12" y="6" width="2" height="2" style="fill:#ffd782"/></g></svg>
