<?xml version="1.0"?>
<svg xmlns="http://www.w3.org/2000/svg" viewBox="0 0 64 64" width="512" height="512"><g id="flat"><rect x="47" y="25" width="12" height="34" style="fill:#ffd782"/><rect x="45" y="13" width="16" height="8" style="fill:#d3843d"/><path d="M38,23H26l-1-6c-.235-2.355,1.634-4,4-4h6c2.366,0,4.235,1.645,4,4Z" style="fill:#d3843d"/><path d="M19,23a15.389,15.389,0,0,1-8,2,15.389,15.389,0,0,1-8-2l6-9a2.692,2.692,0,0,1,4,0Z" style="fill:#d3843d"/><rect x="45" y="16" width="5" height="2" style="fill:#b5554e"/><rect x="56" y="16" width="2" height="2" style="fill:#b5554e"/><rect x="31" y="20" width="2" height="4" style="fill:#b5554e"/><path d="M11,22a22.622,22.622,0,0,1-6.316-1.052l.631-1.9A20.924,20.924,0,0,0,11,20Z" style="fill:#b5554e"/><rect x="2" y="6" width="60" height="2" style="fill:#5a6470"/><rect x="26" y="27" width="12" height="30" style="fill:#eb8cb3"/><rect x="5" y="29" width="12" height="32" style="fill:#7fcac9"/><rect x="5" y="56" width="5" height="2" style="fill:#fff"/><rect x="12" y="56" width="2" height="2" style="fill:#fff"/><rect x="29" y="37" width="2" height="2" style="fill:#fff"/><rect x="32" y="40" width="2" height="2" style="fill:#fff"/><rect x="50" y="54" width="2" height="5" style="fill:#fff"/><rect x="54" y="52" width="2" height="7" style="fill:#fff"/><rect x="54" y="48" width="2" height="2" style="fill:#fff"/><path d="M54,14a1,1,0,0,1-.761-.351C52.908,13.261,50,9.774,50,7c0-2.9,1.682-5,4-5s4,2.1,4,5c0,2.774-2.908,6.261-3.239,6.649A1,1,0,0,1,54,14ZM54,4c-1.178,0-2,1.233-2,3,0,1.3,1.116,3.144,2,4.37C54.884,10.144,56,8.3,56,7,56,5.233,55.178,4,54,4Z" style="fill:#dd3e46"/><path d="M32,14a1,1,0,0,1-.761-.351C30.908,13.261,28,9.774,28,7c0-2.9,1.682-5,4-5s4,2.1,4,5c0,2.774-2.908,6.261-3.239,6.649A1,1,0,0,1,32,14ZM32,4c-1.178,0-2,1.233-2,3,0,1.3,1.116,3.144,2,4.37C32.884,10.144,34,8.3,34,7,34,5.233,33.178,4,32,4Z" style="fill:#dd3e46"/><path d="M11,14a1,1,0,0,1-.761-.351C9.908,13.261,7,9.774,7,7c0-2.9,1.682-5,4-5s4,2.1,4,5c0,2.774-2.908,6.261-3.239,6.649A1,1,0,0,1,11,14ZM11,4C9.822,4,9,5.233,9,7c0,1.3,1.116,3.144,2,4.37C11.884,10.144,13,8.3,13,7,13,5.233,12.178,4,11,4Z" style="fill:#dd3e46"/><rect x="31" y="23" width="2" height="8" style="fill:#dd3e46"/><rect x="10" y="25" width="2" height="8" style="fill:#dd3e46"/><rect x="52" y="21" width="2" height="8" style="fill:#dd3e46"/><rect x="29" y="30" width="6" height="2" style="fill:#5a6470"/><rect x="8" y="32" width="6" height="2" style="fill:#5a6470"/><rect x="50" y="28" width="6" height="2" style="fill:#5a6470"/></g></svg>
