<?xml version="1.0"?>
<svg xmlns="http://www.w3.org/2000/svg" viewBox="0 0 64 64" width="512" height="512"><g id="Filled_outline" data-name="Filled outline"><rect x="9" y="31" width="46" height="10" style="fill:#fcf05a"/><rect x="9" y="17" width="46" height="10" style="fill:#fcf05a"/><polygon points="18 61 12 61 14 41 20 41 18 61" style="fill:#d3843d"/><polygon points="52 61 46 61 44 41 50 41 52 61" style="fill:#d3843d"/><rect x="14" y="27" width="6" height="4" style="fill:#f3bb59"/><rect x="44" y="27" width="6" height="4" style="fill:#f3bb59"/><polygon points="45.204 53 18.813 53 19.203 49 44.812 49 45.204 53" style="fill:#f3bb59"/><rect x="14" y="9" width="6" height="8" style="fill:#d3843d"/><rect x="44" y="9" width="6" height="8" style="fill:#d3843d"/><circle cx="17" cy="8" r="5" style="fill:#dd3e46"/><circle cx="47" cy="8" r="5" style="fill:#dd3e46"/><polygon points="26 27 20 27 14 17 20 17 26 27" style="fill:#6b809b"/><polygon points="38 27 32 27 26 17 32 17 38 27" style="fill:#6b809b"/><polygon points="50 27 44 27 38 17 44 17 50 27" style="fill:#6b809b"/><polygon points="38 41 44 41 50 31 44 31 38 41" style="fill:#6b809b"/><polygon points="26 41 32 41 38 31 32 31 26 41" style="fill:#6b809b"/><polygon points="14 41 20 41 26 31 20 31 14 41" style="fill:#6b809b"/><path d="M55,28a1,1,0,0,0,1-1V17a1,1,0,0,0-1-1H51V12.46a6,6,0,1,0-8,0V16H21V12.46a6,6,0,1,0-8,0V16H9a1,1,0,0,0-1,1V27a1,1,0,0,0,1,1h4v2H9a1,1,0,0,0-1,1V41a1,1,0,0,0,1,1H12.9l-1.89,18.9A1,1,0,0,0,12,62h6a1,1,0,0,0,1-.9L19.7,54H44.3l.71,7.1A1,1,0,0,0,46,62h6A1,1,0,0,0,53,60.9L51.105,42H55a1,1,0,0,0,1-1V31a1,1,0,0,0-1-1H51V28ZM47,4a4,4,0,1,1-4,4A4,4,0,0,1,47,4Zm2,9.65V16H45V13.65a5.889,5.889,0,0,0,4,0ZM43.434,18l4.8,8H44.566l-4.8-8ZM49,28v2H45V28ZM25.434,40H21.766l4.8-8h3.668Zm7.132-8h3.668l-4.8,8H27.766ZM43.1,42l.6,6H20.305l.6-6Zm-5.661-2H33.766l4.8-8h3.668ZM21,30V28H43v2ZM37.434,18l4.8,8H38.566l-4.8-8Zm-6,0,4.8,8H32.566l-4.8-8Zm-6,0,4.8,8H26.566l-4.8-8Zm-1.2,8H20.566l-4.8-8h3.668ZM15,16V13.65a5.889,5.889,0,0,0,4,0V16ZM17,4a4,4,0,1,1-4,4A4,4,0,0,1,17,4ZM10,26V18h3.434l4.8,8Zm9,2v2H15V28ZM10,40V32h8.234l-4.8,8ZM17.1,60h-3.99l1.8-18H18.9Zm2.339-20H15.766l4.8-8h3.668Zm.481,12,.2-2H43.9l.2,2ZM43.434,40H39.766l4.8-8h3.668Zm3.471,20-1.8-18H49.1l1.8,18ZM54,32v8H45.766l4.8-8Zm-3.434-6-4.8-8H54v8Z"/></g></svg>
