<?xml version="1.0"?>
<svg xmlns="http://www.w3.org/2000/svg" viewBox="0 0 64 64" width="512" height="512"><g id="Filled_outline" data-name="Filled outline"><rect x="23" y="46" width="20" height="8" style="fill:#d3843d"/><rect x="3" y="38" width="10" height="8" style="fill:#d3843d"/><rect x="23" y="30" width="20" height="8" style="fill:#d3843d"/><rect x="43" y="46" width="18" height="8" style="fill:#f3bb59"/><rect x="13" y="38" width="20" height="8" style="fill:#f3bb59"/><rect x="33" y="22" width="20" height="8" style="fill:#f3bb59"/><rect x="7" y="10" width="20" height="8" style="fill:#f3bb59"/><rect x="3" y="46" width="20" height="8" style="fill:#b5554e"/><rect x="6" y="49" width="2" height="2" style="fill:#f3bb59"/><rect x="18" y="49" width="2" height="2" style="fill:#f3bb59"/><rect x="26" y="49" width="2" height="2" style="fill:#f3bb59"/><rect x="38" y="49" width="2" height="2" style="fill:#f3bb59"/><rect x="46" y="49" width="2" height="2" style="fill:#b5554e"/><rect x="56" y="49" width="2" height="2" style="fill:#b5554e"/><rect x="16" y="41" width="2" height="2" style="fill:#b5554e"/><rect x="28" y="41" width="2" height="2" style="fill:#b5554e"/><rect x="33" y="38" width="20" height="8" style="fill:#b5554e"/><rect x="36" y="41" width="2" height="2" style="fill:#f3bb59"/><rect x="48" y="41" width="2" height="2" style="fill:#f3bb59"/><rect x="8" y="41" width="2" height="2" style="fill:#f3bb59"/><rect x="3" y="30" width="20" height="8" style="fill:#b5554e"/><rect x="6" y="33" width="2" height="2" style="fill:#f3bb59"/><rect x="18" y="33" width="2" height="2" style="fill:#f3bb59"/><rect x="26" y="33" width="2" height="2" style="fill:#f3bb59"/><rect x="38" y="33" width="2" height="2" style="fill:#f3bb59"/><rect x="36" y="25" width="2" height="2" style="fill:#b5554e"/><rect x="48" y="25" width="2" height="2" style="fill:#b5554e"/><rect x="10" y="13" width="2" height="2" style="fill:#b5554e"/><rect x="22" y="13" width="2" height="2" style="fill:#b5554e"/><rect x="10" y="21" width="2" height="4" style="fill:#bfbfbf"/><rect x="14" y="21" width="2" height="4" style="fill:#bfbfbf"/><rect x="18" y="21" width="2" height="4" style="fill:#bfbfbf"/><rect x="22" y="21" width="2" height="4" style="fill:#bfbfbf"/><rect x="6" y="49" width="2" height="2"/><rect x="18" y="49" width="2" height="2"/><rect x="26" y="49" width="2" height="2"/><rect x="38" y="49" width="2" height="2"/><path d="M61,45H54V38a1,1,0,0,0-1-1H44V31h9a1,1,0,0,0,1-1V22a1,1,0,0,0-1-1H33a1,1,0,0,0-1,1v7H3a1,1,0,0,0-1,1V54a1,1,0,0,0,1,1H61a1,1,0,0,0,1-1V46A1,1,0,0,0,61,45ZM34,23H52v6H34ZM24,31H42v6H24ZM4,31H22v6H4Zm0,8h8v6H4ZM22,53H4V47H22Zm-8-8V39H32v6Zm28,8H24V47H42Zm-8-8V39H52v6Zm26,8H44V47H60Z"/><rect x="46" y="49" width="2" height="2"/><rect x="56" y="49" width="2" height="2"/><rect x="16" y="41" width="2" height="2"/><rect x="28" y="41" width="2" height="2"/><rect x="36" y="41" width="2" height="2"/><rect x="48" y="41" width="2" height="2"/><rect x="8" y="41" width="2" height="2"/><rect x="6" y="33" width="2" height="2"/><rect x="18" y="33" width="2" height="2"/><rect x="26" y="33" width="2" height="2"/><rect x="38" y="33" width="2" height="2"/><rect x="36" y="25" width="2" height="2"/><rect x="48" y="25" width="2" height="2"/><path d="M7,19H27a1,1,0,0,0,1-1V10a1,1,0,0,0-1-1H7a1,1,0,0,0-1,1v8A1,1,0,0,0,7,19Zm1-8H26v6H8Z"/><rect x="10" y="13" width="2" height="2"/><rect x="22" y="13" width="2" height="2"/><rect x="10" y="21" width="2" height="4"/><rect x="14" y="21" width="2" height="4"/><rect x="18" y="21" width="2" height="4"/><rect x="22" y="21" width="2" height="4"/></g></svg>
