<?xml version="1.0"?>
<svg xmlns="http://www.w3.org/2000/svg" viewBox="0 0 64 64" width="512" height="512"><g id="Filled_outline" data-name="Filled outline"><rect x="17" y="13" width="30" height="16" style="fill:#fcf05a"/><rect x="17" y="3" width="30" height="6" style="fill:#fcf05a"/><rect x="17" y="29" width="30" height="8" style="fill:#f3bb59"/><path d="M20,37v4h3a4,4,0,0,1,4,4V57H37V45a4,4,0,0,1,4-4h3V37Z" style="fill:#d3843d"/><path d="M27,57H37a0,0,0,0,1,0,0v2a2,2,0,0,1-2,2H29a2,2,0,0,1-2-2V57A0,0,0,0,1,27,57Z" style="fill:#f3bb59"/><rect x="20" y="13" width="2" height="9" style="fill:#f3bb59"/><rect x="20" y="3" width="2" height="3" style="fill:#f3bb59"/><rect x="24" y="3" width="2" height="4" style="fill:#f3bb59"/><rect x="25" y="13" width="2" height="12" style="fill:#f3bb59"/><rect x="34" y="13" width="2" height="9" style="fill:#f3bb59"/><rect x="40" y="13" width="2" height="12" style="fill:#f3bb59"/><rect x="17" y="32" width="5" height="2" style="fill:#d3843d"/><rect x="24" y="32" width="2" height="2" style="fill:#d3843d"/><rect x="31" y="52" width="2" height="5" style="fill:#f3bb59"/><path d="M17,38h2v3a1,1,0,0,0,1,1h3a3,3,0,0,1,3,3V59a3,3,0,0,0,3,3h6a3,3,0,0,0,3-3V45a3,3,0,0,1,3-3h3a1,1,0,0,0,1-1V38h2a1,1,0,0,0,1-1V13a1,1,0,0,0-1-1H17a1,1,0,0,0-1,1V37A1,1,0,0,0,17,38ZM36,59a1,1,0,0,1-1,1H29a1,1,0,0,1-1-1V58h8Zm7-19H41a5.006,5.006,0,0,0-5,5V56H33V52H31v4H28V45a5.006,5.006,0,0,0-5-5H21V38H43ZM18,14h2v8h2V14h3V25h2V14h7v8h2V14h4V25h2V14h4V28H18Zm0,20h4V32H18V30H46v6H18Z"/><rect x="24" y="32" width="2" height="2"/><path d="M17,10H47a1,1,0,0,0,1-1V3a1,1,0,0,0-1-1H17a1,1,0,0,0-1,1V9A1,1,0,0,0,17,10Zm1-6h2V6h2V4h2V7h2V4H46V8H18Z"/></g></svg>
