<?xml version="1.0"?>
<svg xmlns="http://www.w3.org/2000/svg" viewBox="0 0 64 64" width="512" height="512"><g id="Filled_outline" data-name="Filled outline"><path d="M18,18a1,1,0,0,1-1-1V13a1,1,0,0,1,2,0v4A1,1,0,0,1,18,18Z" style="fill:#bfbfbf"/><rect x="34" y="3" width="24" height="58" style="fill:#418abd"/><rect x="6" y="29" width="24" height="32" style="fill:#bfbfbf"/><rect x="9" y="25" width="18" height="4" style="fill:#6b809b"/><rect x="11" y="21" width="14" height="4" style="fill:#bfbfbf"/><rect x="13" y="17" width="10" height="4" style="fill:#6b809b"/><rect x="14" y="53" width="8" height="8" style="fill:#6b809b"/><rect x="11" y="33" width="14" height="2" style="fill:#6b809b"/><rect x="11" y="37" width="14" height="2" style="fill:#6b809b"/><rect x="11" y="41" width="14" height="2" style="fill:#6b809b"/><rect x="11" y="45" width="14" height="2" style="fill:#6b809b"/><rect x="40" y="53" width="12" height="8" style="fill:#f3bb59"/><rect x="38" y="7" width="6" height="6" style="fill:#fcf05a"/><rect x="48" y="7" width="6" height="6" style="fill:#fcf05a"/><rect x="38" y="17" width="6" height="6" style="fill:#fcf05a"/><rect x="48" y="17" width="6" height="6" style="fill:#fcf05a"/><rect x="38" y="27" width="6" height="6" style="fill:#fcf05a"/><rect x="48" y="27" width="6" height="6" style="fill:#fcf05a"/><rect x="38" y="37" width="6" height="6" style="fill:#fcf05a"/><rect x="48" y="37" width="6" height="6" style="fill:#fcf05a"/><rect x="45" y="47" width="2" height="2" style="fill:#f3bb59"/><rect x="49" y="47" width="2" height="2" style="fill:#f3bb59"/><rect x="41" y="47" width="2" height="2" style="fill:#f3bb59"/><path d="M5,29V61a1,1,0,0,0,1,1H30a1,1,0,0,0,1-1V29a1,1,0,0,0-1-1H28V25a1,1,0,0,0-1-1H26V21a1,1,0,0,0-1-1H24V17a1,1,0,0,0-1-1H19V13a1,1,0,0,0-2,0v3H13a1,1,0,0,0-1,1v3H11a1,1,0,0,0-1,1v3H9a1,1,0,0,0-1,1v3H6A1,1,0,0,0,5,29ZM21,60H15V54h6ZM14,18h8v2H14Zm-2,4H24v2H12Zm-2,4H26v2H10ZM7,30H29V60H23V53a1,1,0,0,0-1-1H14a1,1,0,0,0-1,1v7H7Z"/><path d="M59,61V3a1,1,0,0,0-1-1H34a1,1,0,0,0-1,1V61a1,1,0,0,0,1,1H58A1,1,0,0,0,59,61Zm-8-1H41V54H51Zm6,0H53V53a1,1,0,0,0-1-1H40a1,1,0,0,0-1,1v7H35V4H57Z"/><rect x="11" y="33" width="14" height="2"/><rect x="11" y="37" width="14" height="2"/><rect x="11" y="41" width="14" height="2"/><rect x="11" y="45" width="14" height="2"/><path d="M38,14h6a1,1,0,0,0,1-1V7a1,1,0,0,0-1-1H38a1,1,0,0,0-1,1v6A1,1,0,0,0,38,14Zm1-6h4v4H39Z"/><path d="M48,14h6a1,1,0,0,0,1-1V7a1,1,0,0,0-1-1H48a1,1,0,0,0-1,1v6A1,1,0,0,0,48,14Zm1-6h4v4H49Z"/><path d="M38,24h6a1,1,0,0,0,1-1V17a1,1,0,0,0-1-1H38a1,1,0,0,0-1,1v6A1,1,0,0,0,38,24Zm1-6h4v4H39Z"/><path d="M48,24h6a1,1,0,0,0,1-1V17a1,1,0,0,0-1-1H48a1,1,0,0,0-1,1v6A1,1,0,0,0,48,24Zm1-6h4v4H49Z"/><path d="M38,34h6a1,1,0,0,0,1-1V27a1,1,0,0,0-1-1H38a1,1,0,0,0-1,1v6A1,1,0,0,0,38,34Zm1-6h4v4H39Z"/><path d="M48,34h6a1,1,0,0,0,1-1V27a1,1,0,0,0-1-1H48a1,1,0,0,0-1,1v6A1,1,0,0,0,48,34Zm1-6h4v4H49Z"/><path d="M38,44h6a1,1,0,0,0,1-1V37a1,1,0,0,0-1-1H38a1,1,0,0,0-1,1v6A1,1,0,0,0,38,44Zm1-6h4v4H39Z"/><path d="M48,44h6a1,1,0,0,0,1-1V37a1,1,0,0,0-1-1H48a1,1,0,0,0-1,1v6A1,1,0,0,0,48,44Zm1-6h4v4H49Z"/><rect x="45" y="47" width="2" height="2"/><rect x="49" y="47" width="2" height="2"/><rect x="41" y="47" width="2" height="2"/></g></svg>
