<?xml version="1.0"?>
<svg xmlns="http://www.w3.org/2000/svg" viewBox="0 0 64 64" width="512" height="512"><g id="Filled_outline" data-name="Filled outline"><path d="M46,44H18a1,1,0,0,1,0-2H46a1,1,0,0,1,0,2Z" style="fill:#394d5c"/><path d="M32,47a1,1,0,0,1-1-1V40a1,1,0,0,1,2,0v6A1,1,0,0,1,32,47Z" style="fill:#bfbfbf"/><polygon points="22 61 19 52 26 52 22 61" style="fill:#bfbfbf"/><rect x="28" y="9" width="8" height="9" style="fill:#418abd"/><polygon points="38 56 36 24 40 24 42 50 38 56" style="fill:#418abd"/><polygon points="24 24 21 48 17 48 17 52 26 52 28 24 24 24" style="fill:#418abd"/><path d="M32,3h0a2,2,0,0,1,2,2V9a0,0,0,0,1,0,0H30a0,0,0,0,1,0,0V5A2,2,0,0,1,32,3Z" style="fill:#f3bb59"/><path d="M26,18H38a2,2,0,0,1,2,2v4a0,0,0,0,1,0,0H24a0,0,0,0,1,0,0V20A2,2,0,0,1,26,18Z" style="fill:#f3bb59"/><path d="M38,62a1,1,0,0,1-1-1V56a1,1,0,0,1,2,0v5A1,1,0,0,1,38,62Z" style="fill:#394d5c"/><rect x="31" y="9" width="2" height="5" style="fill:#bfbfbf"/><path d="M17,47a1,1,0,0,0-1,1v4a1,1,0,0,0,1,1h1.279l2.772,8.316a1,1,0,0,0,.9.683H22a1,1,0,0,0,.914-.594l4-9A1.905,1.905,0,0,0,27,52.071L27.574,44H31v2a1,1,0,0,0,2,0V44h3.248L37,56.031V61a1,1,0,0,0,2,0V56.3l3.832-5.748A1,1,0,0,0,43,49.923L42.541,44H46a1,1,0,0,0,0-2H42.388L41,23.961V20a3,3,0,0,0-3-3H37V8H35V5a3,3,0,0,0-6,0V8H27v9H26a3,3,0,0,0-3,3v3.938L20.742,42H18a1,1,0,0,0,0,2h2.492l-.375,3Zm5.133,11.238L20.387,53h4.074ZM33,42V40a1,1,0,0,0-2,0v2H27.717l1.214-17h6.13l1.062,17Zm7.977,7.732-2.164,3.246L38.19,43V43L37.064,25h2.01ZM31,5a1,1,0,0,1,2,0V8H31Zm-2,5h2v4h2V10h2v7H29ZM25,20a1,1,0,0,1,1-1H38a1,1,0,0,1,1,1v3H25ZM21,49a1,1,0,0,0,.992-.876L24.883,25h2.043L25.64,43h0l-.571,8H18V49Z"/></g></svg>
