<?xml version="1.0"?>
<svg xmlns="http://www.w3.org/2000/svg" viewBox="0 0 64 64" width="512" height="512"><g id="Filled_outline" data-name="Filled outline"><polygon points="49 53 15 53 27 3 37 3 49 53" style="fill:#fcf05a"/><rect x="8" y="57" width="48" height="4" style="fill:#d3843d"/><rect x="11" y="53" width="42" height="4" style="fill:#f3bb59"/><polygon points="22.68 21 41.32 21 38.44 9 25.56 9 22.68 21" style="fill:#f3bb59"/><polygon points="17.88 41 46.12 41 43.24 29 20.76 29 17.88 41" style="fill:#f3bb59"/><rect x="42" y="47" width="2" height="2" style="fill:#d3843d"/><rect x="38" y="47" width="2" height="2" style="fill:#d3843d"/><rect x="28" y="12" width="2" height="2" style="fill:#d3843d"/><path d="M8,62H56a1,1,0,0,0,1-1V57a1,1,0,0,0-1-1H54V53a1,1,0,0,0-1-1H49.789L37.973,2.767A1,1,0,0,0,37,2H27a1,1,0,0,0-.973.767L14.211,52H11a1,1,0,0,0-1,1v3H8a1,1,0,0,0-1,1v4A1,1,0,0,0,8,62ZM27.788,4h8.424l.96,4H26.828Zm-1.44,6h11.3l2.4,10h-16.1Zm-2.88,12H40.532l1.44,6H22.028Zm-1.92,8h20.9l2.4,10h-25.7Zm-2.88,12H45.332l2.4,10H16.269ZM12,54H52v2H12ZM9,58H55v2H9Z"/><rect x="42" y="47" width="2" height="2"/><rect x="38" y="47" width="2" height="2"/><rect x="28" y="12" width="2" height="2"/></g></svg>
