<?xml version="1.0"?>
<svg xmlns="http://www.w3.org/2000/svg" viewBox="0 0 64 64" width="512" height="512"><g id="Filled_outline" data-name="Filled outline"><path d="M54,39H32a1,1,0,0,1-.633-1.774l11-9a1,1,0,0,1,1.266,0l11,9A1,1,0,0,1,54,39ZM34.8,37H51.2L43,30.292Z" style="fill:#4481c3"/><rect x="32" y="50" width="22" height="11" style="fill:#f3bb59"/><polygon points="61 13 3 13 3 3 51 3 61 13" style="fill:#e8e8e8"/><path d="M61,14H3a1,1,0,0,1-1-1V3A1,1,0,0,1,3,2H51a1,1,0,0,1,.707.293l10,10A1,1,0,0,1,61,14ZM4,12H58.586l-8-8H4Z" style="fill:#7d8d9c"/><path d="M23,14H13a1,1,0,0,1-1-1V3a1,1,0,0,1,1.707-.707l10,10A1,1,0,0,1,23,14Zm-9-2h6.586L14,5.414Z" style="fill:#7d8d9c"/><path d="M33,14H23a1,1,0,0,1-1-1V3a1,1,0,0,1,1.707-.707l10,10A1,1,0,0,1,33,14Zm-9-2h6.586L24,5.414Z" style="fill:#7d8d9c"/><path d="M43,14H33a1,1,0,0,1-1-1V3a1,1,0,0,1,1.707-.707l10,10A1,1,0,0,1,43,14Zm-9-2h6.586L34,5.414Z" style="fill:#7d8d9c"/><path d="M53,14H43a1,1,0,0,1-1-1V3a1,1,0,0,1,1.707-.707l10,10A1,1,0,0,1,53,14Zm-9-2h6.586L44,5.414Z" style="fill:#7d8d9c"/><rect x="38" y="20" width="10" height="2" style="fill:#5a6470"/><path d="M43,31a4,4,0,0,1-4-4h2a2,2,0,1,0,2-2,1,1,0,0,1-1-1V3h2V23.126A4,4,0,0,1,43,31Z" style="fill:#d9176c"/><path d="M14,13a1,1,0,0,0-1-1H3c-.019,0-.035.01-.053.011a.982.982,0,0,0-.282.057.736.736,0,0,0-.071.022l-.027.009a.975.975,0,0,0-.256.182c-.019.018-.032.039-.049.058a.979.979,0,0,0-.152.225c-.014.03-.028.058-.04.089A.989.989,0,0,0,2,13V61a1,1,0,0,0,1,1H13a.975.975,0,0,0,.349-.071.825.825,0,0,0,.1-.045.948.948,0,0,0,.208-.14.842.842,0,0,0,.077-.069.994.994,0,0,0,.179-.266c0-.009.011-.015.014-.023l0,0a1.015,1.015,0,0,0,.069-.346c0-.013.007-.024.007-.037ZM4,23.414,10.586,30H4Zm0,10L10.586,40H4Zm0,10L10.586,50H4ZM5.414,42H12v6.586Zm0-10H12v6.586ZM12,28.586,5.414,22H12ZM4,20V15.081L10.149,20Zm8,32v6.586L5.414,52Zm0-33.08L5.85,14H12ZM4,60V53.414L10.586,60Z" style="fill:#7d8d9c"/><path d="M46.553,43.105,44,44.382V41H42v3.382l-2.553-1.277-.894,1.79,4,2a1,1,0,0,0,.894,0l4-2Z" style="fill:#dd3e46"/><rect x="38" y="55" width="10" height="6" style="fill:#d3843d"/><path d="M61.707,12.293l-10-10A1,1,0,0,0,51,2H3A1,1,0,0,0,2,3V61a1,1,0,0,0,1,1H13a1,1,0,0,0,1-1V14H42v6H38v2h4v2a1,1,0,0,0,1,1,2,2,0,0,1,1.139,3.64l-.506-.414a1,1,0,0,0-1.266,0l-.506.414A2,2,0,0,1,41,27H39a3.975,3.975,0,0,0,1.291,2.924l-8.924,7.3A1,1,0,0,0,32,39H54a1,1,0,0,0,.633-1.774l-8.924-7.3A3.985,3.985,0,0,0,44,23.126V22h4V20H44V14H61a1,1,0,0,0,.707-1.707ZM51.2,37H34.8l7.429-6.078a3.84,3.84,0,0,0,1.54,0ZM5.414,52H12v6.586ZM4,23.414,10.586,30H4Zm0,10L10.586,40H4Zm0,10L10.586,50H4ZM5.414,42H12v6.586Zm0-10H12v6.586ZM12,28.586,5.414,22H12ZM4,20V15.081L10.149,20Zm8-1.08L5.85,14H12ZM42,4v6.586L35.414,4ZM32,4v6.586L25.414,4ZM22,4v6.586L15.414,4ZM4,4h8v8H4ZM4,53.414,10.586,60H4ZM14,12V5.414L20.586,12Zm10,0V5.414L30.586,12Zm10,0V5.414L40.586,12Zm10,0V5.414L50.586,12Zm9.414,0-8-8h5.172l8,8Z"/><path d="M54,49H32a1,1,0,0,0-1,1V61a1,1,0,0,0,1,1H54a1,1,0,0,0,1-1V50A1,1,0,0,0,54,49ZM39,60V56h8v4Zm14,0H49V55a1,1,0,0,0-1-1H38a1,1,0,0,0-1,1v5H33V51H53Z"/><path d="M42,41v3.382l-2.553-1.277-.894,1.79,4,2a1,1,0,0,0,.894,0l4-2-.894-1.79L44,44.382V41Z"/></g></svg>
