<?xml version="1.0"?>
<svg xmlns="http://www.w3.org/2000/svg" viewBox="0 0 64 64" width="512" height="512"><g id="Filled_outline" data-name="Filled outline"><path d="M48,58H45V56h3a2,2,0,0,0,0-4H46a1,1,0,0,1-1-1V44h2v6h1a4,4,0,0,1,0,8Z" style="fill:#418abd"/><path d="M61.707,18.293l-8-8A1,1,0,0,0,53,10H3a1,1,0,0,0-1,1v8a1,1,0,0,0,1,1H13V61a1,1,0,0,0,1,1h8a1,1,0,0,0,1-1V20H61a1,1,0,0,0,.707-1.707ZM13,18H4V12h9Zm2-4.586L19.586,18H15Zm0,8L19.586,26H15Zm0,8L19.586,34H15Zm0,8L19.586,42H15Zm0,8L19.586,50H15ZM21,60H15V52h6Zm0-11.414L16.414,44H21Zm0-8L16.414,36H21Zm0-8L16.414,28H21Zm0-8L16.414,20H21Zm0-8L16.414,12H21ZM45,12v4.586L40.414,12Zm-8,0v4.586L32.414,12Zm-8,0v4.586L24.414,12Zm-6,6V13.414L27.586,18Zm8,0V13.414L35.586,18Zm8,0V13.414L43.586,18Zm8,0V13.414L51.586,18Zm7.414,0-6-6h4.172l6,6Z" style="fill:#7d8d9c"/><rect x="4" y="25" width="6" height="14" style="fill:#6b809b"/><path d="M46.242,10.03l-32-8-.027,0a.747.747,0,0,0-.106-.011.934.934,0,0,0-.175-.009,1.113,1.113,0,0,0-.111.018,1.024,1.024,0,0,0-.163.041c-.014.005-.029,0-.043.01s-.046.03-.071.043a.944.944,0,0,0-.136.082,1.114,1.114,0,0,0-.1.084c-.021.02-.046.034-.065.056l-7,8A1,1,0,0,0,6,11V25H8V11.376l5-5.714V11a1,1,0,0,0,1,1h8a1,1,0,0,0,.707-1.707L17.259,4.845,45,11.781V23h2V11A1,1,0,0,0,46.242,10.03ZM15,10V5.414L19.586,10Z" style="fill:#d9176c"/><rect x="39" y="23" width="14" height="4" style="fill:#d3843d"/><polygon points="53 36 53 44 46 46 39 44 39 36 53 36" style="fill:#d3843d"/><rect x="40" y="27" width="2" height="9" style="fill:#6b809b"/><rect x="50" y="27" width="2" height="9" style="fill:#6b809b"/><rect x="42" y="39" width="2" height="2" style="fill:#fff"/><rect x="48" y="39" width="2" height="2" style="fill:#fff"/><path d="M61.707,18.293l-8-8A1,1,0,0,0,53,10H46.123L14.242,2.03a1,1,0,0,0-1,.311L6.546,10H3a1,1,0,0,0-1,1v8a1,1,0,0,0,1,1H6v4H4a1,1,0,0,0-1,1V39a1,1,0,0,0,1,1h6a1,1,0,0,0,1-1V25a1,1,0,0,0-1-1H8V20h5V61a1,1,0,0,0,1,1h8a1,1,0,0,0,1-1V20H45v2H39a1,1,0,0,0-1,1v4a1,1,0,0,0,1,1h1v7H39a1,1,0,0,0-1,1v8a1,1,0,0,0,.726.961L45,46.754V51a1,1,0,0,0,1,1h2a2,2,0,0,1,0,4H45v2h3a4,4,0,0,0,0-8H47V46.754l6.274-1.793A1,1,0,0,0,54,44V36a1,1,0,0,0-1-1H52V28h1a1,1,0,0,0,1-1V23a1,1,0,0,0-1-1H47V20H61a1,1,0,0,0,.707-1.707ZM9,38H5V26H9Zm43,5.246L46,44.96l-6-1.714V37H52ZM50,35H42V28h8Zm2-9H40V24H52ZM15,13.414,19.586,18H15Zm0,16L19.586,34H15Zm0,8L19.586,42H15ZM16.414,36H21v4.586ZM21,32.586,16.414,28H21ZM15,26V21.414L19.586,26Zm0,19.414L19.586,50H15ZM16.414,44H21v4.586ZM21,24.586,16.414,20H21ZM16.414,12H21v4.586ZM15,10V5.414L19.586,10Zm30,2v4.586L40.414,12ZM22.414,10,17.259,4.845,37.877,10ZM37,12v4.586L32.414,12Zm-8,0v4.586L24.414,12ZM13,5.662V10H9.2ZM4,18V12H6v6Zm4-6h5v6H8Zm7,48V52h6v8Zm8-42V13.414L27.586,18Zm8,0V13.414L35.586,18Zm8,0V13.414L43.586,18Zm8,0V13.414L51.586,18Zm7.414,0-6-6h4.172l6,6Z"/><rect x="42" y="39" width="2" height="2"/><rect x="48" y="39" width="2" height="2"/></g></svg>
