<?xml version="1.0"?>
<svg xmlns="http://www.w3.org/2000/svg" viewBox="0 0 64 64" width="512" height="512"><g id="Filled_outline" data-name="Filled outline"><rect x="17" y="3" width="30" height="58" style="fill:#418abd"/><rect x="24" y="37" width="6" height="18" style="fill:#cdeef6"/><rect x="34" y="37" width="6" height="18" style="fill:#cdeef6"/><rect x="24" y="17" width="6" height="8" style="fill:#cdeef6"/><rect x="34" y="17" width="6" height="8" style="fill:#cdeef6"/><path d="M26,7h2a2,2,0,0,1,2,2v4a0,0,0,0,1,0,0H24a0,0,0,0,1,0,0V9A2,2,0,0,1,26,7Z" style="fill:#cdeef6"/><path d="M36,7h2a2,2,0,0,1,2,2v4a0,0,0,0,1,0,0H34a0,0,0,0,1,0,0V9A2,2,0,0,1,36,7Z" style="fill:#cdeef6"/><path d="M30,30H25.816a3,3,0,1,0,0,2H30Zm-7,2a1,1,0,1,1,1-1A1,1,0,0,1,23,32Z" style="fill:#fff"/><rect x="13" y="3" width="4" height="58" style="fill:#bfbfbf"/><rect x="47" y="3" width="4" height="58" style="fill:#bfbfbf"/><path d="M25.816,32H30V30H25.816a3,3,0,1,0,0,2ZM22,31a1,1,0,1,1,1,1A1,1,0,0,1,22,31Z"/><path d="M23,56h8V36H23Zm2-18h4V54H25Z"/><path d="M33,56h8V36H33Zm2-18h4V54H35Z"/><path d="M23,26h8V16H23Zm2-8h4v6H25Z"/><path d="M33,26h8V16H33Zm2-8h4v6H35Z"/><path d="M28,6H26a3,3,0,0,0-3,3v5h8V9A3,3,0,0,0,28,6Zm1,6H25V9a1,1,0,0,1,1-1h2a1,1,0,0,1,1,1Z"/><path d="M38,6H36a3,3,0,0,0-3,3v5h8V9A3,3,0,0,0,38,6Zm1,6H35V9a1,1,0,0,1,1-1h2a1,1,0,0,1,1,1Z"/><path d="M52,62V2H12V62ZM48,4h2V60H48ZM18,4H46V60H18ZM14,4h2V60H14Z"/></g></svg>
