<?xml version="1.0"?>
<svg xmlns="http://www.w3.org/2000/svg" viewBox="0 0 64 64" width="512" height="512"><g id="Filled_outline" data-name="Filled outline"><path d="M61,16H55a1,1,0,0,1,0-2h6a1,1,0,0,1,0,2Z" style="fill:#6b809b"/><path d="M15,48H11a3.77,3.77,0,0,1-4-4L9,20.718l9,3.209L19,44A3.865,3.865,0,0,1,15,48Z" style="fill:#6b809b"/><polygon points="37 25 21 25 7 20 7 5 37 5 37 25" style="fill:#fcf05a"/><rect x="3" y="5" width="4" height="10" style="fill:#f3bb59"/><rect x="37" y="7" width="6" height="16" style="fill:#6b809b"/><rect x="43" y="13" width="4" height="4" style="fill:#bfbfbf"/><rect x="47" y="9" width="4" height="12" style="fill:#6b809b"/><rect x="51" y="12" width="4" height="6" style="fill:#bfbfbf"/><rect x="10" y="8" width="6" height="2" style="fill:#d3843d"/><rect x="10" y="12" width="6" height="2" style="fill:#d3843d"/><rect x="10" y="16" width="6" height="2" style="fill:#d3843d"/><rect x="21" y="9" width="12" height="4" style="fill:#bfbfbf"/><path d="M33,62H31V48a1,1,0,0,0-1-1H26a1,1,0,0,0-1,1v6a3,3,0,0,1-3,3H15a3,3,0,0,1-3-3V48h2v6a1,1,0,0,0,1,1h7a1,1,0,0,0,1-1V48a3,3,0,0,1,3-3h4a3,3,0,0,1,3,3Z" style="fill:#bfbfbf"/><polygon points="7.687 36 7 44 19 44 18.601 36 7.687 36" style="fill:#bfbfbf"/><rect x="8" y="31" width="3" height="2" style="fill:#bfbfbf"/><rect x="13" y="31" width="2" height="2" style="fill:#bfbfbf"/><path d="M3,16H6v4a1,1,0,0,0,.664.942l1.274.455L6.075,43.087,6,43.926a4.571,4.571,0,0,0,1.2,3.491A5.174,5.174,0,0,0,11,49h1v5a3,3,0,0,0,3,3h7a3,3,0,0,0,3-3V48a1,1,0,0,1,1-1h4a1,1,0,0,1,1,1V62h2V48a3,3,0,0,0-3-3H26a3,3,0,0,0-3,3v6a1,1,0,0,1-1,1H15a1,1,0,0,1-1-1V49h1a5.116,5.116,0,0,0,3.687-1.534A4.735,4.735,0,0,0,20,43.95l-.925-18.576,1.59.568A1.01,1.01,0,0,0,21,26H37a1,1,0,0,0,1-1V24h5a1,1,0,0,0,1-1V18h2v3a1,1,0,0,0,1,1h4a1,1,0,0,0,1-1V19h3a1,1,0,0,0,1-1V16h5a1,1,0,0,0,0-2H56V12a1,1,0,0,0-1-1H52V9a1,1,0,0,0-1-1H47a1,1,0,0,0-1,1v3H44V7a1,1,0,0,0-1-1H38V5a1,1,0,0,0-1-1H3A1,1,0,0,0,2,5V15A1,1,0,0,0,3,16Zm49-3h2v4H52Zm-4-3h2V20H48Zm-4,4h2v2H44ZM38,8h4V22H38ZM17.244,46.082A3.067,3.067,0,0,1,15,47H11a3.169,3.169,0,0,1-2.334-.944A2.491,2.491,0,0,1,8.09,45h9.778A2.7,2.7,0,0,1,17.244,46.082ZM8.09,43l.515-6H17.65l.3,6ZM9.121,31,9.886,22.1l7.148,2.551L17.55,35H8.777l.172-2H11V31ZM8,6H36V24H21.173L8,19.3ZM4,6H6v8H4Z"/><rect x="10" y="8" width="6" height="2"/><rect x="10" y="12" width="6" height="2"/><rect x="10" y="16" width="6" height="2"/><path d="M21,14H33a1,1,0,0,0,1-1V9a1,1,0,0,0-1-1H21a1,1,0,0,0-1,1v4A1,1,0,0,0,21,14Zm1-4H32v2H22Z"/><rect x="13" y="31" width="2" height="2"/></g></svg>
