<?xml version="1.0"?>
<svg xmlns="http://www.w3.org/2000/svg" viewBox="0 0 64 64" width="512" height="512"><g id="Filled_outline" data-name="Filled outline"><polygon points="61 36 3 36 3 30 27 28 37 28 61 30 61 36" style="fill:#bfbfbf"/><polygon points="61 17 3 17 3 11 27 9 37 9 61 11 61 17" style="fill:#bfbfbf"/><rect x="3" y="17" width="4" height="6" style="fill:#6b809b"/><rect x="13" y="17" width="4" height="6" style="fill:#6b809b"/><rect x="47" y="17" width="4" height="6" style="fill:#6b809b"/><rect x="57" y="17" width="4" height="6" style="fill:#6b809b"/><rect x="7" y="36" width="4" height="6" style="fill:#6b809b"/><rect x="53" y="36" width="4" height="6" style="fill:#6b809b"/><path d="M48.75,50l-.935-3.2c0-.025,0-.05-.011-.075l-2.04-6.977c0-.009-.01-.014-.012-.023L34.96,2.72A1,1,0,0,0,34,2H30a1,1,0,0,0-.96.72L15.25,50H15v8H49V50ZM19.9,41.237l7.948,2-9.2,2.3Zm.554-1.923,3.087-10.583.055.076L32,22.641l8.408,6.166.055-.076,3.085,10.576-11.6,2.906Zm3.964-13.592L26.491,18.6l3.817,2.8ZM33.692,21.4l3.817-2.8,2.077,7.121ZM44.109,41.229,45.384,45.6,36.05,43.247ZM30.75,4h2.5l3.662,12.557L32,20.159l-4.912-3.6ZM17.983,47.773l13.963-3.5,14.087,3.552L46.667,50H17.333Z" style="fill:#6b809b"/><rect x="10" y="57" width="44" height="4" style="fill:#bfbfbf"/><path d="M61.083,10,37,8h-.5L34.96,2.72A1,1,0,0,0,34,2H30a1,1,0,0,0-.96.72L27.5,8h-.582l-24,2A1,1,0,0,0,2,11V23a1,1,0,0,0,1,1H7a1,1,0,0,0,1-1V18h4v5a1,1,0,0,0,1,1h4a1,1,0,0,0,1-1V18h6.583l-2.749,9.428L2.917,29A1,1,0,0,0,2,30v6a1,1,0,0,0,1,1H6v5a1,1,0,0,0,1,1h4a1,1,0,0,0,1-1V37h7.042l-4,13.72A1.019,1.019,0,0,0,15,51v5H9v6H55V56H49V51a1.019,1.019,0,0,0-.04-.28l-4-13.72H52v5a1,1,0,0,0,1,1h4a1,1,0,0,0,1-1V37h3a1,1,0,0,0,1-1V30a1,1,0,0,0-.917-1L42.167,27.43,39.417,18H46v5a1,1,0,0,0,1,1h4a1,1,0,0,0,1-1V18h4v5a1,1,0,0,0,1,1h4a1,1,0,0,0,1-1V11A1,1,0,0,0,61.083,10ZM30.308,21.4l-5.894,4.322L26.491,18.6ZM29.055,18h5.89L32,20.159ZM32,22.641l6.065,4.448L37,27,26.917,27l-.978.081ZM27,29l9.917,0,3.714.31L42.292,35H21.708l1.662-5.7Zm6.692-7.6,3.817-2.8,2.077,7.121ZM27.25,16,29,10l6,0,1.751,6Zm3.5-12h2.5l1.167,4L29.582,8ZM6,22H4V18H6Zm10,0H14V18h2ZM4,16V11.92l22.915-1.913L25.167,16Zm6,25H8V37h2ZM4,35V30.92l17.235-1.439L19.625,35Zm15.9,6.237,7.948,2-9.2,2.3Zm12.05,3.038,14.087,3.552L46.667,50H17.333l.65-2.227ZM45.384,45.6,36.05,43.247l8.059-2.018ZM53,60H11V58H53ZM17,56V52H47v4ZM43.548,39.307l-11.6,2.906-11.5-2.9L21.125,37h21.75ZM56,41H54V37h2Zm4-10.08V35H44.375l-1.609-5.516ZM37.086,10.01,60,11.92V16H38.833ZM50,22H48V18h2Zm10,0H58V18h2Z"/></g></svg>
