<?xml version="1.0"?>
<svg xmlns="http://www.w3.org/2000/svg" viewBox="0 0 64 64" width="512" height="512"><g id="Filled_outline" data-name="Filled outline"><rect x="9" y="53" width="42" height="8" style="fill:#bfbfbf"/><path d="M27,17V53h6V17a8,8,0,0,1,8-8h0a8,8,0,0,1,8,8v1h6V17A14,14,0,0,0,41,3h0A14,14,0,0,0,27,17Z" style="fill:#6b809b"/><rect x="17" y="43" width="6" height="10" style="fill:#98a1a1"/><rect x="37" y="43" width="6" height="10" transform="translate(80 96) rotate(-180)" style="fill:#98a1a1"/><path d="M55,32a3,3,0,0,1-6,0c0-1.657,3-5,3-5S55,30.343,55,32Z" style="fill:#418abd"/><path d="M13,39H23a0,0,0,0,1,0,0v4a0,0,0,0,1,0,0H13a2,2,0,0,1-2-2v0A2,2,0,0,1,13,39Z" style="fill:#bfbfbf"/><path d="M39,39H49a0,0,0,0,1,0,0v4a0,0,0,0,1,0,0H39a2,2,0,0,1-2-2v0A2,2,0,0,1,39,39Z" transform="translate(86 82) rotate(-180)" style="fill:#bfbfbf"/><rect x="49" y="18" width="6" height="4" style="fill:#bfbfbf"/><rect x="9" y="56" width="5" height="2" style="fill:#fff"/><rect x="16" y="56" width="2" height="2" style="fill:#fff"/><rect x="46" y="56" width="2" height="2" style="fill:#fff"/><path d="M8,52V62H52V52H44V44h3a3,3,0,0,0,0-6H36V52H34V17a7,7,0,0,1,14,0v5a1,1,0,0,0,1,1h6a1,1,0,0,0,1-1V17a15,15,0,0,0-30,0V52H24V38H13a3,3,0,0,0,0,6h3v8ZM38,40h9a1,1,0,0,1,0,2H38Zm0,4h4v8H38ZM54,21H50V19h4ZM28,17a13,13,0,0,1,26,0H50a9,9,0,0,0-18,0V52H28ZM13,42a1,1,0,0,1,0-2h9v2Zm9,2v8H18V44ZM50,54v6H10V58h4V56H10V54Z"/><path d="M52,25.5l-.744.829C50.712,26.938,48,30.059,48,32a4,4,0,0,0,8,0c0-1.941-2.712-5.062-3.256-5.668ZM52,34a2,2,0,0,1-2-2c0-.638.939-2.126,2-3.451,1.062,1.332,2,2.832,2,3.451A2,2,0,0,1,52,34Z"/><rect x="16" y="56" width="2" height="2"/><rect x="46" y="56" width="2" height="2"/></g></svg>
