<?xml version="1.0"?>
<svg xmlns="http://www.w3.org/2000/svg" viewBox="0 0 64 64" width="512" height="512"><g id="Filled_outline" data-name="Filled outline"><path d="M53,35V29H49a18.58,18.58,0,0,0-3-7l3-3-4-4-3,3a18.58,18.58,0,0,0-7-3V11H29v4a18.58,18.58,0,0,0-7,3l-3-3-4,4,3,3a18.58,18.58,0,0,0-3,7H11v6h4a18.58,18.58,0,0,0,3,7l-3,3,4,4,3-3a18.58,18.58,0,0,0,7,3v4h6V49a18.58,18.58,0,0,0,7-3l3,3,4-4-3-3a18.58,18.58,0,0,0,3-7Z" style="fill:#bfbfbf"/><circle cx="32" cy="32" r="12" style="fill:#6b809b"/><circle cx="32" cy="32" r="8" style="fill:#fcf05a"/><path d="M32,58A26.029,26.029,0,0,1,6,32H8A24,24,0,1,0,32,8V6a26,26,0,0,1,0,52Z" style="fill:#418abd"/><path d="M4,32H2A30.034,30.034,0,0,1,32,2V4A28.032,28.032,0,0,0,4,32Z" style="fill:#418abd"/><path d="M32,62V60A28.032,28.032,0,0,0,60,32h2A30.034,30.034,0,0,1,32,62Z" style="fill:#418abd"/><path d="M11,28a1,1,0,0,0-1,1v6a1,1,0,0,0,1,1h3.187a19.766,19.766,0,0,0,2.527,5.872l-2.421,2.421a1,1,0,0,0,0,1.414l4,4a1,1,0,0,0,1.414,0l2.421-2.421A19.737,19.737,0,0,0,28,49.812V53a1,1,0,0,0,1,1h6a1,1,0,0,0,1-1V49.812a19.737,19.737,0,0,0,5.872-2.526l2.421,2.421a1,1,0,0,0,1.414,0l4-4a1,1,0,0,0,0-1.414l-2.421-2.421A19.737,19.737,0,0,0,49.812,36H53a1,1,0,0,0,1-1V29a1,1,0,0,0-1-1H49.812a19.737,19.737,0,0,0-2.526-5.872l2.421-2.421a1,1,0,0,0,0-1.414l-4-4a1,1,0,0,0-1.414,0l-2.421,2.421A19.737,19.737,0,0,0,36,14.188V11a1,1,0,0,0-1-1H29a1,1,0,0,0-1,1v3.188a19.737,19.737,0,0,0-5.872,2.526l-2.421-2.421a1,1,0,0,0-1.414,0l-4,4a1,1,0,0,0,0,1.414l2.421,2.421A19.766,19.766,0,0,0,14.187,28Zm4.984,1.176a17.665,17.665,0,0,1,2.836-6.6,1,1,0,0,0-.113-1.279L16.414,19,19,16.414l2.293,2.293a1,1,0,0,0,1.279.113,17.665,17.665,0,0,1,6.6-2.836A1,1,0,0,0,30,15V12h4v3a1,1,0,0,0,.824.984,17.665,17.665,0,0,1,6.6,2.836,1,1,0,0,0,1.279-.113L45,16.414,47.586,19l-2.293,2.293a1,1,0,0,0-.113,1.279,17.665,17.665,0,0,1,2.836,6.6A1,1,0,0,0,49,30h3v4H49a1,1,0,0,0-.984.824,17.665,17.665,0,0,1-2.836,6.6,1,1,0,0,0,.113,1.279L47.586,45,45,47.586l-2.293-2.293a1,1,0,0,0-1.279-.113,17.665,17.665,0,0,1-6.6,2.836A1,1,0,0,0,34,49v3H30V49a1,1,0,0,0-.824-.984,17.665,17.665,0,0,1-6.6-2.836,1,1,0,0,0-1.279.113L19,47.586,16.414,45l2.293-2.293a1,1,0,0,0,.113-1.279,17.665,17.665,0,0,1-2.836-6.6A1,1,0,0,0,15,34H12V30h3A1,1,0,0,0,15.984,29.176Z"/><path d="M32,45A13,13,0,1,0,19,32,13.015,13.015,0,0,0,32,45Zm0-24A11,11,0,1,1,21,32,11.013,11.013,0,0,1,32,21Z"/><path d="M32,41a9,9,0,1,0-9-9A9.01,9.01,0,0,0,32,41Zm0-16a7,7,0,1,1-7,7A7.009,7.009,0,0,1,32,25Z"/><path d="M6,32A26,26,0,1,0,32,6V8A24,24,0,1,1,8,32Z"/><path d="M32,60A28,28,0,0,1,32,4V2A30,30,0,1,0,62,32H60A28.032,28.032,0,0,1,32,60Z"/></g></svg>
