<?xml version="1.0"?>
<svg xmlns="http://www.w3.org/2000/svg" viewBox="0 0 64 64" width="512" height="512"><g id="Filled_outline" data-name="Filled outline"><rect x="21" y="3" width="22" height="16" style="fill:#bfbfbf"/><rect x="11" y="3" width="6" height="16" style="fill:#bfbfbf"/><path d="M33,61H31a4,4,0,0,1-4-4l1-34h8l1,34A4,4,0,0,1,33,61Z" style="fill:#d3843d"/><rect x="17" y="5" width="4" height="12" style="fill:#6b809b"/><path d="M43,5v8h5c2.209,0,2,1.791,2,4v4l7,4V15A10,10,0,0,0,47,5Z" style="fill:#6b809b"/><rect x="25" y="19" width="14" height="4" style="fill:#6b809b"/><rect x="31" y="50" width="2" height="8" style="fill:#f1d77e"/><rect x="31" y="46" width="2" height="2" style="fill:#f1d77e"/><path d="M40,12H38V8H33V6h6a1,1,0,0,1,1,1Z" style="fill:#6b809b"/><rect x="38" y="14" width="2" height="2" style="fill:#6b809b"/><path d="M10,2V20h8V18h2v2h4v3a1,1,0,0,0,1,1h1.97L26,57a5.006,5.006,0,0,0,5,5h2a5.012,5.012,0,0,0,5-5.029L37.03,24H39a1,1,0,0,0,1-1V20h4V14h4a1.131,1.131,0,0,1,.722.176c.3.3.288,1.355.281,2.288L49,21a1,1,0,0,0,.5.868l7,4A1,1,0,0,0,58,25V15A11.013,11.013,0,0,0,47,4H44V2H20V4H18V2Zm6,16H12V4h4ZM44,6h3a9.01,9.01,0,0,1,9,9v8.276L51,20.42l0-3.941c.011-1.451.021-2.822-.861-3.712A2.9,2.9,0,0,0,48,12H44ZM33,60H31a3,3,0,0,1-3-2.971L28.971,24h6.058L36,57A3,3,0,0,1,33,60Zm5-38H26V20H38ZM22,4H42V18H22ZM20,6V16H18V6Z"/><rect x="31" y="50" width="2" height="8"/><rect x="31" y="46" width="2" height="2"/><path d="M38,12h2V7a1,1,0,0,0-1-1H33V8h5Z"/><rect x="38" y="14" width="2" height="2"/></g></svg>
