<?xml version="1.0"?>
<svg xmlns="http://www.w3.org/2000/svg" viewBox="0 0 64 64" width="512" height="512"><g id="Filled_outline" data-name="Filled outline"><path d="M32,17h0A26,26,0,0,1,58,43v2a0,0,0,0,1,0,0H6a0,0,0,0,1,0,0V43A26,26,0,0,1,32,17Z" style="fill:#fcf05a"/><rect x="3" y="45" width="58" height="6" style="fill:#d3843d"/><polygon points="22 34 14 34 12 20 20 16 22 34" style="fill:#f3bb59"/><polygon points="42 34 50 34 52 20 44 16 42 34" style="fill:#f3bb59"/><polygon points="37 45 27 45 25 13 39 13 37 45" style="fill:#f3bb59"/><rect x="6" y="40" width="5" height="2" style="fill:#f3bb59"/><rect x="13" y="40" width="2" height="2" style="fill:#f3bb59"/><rect x="53" y="40" width="2" height="2" style="fill:#f3bb59"/><rect x="31" y="31" width="2" height="14" style="fill:#fff"/><path d="M61,44H59V43a26.928,26.928,0,0,0-6.729-17.824l.719-5.034a1,1,0,0,0-.543-1.037l-8-4a1,1,0,0,0-1.441.785l-.26,2.336a26.575,26.575,0,0,0-3-1.084L40,13.062A1,1,0,0,0,39,12H25a1,1,0,0,0-1,1.062l.255,4.08a26.575,26.575,0,0,0-3,1.084l-.26-2.336a1,1,0,0,0-1.441-.785l-8,4a1,1,0,0,0-.543,1.037l.719,5.034A26.928,26.928,0,0,0,5,43v1H3a1,1,0,0,0-1,1v6a1,1,0,0,0,1,1H61a1,1,0,0,0,1-1V45A1,1,0,0,0,61,44ZM44.836,17.536l6.072,3.036L49.133,33H43.117Zm-5.221,1.651a24.528,24.528,0,0,1,2.9,1.133L41.006,33.89A1,1,0,0,0,42,35h8a1,1,0,0,0,.99-.858l.9-6.283A24.936,24.936,0,0,1,57,43v1H38.064ZM37.936,14,36.061,44H33V31H31V44H27.939L26.064,14ZM19.164,17.536,20.883,33H14.867L13.092,20.572ZM7,43c0-.335.033-.666.046-1H11V40H7.2a24.892,24.892,0,0,1,4.91-12.141l.9,6.283A1,1,0,0,0,14,35h8a1,1,0,0,0,.994-1.11L21.486,20.32a24.528,24.528,0,0,1,2.9-1.133L25.936,44H7Zm53,7H4V46H60Z"/><rect x="13" y="40" width="2" height="2"/><rect x="53" y="40" width="2" height="2"/></g></svg>
