<?xml version="1.0"?>
<svg xmlns="http://www.w3.org/2000/svg" viewBox="0 0 64 64" width="512" height="512"><g id="Filled_outline" data-name="Filled outline"><rect x="19" y="50" width="26" height="6" style="fill:#6b809b"/><rect x="19" y="38" width="26" height="6" style="fill:#6b809b"/><rect x="19" y="26" width="26" height="6" style="fill:#6b809b"/><rect x="19" y="3" width="26" height="6" style="fill:#6b809b"/><rect x="15" y="3" width="4" height="58" style="fill:#bfbfbf"/><rect x="45" y="3" width="4" height="58" style="fill:#bfbfbf"/><rect x="15" y="25" width="4" height="8" style="fill:#e8e8e8"/><rect x="45" y="25" width="4" height="8" style="fill:#e8e8e8"/><rect x="15" y="37" width="4" height="8" style="fill:#e8e8e8"/><rect x="45" y="37" width="4" height="8" style="fill:#e8e8e8"/><rect x="15" y="49" width="4" height="8" style="fill:#e8e8e8"/><rect x="45" y="49" width="4" height="8" style="fill:#e8e8e8"/><rect x="31" y="26" width="2" height="3" style="fill:#bfbfbf"/><rect x="27" y="26" width="2" height="3" style="fill:#bfbfbf"/><rect x="35" y="26" width="2" height="3" style="fill:#bfbfbf"/><rect x="31" y="50" width="2" height="3" style="fill:#bfbfbf"/><rect x="27" y="50" width="2" height="3" style="fill:#bfbfbf"/><rect x="35" y="50" width="2" height="3" style="fill:#bfbfbf"/><rect x="31" y="38" width="2" height="3" style="fill:#bfbfbf"/><rect x="27" y="38" width="2" height="3" style="fill:#bfbfbf"/><rect x="35" y="38" width="2" height="3" style="fill:#bfbfbf"/><path d="M49,2H15a1,1,0,0,0-1,1V61a1,1,0,0,0,1,1h4a1,1,0,0,0,1-1V57H44v4a1,1,0,0,0,1,1h4a1,1,0,0,0,1-1V3A1,1,0,0,0,49,2ZM18,60H16V58h2Zm0-4H16V50h2Zm0-8H16V46h2Zm0-4H16V38h2Zm0-8H16V34h2Zm0-4H16V26h2Zm0-8H16V4h2ZM44,55H20V51h7v2h2V51h2v2h2V51h2v2h2V51h7Zm0-6H20V45H44Zm0-6H20V39h7v2h2V39h2v2h2V39h2v2h2V39h7Zm0-6H20V33H44Zm0-6H20V27h7v2h2V27h2v2h2V27h2v2h2V27h7Zm0-6H20V10H44ZM44,8H20V4H44Zm4,52H46V58h2Zm0-4H46V50h2Zm0-8H46V46h2Zm0-4H46V38h2Zm0-8H46V34h2Zm0-4H46V26h2Zm0-8H46V4h2Z"/></g></svg>
