<?xml version="1.0"?>
<svg xmlns="http://www.w3.org/2000/svg" viewBox="0 0 64 64" width="512" height="512"><g id="Filled_outline" data-name="Filled outline"><path d="M43,35H61a0,0,0,0,1,0,0v4a2,2,0,0,1-2,2H49a6,6,0,0,1-6-6v0A0,0,0,0,1,43,35Z" style="fill:#fcf05a"/><polygon points="55 11 47 11 42 6 61 6 55 11" style="fill:#fcf05a"/><polygon points="25 19 6 19 6 41 34 41 34 28 25 19" style="fill:#fcf05a"/><rect x="3" y="45" width="42" height="12" rx="6" ry="6" style="fill:#6b809b"/><rect x="10" y="41" width="18" height="4" style="fill:#d3843d"/><polygon points="28 33 16 33 16 23 23 23 28 28 28 33" style="fill:#f3bb59"/><rect x="10" y="23" width="6" height="10" style="fill:#d3843d"/><rect x="20" y="36" width="4" height="2" style="fill:#f3bb59"/><rect x="16" y="36" width="2" height="2" style="fill:#f3bb59"/><rect x="26.393" y="12.464" width="21.213" height="7.071" transform="translate(-0.477 30.849) rotate(-45)" style="fill:#f3bb59"/><polygon points="61 35 55 35 55 11 61 6 61 35" style="fill:#f3bb59"/><path d="M39,48a3,3,0,0,0-2.816,2H26.816a2.982,2.982,0,0,0-5.632,0H11.816a3,3,0,1,0,0,2h9.368a2.982,2.982,0,0,0,5.632,0h9.368A2.995,2.995,0,1,0,39,48Z" style="fill:#bfbfbf"/><path d="M23.707,22.293A1,1,0,0,0,23,22H10a1,1,0,0,0-1,1V33a1,1,0,0,0,1,1H28a1,1,0,0,0,1-1V28a1,1,0,0,0-.293-.707ZM11,24h4v8H11Zm16,8H17V24h5.586L27,28.414Z"/><rect x="20" y="36" width="4" height="2"/><rect x="16" y="36" width="2" height="2"/><path d="M61.424,5.094A1.888,1.888,0,0,0,61,5H42a1,1,0,0,0-.707.293L27,19.586l-1.293-1.293A1,1,0,0,0,25,18H6a1,1,0,0,0-1,1V41a1,1,0,0,0,1,1H9v2A7,7,0,0,0,9,58H39a7,7,0,0,0,0-14H29V42h5a1,1,0,0,0,1-1V28a1,1,0,0,0-.293-.707L33.414,26l14-14H54V34H43a1,1,0,0,0-1,1,7.008,7.008,0,0,0,7,7H59a3,3,0,0,0,3-3V6A1,1,0,0,0,61.424,5.094ZM54.638,10H47.414l-3-3H58.238ZM44,51a5.006,5.006,0,0,1-5,5H9A5,5,0,0,1,9,46H39A5.006,5.006,0,0,1,44,51ZM27,44H11V42H27Zm6-4H7V20H24.586L33,28.414ZM32,24.586,28.414,21,42,7.414,45.586,11ZM56,11.468l4-3.333V34H56ZM60,39a1,1,0,0,1-1,1H49a5.008,5.008,0,0,1-4.9-4H60Z"/><path d="M26.816,50a2.982,2.982,0,0,0-5.632,0H11.816a3,3,0,1,0,0,2h9.368a2.982,2.982,0,0,0,5.632,0h9.368a3,3,0,1,0,0-2ZM9,52a1,1,0,1,1,1-1A1,1,0,0,1,9,52Zm15,0a1,1,0,1,1,1-1A1,1,0,0,1,24,52Zm15-2a1,1,0,1,1-1,1A1,1,0,0,1,39,50Z"/></g></svg>
