<?xml version="1.0"?>
<svg xmlns="http://www.w3.org/2000/svg" viewBox="0 0 64 64" width="512" height="512"><g id="Filled_outline" data-name="Filled outline"><path d="M12,9H52a0,0,0,0,1,0,0V41A20,20,0,0,1,32,61h0A20,20,0,0,1,12,41V9a0,0,0,0,1,0,0Z" style="fill:#6b809b"/><path d="M14,3H50a2,2,0,0,1,2,2V9a0,0,0,0,1,0,0H12a0,0,0,0,1,0,0V5A2,2,0,0,1,14,3Z" style="fill:#bfbfbf"/><rect x="16" y="13" width="32" height="18" style="fill:#fcf05a"/><rect x="6" y="15" width="6" height="16" style="fill:#bfbfbf"/><rect x="52" y="15" width="6" height="16" style="fill:#bfbfbf"/><rect x="15" y="34" width="7" height="2" style="fill:#bfbfbf"/><rect x="24" y="34" width="2" height="2" style="fill:#bfbfbf"/><path d="M32.083,58,31.916,56c.461-.04,11.344-1.092,14.119-11.267l1.93.526C44.817,56.805,32.21,57.986,32.083,58Z" style="fill:#bfbfbf"/><rect x="32.654" y="18" width="17.692" height="1.999" transform="translate(-1.878 33.198) rotate(-42.724)" style="fill:#f3bb59"/><rect x="13.654" y="24" width="17.692" height="1.999" transform="translate(-10.991 21.9) rotate(-42.724)" style="fill:#f3bb59"/><rect x="41.964" y="20.5" width="7.071" height="2" transform="translate(-1.876 38.471) rotate(-45)" style="fill:#f3bb59"/><rect x="14.964" y="22.5" width="7.071" height="2" transform="translate(-11.198 19.964) rotate(-45)" style="fill:#f3bb59"/><rect x="47" y="34" width="2" height="2" style="fill:#bfbfbf"/><path d="M58,14H53V5a3,3,0,0,0-3-3H14a3,3,0,0,0-3,3v9H6a1,1,0,0,0-1,1V31a1,1,0,0,0,1,1h5v9a21,21,0,0,0,42,0V32h5a1,1,0,0,0,1-1V15A1,1,0,0,0,58,14ZM11,30H7V16h4ZM51,41a19,19,0,0,1-38,0V10H51ZM51,8H13V5a1,1,0,0,1,1-1H50a1,1,0,0,1,1,1Zm6,22H53V16h4Z"/><path d="M49,12H15V32H49Zm-2,6.586-4.707,4.707,1.414,1.414L47,21.414V30H18.557L29.678,19.734l-1.356-1.468L17,28.716v-2.3l4.707-4.707-1.414-1.414L17,23.586V14H45.443L34.322,24.266l1.356,1.468L47,15.284Z"/><rect x="15" y="34" width="7" height="2"/><rect x="24" y="34" width="2" height="2"/><path d="M31.916,56,32.083,58c.127-.01,12.734-1.191,15.882-12.733l-1.93-.526C43.26,54.912,32.377,55.964,31.916,56Z"/><rect x="47" y="34" width="2" height="2"/></g></svg>
