<?xml version="1.0"?>
<svg xmlns="http://www.w3.org/2000/svg" viewBox="0 0 64 64" width="512" height="512"><g id="Filled_outline" data-name="Filled outline"><path d="M33,29A15,15,0,1,0,7,39.174V46H33Z" style="fill:#fcf05a"/><path d="M18,19A10,10,0,0,0,8,29a9.156,9.156,0,0,0,3,7L27,25A9.593,9.593,0,0,0,18,19Z" style="fill:#6b809b"/><path d="M29,28v8a2,2,0,0,1-2,2H15Z" style="fill:#6b809b"/><rect x="7" y="41" width="5" height="2" style="fill:#f3bb59"/><rect x="14" y="41" width="2" height="2" style="fill:#f3bb59"/><rect x="33" y="40" width="28" height="6" style="fill:#d3843d"/><rect x="60" y="40" width="2" height="10" style="fill:#6b809b"/><rect x="36" y="40" width="2" height="3" style="fill:#f3bb59"/><rect x="42" y="40" width="2" height="3" style="fill:#f3bb59"/><rect x="48" y="40" width="2" height="3" style="fill:#f3bb59"/><rect x="54" y="40" width="2" height="3" style="fill:#f3bb59"/><path d="M18,18A11.013,11.013,0,0,0,7,29a10.19,10.19,0,0,0,3.317,7.73,1,1,0,0,0,1.249.094l16-11a1,1,0,0,0,.355-1.212A10.622,10.622,0,0,0,18,18ZM11.123,34.7A8.133,8.133,0,0,1,9,29a9.011,9.011,0,0,1,9-9,8.5,8.5,0,0,1,7.734,4.657Z"/><path d="M14.048,38.305A1,1,0,0,0,15,39H27a3,3,0,0,0,3-3V28a1,1,0,0,0-1.581-.814l-14,10A1,1,0,0,0,14.048,38.305ZM28,29.943V36a1,1,0,0,1-1,1H18.121Z"/><rect x="14" y="41" width="2" height="2"/><path d="M61,39H34V29A16,16,0,1,0,6,39.559V46a1,1,0,0,0,1,1H60v3h2V40A1,1,0,0,0,61,39ZM32,45H8V43h4V41H8V39.174a1,1,0,0,0-.266-.679A13.993,13.993,0,1,1,32,29Zm28,0H34V41h2v2h2V41h4v2h2V41h4v2h2V41h4v2h2V41h4Z"/></g></svg>
