<?xml version="1.0"?>
<svg xmlns="http://www.w3.org/2000/svg" viewBox="0 0 64 64" width="512" height="512"><g id="Filled_outline" data-name="Filled outline"><rect x="3" y="8" width="28" height="6" style="fill:#d3843d"/><rect x="3" y="14" width="28" height="6" style="fill:#f3bb59"/><rect x="3" y="20" width="28" height="6" style="fill:#d3843d"/><rect x="3" y="26" width="28" height="6" style="fill:#f3bb59"/><rect x="22" y="17" width="24" height="6" transform="translate(54 -14) rotate(90)" style="fill:#f1d77e"/><rect x="28" y="17" width="24" height="6" transform="translate(60 -20) rotate(90)" style="fill:#d9833b"/><rect x="34" y="17" width="24" height="6" transform="translate(66 -26) rotate(90)" style="fill:#f1d77e"/><rect x="40" y="17" width="24" height="6" transform="translate(72 -32) rotate(90)" style="fill:#d9833b"/><rect x="46" y="17" width="24" height="6" transform="translate(78 -38) rotate(90)" style="fill:#f1d77e"/><rect x="33" y="32" width="28" height="6" transform="translate(94 70) rotate(-180)" style="fill:#d3843d"/><rect x="33" y="38" width="28" height="6" transform="translate(94 82) rotate(-180)" style="fill:#f3bb59"/><rect x="33" y="44" width="28" height="6" transform="translate(94 94) rotate(-180)" style="fill:#d3843d"/><rect x="33" y="50" width="28" height="6" transform="translate(94 106) rotate(-180)" style="fill:#f3bb59"/><rect x="18" y="41" width="24" height="6" transform="translate(74 14) rotate(90)" style="fill:#d9833b"/><rect x="12" y="41" width="24" height="6" transform="translate(68 20) rotate(90)" style="fill:#f1d77e"/><rect x="6" y="41" width="24" height="6" transform="translate(62 26) rotate(90)" style="fill:#d9833b"/><rect y="41" width="24" height="6" transform="translate(56 32) rotate(90)" style="fill:#f1d77e"/><rect x="-6" y="41" width="24" height="6" transform="translate(50 38) rotate(90)" style="fill:#d9833b"/><path d="M61,7H3A1,1,0,0,0,2,8V56a1,1,0,0,0,1,1H61a1,1,0,0,0,1-1V8A1,1,0,0,0,61,7ZM50,9h4V31H50ZM44,9h4V31H44ZM38,9h4V31H38ZM4,9H30v4H4Zm0,6H30v4H4Zm0,6H30v4H4ZM8,55H4V33H8Zm6,0H10V33h4Zm6,0H16V33h4Zm6,0H22V33h4ZM4,31V27H30v4ZM32,55H28V33h4Zm0-24V9h4V31ZM60,55H34V51H60Zm0-6H34V45H60Zm0-6H34V39H60Zm0-6H34V33H60Zm0-6H56V9h4Z"/></g></svg>
