<?xml version="1.0"?>
<svg xmlns="http://www.w3.org/2000/svg" viewBox="0 0 64 64" width="512" height="512"><g id="Filled_outline" data-name="Filled outline"><path d="M42,62a1,1,0,0,1-1-1V56a1,1,0,0,1,2,0v5A1,1,0,0,1,42,62Z" style="fill:#394d5c"/><path d="M22,3h0a4,4,0,0,1,4,4V9a0,0,0,0,1,0,0H18a0,0,0,0,1,0,0V7A4,4,0,0,1,22,3Z" style="fill:#bfbfbf"/><polygon points="26 46 22 48 18 46 18 50 22 61 26 50 26 46" style="fill:#bfbfbf"/><polygon points="18 13 18 46 22 48 26 46 26 13 18 13" style="fill:#418abd"/><rect x="18" y="9" width="8" height="4" style="fill:#394d5c"/><rect x="21" y="20" width="2" height="8" style="fill:#bfbfbf"/><rect x="21" y="16" width="2" height="2" style="fill:#bfbfbf"/><rect x="38" y="19" width="8" height="29" style="fill:#fcf05a"/><rect x="38" y="15" width="8" height="4" style="fill:#f3bb59"/><polygon points="22 61 24.909 53 19.091 53 22 61" style="fill:#394d5c"/><rect x="38" y="36" width="8" height="16" style="fill:#f3bb59"/><rect x="40" y="52" width="4" height="4" style="fill:#b5554e"/><rect x="38" y="11" width="8" height="4" style="fill:#b5554e"/><path d="M46,15v4h2a2,2,0,0,1,2,2V31l4,4V21a6,6,0,0,0-6-6Z" style="fill:#d3843d"/><rect x="40" y="3" width="4" height="8" style="fill:#f3bb59"/><path d="M41,45H38a1,1,0,0,1,0-2h3a1,1,0,0,1,0,2Z" style="fill:#d3843d"/><path d="M41,41H38a1,1,0,0,1,0-2h3a1,1,0,0,1,0,2Z" style="fill:#d3843d"/><rect x="21" y="20" width="2" height="8"/><rect x="21" y="16" width="2" height="2"/><path d="M21.06,61.342a1,1,0,0,0,1.88,0l4-11A1.022,1.022,0,0,0,27,50V7A5,5,0,0,0,17,7V50a1.022,1.022,0,0,0,.06.342ZM22,58.074,20.519,54h2.962ZM19,7a3,3,0,0,1,6,0V8H19Zm0,3h6v2H19Zm0,4h6V45.382l-3,1.5-3-1.5Zm0,33.618L21.553,48.9a1,1,0,0,0,.894,0L25,47.618v2.206L24.209,52H19.791L19,49.824Z"/><path d="M49.293,31.707l4,4A1,1,0,0,0,55,35V21a7.008,7.008,0,0,0-7-7H47V11a1,1,0,0,0-1-1H45V3a1,1,0,0,0-1-1H40a1,1,0,0,0-1,1v7H38a1,1,0,0,0-1,1V52a1,1,0,0,0,1,1h1v3a1,1,0,0,0,1,1h1v4a1,1,0,0,0,2,0V57h1a1,1,0,0,0,1-1V53h1a1,1,0,0,0,1-1V20h1a1,1,0,0,1,1,1V31A1,1,0,0,0,49.293,31.707ZM41,4h2v6H41Zm2,51H41V53h2Zm2-4H39V49h6Zm0-4H39V45h2a1,1,0,0,0,0-2H39V41h2a1,1,0,0,0,0-2H39V37h6Zm0-12H39V20h6Zm0-17H39V16h6Zm0-4H39V12h6Zm3,4H47V16h1a5.006,5.006,0,0,1,5,5V32.586l-2-2V21A3,3,0,0,0,48,18Z"/></g></svg>
