<?xml version="1.0"?>
<svg xmlns="http://www.w3.org/2000/svg" viewBox="0 0 64 64" width="512" height="512"><g id="Filled_outline" data-name="Filled outline"><rect x="5" y="3" width="16" height="16" style="fill:#bfbfbf"/><rect x="32" y="28" width="16" height="18" transform="translate(77 -3) rotate(90)" style="fill:#bfbfbf"/><path d="M21,27V23H5V35A10,10,0,0,0,15,45H27V29H23A2,2,0,0,1,21,27Z" style="fill:#bfbfbf"/><rect x="3" y="19" width="20" height="4" style="fill:#6b809b"/><rect x="27" y="27" width="4" height="20" style="fill:#6b809b"/><path d="M49,37v6h4a2,2,0,0,1,2,2V61h6V43a6,6,0,0,0-6-6Z" style="fill:#418abd"/><rect x="46" y="54" width="2" height="8" style="fill:#bfbfbf"/><rect x="50" y="50" width="2" height="8" style="fill:#bfbfbf"/><rect x="44" y="40" width="2" height="2" style="fill:#fff"/><rect x="40" y="40" width="2" height="2" style="fill:#fff"/><path d="M18,42H16a8.009,8.009,0,0,1-8-8V29h2v5a6.006,6.006,0,0,0,6,6h2Z" style="fill:#fff"/><rect x="20" y="40" width="2" height="2" style="fill:#fff"/><path d="M55,36H50V28H32V26H26v2H23a1,1,0,0,1-1-1V24h2V18H22V2H4V18H2v6H4V35A11.013,11.013,0,0,0,15,46H26v2h6V46H50V44h3a1,1,0,0,1,1,1V62h8V43A7.008,7.008,0,0,0,55,36ZM6,4H20V18H6ZM4,20H22v2H4ZM26,44H15a9.01,9.01,0,0,1-9-9V24H20v3a3,3,0,0,0,3,3h3Zm4,2H28V28h2Zm18-2H32V30H48ZM60,60H56V45a3,3,0,0,0-3-3H50V38h5a5.006,5.006,0,0,1,5,5Z"/><rect x="46" y="54" width="2" height="8"/><rect x="50" y="50" width="2" height="8"/><rect x="44" y="40" width="2" height="2"/><rect x="40" y="40" width="2" height="2"/><path d="M10,34V29H8v5a8.009,8.009,0,0,0,8,8h2V40H16A6.006,6.006,0,0,1,10,34Z"/><rect x="20" y="40" width="2" height="2"/></g></svg>
