<?xml version="1.0"?>
<svg xmlns="http://www.w3.org/2000/svg" viewBox="0 0 64 64" width="512" height="512"><g id="Filled_outline" data-name="Filled outline"><polygon points="61 55 3 55 3 9 53 9 61 17 61 55" style="fill:#aeddd0"/><polygon points="61 17 53 17 53 9 61 17" style="fill:#4a9d86"/><rect x="7" y="13" width="6" height="38" style="fill:#4a9d86"/><rect x="7" y="31" width="3" height="2" style="fill:#fff"/><rect x="7" y="37" width="3" height="2" style="fill:#fff"/><rect x="7" y="43" width="3" height="2" style="fill:#fff"/><rect x="7" y="19" width="3" height="2" style="fill:#fff"/><rect x="7" y="25" width="3" height="2" style="fill:#fff"/><polygon points="33 21 33 17 19 17 19 31 22 31 22 45 48 45 48 31 53 31 53 21 33 21" style="fill:#4a9d86"/><polygon points="26 32 22 32 22 30 24 30 24 26 26 26 26 32" style="fill:#aeddd0"/><rect x="32" y="21" width="2" height="3" style="fill:#aeddd0"/><polygon points="38 26 38 30 34 30 34 26 32 26 32 30 30 30 30 32 40 32 40 26 38 26" style="fill:#aeddd0"/><rect x="44" y="30" width="4" height="2" style="fill:#aeddd0"/><polygon points="38 52 36 52 36 48 51 48 51 34 55 34 55 36 53 36 53 50 38 50 38 52" style="fill:#418abd"/><path d="M35,36H25V46H39V36Zm-6,8H27V38h2Zm4,0H31V38h2Zm4,0H35V38h2Z" style="fill:#aeddd0"/><polygon points="46 18 36 18 36 14 18 14 18 12 38 12 38 16 46 16 46 18" style="fill:#418abd"/><rect x="48" y="16" width="2" height="2" style="fill:#418abd"/><path d="M61.707,16.293l-8-8A1,1,0,0,0,53,8H3A1,1,0,0,0,2,9V55a1,1,0,0,0,1,1H61a1,1,0,0,0,1-1V17A1,1,0,0,0,61.707,16.293ZM54,11.414,58.586,16H54ZM4,54V10H52v7a1,1,0,0,0,1,1h7V54Z"/><path d="M13,12H7a1,1,0,0,0-1,1V51a1,1,0,0,0,1,1h6a1,1,0,0,0,1-1V13A1,1,0,0,0,13,12ZM12,50H8V45h2V43H8V39h2V37H8V33h2V31H8V27h2V25H8V21h2V19H8V14h4Z"/><path d="M49,46V32h5V20H34V16H18V32h3V46ZM23,44V32h3V26H24v4H20V18H32v6h2V22H52v8H44v2h3V44H39V36H25v8Zm4,0V38h2v6Zm4,0V38h2v6Zm4,0V38h2v6Z"/><polygon points="40 26 38 26 38 30 34 30 34 26 32 26 32 30 30 30 30 32 40 32 40 26"/><polygon points="51 48 36 48 36 52 38 52 38 50 53 50 53 36 55 36 55 34 51 34 51 48"/><polygon points="36 18 46 18 46 16 38 16 38 12 18 12 18 14 36 14 36 18"/><rect x="48" y="16" width="2" height="2"/></g></svg>
