<?xml version="1.0"?>
<svg xmlns="http://www.w3.org/2000/svg" viewBox="0 0 64 64" width="512" height="512"><g id="Filled_outline" data-name="Filled outline"><path d="M30,4,17,30a2.162,2.162,0,0,0,2,3H46a2.162,2.162,0,0,0,2-3L34,4A2.414,2.414,0,0,0,30,4Z" style="fill:#fcf05a"/><rect x="30" y="13" width="4" height="8" style="fill:#dd3e46"/><circle cx="32" cy="27" r="2" style="fill:#dd3e46"/><rect x="30" y="33" width="4" height="28" style="fill:#d3843d"/><path d="M34.883,3.531a3.405,3.405,0,0,0-5.766,0l-.012.022L16.117,29.53a2.893,2.893,0,0,0,.12,2.868A3.26,3.26,0,0,0,19,34H29V61a1,1,0,0,0,1,1h4a1,1,0,0,0,1-1V34H46a3.26,3.26,0,0,0,2.763-1.6,2.9,2.9,0,0,0,.118-2.872ZM33,60H31V34h2ZM47.049,31.368A1.27,1.27,0,0,1,46,32H19a1.27,1.27,0,0,1-1.049-.632.917.917,0,0,1-.056-.921L30.888,4.46a1.441,1.441,0,0,1,2.231.014l14,26A.907.907,0,0,1,47.049,31.368Z"/><path d="M34,12H30a1,1,0,0,0-1,1v8a1,1,0,0,0,1,1h4a1,1,0,0,0,1-1V13A1,1,0,0,0,34,12Zm-1,8H31V14h2Z"/><path d="M32,24a3,3,0,1,0,3,3A3,3,0,0,0,32,24Zm0,4a1,1,0,1,1,1-1A1,1,0,0,1,32,28Z"/></g></svg>
