<?xml version="1.0"?>
<svg xmlns="http://www.w3.org/2000/svg" viewBox="0 0 64 64" width="512" height="512"><g id="Filled_outline" data-name="Filled outline"><polygon points="50 17 50 21 54 21 54 29 28 29 28 31 28 33 28 37 32 37 32 33 58 33 58 30 58 29 58 21 58 20 58 17 50 17" style="fill:#bfbfbf"/><rect x="10" y="14" width="40" height="10" style="fill:#fcf05a"/><path d="M25,41H35a0,0,0,0,1,0,0V59a2,2,0,0,1-2,2H27a2,2,0,0,1-2-2V41A0,0,0,0,1,25,41Z" style="fill:#d3843d"/><rect x="25" y="37" width="10" height="4" style="fill:#f3bb59"/><rect x="11" y="4" width="2" height="7" style="fill:#f3bb59"/><rect x="16" y="6" width="2" height="5" style="fill:#f3bb59"/><rect x="21" y="2" width="2" height="9" style="fill:#f3bb59"/><rect x="26" y="8" width="2" height="3" style="fill:#f3bb59"/><rect x="31" y="4" width="2" height="7" style="fill:#f3bb59"/><rect x="36" y="7" width="2" height="4" style="fill:#f3bb59"/><rect x="41" y="2" width="2" height="9" style="fill:#f3bb59"/><rect x="46" y="8" width="2" height="3" style="fill:#f3bb59"/><rect x="13" y="17" width="2" height="2" style="fill:#f3bb59"/><rect x="17" y="19" width="2" height="2" style="fill:#f3bb59"/><rect x="29" y="41" width="2" height="10" style="fill:#b5554e"/><rect x="29" y="53" width="2" height="2" style="fill:#b5554e"/><rect x="6" y="17" width="4" height="4" style="fill:#bfbfbf"/><rect x="26" y="4" width="2" height="2" style="fill:#f3bb59"/><rect x="46" y="4" width="2" height="2" style="fill:#f3bb59"/><rect x="11" y="4" width="2" height="7"/><rect x="16" y="6" width="2" height="5"/><rect x="21" y="2" width="2" height="9"/><rect x="26" y="8" width="2" height="3"/><rect x="31" y="4" width="2" height="7"/><rect x="36" y="7" width="2" height="4"/><rect x="41" y="2" width="2" height="9"/><rect x="46" y="8" width="2" height="3"/><rect x="13" y="17" width="2" height="2"/><rect x="17" y="19" width="2" height="2"/><rect x="29" y="53" width="2" height="2"/><path d="M6,22H9v2a1,1,0,0,0,1,1H50a1,1,0,0,0,1-1V22h2v6H28a1,1,0,0,0-1,1v7H25a1,1,0,0,0-1,1V59a3,3,0,0,0,3,3h6a3,3,0,0,0,3-3V37a1,1,0,0,0-1-1H33V34H58a1,1,0,0,0,1-1V17a1,1,0,0,0-1-1H51V14a1,1,0,0,0-1-1H10a1,1,0,0,0-1,1v2H6a1,1,0,0,0-1,1v4A1,1,0,0,0,6,22ZM34,59a1,1,0,0,1-1,1H27a1,1,0,0,1-1-1V42h3v9h2V42h3Zm0-21v2H26V38ZM51,18h6V32H32a1,1,0,0,0-1,1v3H29V30H54a1,1,0,0,0,1-1V21a1,1,0,0,0-1-1H51ZM11,15H49v8H11ZM7,18H9v2H7Z"/><rect x="26" y="4" width="2" height="2"/><rect x="46" y="4" width="2" height="2"/></g></svg>
