<?xml version="1.0"?>
<svg xmlns="http://www.w3.org/2000/svg" viewBox="0 0 64 64" width="512" height="512"><g id="Filled_outline" data-name="Filled outline"><rect x="3" y="3" width="58" height="12" style="fill:#418abd"/><circle cx="9" cy="9" r="2" style="fill:#cdeef6"/><rect x="30" y="3" width="2" height="5" style="fill:#cdeef6"/><rect x="42" y="3" width="2" height="5" style="fill:#cdeef6"/><rect x="36" y="3" width="2" height="3" style="fill:#cdeef6"/><rect x="54" y="3" width="2" height="5" style="fill:#cdeef6"/><rect x="48" y="3" width="2" height="3" style="fill:#cdeef6"/><rect x="18" y="3" width="2" height="5" style="fill:#cdeef6"/><rect x="24" y="3" width="2" height="3" style="fill:#cdeef6"/><path d="M14.941,61H61V21ZM53,53H34L53,37Z" style="fill:#fcf05a"/><rect x="52" y="58" width="2" height="3" style="fill:#f3bb59"/><rect x="46" y="58" width="2" height="3" style="fill:#f3bb59"/><rect x="40" y="58" width="2" height="3" style="fill:#f3bb59"/><rect x="34" y="58" width="2" height="3" style="fill:#f3bb59"/><rect x="28" y="58" width="2" height="3" style="fill:#f3bb59"/><rect x="58" y="52" width="3" height="2" style="fill:#f3bb59"/><rect x="58" y="46" width="3" height="2" style="fill:#f3bb59"/><rect x="58" y="40" width="3" height="2" style="fill:#f3bb59"/><rect x="58" y="34" width="3" height="2" style="fill:#f3bb59"/><rect x="58" y="28" width="3" height="2" style="fill:#f3bb59"/><rect x="4.63" y="41" width="51.74" height="2" transform="translate(-20.09 30.383) rotate(-41.081)" style="fill:#bfbfbf"/><rect x="42" y="18" width="2" height="2" style="fill:#bfbfbf"/><rect x="38" y="18" width="2" height="2" style="fill:#bfbfbf"/><rect x="34" y="18" width="2" height="2" style="fill:#bfbfbf"/><rect x="30" y="18" width="2" height="2" style="fill:#bfbfbf"/><rect x="26" y="18" width="2" height="2" style="fill:#bfbfbf"/><rect x="22" y="18" width="2" height="2" style="fill:#bfbfbf"/><rect x="18" y="18" width="2" height="2" style="fill:#bfbfbf"/><rect x="14" y="18" width="2" height="2" style="fill:#bfbfbf"/><rect x="10" y="18" width="2" height="2" style="fill:#bfbfbf"/><rect x="6" y="18" width="2" height="2" style="fill:#bfbfbf"/><rect x="2" y="18" width="2" height="2" style="fill:#bfbfbf"/><path d="M2,16H62V2H2ZM4,4H18V8h2V4h4V6h2V4h4V8h2V4h4V6h2V4h4V8h2V4h4V6h2V4h4V8h2V4h4V14H4Z"/><path d="M9,6a3,3,0,1,0,3,3A3,3,0,0,0,9,6Zm0,4a1,1,0,1,1,1-1A1,1,0,0,1,9,10Z"/><path d="M61.415,20.09a1,1,0,0,0-1.071.155l-46.058,40A1,1,0,0,0,14.941,62H61a1,1,0,0,0,1-1V21A1,1,0,0,0,61.415,20.09ZM60,28H58v2h2v4H58v2h2v4H58v2h2v4H58v2h2v4H58v2h2v6H54V58H52v2H48V58H46v2H42V58H40v2H36V58H34v2H30V58H28v2H17.618L60,23.193Z"/><path d="M34,54H53a1,1,0,0,0,1-1V37a1,1,0,0,0-1.644-.765l-19,16A1,1,0,0,0,34,54ZM52,39.149V52H36.74Z"/><rect x="4.63" y="41" width="51.74" height="2" transform="translate(-20.09 30.384) rotate(-41.082)"/><rect x="42" y="18" width="2" height="2"/><rect x="38" y="18" width="2" height="2"/><rect x="34" y="18" width="2" height="2"/><rect x="30" y="18" width="2" height="2"/><rect x="26" y="18" width="2" height="2"/><rect x="22" y="18" width="2" height="2"/><rect x="18" y="18" width="2" height="2"/><rect x="14" y="18" width="2" height="2"/><rect x="10" y="18" width="2" height="2"/><rect x="6" y="18" width="2" height="2"/><rect x="2" y="18" width="2" height="2"/></g></svg>
