<?xml version="1.0"?>
<svg xmlns="http://www.w3.org/2000/svg" viewBox="0 0 64 64" width="512" height="512"><g id="Filled_outline" data-name="Filled outline"><rect x="40" y="13" width="12" height="46" style="fill:#6b809b"/><polygon points="20 3 20 7 16 7 16 3 6 3 6 11 12 11 12 51 18 61 24 51 24 11 30 11 30 3 20 3" style="fill:#6b809b"/><rect x="34" y="5" width="24" height="8" style="fill:#bfbfbf"/><polygon points="52 23 40 21 40 17 52 19 52 23" style="fill:#bfbfbf"/><polygon points="52 31 40 29 40 25 52 27 52 31" style="fill:#bfbfbf"/><polygon points="52 39 40 37 40 33 52 35 52 39" style="fill:#bfbfbf"/><polygon points="52 47 40 45 40 41 52 43 52 47" style="fill:#bfbfbf"/><polygon points="52 55 40 53 40 49 52 51 52 55" style="fill:#bfbfbf"/><polygon points="12 19 24 17 24 13 12 15 12 19" style="fill:#bfbfbf"/><polygon points="12 27 24 25 24 21 12 23 12 27" style="fill:#bfbfbf"/><polygon points="12 35 24 33 24 29 12 31 12 35" style="fill:#bfbfbf"/><polygon points="12 43 24 41 24 37 12 39 12 43" style="fill:#bfbfbf"/><polygon points="12 51 24 49 24 45 12 47 12 51" style="fill:#bfbfbf"/><rect x="53" y="8" width="2" height="2" style="fill:#fff"/><rect x="37" y="8" width="2" height="2" style="fill:#fff"/><rect x="25" y="6" width="2" height="2" style="fill:#fff"/><rect x="9" y="6" width="2" height="2" style="fill:#fff"/><path d="M30,2H20a1,1,0,0,0-1,1V6H17V3a1,1,0,0,0-1-1H6A1,1,0,0,0,5,3v8a1,1,0,0,0,1,1h5V51a.989.989,0,0,0,.083.375c.01.026.047.119.06.14l6,10a1,1,0,0,0,1.714,0l6-10A1,1,0,0,0,25,51V12h5a1,1,0,0,0,1-1V3A1,1,0,0,0,30,2ZM23,50.723l-5,8.334-4.387-7.312L23,50.18Zm0-2.57L13,49.819V47.847l10-1.666Zm0-4L13,45.82V43.847L23,42.18Zm0-4L13,41.819V39.847l10-1.666Zm0-4L13,37.82V35.847L23,34.18Zm0-4L13,33.819V31.847l10-1.666Zm0-4L13,29.82V27.847L23,26.18Zm0-4L13,25.819V23.847l10-1.666Zm0-4L13,21.82V19.847L23,18.18Zm0-4L13,17.819V15.847l10-1.666ZM29,10H24a1,1,0,0,0-1,1v1.153L13,13.82V11a1,1,0,0,0-1-1H7V4h8V7a1,1,0,0,0,1,1h4a1,1,0,0,0,1-1V4h8Z"/><path d="M58,4H34a1,1,0,0,0-1,1v8a1,1,0,0,0,1,1h5V59a1,1,0,0,0,1,1H52a1,1,0,0,0,1-1V14h5a1,1,0,0,0,1-1V5A1,1,0,0,0,58,4ZM51,58H41V54.18l10,1.667Zm0-4.181L41,52.153V50.181l10,1.666Zm0-4L41,48.153V46.18l10,1.667Zm0-4L41,44.153V42.181l10,1.666Zm0-4L41,40.153V38.18l10,1.667Zm0-4L41,36.153V34.181l10,1.666Zm0-4L41,32.153V30.18l10,1.667Zm0-4L41,28.153V26.181l10,1.666Zm0-4L41,24.153V22.18l10,1.667Zm0-4L41,20.153V18.181l10,1.666Zm0-4L41,16.153V14H51ZM57,12H35V6H57Z"/><rect x="53" y="8" width="2" height="2"/><rect x="37" y="8" width="2" height="2"/><rect x="25" y="6" width="2" height="2"/><rect x="9" y="6" width="2" height="2"/></g></svg>
