<?xml version="1.0"?>
<svg xmlns="http://www.w3.org/2000/svg" viewBox="0 0 64 64" width="512" height="512"><g id="Filled_outline" data-name="Filled outline"><rect x="5" y="33" width="4" height="6" style="fill:#418abd"/><rect x="21" y="33" width="4" height="6" style="fill:#418abd"/><rect x="39" y="33" width="4" height="6" style="fill:#418abd"/><rect x="55" y="33" width="4" height="6" style="fill:#418abd"/><rect x="3" y="39" width="8" height="22" style="fill:#f3bb59"/><rect x="3" y="29" width="8" height="4" style="fill:#fcf05a"/><rect x="19" y="39" width="8" height="22" style="fill:#f3bb59"/><rect x="19" y="29" width="8" height="4" style="fill:#fcf05a"/><rect x="37" y="39" width="8" height="22" style="fill:#f3bb59"/><rect x="37" y="29" width="8" height="4" style="fill:#fcf05a"/><rect x="53" y="39" width="8" height="22" style="fill:#f3bb59"/><rect x="53" y="29" width="8" height="4" style="fill:#fcf05a"/><polygon points="7 3 5 7 5 12 5 29 9 29 9 12 9 7 7 3" style="fill:#bfbfbf"/><path d="M24,7V3a1,1,0,0,0-2,0V7H21V29h4V7Z" style="fill:#bfbfbf"/><polygon points="44 7 41 3 38 7 39 11 39 29 43 29 43 11 44 7" style="fill:#bfbfbf"/><polygon points="57 3 54 5 55 11 56 11 56 29 58 29 58 11 59 11 60 5 57 3" style="fill:#bfbfbf"/><rect x="6" y="42" width="2" height="2" style="fill:#fff"/><rect x="22" y="56" width="2" height="2" style="fill:#fff"/><rect x="40" y="42" width="2" height="2" style="fill:#fff"/><rect x="56" y="56" width="2" height="2" style="fill:#fff"/><path d="M3,62h8a1,1,0,0,0,1-1V39a1,1,0,0,0-1-1H10V34h1a1,1,0,0,0,1-1V29a1,1,0,0,0-1-1H10V7A1,1,0,0,0,9.9,6.553l-2-4a1.042,1.042,0,0,0-1.79,0l-2,4A1,1,0,0,0,4,7V28H3a1,1,0,0,0-1,1v4a1,1,0,0,0,1,1H4v4H3a1,1,0,0,0-1,1V61A1,1,0,0,0,3,62ZM6,7.236l1-2,1,2V28H6ZM4,30h6v2H4Zm4,4v4H6V34ZM4,40h6V60H4Z"/><path d="M19,38a1,1,0,0,0-1,1V61a1,1,0,0,0,1,1h8a1,1,0,0,0,1-1V39a1,1,0,0,0-1-1H26V34h1a1,1,0,0,0,1-1V29a1,1,0,0,0-1-1H26V7a1,1,0,0,0-1-1H24V3a1,1,0,0,0-2,0V6H21a1,1,0,0,0-1,1V28H19a1,1,0,0,0-1,1v4a1,1,0,0,0,1,1h1v4ZM22,8h2V28H22ZM20,30h6v2H20Zm4,4v4H22V34Zm2,6V60H20V40Z"/><path d="M37,38a1,1,0,0,0-1,1V61a1,1,0,0,0,1,1h8a1,1,0,0,0,1-1V39a1,1,0,0,0-1-1H44V34h1a1,1,0,0,0,1-1V29a1,1,0,0,0-1-1H44V11.123l.97-3.881A1,1,0,0,0,44.8,6.4l-3-4a1.036,1.036,0,0,0-1.6,0l-3,4a1,1,0,0,0-.17.842L38,11.123V28H37a1,1,0,0,0-1,1v4a1,1,0,0,0,1,1h1v4ZM41,4.667l1.914,2.552-.884,3.539A.984.984,0,0,0,42,11V28H40V11a.984.984,0,0,0-.03-.242l-.884-3.539ZM38,30h6v2H38Zm4,4v4H40V34Zm2,6V60H38V40Z"/><path d="M61,28H58V12h1a1,1,0,0,0,.986-.836l1-6a1,1,0,0,0-.431-1l-3-2a1,1,0,0,0-1.11,0l-3,2a1,1,0,0,0-.431,1l1,6A1,1,0,0,0,55,12h1V28H53a1,1,0,0,0-1,1v4a1,1,0,0,0,1,1h1v4H53a1,1,0,0,0-1,1V61a1,1,0,0,0,1,1h8a1,1,0,0,0,1-1V39a1,1,0,0,0-1-1H60V34h1a1,1,0,0,0,1-1V29A1,1,0,0,0,61,28ZM55.847,10l-.754-4.526L57,4.2l1.907,1.272L58.153,10ZM60,60H54V40h6ZM56,38V34h2v4Zm4-6H54V30h6Z"/><rect x="6" y="42" width="2" height="2"/><rect x="22" y="56" width="2" height="2"/><rect x="40" y="42" width="2" height="2"/><rect x="56" y="56" width="2" height="2"/></g></svg>
