<?xml version="1.0"?>
<svg xmlns="http://www.w3.org/2000/svg" viewBox="0 0 64 64" width="512" height="512"><g id="Filled_outline" data-name="Filled outline"><polygon points="22 61 29 55 29 45 15 45 15 55 22 61" style="fill:#bfbfbf"/><rect x="20" y="13" width="4" height="28" style="fill:#d3843d"/><rect x="21" y="45" width="2" height="5" style="fill:#6b809b"/><rect x="21" y="52" width="2" height="2" style="fill:#6b809b"/><rect x="17" y="41" width="10" height="4" style="fill:#f3bb59"/><path d="M14,3V9a6,6,0,0,0,6,6h4a6,6,0,0,0,6-6V3ZM26,9a2,2,0,0,1-2,2H20a2,2,0,0,1-2-2V7h8Z" style="fill:#6b809b"/><path d="M49,61H31l7.257-12.9a2,2,0,0,1,3.486,0Z" style="fill:#d3843d"/><rect x="37" y="56" width="2" height="2" style="fill:#f3bb59"/><rect x="39" y="51.98" width="2" height="2" transform="matrix(1, -0.02, 0.02, 1, -1.027, 0.791)" style="fill:#f3bb59"/><rect x="21" y="52" width="2" height="2"/><path d="M19,15.92V40H17a1,1,0,0,0-1,1v3H15a1,1,0,0,0-1,1V55a1,1,0,0,0,.35.759l7,6a1,1,0,0,0,1.3,0l7-6A1,1,0,0,0,30,55V45a1,1,0,0,0-1-1H28V41a1,1,0,0,0-1-1H25V15.92A7.006,7.006,0,0,0,31,9V3a1,1,0,0,0-1-1H14a1,1,0,0,0-1,1V9A7.006,7.006,0,0,0,19,15.92ZM28,46v8.54l-6,5.143L16,54.54V46h5v4h2V46Zm-2-4v2H18V42Zm-5-2V16h2V40ZM15,4H29V9a5.006,5.006,0,0,1-5,5H20a5.006,5.006,0,0,1-5-5Z"/><path d="M20,12h4a3,3,0,0,0,3-3V7a1,1,0,0,0-1-1H18a1,1,0,0,0-1,1V9A3,3,0,0,0,20,12ZM19,8h6V9a1,1,0,0,1-1,1H20a1,1,0,0,1-1-1Z"/><path d="M30.137,61.505A1,1,0,0,0,31,62H49a1,1,0,0,0,.871-1.49l-7.257-12.9a3,3,0,0,0-5.228,0l-7.257,12.9A1,1,0,0,0,30.137,61.505Zm8.991-12.916a1,1,0,0,1,1.744,0L47.29,60H32.71Z"/><rect x="37" y="56" width="2" height="2"/><rect x="39" y="51.98" width="2" height="2" transform="matrix(1, -0.02, 0.02, 1, -1.04, 0.801)"/></g></svg>
