<?xml version="1.0"?>
<svg xmlns="http://www.w3.org/2000/svg" viewBox="0 0 64 64" width="512" height="512"><g id="Filled_outline" data-name="Filled outline"><rect x="3" y="3" width="58" height="58" style="fill:#bfbfbf"/><polygon points="21 61 7 61 9 47 23 47 21 61" style="fill:#cdeef6"/><polygon points="21 32 7 32 9 47 23 47 21 32" style="fill:#6b809b"/><polygon points="21 32 7 32 9 17 23 17 21 32" style="fill:#cdeef6"/><polygon points="21 3 7 3 9 17 23 17 21 3" style="fill:#6b809b"/><polygon points="43 61 57 61 55 47 41 47 43 61" style="fill:#cdeef6"/><polygon points="43 32 57 32 55 47 41 47 43 32" style="fill:#6b809b"/><polygon points="43 32 57 32 55 17 41 17 43 32" style="fill:#cdeef6"/><polygon points="43 3 57 3 55 17 41 17 43 3" style="fill:#6b809b"/><polygon points="37 45 27 45 25 32 27 19 37 19 39 32 37 45" style="fill:#cdeef6"/><polygon points="25 3 27 15 37 15 39 3 25 3" style="fill:#cdeef6"/><polygon points="39 61 37 49 27 49 25 61 39 61" style="fill:#cdeef6"/><rect x="11" y="6" width="2" height="2" style="fill:#bfbfbf"/><rect x="15" y="8" width="2" height="2" style="fill:#bfbfbf"/><rect x="51" y="35" width="2" height="2" style="fill:#bfbfbf"/><rect x="11" y="56" width="2" height="2" style="fill:#6b809b"/><path d="M2,2V62H62V2ZM43.867,4H54.586L51.293,7.293l1.414,1.414,2.879-2.878L54.133,16H43.414l3.293-3.293-1.414-1.414-2.879,2.878ZM37.819,4,36.153,14H27.847L26.181,4ZM20.133,4l1.714,12H9.867L8.153,4ZM6.009,32.132,7.99,46.994,6.132,60H4V4H6.132L7.99,17.006,6.009,31.868A1.938,1.938,0,0,0,6.009,32.132ZM20.133,60H8.153L9.867,48h11.98ZM11.414,46l3.293-3.293-1.414-1.414L9.724,44.862,8.143,33H20.124l1.733,13Zm8.71-15H8.143L9.876,18h8.71l-3.293,3.293,1.414,1.414L21.414,18h.443Zm6.057,29,1.666-10h8.306l1.666,10ZM40.01,47.142,41.847,60h-2L37.986,48.836A1,1,0,0,0,37,48H27a1,1,0,0,0-.986.836L24.153,60h-2L23.99,47.142a1.928,1.928,0,0,0,0-.274L22.009,32l1.982-14.868a1.928,1.928,0,0,0,0-.274L22.153,4h2l1.861,11.164A1,1,0,0,0,27,16H37a1,1,0,0,0,.986-.836L39.847,4h2L40.01,16.858a1.928,1.928,0,0,0,0,.274L41.991,32,40.009,46.868A1.928,1.928,0,0,0,40.01,47.142ZM45.414,60l3.293-3.293-1.414-1.414-3.586,3.586-.4-2.776,4.4-4.4-1.414-1.414-3.336,3.336L42.153,48h11.98l1.714,12Zm8.71-14H42.143l1.733-13H55.857ZM43.876,31,42.143,18H54.124l1.733,13ZM60,4V60H57.868L56.01,46.994l1.981-14.862a1.938,1.938,0,0,0,0-.264L56.01,17.006,57.868,4Z"/><path d="M37,18H27a1,1,0,0,0-.988.848l-2,13a.969.969,0,0,0,0,.3l2,13A1,1,0,0,0,27,46H37a1,1,0,0,0,.988-.848l2-13a.969.969,0,0,0,0-.3l-2-13A1,1,0,0,0,37,18Zm-.858,26H27.858L27.4,41.015l4.308-4.308-1.414-1.414-3.271,3.271L26.012,32l1.846-12h8.284l.592,3.852-4.441,4.441,1.414,1.414,3.405-3.4.876,5.7Z"/><rect x="11" y="6" width="2" height="2"/><rect x="15" y="8" width="2" height="2"/><rect x="51" y="35" width="2" height="2"/><rect x="11" y="56" width="2" height="2"/></g></svg>
