<?xml version="1.0"?>
<svg xmlns="http://www.w3.org/2000/svg" viewBox="0 0 64 64" width="512" height="512"><g id="Filled_outline" data-name="Filled outline"><rect x="3" y="24" width="58" height="10" style="fill:#418abd"/><rect x="3" y="34" width="58" height="24" style="fill:#fcf05a"/><polygon points="61 24 3 24 7 16 57 16 61 24" style="fill:#fcf05a"/><rect x="16" y="16" width="10" height="4" style="fill:#f3bb59"/><rect x="38" y="16" width="10" height="4" style="fill:#f3bb59"/><polygon points="41 16 45 16 43 5 41 5 39 5 25 5 23 5 21 5 19 16 23 16 24.273 9 39.727 9 41 16" style="fill:#6b809b"/><polygon points="58 55 54 55 54 53 56 53 56 47 58 47 58 55" style="fill:#f3bb59"/><rect x="50" y="53" width="2" height="2" style="fill:#f3bb59"/><rect x="6" y="28" width="2" height="2" style="fill:#fcf05a"/><rect x="10" y="28" width="2" height="2" style="fill:#fcf05a"/><rect x="25" y="28" width="14" height="6" style="fill:#cdeef6"/><rect x="25" y="34" width="14" height="12" style="fill:#f3bb59"/><rect x="30" y="34" width="4" height="6" style="fill:#418abd"/><path d="M61.9,23.553l-4-8A1,1,0,0,0,57,15H45.835L43.984,4.821A1,1,0,0,0,43,4H21a1,1,0,0,0-.984.821L18.165,15H7a1,1,0,0,0-.895.553l-4,8A1.842,1.842,0,0,0,2,24V58a1,1,0,0,0,1,1H61a1,1,0,0,0,1-1V24A1.842,1.842,0,0,0,61.9,23.553ZM26,35h3v6h6V35h3V45H26Zm5,0h2v4H31Zm-5-2V29H38v4Zm-2-6v6H4V25H60v8H40V27Zm.2-12,.909-5H38.893l.909,5ZM39,17h8v2H39ZM21.834,6H42.166L43.8,15H41.834L40.711,8.821A1,1,0,0,0,39.728,8H24.272a1,1,0,0,0-.983.821L22.166,15H20.2ZM25,17v2H17V17ZM7.618,17H15v3a1,1,0,0,0,1,1H26a1,1,0,0,0,1-1V17H37v3a1,1,0,0,0,1,1H48a1,1,0,0,0,1-1V17h7.382l3,6H4.618ZM60,57H4V35H24V47H40V35H60Z"/><polygon points="58 47 56 47 56 53 54 53 54 55 58 55 58 47"/><rect x="50" y="53" width="2" height="2"/><rect x="6" y="28" width="2" height="2"/><rect x="10" y="28" width="2" height="2"/></g></svg>
