<?xml version="1.0"?>
<svg xmlns="http://www.w3.org/2000/svg" viewBox="0 0 64 64" width="512" height="512"><g id="Filled_outline" data-name="Filled outline"><polygon points="51 9 37 13 27 13 27 17 37 17 51 13 61 13 61 9 51 9" style="fill:#f3bb59"/><rect x="22" y="23" width="20" height="22" style="fill:#bfbfbf"/><rect x="18" y="25" width="4" height="18" style="fill:#6b809b"/><rect x="3" y="28" width="15" height="12" style="fill:#bfbfbf"/><rect x="42" y="25" width="4" height="18" transform="translate(88 68) rotate(180)" style="fill:#6b809b"/><rect x="46" y="28" width="15" height="12" transform="translate(107 68) rotate(180)" style="fill:#bfbfbf"/><rect x="29" y="17" width="6" height="6" style="fill:#6b809b"/><path d="M31,9h2a2,2,0,0,1,2,2v2a0,0,0,0,1,0,0H29a0,0,0,0,1,0,0V11A2,2,0,0,1,31,9Z" style="fill:#6b809b"/><rect x="37" y="40" width="2" height="2" style="fill:#fff"/><rect x="33" y="40" width="2" height="2" style="fill:#fff"/><rect x="22" y="31" width="20" height="6" style="fill:#ececec"/><path d="M21,52a3,3,0,0,1-6,0c0-1.657,3-5,3-5S21,50.343,21,52Z" style="fill:#418abd"/><path d="M61,8H51a1.007,1.007,0,0,0-.274.038L36.86,12H36V11a3,3,0,0,0-3-3H31a3,3,0,0,0-3,3v1H27a1,1,0,0,0-1,1v4a1,1,0,0,0,1,1h1v4H21v2H17v3H2V41H17v3h4v2H43V44h4V41H62V27H47V24H43V22H36V18h1a1.007,1.007,0,0,0,.274-.038L51.14,14H61a1,1,0,0,0,1-1V9A1,1,0,0,0,61,8ZM17,39H4V29H17Zm4,3H19V26h2ZM47,29H60V39H47Zm-4-3h2V42H43ZM30,11a1,1,0,0,1,1-1h2a1,1,0,0,1,1,1v1H30ZM41,44H23V38H41Zm0-8H23V32H41Zm0-12v6H23V24ZM30,22V18h4v4ZM60,12H51a1.007,1.007,0,0,0-.274.038L36.86,16H28V14h9a1.007,1.007,0,0,0,.274-.038L51.14,10H60Z"/><rect x="37" y="40" width="2" height="2"/><rect x="33" y="40" width="2" height="2"/><path d="M17.256,46.332C16.712,46.938,14,50.059,14,52a4,4,0,0,0,8,0c0-1.941-2.712-5.062-3.256-5.668A1.033,1.033,0,0,0,17.256,46.332ZM18,54a2,2,0,0,1-2-2c0-.638.939-2.126,2-3.451,1.062,1.332,2,2.832,2,3.451A2,2,0,0,1,18,54Z"/></g></svg>
