<?xml version="1.0"?>
<svg xmlns="http://www.w3.org/2000/svg" viewBox="0 0 64 64" width="512" height="512"><g id="Filled_outline" data-name="Filled outline"><rect x="8" y="3" width="16" height="58" style="fill:#418abd"/><polygon points="40 61 56 61 56 31 44 19 40 19 40 61" style="fill:#418abd"/><rect x="24" y="3" width="16" height="58" style="fill:#cdeef6"/><polygon points="44 31 56 31 44 19 44 31" style="fill:#cdeef6"/><circle cx="15" cy="12" r="3" style="fill:#cdeef6"/><circle cx="18" cy="22" r="2" style="fill:#cdeef6"/><circle cx="15" cy="32" r="3" style="fill:#cdeef6"/><circle cx="18" cy="42" r="2" style="fill:#cdeef6"/><circle cx="15" cy="52" r="3" style="fill:#cdeef6"/><circle cx="34" cy="14" r="2" style="fill:#418abd"/><circle cx="31" cy="24" r="3" style="fill:#418abd"/><circle cx="34" cy="34" r="2" style="fill:#418abd"/><circle cx="31" cy="45" r="3" style="fill:#418abd"/><circle cx="50" cy="39" r="2" style="fill:#cdeef6"/><circle cx="47" cy="50" r="3" style="fill:#cdeef6"/><circle cx="34" cy="55" r="2" style="fill:#418abd"/><rect x="53" y="5" width="2" height="17" style="fill:#bfbfbf"/><rect x="49" y="2" width="2" height="17" style="fill:#bfbfbf"/><path d="M56.707,30.293l-12-12A1,1,0,0,0,44,18H41V3a1,1,0,0,0-1-1H8A1,1,0,0,0,7,3V61a1,1,0,0,0,1,1H56a1,1,0,0,0,1-1V31A1,1,0,0,0,56.707,30.293ZM45,21.414,53.586,30H45ZM9,4H23V60H9ZM25,4H39V60H25ZM41,60V20h2V31a1,1,0,0,0,1,1H55V60Z"/><path d="M15,16a4,4,0,1,0-4-4A4,4,0,0,0,15,16Zm0-6a2,2,0,1,1-2,2A2,2,0,0,1,15,10Z"/><path d="M18,19a3,3,0,1,0,3,3A3,3,0,0,0,18,19Zm0,4a1,1,0,1,1,1-1A1,1,0,0,1,18,23Z"/><path d="M15,36a4,4,0,1,0-4-4A4,4,0,0,0,15,36Zm0-6a2,2,0,1,1-2,2A2,2,0,0,1,15,30Z"/><path d="M18,39a3,3,0,1,0,3,3A3,3,0,0,0,18,39Zm0,4a1,1,0,1,1,1-1A1,1,0,0,1,18,43Z"/><path d="M15,48a4,4,0,1,0,4,4A4,4,0,0,0,15,48Zm0,6a2,2,0,1,1,2-2A2,2,0,0,1,15,54Z"/><path d="M34,11a3,3,0,1,0,3,3A3,3,0,0,0,34,11Zm0,4a1,1,0,1,1,1-1A1,1,0,0,1,34,15Z"/><path d="M31,28a4,4,0,1,0-4-4A4,4,0,0,0,31,28Zm0-6a2,2,0,1,1-2,2A2,2,0,0,1,31,22Z"/><path d="M34,31a3,3,0,1,0,3,3A3,3,0,0,0,34,31Zm0,4a1,1,0,1,1,1-1A1,1,0,0,1,34,35Z"/><path d="M35,45a4,4,0,1,0-4,4A4,4,0,0,0,35,45Zm-6,0a2,2,0,1,1,2,2A2,2,0,0,1,29,45Z"/><path d="M50,36a3,3,0,1,0,3,3A3,3,0,0,0,50,36Zm0,4a1,1,0,1,1,1-1A1,1,0,0,1,50,40Z"/><path d="M47,46a4,4,0,1,0,4,4A4,4,0,0,0,47,46Zm0,6a2,2,0,1,1,2-2A2,2,0,0,1,47,52Z"/><path d="M34,52a3,3,0,1,0,3,3A3,3,0,0,0,34,52Zm0,4a1,1,0,1,1,1-1A1,1,0,0,1,34,56Z"/><rect x="53" y="5" width="2" height="17"/><rect x="49" y="2" width="2" height="17"/></g></svg>
