<?xml version="1.0"?>
<svg xmlns="http://www.w3.org/2000/svg" viewBox="0 0 64 64" width="512" height="512"><g id="Filled_outline" data-name="Filled outline"><path d="M34,42v8a2,2,0,0,1-2,2H30a2,2,0,0,1-2-2V42H24v8a6,6,0,0,0,6,6h2a6,6,0,0,0,6-6V42Z" style="fill:#bfbfbf"/><path d="M54,14H53V13a4,4,0,0,0-4-4,4.193,4.193,0,0,0-4,4,3.14,3.14,0,0,0-2-1,2.7,2.7,0,0,0-2,1,4.249,4.249,0,0,0-4-3,4,4,0,0,0-4,4H32a3,3,0,0,0-3,3v3H57V17A3,3,0,0,0,54,14Z" style="fill:#d3843d"/><polygon points="57 38 25 38 21 20 61 20 57 38" style="fill:#bfbfbf"/><rect x="3" y="20" width="11" height="4" style="fill:#6b809b"/><rect x="36" y="15" width="2" height="2" style="fill:#f1d77e"/><rect x="48" y="13" width="2" height="2" style="fill:#f1d77e"/><polygon points="33 35 27.198 35 25.024 25.217 26.976 24.783 28.802 33 33 33 33 35" style="fill:#fff"/><rect x="35" y="33" width="2" height="2" style="fill:#fff"/><polygon points="21.889 24 14 24 14 20 21 20 21.889 24" style="fill:#e8e8e8"/><polygon points="57 42 57 49 49 49 49 53 61 53 61 49 61 42 57 42" style="fill:#e8e8e8"/><rect x="24" y="38" width="37" height="4" style="fill:#6b809b"/><circle cx="47" cy="51" r="5" style="fill:#6b809b"/><rect x="36" y="15" width="2" height="2"/><rect x="48" y="13" width="2" height="2"/><polygon points="33 35 33 33 28.802 33 26.976 24.783 25.024 25.217 27.198 35 33 35"/><rect x="35" y="33" width="2" height="2"/><path d="M61,37H58.246l3.73-16.783A1,1,0,0,0,61,19H58V17a4,4,0,0,0-4-4,5.006,5.006,0,0,0-5-5,5.227,5.227,0,0,0-4.67,3.313A3.118,3.118,0,0,0,43,11a3.272,3.272,0,0,0-1.621.425A5.257,5.257,0,0,0,37,9a5.008,5.008,0,0,0-4.9,4H32a4,4,0,0,0-4,4v2H3a1,1,0,0,0-1,1v4a1,1,0,0,0,1,1H21.087l2.677,12.048A.985.985,0,0,0,23,38V50a7.008,7.008,0,0,0,7,7h2a7.008,7.008,0,0,0,7-7V43H56v5H52.188a6,6,0,1,0,0,6H61a1,1,0,0,0,1-1V38A1,1,0,0,0,61,37ZM13,23H4V21h9Zm2,0V21h5.2l.444,2ZM47,55a4,4,0,1,1,4-4A4,4,0,0,1,47,55ZM30,17a2,2,0,0,1,2-2h1a1,1,0,0,0,1-1,3,3,0,0,1,3-3,3.27,3.27,0,0,1,3.037,2.269,1,1,0,0,0,1.685.422A1.721,1.721,0,0,1,43,13a2.347,2.347,0,0,1,1.324.737A1,1,0,0,0,46,13a3.2,3.2,0,0,1,3-3,3,3,0,0,1,3,3v1a1,1,0,0,0,1,1h1a2,2,0,0,1,2,2v2H30Zm-7.753,4H59.753L56.2,37H25.8ZM37,50a5.006,5.006,0,0,1-5,5H30a5.006,5.006,0,0,1-5-5V43h2v7a3,3,0,0,0,3,3h2a3,3,0,0,0,3-3V43h2Zm-8,0V43h4v7a1,1,0,0,1-1,1H30A1,1,0,0,1,29,50Zm31,2H52.91a5.6,5.6,0,0,0,0-2H60Zm0-4H58V43h2Zm0-7H25V39H60Z"/></g></svg>
