<?xml version="1.0"?>
<svg xmlns="http://www.w3.org/2000/svg" viewBox="0 0 64 64" width="512" height="512"><g id="Filled_outline" data-name="Filled outline"><rect x="3" y="13" width="16" height="34" style="fill:#d3843d"/><rect x="45" y="13" width="16" height="34" style="fill:#d3843d"/><rect x="19" y="13" width="26" height="34" style="fill:#f3bb59"/><rect x="7" y="17" width="8" height="26" style="fill:#cdeef6"/><rect x="49" y="17" width="8" height="26" style="fill:#cdeef6"/><rect x="7" y="17" width="8" height="14" style="fill:#418abd"/><rect x="10" y="26" width="2" height="2" style="fill:#fff"/><rect x="49" y="17" width="8" height="14" style="fill:#418abd"/><rect x="52" y="26" width="2" height="2" style="fill:#fff"/><rect x="23" y="16" width="18" height="10" style="fill:#418abd"/><rect x="23" y="26" width="18" height="17" style="fill:#cdeef6"/><rect x="32.89" y="18" width="9.22" height="1.999" transform="translate(-3.333 28.994) rotate(-40.623)" style="fill:#cdeef6"/><rect x="21.89" y="22" width="9.22" height="1.999" transform="translate(-8.589 22.796) rotate(-40.623)" style="fill:#cdeef6"/><rect x="3" y="47" width="58" height="4" style="fill:#6b809b"/><path d="M58,16H48V44H58ZM56,42H50V32h6Zm0-12H50V18h6Z"/><path d="M2,12V52H62V12Zm18,2H44V46H20ZM4,14H18V46H4ZM60,50H4V48H60Zm0-4H46V14H60Z"/><path d="M6,44H16V16H6ZM8,18h6V30H8ZM8,32h6V42H8Z"/><rect x="10" y="26" width="2" height="2"/><rect x="52" y="26" width="2" height="2"/><path d="M22,44H42V15H22Zm2-27H38.3l-4.948,4.241,1.3,1.518L40,18.174V25H25.7l4.948-4.241-1.3-1.518L24,23.826Zm0,10H40V42H24Z"/></g></svg>
