<?xml version="1.0"?>
<svg xmlns="http://www.w3.org/2000/svg" viewBox="0 0 64 64" width="512" height="512"><g id="flat"><path d="M42,11c-2-1-5,1-6,3l4,2c-2-1-5,1-6,3l4,2c-2-1-5,1-6,3l4,2,1,.417L43,12Z" style="fill:#d3843d"/><path d="M34,53V48H30v9H42a4,4,0,0,0-4-4Z" style="fill:#ad6327"/><path d="M56.828,9H54c0-1.657-2.015-3-4.5-3S45,7.343,45,9H43L36,26H9a2,2,0,0,1-2-2V22a2,2,0,0,1,2-2H23a4,4,0,0,0-4-4H9a6,6,0,0,0-6,6v4a8,8,0,0,0,8,8h8v5H40l8-22h9a4,4,0,0,0,3.981-4.393A4.116,4.116,0,0,0,56.828,9Z" style="fill:#ffd782"/><path d="M16,43h8V39H12V51h0a4,4,0,0,0,4-4Z" style="fill:#d3843d"/><circle cx="49.5" cy="10.5" r="1.5" style="fill:#25313e"/><path d="M13,26h4a0,0,0,0,1,0,0v0a4,4,0,0,1-4,4h0a0,0,0,0,1,0,0V26A0,0,0,0,1,13,26Z" style="fill:#d3843d"/><path d="M21,26h4a0,0,0,0,1,0,0v0a4,4,0,0,1-4,4h0a0,0,0,0,1,0,0V26A0,0,0,0,1,21,26Z" style="fill:#d3843d"/><path d="M29,26h4a0,0,0,0,1,0,0v0a4,4,0,0,1-4,4h0a0,0,0,0,1,0,0V26A0,0,0,0,1,29,26Z" style="fill:#d3843d"/><rect x="30" y="39" width="4" height="9" style="fill:#6d1f17"/><rect x="24" y="39" width="6" height="4" style="fill:#b5554e"/><path d="M44,29V25a2,2,0,0,0-2-2h0a2,2,0,0,0-2,2v8H52a2,2,0,0,0,2-2h0a2,2,0,0,0-2-2Z" style="fill:#d3843d"/></g></svg>
