<?xml version="1.0"?>
<svg xmlns="http://www.w3.org/2000/svg" viewBox="0 0 64 64" width="512" height="512"><g id="flat"><rect x="42" y="25" width="2" height="6" style="fill:#4da19a"/><rect x="38" y="22" width="2" height="6" style="fill:#4da19a"/><rect x="34" y="21" width="2" height="6" style="fill:#4da19a"/><rect x="30" y="20" width="2" height="6" style="fill:#4da19a"/><rect x="26" y="20" width="2" height="6" style="fill:#4da19a"/><rect x="22" y="21" width="2" height="6" style="fill:#4da19a"/><rect x="18" y="23" width="2" height="6" style="fill:#4da19a"/><rect x="16" y="37" width="6" height="8" style="fill:#4da19a"/><rect x="28" y="37" width="6" height="8" style="fill:#4da19a"/><rect x="38" y="37" width="6" height="8" style="fill:#4da19a"/><path d="M56,30c0-1.657-2.015-3-4.5-3S47,28.343,47,30H44v6H58a3,3,0,0,0,3-3h0c0-1.657-1-3-4-3Z" style="fill:#ffd782"/><path d="M7,25a21.8,21.8,0,0,0-1,6,6.211,6.211,0,0,0,6,6h4V31H12C9,31,7,25,7,25Z" style="fill:#4da19a"/><circle cx="7" cy="24" r="4" style="fill:#426d78"/><path d="M30,23c-7.732,0-14,4.239-14,7v7H44V30C44,27.239,37.732,23,30,23Z" style="fill:#426d78"/><circle cx="51.5" cy="31.5" r="1.5" style="fill:#25313e"/><rect x="22" y="37" width="6" height="4" style="fill:#ffd782"/><rect x="34" y="37" width="4" height="4" style="fill:#ffd782"/><rect x="21" y="29" width="2" height="2" style="fill:#4da19a"/><rect x="25" y="27" width="2" height="2" style="fill:#4da19a"/><rect x="29" y="29" width="2" height="2" style="fill:#4da19a"/><rect x="33" y="27" width="2" height="2" style="fill:#4da19a"/><rect x="37" y="29" width="2" height="2" style="fill:#4da19a"/></g></svg>
