<?xml version="1.0"?>
<svg xmlns="http://www.w3.org/2000/svg" viewBox="0 0 64 64" width="512" height="512"><g id="flat"><path d="M40.5,3A4.272,4.272,0,0,0,36,7H35a2,2,0,0,0-2,2L30,30H13a4,4,0,0,1-4-4V22a2,2,0,0,1,2-2H23l-3-3a3.674,3.674,0,0,0-3-1H11a8,8,0,0,0-8,8v3a9,9,0,0,0,9,9h4v7H36a2,2,0,0,0,2-2l3-18h4V7A4.272,4.272,0,0,0,40.5,3Z" style="fill:#b5554e"/><path d="M24,57H20V51h2a4,4,0,0,0,4-4V43H16V61H28A4,4,0,0,0,24,57Z" style="fill:#8b3123"/><path d="M34,57H30V51h2a4,4,0,0,0,4-4V43H26V61H38A4,4,0,0,0,34,57Z" style="fill:#6d1f17"/><path d="M45,7H57a4,4,0,0,1,4,4v2a0,0,0,0,1,0,0H45a0,0,0,0,1,0,0V7A0,0,0,0,1,45,7Z" style="fill:#d3843d"/><rect x="48" y="13" width="2" height="3" style="fill:#8b3123"/><rect x="52" y="13" width="2" height="3" style="fill:#8b3123"/><rect x="56" y="13" width="2" height="3" style="fill:#8b3123"/><path d="M46,29H40V25.107a2.075,2.075,0,0,0-1.664-2.08A2,2,0,0,0,36,25v8h8v3a2,2,0,0,0,2,2h0a2,2,0,0,0,2-2V31A2,2,0,0,0,46,29Z" style="fill:#8b3123"/><rect x="26" y="30" width="2" height="8" style="fill:#8b3123"/><rect x="22" y="30" width="2" height="6" style="fill:#8b3123"/><rect x="18" y="30" width="2" height="3" style="fill:#8b3123"/><path d="M52,3h0a4,4,0,0,1,4,4V7a0,0,0,0,1,0,0H52a0,0,0,0,1,0,0V3A0,0,0,0,1,52,3Z" style="fill:#8b3123"/><rect x="33" y="37" width="2" height="2" style="fill:#8b3123"/><path d="M45,19H61a0,0,0,0,1,0,0v0a4,4,0,0,1-4,4H45a0,0,0,0,1,0,0V19A0,0,0,0,1,45,19Z" style="fill:#d3843d"/><rect x="39" y="6" width="3" height="2" style="fill:#25313e"/><rect x="33" y="11" width="4" height="2" style="fill:#8b3123"/><rect x="32" y="15" width="7" height="2" style="fill:#8b3123"/><rect x="32" y="19" width="4" height="2" style="fill:#8b3123"/></g></svg>
