<?xml version="1.0"?>
<svg xmlns="http://www.w3.org/2000/svg" viewBox="0 0 64 64" width="512" height="512"><g id="flat"><circle cx="32" cy="32" r="29" style="fill:#ffd782"/><path d="M52.12,19.474C45.521,7.219,32.613,7.958,32.07,8l-.141-2C32.076,6,46.657,5.111,53.88,18.526Z" style="fill:#c87e7d"/><path d="M32,58c-.6,0-14.7-.132-19.91-11.586l1.82-.828C18.579,55.856,31.867,56,32,56Z" style="fill:#c87e7d"/><rect x="34" y="56" width="2" height="2" style="fill:#c87e7d"/><path d="M32,47s-6,0-6-7-5-10-4-15c0,0,3,1,5-1,0,0,0,3,2,3a1.959,1.959,0,0,0,2-2s3,1,5,0a2.19,2.19,0,0,0,1,3c2,1,4-2,4-2l4,4a45.208,45.208,0,0,0-6,8C36,43,38,47,32,47Z" style="fill:#b5554e"/><path d="M22,21s3,0,4-1l-3-4Z" style="fill:#b5554e"/><path d="M31,21a10.56,10.56,0,0,0,6,0l-2-7Z" style="fill:#b5554e"/><polygon points="44 24 47 27 49 21 44 24" style="fill:#b5554e"/><path d="M29.563,52.02a7.766,7.766,0,0,1-5.1-1.922C22.166,48.068,21,44.671,21,40h2c0,4.072.938,6.965,2.788,8.6a5.657,5.657,0,0,0,4.088,1.41l.248,1.984A4.741,4.741,0,0,1,29.563,52.02Z" style="fill:#c87e7d"/><path d="M42.98,42.2,41.02,41.8c1.059-5.3,6.14-9.412,6.355-9.585l1.25,1.561C48.578,33.818,43.9,37.622,42.98,42.2Z" style="fill:#c87e7d"/><polygon points="13 23 13 27 10 27 9 30 12 31 17 32 18 26 16 24 13 23" style="fill:#b5554e"/><polygon points="47 45 43 46 44 49 40 51 42 54 45 52 48 50 47 45" style="fill:#b5554e"/></g></svg>
