<?xml version="1.0"?>
<svg xmlns="http://www.w3.org/2000/svg" viewBox="0 0 64 64" width="512" height="512"><g id="flat"><path d="M50,30c0,12.7-8.059,19-18,19S14,42.7,14,30,22.059,3,32,3,50,17.3,50,30Z" style="fill:#ffd782"/><path d="M13,49H51a6,6,0,0,1,6,6v6a0,0,0,0,1,0,0H7a0,0,0,0,1,0,0V55A6,6,0,0,1,13,49Z" style="fill:#c87e7d"/><circle cx="28" cy="41" r="3" style="fill:#f3bb59"/><circle cx="40" cy="36" r="4" style="fill:#f3bb59"/><circle cx="41" cy="23" r="3" style="fill:#f3bb59"/><circle cx="30" cy="30" r="2" style="fill:#f3bb59"/><path d="M21.984,19.179l-1.968-.358c1.1-6.033,4.243-9.2,6.689-10.785a13.109,13.109,0,0,1,5.185-2.03l.22,1.988L32,7l.114.993C31.776,8.033,23.819,9.085,21.984,19.179Z" style="fill:#f3bb59"/><path d="M11,39h6A10,10,0,0,1,27,49v0a0,0,0,0,1,0,0H21A10,10,0,0,1,11,39v0A0,0,0,0,1,11,39Z" style="fill:#4da19a"/><path d="M47,39h6a0,0,0,0,1,0,0v0A10,10,0,0,1,43,49H37a0,0,0,0,1,0,0v0A10,10,0,0,1,47,39Z" transform="translate(90 88) rotate(-180)" style="fill:#4da19a"/><rect x="10" y="56" width="6" height="2" style="fill:#ffd782"/><rect x="17" y="52" width="6" height="2" style="fill:#ffd782"/><rect x="28" y="54" width="7" height="2" style="fill:#ffd782"/><rect x="38" y="52" width="2" height="2" style="fill:#ffd782"/><rect x="22" y="56" width="2" height="2" style="fill:#ffd782"/><rect x="47" y="52" width="4" height="2" style="fill:#ffd782"/><rect x="43" y="56" width="2" height="2" style="fill:#ffd782"/></g></svg>
