<?xml version="1.0"?>
<svg xmlns="http://www.w3.org/2000/svg" viewBox="0 0 64 64" width="512" height="512"><g id="flat"><path d="M12,44h1V40H12a29.557,29.557,0,0,0-9,2H3A29.557,29.557,0,0,0,12,44Z" style="fill:#4da19a"/><path d="M47,32V18H41a4,4,0,0,1-4-4h0a4,4,0,0,1,4-4H51a4,4,0,0,1,4,4V48H13V40h0V38a6,6,0,0,1,6-6Z" style="fill:#4da19a"/><path d="M47,40V18h2a2,2,0,0,1,2,2V48H13V40Z" style="fill:#ffd782"/><rect x="36" y="35" width="2" height="2" style="fill:#426d78"/><rect x="32" y="32" width="2" height="3" style="fill:#426d78"/><rect x="28" y="35" width="2" height="2" style="fill:#426d78"/><rect x="24" y="32" width="2" height="3" style="fill:#426d78"/><rect x="40" y="32" width="2" height="3" style="fill:#426d78"/><rect x="20" y="35" width="2" height="2" style="fill:#426d78"/><circle cx="44.5" cy="12.5" r="1.5" style="fill:#25313e"/><path d="M51,44h2a8,8,0,0,1,8,8v0a0,0,0,0,1,0,0H59a8,8,0,0,1-8-8v0A0,0,0,0,1,51,44Z" transform="translate(112 96) rotate(-180)" style="fill:#426d78"/><path d="M37,44h6a0,0,0,0,1,0,0v0A10,10,0,0,1,33,54H27a0,0,0,0,1,0,0v0A10,10,0,0,1,37,44Z" transform="translate(70 98) rotate(-180)" style="fill:#426d78"/><path d="M16,44h4a0,0,0,0,1,0,0v0A10,10,0,0,1,10,54H6a0,0,0,0,1,0,0v0A10,10,0,0,1,16,44Z" transform="translate(26 98) rotate(-180)" style="fill:#426d78"/></g></svg>
