<?xml version="1.0"?>
<svg xmlns="http://www.w3.org/2000/svg" viewBox="0 0 64 64" width="512" height="512"><g id="flat"><circle cx="32" cy="32" r="29" style="fill:#f3bb59"/><path d="M48,33V29a4,4,0,0,0-4-4L30,23a4,4,0,0,0-4-4H20a4,4,0,0,0-4,4v6a4,4,0,0,0,4,4h1v6a6,6,0,0,0,6,6H43a2,2,0,0,0,2-2V41H31a2,2,0,0,1-2-2V33Z" style="fill:#733"/><rect x="26" y="32" width="3" height="2" style="fill:#c87e7d"/><rect x="46" y="33" width="2" height="3" style="fill:#c87e7d"/><rect x="42" y="33" width="2" height="3" style="fill:#c87e7d"/><rect x="38" y="33" width="2" height="3" style="fill:#c87e7d"/><rect x="34" y="33" width="2" height="3" style="fill:#c87e7d"/><rect x="22" y="23" width="4" height="4" style="fill:#ffd782"/><rect x="40.5" y="25.95" width="2" height="5.099" transform="translate(5.415 63.605) rotate(-78.69)" style="fill:#ffd782"/><rect x="33" y="38" width="2" height="3" style="fill:#c87e7d"/><rect x="37" y="38" width="2" height="3" style="fill:#c87e7d"/><rect x="41" y="38" width="2" height="3" style="fill:#c87e7d"/><circle cx="42" cy="13" r="3" style="fill:#c87e7d"/><circle cx="12" cy="42" r="3" style="fill:#c87e7d"/><path d="M11.881,19.474l-1.762-.948C17.343,5.112,31.928,5.988,32.071,6L31.93,8C31.389,7.962,18.479,7.222,11.881,19.474Z" style="fill:#c87e7d"/><path d="M32,58V56c.134,0,13.423-.144,18.091-10.414l1.82.828C46.7,57.868,32.6,58,32,58Z" style="fill:#c87e7d"/><rect x="28" y="56" width="2" height="2" style="fill:#c87e7d"/><circle cx="53" cy="41" r="2" style="fill:#c87e7d"/><rect x="31" y="12" width="4" height="2" style="fill:#c87e7d"/><rect x="18" y="48" width="4" height="2" style="fill:#c87e7d"/><rect x="7" y="31" width="4" height="2" style="fill:#c87e7d"/></g></svg>
