<?xml version="1.0"?>
<svg xmlns="http://www.w3.org/2000/svg" viewBox="0 0 64 64" width="512" height="512"><g id="flat"><rect x="31" y="6" width="9" height="2" style="fill:#2c5660"/><rect x="31" y="10" width="9" height="2" style="fill:#2c5660"/><path d="M36,57V43H32V61H44a4,4,0,0,0-4-4Z" style="fill:#ad6327"/><path d="M38,7,36,23H12a2,2,0,0,1-2-2V19a2,2,0,0,1,2-2h6a4,4,0,0,0-4-4H12a6,6,0,0,0-6,6v4a8,8,0,0,0,8,8h8v8H42a2,2,0,0,0,2-2l2-26h4c2.209,0,8-1.791,8-4h0c0-2.209-5.791-4-8-4H42A4.387,4.387,0,0,0,38,7Z" style="fill:#426d78"/><circle cx="46.5" cy="5.5" r="1.5" style="fill:#25313e"/><path d="M51,23H45V19.107a2.075,2.075,0,0,0-1.664-2.08A2,2,0,0,0,41,19v8h8v3a2,2,0,0,0,2,2h0a2,2,0,0,0,2-2V25A2,2,0,0,0,51,23Z" style="fill:#2c5660"/><rect x="35" y="23" width="2" height="5" style="fill:#578a93"/><rect x="31" y="23" width="2" height="5" style="fill:#578a93"/><rect x="27" y="23" width="2" height="5" style="fill:#578a93"/><rect x="23" y="23" width="2" height="5" style="fill:#578a93"/><rect x="19" y="23" width="2" height="5" style="fill:#578a93"/><rect x="15" y="23" width="2" height="5" style="fill:#578a93"/><rect x="22" y="34" width="5" height="2" style="fill:#578a93"/><path d="M13,43H26V39H9V51H9a4,4,0,0,0,4-4Z" style="fill:#d3843d"/><rect x="32" y="31" width="4" height="12" style="fill:#2c5660"/><rect x="26" y="39" width="6" height="4" style="fill:#578a93"/></g></svg>
