<?xml version="1.0"?>
<svg xmlns="http://www.w3.org/2000/svg" viewBox="0 0 64 64" width="512" height="512"><g id="flat"><path d="M44,3H30c0,4.418,3.582,7,8,7H52C52,5.582,48.418,3,44,3Z" style="fill:#e88179"/><path d="M36,7c-2.373,0-3-2.617-3-4h1l1,0c0,.02.056,2,1,2Z" style="fill:#fff"/><path d="M56,10H47c0-1.657-2.015-3-4.5-3S38,8.343,38,10h0a4,4,0,0,0-4,4V27H10a2,2,0,0,1-2-2V21a2,2,0,0,1,2-2h8a2,2,0,0,0,2-2h0a2,2,0,0,0-2-2H10a6,6,0,0,0-6,6v6a8,8,0,0,0,8,8h8v6H40a2,2,0,0,0,2-2V20H56a4,4,0,0,0,4-4V14A4,4,0,0,0,56,10Z" style="fill:#ffd782"/><path d="M36,57V50H32V61H44a4,4,0,0,0-4-4Z" style="fill:#d3843d"/><path d="M48,30H42V26.107a2.075,2.075,0,0,0-1.664-2.08A2,2,0,0,0,38,26v8h8v3a2,2,0,0,0,2,2h0a2,2,0,0,0,2-2V32A2,2,0,0,0,48,30Z" style="fill:#d3843d"/><path d="M34,23h0a0,0,0,0,1,0,0v4a0,0,0,0,1,0,0H30a0,0,0,0,1,0,0v0A4,4,0,0,1,34,23Z" style="fill:#e88179"/><path d="M34,19h0a0,0,0,0,1,0,0v4a0,0,0,0,1,0,0H30a0,0,0,0,1,0,0v0A4,4,0,0,1,34,19Z" style="fill:#b5554e"/><path d="M34,15h0a0,0,0,0,1,0,0v4a0,0,0,0,1,0,0H30a0,0,0,0,1,0,0v0A4,4,0,0,1,34,15Z" style="fill:#e88179"/><path d="M18,11h6a0,0,0,0,1,0,0v0a4,4,0,0,1-4,4H14a0,0,0,0,1,0,0v0A4,4,0,0,1,18,11Z" style="fill:#e88179"/><path d="M14,19h6a4,4,0,0,1,4,4v0a0,0,0,0,1,0,0H18a4,4,0,0,1-4-4v0A0,0,0,0,1,14,19Z" style="fill:#e88179"/><path d="M47,10h9a4,4,0,0,1,4,4v2a0,0,0,0,1,0,0H47a0,0,0,0,1,0,0V10A0,0,0,0,1,47,10Z" style="fill:#d3843d"/><path d="M47,16H60a0,0,0,0,1,0,0v0a4,4,0,0,1-4,4H47a0,0,0,0,1,0,0V16A0,0,0,0,1,47,16Z" style="fill:#ad6327"/><rect x="50" y="13" width="2" height="3" style="fill:#ffd782"/><rect x="54" y="13" width="2" height="3" style="fill:#ffd782"/><rect x="20" y="36" width="5" height="2" style="fill:#d3843d"/><rect x="27" y="36" width="2" height="2" style="fill:#d3843d"/><rect x="37" y="16" width="2" height="2" style="fill:#d3843d"/><path d="M18,45h8V41H14V53h0a4,4,0,0,0,4-4Z" style="fill:#d3843d"/><rect x="32" y="41" width="4" height="9" style="fill:#b5554e"/><rect x="26" y="41" width="6" height="4" style="fill:#e88179"/><circle cx="42.5" cy="11.5" r="1.5" style="fill:#25313e"/></g></svg>
