<?xml version="1.0"?>
<svg xmlns="http://www.w3.org/2000/svg" viewBox="0 0 64 64" width="512" height="512"><g id="flat"><path d="M37,35v2c-4,2-7,5-8,10h2c5,0,10-3,10-8h0V35Z" style="fill:#426d78"/><path d="M29,16h0a8,8,0,0,1,8,8v2a0,0,0,0,1,0,0H29a0,0,0,0,1,0,0V16A0,0,0,0,1,29,16Z" style="fill:#426d78"/><path d="M21,38h4a0,0,0,0,1,0,0v0a6,6,0,0,1-6,6H15a0,0,0,0,1,0,0v0A6,6,0,0,1,21,38Z" style="fill:#426d78"/><path d="M51,29H48.892C45.455,26.635,38.382,23,32,23a30.286,30.286,0,0,0-17,6c-1.078-3.145-4.49-5-8-5H3c0,4.418,2.582,8,7,8-4.418,0-7,3.582-7,8H7c3.51,0,6.922-1.855,8-5,3.182,2.583,10.256,4,17,4,6.382,0,13.455-1.635,16.892-4H51c3,0,10-2,10-3S54,29,51,29Z" style="fill:#418abd"/><circle cx="40.5" cy="29.5" r="1.5" style="fill:#25313e"/><path d="M35,31H33c0-5.472,3.305-7.738,3.445-7.832l1.11,1.664L37,24l.562.828C37.457,24.9,35,26.647,35,31Z" style="fill:#426d78"/><path d="M29,31H27a11.74,11.74,0,0,1,4.4-8.8l1.2,1.6L32,23l.6.8A9.875,9.875,0,0,0,29,31Z" style="fill:#426d78"/><path d="M23,31H21c0-5.472,3.305-7.738,3.445-7.832l1.11,1.664L25,24l.562.828C25.457,24.9,23,26.647,23,31Z" style="fill:#426d78"/><path d="M10,29H8c0-.71-2.647-2.706-5.447-4.105l.894-1.79C5.417,24.091,10,26.637,10,29Z" style="fill:#426d78"/></g></svg>
