<?xml version="1.0"?>
<svg xmlns="http://www.w3.org/2000/svg" viewBox="0 0 64 64" width="512" height="512"><g id="flat"><path d="M35,57V51H31V61H43a4,4,0,0,0-4-4Z" style="fill:#ad6327"/><path d="M34,7V28H11a2,2,0,0,1-2-2V24a2,2,0,0,1,2-2H23a4,4,0,0,0-4-4H9a6,6,0,0,0-6,6v4a6,6,0,0,0,6,6H20v8H38a4,4,0,0,0,4-4V21h4V7Z" style="fill:#8b3123"/><path d="M46,7H57a4,4,0,0,1,4,4v2a0,0,0,0,1,0,0H46a0,0,0,0,1,0,0V7A0,0,0,0,1,46,7Z" style="fill:#d3843d"/><path d="M46,17H61a0,0,0,0,1,0,0v0a4,4,0,0,1-4,4H46a0,0,0,0,1,0,0V17A0,0,0,0,1,46,17Z" style="fill:#d3843d"/><path d="M34,3h0a4,4,0,0,1,4,4V7a0,0,0,0,1,0,0H34a0,0,0,0,1,0,0V3A0,0,0,0,1,34,3Z" style="fill:#e88179"/><path d="M38,3h0a4,4,0,0,1,4,4V7a0,0,0,0,1,0,0H38a0,0,0,0,1,0,0V3A0,0,0,0,1,38,3Z" style="fill:#e88179"/><path d="M42,3h0a4,4,0,0,1,4,4V7a0,0,0,0,1,0,0H42a0,0,0,0,1,0,0V3A0,0,0,0,1,42,3Z" style="fill:#e88179"/><path d="M30,15h0a4,4,0,0,1,4,4v0a0,0,0,0,1,0,0H30a0,0,0,0,1,0,0V15A0,0,0,0,1,30,15Z" transform="translate(15 49) rotate(-90)" style="fill:#e88179"/><path d="M30,19h0a4,4,0,0,1,4,4v0a0,0,0,0,1,0,0H30a0,0,0,0,1,0,0V19A0,0,0,0,1,30,19Z" transform="translate(11 53) rotate(-90)" style="fill:#e88179"/><path d="M30,11h0a4,4,0,0,1,4,4v0a0,0,0,0,1,0,0H30a0,0,0,0,1,0,0V11A0,0,0,0,1,30,11Z" transform="translate(19 45) rotate(-90)" style="fill:#e88179"/><path d="M30,7h0a4,4,0,0,1,4,4v0a0,0,0,0,1,0,0H30a0,0,0,0,1,0,0V7A0,0,0,0,1,30,7Z" transform="translate(23 41) rotate(-90)" style="fill:#e88179"/><path d="M22,28h4a0,0,0,0,1,0,0v0a4,4,0,0,1-4,4h0a0,0,0,0,1,0,0V28A0,0,0,0,1,22,28Z" style="fill:#e88179"/><path d="M26,28h4a0,0,0,0,1,0,0v0a4,4,0,0,1-4,4h0a0,0,0,0,1,0,0V28A0,0,0,0,1,26,28Z" style="fill:#e88179"/><path d="M30,28h4a0,0,0,0,1,0,0v0a4,4,0,0,1-4,4h0a0,0,0,0,1,0,0V28A0,0,0,0,1,30,28Z" style="fill:#e88179"/><circle cx="41.5" cy="11.5" r="1.5" style="fill:#25313e"/><path d="M48,27H42V23.107a2.075,2.075,0,0,0-1.664-2.08A2,2,0,0,0,38,23v8h8v3a2,2,0,0,0,2,2h0a2,2,0,0,0,2-2V29A2,2,0,0,0,48,27Z" style="fill:#d3843d"/><rect x="20" y="37" width="5" height="2" style="fill:#d3843d"/><rect x="27" y="37" width="2" height="2" style="fill:#d3843d"/><path d="M33,42h4a0,0,0,0,1,0,0v9a0,0,0,0,1,0,0H31a0,0,0,0,1,0,0V44A2,2,0,0,1,33,42Z" transform="translate(68 93) rotate(-180)" style="fill:#d36054"/><path d="M27,42h4a0,0,0,0,1,0,0v6a0,0,0,0,1,0,0H25a0,0,0,0,1,0,0V44A2,2,0,0,1,27,42Z" transform="translate(-17 73) rotate(-90)" style="fill:#e88179"/><path d="M19,46h6V42H15V54h0a4,4,0,0,0,4-4Z" style="fill:#d3843d"/></g></svg>
