<?xml version="1.0"?>
<svg xmlns="http://www.w3.org/2000/svg" viewBox="0 0 64 64" width="512" height="512"><g id="flat"><path d="M35,40H13l9-18a2.362,2.362,0,0,1,4,0Z" style="fill:#c87e7d"/><path d="M28.5,27,26,22a2.362,2.362,0,0,0-4,0l-2.5,5Z" style="fill:#e2b0b0"/><path d="M20,40H8l3-5c1.554-2.589,4.446-2.589,6,0Z" style="fill:#733"/><path d="M49,40H27l9-18a2.362,2.362,0,0,1,4,0Z" style="fill:#733"/><path d="M56,40H44l3-5c1.554-2.589,4.446-2.589,6,0Z" style="fill:#c87e7d"/><path d="M5,40H59a2,2,0,0,1,2,2V61a0,0,0,0,1,0,0H3a0,0,0,0,1,0,0V42A2,2,0,0,1,5,40Z" style="fill:#50b3c9"/><rect x="3" y="40" width="58" height="4" rx="2" ry="2" style="fill:#ebb562"/><path d="M43.5,29,40,22a2.362,2.362,0,0,0-4,0l-3.5,7Z" style="fill:#e2b0b0"/><circle cx="34" cy="12" r="5" style="fill:#f3bb59"/><path d="M17,7c0-2.209-2.239-4-5-4S7,4.791,7,7C4.791,7,3,8.343,3,10s1.791,3,4,3H17c2.209,0,4-1.343,4-3S19.209,7,17,7Z" style="fill:#92cdde"/><path d="M57,15c0-2.209-2.239-4-5-4s-5,1.791-5,4c-2.209,0-4,1.343-4,3s1.791,3,4,3H57c2.209,0,4-1.343,4-3S59.209,15,57,15Z" style="fill:#92cdde"/><polygon points="10 54.202 6.445 51.832 7.555 50.168 10 51.798 13 49.798 16.555 52.168 15.445 53.832 13 52.202 10 54.202" style="fill:#cdeef6"/><polygon points="23 58.202 19.445 55.832 20.555 54.168 23 55.798 26 53.798 29.555 56.168 28.445 57.832 26 56.202 23 58.202" style="fill:#cdeef6"/><polygon points="37 52.202 33.445 49.832 34.555 48.168 37 49.798 40 47.798 43.555 50.168 42.445 51.832 40 50.202 37 52.202" style="fill:#cdeef6"/><polygon points="50 56.202 46.445 53.832 47.555 52.168 50 53.798 53 51.798 56.555 54.168 55.445 55.832 53 54.202 50 56.202" style="fill:#cdeef6"/></g></svg>
