<?xml version="1.0"?>
<svg xmlns="http://www.w3.org/2000/svg" viewBox="0 0 64 64" width="512" height="512"><g id="flat"><path d="M59,16H53.5a3.5,3.5,0,0,0,0,7H55v4l-4-1a51.96,51.96,0,0,0-15-2c-11,0-15,2-15,2L3,33v3H26V49h4V37h5V49h4V37h4V49h4V32H57a4,4,0,0,0,4-4V18A2,2,0,0,0,59,16Z" style="fill:#4da19a"/><circle cx="56.5" cy="18.5" r="1.5" style="fill:#25313e"/><polygon points="36 24 34 20 36 16 38 20 36 24" style="fill:#426d78"/><polygon points="28 24 26 20 28 16 30 20 28 24" style="fill:#426d78"/><polygon points="20 26 18 22 20 18 22 22 20 26" style="fill:#426d78"/><polygon points="13 29 11 25 13 21 15 25 13 29" style="fill:#426d78"/><polygon points="6 31 4 27 6 23 8 27 6 31" style="fill:#426d78"/><polygon points="44 24 42 20 44 16 46 20 44 24" style="fill:#426d78"/><polygon points="43 33 31 31 43 29 43 33" style="fill:#426d78"/><rect x="39" y="37" width="4" height="4" style="fill:#426d78"/><rect x="30" y="37" width="5" height="4" style="fill:#426d78"/><rect x="16" y="31" width="2" height="2" style="fill:#426d78"/><rect x="20" y="29" width="2" height="2" style="fill:#426d78"/></g></svg>
