<?xml version="1.0"?>
<svg xmlns="http://www.w3.org/2000/svg" viewBox="0 0 64 64" width="512" height="512"><g id="flat"><path d="M55,16a85.079,85.079,0,0,0-14,2,109.409,109.409,0,0,0-13,4c-2,1-3,2.126-3,4V39c0,1.922,1,3,3,4a78.014,78.014,0,0,0,13,4,62.325,62.325,0,0,0,14,1c3.314,0,6-7.163,6-16S58.314,16,55,16Z" style="fill:#c87e7d"/><path d="M11,28a4,4,0,1,0-4,4H7a4,4,0,1,0,4,4H25V28Z" style="fill:#ffd782"/><path d="M30,32H28V27.386a3.012,3.012,0,0,1,1.947-2.809l6.7-2.514.7,1.874-6.7,2.513a1,1,0,0,0-.649.936Z" style="fill:#733"/><path d="M45,44a30.991,30.991,0,0,1-10.371-2.071l.742-1.858A29.355,29.355,0,0,0,45,42Z" style="fill:#733"/><rect x="31" y="38.382" width="2" height="2.236" transform="translate(-17.641 50.457) rotate(-63.435)" style="fill:#733"/><ellipse cx="55" cy="32" rx="6" ry="16" style="fill:#e2b0b0"/><ellipse cx="55" cy="32" rx="2" ry="4" style="fill:#733"/></g></svg>
