<?xml version="1.0"?>
<svg xmlns="http://www.w3.org/2000/svg" viewBox="0 0 64 64" width="512" height="512"><g id="flat"><path d="M30,57V51H26V61H38a4,4,0,0,0-4-4Z" style="fill:#ad6327"/><path d="M39,7a4.272,4.272,0,0,0-4.5-4A4.272,4.272,0,0,0,30,7H29a2,2,0,0,0-2,2V30H13a8,8,0,0,0-8,8v6a6,6,0,0,0,6,6h7a4,4,0,0,0,4-4H13a2,2,0,0,1-2-2V38a2,2,0,0,1,2-2h2v6H37a2,2,0,0,0,2-2V17h4V7Z" style="fill:#92cdde"/><path d="M30,42h6a0,0,0,0,1,0,0v9a0,0,0,0,1,0,0H26a0,0,0,0,1,0,0V46A4,4,0,0,1,30,42Z" transform="translate(62 93) rotate(-180)" style="fill:#618a93"/><path d="M26,57V51H22V61H34a4,4,0,0,0-4-4Z" style="fill:#d3843d"/><path d="M26,42h6a0,0,0,0,1,0,0v9a0,0,0,0,1,0,0H22a0,0,0,0,1,0,0V46A4,4,0,0,1,26,42Z" transform="translate(54 93) rotate(-180)" style="fill:#426d78"/><path d="M43,7H55a4,4,0,0,1,4,4v2a0,0,0,0,1,0,0H43a0,0,0,0,1,0,0V7A0,0,0,0,1,43,7Z" style="fill:#426d78"/><path d="M43,13H59a0,0,0,0,1,0,0v0a4,4,0,0,1-4,4H43a0,0,0,0,1,0,0V13A0,0,0,0,1,43,13Z" style="fill:#618a93"/><circle cx="34.5" cy="7.5" r="1.5" style="fill:#25313e"/><rect x="46" y="10" width="2" height="3" style="fill:#92cdde"/><rect x="50" y="10" width="2" height="3" style="fill:#92cdde"/><rect x="54" y="10" width="2" height="3" style="fill:#92cdde"/><path d="M45,26H39V22.107a2.075,2.075,0,0,0-1.664-2.08A2,2,0,0,0,35,22v8h8v3a2,2,0,0,0,2,2h0a2,2,0,0,0,2-2V28A2,2,0,0,0,45,26Z" style="fill:#618a93"/><rect x="24" y="10" width="3" height="2" style="fill:#426d78"/><rect x="27" y="12" width="3" height="2" style="fill:#618a93"/><rect x="24" y="14" width="3" height="2" style="fill:#426d78"/><rect x="24" y="18" width="3" height="2" style="fill:#426d78"/><rect x="24" y="22" width="3" height="2" style="fill:#426d78"/><rect x="27" y="16" width="3" height="2" style="fill:#618a93"/><rect x="27" y="20" width="3" height="2" style="fill:#618a93"/><rect x="27" y="24" width="3" height="2" style="fill:#618a93"/><rect x="26" y="30" width="2" height="8" style="fill:#618a93"/><rect x="22" y="30" width="2" height="6" style="fill:#618a93"/><rect x="18" y="30" width="2" height="3" style="fill:#618a93"/><rect x="34" y="37" width="2" height="2" style="fill:#618a93"/></g></svg>
