<?xml version="1.0"?>
<svg xmlns="http://www.w3.org/2000/svg" viewBox="0 0 64 64" width="512" height="512"><g id="flat"><path d="M39,57V51H35V61H47a4,4,0,0,0-4-4Z" style="fill:#ad6327"/><path d="M57,7H49a4.272,4.272,0,0,0-4.5-4A4.272,4.272,0,0,0,40,7H28a6,6,0,0,0,6,6h4V24a6,6,0,0,1-6,6H3c0,5,19,6,19,6v2a4,4,0,0,0,4,4H42a4,4,0,0,0,4-4V16h8c4,0,4-3,4-5h3A4,4,0,0,0,57,7Z" style="fill:#b5554e"/><circle cx="44.5" cy="7.5" r="1.5" style="fill:#25313e"/><rect x="53" y="10" width="5" height="2" style="fill:#6d1f17"/><rect x="31" y="30" width="2" height="3" style="fill:#6d1f17"/><rect x="27" y="30" width="2" height="3" style="fill:#6d1f17"/><rect x="38" y="16" width="3" height="2" style="fill:#6d1f17"/><rect x="38" y="12" width="3" height="2" style="fill:#6d1f17"/><rect x="23" y="30" width="2" height="3" style="fill:#6d1f17"/><rect x="18" y="30" width="2" height="3" style="fill:#6d1f17"/><path d="M52,27H46V23.107a2.075,2.075,0,0,0-1.664-2.08A2,2,0,0,0,42,23v8h8v3a2,2,0,0,0,2,2h0a2,2,0,0,0,2-2V29A2,2,0,0,0,52,27Z" style="fill:#6d1f17"/><rect x="22" y="37" width="5" height="2" style="fill:#6d1f17"/><rect x="29" y="37" width="2" height="2" style="fill:#6d1f17"/><path d="M37,42h4a0,0,0,0,1,0,0v9a0,0,0,0,1,0,0H35a0,0,0,0,1,0,0V44A2,2,0,0,1,37,42Z" transform="translate(76 93) rotate(-180)" style="fill:#6d1f17"/><path d="M31,42h4a0,0,0,0,1,0,0v6a0,0,0,0,1,0,0H29a0,0,0,0,1,0,0V44A2,2,0,0,1,31,42Z" transform="translate(-13 77) rotate(-90)" style="fill:#7c2624"/><path d="M23,46h6V42H19V54h0a4,4,0,0,0,4-4Z" style="fill:#d3843d"/></g></svg>
