<?xml version="1.0"?>
<svg xmlns="http://www.w3.org/2000/svg" viewBox="0 0 64 64" width="512" height="512"><g id="flat"><path d="M32,51V45H28V55H40a4,4,0,0,0-4-4Z" style="fill:#ad6327"/><path d="M59,12H44L35,24H11a8,8,0,0,0-8,8v6a6,6,0,0,0,6,6h1a4,4,0,0,0,4-4H9a2,2,0,0,1-2-2V32a2,2,0,0,1,2-2h4l2,6H36L48,20H59a2,2,0,0,0,2-2V14A2,2,0,0,0,59,12Z" style="fill:#ffd782"/><path d="M20,36h4a0,0,0,0,1,0,0v9a0,0,0,0,1,0,0H18a0,0,0,0,1,0,0V38A2,2,0,0,1,20,36Z" transform="translate(42 81) rotate(-180)" style="fill:#b5554e"/><path d="M22,51V45H18V55H30a4,4,0,0,0-4-4Z" style="fill:#d3843d"/><path d="M30,36h4a0,0,0,0,1,0,0v9a0,0,0,0,1,0,0H28a0,0,0,0,1,0,0V38A2,2,0,0,1,30,36Z" transform="translate(62 81) rotate(-180)" style="fill:#b5554e"/><circle cx="48.5" cy="14.5" r="1.5" style="fill:#25313e"/><path d="M42,30V26.107a2.075,2.075,0,0,0-1.664-2.08A2,2,0,0,0,38,26v7l9,5v4a2,2,0,0,0,2,2h0a2,2,0,0,0,2-2V35Z" style="fill:#d3843d"/><polygon points="39 10 35 11 30 9 26 12 22 13 19 17 14 17 11 20 11 24 35 24 44 12 39 10" style="fill:#d3843d"/><rect x="19" y="16.697" width="2" height="3.606" transform="translate(-6.903 14.201) rotate(-33.69)" style="fill:#ffd782"/><rect x="26.5" y="11.5" width="2" height="5" transform="translate(-2.9 19.3) rotate(-36.87)" style="fill:#ffd782"/><rect x="35.5" y="10.379" width="2" height="4.243" transform="translate(1.852 29.471) rotate(-45)" style="fill:#ffd782"/><rect x="30" y="16.586" width="2" height="2.828" transform="translate(-3.648 27.192) rotate(-45)" style="fill:#ffd782"/><rect x="56" y="12" width="2" height="3" style="fill:#b5554e"/></g></svg>
