<?xml version="1.0"?>
<svg xmlns="http://www.w3.org/2000/svg" viewBox="0 0 64 64" width="512" height="512"><g id="flat"><path d="M31,53V47H27V57H39a4,4,0,0,0-4-4Z" style="fill:#ad6327"/><path d="M61,9H41.107a2.075,2.075,0,0,0-2.08,1.664A2,2,0,0,0,41,13h2l-6,6H22a4,4,0,0,0-4,4v7a2,2,0,0,1-2,2H3a6,6,0,0,0,6,6H33L47,19H61Z" style="fill:#c87e7d"/><path d="M18,23v3.893a2.075,2.075,0,0,0,1.664,2.08A2,2,0,0,0,22,27v1.893a2.075,2.075,0,0,0,1.664,2.08A2,2,0,0,0,26,29V25a2,2,0,0,0,2.336,1.973A2.075,2.075,0,0,0,30,24.893V19H22A4,4,0,0,0,18,23Z" style="fill:#6d1f17"/><circle cx="49.5" cy="13.5" r="1.5" style="fill:#25313e"/><rect x="56" y="14" width="2" height="2" style="fill:#6d1f17"/><path d="M45,29H39V25.107a2.075,2.075,0,0,0-1.664-2.08A2,2,0,0,0,35,25v8h8v3a2,2,0,0,0,2,2h0a2,2,0,0,0,2-2V31A2,2,0,0,0,45,29Z" style="fill:#b5554e"/><path d="M29,38h4a0,0,0,0,1,0,0v9a0,0,0,0,1,0,0H27a0,0,0,0,1,0,0V40A2,2,0,0,1,29,38Z" transform="translate(60 85) rotate(-180)" style="fill:#b5554e"/><path d="M23,38h4a0,0,0,0,1,0,0v6a0,0,0,0,1,0,0H21a0,0,0,0,1,0,0V40A2,2,0,0,1,23,38Z" transform="translate(-17 65) rotate(-90)" style="fill:#6d1f17"/><path d="M15,42h6V38H11V50h0a4,4,0,0,0,4-4Z" style="fill:#d3843d"/></g></svg>
