<?xml version="1.0"?>
<svg xmlns="http://www.w3.org/2000/svg" viewBox="0 0 64 64" width="512" height="512"><g id="flat"><rect x="27" y="31" width="10" height="6" style="fill:#c87e7d"/><rect x="27" y="18" width="10" height="9" style="fill:#c87e7d"/><rect x="27" y="43" width="10" height="6" style="fill:#c87e7d"/><rect x="27" y="55" width="10" height="6" style="fill:#c87e7d"/><path d="M11,15h8a8,8,0,0,1,8,8v2a0,0,0,0,1,0,0H3a0,0,0,0,1,0,0V23A8,8,0,0,1,11,15Z" style="fill:#4da19a"/><path d="M30,24,13,7l1-1A8.854,8.854,0,0,1,26,6l5,5a8.854,8.854,0,0,1,0,12Z" style="fill:#4da19a"/><path d="M34,24,51,7,50,6A8.854,8.854,0,0,0,38,6l-5,5a8.854,8.854,0,0,0,0,12Z" style="fill:#4da19a"/><path d="M45,15h8a8,8,0,0,1,8,8v2a0,0,0,0,1,0,0H37a0,0,0,0,1,0,0V23A8,8,0,0,1,45,15Z" style="fill:#4da19a"/><rect x="27" y="25" width="10" height="6" style="fill:#733"/><rect x="27" y="37" width="10" height="6" style="fill:#733"/><rect x="27" y="49" width="10" height="6" style="fill:#733"/><rect x="8" y="22" width="2" height="3" style="fill:#2b6861"/><rect x="14" y="20" width="2" height="5" style="fill:#2b6861"/><rect x="20" y="22" width="2" height="3" style="fill:#2b6861"/><rect x="42" y="22" width="2" height="3" style="fill:#2b6861"/><rect x="48" y="19" width="2" height="6" style="fill:#2b6861"/><rect x="54" y="22" width="2" height="3" style="fill:#2b6861"/><rect x="16.586" y="9" width="2.828" height="2" transform="translate(-1.799 15.657) rotate(-45)" style="fill:#2b6861"/><rect x="19.172" y="11" width="5.657" height="2" transform="translate(-2.042 19.071) rotate(-45)" style="fill:#2b6861"/><rect x="22.379" y="14.5" width="4.243" height="2" transform="translate(-3.784 21.864) rotate(-45)" style="fill:#2b6861"/><rect x="41" y="9.172" width="2" height="5.657" transform="translate(3.816 33.213) rotate(-45)" style="fill:#2b6861"/><rect x="45" y="8.586" width="2" height="2.828" transform="translate(6.402 35.456) rotate(-45)" style="fill:#2b6861"/><rect x="38.5" y="13.379" width="2" height="4.243" transform="translate(0.609 32.471) rotate(-45)" style="fill:#2b6861"/><rect x="24" y="18" width="16" height="7" style="fill:#4da19a"/></g></svg>
