<?xml version="1.0"?>
<svg xmlns="http://www.w3.org/2000/svg" viewBox="0 0 64 64" width="512" height="512"><g id="flat"><path d="M38,57V50H34V61H46a4,4,0,0,0-4-4Z" style="fill:#ad6327"/><path d="M58,3H34.107a2.075,2.075,0,0,0-2.08,1.664A2,2,0,0,0,34,7h8V24H33C22,24,17,37,17,37L11,51c-.322.719-1,2-2,2H8a4,4,0,0,0-4,4h9a4.517,4.517,0,0,0,4-3l7-16H46a4,4,0,0,0,4-4V13h8a2,2,0,0,0,2-2V5A2,2,0,0,0,58,3Z" style="fill:#426d78"/><path d="M38,38h6a0,0,0,0,1,0,0V50a0,0,0,0,1,0,0H34a0,0,0,0,1,0,0V42A4,4,0,0,1,38,38Z" transform="translate(78 88) rotate(-180)" style="fill:#2d776e"/><path d="M34,57V50H30V61H42a4,4,0,0,0-4-4Z" style="fill:#d3843d"/><path d="M34,38h6a0,0,0,0,1,0,0V50a0,0,0,0,1,0,0H30a0,0,0,0,1,0,0V42A4,4,0,0,1,34,38Z" transform="translate(70 88) rotate(-180)" style="fill:#4da19a"/><circle cx="48.5" cy="7.5" r="1.5" style="fill:#25313e"/><rect x="55" y="8" width="2" height="2" style="fill:#4da19a"/><path d="M56,26H50V22.107a2.075,2.075,0,0,0-1.664-2.08A2,2,0,0,0,46,22v8h8v3a2,2,0,0,0,2,2h0a2,2,0,0,0,2-2V28A2,2,0,0,0,56,26Z" style="fill:#4da19a"/><rect x="41" y="24" width="2" height="5" style="fill:#4da19a"/><rect x="36" y="24" width="2" height="7" style="fill:#4da19a"/><rect x="31" y="24" width="2" height="9" style="fill:#4da19a"/><rect x="26" y="26" width="2" height="9" style="fill:#4da19a"/><rect x="41" y="31" width="2" height="2" style="fill:#4da19a"/></g></svg>
