<?xml version="1.0"?>
<svg xmlns="http://www.w3.org/2000/svg" viewBox="0 0 64 64" width="512" height="512"><g id="flat"><path d="M34,54V48H30V58H42a4,4,0,0,0-4-4Z" style="fill:#ad6327"/><path d="M33,10v4h8L37,27,19,29,12.966,52,3,57l13-1,6-16H43l6-26V6H37A4,4,0,0,0,33,10Z" style="fill:#e4544f"/><path d="M34,40h6a0,0,0,0,1,0,0v8a0,0,0,0,1,0,0H30a0,0,0,0,1,0,0V44A4,4,0,0,1,34,40Z" transform="translate(70 88) rotate(-180)" style="fill:#c87e7d"/><path d="M30,54V48H26V58H38a4,4,0,0,0-4-4Z" style="fill:#d3843d"/><path d="M30,40h6a0,0,0,0,1,0,0v8a0,0,0,0,1,0,0H26a0,0,0,0,1,0,0V44A4,4,0,0,1,30,40Z" transform="translate(62 88) rotate(-180)" style="fill:#6d1f17"/><path d="M52,27H46V23.107a2.075,2.075,0,0,0-1.664-2.08A2,2,0,0,0,42,23v8h8v3a2,2,0,0,0,2,2h0a2,2,0,0,0,2-2V29A2,2,0,0,0,52,27Z" style="fill:#6d1f17"/><path d="M49,6H59a2,2,0,0,1,2,2V8a2,2,0,0,1-2,2H49a0,0,0,0,1,0,0V6A0,0,0,0,1,49,6Z" style="fill:#b5554e"/><circle cx="42.5" cy="8.5" r="1.5" style="fill:#25313e"/><rect x="31" y="27" width="2" height="5" style="fill:#6d1f17"/><rect x="27" y="28" width="2" height="6" style="fill:#6d1f17"/><rect x="23" y="28" width="2" height="8" style="fill:#6d1f17"/><path d="M40,15V13c2.387,0,4.862-.333,5.3-.711l1.41,1.418C45.54,14.874,41.628,15,40,15Z" style="fill:#6d1f17"/><rect x="33" y="9" width="3" height="2" style="fill:#6d1f17"/></g></svg>
