<?xml version="1.0"?>
<svg xmlns="http://www.w3.org/2000/svg" viewBox="0 0 64 64" width="512" height="512"><g id="flat"><path d="M52.5,3H45a4,4,0,0,0-4,4V31a2,2,0,0,1-2,2H20A12,12,0,0,0,8,45v8a8,8,0,0,0,8,8h9a4,4,0,0,0,4-4H16a2,2,0,0,1-2-2V45a4,4,0,0,1,4-4h3V57h4V46H35V61h4V46h4V61h4V12h5.307a4.63,4.63,0,0,0,4.672-4.058A4.5,4.5,0,0,0,52.5,3Z" style="fill:#b5554e"/><circle cx="47.5" cy="7.5" r="1.5" style="fill:#25313e"/><path d="M25,33h6a0,0,0,0,1,0,0v3a3,3,0,0,1-3,3h0a3,3,0,0,1-3-3V33A0,0,0,0,1,25,33Z" style="fill:#e2b0b0"/><path d="M31,33h6a0,0,0,0,1,0,0v3a3,3,0,0,1-3,3h0a3,3,0,0,1-3-3V33A0,0,0,0,1,31,33Z" style="fill:#d18c8c"/><rect x="8" y="46" width="3" height="2" style="fill:#e2b0b0"/><rect x="8" y="50" width="3" height="2" style="fill:#e2b0b0"/><rect x="41" y="22" width="3" height="2" style="fill:#e2b0b0"/><rect x="41" y="18" width="3" height="2" style="fill:#e2b0b0"/><rect x="41" y="14" width="3" height="2" style="fill:#e2b0b0"/><rect x="39" y="46" width="4" height="4" style="fill:#ffd782"/><rect x="25" y="46" width="10" height="4" style="fill:#ffd782"/><rect x="42" y="41" width="2" height="2" style="fill:#e2b0b0"/></g></svg>
