<?xml version="1.0"?>
<svg xmlns="http://www.w3.org/2000/svg" viewBox="0 0 64 64" width="512" height="512"><g id="flat"><path d="M53,3H46a2,2,0,0,0-2,2v8h7V31a2,2,0,0,1-2,2H16.181a9.477,9.477,0,0,0-7.805,3.918C4.981,41.78,8.381,47,13,47H23a4,4,0,0,0-4-4H15.107a2.075,2.075,0,0,1-2.08-1.664A2,2,0,0,1,15,39H27a2,2,0,0,1,2,2v6a2,2,0,0,0,2,2h3v6H32a6,6,0,0,0-6,6h8a6,6,0,0,0,6-6V49H51v6H49a6,6,0,0,0-6,6h8a6,6,0,0,0,6-6V7A4,4,0,0,0,53,3Z" style="fill:#426d78"/><circle cx="48.5" cy="5.5" r="1.5" style="fill:#25313e"/><path d="M34,9H44a0,0,0,0,1,0,0v4a0,0,0,0,1,0,0H38a4,4,0,0,1-4-4V9a0,0,0,0,1,0,0Z" style="fill:#6d1f17"/><path d="M36,5h8a0,0,0,0,1,0,0V9a0,0,0,0,1,0,0H32a0,0,0,0,1,0,0V9A4,4,0,0,1,36,5Z" style="fill:#d3843d"/><path d="M45,33H33V43a2,2,0,0,0,4,0V39a2,2,0,0,0,4,0v2a2,2,0,0,0,4,0V37a2,2,0,0,0,4,0V33Z" style="fill:#618a93"/></g></svg>
