<?xml version="1.0"?>
<svg xmlns="http://www.w3.org/2000/svg" viewBox="0 0 64 64" width="512" height="512"><g id="flat"><path d="M37,42h4a0,0,0,0,1,0,0v0a6,6,0,0,1-6,6H31a0,0,0,0,1,0,0v0A6,6,0,0,1,37,42Z" style="fill:#426d78"/><path d="M20,42h8a0,0,0,0,1,0,0v0a6,6,0,0,1-6,6H14a0,0,0,0,1,0,0v0A6,6,0,0,1,20,42Z" style="fill:#426d78"/><path d="M26,22h4a6,6,0,0,1,6,6v0a0,0,0,0,1,0,0H32a6,6,0,0,1-6-6v0A0,0,0,0,1,26,22Z" style="fill:#426d78"/><path d="M9,22h8a6,6,0,0,1,6,6v0a0,0,0,0,1,0,0H15a6,6,0,0,1-6-6v0A0,0,0,0,1,9,22Z" style="fill:#426d78"/><path d="M51,15H44a4,4,0,0,0-4,4v9H11a20.687,20.687,0,0,0-8,2s7,4,12,4h3v8H41a5,5,0,0,0,5-5V23h5c4,0,10-1.791,10-4h0C61,16.791,55,15,51,15Z" style="fill:#418abd"/><ellipse cx="25" cy="34" rx="3" ry="2" style="fill:#92cdde"/><ellipse cx="34" cy="30" rx="3" ry="2" style="fill:#92cdde"/><circle cx="47.5" cy="17.5" r="1.5" style="fill:#25313e"/><rect x="32" y="35" width="2" height="2" style="fill:#92cdde"/><rect x="39" y="33" width="2" height="2" style="fill:#92cdde"/><rect x="53" y="18" width="8" height="2" style="fill:#92cdde"/></g></svg>
