<?xml version="1.0"?>
<svg xmlns="http://www.w3.org/2000/svg" viewBox="0 0 64 64" width="512" height="512"><g id="flat"><path d="M5,38H15a0,0,0,0,1,0,0v4a0,0,0,0,1,0,0H5a2,2,0,0,1-2-2v0a2,2,0,0,1,2-2Z" style="fill:#d3843d"/><path d="M5,42H15a0,0,0,0,1,0,0v4a0,0,0,0,1,0,0H5a2,2,0,0,1-2-2v0a2,2,0,0,1,2-2Z" style="fill:#ebb562"/><path d="M23,38H9L5,18H5A17.079,17.079,0,0,1,21.746,31.728Z" style="fill:#6b809b"/><path d="M31,38H23l2.431-12.155A9.758,9.758,0,0,1,35,18h0Z" style="fill:#6b809b"/><path d="M37,38h8a2,2,0,0,1,2,2v6a0,0,0,0,1,0,0H37a0,0,0,0,1,0,0V38A0,0,0,0,1,37,38Z" style="fill:#426d78"/><path d="M50,46H47V42h3c3,0,11,2,11,2h0S53,46,50,46Z" style="fill:#d3843d"/><path d="M15,38H31a2,2,0,0,1,2,2v4a2,2,0,0,1-2,2H15a4,4,0,0,1-4-4v0A4,4,0,0,1,15,38Z" style="fill:#426d78"/><rect x="33" y="40" width="4" height="4" style="fill:#d3843d"/><circle cx="42.5" cy="40.5" r="1.5" style="fill:#25313e"/><path d="M5.812,22S17,21,19,38H9Z" style="fill:#bfbfbf"/><rect x="8" y="33" width="6" height="2" style="fill:#6b809b"/><rect x="8" y="29" width="4" height="2" style="fill:#6b809b"/><rect x="7" y="25" width="2" height="2" style="fill:#6b809b"/><path d="M41,38H37l-2-8h0a5.123,5.123,0,0,1,4.97,3.881Z" style="fill:#ad6327"/><rect x="18" y="41" width="2" height="2" style="fill:#4da19a"/></g></svg>
