<?xml version="1.0"?>
<svg xmlns="http://www.w3.org/2000/svg" viewBox="0 0 64 64" width="512" height="512"><g id="flat"><path d="M32,57V51H28V61H40a4,4,0,0,0-4-4Z" style="fill:#ad6327"/><path d="M57,7H41a4.272,4.272,0,0,0-4.5-4A4.272,4.272,0,0,0,32,7H30a2,2,0,0,0-2,2V30H11a2,2,0,0,1-2-2V22a2,2,0,0,1,2-2h7a4,4,0,0,0-4-4H9a6,6,0,0,0-6,6v6a8,8,0,0,0,8,8h9v6H39a2,2,0,0,0,2-2V17H57a4,4,0,0,0,4-4V11A4,4,0,0,0,57,7Z" style="fill:#ffd782"/><path d="M32,42h6a0,0,0,0,1,0,0v9a0,0,0,0,1,0,0H28a0,0,0,0,1,0,0V46a4,4,0,0,1,4-4Z" transform="translate(66 93) rotate(-180)" style="fill:#d3843d"/><path d="M28,57V51H24V61H36a4,4,0,0,0-4-4Z" style="fill:#d3843d"/><path d="M28,42h6a0,0,0,0,1,0,0v9a0,0,0,0,1,0,0H24a0,0,0,0,1,0,0V46a4,4,0,0,1,4-4Z" transform="translate(58 93) rotate(-180)" style="fill:#ad6327"/><circle cx="36.5" cy="7.5" r="1.5" style="fill:#25313e"/><rect x="48" y="10" width="2" height="3" style="fill:#b5554e"/><rect x="52" y="10" width="2" height="3" style="fill:#b5554e"/><rect x="56" y="10" width="2" height="3" style="fill:#b5554e"/><path d="M28,10c-2.209,0-6,3-6,10s3.791,10,6,10Z" style="fill:#d3843d"/><rect x="22" y="19" width="3" height="2" style="fill:#ffd782"/><rect x="23" y="15" width="2" height="2" style="fill:#ffd782"/><rect x="23" y="23" width="2" height="2" style="fill:#ffd782"/><path d="M41,29V25a2,2,0,0,0-2-2h0a2,2,0,0,0-2,2v8H49a2,2,0,0,0,2-2h0a2,2,0,0,0-2-2Z" style="fill:#d3843d"/><rect x="28" y="11" width="5" height="2" style="fill:#b5554e"/><rect x="28" y="15" width="5" height="2" style="fill:#b5554e"/><rect x="28" y="19" width="5" height="2" style="fill:#b5554e"/><rect x="28" y="23" width="5" height="2" style="fill:#b5554e"/><rect x="28" y="27" width="5" height="2" style="fill:#b5554e"/><rect x="3" y="24" width="3" height="2" style="fill:#b5554e"/><rect x="3" y="28" width="3" height="2" style="fill:#b5554e"/><rect x="3" y="20" width="3" height="2" style="fill:#b5554e"/><rect x="23" y="37" width="2" height="2" style="fill:#b5554e"/><rect x="27" y="35" width="2" height="2" style="fill:#b5554e"/><polygon points="61 14 40 14 40 10 42 10 42 12 61 12 61 14" style="fill:#b5554e"/><rect x="44" y="10" width="2" height="3" style="fill:#b5554e"/></g></svg>
