<?xml version="1.0"?>
<svg xmlns="http://www.w3.org/2000/svg" viewBox="0 0 64 64" width="512" height="512"><g id="flat"><rect x="28" y="40" width="6" height="14" style="fill:#933735"/><rect x="39" y="40" width="6" height="14" style="fill:#933735"/><rect x="49" y="34" width="6" height="20" style="fill:#933735"/><path d="M60.98,14.39A4.116,4.116,0,0,1,56.83,18H55V34c-.91,7.02-7.06,9.06-17,9-5.13-.03-8.52-.77-14-2l-.38,1.53L22,49a6.2,6.2,0,0,1-5.92,5H3a4,4,0,0,1,4-4h9l3-16c2-7,8.06-12,18-12a25.758,25.758,0,0,1,6,.7V16a6,6,0,0,1,6-6h8A4,4,0,0,1,60.98,14.39Z" style="fill:#c87e7d"/><path d="M55,18V34c-.91,7.02-7.06,9.06-17,9-5.13-.03-8.52-.77-14-2h0l1-4c21,4,24-1,24-1V18Z" style="fill:#ffd782"/><polygon points="37 22 35 18 37 15 39 18 37 22" style="fill:#933735"/><polygon points="29 23 26 19 29 15 32 19 29 23" style="fill:#933735"/><polygon points="24 26 19 25 18 20 23 21 24 26" style="fill:#933735"/><polygon points="19 34 14 33 13 28 18 29 19 34" style="fill:#933735"/><circle cx="52.5" cy="12.5" r="1.5" style="fill:#25313e"/></g></svg>
