<?xml version="1.0"?>
<svg xmlns="http://www.w3.org/2000/svg" viewBox="0 0 64 64" width="512" height="512"><g id="flat"><polygon points="3 27 3 31 17 36 17 42 45 42 45 38 48 34 48 27 3 27" style="fill:#c87e7d"/><rect x="17" y="38" width="28" height="4" style="fill:#ffd782"/><rect x="39" y="42" width="6" height="8" style="fill:#c87e7d"/><rect x="29" y="42" width="6" height="8" style="fill:#c87e7d"/><rect x="17" y="42" width="6" height="8" style="fill:#c87e7d"/><polygon points="54 33 36 33 38 24 36 17 45 19 54 17 52 24 54 33" style="fill:#426d78"/><path d="M45,23H56a5,5,0,0,1,5,5v0a5,5,0,0,1-5,5H45a0,0,0,0,1,0,0V23A0,0,0,0,1,45,23Z" style="fill:#ffd782"/><circle cx="52.5" cy="27.5" r="1.5" style="fill:#25313e"/><rect x="27" y="30" width="2" height="2" style="fill:#ffd782"/><rect x="31" y="31" width="2" height="2" style="fill:#ffd782"/><rect x="23" y="32" width="2" height="2" style="fill:#ffd782"/><rect x="19" y="31" width="2" height="2" style="fill:#ffd782"/><path d="M49,23H45l2-10h0a3.28,3.28,0,0,1,3.216,3.922Z" style="fill:#d3843d"/><rect x="4" y="24" width="2" height="3" style="fill:#d3843d"/><rect x="8" y="24" width="2" height="3" style="fill:#d3843d"/><rect x="12" y="24" width="2" height="3" style="fill:#d3843d"/><rect x="16" y="24" width="2" height="3" style="fill:#d3843d"/><rect x="20" y="24" width="2" height="3" style="fill:#d3843d"/><rect x="24" y="24" width="2" height="3" style="fill:#d3843d"/><rect x="28" y="24" width="2" height="3" style="fill:#d3843d"/><rect x="32" y="24" width="2" height="3" style="fill:#d3843d"/></g></svg>
