<?xml version="1.0"?>
<svg xmlns="http://www.w3.org/2000/svg" viewBox="0 0 64 64" width="512" height="512"><g id="flat"><path d="M30,57V51H26V61H38a4,4,0,0,0-4-4Z" style="fill:#ad6327"/><path d="M41,3H33a2,2,0,0,0-2,2V30H13a8,8,0,0,0-8,8v6a6,6,0,0,0,6,6h7a4,4,0,0,0,4-4H13a2,2,0,0,1-2-2V38a2,2,0,0,1,2-2h2v6H37a2,2,0,0,0,2-2V17h4V5A2,2,0,0,0,41,3Z" style="fill:#426d78"/><path d="M30,42h6a0,0,0,0,1,0,0v9a0,0,0,0,1,0,0H26a0,0,0,0,1,0,0V46A4,4,0,0,1,30,42Z" transform="translate(62 93) rotate(-180)" style="fill:#8aa3a8"/><path d="M26,57V51H22V61H34a4,4,0,0,0-4-4Z" style="fill:#d3843d"/><path d="M26,42h6a0,0,0,0,1,0,0v9a0,0,0,0,1,0,0H22a0,0,0,0,1,0,0V46A4,4,0,0,1,26,42Z" transform="translate(54 93) rotate(-180)" style="fill:#2c5660"/><path d="M39,26V22a2,2,0,0,0-2-2h0a2,2,0,0,0-2,2v8H47a2,2,0,0,0,2-2h0a2,2,0,0,0-2-2Z" style="fill:#2c5660"/><path d="M43,7H55a4,4,0,0,1,4,4v2a0,0,0,0,1,0,0H43a0,0,0,0,1,0,0V7A0,0,0,0,1,43,7Z" style="fill:#d3843d"/><path d="M43,13H59a0,0,0,0,1,0,0v0a4,4,0,0,1-4,4H43a0,0,0,0,1,0,0V13A0,0,0,0,1,43,13Z" style="fill:#8b3123"/><circle cx="38.5" cy="7.5" r="1.5" style="fill:#25313e"/><rect x="28" y="5" width="3" height="2" style="fill:#d3843d"/><rect x="26" y="9" width="5" height="2" style="fill:#d3843d"/><rect x="28" y="13" width="3" height="2" style="fill:#d3843d"/><rect x="26" y="17" width="5" height="2" style="fill:#d3843d"/><rect x="28" y="21" width="3" height="2" style="fill:#d3843d"/><path d="M17,30h4a0,0,0,0,1,0,0v0a4,4,0,0,1-4,4h0a0,0,0,0,1,0,0V30A0,0,0,0,1,17,30Z" style="fill:#d3843d"/><path d="M22,30h4a0,0,0,0,1,0,0v0a4,4,0,0,1-4,4h0a0,0,0,0,1,0,0V30A0,0,0,0,1,22,30Z" style="fill:#d3843d"/><path d="M27,30h4a0,0,0,0,1,0,0v0a4,4,0,0,1-4,4h0a0,0,0,0,1,0,0V30A0,0,0,0,1,27,30Z" style="fill:#d3843d"/><rect x="26" y="25" width="5" height="2" style="fill:#d3843d"/><rect x="34" y="37" width="2" height="2" style="fill:#8aa3a8"/><rect x="15" y="37" width="5" height="2" style="fill:#8aa3a8"/></g></svg>
