<?xml version="1.0"?>
<svg xmlns="http://www.w3.org/2000/svg" viewBox="0 0 64 64" width="512" height="512"><g id="flat"><path d="M15,27C7.094,28.581,3,36,3,36H15v6H40V38l3-4V26A89.538,89.538,0,0,0,15,27Z" style="fill:#426d78"/><rect x="15" y="38" width="25" height="4" style="fill:#ffd782"/><rect x="32" y="42" width="6" height="8" style="fill:#426d78"/><rect x="17" y="42" width="6" height="8" style="fill:#426d78"/><path d="M41,24H56a5,5,0,0,1,5,5v0a5,5,0,0,1-5,5H41a0,0,0,0,1,0,0V24A0,0,0,0,1,41,24Z" style="fill:#ffd782"/><circle cx="50.5" cy="28.5" r="1.5" style="fill:#25313e"/><path d="M47,24H43l2-10h0a3.28,3.28,0,0,1,3.216,3.922Z" style="fill:#d3843d"/><path d="M55,24H51l1-6h0a3.388,3.388,0,0,1,3.342,3.946Z" style="fill:#d3843d"/><path d="M43,34H31l4-5-4-4,3-4-3-6h0A12,12,0,0,1,43,27Z" style="fill:#4da19a"/><rect x="27" y="26" width="2" height="3" style="fill:#4da19a"/><rect x="23" y="26" width="2" height="5" style="fill:#4da19a"/><rect x="19" y="26" width="2" height="7" style="fill:#4da19a"/><rect x="15" y="27" width="2" height="4" style="fill:#4da19a"/><rect x="11" y="31" width="2" height="2" style="fill:#4da19a"/></g></svg>
