<?xml version="1.0"?>
<svg xmlns="http://www.w3.org/2000/svg" viewBox="0 0 64 64" width="512" height="512"><g id="flat"><rect x="20" y="19" width="2" height="4.357" style="fill:#6d1f17"/><path d="M33,53V47H29V57H41a4,4,0,0,0-4-4Z" style="fill:#ad6327"/><path d="M49,9H48c0-1.657-2.015-3-4.5-3S39,7.343,39,9h0a4,4,0,0,0-4,4v9H21C19.9,22,3,25,3,25v5c0,4.418,3,7,8,4l10-6v4l2,6H41a2,2,0,0,0,2-2V17h6c2.209,0,12-4,12-4h0S57,9,49,9Z" style="fill:#b5554e"/><circle cx="43.5" cy="10.5" r="1.5" style="fill:#25313e"/><path d="M61,29H43V25.107a2.075,2.075,0,0,0-1.664-2.08A2,2,0,0,0,39,25v8H61Z" style="fill:#6d1f17"/><rect x="32" y="17" width="3" height="2" style="fill:#6d1f17"/><rect x="32" y="13" width="3" height="2" style="fill:#6d1f17"/><rect x="28" y="19" width="2" height="3" style="fill:#6d1f17"/><rect x="24" y="19" width="2" height="3" style="fill:#6d1f17"/><path d="M33,38h6a0,0,0,0,1,0,0v9a0,0,0,0,1,0,0H29a0,0,0,0,1,0,0V42A4,4,0,0,1,33,38Z" transform="translate(68 85) rotate(-180)" style="fill:#ce706e"/><path d="M29,53V47H25V57H37a4,4,0,0,0-4-4Z" style="fill:#d3843d"/><path d="M29,38h6a0,0,0,0,1,0,0v9a0,0,0,0,1,0,0H25a0,0,0,0,1,0,0V42A4,4,0,0,1,29,38Z" transform="translate(60 85) rotate(-180)" style="fill:#6d1f17"/><rect x="22" y="41" width="3" height="2" style="fill:#b5554e"/><rect x="22" y="45" width="3" height="2" style="fill:#b5554e"/><rect x="22" y="49" width="3" height="2" style="fill:#b5554e"/><rect x="22" y="53" width="3" height="2" style="fill:#b5554e"/><path d="M47,33h4a0,0,0,0,1,0,0v6a4,4,0,0,1-4,4h0a0,0,0,0,1,0,0V33A0,0,0,0,1,47,33Z" style="fill:#ad6327"/><path d="M51,33h4a0,0,0,0,1,0,0v4a4,4,0,0,1-4,4h0a0,0,0,0,1,0,0V33A0,0,0,0,1,51,33Z" style="fill:#d3843d"/><path d="M55,33h4a0,0,0,0,1,0,0v2a4,4,0,0,1-4,4h0a0,0,0,0,1,0,0V33A0,0,0,0,1,55,33Z" style="fill:#ad6327"/><path d="M43,46h0V33h4v9A4,4,0,0,1,43,46Z" style="fill:#d3843d"/><path d="M49,9c-4,4,0,8,0,8,2.209,0,12-4,12-4S57,9,49,9Z" style="fill:#d3843d"/><rect x="21" y="27" width="9" height="2" style="fill:#6d1f17"/><rect x="21" y="31" width="11" height="2" style="fill:#6d1f17"/><rect x="4.199" y="30.5" width="8.602" height="1.999" transform="translate(-16.726 10.808) rotate(-35.538)" style="fill:#6d1f17"/><rect x="2.728" y="27.5" width="8.544" height="2" transform="translate(-9.559 4.271) rotate(-20.549)" style="fill:#6d1f17"/></g></svg>
