<?xml version="1.0"?>
<svg xmlns="http://www.w3.org/2000/svg" viewBox="0 0 64 64" width="512" height="512"><g id="flat"><path d="M42,57V51H38V61H50a4,4,0,0,0-4-4Z" style="fill:#ad6327"/><path d="M43,7c0-2.209-1.462-4-4.5-4S34,4.791,34,7H32a2,2,0,0,0-2,2v2H18a4,4,0,0,0-4,4v2H30v4H48V11C48,8.791,47,7,43,7Z" style="fill:#c87e7d"/><path d="M38,21v7H26.886a6,6,0,0,0-5.876,4.784L16,57H11a4,4,0,0,0-4,4h9.993a6,6,0,0,0,5.9-4.927L25.455,42H48V21Z" style="fill:#b5554e"/><path d="M42,42h4a0,0,0,0,1,0,0v9a0,0,0,0,1,0,0H38a0,0,0,0,1,0,0V46A4,4,0,0,1,42,42Z" transform="translate(84 93) rotate(-180)" style="fill:#933735"/><path d="M34,57V51H30V61H42a4,4,0,0,0-4-4Z" style="fill:#d3843d"/><path d="M34,42h4a0,0,0,0,1,0,0v9a0,0,0,0,1,0,0H30a0,0,0,0,1,0,0V46A4,4,0,0,1,34,42Z" transform="translate(68 93) rotate(-180)" style="fill:#b5554e"/><path d="M14,17H26a4,4,0,0,1,4,4v0a0,0,0,0,1,0,0H14a0,0,0,0,1,0,0V17A0,0,0,0,1,14,17Z" transform="translate(44 38) rotate(-180)" style="fill:#b5554e"/><rect x="25" y="14" width="2" height="3" style="fill:#b5554e"/><rect x="21" y="14" width="2" height="3" style="fill:#b5554e"/><rect x="17" y="14" width="2" height="3" style="fill:#b5554e"/><circle cx="38.5" cy="7.5" r="1.5" style="fill:#25313e"/><rect x="29" y="14" width="2" height="3" style="fill:#b5554e"/><path d="M36,15H34c0-2.966-3.837-3-4-3V10C32.075,10,36,11.045,36,15Z" style="fill:#b5554e"/><rect x="45" y="11" width="3" height="2" style="fill:#b5554e"/><rect x="43" y="15" width="5" height="2" style="fill:#b5554e"/><path d="M44,28V38H28v4H48V28a2,2,0,0,0-2-2h0A2,2,0,0,0,44,28Z" style="fill:#ffd782"/><rect x="33" y="28" width="2" height="5" style="fill:#c87e7d"/><rect x="29" y="28" width="2" height="5" style="fill:#c87e7d"/><rect x="25" y="28" width="2" height="7" style="fill:#c87e7d"/><rect x="17" y="52" width="3" height="2" style="fill:#c87e7d"/><rect x="18" y="48" width="3" height="2" style="fill:#c87e7d"/><rect x="19" y="44" width="3" height="2" style="fill:#c87e7d"/><path d="M48,32V28a2,2,0,0,0-2-2h0a2,2,0,0,0-2,2v8h9a2,2,0,0,0,2-2h0a2,2,0,0,0-2-2Z" style="fill:#c87e7d"/></g></svg>
