<?xml version="1.0"?>
<svg xmlns="http://www.w3.org/2000/svg" viewBox="0 0 64 64" width="512" height="512"><g id="flat"><path d="M44,57V51H40V61H52a4,4,0,0,0-4-4Z" style="fill:#ad6327"/><path d="M41,7.5h0A4.5,4.5,0,0,0,45.5,12H49L41,28H15a4,4,0,0,1-4-4V18a2,2,0,0,1,2-2H23a4,4,0,0,0-4-4H11a6,6,0,0,0-6,6v8c0,4.971,4.029,8,12,8h5v8H44L56,12V5a2,2,0,0,0-2-2H45.5A4.5,4.5,0,0,0,41,7.5Z" style="fill:#e4544f"/><path d="M49,28V24.107a2.075,2.075,0,0,0-1.664-2.08A2,2,0,0,0,45,24v7l9,5v3a2,2,0,0,0,2,2h0a2,2,0,0,0,2-2V33Z" style="fill:#6d1f17"/><circle cx="51.5" cy="7.5" r="1.5" style="fill:#25313e"/><rect x="40" y="28" width="2" height="5" style="fill:#6d1f17"/><rect x="36" y="28" width="2" height="5" style="fill:#6d1f17"/><rect x="32" y="28" width="2" height="5" style="fill:#6d1f17"/><rect x="28" y="28" width="2" height="5" style="fill:#6d1f17"/><rect x="8" y="20" width="3" height="2" style="fill:#6d1f17"/><rect x="8" y="24" width="3" height="2" style="fill:#6d1f17"/><rect x="8" y="16" width="3" height="2" style="fill:#6d1f17"/><rect x="24" y="28" width="2" height="3" style="fill:#6d1f17"/><rect x="20" y="28" width="2" height="3" style="fill:#6d1f17"/><rect x="22" y="37" width="5" height="2" style="fill:#6d1f17"/><rect x="29" y="37" width="2" height="2" style="fill:#6d1f17"/><path d="M21,50h8V46H17V58h0a4,4,0,0,0,4-4Z" style="fill:#d3843d"/><rect x="40" y="42" width="4" height="9" style="fill:#c87e7d"/><rect x="29" y="42" width="6" height="8" style="fill:#6d1f17"/></g></svg>
