<?xml version="1.0"?>
<svg xmlns="http://www.w3.org/2000/svg" viewBox="0 0 64 64" width="512" height="512"><g id="flat"><path d="M47,61H17l3.769-28.264A2,2,0,0,1,22.751,31h18.5a2,2,0,0,1,1.982,1.736Z" style="fill:#c87e7d"/><path d="M41,7a7.981,7.981,0,0,0-1.937.246A8,8,0,0,0,24,11c0,.09.01.177.013.266A8,8,0,1,0,26,25.921V31H38V22.413A8,8,0,1,0,41,7Z" style="fill:#e4544f"/><path d="M22.466,24.2a4.507,4.507,0,0,1-4.415-2.887l1.894-.644c.078.217.855,2.1,3.812,1.358l.486,1.94A7.317,7.317,0,0,1,22.466,24.2Z" style="fill:#fff"/><path d="M41.486,20.5a8.474,8.474,0,0,1-2.858-.57l.742-1.858c.71.281,2.421.7,3.17.189.113-.078.46-.314.46-1.26h2a3.276,3.276,0,0,1-1.341,2.917A3.839,3.839,0,0,1,41.486,20.5Z" style="fill:#fff"/><path d="M27.02,12.2a6.018,6.018,0,0,1,.971-4.562A4.9,4.9,0,0,1,32,6V8a3.028,3.028,0,0,0-2.462.9,4.054,4.054,0,0,0-.558,2.9Z" style="fill:#fff"/><rect x="43" y="13" width="2" height="2" style="fill:#fff"/><rect x="16.972" y="55.5" width="9.055" height="2" transform="translate(-37.028 71.632) rotate(-83.663)" style="fill:#f3bb59"/><rect x="40.5" y="54.959" width="2" height="6.083" transform="translate(-8.97 7.612) rotate(-9.462)" style="fill:#f3bb59"/><path d="M11,20H9C9,6.16,19.89,6,20,6l0,2C19.636,8,11,8.2,11,20Z" style="fill:#fc8686"/><path d="M42.624,28.021c-.413,0-.67-.021-.714-.025L42.088,26a10.347,10.347,0,0,0,7.121-2.3C51.061,22,52,19.41,52,16h2c0,4-1.163,7.095-3.455,9.188A11.983,11.983,0,0,1,42.624,28.021Z" style="fill:#fc8686"/><circle cx="13" cy="31" r="3" style="fill:#fc8686"/><circle cx="54" cy="6" r="3" style="fill:#fc8686"/><path d="M20.769,32.736,19.044,45.673A3.986,3.986,0,0,0,26,43v5a5,5,0,0,0,10,0V44a5,5,0,0,0,9.112,2.837l-1.881-14.1A2,2,0,0,0,41.249,31h-18.5A2,2,0,0,0,20.769,32.736Z" style="fill:#f3bb59"/></g></svg>
